<svg xmlns="http://www.w3.org/2000/svg" width="56" height="56" viewBox="0 0 56 56">
  <g id="Group_23559" data-name="Group 23559" transform="translate(-195 -1452)">
    <g id="Ellipse_942" data-name="Ellipse 942" transform="translate(195 1452)" fill="#c9f" stroke="" stroke-width="1">
      <circle cx="28" cy="28" r="28" stroke="none"/>
      <circle cx="28" cy="28" r="27.5" fill="none"/>
    </g>
    <g id="Group_23820" data-name="Group 23820" transform="translate(-505.911 485.126)">
      <path id="Path_18031" data-name="Path 18031" d="M738.995,1183.608a2.279,2.279,0,0,1-1.215,1.3,10.068,10.068,0,0,1-2.824.945,31.383,31.383,0,0,1-7.541.528,26.925,26.925,0,0,1-4.549-.528,9.182,9.182,0,0,1-3.075-1.1,3.423,3.423,0,0,1-.591-.485,1.243,1.243,0,0,1-.375-.9q0-3.437,0-6.873c0-.038,0-.076.006-.143.1.063.188.117.275.168a10.44,10.44,0,0,0,2.653,1.018,24.929,24.929,0,0,0,4.619.721,36.2,36.2,0,0,0,4.546.032,22.38,22.38,0,0,0,6.4-1.15,17.486,17.486,0,0,0,1.593-.757.422.422,0,0,1,.072-.02Z" transform="translate(0 -182.544)" fill="#0e1116"/>
      <path id="Path_18032" data-name="Path 18032" d="M984.5,1030.625c0-.682-.007-1.364,0-2.046a1.508,1.508,0,0,1,2.966-.365,1.541,1.541,0,0,1,.056.388c0,1.345.014,2.689,0,4.034a1.5,1.5,0,0,1-2.193,1.348,1.441,1.441,0,0,1-.828-1.332C984.489,1031.976,984.5,1031.3,984.5,1030.625Zm2.013,0c0-.669,0-1.338,0-2.008a.5.5,0,1,0-1-.008c0,.033,0,.066,0,.1q0,1.909,0,3.818a.935.935,0,0,0,.034.291.5.5,0,0,0,.964-.184C986.514,1031.965,986.511,1031.3,986.512,1030.626Z" transform="translate(-253.067 -40.366)" fill="#0e1116"/>
      <path id="Path_18033" data-name="Path 18033" d="M900.49,1029.128a5.326,5.326,0,0,1,.921.06,1.423,1.423,0,0,1,1.086,1.359c.018.728.021,1.457,0,2.184a1.5,1.5,0,0,1-3-.006q-.03-2.1,0-4.191a1.477,1.477,0,0,1,1.467-1.432c.334-.007.669,0,1,0a.5.5,0,0,1,.536.484.493.493,0,0,1-.517.523c-.308.011-.617,0-.925,0a.514.514,0,0,0-.571.573C900.488,1028.848,900.49,1029.011,900.49,1029.128Zm0,2.5c0,.321,0,.642,0,.963a.508.508,0,1,0,1.012,0q.005-.953,0-1.906a.508.508,0,1,0-1.012,0C900.487,1031,900.49,1031.316,900.49,1031.63Z" transform="translate(-172.086 -40.374)" fill="#0e1116"/>
      <path id="Path_18034" data-name="Path 18034" d="M816.489,1031.174H815.6c-.2,0-.394,0-.591,0a.5.5,0,1,1,0-1c.42,0,.84,0,1.26,0h.219c0-.3,0-.579,0-.859,0-.223.006-.447,0-.669a.477.477,0,0,0-.49-.485c-.328-.01-.657,0-.984-.007a.5.5,0,0,1-.5-.665.44.44,0,0,1,.4-.331,8.6,8.6,0,0,1,1.374.031,1.441,1.441,0,0,1,1.215,1.419q.016,2.068,0,4.135a1.489,1.489,0,0,1-1.449,1.455c-.348.009-.7.006-1.044,0a.5.5,0,1,1-.01-1c.3-.008.6,0,.906,0a.52.52,0,0,0,.59-.594C816.492,1032.136,816.489,1031.671,816.489,1031.174Z" transform="translate(-91.111 -40.417)" fill="#0e1116"/>
      <path id="Path_18035" data-name="Path 18035" d="M1080.153,1114.9v-.578c0-.682,0-1.365,0-2.047a.517.517,0,0,1,.755-.542,4.836,4.836,0,0,1,1.552.786,3.114,3.114,0,0,1,.584.677c.159.242.13.314-.092.5a4.052,4.052,0,0,1-.544.387,7.416,7.416,0,0,1-2.085.8C1080.275,1114.887,1080.223,1114.889,1080.153,1114.9Z" transform="translate(-344.187 -120.945)" fill="#0e1116"/>
      <path id="Path_18036" data-name="Path 18036" d="M722.553,1114.8a6.76,6.76,0,0,1-2.7-1.144c-.349-.272-.374-.269-.118-.713a2.266,2.266,0,0,1,1-.86,11.692,11.692,0,0,1,1.135-.488.481.481,0,0,1,.675.42C722.566,1112.934,722.553,1113.852,722.553,1114.8Z" transform="translate(-0.703 -120.831)" fill="#0e1116"/>
      <path id="Path_18037" data-name="Path 18037" d="M1071.091,984.713a1.511,1.511,0,0,1,.013,3.022,1.511,1.511,0,1,1-.013-3.022Zm.5,1.51a.5.5,0,1,0-.5.5A.5.5,0,0,0,1071.595,986.223Z" transform="translate(-334.115)" fill="#0e1116"/>
    </g>
  </g>
</svg>
