<svg xmlns="http://www.w3.org/2000/svg" width="56" height="56" viewBox="0 0 56 56">
  <g id="Group_23559" data-name="Group 23559" transform="translate(-195 -1451.533)">
    <g id="Ellipse_942" data-name="Ellipse 942" transform="translate(195 1451.533)" fill="#c3d4ca" stroke="" stroke-width="1">
      <circle cx="28" cy="28" r="28" stroke="none"/>
      <circle cx="28" cy="28" r="27.5" fill="none"/>
    </g>
    <path id="android-svgrepo-com" d="M14.563,4.344,13.344,6.063a5.721,5.721,0,0,1,3.438,4.563h-13A5.683,5.683,0,0,1,7.188,6.063L5.969,4.344a.235.235,0,0,1,.063-.313.249.249,0,0,1,.313.063L7.6,5.907a7.468,7.468,0,0,1,2.688-.5,7.619,7.619,0,0,1,2.688.5l1.25-1.813a.2.2,0,0,1,.281-.063.237.237,0,0,1,.063.313ZM7.531,8.813a.708.708,0,0,0,.719-.719.727.727,0,0,0-.719-.719.749.749,0,0,0-.719.719A.727.727,0,0,0,7.531,8.813Zm5.563,0a.708.708,0,0,0,.719-.719.727.727,0,0,0-.719-.719.749.749,0,0,0-.719.719A.727.727,0,0,0,13.094,8.813ZM0,18.781V13a1.474,1.474,0,0,1,1.469-1.5A1.468,1.468,0,0,1,2.907,13v5.781a1.454,1.454,0,1,1-2.907,0Zm17.594,0V13a1.469,1.469,0,1,1,2.938,0v5.781a1.469,1.469,0,1,1-2.938,0ZM3.813,22.125V11.531h13V22.125a1.174,1.174,0,0,1-1.156,1.156H14.376v3.281a1.469,1.469,0,0,1-2.938,0V23.281H9.157v3.281a1.454,1.454,0,1,1-2.907,0V23.281H4.937a1.168,1.168,0,0,1-1.125-1.156Z" transform="translate(213 1463.535)"/>
  </g>
</svg>
