<svg xmlns="http://www.w3.org/2000/svg" width="70" height="70" viewBox="0 0 70 70">
  <g id="Group_23574" data-name="Group 23574" transform="translate(-195 -1451.533)">
    <circle id="Ellipse_942" data-name="Ellipse 942" cx="35" cy="35" r="35" transform="translate(195 1451.533)" fill="#809bce"/>
    <g id="bag-smile-svgrepo-com" transform="translate(218.008 1474.533)">
      <path id="Path_17817" data-name="Path 17817" d="M9,6V5a3,3,0,0,1,6,0V6" fill="none" stroke="#0e1116" stroke-linecap="round" stroke-width="1.5"/>
      <path id="Path_17818" data-name="Path 17818" d="M9.171,15a3,3,0,0,0,5.659,0" fill="none" stroke="#0e1116" stroke-linecap="round" stroke-width="1.5"/>
      <path id="Path_17819" data-name="Path 17819" d="M20.223,12.526c-.585-3.121-.878-4.682-1.989-5.6S15.536,6,12.361,6h-.721c-3.176,0-4.763,0-5.874.922s-1.4,2.483-1.989,5.6c-.823,4.389-1.234,6.583-.035,8.029S7.174,22,11.639,22h.721c4.465,0,6.7,0,7.9-1.445.7-.839.85-1.929.7-3.555" fill="none" stroke="#0e1116" stroke-linecap="round" stroke-width="1.5"/>
    </g>
  </g>
</svg>
