<svg xmlns="http://www.w3.org/2000/svg" width="70" height="70" viewBox="0 0 70 70">
  <g id="Group_23574" data-name="Group 23574" transform="translate(-195 -1451.533)">
    <circle id="Ellipse_942" data-name="Ellipse 942" cx="35" cy="35" r="35" transform="translate(195 1451.533)" fill="#b8e0d2"/>
    <g id="education-graduation-highschool-svgrepo-com" transform="translate(191.556 1330.202)">
      <path id="Path_17820" data-name="Path 17820" d="M561.587,231.654l.243.1a.8.8,0,0,0,.629-1.463l-.243-.1a.8.8,0,0,0-.629,1.463Z" transform="translate(-516.254 -80.458)" fill="#0e1116"/>
      <path id="Path_17821" data-name="Path 17821" d="M52.33,157.58v-4.585a.8.8,0,0,0-.8-.8H37.887a.8.8,0,1,0,0,1.593h9.778l-9.778,4.2-11.63-5,11.63-5,5.22,2.244a.8.8,0,1,0,.629-1.463L38.2,146.4a.8.8,0,0,0-.629,0l-13.647,5.867a.8.8,0,0,0,0,1.463l13.647,5.867a.8.8,0,0,0,.629,0l7.511-3.229v5.51a11.588,11.588,0,0,1-15.651,0v-1.406a.8.8,0,0,0-.8-.8h0a.8.8,0,0,0-.8.8v1.747a.8.8,0,0,0,.239.569,13.117,13.117,0,0,0,18.358,0,.8.8,0,0,0,.239-.569v-6.536l3.432-1.476v3.376a1.9,1.9,0,0,0-1.1,1.72c0,.781.583,2.836,1.9,2.836s1.9-2.055,1.9-2.836A1.9,1.9,0,0,0,52.33,157.58Zm-.8,2.749a2.864,2.864,0,0,1-.3-1.028.3.3,0,1,1,.607,0A2.866,2.866,0,0,1,51.534,160.329Z" transform="translate(0)" fill="#0e1116"/>
      <path id="Path_17822" data-name="Path 17822" d="M150.444,415.774a.8.8,0,0,0,.8-.8v-.265a.8.8,0,0,0-1.593,0v.265A.8.8,0,0,0,150.444,415.774Z" transform="translate(-121.179 -256.931)" fill="#0e1116"/>
    </g>
  </g>
</svg>
