<svg xmlns="http://www.w3.org/2000/svg" width="1590" height="330" viewBox="0 0 1590 330">
  <g id="Group_24259" data-name="Group 24259" transform="translate(-165 -2695)">
    <text id="Analyze_The_Requirements" data-name="Analyze The
Requirements" transform="translate(283 2916)" fill="#0e1116" font-size="24" font-family="Inter-Bold, Inter" font-weight="700"><tspan x="-73.006" y="0">Analyze The</tspan><tspan x="-81.912" y="36">Requirements</tspan></text>
    <text id="Researh_Strategy" data-name="Researh
&amp; Strategy" transform="translate(556 2916)" fill="#0e1116" font-size="24" font-family="Inter-Bold, Inter" font-weight="700"><tspan x="-48.209" y="0">Researh</tspan><tspan x="-61.47" y="36">&amp; Strategy</tspan></text>
    <text id="Wireframe_And_Prototype" data-name="Wireframe
And Prototype" transform="translate(827 2916)" fill="#0e1116" font-size="24" font-family="Inter-Bold, Inter" font-weight="700"><tspan x="-61.892" y="0">Wireframe</tspan><tspan x="-84.989" y="36">And Prototype</tspan></text>
    <text id="App_Development" data-name="App
Development" transform="translate(1097 2916)" fill="#0e1116" font-size="24" font-family="Inter-Bold, Inter" font-weight="700"><tspan x="-24.153" y="0">App</tspan><tspan x="-78.158" y="36">Development</tspan></text>
    <text id="Quality_Assurance_or_Testing" data-name="Quality
Assurance
or Testing" transform="translate(1371 2916)" fill="#0e1116" font-size="24" font-family="Inter-Bold, Inter" font-weight="700"><tspan x="-42.038" y="0">Quality</tspan><tspan x="-63.132" y="36">Assurance</tspan><tspan x="-59.016" y="72">or Testing</tspan></text>
    <text id="Deployment" transform="translate(1644 2916)" fill="#0e1116" font-size="24" font-family="Inter-Bold, Inter" font-weight="700"><tspan x="-71.169" y="0">Deployment</tspan></text>
    <g id="process-development" transform="translate(165 2695)">
      <path id="Subtraction_13" data-name="Subtraction 13" d="M220,330H10A10,10,0,0,1,0,320V10A10,10,0,0,1,10,0H220a10,10,0,0,1,10,10V125h-2V11a9,9,0,0,0-9-9H11a9,9,0,0,0-9,9V319a9,9,0,0,0,9,9H219a9,9,0,0,0,9-9V205h2V320A10,10,0,0,1,220,330Z" fill="#e51635"/>
      <path id="Union_1" data-name="Union 1" d="M230,230.85h-2V204.7a30,30,0,0,1,29.95-30h4.83a1,1,0,0,1,.91-.59H289L274.5,158.7a1.07,1.07,0,0,1,0-1.43,1,1,0,0,1,1.43,0l16.1,17.1h0a1.06,1.06,0,0,1,0,1.38L276,192.9a1,1,0,0,1-1.43,0,1.05,1.05,0,0,1,0-1.43L289,176.11H269.5v.59H259a29,29,0,0,0-29,29v25.15Z" fill="#e51635"/>
      <g id="Subtraction_27" data-name="Subtraction 27">
        <path id="Path_19576" data-name="Path 19576" d="M492,330H282a10,10,0,0,1-10-10V224h2v95a9,9,0,0,0,9,9H491a9,9,0,0,0,9-9V205h2V320A10,10,0,0,1,492,330Zm10-205h-2V11a9,9,0,0,0-9-9H283a9,9,0,0,0-9,9V125h-2V10A10,10,0,0,1,282,0H492a10,10,0,0,1,10,10Z" fill="#e51635"/>
      </g>
      <g id="Union_2" data-name="Union 2">
        <path id="Path_19577" data-name="Path 19577" d="M502,230.85h-2V204.7a30,30,0,0,1,30-30h4.83a1,1,0,0,1,.91-.59H561L546.49,158.7a1.06,1.06,0,0,1,0-1.43,1,1,0,0,1,1.43,0l16.1,17.1h0a1.06,1.06,0,0,1,0,1.38L548,192.9a1.008,1.008,0,0,1-1.47-1.38L561,176.11H541.5v.59H531a29,29,0,0,0-29,29v25.15Z" fill="#e51635"/>
      </g>
      <g id="Subtraction_31" data-name="Subtraction 31">
        <path id="Path_19595" data-name="Path 19595" d="M764,330H554a10,10,0,0,1-10-10V224h2v95a9,9,0,0,0,9,9H763a9,9,0,0,0,9-9V205h2V320A10,10,0,0,1,764,330Zm10-205h-2V11a9,9,0,0,0-9-9H555a9,9,0,0,0-9,9V125h-2V10A10,10,0,0,1,554,0H764a10,10,0,0,1,10,10Z" fill="#e51635"/>
      </g>
      <g id="Union_3" data-name="Union 3">
        <path id="Path_19596" data-name="Path 19596" d="M774,230.85h-2V204.7a30,30,0,0,1,30-30h4.83a1,1,0,0,1,.91-.59H833L818.49,158.7a1.06,1.06,0,0,1,0-1.43,1,1,0,0,1,1.43,0l16.1,17.1h0a1.06,1.06,0,0,1,0,1.38L820,192.9a1.008,1.008,0,0,1-1.47-1.38L833,176.11H813.5v.59H803a29,29,0,0,0-29,29v25.15Z" fill="#e51635"/>
      </g>
      <g id="Subtraction_43" data-name="Subtraction 43">
        <path id="Path_19618" data-name="Path 19618" d="M1036,330H826a10,10,0,0,1-10-10V224h2v95a9,9,0,0,0,9,9h208a9,9,0,0,0,9-9V205h2V320A10,10,0,0,1,1036,330Zm10-205h-2V11a9,9,0,0,0-9-9H827a9,9,0,0,0-9,9V125h-2V10A10,10,0,0,1,826,0h210a10,10,0,0,1,10,10Z" fill="#e51635"/>
      </g>
      <g id="Union_4" data-name="Union 4">
        <path id="Path_19619" data-name="Path 19619" d="M1046,230.85h-2V204.7a30,30,0,0,1,30-30h4.83a1,1,0,0,1,.91-.59H1105l-14.49-15.41a1.06,1.06,0,0,1,0-1.43,1,1,0,0,1,1.43,0l16.1,17.1h0a1.06,1.06,0,0,1,0,1.38L1092,192.9a1.008,1.008,0,0,1-1.47-1.38l14.5-15.41H1085.5v.59H1075a29,29,0,0,0-29,29v25.15Z" fill="#e51635"/>
      </g>
      <g id="Subtraction_55" data-name="Subtraction 55">
        <path id="Path_19634" data-name="Path 19634" d="M1308,330H1098a10,10,0,0,1-10-10V224h2v95a9,9,0,0,0,9,9h208a9,9,0,0,0,9-9V205h2V320A10,10,0,0,1,1308,330Zm10-205h-2V11a9,9,0,0,0-9-9H1099a9,9,0,0,0-9,9V125h-2V10a10,10,0,0,1,10-10h210a10,10,0,0,1,10,10Z" fill="#e51635"/>
      </g>
      <g id="Union_5" data-name="Union 5">
        <path id="Path_19635" data-name="Path 19635" d="M1318,230.85h-2V204.7a30,30,0,0,1,30-30h4.83a1,1,0,0,1,.91-.59H1377l-14.49-15.41a1.06,1.06,0,0,1,0-1.43,1,1,0,0,1,1.43,0l16.1,17.1h0a1.06,1.06,0,0,1,0,1.38L1364,192.9a1.008,1.008,0,0,1-1.47-1.38l14.5-15.41H1357.5v.59H1347a29,29,0,0,0-29,29v25.15Z" fill="#e51635"/>
      </g>
      <g id="Union_6" data-name="Union 6">
        <path id="Path_19661" data-name="Path 19661" d="M1370,330a10,10,0,0,1-10-10V224h2v95a9,9,0,0,0,9,9h208a9,9,0,0,0,9-9V11a9,9,0,0,0-9-9H1371a9,9,0,0,0-9,9V125h-2V10a10,10,0,0,1,10-10h210a10,10,0,0,1,10,10V125h0v80h0V320a10,10,0,0,1-10,10Z" fill="#e51635"/>
      </g>
      <g id="Group_4" data-name="Group 4">
        <path id="Path_30" data-name="Path 30" d="M1473.75,102.15a7.85,7.85,0,1,1,0,11.1h0a7.86,7.86,0,0,1,0-11.1Zm2.78,8.32a3.92,3.92,0,1,0,0-5.55,3.92,3.92,0,0,0,0,5.55Z" fill="#e51635" fill-rule="evenodd"/>
        <path id="Path_31" data-name="Path 31" d="M1498.57,82a6,6,0,0,1,6.43,5.5,4.821,4.821,0,0,1,0,.93,46.417,46.417,0,0,1-3.38,14.12,47.646,47.646,0,0,1-7.38,12.28,48.247,48.247,0,0,1-6.25,6.29,24.5,24.5,0,0,1-7.28,15.71,25.312,25.312,0,0,1-7.06,5,2,2,0,0,1-2.61-.93,1.91,1.91,0,0,1,0-1.68,19.889,19.889,0,0,0,1.92-9.66c-.68.23-1.37.45-2.07.65l-3.76,6.27a2,2,0,0,1-2.7.67,2.063,2.063,0,0,1-.37-.29l-2.9-2.9a44,44,0,0,1-4.44,3,21.819,21.819,0,0,1-3.75,1.78c-1.48.49-3.08.62-4.17-.47-.93-.92-1.08-2.32-.47-4.17a21.1,21.1,0,0,1,1.78-3.75,45.3,45.3,0,0,1,3-4.45l-2.9-2.89a2,2,0,0,1,0-2.78,2.061,2.061,0,0,1,.37-.29l6.27-3.76c.2-.69.42-1.38.65-2.07a19.83,19.83,0,0,0-9.65,1.92,2,2,0,0,1-2.62-2.62,25.371,25.371,0,0,1,5-7A24.5,24.5,0,0,1,1465.88,99a48.139,48.139,0,0,1,18.57-13.63A46.419,46.419,0,0,1,1498.57,82Zm-45.63,27.06c-.48.49-.94,1-1.38,1.52a23.1,23.1,0,0,1,7.37-.35,46.47,46.47,0,0,1,3.64-6.73,21.09,21.09,0,0,0-9.63,5.58Zm-.72,25.7a22.485,22.485,0,0,0,3.26-1.71c1.07-.66,2.08-1.35,2.86-1.93l-2.48-2.48c-.58.79-1.27,1.79-1.92,2.86a21.6,21.6,0,0,0-1.72,3.26Zm2.5-12.82L1465,132.28l2.08-3.47-8.93-8.93Zm22,6.1a22.81,22.81,0,0,1-.35,7.37,21.2,21.2,0,0,0,7.08-11,46.481,46.481,0,0,1-6.73,3.64Zm-16.06-11.23,9.47,9.48a43.56,43.56,0,0,0,25.15-19.78l-14.84-14.84a43.47,43.47,0,0,0-19.75,25.16Zm36.52-14a43.222,43.222,0,0,0,3.86-14.75,2,2,0,0,0-1.88-2.2,1.711,1.711,0,0,0-.32,0,42.94,42.94,0,0,0-14.75,3.86Z" fill="#0e1116" fill-rule="evenodd"/>
      </g>
      <g id="Group_6" data-name="Group 6">
        <path id="Path_32" data-name="Path 32" d="M680.92,81h7.13a1.78,1.78,0,0,1,1.78,1.78v7.13a1.77,1.77,0,0,1-1.78,1.78h-7.13a1.78,1.78,0,0,1-1.78-1.78h0V88.13h-7.41a23.36,23.36,0,0,1,10.8,18.23,5.36,5.36,0,1,1-3.57,0,19.9,19.9,0,0,0-14.75-17.68,5.34,5.34,0,0,1-9.58,0,19.89,19.89,0,0,0-14.76,17.68,5.34,5.34,0,1,1-3.57,0,23.38,23.38,0,0,1,10.81-18.25h-7.42v1.8a1.77,1.77,0,0,1-1.78,1.78h-7.13A1.78,1.78,0,0,1,629,89.91V82.78A1.78,1.78,0,0,1,630.78,81h7.13a1.78,1.78,0,0,1,1.78,1.78v1.78h14.69a5.35,5.35,0,0,1,10.08,0h14.68V82.78A1.78,1.78,0,0,1,680.92,81Zm-48.36,7.13h3.57V84.56h-3.57Zm3.69,23.29a1.78,1.78,0,1,0,.518-1.265,1.78,1.78,0,0,0-.518,1.265Zm21.38-25.07a1.79,1.79,0,1,0,1.79-1.79h0a1.79,1.79,0,0,0-1.79,1.79Zm25,25.07a1.78,1.78,0,1,0-1.78,1.78,1.78,1.78,0,0,0,1.78-1.78Zm.12-23.29h3.57V84.56H682.7Z" fill="#e51635" fill-rule="evenodd"/>
        <path id="Path_33" data-name="Path 33" d="M660.9,96.17l14.26,21.39a1.77,1.77,0,0,1-.23,2.24A22.63,22.63,0,0,0,668.5,133c.28.23.55.47.8.72a9.06,9.06,0,0,1,2.6,6.35,1.78,1.78,0,0,1-1.78,1.78h-21.4a1.78,1.78,0,0,1-1.78-1.78h0a9.06,9.06,0,0,1,2.6-6.35c.25-.25.52-.49.8-.72a22.58,22.58,0,0,0-6.44-13.17,1.79,1.79,0,0,1-.23-2.25l14.26-21.39h0a1.79,1.79,0,0,1,2.48-.44,1.5,1.5,0,0,1,.37.34l.08.1Zm.3,22.37a1.79,1.79,0,1,0-1.78,1.79h0a1.79,1.79,0,0,0,1.78-1.79Zm-5.35,16a5.44,5.44,0,0,0-5,3.69H668a5.44,5.44,0,0,0-5-3.69ZM663,131a8.843,8.843,0,0,1,2.172.27,26.17,26.17,0,0,1,6.258-12.94L661.2,103v10.47a5.35,5.35,0,1,1-3.57,0V103l-10.2,15.31a26.15,26.15,0,0,1,6.25,12.94,8.841,8.841,0,0,1,2.17-.27Z" fill="#0e1116" fill-rule="evenodd"/>
      </g>
      <g id="Group_3" data-name="Group 3">
        <path id="Path_34" data-name="Path 34" d="M116.76,87.51a1.76,1.76,0,1,1-3.52,0V83.75a1.76,1.76,0,1,1,3.52,0Z" fill="#e51635"/>
        <path id="Path_35" data-name="Path 35" d="M107.59,112a7.41,7.41,0,1,1,14.82,0C122,121.81,108,121.82,107.59,112Zm3.52,0a3.89,3.89,0,0,0,7.78.12V112a3.89,3.89,0,0,0-7.78,0Z" fill="#e51635" fill-rule="evenodd"/>
        <path id="Path_36" data-name="Path 36" d="M85.15,111.28c11.5-23.84,48.1-24,59.7,0a1.76,1.76,0,0,1,0,1.42c-11.51,23.85-48.1,24-59.7,0-1.29,0-2.34.59-2.34-.71S83.86,109.64,85.15,111.28Zm15.18-10.88A29.85,29.85,0,0,0,88.73,112a29.85,29.85,0,0,0,11.6,11.59,18.8,18.8,0,0,1,0-23.19ZM99.81,112a15.19,15.19,0,1,0,30.38,0c-.83-20.14-29.54-20.15-30.38,0Zm29.86-11.59a18.8,18.8,0,0,1,0,23.18A29.85,29.85,0,0,0,141.27,112a29.85,29.85,0,0,0-11.6-11.6Z" fill="#0e1116" fill-rule="evenodd"/>
        <path id="Path_37" data-name="Path 37" d="M115,134.71a1.76,1.76,0,0,0-1.76,1.76v3.76a1.76,1.76,0,0,0,3.52,0v-3.76a1.76,1.76,0,0,0-1.76-1.76Z" fill="#e51635"/>
        <path id="Path_38" data-name="Path 38" d="M95.53,92.52a1.74,1.74,0,0,1-2.48,0l-2.67-2.66a1.761,1.761,0,0,1,2.49-2.49L95.53,90a1.77,1.77,0,0,1,0,2.49Z" fill="#e51635"/>
        <path id="Path_39" data-name="Path 39" d="M93.05,131.46l-2.67,2.66a1.75,1.75,0,0,0,2.46,2.49l2.66-2.67a1.754,1.754,0,0,0-2.48-2.48Z" fill="#e51635"/>
        <path id="Path_40" data-name="Path 40" d="M139.62,89.86,137,92.52A1.785,1.785,0,0,1,134.47,90h0l2.66-2.66a1.76,1.76,0,1,1,2.51,2.46h0Z" fill="#e51635"/>
        <path id="Path_41" data-name="Path 41" d="M137,131.46a1.754,1.754,0,1,0-2.48,2.48l2.66,2.66a1.75,1.75,0,0,0,2.48.1,1.77,1.77,0,0,0,.1-2.49l-.09-.09Z" fill="#e51635"/>
      </g>
      <g id="Group_5" data-name="Group 5">
        <path id="Path_42" data-name="Path 42" d="M1192.22,106.35a1.8,1.8,0,0,0,0,3.6h14.42a1.8,1.8,0,1,0,0-3.6Z" fill="#e51635"/>
        <path id="Path_43" data-name="Path 43" d="M1185,113.56h21.63a1.8,1.8,0,1,1,0,3.6H1185a1.8,1.8,0,1,1,0-3.6Z" fill="#e51635"/>
        <path id="Path_44" data-name="Path 44" d="M1206.64,120.77H1185a1.8,1.8,0,1,0,0,3.6h21.63a1.8,1.8,0,1,0,0-3.6Z" fill="#e51635"/>
        <path id="Path_45" data-name="Path 45" d="M1185,128h14.42a1.8,1.8,0,1,1,0,3.6H1185a1.8,1.8,0,1,1,0-3.6Z" fill="#e51635"/>
        <path id="Path_46" data-name="Path 46" d="M1177.8,142.51a1.8,1.8,0,0,1-1.8-1.8V86.41a1.8,1.8,0,0,1,1.8-1.8h5.41v-1.8a1.8,1.8,0,0,1,3.6,0v1.8h3.6v-1.8a1.8,1.8,0,0,1,3.6,0v1.8h3.6v-1.8a1.8,1.8,0,0,1,3.6,0v1.8h3.6v-1.8a1.8,1.8,0,0,1,3.6,0h0v1.8h5.4a1.79,1.79,0,0,1,1.8,1.8v54.3a1.8,1.8,0,0,1-1.8,1.8ZM1179.6,99v39.89H1212V99Zm3.6-9V88.2h-3.6v7.21H1212v-7.2h-3.6V90a1.8,1.8,0,1,1-3.6,0h0V88.2h-3.6V90a1.8,1.8,0,1,1-3.6,0h0V88.2H1194V90a1.8,1.8,0,1,1-3.6,0h0V88.2h-3.6V90a1.8,1.8,0,0,1-3.6,0Z" fill="#0e1116" fill-rule="evenodd"/>
        <path id="Path_47" data-name="Path 47" d="M1219.34,130.34a1.771,1.771,0,0,1-.09-.56V97.34a5.41,5.41,0,1,1,10.81,0v32.44a1.771,1.771,0,0,1-.09.56l-3.6,10.93a1.8,1.8,0,0,1-2.27,1.16,1.82,1.82,0,0,1-1.15-1.16Zm6.43,1.24h-2.23l1.12,3.37Zm-2.92-28.83V128h3.6V102.75Zm3.6-3.6v-1.8a1.8,1.8,0,1,0-3.6,0v1.8Z" fill="#0e1116" fill-rule="evenodd"/>
      </g>
      <g id="Group_13" data-name="Group 13">
        <path id="Path_53" data-name="Path 53" d="M381.34,128.58a22.16,22.16,0,0,0,12.51-3.84L408,138.91a4.18,4.18,0,0,0,6.11-5.7l-.21-.2-14.16-14.17a22.31,22.31,0,1,0-18.43,9.78Zm32.25,4.77a3.69,3.69,0,1,1-5,5.4l-.19-.19-14.11-14.1a22.051,22.051,0,0,0,5.22-5.22ZM365.92,90.88a21.8,21.8,0,1,1-6.39,15.42,21.8,21.8,0,0,1,6.39-15.42Z" fill="none" stroke="#0e1116" stroke-width="3"/>
        <path id="Path_54" data-name="Path 54" d="M381.34,121.88a15.57,15.57,0,1,0-11-4.56A15.57,15.57,0,0,0,381.34,121.88ZM370.66,95.63a15.1,15.1,0,1,1-4.42,10.67,15.1,15.1,0,0,1,4.42-10.67Z" fill="#e51635" stroke="#e51635" stroke-width="3"/>
        <path id="Path_55" data-name="Path 55" d="M375,99.94a9,9,0,0,1,12.73,0,.21.21,0,0,0,.17.07.22.22,0,0,0,.17-.07.26.26,0,0,0,0-.35,9.51,9.51,0,0,0-13.41,0,.25.25,0,0,0,0,.34.24.24,0,0,0,.35,0Z" fill="#000c1e" stroke="#0e1116" stroke-width="3"/>
      </g>
      <g id="Group_12" data-name="Group 12">
        <path id="Path_48" data-name="Path 48" d="M913.85,118.22a.69.69,0,0,0-.68.68h0v14.89a8.13,8.13,0,0,0,8.12,8.12h19.56a8.12,8.12,0,0,0,8.12-8.12h0V118.9a.68.68,0,1,0-1.35-.05v8.56H914.53V118.9a.68.68,0,0,0-.68-.68Zm33.77,10.54v5a6.77,6.77,0,0,1-6.77,6.77H921.29a6.77,6.77,0,0,1-6.76-6.77h0v-5Z" fill="#000c1e" stroke="#0e1116" stroke-width="2"/>
        <path id="Path_49" data-name="Path 49" d="M948.3,98.59a.67.67,0,0,0,.67-.67h0V88.44A7.44,7.44,0,0,0,941.53,81H920.62a7.45,7.45,0,0,0-7.45,7.44h0v9.48a.68.68,0,1,0,1.36,0V91h33.09v7a.67.67,0,0,0,.68.67Zm-33.77-9V88.44a6.09,6.09,0,0,1,6.09-6.09h20.91a6.09,6.09,0,0,1,6.09,6.09h0v1.17Z" fill="#0e1116" stroke="#0e1116" stroke-width="2"/>
        <path id="Path_50" data-name="Path 50" d="M926.71,135.36h8.73a.68.68,0,1,0,0-1.35h-8.78a.68.68,0,0,0-.05,1.35Z" fill="#000c1e" stroke="#0e1116" stroke-width="2"/>
        <path id="Path_51" data-name="Path 51" d="M953,108.26,941.7,97a.707.707,0,1,0-1,1l10.76,10.76-10.77,10.77a.69.69,0,0,0-.07,1,.68.68,0,0,0,1,.07l.08-.07,11.3-11.3a.69.69,0,0,0,0-1h0Z" fill="none" stroke="#e51635" stroke-width="2"/>
        <path id="Path_52" data-name="Path 52" d="M909.2,109.23l11.24,11.24a.707.707,0,1,0,1-1L910.67,108.7,921.4,98a.69.69,0,0,0-.95-1L909.2,108.27a.67.67,0,0,0,0,1Z" fill="none" stroke="#e51635" stroke-width="2"/>
      </g>
    </g>
  </g>
</svg>
