<svg xmlns="http://www.w3.org/2000/svg" width="56" height="56" viewBox="0 0 56 56">
  <g id="Group_23559" data-name="Group 23559" transform="translate(-195 -1452)">
    <circle id="Ellipse_942" data-name="Ellipse 942" cx="28" cy="28" r="28" transform="translate(195 1452)" fill="#aed8f0"/>
    <g id="Group_24258" data-name="Group 24258" transform="translate(-87.899 1233.07)">
      <path id="Path_19690" data-name="Path 19690" d="M328.208,236.7a.767.767,0,0,1,.466.857v.149c0,.354.037.428.391.5.037.019.112-.019.149-.056l.391-.391a.637.637,0,0,1,.931,0c.242.242.5.484.727.727a.643.643,0,0,1,0,.95c-.112.112-.224.242-.354.354-.093.075-.093.149-.056.279a.389.389,0,0,0,.5.317,2.243,2.243,0,0,1,.354,0,.607.607,0,0,1,.6.559c.019.41.019.82,0,1.211a.618.618,0,0,1-.633.578h-.54a.2.2,0,0,0-.224.149c-.019.075-.075.13-.075.2a.368.368,0,0,0,.037.2c.112.13.261.261.373.391a.609.609,0,0,1,0,.931.576.576,0,0,0-.168.671,9.586,9.586,0,0,1-1.751,8.1c-.019.037-.056.056-.074.093a.312.312,0,0,1-.447.075.3.3,0,0,1-.037-.428l.335-.447a8.946,8.946,0,0,0,1.416-7.116c0-.019-.019-.056-.019-.075s-.019-.037,0-.019a1.544,1.544,0,0,1-.559.075,1.412,1.412,0,0,1-.466-.3.567.567,0,0,1-.149-.149.322.322,0,0,0-.484-.093.328.328,0,0,0-.2.3,15.886,15.886,0,0,0,.075,1.882,6.867,6.867,0,0,1-2.124,5.384,6.961,6.961,0,0,1-5.179,2.031,7.071,7.071,0,0,1-6.762-5.98l-.056-.391c-.019-.2.075-.335.242-.354.186-.019.3.075.354.279a11.428,11.428,0,0,0,.391,1.621,6.271,6.271,0,0,0,5.533,4.192A6.431,6.431,0,0,0,328,248.828a6.035,6.035,0,0,0,.037-2.385h-1.025a.823.823,0,0,1-.41-.093.578.578,0,0,1-.335-.5,2.744,2.744,0,0,1,0-.391.362.362,0,0,0-.3-.466.285.285,0,0,0-.335.075c-.112.13-.224.224-.335.335a.652.652,0,0,1-.931,0c-.242-.242-.5-.484-.727-.727a.622.622,0,0,1,0-.931,3.517,3.517,0,0,1,.373-.373c.093-.093.093-.149.056-.279a.373.373,0,0,0-.484-.317,2.015,2.015,0,0,1-.335,0,.632.632,0,0,1-.633-.652v-.857c0-.112-.019-.149-.13-.168a6.5,6.5,0,0,0-7.135,4.937c-.056.224-.093.466-.13.689-.037.242-.149.373-.354.335-.186-.019-.279-.168-.242-.41a6.846,6.846,0,0,1,1.844-3.949,6.984,6.984,0,0,1,5.756-2.254c.037,0,.093.019.13.019a1.458,1.458,0,0,0,.745-.037,2.007,2.007,0,0,1,.671-.037.211.211,0,0,0,.242-.168c.019-.075.075-.13.075-.2,0-.056,0-.149-.037-.186a3.33,3.33,0,0,0-.242-.261.732.732,0,0,1-.242-.987c-.466-.056-.894-.112-1.323-.149-.186-.019-.391-.019-.578-.019-.2-.019-.335-.13-.317-.3a.3.3,0,0,1,.335-.3,8.616,8.616,0,0,1,2.18.261.265.265,0,0,0,.317-.093c.484-.559.876-.559,1.36,0l.056.056a.444.444,0,0,0,.633.037c.037-.019.056-.093.056-.13a3.282,3.282,0,0,0,0-.428.716.716,0,0,1,.5-.8C327.276,236.7,327.742,236.7,328.208,236.7Zm1.826,8.234.82-.82V244.1a1.421,1.421,0,0,0-.168-.168.932.932,0,0,1-.279-1.341.744.744,0,0,1,.671-.466h.652v-1.155a1.59,1.59,0,0,0-.3,0,.923.923,0,0,1-1.136-.745.712.712,0,0,1,.168-.838c.149-.149.3-.279.428-.391-.3-.3-.559-.559-.857-.876-.056.056-.112.149-.186.224a.892.892,0,0,1-1.267.279.737.737,0,0,1-.5-.727v-.615h-1.136c0,.037-.019.056-.019.075a.9.9,0,0,0,0,.224.949.949,0,0,1-.745,1.155.7.7,0,0,1-.8-.149c-.149-.149-.3-.317-.41-.447l-.857.857c.056.037.13.112.2.168a.908.908,0,0,1,.279,1.323.705.705,0,0,1-.708.466h-.615V242.1a1.59,1.59,0,0,0,.3,0,.911.911,0,0,1,1.136.745.713.713,0,0,1-.168.82c-.149.149-.317.279-.428.391l.838.838h0a1.756,1.756,0,0,0,.186-.186.9.9,0,0,1,1.285-.279.737.737,0,0,1,.5.727v.615h.969c.13,0,.2-.037.186-.186v-.149a.911.911,0,0,1,.745-1.136.685.685,0,0,1,.8.168A5.576,5.576,0,0,0,330.033,244.934Z" transform="translate(-11.265)" fill="#0e1116"/>
      <path id="Path_19691" data-name="Path 19691" d="M303.846,253.5h-.615c-.224,0-.354-.112-.354-.3,0-.168.13-.3.354-.3h1.453c.242,0,.335.112.354.335v1.453c0,.224-.112.354-.3.354s-.3-.13-.3-.354v-.876c-.242.242-.447.428-.633.633a9.092,9.092,0,0,0,12.705,12.985c.056-.037.093-.093.149-.13a.292.292,0,0,1,.41.037.277.277,0,0,1-.019.41,6.66,6.66,0,0,1-.689.577,9.426,9.426,0,0,1-5.2,1.993,9.582,9.582,0,0,1-9.967-6.8,9.431,9.431,0,0,1,2.534-9.836.988.988,0,0,1,.186-.112Z" transform="translate(0 -13.182)" fill="#0e1116"/>
      <path id="Path_19692" data-name="Path 19692" d="M338.779,286.633H339.9c.075,0,.186-.019.242.019.093.056.2.168.2.242,0,.093-.112.2-.168.3a.112.112,0,0,1-.075.019h-2.049a.317.317,0,0,1-.242-.186.423.423,0,0,1,.093-.335c.522-.559,1.043-1.118,1.583-1.658a1.085,1.085,0,0,0,.224-1.118.648.648,0,0,0-.727-.466.677.677,0,0,0-.615.615,1.061,1.061,0,0,1-.019.242.3.3,0,0,1-.6,0,1.309,1.309,0,0,1,1.155-1.434,1.286,1.286,0,0,1,1.416,1.155,1.684,1.684,0,0,1-.559,1.546c-.317.279-.578.6-.857.894C338.891,286.5,338.835,286.559,338.779,286.633Z" transform="translate(-30.108 -37.563)" fill="#0e1116"/>
      <path id="Path_19693" data-name="Path 19693" d="M353.911,286.173h-1.546a.844.844,0,0,1-.3-.056.289.289,0,0,1-.075-.447l.5-.727c.484-.671.95-1.341,1.434-2.031.149-.2.373-.242.5-.075a.485.485,0,0,1,.075.279v2.254a.2.2,0,0,0,.13.224.362.362,0,0,1,.168.261.4.4,0,0,1-.186.279c-.093.056-.13.093-.112.186v.484a.289.289,0,0,1-.3.317.284.284,0,0,1-.3-.3Zm-1.1-.615h1.1v-1.546C353.52,284.553,353.185,285.037,352.812,285.559Z" transform="translate(-41.645 -37.458)" fill="#0e1116"/>
      <path id="Path_19694" data-name="Path 19694" d="M351.616,319.911v.261a.259.259,0,0,1-.279.261.245.245,0,0,1-.3-.2,3.385,3.385,0,0,1,0-.615.266.266,0,0,1,.317-.224.271.271,0,0,1,.261.279,1.052,1.052,0,0,1,0,.242Z" transform="translate(-40.915 -67.283)" fill="#0e1116"/>
      <path id="Path_19695" data-name="Path 19695" d="M378.011,293.616h-.242a.274.274,0,0,1-.279-.279.251.251,0,0,1,.242-.3,2.988,2.988,0,0,1,.578,0,.291.291,0,0,1-.037.578Z" transform="translate(-62.447 -45.832)" fill="#0e1116"/>
      <path id="Path_19696" data-name="Path 19696" d="M370.058,311.5c.093.056.168.075.224.112.112.112.242.224.335.335a.276.276,0,0,1-.019.41.27.27,0,0,1-.391,0,2.121,2.121,0,0,1-.354-.354.376.376,0,0,1-.037-.317C369.853,311.612,369.983,311.575,370.058,311.5Z" transform="translate(-56.189 -60.865)" fill="#0e1116"/>
      <path id="Path_19697" data-name="Path 19697" d="M331.591,312.239a1.417,1.417,0,0,1-.13.242,2.253,2.253,0,0,1-.3.3.3.3,0,0,1-.428,0,.292.292,0,0,1,0-.41,1.356,1.356,0,0,1,.335-.317.376.376,0,0,1,.317-.037C331.46,312.034,331.516,312.146,331.591,312.239Z" transform="translate(-24.336 -61.269)" fill="#0e1116"/>
      <path id="Path_19698" data-name="Path 19698" d="M331.48,273.363c-.056.056-.093.168-.186.2a.337.337,0,0,1-.3-.019,2.45,2.45,0,0,1-.391-.373.22.22,0,0,1,.019-.335c.093-.075.261-.13.317-.093a3.79,3.79,0,0,1,.484.466C331.461,273.233,331.461,273.288,331.48,273.363Z" transform="translate(-24.243 -29.323)" fill="#0e1116"/>
      <path id="Path_19699" data-name="Path 19699" d="M322.691,293.616h-.242a.259.259,0,0,1-.261-.279.245.245,0,0,1,.2-.3,3.182,3.182,0,0,1,.6,0c.149.019.224.149.224.317a.284.284,0,0,1-.279.261Z" transform="translate(-17.447 -45.832)" fill="#0e1116"/>
      <path id="Path_19700" data-name="Path 19700" d="M351.616,264.611v.224a.25.25,0,0,1-.261.279.267.267,0,0,1-.317-.242,2.614,2.614,0,0,1,0-.54.267.267,0,0,1,.317-.242.259.259,0,0,1,.261.279A1.048,1.048,0,0,1,351.616,264.611Z" transform="translate(-40.915 -22.285)" fill="#0e1116"/>
      <path id="Path_19701" data-name="Path 19701" d="M378.256,254.685a1.872,1.872,0,0,1-1.453,1.826,1.828,1.828,0,0,1-2.049-.987c-.075-.168-.093-.317.056-.428.149-.13.354-.075.466.149a1.26,1.26,0,0,0,.876.689,1.232,1.232,0,0,0,1.416-.8,1.266,1.266,0,0,0-.578-1.528,1.245,1.245,0,0,0-1.6.354c-.037.037-.056.093-.093.13a.308.308,0,0,1-.428.093.291.291,0,0,1-.075-.41,1.745,1.745,0,0,1,1.155-.857A1.826,1.826,0,0,1,378.256,254.685Z" transform="translate(-60.177 -13.141)" fill="#0e1116"/>
    </g>
  </g>
</svg>
