<svg xmlns="http://www.w3.org/2000/svg" width="56" height="56" viewBox="0 0 56 56">
  <g id="Group_23559" data-name="Group 23559" transform="translate(-195 -1452)">
    <circle id="Ellipse_942" data-name="Ellipse 942" cx="28" cy="28" r="28" transform="translate(195 1452)" fill="#a0dec3"/>
    <g id="Group_24254" data-name="Group 24254" transform="translate(-4.4 1424.302)">
      <path id="Path_19669" data-name="Path 19669" d="M242.351,63.609c.491.059,1.121-.216,1.474.138.334.354.079.983.118,1.474a2.577,2.577,0,0,1,0,.55c-.02.157.039.216.177.275a4.368,4.368,0,0,1,1.238.727.243.243,0,0,0,.334.02c.491-.295.983-.57,1.494-.865.295-.177.433-.138.609.157.393.668.786,1.356,1.18,2.025.177.295.138.432-.157.609-.491.295-.963.57-1.474.845a.255.255,0,0,0-.157.334,4.159,4.159,0,0,1,0,1.4.281.281,0,0,0,.157.334c.491.275.963.55,1.435.826.334.2.354.315.177.649-.374.668-.767,1.317-1.14,1.986-.177.315-.315.354-.649.177-.491-.275-.983-.57-1.455-.845a.243.243,0,0,0-.334.02,4.369,4.369,0,0,1-1.239.727c-.138.059-.2.118-.177.275v1.691c0,.374-.1.472-.472.472h-2.3c-.354,0-.452-.1-.452-.452v-1.73a.222.222,0,0,0-.177-.256,4.137,4.137,0,0,1-1.278-.727.245.245,0,0,0-.334-.02c-.491.295-.983.57-1.494.865-.295.177-.432.138-.609-.157-.393-.668-.786-1.356-1.18-2.045-.177-.295-.138-.432.157-.609.491-.295.983-.59,1.494-.865a.245.245,0,0,0,.157-.295,4.395,4.395,0,0,1,0-1.435.236.236,0,0,0-.157-.295c-.491-.275-1-.57-1.494-.865-.295-.177-.334-.295-.157-.59l1.18-2.064c.157-.275.295-.315.57-.157.511.295,1,.57,1.514.885a.227.227,0,0,0,.334-.02,3.924,3.924,0,0,1,1.278-.727.233.233,0,0,0,.177-.256v-1.75c0-.315.1-.413.432-.413C241.564,63.609,241.958,63.609,242.351,63.609Zm.944,12.306c0-.256.02-.531,0-.786a.416.416,0,0,1,.354-.472,3.766,3.766,0,0,0,1.553-.9.431.431,0,0,1,.59-.059c.452.275.924.531,1.4.806.138.079.2.079.295-.059.236-.452.491-.885.767-1.317.079-.138.059-.2-.079-.256-.472-.256-.944-.55-1.415-.806a.409.409,0,0,1-.236-.511,4.013,4.013,0,0,0,0-1.809.417.417,0,0,1,.256-.531c.472-.256.924-.531,1.4-.806.118-.059.177-.118.079-.256-.275-.452-.531-.885-.786-1.337-.079-.138-.138-.138-.256-.059-.472.275-.963.55-1.435.845a.42.42,0,0,1-.55-.039,3.822,3.822,0,0,0-1.592-.924.379.379,0,0,1-.315-.432c.02-.55,0-1.121,0-1.671,0-.138-.039-.2-.177-.2h-1.553c-.157,0-.177.039-.177.2v1.612a.46.46,0,0,1-.354.511,3.765,3.765,0,0,0-1.553.9.431.431,0,0,1-.59.059c-.452-.275-.924-.531-1.4-.806-.138-.079-.2-.1-.295.079-.236.432-.491.865-.747,1.3-.1.157-.059.216.1.295.472.256.9.531,1.376.786a.446.446,0,0,1,.256.55,3.843,3.843,0,0,0,0,1.769.43.43,0,0,1-.256.55c-.472.256-.924.531-1.4.806-.138.079-.177.118-.079.256.256.432.531.885.767,1.317.1.177.157.138.295.059.472-.275.924-.531,1.4-.806a.431.431,0,0,1,.59.059,4.252,4.252,0,0,0,1.553.9.431.431,0,0,1,.354.472v1.651c0,.138.039.2.177.2h1.553c.157,0,.177-.059.177-.2A8.4,8.4,0,0,1,243.294,75.915Z" transform="translate(-14.591 -14.752)" fill="#0e1116"/>
      <path id="Path_19670" data-name="Path 19670" d="M217.4,58.887a10.429,10.429,0,0,1,7.234-9.987c.079-.02.157-.059.236-.079a.316.316,0,0,1,.432.216c.059.2-.039.334-.236.413-.1.039-.216.059-.315.1a9.552,9.552,0,0,0-6.586,7.746,9.022,9.022,0,0,0,.1,3.48.5.5,0,0,0,.039.138c.039.216-.02.393-.256.432-.216.039-.334-.1-.393-.295a10.265,10.265,0,0,1-.216-1.356C217.42,59.378,217.42,59.044,217.4,58.887Z" transform="translate(0 -2.894)" fill="#0e1116"/>
      <path id="Path_19671" data-name="Path 19671" d="M240.172,137.729a10.37,10.37,0,0,1-6.881-2.674,3.022,3.022,0,0,1-.256-.236.322.322,0,0,1-.02-.472.307.307,0,0,1,.472,0c.236.2.472.432.727.629a9.642,9.642,0,0,0,12.483-.432l.039-.039c.216-.2.413-.2.55-.039s.1.334-.1.531a11.424,11.424,0,0,1-2.2,1.553A10.5,10.5,0,0,1,240.172,137.729Z" transform="translate(-12.471 -71.533)" fill="#0e1116"/>
      <path id="Path_19672" data-name="Path 19672" d="M290.931,58.927a9.007,9.007,0,0,1-.275,2.438c-.059.275-.216.413-.413.374-.216-.039-.295-.216-.236-.511a9.962,9.962,0,0,0,.216-3.145,9.488,9.488,0,0,0-3.6-6.664,9.276,9.276,0,0,0-3.008-1.612c-.374-.118-.491-.256-.413-.491s.256-.275.629-.138a10.229,10.229,0,0,1,6.979,8.158A7.336,7.336,0,0,1,290.931,58.927Z" transform="translate(-52.85 -3.131)" fill="#0e1116"/>
      <path id="Path_19673" data-name="Path 19673" d="M309.1,119.64a1.052,1.052,0,1,1-2.1,0,1.053,1.053,0,0,1,1.062-1.042A1.036,1.036,0,0,1,309.1,119.64Zm-.668.02a.383.383,0,0,0-.374-.413.422.422,0,0,0-.413.374.383.383,0,0,0,.374.413A.424.424,0,0,0,308.435,119.659Z" transform="translate(-71.986 -58.968)" fill="#0e1116"/>
      <path id="Path_19674" data-name="Path 19674" d="M265.72,47.284a1.049,1.049,0,0,1-1.022-1.062,1.062,1.062,0,0,1,1.062-1.022,1.042,1.042,0,1,1-.039,2.084Zm.039-1.435a.412.412,0,0,0-.413.393.387.387,0,0,0,.374.374.374.374,0,0,0,.393-.354A.378.378,0,0,0,265.759,45.849Z" transform="translate(-37.999)" fill="#0e1116"/>
      <path id="Path_19675" data-name="Path 19675" d="M224.484,119.559a1.042,1.042,0,1,1-1.022-1.062A1.037,1.037,0,0,1,224.484,119.559Zm-1.042.393a.412.412,0,0,0,.393-.413.373.373,0,0,0-.374-.374.412.412,0,0,0-.393.413A.386.386,0,0,0,223.442,119.952Z" transform="translate(-4.017 -58.888)" fill="#0e1116"/>
      <path id="Path_19676" data-name="Path 19676" d="M261.262,92.805a2.153,2.153,0,1,1,2.143-2.143A2.152,2.152,0,0,1,261.262,92.805Zm-1.514-2.182a1.5,1.5,0,1,0,3.008.02,1.5,1.5,0,0,0-3.008-.02Z" transform="translate(-33.502 -34.788)" fill="#0e1116"/>
    </g>
  </g>
</svg>
