<svg xmlns="http://www.w3.org/2000/svg" width="56" height="56" viewBox="0 0 56 56">
  <g id="Group_23559" data-name="Group 23559" transform="translate(-195 -1451.533)">
    <circle id="Ellipse_942" data-name="Ellipse 942" cx="28" cy="28" r="28" transform="translate(195 1451.533)" fill="#c3d8d1"/>
    <g id="Group_24257" data-name="Group 24257" transform="translate(144.157 1279.727)">
      <path id="Path_19684" data-name="Path 19684" d="M79.889,188.725c.049.025.074.025.123.049a1.476,1.476,0,0,1,1.082,1.4.244.244,0,0,0,.2.271,7.718,7.718,0,0,1,2.115.935,1.483,1.483,0,0,0,.2-.2,1.418,1.418,0,0,1,1.968.025c.394.369.787.763,1.156,1.156a1.426,1.426,0,0,1,0,1.992l-.2.2c.3.787.59,1.525.91,2.312a4.89,4.89,0,0,1,.541.049,1.444,1.444,0,0,1,1.205,1.378v1.6a1.444,1.444,0,0,1-1.4,1.451h-.418c-.32.738-.64,1.427-.959,2.214a2.215,2.215,0,0,1,.3.246,1.456,1.456,0,0,1,0,2.091c-.344.369-.689.713-1.058,1.058a1.472,1.472,0,0,1-2.14,0,1.724,1.724,0,0,0-.246-.2c.2-.172.369-.32.566-.517a2.606,2.606,0,0,0,.246.3.735.735,0,0,0,1.033,0c.394-.369.763-.763,1.156-1.156a.765.765,0,0,0,0-1.058l-.369-.369a4.723,4.723,0,0,0-.369-.344,11.39,11.39,0,0,0,.59-1.058c.246-.566.443-1.132.64-1.722.049-.148.1-.172.221-.172h.763a.769.769,0,0,0,.787-.812v-1.5a.783.783,0,0,0-.787-.812H86.85a8.568,8.568,0,0,0-1.205-3.1c.2-.172.369-.344.541-.517a.768.768,0,0,0,0-1.181l-1.009-1.009a.768.768,0,0,0-1.181,0c-.172.172-.32.344-.467.517a8.178,8.178,0,0,0-3.124-1.328v-.689a.769.769,0,0,0-.836-.812H78.118a.769.769,0,0,0-.812.836v.689a8.344,8.344,0,0,0-3.124,1.328c-.148-.172-.32-.344-.467-.492a.763.763,0,0,0-1.205,0l-.959.959a.8.8,0,0,0,0,1.255l.492.492a8.125,8.125,0,0,0-1.205,3.075h-.812a.786.786,0,0,0-.861.886v1.378a.807.807,0,0,0,.836.861h.763a.285.285,0,0,1,.172.123,8.7,8.7,0,0,0,1.255,2.8c-.221.221-.443.443-.664.64a.784.784,0,0,0,0,1.255c.32.32.64.664.984.984a.768.768,0,0,0,1.181,0c.246-.246.467-.492.713-.713a1.047,1.047,0,0,1,.713,1.156,2.25,2.25,0,0,1-.418-.221.233.233,0,0,0-.32.049,1.715,1.715,0,0,1-.886.615,1.42,1.42,0,0,1-1.378-.344q-.59-.553-1.181-1.181a1.456,1.456,0,0,1,.025-2.017c.123-.123.3-.221.32-.369.025-.123-.148-.3-.2-.443-.246-.541-.492-1.107-.738-1.673a5.149,5.149,0,0,1-.59-.025,1.443,1.443,0,0,1-1.255-1.476v-1.525a1.444,1.444,0,0,1,1.451-1.476h.271c.3-.787.59-1.525.91-2.312a3.261,3.261,0,0,1-.246-.271,1.459,1.459,0,0,1,.049-1.919q.553-.59,1.181-1.181a1.426,1.426,0,0,1,1.992,0c.049.049.123.1.172.148.443-.2.861-.418,1.279-.615.3-.123.615-.2.91-.32a.23.23,0,0,0,.123-.172,1.482,1.482,0,0,1,1.156-1.476c.025,0,.025-.025.049-.025C78.511,188.725,79.2,188.725,79.889,188.725Z" fill="#0e1116"/>
      <path id="Path_19685" data-name="Path 19685" d="M103.983,276.831c-.049-.049-.123-.074-.123-.123-.025-.123-.074-.271-.025-.344a.406.406,0,0,1,.32-.2c.787-.025,1.574,0,2.361,0a.322.322,0,0,1,.344.246.357.357,0,0,1-.2.443C105.754,276.831,104.869,276.831,103.983,276.831Z" transform="translate(-26.628 -65.943)" fill="#0e1116"/>
      <path id="Path_19686" data-name="Path 19686" d="M93.171,227.882H91.1c-.517,0-.812-.246-.787-.738a4.177,4.177,0,0,0-.836-2.46,15.924,15.924,0,0,1-1.353-2.238,5.338,5.338,0,0,1,3.739-7.379,4.973,4.973,0,0,1,5.412,2.115,4.7,4.7,0,0,1,.787,2.607,2.875,2.875,0,0,0,.59,1.673A1.362,1.362,0,0,1,98.9,222a.812.812,0,0,1-.418.935c-.1.049-.1.123-.148.221-.148.443-.025.935-.418,1.3-.025.025-.025.1-.025.148a1.272,1.272,0,0,1-1.378,1.525c-.32,0-.467.148-.467.492v.566a.7.7,0,0,1-.738.738C94.6,227.882,93.884,227.882,93.171,227.882Zm.3-.689H95.36v-.664a1.069,1.069,0,0,1,.935-1.082c.123-.025.246,0,.369-.025a.533.533,0,0,0,.541-.64,3.076,3.076,0,0,0-.074-.467.285.285,0,0,1,.148-.344c.3-.123.3-.148.123-.418a.538.538,0,0,1-.074-.123c.074-.049.123-.1.172-.123.172-.074.148-.2.074-.344-.148-.271-.074-.418.221-.541.049-.025.123-.049.172-.074.3-.1.32-.221.148-.467a.432.432,0,0,0-.1-.123,3.483,3.483,0,0,1-.689-1.894,4.466,4.466,0,0,0-.148-1.132,4.255,4.255,0,0,0-4.7-3.124,4.76,4.76,0,0,0-4.206,4.6,4.985,4.985,0,0,0,.886,2.8c.344.517.689,1.033,1.033,1.574a3.837,3.837,0,0,1,.689,1.845c.025.246.025.492.049.738H92.7V225.1h-.32a.343.343,0,0,1-.369-.344.336.336,0,0,1,.344-.344h1.353a.343.343,0,0,1,.369.344c0,.2-.148.32-.369.344h-.3c0,.049-.025.074-.025.1A17.764,17.764,0,0,1,93.466,227.193Z" transform="translate(-14.438 -19.774)" fill="#0e1116"/>
      <path id="Path_19687" data-name="Path 19687" d="M103.038,270.4h1.82c.271,0,.418.123.418.344s-.148.344-.443.344h-3.616c-.271,0-.418-.123-.418-.344s.148-.344.418-.344Z" transform="translate(-24.355 -61.603)" fill="#0e1116"/>
      <path id="Path_19688" data-name="Path 19688" d="M95.115,226.587a2.049,2.049,0,0,1,.1-.369c.049-.123.049-.221-.1-.271a.942.942,0,0,1-.615-.959v-.344a.915.915,0,0,1,.541-.886.254.254,0,0,0,.148-.344.922.922,0,0,1,.221-.984,4.547,4.547,0,0,1,.344-.344.9.9,0,0,1,.91-.221.327.327,0,0,0,.418-.172.906.906,0,0,1,.836-.492h.467a.931.931,0,0,1,.787.467.364.364,0,0,0,.467.2.9.9,0,0,1,.91.221,4.547,4.547,0,0,1,.344.344.912.912,0,0,1,.221.984.29.29,0,0,0,.148.369.864.864,0,0,1,.517.836v.492a.889.889,0,0,1-.541.812c-.172.074-.221.148-.148.344a.909.909,0,0,1-.2,1.009l-.32.32a.863.863,0,0,1-1.058.172c-.148-.074-.2-.049-.246.1a.9.9,0,0,1-.886.615h-.418a.954.954,0,0,1-.91-.615c-.049-.148-.1-.172-.246-.1a.937.937,0,0,1-1.058-.172,1.4,1.4,0,0,1-.32-.344c-.123-.2-.221-.418-.32-.615C95.09,226.612,95.09,226.587,95.115,226.587Zm2.534-4.28c-.32.148-.64.271-.959.394-.3-.246-.344-.246-.541-.074-.418.394-.418.394-.148.787-.123.32-.246.615-.369.935-.467.025-.467.025-.467.541v.049c0,.3.049.369.369.369a.256.256,0,0,1,.2.1c.123.271.221.541.344.836q-.037,0-.074.074c-.246.246-.246.32,0,.566l.1.1c.246.246.32.271.566,0,.1-.1.148-.1.246-.025a1.572,1.572,0,0,0,.467.2c.221.049.271.148.271.344-.025.221.074.3.3.3h.221c.394,0,.418-.025.418-.418,0-.123.025-.172.148-.2a1.718,1.718,0,0,0,.492-.2.314.314,0,0,1,.443.049c.049.074.246.123.3.074a1.6,1.6,0,0,0,.443-.467c.1-.2-.148-.3-.221-.418v-.025c.1-.221.221-.443.3-.664.049-.172.123-.246.3-.246.1,0,.246-.074.246-.123a2.156,2.156,0,0,0,0-.689c-.049-.2-.271-.1-.418-.123-.025,0-.025,0-.025-.025-.049-.148-.1-.32-.148-.467s-.148-.3-.2-.443c.271-.3.271-.369.148-.541-.369-.443-.418-.443-.787-.172-.32-.148-.64-.271-.935-.394-.025-.394-.049-.418-.394-.418C97.673,221.889,97.673,221.889,97.649,222.307Z" transform="translate(-19.604 -24.506)" fill="#0e1116"/>
      <path id="Path_19689" data-name="Path 19689" d="M103.417,228.2a1.885,1.885,0,0,1,1.869,1.943,1.911,1.911,0,0,1-1.919,1.869,1.885,1.885,0,0,1-1.869-1.943A1.911,1.911,0,0,1,103.417,228.2Zm-.025,3.124a1.245,1.245,0,0,0,1.23-1.205,1.218,1.218,0,1,0-1.23,1.205Z" transform="translate(-24.881 -29.784)" fill="#0e1116"/>
    </g>
  </g>
</svg>
