<svg xmlns="http://www.w3.org/2000/svg" width="56" height="56" viewBox="0 0 56 56">
  <g id="Group_23559" data-name="Group 23559" transform="translate(-195 -1451.533)">
    <circle id="Ellipse_942" data-name="Ellipse 942" cx="28" cy="28" r="28" transform="translate(195 1451.533)" fill="#f0bc69"/>
    <g id="Group_24256" data-name="Group 24256" transform="translate(-338.926 1431.357)">
      <path id="Path_19683" data-name="Path 19683" d="M571.95,47.589v1.22c-.016.177-.048.353-.064.546a9.443,9.443,0,0,1-3.034,5.907.247.247,0,0,0-.08.305,1.15,1.15,0,0,1-.466,1.3,1.134,1.134,0,0,1-1.4-.048.18.18,0,0,0-.257-.016,9.6,9.6,0,0,1-8.54.016.264.264,0,0,0-.321.016,1.181,1.181,0,0,1-1.8-1.252.251.251,0,0,0-.08-.289,9.149,9.149,0,0,1-1.846-2.312,9.729,9.729,0,0,1-1.284-4.687c0-.064-.032-.177-.064-.193a1.281,1.281,0,0,1-.819-.9v-.466a1.228,1.228,0,0,1,1.108-.963c.048,0,.1-.08.112-.128.1-.273.161-.562.273-.819.257-.578.546-1.14.835-1.7a.254.254,0,0,1,.337-.144.262.262,0,0,1,.209.289.663.663,0,0,1-.112.241,9.129,9.129,0,0,0-.931,2.1c-.064.193-.08.337.128.449.08.048.128.144.193.209a.234.234,0,0,0,.193.08,20.627,20.627,0,0,1,3.435-.369.245.245,0,0,0,.177-.1,1.213,1.213,0,0,1,1.252-.562.338.338,0,0,0,.209-.08,14.308,14.308,0,0,1,1.894-2.055c.08-.064.064-.128.048-.225a2.494,2.494,0,0,1-.064-.594c0-.128-.016-.177-.112-.225-.449-.225-.883-.466-1.348-.674-.5-.209-1.011-.385-1.509-.578a1.2,1.2,0,0,1-1.782.449c-.273.289-.546.562-.819.835a.3.3,0,1,1-.433-.4c.241-.257.482-.514.738-.754a.23.23,0,0,0,.08-.289,1.152,1.152,0,0,1,.482-1.348,1.138,1.138,0,0,1,1.413.1c.112.1.177.064.273.016a9.69,9.69,0,0,1,8.315-.032.24.24,0,0,0,.209-.016,1.161,1.161,0,0,1,1.381-.064,1.185,1.185,0,0,1,.514,1.316.221.221,0,0,0,.064.193c.128.144.289.257.417.4a.246.246,0,0,0,.273.064,1.165,1.165,0,0,1,1.316.417,1.133,1.133,0,0,1,.048,1.348.221.221,0,0,0-.016.289,9.023,9.023,0,0,1,1.092,3.05C571.854,46.85,571.9,47.219,571.95,47.589Zm-11.9-.915a1.274,1.274,0,0,1-.578.835,1.234,1.234,0,0,1-.947.128c-.016.016-.032.032-.032.048a12.9,12.9,0,0,0-1.252,6.839c0,.064.08.128.144.161a1.159,1.159,0,0,1,.642.417c.08.112.145.1.241.064.466-.193.931-.369,1.38-.594a17.721,17.721,0,0,0,6.293-4.96.206.206,0,0,0,.016-.193,1.13,1.13,0,0,1-.144-.754c.016-.128-.032-.177-.128-.241a15.587,15.587,0,0,0-3.355-1.236C561.6,46.979,560.825,46.834,560.055,46.674Zm-1.782,9.551a.121.121,0,0,0,.064.032,8.993,8.993,0,0,0,8.026.016c.112-.048.112-.112.1-.209a1.187,1.187,0,0,1,.851-1.316.174.174,0,0,0,.144-.193c.016-.449.032-.915.048-1.364q.024-.337.289-.337c.193,0,.305.128.305.353-.016.417,0,.835-.048,1.252-.032.257.032.385.257.466h.048a9.25,9.25,0,0,0,2.151-2.873c.048-.112,0-.161-.064-.225A18.458,18.458,0,0,0,568,49.788c-.08-.048-.128-.128-.257-.048-.112.08-.08.177-.064.273.1.449.193.9.273,1.332.032.209-.048.321-.209.353-.193.048-.321-.064-.369-.321-.08-.466-.177-.915-.273-1.364a2.412,2.412,0,0,1-.417-.08c-.144-.064-.209-.016-.3.1a17.791,17.791,0,0,1-5.346,4.495c-.819.449-1.7.8-2.552,1.188-.112.048-.177.1-.177.225A2.267,2.267,0,0,1,558.273,56.225Zm-.658-9.632h-.032c-1.076.112-2.135.241-3.211.353a.152.152,0,0,0-.144.177,1.021,1.021,0,0,1-.482.8c-.112.08-.257.128-.4.209a9.987,9.987,0,0,0,2.986,6.758c.353-.08.353-.305.337-.562a12.95,12.95,0,0,1,.112-3.05,14.112,14.112,0,0,1,1.188-3.853.268.268,0,0,0,.016-.193C557.856,47.043,557.743,46.834,557.615,46.593Zm8.781-5.6h-.048a11.816,11.816,0,0,0-2.729,1.188.363.363,0,0,0-.1.209,2.827,2.827,0,0,1-.048.53.263.263,0,0,0,.1.337,13.047,13.047,0,0,1,3.05,3.949c.128.257.241.466.594.417.1-.016.145,0,.193-.1a18.256,18.256,0,0,0,1.7-3.837.164.164,0,0,0-.08-.225,1.152,1.152,0,0,1-.466-.754,1.209,1.209,0,0,1,.193-.9q-.265-.265-.53-.482A1.242,1.242,0,0,1,566.4,40.991Zm4.4,10.322.1-.241a9.523,9.523,0,0,0,.45-2.215,8.88,8.88,0,0,0-1.124-5.073c-.032-.048-.128-.128-.161-.112-.128.064-.321-.048-.385.177a17.969,17.969,0,0,1-1.75,3.981.194.194,0,0,0,.016.241,1.131,1.131,0,0,1,.241.947.207.207,0,0,0,.112.241c.482.353.963.722,1.429,1.092C570.088,50.655,570.425,50.976,570.794,51.313Zm-11.06-5.667a1.138,1.138,0,0,1,.193.321.26.26,0,0,0,.257.177c.5.08,1.011.144,1.509.257a17.522,17.522,0,0,1,4.3,1.493.2.2,0,0,0,.193,0,.261.261,0,0,0,.016-.193c-.112-.225-.225-.449-.337-.658a13.2,13.2,0,0,0-2.713-3.387c-.064-.064-.112-.128-.225-.064a1.154,1.154,0,0,1-1.14,0,.184.184,0,0,0-.161.016A11.378,11.378,0,0,0,559.734,45.646Zm1.75-3.933a1.251,1.251,0,0,1,1.734,0,13.316,13.316,0,0,1,2.761-1.236c.305-.1.305-.1.305-.433a.862.862,0,0,0-.177-.08,8.951,8.951,0,0,0-4.96-.738,8.456,8.456,0,0,0-2.713.835.263.263,0,0,0-.112.177.191.191,0,0,0,.128.161A13.36,13.36,0,0,1,561.484,41.713Zm-7.834,5.233a.583.583,0,0,0-.594-.594.607.607,0,0,0-.594.61.594.594,0,1,0,1.188-.016Zm5.233.144a.583.583,0,0,0,.594-.594.6.6,0,0,0-.594-.594.617.617,0,0,0-.61.594A.587.587,0,0,0,558.883,47.091Zm8.717,1.686a.583.583,0,0,0-.594-.594.6.6,0,1,0,.594.594Zm-11.06-8.38a.629.629,0,0,0,.594.61.6.6,0,0,0,.594-.594.593.593,0,0,0-.578-.61A.578.578,0,0,0,556.539,40.4Zm5.811,1.557a.6.6,0,0,0-.594.594.617.617,0,0,0,.594.61.6.6,0,0,0,0-1.2Zm5.265,13.34a.6.6,0,1,0,.594.594A.564.564,0,0,0,567.616,55.294ZM567.455,39.8a.606.606,0,0,0-.61.594.594.594,0,1,0,.61-.594ZM556.539,55.824a.594.594,0,1,0,1.188.016.617.617,0,0,0-.594-.61A.6.6,0,0,0,556.539,55.824Zm13.773-13.308a.583.583,0,0,0-.594-.594.57.57,0,0,0-.594.578.587.587,0,0,0,.594.61A.6.6,0,0,0,570.313,42.516Z" fill="#0e1116"/>
    </g>
  </g>
</svg>
