<svg xmlns="http://www.w3.org/2000/svg" width="56" height="56" viewBox="0 0 56 56">
  <g id="Group_23559" data-name="Group 23559" transform="translate(-195 -1451.533)">
    <circle id="Ellipse_942" data-name="Ellipse 942" cx="28" cy="28" r="28" transform="translate(195 1451.533)" fill="#fcc"/>
    <g id="Group_24255" data-name="Group 24255" transform="translate(-165.262 1419.474)">
      <path id="Path_19677" data-name="Path 19677" d="M469.134,92.862a.093.093,0,0,0-.071-.036,1.25,1.25,0,0,1-.963-1.283V87.23c0-2.709.018-5.419,0-8.146a1.314,1.314,0,0,1,1.408-1.39c.374.018.749,0,1.123,0a1.344,1.344,0,0,1,1.569,1.052V91.811c-.053.125-.089.25-.143.356a1.322,1.322,0,0,1-.927.7Zm-.428-7.593v6.274a.656.656,0,0,0,.713.713h1.408a.693.693,0,0,0,.784-.766V79.03a.687.687,0,0,0-.766-.766h-1.337c-.553,0-.8.25-.8.8Z" transform="translate(-73.876 -22.759)" fill="#0e1116"/>
      <path id="Path_19678" data-name="Path 19678" d="M378.2,102.631c.036-.036.053-.071.089-.071a1.211,1.211,0,0,1,.339-.053.315.315,0,0,1,.16.25c.018.374,0,.766,0,1.141a.666.666,0,0,0,.731.731h1.462a.67.67,0,0,0,.731-.713V94.04a.656.656,0,0,0-.713-.713h-1.5a.67.67,0,0,0-.713.731v6.88c0,.285-.143.428-.374.356-.089-.018-.143-.107-.214-.143V93.772l.053-.16a1.221,1.221,0,0,1,1.123-.873q.829-.027,1.658,0a1.256,1.256,0,0,1,1.266,1.3v9.786a1.255,1.255,0,0,1-1,1.372c-.018,0-.018.018-.036.018h-2c-.178-.089-.374-.143-.553-.25a1.3,1.3,0,0,1-.517-.8Z" transform="translate(0 -35.113)" fill="#0e1116"/>
      <path id="Path_19679" data-name="Path 19679" d="M439.216,110.393c-.071-.018-.125-.053-.2-.071a1.234,1.234,0,0,1-.82-1.159v-8.894a1.229,1.229,0,0,1,1.212-1.23c.553-.018,1.105-.018,1.676,0a1.249,1.249,0,0,1,1.212,1.212v.7c0,.2-.107.321-.3.3a.268.268,0,0,1-.285-.3v-.606a.669.669,0,0,0-.7-.713H439.5a.656.656,0,0,0-.713.713v8.681a.687.687,0,0,0,.766.766h1.39a.677.677,0,0,0,.749-.749v-6.221q0-.4.321-.374a.259.259,0,0,1,.267.25v.2c0,2-.018,3.975,0,5.971a1.371,1.371,0,0,1-1.069,1.515C440.553,110.393,439.893,110.393,439.216,110.393Z" transform="translate(-49.305 -40.29)" fill="#0e1116"/>
      <path id="Path_19680" data-name="Path 19680" d="M409.269,126.5a4.312,4.312,0,0,1-.642-.321,1.115,1.115,0,0,1-.428-.909v-5.4a1.221,1.221,0,0,1,1.23-1.23c.535-.018,1.087-.018,1.622,0a1.249,1.249,0,0,1,1.23,1.3v5.223a1.256,1.256,0,0,1-.98,1.319c-.018,0-.036.018-.053.036C410.606,126.5,409.929,126.5,409.269,126.5Zm2.442-3.939v-2.62a.669.669,0,0,0-.7-.713H409.5a.665.665,0,0,0-.713.713V125.2a.661.661,0,0,0,.731.713h1.426a.677.677,0,0,0,.749-.749C411.711,124.289,411.711,123.433,411.711,122.56Z" transform="translate(-24.653 -56.396)" fill="#0e1116"/>
      <path id="Path_19681" data-name="Path 19681" d="M385.193,54.916c.481.481.945.963,1.408,1.444.713.749,1.444,1.479,2.157,2.228.089.089.16.143.3.071a1.1,1.1,0,0,1,1.052.071c.089.053.143.053.214-.018,1.105-.891,2.21-1.765,3.3-2.656a.255.255,0,0,0,.053-.2,1.169,1.169,0,0,1,.392-1.3,1.126,1.126,0,0,1,1.337-.107c.053.036.178.036.214-.018,1.141-.909,2.282-1.818,3.44-2.745a1.229,1.229,0,0,1,.053-1.087,1.183,1.183,0,0,1,.588-.517,1.2,1.2,0,0,1,1.355,1.907,1.229,1.229,0,0,1-1.622.16c-.357.285-.731.588-1.087.873-.766.606-1.533,1.23-2.3,1.836a.2.2,0,0,0-.071.267,1.186,1.186,0,0,1-1.729,1.39.217.217,0,0,0-.285.018c-1.087.873-2.157,1.747-3.244,2.6a.192.192,0,0,0-.071.25,1.184,1.184,0,0,1-.481,1.355,1.233,1.233,0,0,1-1.444-.089,1.17,1.17,0,0,1-.3-1.408.192.192,0,0,0-.036-.25c-1.176-1.194-2.335-2.406-3.511-3.6a.189.189,0,0,0-.232-.053,1.176,1.176,0,0,1-1.3-.232,1.189,1.189,0,0,1,.677-2.05A1.194,1.194,0,0,1,385.3,54.6.974.974,0,0,1,385.193,54.916Zm14.991-3.1a.606.606,0,1,0,0-1.212.628.628,0,0,0-.624.606A.654.654,0,0,0,400.183,51.815ZM384.159,54.9a.616.616,0,0,0,.624-.606.654.654,0,0,0-.606-.624.6.6,0,0,0-.606.606A.591.591,0,0,0,384.159,54.9Zm10.695.018a.628.628,0,0,0-.624.606.64.64,0,0,0,.606.624.616.616,0,0,0,.624-.606A.605.605,0,0,0,394.854,54.916Zm-5.347,4.26a.606.606,0,1,0,.606.606A.59.59,0,0,0,389.506,59.177Z" transform="translate(-3.909)" fill="#0e1116"/>
    </g>
  </g>
</svg>
