<?xml version="1.0" encoding="UTF-8"?>
<svg xmlns="http://www.w3.org/2000/svg" id="Layer_1" height="60" viewBox="0 0 59.999 60" width="59.999">
  <g fill="#fff">
    <path d="m30.119 37.204c-4.631 0-8.398 3.767-8.398 8.397 0 4.632 3.768 8.398 8.398 8.398 4.632 0 8.398-3.767 8.398-8.398.001-4.63-3.766-8.397-8.398-8.397zm0 12.828c-2.443 0-4.432-1.987-4.432-4.431s1.988-4.431 4.432-4.431 4.432 1.987 4.432 4.431-1.988 4.431-4.432 4.431z"></path>
    <path d="m51.178 26.476-19.896-19.895c-.775-.774-2.03-.774-2.805 0l-19.655 19.655c-.774.774-.774 2.031 0 2.805s2.03.774 2.805 0l18.253-18.253 18.493 18.492c.387.388.895.581 1.402.581s1.016-.193 1.402-.581c.775-.774.775-2.03.001-2.804z"></path>
  </g>
</svg>
