<svg xmlns="http://www.w3.org/2000/svg" width="18.797" height="19.192" viewBox="0 0 18.797 19.192">
  <g id="style_stroke" data-name="style=stroke" stroke="#fff" fill="#fff" transform="translate(-2.6 -2.4)">
    <g id="attach">
      <path id="vector_Stroke_" data-name="vector (Stroke)" d="M17.366,4.705a2.75,2.75,0,0,0-3.889,0L5.345,12.837a4.25,4.25,0,0,0,6.01,6.01l8.762-8.762a.75.75,0,0,1,1.061,1.061l-8.762,8.762a5.75,5.75,0,0,1-8.132-8.132l8.132-8.132a4.25,4.25,0,1,1,6.01,6.01l-7.794,7.794A2.75,2.75,0,1,1,6.744,13.56l7.194-7.194A.75.75,0,0,1,15,7.426L7.8,14.62a1.25,1.25,0,0,0,1.768,1.768l7.794-7.794A2.75,2.75,0,0,0,17.366,4.705Z" fill-rule="evenodd"/>
    </g>
  </g>
</svg>
