<svg xmlns="http://www.w3.org/2000/svg" xmlns:xlink="http://www.w3.org/1999/xlink" width="291.435" height="58.812" viewBox="0 0 291.435 58.812">
  <defs>
    <clipPath id="clip-path">
      <path id="path26" d="M0-76.2H117.623v58.812H0Z" transform="translate(0 76.2)"/>
    </clipPath>
  </defs>
  <g id="Group_25659" data-name="Group 25659" transform="translate(-956.064 -1024)">
    <g id="layer1" transform="translate(1140.802 1039.042)">
      <g id="g22" transform="translate(-10.926 -15.042)">
        <g id="g24" clip-path="url(#clip-path)">
          <g id="g30" transform="translate(8.441 42.185)">
            <path id="path32" d="M-.24,0H.515l-.7,2.927a1.254,1.254,0,0,0,.059.979.886.886,0,0,0,.8.328,1.389,1.389,0,0,0,.953-.328,1.829,1.829,0,0,0,.528-.979L2.854,0h.764L2.9,3a2.591,2.591,0,0,1-.832,1.463A2.4,2.4,0,0,1,.5,4.949,1.57,1.57,0,0,1-.83,4.465,1.738,1.738,0,0,1-.958,3Z" transform="translate(1.05)" fill="#696a6a"/>
          </g>
          <g id="g34" transform="translate(13.008 41.994)">
            <path id="path36" d="M0-1.482,1.2-6.493,3.479-3.546c.061.083.123.172.183.267s.123.2.187.319l.8-3.342h.706l-1.2,5.007-2.327-3a2.684,2.684,0,0,1-.175-.256,2.764,2.764,0,0,1-.149-.283L.7-1.482Z" transform="translate(0 6.493)" fill="#696a6a"/>
          </g>
          <g id="g38" transform="translate(18.3 42.185)">
            <path id="path40" d="M0-1.425l1.154-4.82h.763L.764-1.425Z" transform="translate(0 6.246)" fill="#696a6a"/>
          </g>
          <g id="g42" transform="translate(20.162 42.185)">
            <path id="path44" d="M0-1.425l1.154-4.82H3.776l-.159.665H1.758l-.288,1.2H3.329l-.164.688H1.306L.764-1.425Z" transform="translate(0 6.246)" fill="#696a6a"/>
          </g>
          <g id="g46" transform="translate(23.625 42.185)">
            <path id="path48" d="M0-1.425l1.154-4.82h.763L.764-1.425Z" transform="translate(0 6.246)" fill="#696a6a"/>
          </g>
          <g id="g50" transform="translate(25.487 42.185)">
            <path id="path52" d="M0-1.425l1.154-4.82H3.776l-.159.665H1.758L1.469-4.372H3.327l-.164.688H1.3L.931-2.127H2.79l-.168.7Z" transform="translate(0 6.246)" fill="#696a6a"/>
          </g>
          <g id="g54" transform="translate(28.985 42.184)">
            <path id="path56" d="M-.276-1.216H.366a3.469,3.469,0,0,0,.812-.072A1.527,1.527,0,0,0,1.7-1.532a2.04,2.04,0,0,0,.539-.581,2.716,2.716,0,0,0,.327-.809,2.181,2.181,0,0,0,.06-.808,1.077,1.077,0,0,0-.26-.582.876.876,0,0,0-.418-.244,3.548,3.548,0,0,0-.851-.072H.541Zm-.933.708L-.055-5.328H.975a6.2,6.2,0,0,1,1.389.1A1.421,1.421,0,0,1,3-4.877a1.469,1.469,0,0,1,.422.82,2.8,2.8,0,0,1-.063,1.143,3.512,3.512,0,0,1-.483,1.138,2.888,2.888,0,0,1-.813.818,2.5,2.5,0,0,1-.784.348,5.6,5.6,0,0,1-1.249.1H-1.209Z" transform="translate(1.209 5.328)" fill="#696a6a"/>
          </g>
          <g id="g58" transform="translate(35.834 42.185)">
            <path id="path60" d="M-.424-.6h.2A1.923,1.923,0,0,0,.653-.738a.737.737,0,0,0,.332-.5q.092-.385-.1-.543A1.344,1.344,0,0,0,.094-1.94H-.1Zm-.2.641-.518,2.164H-1.86l1.154-4.82H.45a3.378,3.378,0,0,1,.742.057.879.879,0,0,1,.377.19.816.816,0,0,1,.238.453,1.46,1.46,0,0,1-.025.627,1.943,1.943,0,0,1-.277.632A1.541,1.541,0,0,1,1.05-.2,1.461,1.461,0,0,1,.583-.01,3.877,3.877,0,0,1-.186.046h-.44Z" transform="translate(1.86 2.611)" fill="#696a6a"/>
          </g>
          <g id="g62" transform="translate(38.335 41.994)">
            <path id="path64" d="M-.616-.922H.693l-.219-1.1c-.01-.07-.02-.151-.029-.242s-.013-.193-.017-.3q-.076.158-.152.295t-.148.252ZM1.043.971.807-.27H-1.055L-1.9.971h-.8L.775-4.04,1.848.971Z" transform="translate(2.699 4.04)" fill="#696a6a"/>
          </g>
          <g id="g66" transform="translate(43.548 42.185)">
            <path id="path68" d="M-.127-1.425.4-3.631-.555-6.246h.8L.841-4.609c.014.042.03.1.049.165s.038.141.055.221c.048-.077.1-.15.146-.218s.1-.13.149-.188l1.4-1.617H3.4L1.158-3.631.63-1.425Z" transform="translate(0.555 6.246)" fill="#696a6a"/>
          </g>
          <g id="g70" transform="translate(46.41 41.98)">
            <path id="path72" d="M-1.435-.782q0-.056.032-.309.025-.211.038-.349a3.053,3.053,0,0,1-.161.329,3.882,3.882,0,0,1-.213.336L-3.583,1.793l-.6-2.621a3.065,3.065,0,0,1-.058-.313c-.013-.1-.022-.2-.026-.3-.026.1-.059.207-.1.318s-.089.227-.146.347L-5.587,1.6h-.7l2.313-5.025.658,3.043c.01.048.023.129.04.24s.037.25.06.415q.117-.207.338-.527c.039-.057.069-.1.089-.132L-.709-3.426-.776,1.6h-.71Z" transform="translate(6.29 3.426)" fill="#696a6a"/>
          </g>
          <g id="g74" transform="translate(52.534 42.185)">
            <path id="path76" d="M0-1.425l1.154-4.82H3.776l-.159.665H1.758L1.469-4.372H3.327l-.164.688H1.3L.932-2.127H2.79l-.168.7Z" transform="translate(0 6.246)" fill="#696a6a"/>
          </g>
          <g id="g78" transform="translate(56.032 41.994)">
            <path id="path80" d="M0-1.482,1.2-6.493,3.479-3.546c.061.083.123.172.183.267s.123.2.187.319l.8-3.342h.706l-1.2,5.007-2.327-3a2.684,2.684,0,0,1-.175-.256,2.764,2.764,0,0,1-.149-.283L.7-1.482Z" transform="translate(0 6.493)" fill="#696a6a"/>
          </g>
          <g id="g82" transform="translate(61.812 42.185)">
            <path id="path84" d="M-.6-.2-1.59,3.959h-.764L-1.359-.2H-2.607l.159-.665H.806L.647-.2Z" transform="translate(2.607 0.861)" fill="#696a6a"/>
          </g>
          <g id="g86" transform="translate(64.617 42.076)">
            <path id="path88" d="M0-1.172l.679-.289a.654.654,0,0,0,.2.492.8.8,0,0,0,.55.17.921.921,0,0,0,.587-.194.908.908,0,0,0,.325-.52q.1-.425-.506-.757c-.057-.033-.1-.057-.13-.073a2.357,2.357,0,0,1-.867-.7,1.016,1.016,0,0,1-.074-.769,1.652,1.652,0,0,1,.619-.955,1.774,1.774,0,0,1,1.11-.366,1.432,1.432,0,0,1,.82.206.785.785,0,0,1,.343.591l-.672.316a.723.723,0,0,0-.23-.333.6.6,0,0,0-.362-.105.864.864,0,0,0-.529.164.756.756,0,0,0-.287.442q-.1.435.6.81L2.263-3a2.011,2.011,0,0,1,.8.644,1.033,1.033,0,0,1,.072.785A1.89,1.89,0,0,1,2.457-.482a1.946,1.946,0,0,1-1.233.4A1.327,1.327,0,0,1,.309-.362,1.01,1.01,0,0,1,0-1.172" transform="translate(0 5.136)" fill="#696a6a"/>
          </g>
          <g id="g90" transform="translate(70.26 42.185)">
            <path id="path92" d="M0-1.425l1.154-4.82h.764L.764-1.425Z" transform="translate(0 6.246)" fill="#696a6a"/>
          </g>
          <g id="g94" transform="translate(72.121 41.994)">
            <path id="path96" d="M0-1.482,1.2-6.493,3.479-3.546c.061.083.123.172.183.267s.123.2.187.319l.8-3.342h.706l-1.2,5.007-2.327-3a2.686,2.686,0,0,1-.175-.256A2.819,2.819,0,0,1,1.5-4.834L.7-1.482Z" transform="translate(0 6.493)" fill="#696a6a"/>
          </g>
          <g id="g98" transform="translate(77.901 42.185)">
            <path id="path100" d="M-.6-.2-1.59,3.959h-.763L-1.359-.2H-2.607l.159-.665H.806L.647-.2Z" transform="translate(2.607 0.861)" fill="#696a6a"/>
          </g>
          <g id="g102" transform="translate(80.745 42.185)">
            <path id="path104" d="M0-1.425l1.154-4.82H3.776l-.159.665H1.759L1.469-4.372H3.327l-.165.688H1.3L.932-2.127H2.79l-.168.7Z" transform="translate(0 6.246)" fill="#696a6a"/>
          </g>
          <g id="g106" transform="translate(84.244 42.184)">
            <path id="path108" d="M-.422-.607h.138a1.719,1.719,0,0,0,.84-.145.781.781,0,0,0,.322-.514q.1-.4-.079-.561A1.171,1.171,0,0,0,.048-1.99H-.091ZM-.615,0l-.517,2.157h-.716l1.154-4.82H.372a3.035,3.035,0,0,1,.712.063.847.847,0,0,1,.392.207A.837.837,0,0,1,1.7-1.94a1.448,1.448,0,0,1-.027.605,1.766,1.766,0,0,1-.49.907,1.55,1.55,0,0,1-.9.393L1.381,2.159H.518L-.529,0Z" transform="translate(1.848 2.662)" fill="#696a6a"/>
          </g>
          <g id="g110" transform="translate(87.925 42.185)">
            <path id="path112" d="M0-1.425l1.154-4.82H3.776l-.159.665H1.758l-.288,1.2H3.329l-.165.688H1.306L.764-1.425Z" transform="translate(0 6.246)" fill="#696a6a"/>
          </g>
          <g id="g114" transform="translate(90.503 41.994)">
            <path id="path116" d="M-.616-.922H.694l-.219-1.1q-.016-.1-.029-.242c-.008-.091-.013-.193-.017-.3q-.076.158-.152.295t-.149.252ZM1.043.971.807-.27H-1.055L-1.9.971h-.8L.775-4.04,1.848.971Z" transform="translate(2.699 4.04)" fill="#696a6a"/>
          </g>
          <g id="g118" transform="translate(95.666 42.069)">
            <path id="path120" d="M-1.288-.381a1.685,1.685,0,0,0-.583-.425A1.813,1.813,0,0,0-2.6-.947,2.08,2.08,0,0,0-3.971-.44a2.391,2.391,0,0,0-.8,1.314,1.55,1.55,0,0,0,.162,1.287,1.2,1.2,0,0,0,1.064.508,2.4,2.4,0,0,0,.831-.152,3.407,3.407,0,0,0,.833-.458l-.212.886a2.934,2.934,0,0,1-.752.339,2.93,2.93,0,0,1-.813.112,2.356,2.356,0,0,1-.953-.181,1.646,1.646,0,0,1-.676-.533,1.772,1.772,0,0,1-.333-.815,2.582,2.582,0,0,1,.054-1,3.265,3.265,0,0,1,.423-1,3.383,3.383,0,0,1,.73-.818,3.246,3.246,0,0,1,.931-.539,2.947,2.947,0,0,1,1.023-.183,2.241,2.241,0,0,1,.76.124,2.017,2.017,0,0,1,.639.374Z" transform="translate(5.644 1.668)" fill="#696a6a"/>
          </g>
          <g id="g122" transform="translate(100.096 42.185)">
            <path id="path124" d="M0-1.425l1.154-4.82H3.776l-.159.665H1.759L1.469-4.372H3.327l-.165.688H1.3L.932-2.127H2.79l-.168.7Z" transform="translate(0 6.246)" fill="#696a6a"/>
          </g>
          <g id="g126" transform="translate(80.915 11.613)">
            <path id="path128" d="M-1.552-7.8H-6.8L.5-34.169H5.75Z" transform="translate(6.803 34.169)" fill="#66686c"/>
          </g>
          <g id="g130" transform="translate(45.567 11.691)">
            <path id="path132" d="M-11.2-.223a1.946,1.946,0,0,0-1.688-.755H-41.757l-1.43,5.165h5.253v0h21.011L-18.451,9.7H-39.463l0-.011h-5.251L-49.07,25.426h5.254l2.925-10.561h23.619a3.356,3.356,0,0,0,2.085-.755A3.5,3.5,0,0,0-13.9,12.244l2.925-10.563a2.145,2.145,0,0,0-.22-1.9" transform="translate(49.07 0.978)" fill="#66686c"/>
          </g>
          <g id="g134" transform="translate(11.102 11.69)">
            <path id="path136" d="M-9.286-7.288A2.412,2.412,0,0,1-11.61-5.521H-38.7a1.892,1.892,0,0,1-1.648-.754,2.1,2.1,0,0,1-.232-1.867l6.61-23.793h5.255l-5.9,21.251H-13.6l5.9-21.251h5.254Z" transform="translate(40.691 31.936)" fill="#66686c"/>
          </g>
          <g id="g138" transform="translate(95.209 11.662)">
            <path id="path140" d="M-2.166,0,4.481,13.22-9.493,26.436Z" transform="translate(9.493)" fill="#27803b"/>
          </g>
          <g id="g142" transform="translate(90.539 11.662)">
            <path id="path144" d="M-2.169,0,4.473,13.22-9.506,26.436Z" transform="translate(9.506)" fill="#e9661c"/>
          </g>
        </g>
      </g>
    </g>
    <g id="Layer_2" data-name="Layer 2" transform="translate(956.064 1036)">
      <g id="Layer_1" data-name="Layer 1">
        <path id="Path_18901" data-name="Path 18901" d="M351.814,0,359.3,13.7,343.56,27.4Z" transform="translate(-206.431)" fill="#088b45"/>
        <path id="Path_18902" data-name="Path 18902" d="M338.636,0l7.488,13.7L330.37,27.4Z" transform="translate(-198.506)" fill="#f17a21"/>
        <path id="Path_18903" data-name="Path 18903" d="M39.273,26.587a3.636,3.636,0,0,0,1.453-1.928l2.495-8.2a1.908,1.908,0,0,0-.3-1.88,2.327,2.327,0,0,0-1.88-.758,3.991,3.991,0,0,0,2.339-.786,3.592,3.592,0,0,0,1.441-1.9l2.491-8.2A2.072,2.072,0,0,0,47.068.958a2.247,2.247,0,0,0-1.9-.8H12.694L4.44,27.365H36.926a3.991,3.991,0,0,0,2.347-.8M16.989,5.489h21.4a2.147,2.147,0,0,1,1.361.958,3.548,3.548,0,0,1,.16,1.038,3.644,3.644,0,0,1-.044.559l-.064.184-.2.683a3.991,3.991,0,0,1-3.217,2.223h-21.1ZM36.24,19.969a4.023,4.023,0,0,1-3.125,2.076H11.96l1.7-5.588H35.022a2.048,2.048,0,0,1,1.573,1.453,2.842,2.842,0,0,1,.044.491v.359Z" transform="translate(-2.668 -0.092)" fill="#6e6f71"/>
        <path id="Path_18904" data-name="Path 18904" d="M140.878.27l-3.265,10.917H114.179L117.44.27h-5.827l-8.1,27.1h5.827L112.59,16.5h23.438l-3.257,10.873H138.6l8.1-27.1Z" transform="translate(-62.195 -0.162)" fill="#6e6f71"/>
        <path id="Path_18905" data-name="Path 18905" d="M207.147,27.594H201.28L209.438.5H215.3Z" transform="translate(-120.941 -0.3)" fill="#6e6f71"/>
        <path id="Path_18906" data-name="Path 18906" d="M270.927.44,246.584,19.411,238.1,6.435l-3.92-6h-.112L232.219,6.6,225.96,27.454h5.827l4.387-14.621,9.3,14.656,15.387-12.976L257,27.454h5.831L268.52,8.491,270.935.44Z" transform="translate(-135.77 -0.264)" fill="#6e6f71"/>
        <path id="Path_18907" data-name="Path 18907" d="M0,80.589,1.042,76.6H2.207a3.991,3.991,0,0,1,.726.044A.842.842,0,0,1,3.3,76.8a.631.631,0,0,1,.239.355.934.934,0,0,1,0,.491,1.094,1.094,0,0,1-.311.535,1.229,1.229,0,0,1-.571.3A.719.719,0,0,1,3.2,78.8a.834.834,0,0,1,.064.671,1.361,1.361,0,0,1-.232.443,1.329,1.329,0,0,1-.375.371,1.445,1.445,0,0,1-.527.239,4.921,4.921,0,0,1-.962.068Zm.874-.543h.259a4.388,4.388,0,0,0,.6-.032,1.2,1.2,0,0,0,.335-.092.89.89,0,0,0,.271-.216.866.866,0,0,0,.152-.3.559.559,0,0,0,0-.335.4.4,0,0,0-.2-.22.95.95,0,0,0-.228-.072,2.794,2.794,0,0,0-.359,0H1.2Zm.459-1.776h.291a1.912,1.912,0,0,0,.8-.124.647.647,0,0,0,.331-.431c.06-.22.032-.375-.084-.459a1.353,1.353,0,0,0-.742-.136H1.636Z" transform="translate(0 -46.023)" fill="#6e6f71"/>
        <path id="Path_18908" data-name="Path 18908" d="M14.21,80.567l1.046-4.007h.75l-.387,1.477h2.275l.383-1.477h.75l-1.046,4.007h-.75l.507-1.948H15.467l-.507,1.948Z" transform="translate(-8.538 -46.002)" fill="#6e6f71"/>
        <path id="Path_18909" data-name="Path 18909" d="M33.294,80.327l-.251-1.038H31.207l-.8,1.034h-.8l3.349-4.163,1.126,4.167ZM31.63,78.75h1.285l-.231-.914a1.525,1.525,0,0,0-.036-.2,2.176,2.176,0,0,0-.024-.255c-.044.088-.1.168-.14.243l-.144.212Z" transform="translate(-17.791 -45.761)" fill="#6e6f71"/>
        <path id="Path_18910" data-name="Path 18910" d="M47.973,78.794l-.471,1.8h-.7L47.846,76.6h1.03a3.92,3.92,0,0,1,.7.048.894.894,0,0,1,.4.172.706.706,0,0,1,.239.4,1.141,1.141,0,0,1,0,.5,1.381,1.381,0,0,1-.463.75,1.62,1.62,0,0,1-.878.283l1.118,1.824h-.866l-1.05-1.784Zm.176-.507h.14a1.92,1.92,0,0,0,.8-.12.631.631,0,0,0,.307-.427.4.4,0,0,0-.088-.467,1.329,1.329,0,0,0-.722-.116h-.136Z" transform="translate(-28.12 -46.024)" fill="#6e6f71"/>
        <path id="Path_18911" data-name="Path 18911" d="M62.856,80.321,62.6,79.283H60.777l-.8,1.034h-.8l3.313-4.167,1.158,4.171Zm-1.668-1.577h1.293l-.235-.914a2.023,2.023,0,0,1-.036-.2,1,1,0,0,0-.024-.255,2.8,2.8,0,0,1-.14.243l-.14.212Z" transform="translate(-35.559 -45.755)" fill="#6e6f71"/>
        <path id="Path_18912" data-name="Path 18912" d="M78.486,77.111l-.9,3.457h-.746l.894-3.457H76.51l.144-.551h3.2l-.148.551Z" transform="translate(-45.972 -46.002)" fill="#6e6f71"/>
        <path id="Path_18913" data-name="Path 18913" d="M98.39,80.567l1.042-4.007h.754l-1.05,4.007Z" transform="translate(-59.118 -46.002)" fill="#6e6f71"/>
        <path id="Path_18914" data-name="Path 18914" d="M107.86,80.327l1.086-4.167,2.3,2.447c.056.068.116.148.18.22a2.283,2.283,0,0,1,.188.271l.722-2.794h.694l-1.082,4.183L109.6,78c-.06-.068-.12-.136-.176-.212a1.949,1.949,0,0,1-.152-.235l-.726,2.794Z" transform="translate(-64.809 -45.761)" fill="#6e6f71"/>
        <path id="Path_18915" data-name="Path 18915" d="M128.756,77.111l-.9,3.457H127.1l.9-3.457H126.78l.148-.551h3.193l-.14.551Z" transform="translate(-76.177 -46.002)" fill="#6e6f71"/>
        <path id="Path_18916" data-name="Path 18916" d="M138.85,80.567,139.9,76.56h2.582l-.148.551h-1.824l-.263,1.006h1.824l-.148.571H140.1l-.339,1.3h1.828l-.152.583Z" transform="translate(-83.429 -46.002)" fill="#6e6f71"/>
        <path id="Path_18917" data-name="Path 18917" d="M153.533,78.794l-.471,1.8h-.7L153.4,76.6h1.05a3.809,3.809,0,0,1,.7.048.93.93,0,0,1,.4.172.726.726,0,0,1,.236.4,1.086,1.086,0,0,1,0,.5,1.361,1.361,0,0,1-.463.75,1.6,1.6,0,0,1-.874.331l1.114,1.824h-.846l-1.07-1.8Zm.176-.507h.14a1.92,1.92,0,0,0,.8-.12.643.643,0,0,0,.307-.427c.056-.22.028-.375-.088-.467a1.329,1.329,0,0,0-.738-.136h-.136Z" transform="translate(-91.547 -46.024)" fill="#6e6f71"/>
        <path id="Path_18918" data-name="Path 18918" d="M166.31,80.567l1.046-4.007h2.574l-.144.551h-1.824l-.259,1h1.824l-.148.575h-1.828l-.487,1.884Z" transform="translate(-99.929 -46.002)" fill="#6e6f71"/>
        <path id="Path_18919" data-name="Path 18919" d="M181.21,80.321l-.255-1.038h-1.828l-.8,1.034h-.8l3.321-4.167L182,80.317Zm-1.664-1.577h1.289l-.235-.914a1.457,1.457,0,0,0-.032-.2,2.225,2.225,0,0,1-.024-.255c-.048.088-.1.168-.148.243a2.162,2.162,0,0,1-.14.212Z" transform="translate(-106.67 -45.755)" fill="#6e6f71"/>
        <path id="Path_18920" data-name="Path 18920" d="M199.271,77.389a1.844,1.844,0,0,0-.579-.351,2.1,2.1,0,0,0-.722-.12,2.263,2.263,0,0,0-1.341.423,1.916,1.916,0,0,0-.758,1.09,1.138,1.138,0,0,0,.188,1.074,1.293,1.293,0,0,0,1.054.423,2.75,2.75,0,0,0,.8-.128,3.592,3.592,0,0,0,.8-.4l-.188.734a2.941,2.941,0,0,1-.734.283,3.265,3.265,0,0,1-.8.092,2.722,2.722,0,0,1-.938-.148,1.744,1.744,0,0,1-.679-.443,1.465,1.465,0,0,1-.343-.679,1.907,1.907,0,0,1,.04-.83,2.426,2.426,0,0,1,.4-.826,3.045,3.045,0,0,1,.73-.671,3.281,3.281,0,0,1,.9-.447,3.357,3.357,0,0,1,1-.148,2.654,2.654,0,0,1,.754.1,2.2,2.2,0,0,1,.631.307Z" transform="translate(-117.167 -45.857)" fill="#6e6f71"/>
        <path id="Path_18921" data-name="Path 18921" d="M210.94,80.567l1.042-4.007h2.574l-.144.551h-1.824l-.263,1.006h1.828l-.152.571h-1.824l-.343,1.3h1.832l-.152.583Z" transform="translate(-126.745 -46.002)" fill="#6e6f71"/>
        <path id="Path_18922" data-name="Path 18922" d="M234.2,80.567l1.046-4.007h2.574l-.144.551h-1.824l-.259,1h1.824l-.152.575h-1.824l-.491,1.884Z" transform="translate(-140.721 -46.002)" fill="#6e6f71"/>
        <path id="Path_18923" data-name="Path 18923" d="M253.221,78.463a2.31,2.31,0,0,1-.4.8,2.986,2.986,0,0,1-.714.679,3.433,3.433,0,0,1-.922.459,3.213,3.213,0,0,1-.982.156,2.439,2.439,0,0,1-.906-.16,1.74,1.74,0,0,1-.683-.455,1.445,1.445,0,0,1-.359-.675,1.652,1.652,0,0,1,.028-.8,2.4,2.4,0,0,1,.4-.8,3.142,3.142,0,0,1,.714-.679,3.493,3.493,0,0,1,.922-.459,3.242,3.242,0,0,1,.99-.152,2.522,2.522,0,0,1,.906.152,1.8,1.8,0,0,1,.679.459,1.465,1.465,0,0,1,.359.687,1.733,1.733,0,0,1-.024.8m-.8,0a1.317,1.317,0,0,0,.024-.583,1.062,1.062,0,0,0-.239-.483,1.2,1.2,0,0,0-.455-.327,1.729,1.729,0,0,0-.623-.112,2.1,2.1,0,0,0-.675.112,2.314,2.314,0,0,0-.631.327,1.883,1.883,0,0,0-.5.471,1.7,1.7,0,0,0-.279.583,1.2,1.2,0,0,0-.024.571,1,1,0,0,0,.24.487,1.2,1.2,0,0,0,.463.327,1.676,1.676,0,0,0,.619.112,2.187,2.187,0,0,0,.671-.112,2.314,2.314,0,0,0,.631-.327,2.227,2.227,0,0,0,.515-.5,1.739,1.739,0,0,0,.271-.571" transform="translate(-149.145 -45.893)" fill="#6e6f71"/>
        <path id="Path_18924" data-name="Path 18924" d="M267.659,78.794l-.467,1.8h-.7l1.042-3.991h1.046a3.859,3.859,0,0,1,.7.048.938.938,0,0,1,.4.172.7.7,0,0,1,.235.4.982.982,0,0,1,0,.5,1.389,1.389,0,0,1-.467.75,1.6,1.6,0,0,1-.878.331l1.118,1.824h-.85l-1.07-1.8Zm.176-.507h.14a1.956,1.956,0,0,0,.822-.12.643.643,0,0,0,.307-.427c.056-.22.028-.375-.088-.467a1.337,1.337,0,0,0-.726-.116h-.136Z" transform="translate(-160.123 -46.024)" fill="#6e6f71"/>
        <path id="Path_18925" data-name="Path 18925" d="M293.812,78.319a1.128,1.128,0,0,1,.032-.255,1.655,1.655,0,0,0,.032-.287c-.044.088-.1.18-.152.271a2.9,2.9,0,0,1-.2.279l-1.764,2.135-.643-2.183c-.024-.088-.048-.176-.064-.259a1.8,1.8,0,0,1-.028-.247c-.028.084-.06.172-.092.259a2.757,2.757,0,0,1-.14.291L289.78,80.3h-.691l2.183-4.179.7,2.527a1.329,1.329,0,0,0,.048.2c.024.1.04.212.064.347a5.059,5.059,0,0,1,.323-.443l.084-.108,2-2.527.028,4.179h-.7Z" transform="translate(-173.702 -45.737)" fill="#6e6f71"/>
        <path id="Path_18926" data-name="Path 18926" d="M314.677,78.463a2.288,2.288,0,0,1-.4.8,3.062,3.062,0,0,1-.714.679,3.493,3.493,0,0,1-.922.459,3.237,3.237,0,0,1-.986.156,2.455,2.455,0,0,1-.906-.16,1.741,1.741,0,0,1-.683-.455,1.481,1.481,0,0,1-.359-.675,1.7,1.7,0,0,1,.028-.8,2.393,2.393,0,0,1,.4-.8,3.041,3.041,0,0,1,.71-.679,3.492,3.492,0,0,1,.922-.459,3.222,3.222,0,0,1,.99-.152,2.487,2.487,0,0,1,.9.152,1.78,1.78,0,0,1,.683.459,1.465,1.465,0,0,1,.359.687,1.637,1.637,0,0,1-.028.8m-.778,0a1.318,1.318,0,0,0,.024-.583,1.062,1.062,0,0,0-.24-.483,1.253,1.253,0,0,0-.463-.327,1.668,1.668,0,0,0-.615-.112,2.1,2.1,0,0,0-.679.112,2.4,2.4,0,0,0-.635.327,2.072,2.072,0,0,0-.487.483,1.638,1.638,0,0,0-.279.583,1.27,1.27,0,0,0-.024.571,1.037,1.037,0,0,0,.24.487,1.2,1.2,0,0,0,.463.327,1.684,1.684,0,0,0,.615.112,2.172,2.172,0,0,0,.675-.112,2.316,2.316,0,0,0,.631-.327,2.053,2.053,0,0,0,.5-.511,1.765,1.765,0,0,0,.279-.571" transform="translate(-186.07 -45.893)" fill="#6e6f71"/>
        <path id="Path_18927" data-name="Path 18927" d="M328,80.327l1.082-4.167,2.3,2.447.184.22c.064.084.124.172.188.271l.726-2.794h.691l-1.1,4.183L329.728,78a2.244,2.244,0,0,1-.176-.212c-.056-.08-.108-.156-.156-.235l-.726,2.794Z" transform="translate(-197.082 -45.761)" fill="#6e6f71"/>
        <path id="Path_18928" data-name="Path 18928" d="M345.84,80.567l1.042-4.007h2.582l-.148.551h-1.828l-.255,1.006h1.824l-.152.571h-1.824l-.339,1.3h1.832l-.156.583Z" transform="translate(-207.801 -46.002)" fill="#6e6f71"/>
        <path id="Path_18929" data-name="Path 18929" d="M361.043,80.567l.467-1.836-.99-2.171h.8l.615,1.357a.486.486,0,0,0,.056.136,1.055,1.055,0,0,1,.052.188l.144-.184q.072-.084.144-.156l1.341-1.341h.75l-2.155,2.171-.475,1.836Z" transform="translate(-216.622 -46.002)" fill="#6e6f71"/>
      </g>
    </g>
  </g>
</svg>
