<svg xmlns="http://www.w3.org/2000/svg" width="70" height="70" viewBox="0 0 70 70">
  <g id="Group_23574" data-name="Group 23574" transform="translate(-195 -1451.533)">
    <circle id="Ellipse_942" data-name="Ellipse 942" cx="35" cy="35" r="35" transform="translate(195 1451.533)" fill="#f6ca94"/>
    <g id="Group_24249" data-name="Group 24249" transform="translate(679.999 898.001)">
      <path id="Path_19545" data-name="Path 19545" d="M-461,580.539c.068-.229.12-.463.206-.685a2.057,2.057,0,0,1,1.961-1.317q7.9.023,15.808,0a2.181,2.181,0,0,1,2.184,2.018c.017.176.023.353.023.53q0,4.34.006,8.68a.49.49,0,0,0,.123.333,1,1,0,0,1,.025,1.531.182.182,0,0,0-.031.048c.09.22.17.439.271.648a.26.26,0,0,0,.179.124.967.967,0,0,1,.975,1.053c0,.226,0,.453,0,.679a.949.949,0,0,1-.935.958c-.147,0-.223.043-.249.186a.438.438,0,0,1-.05.139.574.574,0,0,0,.044.774.849.849,0,0,1-.092,1.095,8.825,8.825,0,0,1-.629.631.93.93,0,0,1-1.288-.013.224.224,0,0,0-.324-.044.071.071,0,0,1-.02.008c-.352.1-.607.244-.648.7a.844.844,0,0,1-.864.651c-.262.007-.523,0-.785,0a.936.936,0,0,1-.963-.9c-.011-.182-.083-.241-.238-.305-.316-.132-.573-.27-.911.036a.822.822,0,0,1-1.054-.119,8.886,8.886,0,0,1-.631-.629.926.926,0,0,1,.015-1.288.226.226,0,0,0,.042-.326,1.662,1.662,0,0,1-.119-.271c-.125-.314-.124-.314-.472-.314q-1.591,0-3.183,0a.434.434,0,0,1-.481-.354.421.421,0,0,1,.459-.5c.729,0,1.457,0,2.186,0h.254c0-.273,0-.525,0-.778a.972.972,0,0,1,.987-1.065.259.259,0,0,0,.176-.128c.1-.2.172-.416.261-.638-.045-.049-.1-.1-.148-.163a.947.947,0,0,1,.021-1.276c.182-.2.375-.385.569-.572a.938.938,0,0,1,1.336-.019c.108.1.191.124.309.039a.4.4,0,0,1,.134-.061.575.575,0,0,0,.513-.584.824.824,0,0,1,.778-.7,7.283,7.283,0,0,1,.911-.014.932.932,0,0,1,.946.922.233.233,0,0,0,.19.251c.168.05.324.141.49.2a.23.23,0,0,0,.2-.022,1.054,1.054,0,0,1,.843-.309v-4.3h-18.452v.232c0,2.469,0,4.938.007,7.407a2.235,2.235,0,0,0,.151.8,1.14,1.14,0,0,0,1.168.775c.75-.015,1.5,0,2.249,0,.325,0,.519.163.516.429s-.2.423-.525.423c-.729,0-1.458-.027-2.185.006a2.126,2.126,0,0,1-2.192-1.861,1.2,1.2,0,0,0-.041-.138Zm.864,3.645h18.458c0-.188,0-.364,0-.539,0-.969.013-1.939-.011-2.907a1.285,1.285,0,0,0-1.393-1.341h-2.079q-6.843,0-13.687,0a1.133,1.133,0,0,0-.959.447,1.692,1.692,0,0,0-.34,1.071q0,1.539,0,3.077C-460.144,584.05-460.138,584.112-460.134,584.183Zm18.97,12.508c-.036-.046-.063-.087-.1-.122-.078-.082-.16-.16-.239-.241a.456.456,0,0,1-.082-.629,8.157,8.157,0,0,0,.4-.952c.13-.387.2-.463.614-.463.493,0,.44.037.441-.447,0-.516,0-.516-.52-.531-.3-.009-.409-.115-.511-.408a8.566,8.566,0,0,0-.4-.975c-.164-.331-.164-.456.092-.714.332-.335.332-.335,0-.666-.354-.354-.354-.354-.711-.007a.476.476,0,0,1-.663.093,9.543,9.543,0,0,0-1.013-.417c-.307-.106-.41-.216-.414-.551-.006-.474-.006-.474-.47-.474-.506,0-.506,0-.511.5,0,.323-.1.428-.405.532a7.728,7.728,0,0,0-.955.394c-.339.17-.463.17-.731-.094-.372-.366-.278-.365-.655.007-.358.354-.356.355-.011.711.237.243.24.373.092.681a8.976,8.976,0,0,0-.4.975c-.1.306-.219.412-.55.416-.485.006-.487.007-.484.48,0,.574-.064.493.494.5.335,0,.438.1.544.416a7.21,7.21,0,0,0,.384.937c.175.35.174.472-.1.747-.368.369-.355.272,0,.635s.365.366.74,0a.458.458,0,0,1,.629-.085,8,8,0,0,0,.951.4c.4.132.475.21.477.63,0,.482-.045.43.432.431.54,0,.54,0,.549-.531,0-.021,0-.042,0-.064a.435.435,0,0,1,.321-.422c.386-.15.771-.305,1.149-.475a.446.446,0,0,1,.543.077q.146.139.286.284c.077.08.148.1.233.008.152-.158.31-.31.463-.467A.82.82,0,0,0-441.164,596.692Z" fill="#0e1116"/>
      <path id="Path_19546" data-name="Path 19546" d="M-311.276,743.708c-.35-.394-.687-.772-1.023-1.152a.417.417,0,0,1-.07-.508.381.381,0,0,1,.444-.209.548.548,0,0,1,.265.156q.594.648,1.171,1.311a.566.566,0,0,1,.008.79c-.387.449-.783.891-1.181,1.33a.429.429,0,0,1-.622.051.427.427,0,0,1-.009-.625C-311.964,744.476-311.628,744.1-311.276,743.708Z" transform="translate(-140.15 -154.039)" fill="#0e1116"/>
      <path id="Path_19547" data-name="Path 19547" d="M-417.393,743.679l.9,1.017a2.029,2.029,0,0,1,.151.178.424.424,0,0,1-.062.574.42.42,0,0,1-.577-.021c-.193-.2-.37-.409-.553-.615-.216-.243-.436-.483-.648-.73a.577.577,0,0,1,0-.823q.572-.655,1.156-1.3a.427.427,0,0,1,.621-.064.434.434,0,0,1,.007.641c-.289.33-.583.655-.874.983C-417.306,743.568-417.344,743.618-417.393,743.679Z" transform="translate(-40.231 -154.003)" fill="#0e1116"/>
      <path id="Path_19548" data-name="Path 19548" d="M-360.079,736.573c-.081.34-.175.731-.268,1.123l-.563,2.371c0,.021-.012.041-.018.061a.434.434,0,0,1-.519.35.423.423,0,0,1-.308-.543c.174-.757.357-1.512.538-2.268.1-.426.2-.853.312-1.276a.412.412,0,0,1,.469-.306A.446.446,0,0,1-360.079,736.573Z" transform="translate(-93.602 -148.615)" fill="#0e1116"/>
      <path id="Path_19549" data-name="Path 19549" d="M-354.894,856.45a.419.419,0,0,1,.437.419.426.426,0,0,1-.43.431.439.439,0,0,1-.43-.413A.428.428,0,0,1-354.894,856.45Z" transform="translate(-99.689 -262.163)" fill="#0e1116"/>
      <path id="Path_19550" data-name="Path 19550" d="M-258.491,613.9c-.651,0-1.3.013-1.951,0a1.434,1.434,0,0,1-1.386-1.3,1.434,1.434,0,0,1,1.047-1.508,1.711,1.711,0,0,1,.439-.058c1.23,0,2.461-.007,3.691,0a1.388,1.388,0,0,1,1.353.85,1.362,1.362,0,0,1-.209,1.509,1.389,1.389,0,0,1-1.117.515c-.622,0-1.244,0-1.867,0Zm.006-2.014c-.629,0-1.258-.006-1.887,0a.578.578,0,0,0-.605.578.581.581,0,0,0,.608.578c1.244.006,2.488,0,3.732,0a.576.576,0,0,0,.552-.327.575.575,0,0,0-.555-.83C-257.254,611.882-257.869,611.89-258.484,611.89Z" transform="translate(-187.872 -30.653)" fill="#0e1116"/>
      <path id="Path_19551" data-name="Path 19551" d="M-347.777,612.535a1.439,1.439,0,0,1-1.434,1.426,1.445,1.445,0,0,1-1.436-1.447,1.446,1.446,0,0,1,1.436-1.427A1.441,1.441,0,0,1-347.777,612.535Zm-.854-.015a.581.581,0,0,0-.589-.572.571.571,0,0,0-.565.57.578.578,0,0,0,.574.586A.59.59,0,0,0-348.631,612.52Z" transform="translate(-104.095 -30.709)" fill="#0e1116"/>
      <path id="Path_19552" data-name="Path 19552" d="M-416.191,612.527a1.437,1.437,0,0,1,1.434-1.445,1.437,1.437,0,0,1,1.429,1.43,1.433,1.433,0,0,1-1.435,1.444A1.434,1.434,0,0,1-416.191,612.527Zm2.006,0a.573.573,0,0,0-.574-.583.577.577,0,0,0-.577.56.585.585,0,0,0,.565.6A.582.582,0,0,0-414.185,612.526Z" transform="translate(-42.267 -30.704)" fill="#0e1116"/>
      <path id="Path_19553" data-name="Path 19553" d="M-220.205,804.29a2.608,2.608,0,0,1,2.617-2.61,2.62,2.62,0,0,1,2.612,2.62,2.633,2.633,0,0,1-2.611,2.606A2.623,2.623,0,0,1-220.205,804.29Zm.858.008a1.76,1.76,0,0,0,1.758,1.751,1.77,1.77,0,0,0,1.756-1.758,1.757,1.757,0,0,0-1.773-1.756A1.748,1.748,0,0,0-219.347,804.3Z" transform="translate(-227.143 -210.498)" fill="#0e1116"/>
    </g>
  </g>
</svg>
