<svg xmlns="http://www.w3.org/2000/svg" width="70" height="70" viewBox="0 0 70 70">
  <g id="Group_23574" data-name="Group 23574" transform="translate(-195 -1451.533)">
    <circle id="Ellipse_942" data-name="Ellipse 942" cx="35" cy="35" r="35" transform="translate(195 1451.533)" fill="#f09ea7"/>
    <g id="Group_24248" data-name="Group 24248" transform="translate(728.717 1428.289)">
      <path id="Path_19539" data-name="Path 19539" d="M-507.736,66.446h-.98v-.683h1.014c0-.228,0-.434,0-.639a.351.351,0,0,1,.4-.4c.2,0,.4,0,.617,0V52.356h-.568c-.333,0-.445-.116-.447-.455,0-.172,0-.343,0-.515a.218.218,0,0,0-.021-.054h-.99v-.691h1.015c0-.229,0-.434,0-.64a.351.351,0,0,1,.4-.394c.2,0,.4,0,.623,0V48.245h.691v1.362c.22,0,.424,0,.629,0,.28,0,.4.127.406.409,0,.2,0,.4,0,.609h13.059v-.39c0-.582.047-.628.639-.628h.386V48.244h.683v1.362c.22,0,.418,0,.615,0,.306,0,.423.122.426.433,0,.179,0,.358,0,.537a.221.221,0,0,0,.02.054h.99v.691h-1.015c0,.229,0,.434,0,.64a.353.353,0,0,1-.4.394c-.2,0-.4,0-.615,0V64.727c.2,0,.395,0,.592,0,.3,0,.419.123.422.414,0,.2,0,.4,0,.611h1.016v.683h-1.016c0,.19,0,.366,0,.541,0,.4-.1.5-.489.5h-.536v1.363h-.683V67.476h-.422c-.566,0-.618-.053-.618-.628v-.4c-.547,0-1.077.033-1.6-.01a1.218,1.218,0,0,0-1.132.467c-.326.388-.711.726-1.071,1.084-.242.24-.4.241-.638,0-.477-.475-.95-.954-1.431-1.424a.409.409,0,0,0-.255-.114q-3.393-.009-6.786,0c-.041,0-.083,0-.145.007,0,.217,0,.423,0,.628a.352.352,0,0,1-.4.394c-.2,0-.4,0-.623,0v1.362h-.683V67.476c-.228,0-.432,0-.637,0-.28,0-.4-.128-.406-.409,0-.193,0-.386-.007-.58C-507.709,66.481-507.716,66.475-507.736,66.446Zm9.685-.693.02-.037c-.07-.044-.138-.091-.21-.132a3.818,3.818,0,0,0-1.839-.513c-.259-.007-.37-.1-.408-.346q-.34-2.183-.676-4.367a.352.352,0,0,1,.429-.433q2.131.324,4.261.657c.4.062.44.127.46.53a3.742,3.742,0,0,0,.7,2.035c.313-.18.417-.184.6,0q.832.824,1.655,1.655a.341.341,0,0,1,0,.545c-.122.126-.254.242-.42.4h1.586c0-.213,0-.413,0-.612,0-.279.128-.4.411-.4.2,0,.408,0,.608,0V52.356h-.543c-.369,0-.476-.106-.477-.468,0-.183,0-.367,0-.547h-13.059v.315c0,.1,0,.2,0,.3a.353.353,0,0,1-.4.4c-.205,0-.411,0-.621,0v12.35c.02.01.026.016.032.016.193,0,.386,0,.579.006.28,0,.4.128.406.41,0,.2,0,.408,0,.616Zm.612-.465,1.632-1.636a.837.837,0,0,0-.046-.079,4.324,4.324,0,0,1-.819-2.158c-.014-.164-.105-.19-.235-.209-.629-.094-1.257-.194-1.886-.29-.326-.05-.653-.1-.984-.145l1.659,1.659.058-.443h.645a1.485,1.485,0,0,1-1.68,1.68v-.64l.414-.057-1.631-1.634c.005.038.012.1.021.162.121.791.246,1.582.362,2.374.071.482.064.488.541.574A4.623,4.623,0,0,1-497.438,65.288Zm.259.786L-496,67.252l2.179-2.178L-495,63.9Zm-8.476-14.415V50.311H-507v1.348Zm14.462-1.361v1.356h1.345V50.3Zm-15.811,16.476h1.348V65.426h-1.348Zm17.156.007V65.426h-1.345v1.356Z" transform="translate(0)" fill="#0e1116"/>
      <path id="Path_19540" data-name="Path 19540" d="M-303.634,180.072h.694v.208q0,1.384,0,2.768c0,.268-.085.414-.273.447-.223.039-.338-.093-.427-.277-.205-.423-.42-.841-.667-1.257v1.531H-305v-.2q0-1.384,0-2.768c0-.269.084-.413.273-.447.224-.041.338.093.427.276.206.423.42.841.668,1.257Z" transform="translate(-192.048 -124.275)" fill="#0e1116"/>
      <path id="Path_19541" data-name="Path 19541" d="M-429.2,181.665a1.029,1.029,0,0,1-.579,1.69,4.4,4.4,0,0,1-.942.016.31.31,0,0,1-.287-.345c0-.909,0-1.818,0-2.727a.331.331,0,0,1,.354-.35c.25-.007.5-.014.751,0a1.03,1.03,0,0,1,.814,1.542C-429.117,181.55-429.156,181.6-429.2,181.665Zm-1.112-.348c.234-.006.489.083.62-.173a.424.424,0,0,0-.014-.353c-.14-.232-.383-.144-.606-.15Zm0,1.383c.24-.022.5.077.626-.189a.425.425,0,0,0-.023-.353c-.145-.224-.384-.142-.6-.137Z" transform="translate(-73.259 -124.155)" fill="#0e1116"/>
      <path id="Path_19542" data-name="Path 19542" d="M-388.317,182.1v1.338H-389v-.578q0-1.2,0-2.4c0-.324.116-.44.437-.442.186,0,.372,0,.558,0a1.029,1.029,0,0,1,.991.652,1.016,1.016,0,0,1-.279,1.152l-.088.083a2.768,2.768,0,0,1,.44,1.534h-.677a2.037,2.037,0,0,0-.407-1.231,1,1,0,0,0-.232-.165Zm.009-.713c.242-.011.5.08.626-.185a.424.424,0,0,0-.024-.352c-.145-.224-.384-.141-.6-.136Z" transform="translate(-112.856 -124.225)" fill="#0e1116"/>
      <path id="Path_19543" data-name="Path 19543" d="M-344.949,183.468h-.68V182.46h-.682v1H-347c0-.055-.011-.11-.011-.165,0-.723,0-1.445,0-2.168a1.036,1.036,0,0,1,1.028-1.088,1.035,1.035,0,0,1,1.033,1.083c0,.723,0,1.445,0,2.168Zm-1.374-1.721h.686c0-.232.006-.451,0-.67a.339.339,0,0,0-.334-.347.341.341,0,0,0-.348.354C-346.328,181.3-346.323,181.511-346.323,181.747Z" transform="translate(-152.444 -124.249)" fill="#0e1116"/>
      <path id="Path_19544" data-name="Path 19544" d="M-263.008,181.694c0-.422,0-.844,0-1.266,0-.312.118-.431.424-.434.215,0,.43-.006.644,0a1.022,1.022,0,0,1,.99.993c.011.486.013.973,0,1.459a1.021,1.021,0,0,1-.981.98c-.214.009-.429,0-.644,0-.31,0-.431-.12-.432-.426C-263.01,182.567-263.008,182.131-263.008,181.694Zm.694,1.047c.127,0,.234.006.34,0a.333.333,0,0,0,.337-.344q.011-.685,0-1.37a.332.332,0,0,0-.337-.343c-.111-.007-.223,0-.34,0Z" transform="translate(-231.635 -124.201)" fill="#0e1116"/>
    </g>
  </g>
</svg>
