<svg xmlns="http://www.w3.org/2000/svg" width="24" height="24" viewBox="0 0 24 24">
  <g id="email" transform="translate(-38.056 -394.909)">
    <rect id="Rectangle_34" data-name="Rectangle 34" width="24" height="24" transform="translate(38.056 394.909)" fill="none"/>
    <g id="company-svgrepo-com" transform="translate(-24.944 286.31)">
      <path id="Path_17352" data-name="Path 17352" d="M531.8,385v11.327h0V385Z" transform="translate(-456.836 -266.992)" fill="#9b9a9f"/>
      <g id="Group_23594" data-name="Group 23594">
        <path id="Path_17353" data-name="Path 17353" d="M244.142,247.1h2.016v.375h-2.016Zm0,3h2.016v.375h-2.016Zm-10.242-9h2.016v.375H233.9Zm3.518,0h2.016v.375h-2.016Zm-3.518,3h2.016v.375H233.9Zm3.518,0h2.016v.375h-2.016Zm-3.516,3.012h2.016v.375H233.9Zm3.516-.007h2.016v.375h-2.016Z" transform="translate(-165.918 -126.465)" fill="#9b9a9f"/>
      </g>
      <path id="Path_17354" data-name="Path 17354" d="M288.632,685.552a1.541,1.541,0,0,0-2.632,1.09v2.752h.469v-2.752a1.073,1.073,0,0,1,2.147,0v2.752h.469v-2.752A1.544,1.544,0,0,0,288.632,685.552Z" transform="translate(-216.797 -560.059)" fill="#e73b37"/>
      <path id="Path_17355" data-name="Path 17355" d="M292.987,429v10.263h0V429ZM286.2,439.3h0Z" transform="translate(-216.992 -309.961)" fill="#343535"/>
      <path id="Path_17356" data-name="Path 17356" d="M83.5,129.335V118.008H76V111.6H65.5v17.735H64v1.031H85v-1.031Zm-8.534,0H66.531v-16.7h8.435Zm7.5-.035H76V119.039h6.473Z" fill="#9b9a9f"/>
    </g>
  </g>
</svg>
