<svg xmlns="http://www.w3.org/2000/svg" width="56" height="56" viewBox="0 0 56 56">
  <g id="Group_23559" data-name="Group 23559" transform="translate(-195 -1452)">
    <g id="Ellipse_942" data-name="Ellipse 942" transform="translate(195 1452)" fill="#f3d388" stroke="" stroke-width="1">
      <circle cx="28" cy="28" r="28" stroke="none"/>
      <circle cx="28" cy="28" r="27.5" fill="none"/>
    </g>
    <path id="website-webpage-url-domain-svgrepo-com" d="M22.216,19H5.259A1.162,1.162,0,0,0,4.1,20.159V34.805a1.162,1.162,0,0,0,1.159,1.159H22.216a1.162,1.162,0,0,0,1.159-1.159V20.159A1.162,1.162,0,0,0,22.216,19Zm-2.894.77a.77.77,0,1,1-.77.77A.777.777,0,0,1,19.322,19.77Zm-2.116,0a.77.77,0,1,1-.77.77A.777.777,0,0,1,17.206,19.77Zm5.009,15.168H5.259V22.08H22.216Zm-.77-13.628a.77.77,0,1,1,.77-.77A.777.777,0,0,1,21.446,21.31Zm-10.2,1.968h5.919V24.4H11.248Zm2.333,2.559h7.49v1.112h-7.49Zm0,2.225h7.49v1.112h-7.49Zm0,2.256h7.49V31.43h-7.49ZM6.317,32.542H21.08v1.112H6.317Zm0-6.7H11.59v5.5H6.317Z" transform="translate(209.9 1452.518)" fill="#0e1116"/>
  </g>
</svg>
