<svg xmlns="http://www.w3.org/2000/svg" width="56" height="56" viewBox="0 0 56 56">
  <g id="Customer_Service" transform="translate(-195 -1451.533)">
    <circle id="Ellipse_942" data-name="Ellipse 942" cx="28" cy="28" r="28" transform="translate(195 1451.533)" fill="#fca9b7"/>
    <g id="Group_24264" data-name="Group 24264" transform="translate(555.222 1068.865)">
      <path id="Path_19716" data-name="Path 19716" d="M-342.222,420.457a.429.429,0,0,1,.415-.2q3.212.007,6.423,0h.255c-.044-.431-.086-.846-.13-1.261-.116-1.1-.238-2.206-.347-3.309a.87.87,0,0,1,.917-1c.274,0,.549,0,.836,0v-1.759c-.058.018-.107.029-.152.049-.6.258-1.194.509-1.784.779a2.27,2.27,0,0,0-1.419,2.174c-.016,1.1,0,2.194,0,3.29a1.3,1.3,0,0,1-.005.2.274.274,0,0,1-.263.25.268.268,0,0,1-.3-.2.734.734,0,0,1-.022-.214c0-1.09-.01-2.18,0-3.271a2.89,2.89,0,0,1,1.855-2.806c.472-.209.947-.412,1.455-.632-.074-.036-.116-.059-.161-.077a2.377,2.377,0,0,1-1-3.681,3.491,3.491,0,0,0,.814-2.421c-.019-.34-.005-.683,0-1.024a4.392,4.392,0,0,1,.269-1.564,4.589,4.589,0,0,1,3.813-3.069,1.076,1.076,0,0,0,.129-.036h.867c.141.026.281.055.422.078a4.6,4.6,0,0,1,3.707,3.743,12.636,12.636,0,0,1,.08,1.984,3.467,3.467,0,0,0,.784,2.312,2.344,2.344,0,0,1,.067,2.826,2.447,2.447,0,0,1-1.213.91c.506.217.978.411,1.443.619a2.891,2.891,0,0,1,1.843,2.815c.008,1.36,0,2.72,0,4.079v.226c.234,0,.463-.04.591.2v.394h-20.183Zm16.621-.2c.039-.361.076-.705.113-1.05.124-1.169.251-2.337.371-3.506.033-.319-.067-.421-.385-.421h-9.125c-.325,0-.418.1-.385.418q.163,1.607.335,3.213c.047.448.1.9.147,1.347Zm-.555-14.887a3.923,3.923,0,0,0-1.357-3.061,8,8,0,0,1-5.495,3.611c0,.8-.014,1.58,0,2.36a2.212,2.212,0,0,0,1.773,2.153,6.662,6.662,0,0,0,1.762.05,2.184,2.184,0,0,0,1.886-1.437c.049-.114.076-.237.122-.384-.322.211-.609.394-.89.586a.6.6,0,0,0-.192.2.83.83,0,0,1-.685.5,5.087,5.087,0,0,1-.962-.011.838.838,0,0,1-.707-.884.86.86,0,0,1,.81-.816c.157-.009.316,0,.473-.006a.99.99,0,0,1,1.049.47,2.3,2.3,0,0,0,.9-.746,1.167,1.167,0,0,0,.253-.785,7.656,7.656,0,0,1,0-.965c.012-.221-.036-.333-.28-.386a2.894,2.894,0,0,1-1.157-.569.292.292,0,0,1-.08-.416.3.3,0,0,1,.419-.063c.039.024.074.054.113.079A3.316,3.316,0,0,0-326.156,405.367Zm-8.1-.023a6.388,6.388,0,0,0,3.83-.995,7.211,7.211,0,0,0,2.458-2.44,4,4,0,0,0-4.215-.116A3.989,3.989,0,0,0-334.26,405.344Zm7.681,9.341h1.081a.883.883,0,0,1,.97,1.05c-.1,1.046-.22,2.089-.331,3.134-.048.456-.1.912-.145,1.375h1.781c0-1.461.011-2.906,0-4.351a2.265,2.265,0,0,0-1.434-2.183c-.568-.256-1.144-.495-1.716-.74-.062-.027-.127-.046-.2-.074Zm-4.916-3.674a.2.2,0,0,0-.028.047,1.879,1.879,0,0,1-1.263,1.376.583.583,0,0,0-.47.725c.02.151.054.219.2.244.543.091,1.081.217,1.627.281a10.438,10.438,0,0,0,4.112-.358c.046-.013.121-.047.123-.075a2.2,2.2,0,0,0-.008-.587c-.017-.074-.184-.124-.29-.168a2.145,2.145,0,0,1-.968-.617,10.032,10.032,0,0,1-.525-.862A7.551,7.551,0,0,1-331.5,411.01Zm-2.758-5.053c0,.2-.005.374,0,.55a3.8,3.8,0,0,1-.886,2.565,1.8,1.8,0,0,0,.061,2.407,1.9,1.9,0,0,0,2.429.229,1.38,1.38,0,0,0,.539-.753.214.214,0,0,0-.107-.288,2.808,2.808,0,0,1-1.38-2.4c-.018-.7-.005-1.392-.006-2.088,0-.071,0-.141,0-.221Zm7.429.02v.236c0,.637,0,1.274,0,1.911a2.89,2.89,0,0,1-1.238,2.447c-.334.244-.354.282-.139.65a1.4,1.4,0,0,0,.337.4,1.843,1.843,0,0,0,1.571.376,1.8,1.8,0,0,0,1.005-2.923,3.718,3.718,0,0,1-.853-2.457c0-.215,0-.431,0-.645Zm-6.414,8.691h6.047v-.758a11.742,11.742,0,0,1-3.023.431,11.925,11.925,0,0,1-3.025-.372Zm3.558-5.845h0c-.124,0-.249-.006-.373,0a.249.249,0,0,0-.247.256.232.232,0,0,0,.205.269,6.35,6.35,0,0,0,.82,0,.234.234,0,0,0,.21-.266.249.249,0,0,0-.243-.259C-329.431,408.815-329.556,408.823-329.68,408.823Z" fill="#0e1116"/>
      <path id="Path_19717" data-name="Path 19717" d="M-338.438,400.668c.2.045.4.079.591.136a3.429,3.429,0,0,1,1.592,5.594l-.116.133c.123.075.24.144.355.216a.4.4,0,0,1,.223.477.4.4,0,0,1-.429.3c-.892,0-1.785.015-2.677,0a3.469,3.469,0,0,1-3.284-2.919,1.347,1.347,0,0,0-.039-.15v-.71c.013-.05.028-.1.038-.15a3.383,3.383,0,0,1,2.373-2.766,6.759,6.759,0,0,1,.664-.159Zm1.5,6.3c-.207-.366-.19-.539.079-.8l.056-.055a2.818,2.818,0,0,0,.55-3.267,2.836,2.836,0,0,0-2.945-1.556,2.837,2.837,0,0,0-2.431,2.668,2.765,2.765,0,0,0,2.226,2.886A19.817,19.817,0,0,0-336.937,406.967Z" fill="#0e1116"/>
      <path id="Path_19718" data-name="Path 19718" d="M-275.566,497.786a1.115,1.115,0,0,1-1.112-1.133,1.127,1.127,0,0,1,1.119-1.111,1.135,1.135,0,0,1,1.126,1.129A1.122,1.122,0,0,1-275.566,497.786Zm.007-.592a.531.531,0,0,0,.534-.521.541.541,0,0,0-.54-.539.535.535,0,0,0-.521.535A.523.523,0,0,0-275.559,497.193Z" transform="translate(-54.51 -78.9)" fill="#0e1116"/>
      <path id="Path_19719" data-name="Path 19719" d="M-330.03,419.588a.283.283,0,0,1-.275.3.285.285,0,0,1-.306-.285.287.287,0,0,1,.295-.3A.284.284,0,0,1-330.03,419.588Z" transform="translate(-9.657 -15.497)" fill="#0e1116"/>
      <path id="Path_19720" data-name="Path 19720" d="M-323,419.593a.282.282,0,0,1-.28.29.285.285,0,0,1-.3-.29.287.287,0,0,1,.3-.291A.284.284,0,0,1-323,419.593Z" transform="translate(-15.499 -15.497)" fill="#0e1116"/>
      <path id="Path_19721" data-name="Path 19721" d="M-316.267,419.3a.285.285,0,0,1,.285.306.283.283,0,0,1-.295.275.285.285,0,0,1-.285-.3A.287.287,0,0,1-316.267,419.3Z" transform="translate(-21.339 -15.497)" fill="#0e1116"/>
    </g>
  </g>
</svg>
