<svg xmlns="http://www.w3.org/2000/svg" width="56" height="56" viewBox="0 0 56 56">
  <g id="Group_23559" data-name="Group 23559" transform="translate(-195 -1451.533)">
    <g id="Ellipse_942" data-name="Ellipse 942" transform="translate(195 1451.533)" fill="#ffdef2" stroke="" stroke-width="1">
      <circle cx="28" cy="28" r="28" stroke="none"/>
      <circle cx="28" cy="28" r="27.5" fill="none"/>
    </g>
    <g id="Group_23843" data-name="Group 23843" transform="translate(419.319 655.78)">
      <path id="Path_18134" data-name="Path 18134" d="M-204.433,813.753q1.406.7,2.813,1.4,1.827.906,3.659,1.8a.3.3,0,0,1,.2.321q-.009,3.325,0,6.65v.276c.294,0,.569,0,.844,0,.291,0,.409.123.412.417,0,.248,0,.5,0,.744a.344.344,0,0,1-.381.384c-.282.007-.565,0-.874,0,0,.422-.009.824,0,1.225a.677.677,0,0,1-.167.48q-3.217,3.96-6.426,7.925c-.045.055-.116.127-.175.128-.587.01-1.175.006-1.779.006,0-.092-.011-.167-.011-.243q0-10.654,0-21.309c0-.07.008-.141.012-.211Zm.813,19.409.089-.11q2.422-2.991,4.841-5.984a.457.457,0,0,0,.09-.267q.007-4.526.007-9.053a.245.245,0,0,0-.159-.259q-2.347-1.151-4.689-2.312c-.054-.027-.111-.046-.179-.073Z" fill="#0e1116"/>
      <path id="Path_18135" data-name="Path 18135" d="M102.348,902.883c0,.482.008.963,0,1.445a1.117,1.117,0,0,1-1.123,1.193c-1.041.031-2.085.024-3.127-.008a1.079,1.079,0,0,1-1.043-1.086q-.026-1.54,0-3.08a1.117,1.117,0,0,1,1.124-1.1q1.522-.019,3.044,0a1.137,1.137,0,0,1,1.12,1.09c0,.035.006.071.006.106Q102.348,902.16,102.348,902.883Z" transform="translate(-288.625 -82.279)" fill="#0e1116"/>
      <path id="Path_18136" data-name="Path 18136" d="M19.745,1011.325c0,.354,0,.708,0,1.062a.833.833,0,0,1-.832.893c-.765.027-1.533.026-2.3,0a.835.835,0,0,1-.827-.88q-.017-1.083,0-2.167a.856.856,0,0,1,.889-.888q1.1-.019,2.193,0a.851.851,0,0,1,.876.9c0,.014,0,.028,0,.042Q19.746,1010.8,19.745,1011.325Z" transform="translate(-211.312 -186.083)" fill="#0e1116"/>
      <path id="Path_18137" data-name="Path 18137" d="M-8.986,915.354c-.3,0-.6.005-.893,0a.708.708,0,0,1-.733-.74q-.008-.892,0-1.783a.686.686,0,0,1,.681-.724c.63-.02,1.262-.02,1.892,0a.667.667,0,0,1,.686.673c.022.629.022,1.26,0,1.889a.691.691,0,0,1-.741.687C-8.39,915.359-8.688,915.355-8.986,915.354Z" transform="translate(-186.198 -93.561)" fill="#0e1116"/>
      <path id="Path_18138" data-name="Path 18138" d="M-18.659,1108.974c-.291,0-.582.006-.872,0a.71.71,0,0,1-.75-.767q-.005-.86,0-1.72a.7.7,0,0,1,.748-.766q.883-.012,1.766,0a.709.709,0,0,1,.754.744q.018.881,0,1.762a.713.713,0,0,1-.753.747C-18.063,1108.98-18.361,1108.974-18.659,1108.974Z" transform="translate(-177 -277.78)" fill="#0e1116"/>
      <path id="Path_18139" data-name="Path 18139" d="M133.651,1039.547c-.17,0-.341.006-.51,0a.369.369,0,0,1-.4-.358,10.172,10.172,0,0,1,0-1.1.372.372,0,0,1,.392-.369q.52-.016,1.042,0a.361.361,0,0,1,.377.358,10.776,10.776,0,0,1,0,1.122.358.358,0,0,1-.386.346C133.992,1039.553,133.821,1039.546,133.651,1039.547Z" transform="translate(-322.577 -213.079)" fill="#0e1116"/>
      <path id="Path_18140" data-name="Path 18140" d="M79.8,840.6c0,.163,0,.326,0,.488a.4.4,0,0,1-.423.433c-.326.011-.652.011-.978,0a.412.412,0,0,1-.434-.448c-.007-.318-.008-.637,0-.955a.4.4,0,0,1,.426-.428c.333-.009.666-.009,1,0a.392.392,0,0,1,.409.42C79.8,840.275,79.8,840.438,79.8,840.6Z" transform="translate(-270.467 -24.673)" fill="#0e1116"/>
      <path id="Path_18141" data-name="Path 18141" d="M92.256,1107.3c-.135,0-.27,0-.4,0-.224-.008-.356-.111-.368-.328a8.352,8.352,0,0,1,0-.891.321.321,0,0,1,.35-.323c.277,0,.554-.008.83,0a.341.341,0,0,1,.366.378c.007.262.008.524,0,.786a.351.351,0,0,1-.39.379C92.511,1107.3,92.384,1107.3,92.256,1107.3Z" transform="translate(-283.327 -277.813)" fill="#0e1116"/>
      <path id="Path_18142" data-name="Path 18142" d="M-101.86,961.233c0,.248.007.5,0,.744a.592.592,0,0,1-.622.613c-.49.008-.979.009-1.469,0a.586.586,0,0,1-.612-.621q-.009-.733,0-1.466a.589.589,0,0,1,.631-.623q.724-.008,1.448,0a.591.591,0,0,1,.624.609C-101.853,960.736-101.86,960.985-101.86,961.233Z" transform="translate(-96.808 -139.025)" fill="#0e1116"/>
    </g>
  </g>
</svg>
