<svg xmlns="http://www.w3.org/2000/svg" width="56" height="56" viewBox="0 0 56 56">
  <g id="Group_23559" data-name="Group 23559" transform="translate(-195 -1451.533)">
    <g id="Ellipse_942" data-name="Ellipse 942" transform="translate(195 1451.533)" fill="#f2e2ff" stroke="" stroke-width="1">
      <circle cx="28" cy="28" r="28" stroke="none"/>
      <circle cx="28" cy="28" r="27.5" fill="none"/>
    </g>
    <g id="Group_23842" data-name="Group 23842" transform="translate(1051.486 378.111)">
      <path id="Path_18130" data-name="Path 18130" d="M-809.464,1151.548c0-.076-.013-.148-.013-.22q0-4.736,0-9.472a1.617,1.617,0,0,1,1.3-1.678,1.865,1.865,0,0,1,.391-.034q3.039,0,6.078,0c.064,0,.128.008.2.014a1.313,1.313,0,0,0,.514.992,1.246,1.246,0,0,0-.013,1.155,3.045,3.045,0,0,0,1.187,1.344,2.846,2.846,0,0,0,.756.143.369.369,0,0,1,.223.116,1.18,1.18,0,0,0,.914.6,9.2,9.2,0,0,0,1.346,0,1.126,1.126,0,0,0,.9-.579.233.233,0,0,1,.269-.139,1.229,1.229,0,0,0,1.125-.425c.213-.237.421-.481.61-.737a1.34,1.34,0,0,0,.172-1.464,1.3,1.3,0,0,0,.506-.972c.417-.134.691.034.691.441q0,5.413,0,10.826a.869.869,0,0,1-.012.093Zm6.139-1c.2-.021.408-.034.61-.063a.4.4,0,0,0,.382-.456.527.527,0,0,1,.346-.562.547.547,0,0,1,.659.077.379.379,0,0,0,.572,0,10.831,10.831,0,0,0,.782-.972.372.372,0,0,0-.124-.557.529.529,0,0,1-.231-.619.537.537,0,0,1,.464-.472.381.381,0,0,0,.362-.467,10.074,10.074,0,0,0-.266-1.193.379.379,0,0,0-.528-.262.534.534,0,0,1-.625-.217.538.538,0,0,1-.068-.658.382.382,0,0,0-.127-.559,10.936,10.936,0,0,0-1.124-.54.38.38,0,0,0-.518.244.536.536,0,0,1-.554.364.538.538,0,0,1-.562-.351.384.384,0,0,0-.535-.252,9.89,9.89,0,0,0-1.082.516.386.386,0,0,0-.155.588.535.535,0,0,1-.076.657.532.532,0,0,1-.628.206.374.374,0,0,0-.513.251,9.445,9.445,0,0,0-.274,1.191.392.392,0,0,0,.373.484.517.517,0,0,1,.449.454.534.534,0,0,1-.214.626.376.376,0,0,0-.127.575,10.343,10.343,0,0,0,.764.956.381.381,0,0,0,.573.017.542.542,0,0,1,.677-.082.538.538,0,0,1,.344.566.391.391,0,0,0,.383.45C-803.72,1150.512-803.524,1150.526-803.326,1150.547Z" transform="translate(-27.101 -44.581)"/>
      <path id="Path_18131" data-name="Path 18131" d="M-827.992,1326.718h9.895c.489,0,.619.135.594.615a2.376,2.376,0,0,1-2.246,2.178c-.082,0-.164,0-.246,0q-8,0-16,0a2.377,2.377,0,0,1-2.405-1.728,2.78,2.78,0,0,1-.086-.63.4.4,0,0,1,.4-.436c.081-.008.164,0,.246,0Z" transform="translate(0 -218.888)"/>
      <path id="Path_18132" data-name="Path 18132" d="M-668.49,1095.442c-.021.339-.1.458-.422.529a.439.439,0,0,0-.342.375.423.423,0,0,0,.162.478.393.393,0,0,1,.117.615,7.053,7.053,0,0,1-.627.784.4.4,0,0,1-.628.026.43.43,0,0,0-.523-.039.416.416,0,0,0-.263.428.4.4,0,0,1-.422.467,7.991,7.991,0,0,1-.979,0,.409.409,0,0,1-.429-.486.409.409,0,0,0-.257-.407.433.433,0,0,0-.524.035.4.4,0,0,1-.629-.023,7.044,7.044,0,0,1-.628-.784.393.393,0,0,1,.113-.616.419.419,0,0,0,.165-.476.441.441,0,0,0-.362-.384c-.271-.05-.4-.2-.363-.462a7.374,7.374,0,0,1,.231-1.05.383.383,0,0,1,.526-.267.432.432,0,0,0,.5-.172.431.431,0,0,0,.061-.521.377.377,0,0,1,.143-.572,8.042,8.042,0,0,1,.971-.463.377.377,0,0,1,.523.226.434.434,0,0,0,.46.292.428.428,0,0,0,.438-.288.377.377,0,0,1,.521-.232,7.665,7.665,0,0,1,.95.449.39.39,0,0,1,.159.605.418.418,0,0,0,.069.5.422.422,0,0,0,.469.183.41.41,0,0,1,.573.3C-668.64,1094.806-668.572,1095.126-668.49,1095.442Zm-3.455,1.7a1.426,1.426,0,0,0,1.433-1.412,1.419,1.419,0,0,0-1.4-1.416,1.422,1.422,0,0,0-1.433,1.41A1.426,1.426,0,0,0-671.945,1097.141Z" transform="translate(-152.421)"/>
      <path id="Path_18133" data-name="Path 18133" d="M-736.356,1217.869a1.548,1.548,0,0,1-1.539,1.555,1.569,1.569,0,0,1-1.562-1.566,1.555,1.555,0,0,1,1.562-1.535A1.53,1.53,0,0,1-736.356,1217.869Z" transform="translate(-92.517 -115.753)"/>
    </g>
  </g>
</svg>
