<svg xmlns="http://www.w3.org/2000/svg" width="449.414" height="392.099" viewBox="0 0 449.414 392.099">
  <g id="hero-light" transform="translate(-0.746 -63.4)">
    <g id="Group_23672" data-name="Group 23672" transform="translate(1.533 424.789)">
      <path id="Path_17839" data-name="Path 17839" d="M447.939,869.108H2.9a.4.4,0,0,1,0-.808H447.939a.4.4,0,0,1,0,.808Z" transform="translate(-2.5 -868.3)"/>
    </g>
    <circle id="Ellipse_944" data-name="Ellipse 944" cx="57.38" cy="57.38" r="57.38" transform="translate(80.914 152.524)" fill="#e51635"/>
    <path id="Path_17840" data-name="Path 17840" d="M562.454,624.307H384.969a6.9,6.9,0,0,1-6.87-6.869V397.569a6.9,6.9,0,0,1,6.87-6.869H562.454a6.9,6.9,0,0,1,6.869,6.869V617.438A6.9,6.9,0,0,1,562.454,624.307Z" transform="translate(-207.927 -180.347)" fill="#fff"/>
    <path id="Path_17841" data-name="Path 17841" d="M39.922,731.855s-7.857,3.1-12.392,9.429S12.669,762.61,9.481,773.341,2.971,789.28,2.7,798.619s0,17.376,3.008,21.955l95.14.269,4.939-62.14S99.5,744.426,92.858,737.961s-15.176-10.6-21.506-10.372Z" transform="translate(-1.033 -365.973)" fill="#e51635"/>
    <path id="Path_17842" data-name="Path 17842" d="M222,840.009h79.605a12.139,12.139,0,0,0,11.539-7.992L332,777.51c2.6-7.543-3.233-15.31-11.539-15.31H240.9a12.139,12.139,0,0,0-11.539,7.992L210.508,824.7C207.859,832.242,213.7,840.009,222,840.009Z" transform="translate(-115.226 -385.049)" fill="#0e1116"/>
    <path id="Path_17843" data-name="Path 17843" d="M609.724,153.633s-5.837-6.42-4.939-10.821,4.894-7.992,8.037-8.351c3.188-.359,7.139,1.527,7.139,1.527s2.784-3.053,9.743-1.212,10.91,10.282,10.91,10.282,7.453,1.033,7.408,8.261-4.535,14.008-10.1,18.274-4.894,4.445-6.421,4.22-4.041-.853-2.873-7.094l-3.322-9.7s-5.253-.494-1.886-7.094c0,0-4.849-5.747-11.27-5.567Z" transform="translate(-332.782 -39.004)" fill="#e51635"/>
    <path id="Path_17844" data-name="Path 17844" d="M704.721,709.793v24.245H786.3l-.225-17.466a23.974,23.974,0,0,0,13.6-15.49c3.233-11.718.09-21.821-1.437-26.984-1.482-5.163-7.274-21.1-10.6-28.331s-7.363-17.331-9.608-21.147-6.825-10.417-14.457-13.065a57.82,57.82,0,0,0-16.478-2.649l-15.355-.314a50.605,50.605,0,0,0-12.123,2.918c-7.184,2.6-11.494,3.906-18.947,2.6-7.408-1.3-12.931-7.049-15.939-12.3s-5.792-15.445-6.465-19.755c-.673-4.265-.943-9.743-.943-9.743s-1.8-2.739-13.963-2.2-15.31,2.29-15.49,2.784c-.18.449,1.122,12.886,4.041,23.751s9.114,24.515,16.388,32.821,19.486,18.678,33.584,20.564Z" transform="translate(-356.571 -279.168)" fill="#e51635"/>
    <path id="Path_17845" data-name="Path 17845" d="M815.52,744.3l-50.6.4A12.467,12.467,0,0,0,754.5,756.153c-.9,10.192.359,38.658.359,38.658s1.167,10.237,10.1,11.4l48.895-.539A141.941,141.941,0,0,1,798.1,794.227a121.607,121.607,0,0,1-11.494-11s6.106-15.31,15.715-22.629l24.2,17.421C826.476,777.929,818.035,756.018,815.52,744.3Z" transform="translate(-415.153 -375.185)" fill="#0e1116"/>
    <path id="Path_17846" data-name="Path 17846" d="M610.794,745.3v24.694H586.1A24.694,24.694,0,1,0,610.794,745.3Z" transform="translate(-322.538 -375.737)" fill="#0e1116"/>
    <path id="Path_17847" data-name="Path 17847" d="M570.043,750.009h24.425V725.584a23.916,23.916,0,0,0-17.735,7.633C569.011,741.478,570.043,750.009,570.043,750.009Z" transform="translate(-313.666 -364.865)" fill="#e51635"/>
    <path id="Path_17848" data-name="Path 17848" d="M147.332,641.363a11.761,11.761,0,0,1,2.694,5.163,12.521,12.521,0,0,1-2.739,10.237s.359,11.135-7.812,11l-.584,8.845s.9,10.057-2.155,10.372-7.678-6.106-7.678-6.106,3.5-4.67,3.412-8.845c-.135-4.176-.045-7.139-3.682-12.392s-4-8.935-3.1-11c.853-2.065,2.874-6.914,2.963-8.351a44.8,44.8,0,0,0-.9-6.286,6.534,6.534,0,0,1,1.976,3.457,22.946,22.946,0,0,1,.045,4l4.355-.18Z" transform="translate(-68.618 -314.409)" fill="#fff"/>
    <path id="Path_17849" data-name="Path 17849" d="M122.344,896.522s10.731-5.253,13.11-5.343,3.637-.135,3.637-.135a8.943,8.943,0,0,1,8.935-.9s2.559-2.155,5.118-1.8,4,3.322,4,3.322-1.257,4.445-1.033,6.286c.225,1.8,1.616,7.857,6.286,10.057,0,0-1.841,2.38-6.286-.449a11.32,11.32,0,0,1-8.4,1.437s-2.829.9-4.535.269a8.648,8.648,0,0,1-3.816-2.739,38.593,38.593,0,0,1-2.155-4.131s-.314,7.139-8.89,6.825a9.917,9.917,0,0,1-4.939-5.3A11.611,11.611,0,0,1,122.344,896.522Z" transform="translate(-66.887 -454.537)" fill="#fff"/>
    <path id="Path_17850" data-name="Path 17850" d="M815.91,766.565s-1.976-3.906-3.682-7.588-2.649-6.825-5.029-6.42-1.706,4.355-1.257,5.7,2.245,6.331.359,6.87-4.58-.494-7.363-3.008c-2.784-2.469-7.633-7.139-7.633-7.139s-2.694-1.8-4.4-.314-.269,3.592-.269,3.592-2.29-.09-2.918.9a3.365,3.365,0,0,0-.135,3.367,4.287,4.287,0,0,0-1.122,5.523c1.841,3.322,9.07,9.518,11.135,11.045,2.065,1.571,7.184,4.894,9.563,5.3a76.21,76.21,0,0,1,5.612-9.788A78.284,78.284,0,0,1,815.91,766.565Z" transform="translate(-430.404 -379.716)" fill="#fff"/>
    <path id="Path_17851" data-name="Path 17851" d="M669.714,551.307s.584-10.192-.494-14.278-2.29-6.825-5.747-7.768-6.69-1.661-6.69-1.661h-3.771l2.335,4.221-3.5,1.841-2.335-4.131s-4.759,1.257-5.433,4.8c-.674,3.592-.449,10.147,1.482,14.1,1.976,3.951,3.727,6.421,8.037,6.151,4.31-.224,6.51-.673,9.07-1.841,2.559-1.212,2.874-2.11,2.874-2.11l.718,1.3Z" transform="translate(-354.295 -255.781)" fill="#fff"/>
    <path id="Path_17852" data-name="Path 17852" d="M822.467,572.3l-2.784,13.514s-1.347,7-.763,10.237c.584,3.188.943,7.588,7.723,7.678l-.674,6.061s-4.759,12.8,1.078,12.976,8.441-4.041,10.461-6.735a60.2,60.2,0,0,0,3.816-5.927l.314-14.5s6.51,1.571,6.735-4.4-6.735-5.074-6.735-5.074a120.774,120.774,0,0,1-11.4-7.094C826.687,576.206,822.467,572.3,822.467,572.3Z" transform="translate(-450.745 -280.411)" fill="#fff"/>
    <path id="Path_17853" data-name="Path 17853" d="M348.171,839.047c-2.425,4.22-2.155,8.89.629,10.506s6.959-.494,9.384-4.714,2.155-8.89-.629-10.506C354.816,832.717,350.6,834.827,348.171,839.047Z" transform="translate(-190.525 -424.495)" fill="#e51635"/>
    <g id="Group_23674" data-name="Group 23674" transform="translate(95.551 179.412)">
      <g id="Group_23673" data-name="Group 23673">
        <path id="Path_17854" data-name="Path 17854" d="M211.9,339.8c2.02-.539,3.861-1.078,5.7-1.571,1.033-.269,2.065-.539,3.1-.853a.58.58,0,0,1,.718.224,65.628,65.628,0,0,0,12.3,12.392,5.116,5.116,0,0,0,4.759.988,16.677,16.677,0,0,0,4.894-2.245,62.916,62.916,0,0,0,10.147-8.441A184.5,184.5,0,0,0,269.46,322.2c.314-.359.539-.494.988-.359,3.1.9,6.2,1.706,9.294,2.6a3.418,3.418,0,0,1,.494.18,4.173,4.173,0,0,1-.224.449A220.908,220.908,0,0,1,259.852,354.3,71.9,71.9,0,0,1,247.1,366.87a42.626,42.626,0,0,1-4.939,3.008,12.415,12.415,0,0,1-11.314.18,23.745,23.745,0,0,1-9.114-7.588,51.4,51.4,0,0,1-7.723-15.445C213.247,344.69,212.618,342.266,211.9,339.8Z" transform="translate(-211.9 -321.786)" fill="#fff"/>
      </g>
    </g>
    <path id="Path_17855" data-name="Path 17855" d="M75.462,670.385s12.257,5.657,18.633,1.931,6.69-9.294,6.42-13.514-3.906-9.788-5.523-11.988-1.931-4.714-1.347-8.127c.539-3.367,2.784-5.657,2.963-8.351s-1.527-7.184-1.527-7.184,2.6,2.2,2.649,4.8,0,3.5,0,3.5l2.514.225s.763-.9,1.437-.943S104.017,632,104.017,632l7.947-.314s1.527-.988,2.425-.629,1.437.629,1.437.629h1.122s.269-6.151-.763-9.025c-1.078-2.874-2.11-5.074-7.678-5.927s-11.18-1.527-16.343,1.661c0,0-13.559-.988-14.457,10.955,0,0,2.694,15.221,3.367,19.486s1.661,8.351-2.559,9.788-9.339,1.976-10.686,6.78c-1.3,4.8-.763,6.87,1.212,8.486Z" transform="translate(-36.573 -304.503)" fill="#0e1116"/>
    <path id="Path_17856" data-name="Path 17856" d="M156.239,708.153l-.539,8.261,5.029.943a4.89,4.89,0,0,0,1.8-4.625,12.622,12.622,0,0,0-2.02-5.433S157.137,708.782,156.239,708.153Z" transform="translate(-85.382 -354.798)"/>
    <path id="Path_17857" data-name="Path 17857" d="M479.853,251.159s7.992,25.907,8.486,27.523c.539,1.616,2.514,12.841,8.89,12.3,6.376-.494,8.306-7.274,9.114-9.339.853-2.065,5.657-14.368,9.339-19.486a21.158,21.158,0,0,1,15.266-8.935c5.927-.4,24.29-.9,29.139,2.38,4.8,3.278,13.514,14.008,20.115,27.568s8.216,14.817,8.755,20.339l-14.727.359-43.731-.224s-5.388,8.306-11.359,12.976c0,0-4.714,2.918-7.363,4.22a42.468,42.468,0,0,1-17.645,3.727c-7.5-.224-18.139-2.425-24.874-11.449s-9.159-15.041-10.731-20.294a234.709,234.709,0,0,1-5.7-23.347c-1.212-7.049-2.425-13.784-2.425-13.784s2.155-4.131,13.739-5.837S479.853,251.159,479.853,251.159Z" transform="translate(-247.766 -102.452)" fill="#0e1116"/>
    <path id="Path_17858" data-name="Path 17858" d="M685.5,581l2.2,4.131s1.886.673,2.649,0,.494-2.155.494-2.155L688.6,578.8S686.8,580.82,685.5,581Z" transform="translate(-377.309 -283.993)" fill="#fff"/>
    <path id="Path_17859" data-name="Path 17859" d="M612.675,199.433v-4s-6.87-.808-8.261-3.367a7.949,7.949,0,0,1-.9-6.241,42.018,42.018,0,0,0,.988-4.939s-4-2.829-3.547-4.4,6.106-5.3,6.106-5.3L609.443,161s9.2,1.257,11.584,6.061c0,0-2.335,6.331,1.976,6.735a5.311,5.311,0,0,1,5.433-1.931c3.367.9,4.67,2.649,4.939,6.016s-3.008,5.927-7.049,5.612c0,0-.988,6.555,1.347,6.869a5.213,5.213,0,0,0,3.727-.808l.763,8.216Z" transform="translate(-330.705 -53.779)" fill="#fff"/>
    <path id="Path_17860" data-name="Path 17860" d="M460.688,221.429a56.016,56.016,0,0,1-.629-11.584c.314-6.465-.4-7.5.269-10.372s3.323-6.825.853-7.453c-2.514-.629-5.747-.359-7.094,2.2-1.3,2.559-2.425,8.486-3.233,9.294a4.094,4.094,0,0,1-3.637,1.122,4.624,4.624,0,0,1-2.6-2.918c-.673-1.661-2.514-6.645-4.894-9.07-2.38-2.38-5.523-4.849-8.037-4.041a3.443,3.443,0,0,0-2.6,2.918s-3.771,0-3.682,3.727a14.048,14.048,0,0,0,2.2,4.041,34.482,34.482,0,0,1,4.22,6.914c1.033,2.424,2.739,7.453,5.792,9.833s5.478,3.727,5.837,7.723c0,0,2.065.359,7.992-.224A30.988,30.988,0,0,0,460.688,221.429Z" transform="translate(-233.989 -68.905)" fill="#fff"/>
    <path id="Path_17861" data-name="Path 17861" d="M502.7,249.9l.9,5.388s5.792-2.11,5.523-3.592C508.9,250.259,502.7,249.9,502.7,249.9Z" transform="translate(-276.584 -102.764)" fill="#666766"/>
    <path id="Path_17862" data-name="Path 17862" d="M454.738,255.9s2.514,2.963,2.469,5.029c0,0-6.241,0-6.645-1.347C450.113,258.19,454.738,255.9,454.738,255.9Z" transform="translate(-247.838 -106.07)" fill="#666766"/>
    <path id="Path_17863" data-name="Path 17863" d="M613.3,250.3l3.682-6.106s21.91-2.469,25.817-1.976l4.894,7.229s-16.927-1.482-21.866-1.078C620.843,248.775,613.3,250.3,613.3,250.3Z" transform="translate(-337.526 -98.496)" fill="#fff"/>
    <path id="Path_17864" data-name="Path 17864" d="M632.084,236.3l-4.984,4.22v-3.637Z" transform="translate(-345.13 -95.27)" fill="#666766"/>
    <path id="Path_17865" data-name="Path 17865" d="M121.8,890.616l10.731-4.894s5.029-1.347,6.331-.629a11.347,11.347,0,0,1,8.261-1.347,12.266,12.266,0,0,0-3.906-3.637c-2.514-1.437-7.318-3.143-10.461-2.29A14.543,14.543,0,0,0,121.8,890.616Z" transform="translate(-66.703 -448.631)"/>
    <path id="Path_17866" data-name="Path 17866" d="M143.3,927.31h10.821s-4.4-3.1-5.118-6.51C149,920.755,145.769,926.547,143.3,927.31Z" transform="translate(-78.549 -472.439)"/>
    <path id="Path_17867" data-name="Path 17867" d="M316.394,757.718l-5.7-3.322h-79.83s-9.294-1.527-13.425,8.351L198.8,819s-5.3,15.49,12.661,16.747l.135-.539s-7.633-3.457-8.172-9.608,5.792-20.474,5.792-20.474l14.368-41.217s5.074-6.016,9.788-6.016Z" transform="translate(-108.731 -380.701)" fill="#fff"/>
    <circle id="Ellipse_945" data-name="Ellipse 945" cx="21.417" cy="21.417" r="21.417" transform="translate(186.516 77.768)" fill="#e51635"/>
    <g id="Layer_2" transform="translate(354.349 281.854)">
      <path id="Path_17868" data-name="Path 17868" d="M857.267,616.782c2.739-2.784,4.4-4.669,2.155-12.8s-11.674-10.282-15.894-13.47-5.882-4.265-4.894-10.91a24.955,24.955,0,0,1,3.771-10.417c3.053-9.968-8.89-15.715-18.9-18.184-10.012-2.425-16.568.09-16.568.09-8.621,3.547-7.9,16.433-7.9,16.433,1.616,7.229.718,11.225.718,11.225-1.437,5.523-6.959,8.576-6.959,8.576-8.845,9.878-1.886,15.041-1.886,15.041.718.808,7.992-2.874,7.992-2.874a24.76,24.76,0,0,1,9.7-1.931h.629l15.176.09C851.071,596.622,857.267,616.782,857.267,616.782Z" transform="translate(-788.305 -549.951)" fill="#fff"/>
      <path id="Path_17869" data-name="Path 17869" d="M826.8,603.447l-.539,6.286,15.176.09.4-14.5s6.106,1.571,6.645-4.625c.584-6.2-6.645-4.894-6.645-4.894s-18.094-10.686-18.723-13.6-3.412,14.592-3.412,14.592-1.841,9.923,1.122,14.368c-.224-.269,2.065,1.616,2.065,1.616Z" transform="translate(-805.296 -562.028)" fill="#fff"/>
    </g>
    <path id="Path_17870" data-name="Path 17870" d="M462.2,197.159v2.649a32.045,32.045,0,0,1,1.931,4.759c.629,2.2,1.212,4.625,4.669,4.535s3.233-7.857,5.253-9.967V196.8s-1.706.988-5.433.9A41.4,41.4,0,0,1,462.2,197.159Z" transform="translate(-254.268 -73.505)"/>
    <rect id="Rectangle_2042" data-name="Rectangle 2042" width="11.494" height="14.547" transform="translate(218.304 249.819)" fill="#e51635"/>
    <rect id="Rectangle_2043" data-name="Rectangle 2043" width="11.404" height="22.135" transform="translate(199.087 242.051)" fill="#0e1116"/>
    <path id="Path_17871" data-name="Path 17871" d="M152.243,631.889s1.527-.988,2.425-.629,1.437.629,1.437.629h1.122s.269-6.151-.763-9.025c-1.078-2.874-2.11-5.074-7.678-5.927a41.626,41.626,0,0,0-8.486-.673c4.265.584,8.98,2.065,10.282,5.882a23.911,23.911,0,0,1,1.347,9.743Z" transform="translate(-76.896 -304.621)" fill="#fff"/>
    <path id="Path_17872" data-name="Path 17872" d="M125.245,684.466c-.269-4.22-3.906-9.788-5.523-11.988s-1.931-4.714-1.347-8.127a11.12,11.12,0,0,1,.449-1.751s-2.469,4.176-.853,10.865c1.482,6.106,8.037,20.384-5.972,25.682a11.665,11.665,0,0,0,6.78-1.212C125.155,694.253,125.514,688.686,125.245,684.466Z" transform="translate(-61.303 -330.168)" fill="#fff"/>
    <path id="Path_17873" data-name="Path 17873" d="M163.865,707.4s-.988.4-2.065.718c.763,1.751,1.347,4.759.225,8.935l2.065.4a4.89,4.89,0,0,0,1.8-4.625A12.314,12.314,0,0,0,163.865,707.4Z" transform="translate(-88.743 -354.853)" fill="#fff"/>
    <path id="Path_17874" data-name="Path 17874" d="M612.193,140.184c.359-2.784,2.649-4.265,4.58-5.029a11.738,11.738,0,0,0-3.951-.4c-3.188.359-7.139,3.951-8.037,8.351s4.939,10.821,4.939,10.821l2.469-7.274c5.163-.135,9.294,3.547,10.731,4.984C621.667,146.829,611.52,144.988,612.193,140.184Z" transform="translate(-332.782 -39.293)" fill="#fff"/>
    <path id="Path_17875" data-name="Path 17875" d="M648.543,134.876c-6.959-1.841-9.743,1.212-9.743,1.212l2.38,1.616s3.367-4.176,11.943-.494A12.3,12.3,0,0,0,648.543,134.876Z" transform="translate(-351.577 -39.059)" fill="#fff"/>
    <path id="Path_17876" data-name="Path 17876" d="M511.3,393.291s3.861-11.9,16.747-11.045c12.841.808,15.759,10.147,16.523,11.4a33.591,33.591,0,0,1-17.2,3.816C517.092,397.108,511.3,393.291,511.3,393.291Z" transform="translate(-281.323 -175.665)" fill="#e51635"/>
    <g id="Group_23678" data-name="Group 23678" transform="translate(179.377 228.088)">
      <g id="Group_23675" data-name="Group 23675">
        <path id="Path_17877" data-name="Path 17877" d="M410.588,466.837H399.094a.5.5,0,0,1-.494-.494V430.694a.5.5,0,0,1,.494-.494h11.494a.5.5,0,0,1,.494.494v11.449a.494.494,0,1,1-.988,0V431.188H399.588v34.662h10.506V455.343a.494.494,0,1,1,.988,0V466.3A.51.51,0,0,1,410.588,466.837Z" transform="translate(-398.6 -430.2)"/>
      </g>
      <g id="Group_23676" data-name="Group 23676" transform="translate(19.217 13.47)">
        <path id="Path_17878" data-name="Path 17878" d="M453.388,483.368H441.894a.5.5,0,0,1-.494-.494v-22.18a.5.5,0,0,1,.494-.494h11.494a.5.5,0,0,1,.494.494v22.18A.531.531,0,0,1,453.388,483.368Zm-11-.988h10.506V461.188H442.388Z" transform="translate(-441.4 -460.2)"/>
      </g>
      <g id="Group_23677" data-name="Group 23677" transform="translate(38.388 21.506)">
        <path id="Path_17879" data-name="Path 17879" d="M496.088,493.231H484.594a.5.5,0,0,1-.494-.494v-8.8a.494.494,0,0,1,.988,0v8.306h10.506V479.088H488.32a.494.494,0,0,1,0-.988h7.767a.5.5,0,0,1,.494.494v14.1A.51.51,0,0,1,496.088,493.231Z" transform="translate(-484.1 -478.1)"/>
      </g>
    </g>
    <g id="Group_23686" data-name="Group 23686" transform="translate(257.186 236.664)">
      <g id="Group_23679" data-name="Group 23679">
        <path id="Path_17880" data-name="Path 17880" d="M631.391,450.288h-59a.494.494,0,1,1,0-.988h59a.494.494,0,0,1,0,.988Z" transform="translate(-571.9 -449.3)"/>
      </g>
      <g id="Group_23680" data-name="Group 23680" transform="translate(34.662 23.168)">
        <path id="Path_17881" data-name="Path 17881" d="M673.929,501.888H649.594a.494.494,0,0,1,0-.988h24.335a.494.494,0,0,1,0,.988Z" transform="translate(-649.1 -500.9)"/>
      </g>
      <g id="Group_23681" data-name="Group 23681" transform="translate(0 23.168)">
        <path id="Path_17882" data-name="Path 17882" d="M602.386,501.888H572.394a.494.494,0,0,1,0-.988h29.947a.5.5,0,0,1,.494.494A.461.461,0,0,1,602.386,501.888Z" transform="translate(-571.9 -500.9)"/>
      </g>
      <g id="Group_23682" data-name="Group 23682" transform="translate(39.87 31.968)">
        <path id="Path_17883" data-name="Path 17883" d="M680.321,521.488H661.194a.494.494,0,1,1,0-.988h19.127a.494.494,0,1,1,0,.988Z" transform="translate(-660.7 -520.5)"/>
      </g>
      <g id="Group_23683" data-name="Group 23683" transform="translate(0 31.968)">
        <path id="Path_17884" data-name="Path 17884" d="M607.056,521.488H572.394a.494.494,0,1,1,0-.988h34.662a.494.494,0,0,1,0,.988Z" transform="translate(-571.9 -520.5)"/>
      </g>
      <g id="Group_23684" data-name="Group 23684" transform="translate(26.939 8.8)">
        <path id="Path_17885" data-name="Path 17885" d="M664.452,469.888H632.394a.494.494,0,0,1,0-.988h32.058a.494.494,0,0,1,0,.988Z" transform="translate(-631.9 -468.9)"/>
      </g>
      <g id="Group_23685" data-name="Group 23685" transform="translate(0 8.8)">
        <path id="Path_17886" data-name="Path 17886" d="M594.215,469.888H572.394a.494.494,0,1,1,0-.988h21.821a.494.494,0,1,1,0,.988Z" transform="translate(-571.9 -468.9)"/>
      </g>
    </g>
    <g id="Group_23691" data-name="Group 23691" transform="translate(174.752 306.122)">
      <g id="Group_23687" data-name="Group 23687" transform="translate(0 0)">
        <path id="Path_17887" data-name="Path 17887" d="M447.791,604.988h-59a.494.494,0,0,1,0-.988h59a.494.494,0,1,1,0,.988Z" transform="translate(-388.3 -604)"/>
      </g>
      <g id="Group_23688" data-name="Group 23688" transform="translate(0 23.168)">
        <path id="Path_17888" data-name="Path 17888" d="M447.791,656.588h-59a.494.494,0,0,1,0-.988h59a.5.5,0,0,1,.494.494A.471.471,0,0,1,447.791,656.588Z" transform="translate(-388.3 -655.6)"/>
      </g>
      <g id="Group_23689" data-name="Group 23689" transform="translate(0 32.013)">
        <path id="Path_17889" data-name="Path 17889" d="M447.791,676.288h-59a.494.494,0,1,1,0-.988h59a.494.494,0,1,1,0,.988Z" transform="translate(-388.3 -675.3)"/>
      </g>
      <g id="Group_23690" data-name="Group 23690" transform="translate(0 8.845)">
        <path id="Path_17890" data-name="Path 17890" d="M447.791,624.688h-59a.494.494,0,0,1,0-.988h59a.494.494,0,1,1,0,.988Z" transform="translate(-388.3 -623.7)"/>
      </g>
    </g>
    <g id="Group_23696" data-name="Group 23696" transform="translate(257.186 306.122)">
      <g id="Group_23692" data-name="Group 23692" transform="translate(0 0)">
        <path id="Path_17891" data-name="Path 17891" d="M607.056,604.988H572.394a.494.494,0,1,1,0-.988h34.662a.494.494,0,0,1,0,.988Z" transform="translate(-571.9 -604)"/>
      </g>
      <g id="Group_23693" data-name="Group 23693" transform="translate(0 23.168)">
        <path id="Path_17892" data-name="Path 17892" d="M614.06,656.588H572.394a.494.494,0,1,1,0-.988h41.621a.5.5,0,0,1,.494.494A.418.418,0,0,1,614.06,656.588Z" transform="translate(-571.9 -655.6)"/>
      </g>
      <g id="Group_23694" data-name="Group 23694" transform="translate(0 32.013)">
        <path id="Path_17893" data-name="Path 17893" d="M618.235,676.288H572.394a.494.494,0,1,1,0-.988h45.841a.494.494,0,1,1,0,.988Z" transform="translate(-571.9 -675.3)"/>
      </g>
      <g id="Group_23695" data-name="Group 23695" transform="translate(0 8.845)">
        <path id="Path_17894" data-name="Path 17894" d="M609.615,624.688H572.394a.494.494,0,1,1,0-.988h37.221a.494.494,0,1,1,0,.988Z" transform="translate(-571.9 -623.7)"/>
      </g>
    </g>
    <g id="Group_23697" data-name="Group 23697" transform="translate(429.013 437.001)">
      <path id="Path_17895" data-name="Path 17895" d="M955.094,912.741a.5.5,0,0,1-.494-.494l.045-.629a130.309,130.309,0,0,0,0-14.682l-.045-.943a.472.472,0,1,1,.943-.045l.045.943a131.945,131.945,0,0,1,0,14.772l-.045.629A.483.483,0,0,1,955.094,912.741Z" transform="translate(-954.6 -895.5)"/>
    </g>
    <g id="Group_23698" data-name="Group 23698" transform="translate(398.161 361.116)">
      <path id="Path_17896" data-name="Path 17896" d="M899.586,769.1a.494.494,0,0,1-.449-.269c-8.037-15.939-13.2-41.486-13.245-41.756a.485.485,0,0,1,.943-.224c.045.269,5.208,25.682,13.155,41.531a.429.429,0,0,1-.224.629C899.72,769.1,899.675,769.1,899.586,769.1Z" transform="translate(-885.885 -726.485)"/>
    </g>
    <g id="Group_23699" data-name="Group 23699" transform="translate(347.432 430.132)">
      <path id="Path_17897" data-name="Path 17897" d="M773.394,905.388a.5.5,0,0,1-.494-.494c0-.09.18-11.225.224-24.2a.494.494,0,1,1,.988,0c-.045,13.021-.225,24.111-.225,24.245A.461.461,0,0,1,773.394,905.388Z" transform="translate(-772.9 -880.2)"/>
    </g>
    <g id="Group_23700" data-name="Group 23700" transform="translate(349.273 348.389)">
      <path id="Path_17898" data-name="Path 17898" d="M777.494,719.717a.536.536,0,0,1-.494-.539,106.7,106.7,0,0,1,4.714-20.7.5.5,0,0,1,.943.314,109.943,109.943,0,0,0-4.669,20.519A.526.526,0,0,1,777.494,719.717Z" transform="translate(-777 -698.138)"/>
    </g>
    <g id="Group_23701" data-name="Group 23701" transform="translate(367.649 291.431)">
      <path id="Path_17899" data-name="Path 17899" d="M828.736,603.616c-.988,0-1.931,0-2.694-.045a11.6,11.6,0,0,1-4.176-.853c-1.931-.9-3.1-2.559-3.592-5.118-.718-3.861-.18-7.767.359-11.539l.09-.494c.314-2.335,2.739-13.694,2.874-14.008a.472.472,0,1,1,.853.4s-2.424,11.045-2.828,13.739l-.09.494c-.539,3.727-1.078,7.543-.4,11.225a5.585,5.585,0,0,0,3.053,4.4,9.9,9.9,0,0,0,3.816.763,46.943,46.943,0,0,0,5.612-.045.436.436,0,0,1,.494.449.461.461,0,0,1-.449.494A19.589,19.589,0,0,1,828.736,603.616Z" transform="translate(-817.929 -571.28)"/>
    </g>
    <g id="Group_23702" data-name="Group 23702" transform="translate(370.492 290.344)">
      <path id="Path_17900" data-name="Path 17900" d="M844.661,584.682a.4.4,0,0,1-.224-.045c-16.253-8.665-19.98-14.817-20.115-15.041a.493.493,0,1,1,.853-.494c.045.045,3.816,6.2,19.755,14.682a.5.5,0,0,1,.18.673A.714.714,0,0,1,844.661,584.682Z" transform="translate(-824.259 -568.859)"/>
    </g>
    <path id="Path_17901" data-name="Path 17901" d="M849.295,597.27c-.359-.09-.673,0-.943,1.392-.314,1.527.045,1.841.4,1.886s.763-.4.9-1.482C849.744,597.943,849.789,597.4,849.295,597.27Z" transform="translate(-466.977 -294.156)"/>
    <path id="Path_17902" data-name="Path 17902" d="M826.5,593.65c-.359-.135-.673,0-.988,1.347-.359,1.527,0,1.841.314,1.886s.763-.359.943-1.482C826.908,594.323,827,593.829,826.5,593.65Z" transform="translate(-454.377 -292.152)"/>
    <g id="Group_23703" data-name="Group 23703" transform="translate(369.985 297.07)">
      <path id="Path_17903" data-name="Path 17903" d="M823.611,585.3a.536.536,0,0,1-.4-.225.5.5,0,0,1,.135-.674,3.691,3.691,0,0,1,3.771-.135.464.464,0,0,1,.269.629.479.479,0,0,1-.629.269,2.907,2.907,0,0,0-2.873.045A.33.33,0,0,1,823.611,585.3Z" transform="translate(-823.131 -583.839)"/>
    </g>
    <g id="Group_23704" data-name="Group 23704" transform="translate(389.247 304.892)">
      <path id="Path_17904" data-name="Path 17904" d="M869.385,612.324h-.359a5.228,5.228,0,0,1-2.784-.988.486.486,0,0,1,.539-.808,4.285,4.285,0,0,0,2.29.808,4.751,4.751,0,0,0,3.322-1.122,4.488,4.488,0,0,0,1.527-3.143,4.551,4.551,0,0,0-1.122-3.323,4.575,4.575,0,0,0-5.747-.9.493.493,0,1,1-.494-.853,5.429,5.429,0,0,1,3.143-.718,5.492,5.492,0,0,1,3.816,1.886,5.431,5.431,0,0,1,1.347,4,5.491,5.491,0,0,1-1.886,3.816A5.254,5.254,0,0,1,869.385,612.324Z" transform="translate(-866.031 -601.262)"/>
    </g>
    <g id="Group_23705" data-name="Group 23705" transform="translate(389.805 307.316)">
      <path id="Path_17905" data-name="Path 17905" d="M870.832,612.963a.509.509,0,0,1-.359-.135l-3.053-3.053a.453.453,0,0,1-.135-.4.458.458,0,0,1,.225-.359l4.086-2.29a.493.493,0,1,1,.494.853l-3.547,1.976,2.6,2.6a.488.488,0,0,1,0,.673A.408.408,0,0,1,870.832,612.963Z" transform="translate(-867.273 -606.659)"/>
    </g>
    <g id="Group_23706" data-name="Group 23706" transform="translate(372.924 322.773)">
      <path id="Path_17906" data-name="Path 17906" d="M833.773,661.387a9.688,9.688,0,0,1-1.571-.135,2.713,2.713,0,0,1-1.886-1.392c-1.841-3.233.853-11.135,1.122-11.988l.494-6.331a.474.474,0,0,1,.539-.449.5.5,0,0,1,.449.539l-.494,6.376a.165.165,0,0,1-.045.135c-.045.09-2.918,8.261-1.212,11.225a1.73,1.73,0,0,0,1.257.9c8.351,1.616,14.233-12.392,14.278-12.527a.5.5,0,0,1,.629-.269.479.479,0,0,1,.269.629C847.332,648.726,842.034,661.387,833.773,661.387Z" transform="translate(-829.677 -641.087)"/>
    </g>
    <g id="Group_23707" data-name="Group 23707" transform="translate(374.966 312.13)">
      <path id="Path_17907" data-name="Path 17907" d="M836.459,621.206a4.62,4.62,0,0,1-1.931-.449.484.484,0,0,1,.359-.9,3.063,3.063,0,0,0,2.649.09,3.511,3.511,0,0,0,1.571-2.2.485.485,0,0,1,.943.224,4.526,4.526,0,0,1-2.065,2.829A2.6,2.6,0,0,1,836.459,621.206Z" transform="translate(-834.225 -617.381)"/>
    </g>
    <g id="Group_23708" data-name="Group 23708" transform="translate(353.926 281.699)">
      <path id="Path_17908" data-name="Path 17908" d="M856.7,617.264a.472.472,0,0,1-.4-.224.494.494,0,0,1,.135-.674c3.457-2.29,3.457-8.845,1.931-12.572a19.372,19.372,0,0,0-6.555-7.947,49.74,49.74,0,0,0-7.408-4.265l-.808-.4c-1.931-.988-4.625-2.559-5.7-5.163-1.392-3.5-.449-6.87.584-9.384.18-.494.4-.988.629-1.527,1.212-2.963,2.6-6.331,2.469-9.474-.135-2.739-1.482-6.286-3.861-7.812a43.267,43.267,0,0,0-8.4-4.355c-2.02-.718-19.935-6.87-26.625.943-2.2,2.559-3.412,6.2-3.727,11.045a22.52,22.52,0,0,0,.494,5.208,22.288,22.288,0,0,1,.494,5.208,13.922,13.922,0,0,1-3.592,8.755,18.076,18.076,0,0,1-2.469,2.11,18.956,18.956,0,0,0-2.065,1.706,11.989,11.989,0,0,0-2.874,4.58c-.988,2.874-1.078,6.825,1.527,9.339a.476.476,0,0,1-.673.674c-2.918-2.829-2.829-7.184-1.751-10.327a12.966,12.966,0,0,1,3.1-4.939,26.871,26.871,0,0,1,2.155-1.8,16.916,16.916,0,0,0,2.335-1.976,12.856,12.856,0,0,0,3.367-8.127,23.171,23.171,0,0,0-.494-4.984,21.867,21.867,0,0,1-.494-5.433c.314-5.118,1.616-8.89,3.951-11.629,7.094-8.261,25.592-1.976,27.657-1.212a45.118,45.118,0,0,1,8.576,4.445c2.784,1.751,4.176,5.7,4.31,8.576.18,3.367-1.257,6.825-2.559,9.922-.224.494-.4,1.033-.629,1.527-.988,2.514-1.841,5.522-.584,8.665.943,2.335,3.457,3.772,5.253,4.669l.808.4a45.551,45.551,0,0,1,7.543,4.355,19.924,19.924,0,0,1,6.869,8.351c1.616,3.951,1.706,11.09-2.335,13.739C856.883,617.219,856.793,617.264,856.7,617.264Z" transform="translate(-787.363 -549.604)"/>
    </g>
    <g id="Group_23709" data-name="Group 23709" transform="translate(389.906 315.146)">
      <path id="Path_17909" data-name="Path 17909" d="M867.994,639.1a.5.5,0,0,1-.494-.494l.314-14.008a.494.494,0,1,1,.988,0l-.314,14.008A.57.57,0,0,1,867.994,639.1Z" transform="translate(-867.5 -624.1)"/>
    </g>
    <g id="Group_23710" data-name="Group 23710" transform="translate(370.867 329.2)">
      <path id="Path_17910" data-name="Path 17910" d="M876.911,765.222c-16.972,0-39.376-17.151-51.678-30.486a.41.41,0,0,1-.09-.494,59.408,59.408,0,0,1,7.273-13.155,82.263,82.263,0,0,1,8.486-9.878.475.475,0,0,1,.584-.045c.18.135,20.384,12.976,31.339,23.662a.476.476,0,0,1-.673.673c-10.1-9.878-28.2-21.641-30.845-23.347a90.387,90.387,0,0,0-8.082,9.518,60.514,60.514,0,0,0-7.049,12.661c18.453,19.935,45.8,36.278,60.3,27.433,23.707-14.412,4.894-54.866-5.253-76.642l-.673-1.482c-.4-.853-.808-1.886-1.257-3.053-2.29-5.747-5.747-14.5-13.514-19.217-5.074-3.1-10.282-4.984-20.564-4.984a.494.494,0,1,1,0-.988c10.506,0,15.849,1.976,21.057,5.163,8.037,4.894,11.718,14.188,13.919,19.711.494,1.167.9,2.2,1.257,3.008l.673,1.482c10.237,22.045,29.319,63.038,4.894,77.854A19.376,19.376,0,0,1,876.911,765.222Z" transform="translate(-825.096 -655.4)"/>
    </g>
    <g id="Group_23711" data-name="Group 23711" transform="translate(320.313 292.787)">
      <path id="Path_17911" data-name="Path 17911" d="M741.415,617.627a22.086,22.086,0,0,1-15.984-6.241,37.465,37.465,0,0,1-7.857-12.257,68.2,68.2,0,0,1-5.073-24.335.494.494,0,1,1,.988,0,67.372,67.372,0,0,0,4.984,23.976,36.8,36.8,0,0,0,7.678,11.943c8.306,8.306,20.923,6.735,29.992,2.514a27.66,27.66,0,0,1,11.27-2.469.494.494,0,1,1,0,.988,25.886,25.886,0,0,0-10.865,2.38A37.777,37.777,0,0,1,741.415,617.627Z" transform="translate(-712.5 -574.3)"/>
    </g>
    <g id="Group_23712" data-name="Group 23712" transform="translate(290.815 293.544)">
      <path id="Path_17912" data-name="Path 17912" d="M701.307,653.8c-9.923-.718-16.837-5.837-24.155-11.269-16.7-12.392-28.062-37.041-30.351-66a.533.533,0,0,1,.449-.539.5.5,0,0,1,.539.449c2.245,28.645,13.47,53.07,29.947,65.283,7.184,5.343,14.008,10.372,23.617,11.09a.5.5,0,0,1,.449.539A.571.571,0,0,1,701.307,653.8Z" transform="translate(-646.8 -575.987)"/>
    </g>
    <g id="Group_23713" data-name="Group 23713" transform="translate(371.35 300.727)">
      <path id="Path_17913" data-name="Path 17913" d="M827.037,602.947a.525.525,0,0,1-.494-.359c-.269-1.122-.763-3.861.18-4.58.584-.449,1.8-.045,2.739.4l1.078-6.016a.485.485,0,0,1,.584-.4.507.507,0,0,1,.4.584l-1.212,6.645a.7.7,0,0,1-.269.359.767.767,0,0,1-.449,0,5.528,5.528,0,0,0-2.335-.763c-.269.224-.18,1.976.18,3.592a.478.478,0,0,1-.359.584C827.127,602.947,827.082,602.947,827.037,602.947Z" transform="translate(-826.171 -591.985)"/>
    </g>
    <g id="Group_23714" data-name="Group 23714" transform="translate(297.683 272.54)">
      <path id="Path_17914" data-name="Path 17914" d="M679.833,552.64a.471.471,0,0,1-.494-.494c.269-4.625.359-17.2-2.514-19.576-3.457-2.829-5.074-3.5-9.608-.045-.314.225-.629.449-.988.718-1.437,1.033-3.053,2.155-3.143,3.592-.045.943.629,2.02,1.976,3.143,2.11,1.8,5.074.584,9.563-3.861a.476.476,0,0,1,.673.673c-3.1,3.008-7.543,6.735-10.865,3.906-1.616-1.392-2.38-2.649-2.335-3.951.09-1.886,2.021-3.233,3.547-4.31l.943-.674c4.759-3.637,6.87-3.188,10.776.045,3.861,3.143,2.918,19.666,2.874,20.384C680.327,552.46,680.1,552.64,679.833,552.64Z" transform="translate(-662.096 -529.205)"/>
    </g>
    <g id="Group_23715" data-name="Group 23715" transform="translate(338.81 368.71)">
      <path id="Path_17915" data-name="Path 17915" d="M766.18,806.258A12.111,12.111,0,0,1,754.1,794.315l-.4-38.388a12.111,12.111,0,0,1,11.943-12.212l49.7-.314a.494.494,0,1,1,0,.988l-49.7.314a11.105,11.105,0,0,0-11,11.27l.4,38.388a11.192,11.192,0,0,0,11.27,11l47.413-.539a.494.494,0,0,1,0,.988l-47.413.539C766.27,806.258,766.225,806.258,766.18,806.258Z" transform="translate(-753.697 -743.4)"/>
    </g>
    <g id="Group_23722" data-name="Group 23722" transform="translate(350.842 372.154)">
      <g id="Group_23721" data-name="Group 23721">
        <g id="Group_23716" data-name="Group 23716" transform="translate(0 5.907)">
          <path id="Path_17916" data-name="Path 17916" d="M802.452,791.379c-7-1.078-20.7-14.592-21.776-18.364a3.566,3.566,0,0,1,1.482-4.176,2.836,2.836,0,0,1,.494-3.547,3.84,3.84,0,0,1,1.257-.9,2.943,2.943,0,0,1,2.6.359.5.5,0,0,1,.18.673.507.507,0,0,1-.674.18,1.852,1.852,0,0,0-1.751-.269,2.965,2.965,0,0,0-.9.629,1.837,1.837,0,0,0-.09,2.694.458.458,0,0,1,.09.4.7.7,0,0,1-.269.359,2.724,2.724,0,0,0-1.437,3.323c1.033,3.547,14.457,16.657,20.923,17.69a.464.464,0,0,1,.4.539A.629.629,0,0,1,802.452,791.379Z" transform="translate(-780.494 -764.228)"/>
        </g>
        <g id="Group_23717" data-name="Group 23717" transform="translate(11.187 11.827)">
          <path id="Path_17917" data-name="Path 17917" d="M810.345,781.851a.637.637,0,0,1-.269-.09,53.732,53.732,0,0,1-4.49-3.5.477.477,0,1,1,.629-.718,52.774,52.774,0,0,0,4.4,3.457.458.458,0,0,1,.135.673A.569.569,0,0,1,810.345,781.851Z" transform="translate(-805.411 -777.411)"/>
        </g>
        <g id="Group_23718" data-name="Group 23718" transform="translate(4.223 1.436)">
          <path id="Path_17918" data-name="Path 17918" d="M797.353,765.642a.485.485,0,0,1-.314-.135c-1.661-1.392-3.233-2.784-3.951-3.5l-.584-.584c-1.078-.988-2.6-2.38-2.6-3.951a2.963,2.963,0,0,1,1.078-2.2c2.469-2.29,4.714-.135,6.2,1.3l1.167,1.167c1.527,1.527,3.861,3.861,5.253,4.939a.48.48,0,0,1-.584.763,60.583,60.583,0,0,1-5.343-5.029l-1.167-1.167c-2.02-1.931-3.323-2.694-4.849-1.3a2.072,2.072,0,0,0-.808,1.482c0,1.167,1.3,2.38,2.29,3.233.225.224.449.4.629.584.718.718,2.29,2.11,3.906,3.457a.452.452,0,0,1,.045.673A.421.421,0,0,1,797.353,765.642Z" transform="translate(-789.9 -754.268)"/>
        </g>
        <g id="Group_23719" data-name="Group 23719" transform="translate(17.133)">
          <path id="Path_17919" data-name="Path 17919" d="M835.825,766.26a.548.548,0,0,1-.4-.18c-1.3-1.706-2.335-4.714-3.188-7.094-.359-1.078-.718-2.02-.988-2.694a10.344,10.344,0,0,1-.449-1.257c-.673-2.021-1.257-3.233-3.233-2.963a1.183,1.183,0,0,0-.853.629c-.674,1.078-.539,3.412.314,5.792,1.212,3.367,1.482,5.478-.584,6.465-1.8.853-4.849-1.167-7.588-3.278a.48.48,0,1,1,.584-.763c1.257.943,5.074,3.906,6.6,3.143,1.078-.494,1.437-1.527.09-5.253-.943-2.694-1.033-5.253-.224-6.6a2.186,2.186,0,0,1,1.527-1.078c2.918-.449,3.682,1.8,4.31,3.592a9,9,0,0,0,.449,1.167c.314.718.629,1.661,1.033,2.739a28.194,28.194,0,0,0,3.053,6.825.455.455,0,0,1-.09.673A.6.6,0,0,1,835.825,766.26Z" transform="translate(-818.653 -751.071)"/>
        </g>
        <g id="Group_23720" data-name="Group 23720" transform="translate(1.662 10.248)">
          <path id="Path_17920" data-name="Path 17920" d="M795.377,784.539a.832.832,0,0,1-.314-.09s-2.514-2.021-5.343-4.355a46.334,46.334,0,0,1-5.074-5.208.4.4,0,0,1-.359-.225.433.433,0,0,1,.09-.629.341.341,0,0,1,.18-.09.716.716,0,0,1,.673.09,47.5,47.5,0,0,0,5.074,5.3c2.829,2.29,5.343,4.355,5.343,4.355a.5.5,0,0,1,.09.673A.554.554,0,0,1,795.377,784.539Z" transform="translate(-784.195 -773.896)"/>
        </g>
      </g>
    </g>
    <g id="Group_23723" data-name="Group 23723" transform="translate(290.815 292.612)">
      <path id="Path_17921" data-name="Path 17921" d="M649.135,577c-1.571-.224-2.335-.808-2.335-1.661a2.2,2.2,0,0,1,.718-1.3.477.477,0,1,1,.629.718,1.824,1.824,0,0,0-.449.629c0,.4.988.629,1.437.673a.464.464,0,0,1,.4.539C649.584,576.87,649.359,577,649.135,577Z" transform="translate(-646.8 -573.911)"/>
    </g>
    <g id="Group_23724" data-name="Group 23724" transform="translate(311.508 290.856)">
      <path id="Path_17922" data-name="Path 17922" d="M693.387,575.747a.523.523,0,0,1-.494-.449.5.5,0,0,1,.449-.539l2.469-.269c4.8-.763,5.882-1.8,5.882-2.065,0-.314-.494-.673-1.347-.943a32.652,32.652,0,0,0-3.278-.539c-.314,0-.539-.18-.539-.449a.462.462,0,0,1,.449-.494c.718,0,3.322.494,3.592.539.539.18,2.02.674,2.065,1.886.045,1.347-2.2,2.38-6.69,3.053l-2.514.269Z" transform="translate(-692.887 -570)"/>
    </g>
    <g id="Group_23726" data-name="Group 23726" transform="translate(261.092 364.086)">
      <g id="Group_23725" data-name="Group 23725">
        <path id="Path_17923" data-name="Path 17923" d="M604.351,757.345H581.094a.494.494,0,0,1,0-.988h22.764V733.594a.494.494,0,0,1,.988,0v23.258A.5.5,0,0,1,604.351,757.345Z" transform="translate(-580.6 -733.1)"/>
      </g>
    </g>
    <g id="Group_23727" data-name="Group 23727" transform="translate(30.118 310.89)">
      <path id="Path_17924" data-name="Path 17924" d="M68.6,673.742a.336.336,0,0,1-.224-.045c-1.751-1.033-2.514-3.322-2.11-6.51s1.661-5.478,3.771-6.825a9.683,9.683,0,0,1,1.527-.808,29.643,29.643,0,0,1,2.829-.9,11.461,11.461,0,0,0,4.939-2.155,5.146,5.146,0,0,0,1.347-4.625,212.834,212.834,0,0,0-4-22.674v-.135a11.737,11.737,0,0,1,5.478-9.519,14.908,14.908,0,0,1,9.114-2.2,10.062,10.062,0,0,1,2.784-1.527c5.253-2.2,11.853-.9,15.355.09a10.233,10.233,0,0,1,4.939,2.694c1.751,1.931,2.245,4.669,2.514,7.318.494,4.8.18,5.208,0,5.388a.8.8,0,0,1-.449.18H115.3v-.988h.808a23,23,0,0,0-.224-4.4c-.269-2.6-.718-5.118-2.29-6.869a9.659,9.659,0,0,0-4.49-2.425c-3.367-.943-9.743-2.2-14.727-.135a11.249,11.249,0,0,0-2.694,1.527.54.54,0,0,1-.359.09,13.818,13.818,0,0,0-8.665,2.02,10.845,10.845,0,0,0-5.074,8.71,224.96,224.96,0,0,1,4,22.719,6.153,6.153,0,0,1-1.661,5.478,11.98,11.98,0,0,1-5.343,2.38,24.413,24.413,0,0,0-2.739.853,8.047,8.047,0,0,0-1.392.718c-1.841,1.212-2.963,3.233-3.322,6.151-.18,1.616-.269,4.445,1.616,5.567a.507.507,0,0,1,.18.674C68.919,673.7,68.784,673.742,68.6,673.742Z" transform="translate(-66.164 -614.62)"/>
    </g>
    <g id="Group_23728" data-name="Group 23728" transform="translate(66.951 326.685)">
      <path id="Path_17925" data-name="Path 17925" d="M156.6,650.878c-3.278,0-8.4-.09-8.4-.09V649.8s5.074.045,8.351.09a.5.5,0,0,1,.494.494A.436.436,0,0,1,156.6,650.878Z" transform="translate(-148.2 -649.8)"/>
    </g>
    <g id="Group_23729" data-name="Group 23729" transform="translate(38.386 318.148)">
      <path id="Path_17926" data-name="Path 17926" d="M98.1,682.2c-6.376,0-12.841-3.053-13.245-3.233a.472.472,0,0,1,.4-.853c.135.045,12.168,5.747,19.217,1.616,3.1-1.8,4.8-5.253,5.118-10.282.359-5.747-2.784-10.1-4.625-12.751-.224-.314-.449-.628-.629-.9-3.592-5.253-1.3-10.6.359-14.547.269-.584.494-1.167.718-1.706,1.437-3.727-1.527-7.947-1.571-7.992a.481.481,0,0,1,.673-.674,8.194,8.194,0,0,1,3.233,8.4h2.155a.494.494,0,1,1,0,.988l-2.739-.045a.669.669,0,0,1-.4-.18.522.522,0,0,1-.09-.449,7.68,7.68,0,0,0-.4-5.208,8.173,8.173,0,0,1,0,5.478c-.224.539-.449,1.122-.718,1.706-1.661,3.906-3.727,8.8-.494,13.6.18.269.4.584.629.9,1.931,2.739,5.208,7.273,4.8,13.38-.314,5.343-2.2,9.069-5.567,11.045A12.663,12.663,0,0,1,98.1,682.2Z" transform="translate(-84.58 -630.786)"/>
    </g>
    <g id="Group_23730" data-name="Group 23730" transform="translate(15.427 428.695)">
      <path id="Path_17927" data-name="Path 17927" d="M33.919,893.837a.408.408,0,0,1-.359-.18.491.491,0,0,1,.045-.673C49.319,879.245,84.43,877,84.789,877a.438.438,0,0,1,.494.449.461.461,0,0,1-.449.494c-.359,0-35.111,2.245-50.6,15.759A.408.408,0,0,1,33.919,893.837Z" transform="translate(-33.445 -877)"/>
    </g>
    <g id="Group_23731" data-name="Group 23731" transform="translate(0.746 365.371)">
      <path id="Path_17928" data-name="Path 17928" d="M4.676,825.642a.494.494,0,0,1-.449-.269c-10.282-19.845,4.49-53.07,14.817-69.593A102.737,102.737,0,0,1,27.4,743.971c2.963-3.457,7-5.747,11.225-7.947a.5.5,0,0,1,.449.9c-4.31,2.245-8.127,4.4-10.955,7.723a95.755,95.755,0,0,0-8.261,11.719c-9.474,15.176-24.829,49.074-14.727,68.56a.485.485,0,0,1-.224.674A.4.4,0,0,1,4.676,825.642Z" transform="translate(-0.746 -735.962)"/>
    </g>
    <g id="Group_23732" data-name="Group 23732" transform="translate(70.138 361.123)">
      <path id="Path_17929" data-name="Path 17929" d="M189.917,758.558a.54.54,0,0,1-.449-.314c-.18-.4-.359-.853-.539-1.257-7.408-17.061-16.792-26.221-29.588-28.825-.988-.18-4.041-.718-4.041-.718l.18-.943s3.053.539,4.041.718c12.931,2.649,22.853,12.257,30.262,29.409.18.4.359.853.539,1.257a.464.464,0,0,1-.269.629C190.052,758.558,190.007,758.558,189.917,758.558Z" transform="translate(-155.3 -726.5)"/>
    </g>
    <g id="Group_23733" data-name="Group 23733" transform="translate(63.515 340.873)">
      <path id="Path_17930" data-name="Path 17930" d="M148.024,694.376c-.449,0-.9,0-1.437-.045a56.433,56.433,0,0,1-5.657-.763.449.449,0,0,1-.359-.584.478.478,0,0,1,.584-.359c1.616.314,3.951.629,5.567.763a10.529,10.529,0,0,0,3.906-.269,5.529,5.529,0,0,0,3.592-4,23.723,23.723,0,0,0,1.078-7.229.494.494,0,0,1,.988,0,24.316,24.316,0,0,1-1.122,7.5,6.579,6.579,0,0,1-4.22,4.625A11.807,11.807,0,0,1,148.024,694.376Z" transform="translate(-140.548 -681.4)"/>
    </g>
    <g id="Group_23734" data-name="Group 23734" transform="translate(59.791 352.996)">
      <path id="Path_17931" data-name="Path 17931" d="M140.356,728.47c-2.694,0-7.049-5.343-7.992-6.465a.48.48,0,0,1,.763-.584c2.245,2.874,6.106,6.6,7.5,6.061,1.616-.629,1.841-6.735,1.616-10.417l.449-8.216a.461.461,0,0,1,.494-.449.436.436,0,0,1,.449.494l-.449,8.127c.135,1.661.539,10.237-2.245,11.315A1.123,1.123,0,0,1,140.356,728.47Z" transform="translate(-132.253 -708.4)"/>
    </g>
    <g id="Group_23735" data-name="Group 23735" transform="translate(74.224 352.098)">
      <path id="Path_17932" data-name="Path 17932" d="M166.016,717a.638.638,0,0,1-.269-.09.494.494,0,0,1-.135-.674c3.233-4.535-1.033-9.025-1.078-9.025a.476.476,0,0,1,.673-.673c.045.045,4.849,5.118,1.167,10.282A.466.466,0,0,1,166.016,717Z" transform="translate(-164.4 -706.4)"/>
    </g>
    <g id="Group_23736" data-name="Group 23736" transform="translate(34.876 389.336)">
      <path id="Path_17933" data-name="Path 17933" d="M77.453,835.477a.489.489,0,0,1-.494-.449c-1.661-16.972,7.767-45.078,7.857-45.348a.5.5,0,0,1,.943.314c-.09.269-9.474,28.151-7.812,44.943a.5.5,0,0,1-.449.539Z" transform="translate(-76.763 -789.338)"/>
    </g>
    <g id="Group_23737" data-name="Group 23737" transform="translate(66.9 341.861)">
      <path id="Path_17934" data-name="Path 17934" d="M151.775,687.776a3.216,3.216,0,0,1-1.976-.584,4.866,4.866,0,0,1-1.706-3.053.5.5,0,0,1,.449-.539.533.533,0,0,1,.539.449,3.668,3.668,0,0,0,1.3,2.38,3.069,3.069,0,0,0,2.649.224.478.478,0,0,1,.584.359.449.449,0,0,1-.359.584A6.052,6.052,0,0,1,151.775,687.776Z" transform="translate(-148.087 -683.6)"/>
    </g>
    <g id="Group_23738" data-name="Group 23738" transform="translate(154.053 405.757)">
      <path id="Path_17935" data-name="Path 17935" d="M347,843.1a4.461,4.461,0,0,1-2.29-.584c-3.008-1.706-3.367-6.735-.808-11.135s7.049-6.6,10.057-4.894a5.514,5.514,0,0,1,2.514,4.669,12.728,12.728,0,0,1-6.465,11.225A7.728,7.728,0,0,1,347,843.1Zm-2.245-11.27c-2.29,3.951-2.11,8.351.449,9.833a4.577,4.577,0,0,0,4.355-.18,11.815,11.815,0,0,0,5.927-10.327,4.439,4.439,0,0,0-2.02-3.861c-2.514-1.482-6.421.539-8.71,4.535Z" transform="translate(-342.199 -825.912)"/>
    </g>
    <g id="Group_23739" data-name="Group 23739" transform="translate(88.736 373.155)">
      <path id="Path_17936" data-name="Path 17936" d="M209.373,835.6a12.667,12.667,0,0,1-11.988-16.657l18.857-56.976a12.589,12.589,0,0,1,11.988-8.665h79.605a11.514,11.514,0,0,1,2.784.314.478.478,0,0,1,.359.584.449.449,0,0,1-.584.359,12.494,12.494,0,0,0-2.6-.269h-79.56a11.692,11.692,0,0,0-11.09,7.992l-18.857,56.976a11.684,11.684,0,0,0,11.09,15.355.5.5,0,0,1,.494.494A.531.531,0,0,1,209.373,835.6Z" transform="translate(-196.721 -753.3)"/>
    </g>
    <g id="Group_23740" data-name="Group 23740" transform="translate(94.092 376.702)">
      <path id="Path_17937" data-name="Path 17937" d="M300.939,839.952H221.334a12.848,12.848,0,0,1-10.461-5.3,11.587,11.587,0,0,1-1.571-10.641l18.857-54.507a12.566,12.566,0,0,1,11.988-8.306h79.605a12.848,12.848,0,0,1,10.461,5.3,11.587,11.587,0,0,1,1.571,10.641l-18.857,54.507A12.626,12.626,0,0,1,300.939,839.952Zm-60.748-77.809a11.651,11.651,0,0,0-11.09,7.678l-18.857,54.507a10.626,10.626,0,0,0,1.437,9.788,11.827,11.827,0,0,0,9.653,4.894h79.605a11.612,11.612,0,0,0,11.09-7.633l18.857-54.507a10.626,10.626,0,0,0-1.437-9.788,11.889,11.889,0,0,0-9.653-4.894H240.191Z" transform="translate(-208.649 -761.2)"/>
    </g>
    <g id="Group_23741" data-name="Group 23741" transform="translate(54.977 436.046)">
      <path id="Path_17938" data-name="Path 17938" d="M144.6,912.781c-6.825,0-8.531-8.037-8.531-9.159a.494.494,0,0,1,.988,0c0,.09,1.078,8.172,7.543,8.172,1.482,0,2.469-.359,2.874-.988.853-1.437-.629-4.355-1.751-6.465-.269-.539-.539-.988-.718-1.437-.224-.449-.449-1.033-.673-1.616-1.3-3.323-3.053-7.9-9.384-6.78-.045,0-7.992,2.245-12.661,5.523a.486.486,0,0,1-.539-.808c4.8-3.367,12.661-5.567,13.021-5.657,7.139-1.257,9.159,3.951,10.506,7.408.225.584.4,1.078.629,1.526.18.4.449.9.718,1.392,1.257,2.469,2.874,5.523,1.706,7.408C147.693,912.287,146.436,912.781,144.6,912.781Z" transform="translate(-121.531 -893.373)"/>
    </g>
    <g id="Group_23742" data-name="Group 23742" transform="translate(71.692 434.239)">
      <path id="Path_17939" data-name="Path 17939" d="M170.855,910.563a.489.489,0,0,1-.494-.449.461.461,0,0,1,.449-.494c2.649-.18,4.31-.9,4.8-2.11a3.223,3.223,0,0,0-.853-3.143,22.153,22.153,0,0,1-2.469-5.074c-1.078-2.829-2.335-5.972-3.951-7.768-2.694-2.918-8.8.494-8.845.539a.493.493,0,0,1-.494-.853c.269-.18,6.869-3.861,10.057-.359,1.751,1.886,3.008,5.163,4.176,8.082a20.061,20.061,0,0,0,2.29,4.8,4.1,4.1,0,0,1,1.033,4.131c-.494,1.078-1.841,2.424-5.7,2.694Z" transform="translate(-158.759 -889.347)"/>
    </g>
    <g id="Group_23743" data-name="Group 23743" transform="translate(59.491 447.373)">
      <path id="Path_17940" data-name="Path 17940" d="M133.028,926.682a7.606,7.606,0,0,1-1.033-.045.476.476,0,1,1,.135-.943c.449.045.9.045,1.392.045,7.812-.4,8.4-6.42,8.4-6.69a.5.5,0,0,1,.988.09c0,.09-.629,7.139-9.339,7.588A2.374,2.374,0,0,0,133.028,926.682Z" transform="translate(-131.585 -918.6)"/>
    </g>
    <g id="Group_23744" data-name="Group 23744" transform="translate(54.598 428.592)">
      <path id="Path_17941" data-name="Path 17941" d="M127.294,903.633a.638.638,0,0,1-.269-.09,14.593,14.593,0,0,1-6.151-14.457,14.776,14.776,0,0,1,5.567-9.474,13.548,13.548,0,0,1,10.282-2.694c2.425.4,6.151,1.437,10.372,5.927a.476.476,0,1,1-.673.673c-4.041-4.31-7.543-5.3-9.833-5.657a12.248,12.248,0,0,0-9.519,2.514,13.974,13.974,0,0,0-5.208,8.89,13.579,13.579,0,0,0,5.7,13.514.494.494,0,0,1,.135.673A.569.569,0,0,1,127.294,903.633Z" transform="translate(-120.688 -876.771)"/>
    </g>
    <g id="Group_23745" data-name="Group 23745" transform="translate(80.669 433.276)">
      <path id="Path_17942" data-name="Path 17942" d="M188.158,892.275a.437.437,0,0,1-.449-.359c0-.045-.763-2.739-2.649-3.5-2.424-.988-5.478,1.437-5.523,1.482a.48.48,0,1,1-.584-.763c.135-.135,3.547-2.829,6.465-1.616,2.38.988,3.188,4.041,3.233,4.176a.449.449,0,0,1-.359.584Z" transform="translate(-178.753 -887.203)"/>
    </g>
    <g id="Group_23746" data-name="Group 23746" transform="translate(88.391 452.246)">
      <path id="Path_17943" data-name="Path 17943" d="M200.15,932.123a5.866,5.866,0,0,1-4.086-1.886.48.48,0,0,1,.763-.584,4.365,4.365,0,0,0,5.747.808.493.493,0,1,1,.494.853A5.876,5.876,0,0,1,200.15,932.123Z" transform="translate(-195.953 -929.453)"/>
    </g>
    <g id="Group_23747" data-name="Group 23747" transform="translate(87.685 386.283)">
      <path id="Path_17944" data-name="Path 17944" d="M194.883,831.46h-.135a.525.525,0,0,1-.359-.584c8.082-29.319,1.706-47.5,1.661-47.682a.484.484,0,1,1,.9-.359c.045.18,6.555,18.633-1.616,48.266A.473.473,0,0,1,194.883,831.46Z" transform="translate(-194.381 -782.537)"/>
    </g>
    <g id="Group_23748" data-name="Group 23748" transform="translate(202.077 373.451)">
      <path id="Path_17945" data-name="Path 17945" d="M456.586,758.871a.337.337,0,0,1-.225-.045l-6.959-3.951a.5.5,0,0,1-.18-.673.507.507,0,0,1,.673-.18l6.959,3.951a.5.5,0,0,1,.18.673A.553.553,0,0,1,456.586,758.871Z" transform="translate(-449.159 -753.959)"/>
    </g>
    <g id="Group_23752" data-name="Group 23752" transform="translate(118.715 330.968)">
      <g id="Group_23749" data-name="Group 23749" transform="translate(0 9.025)">
        <path id="Path_17946" data-name="Path 17946" d="M306.508,701.466H263.989a.536.536,0,0,1-.4-.224.4.4,0,0,1-.045-.449l7.408-21.013a.5.5,0,0,1,.943.314l-7.184,20.339h41.845a.5.5,0,0,1,.494.494A.578.578,0,0,1,306.508,701.466Z" transform="translate(-263.491 -679.438)"/>
      </g>
      <g id="Group_23750" data-name="Group 23750" transform="translate(19.131 0.028)">
        <path id="Path_17947" data-name="Path 17947" d="M340.762,660.388H306.594a.494.494,0,1,1,0-.988h34.168a.5.5,0,0,1,.494.494A.531.531,0,0,1,340.762,660.388Z" transform="translate(-306.1 -659.4)"/>
      </g>
      <g id="Group_23751" data-name="Group 23751" transform="translate(42.495)">
        <path id="Path_17948" data-name="Path 17948" d="M358.66,690.391a.339.339,0,0,1-.18-.045.485.485,0,0,1-.314-.629l10.641-30.037a.5.5,0,0,1,.943.314l-10.641,30.037A.437.437,0,0,1,358.66,690.391Z" transform="translate(-358.138 -659.338)"/>
      </g>
    </g>
    <g id="Group_23753" data-name="Group 23753" transform="translate(60.886 326.057)">
      <path id="Path_17949" data-name="Path 17949" d="M139.455,664.339A4.011,4.011,0,0,1,136.132,662a11.5,11.5,0,0,1-1.437-5.478,12.1,12.1,0,0,1,1.078-5.567c.808-1.616,1.976-2.514,3.233-2.559a4.23,4.23,0,0,1,3.412,2.335,11.5,11.5,0,0,1,1.437,5.478,12.105,12.105,0,0,1-1.078,5.568c-.808,1.616-1.976,2.514-3.233,2.559Zm-.314-14.951a3.1,3.1,0,0,0-2.469,2.02,10.578,10.578,0,0,0-.988,5.074,10.811,10.811,0,0,0,1.3,5.029c.718,1.212,1.616,1.886,2.559,1.841.9-.045,1.751-.763,2.425-2.02a11.138,11.138,0,0,0,.988-5.074,10.811,10.811,0,0,0-1.3-5.029A3.238,3.238,0,0,0,139.14,649.388Z" transform="translate(-134.692 -648.4)"/>
    </g>
    <g id="Group_23754" data-name="Group 23754" transform="translate(72.963 326.101)">
      <path id="Path_17950" data-name="Path 17950" d="M166.31,664.394a2.822,2.822,0,0,1-2.11-.9.476.476,0,0,1,.673-.673,1.883,1.883,0,0,0,1.527.629c.9-.045,1.751-.763,2.425-2.021a11.137,11.137,0,0,0,.988-5.073c-.135-3.771-1.841-6.87-3.771-6.87a3.1,3.1,0,0,0-2.469,2.021,11.137,11.137,0,0,0-.988,5.073,10.1,10.1,0,0,0,.629,3.592.484.484,0,1,1-.9.359,11.023,11.023,0,0,1-.718-3.906,12.105,12.105,0,0,1,1.078-5.567c.808-1.616,1.976-2.514,3.233-2.559,2.514-.045,4.714,3.367,4.849,7.812a12.1,12.1,0,0,1-1.078,5.567c-.808,1.616-1.976,2.514-3.233,2.559A.165.165,0,0,0,166.31,664.394Z" transform="translate(-161.592 -648.499)"/>
    </g>
    <g id="Group_23755" data-name="Group 23755" transform="translate(69.175 333.427)">
      <path id="Path_17951" data-name="Path 17951" d="M157.125,666.6a.408.408,0,0,1-.359-.18,1.934,1.934,0,0,0-2.829-.045.493.493,0,0,1-.673-.09.455.455,0,0,1,.09-.673,2.824,2.824,0,0,1,4.176.224.455.455,0,0,1-.09.674A1.141,1.141,0,0,1,157.125,666.6Z" transform="translate(-153.153 -664.815)"/>
    </g>
    <g id="Group_23759" data-name="Group 23759" transform="translate(194.059 85.131)">
      <g id="Group_23756" data-name="Group 23756" transform="translate(13.38 37.685)">
        <path id="Path_17952" data-name="Path 17952" d="M461.594,200.343a.5.5,0,0,1-.494-.494v-3.682a.458.458,0,0,1,.224-.359.436.436,0,0,1,.4-.045,18.76,18.76,0,0,0,11.539,0,.436.436,0,0,1,.4.045.617.617,0,0,1,.225.359v2.02a.494.494,0,0,1-.988,0v-1.347a20.291,20.291,0,0,1-10.865,0V199.8C462.043,200.119,461.863,200.343,461.594,200.343Z" transform="translate(-461.1 -195.734)"/>
      </g>
      <g id="Group_23757" data-name="Group 23757">
        <path id="Path_17953" data-name="Path 17953" d="M451.1,151.4a19.825,19.825,0,1,1,6.016-.943A19.38,19.38,0,0,1,451.1,151.4Zm0-38.658A18.857,18.857,0,1,0,469.958,131.6,18.884,18.884,0,0,0,451.1,112.743Z" transform="translate(-431.3 -111.8)"/>
      </g>
      <g id="Group_23758" data-name="Group 23758" transform="translate(7.133 16.932)">
        <path id="Path_17954" data-name="Path 17954" d="M448.226,160.866h-.584a.436.436,0,0,1-.449-.494.461.461,0,0,1,.494-.449,5.689,5.689,0,0,0,3.816-.9,6.909,6.909,0,0,0,.539-.584,7.461,7.461,0,0,1-1.212-1.167,5.977,5.977,0,0,1-1.167-4.355c.09-.539.584-2.649,1.661-3.233a1.29,1.29,0,0,1,1.212-.045c.763.359,1.033,1.392,1.257,2.065l.045.135a9.451,9.451,0,0,1,.359,2.514,8.911,8.911,0,0,1-.853,3.771,15.329,15.329,0,0,0,10.192.4,6.781,6.781,0,0,0,3.1-2.29c-.045-.045-.09-.045-.135-.09a4.069,4.069,0,0,1-2.11-2.829,3.666,3.666,0,0,1,.359-2.02,2.441,2.441,0,0,1,1.437-1.392,1.561,1.561,0,0,1,1.347.18c.988.718,1.033,2.694,1.033,3.1a6.318,6.318,0,0,1-.584,2.6,18.645,18.645,0,0,0,6.2.763.494.494,0,1,1,0,.988,19.3,19.3,0,0,1-6.69-.853,7.431,7.431,0,0,1-3.637,2.784,13.221,13.221,0,0,1-4.31.763,13.6,13.6,0,0,1-6.735-1.212c-.224.269-.449.539-.718.808A6.44,6.44,0,0,1,448.226,160.866Zm3.727-10.416a.339.339,0,0,0-.18.045,4.253,4.253,0,0,0-1.167,2.514,4.983,4.983,0,0,0,.943,3.637,6.242,6.242,0,0,0,.943.943,7.294,7.294,0,0,0,.673-3.233,7.537,7.537,0,0,0-.314-2.245l-.045-.135c-.135-.494-.359-1.257-.718-1.437C452.042,150.449,452,150.449,451.952,150.449Zm14.727.224a.488.488,0,0,0-.224.045,1.647,1.647,0,0,0-.853.9,2.56,2.56,0,0,0-.269,1.482,2.973,2.973,0,0,0,1.616,2.11c.045.045.09.045.135.09a5.3,5.3,0,0,0,.494-2.245,3.488,3.488,0,0,0-.629-2.29A.38.38,0,0,0,466.679,150.674Z" transform="translate(-447.187 -149.511)"/>
      </g>
    </g>
    <g id="Group_23760" data-name="Group 23760" transform="translate(170.331 77.298)">
      <path id="Path_17955" data-name="Path 17955" d="M400.34,111.436a.481.481,0,0,1-.269-.09L378.654,95.227a.48.48,0,0,1,.584-.763l21.417,16.119a.455.455,0,0,1,.09.673A.669.669,0,0,1,400.34,111.436Z" transform="translate(-378.453 -94.353)"/>
    </g>
    <g id="Group_23761" data-name="Group 23761" transform="translate(173.06 114.374)">
      <path id="Path_17956" data-name="Path 17956" d="M385.011,191.06a.536.536,0,0,1-.4-.225.494.494,0,0,1,.135-.673l20.249-13.155a.486.486,0,0,1,.539.808L385.28,190.97A.33.33,0,0,1,385.011,191.06Z" transform="translate(-384.531 -176.931)"/>
    </g>
    <g id="Group_23762" data-name="Group 23762" transform="translate(213.365 63.4)">
      <path id="Path_17957" data-name="Path 17957" d="M474.794,80.686a.5.5,0,0,1-.494-.494v-16.3a.494.494,0,1,1,.988,0V80.237A.528.528,0,0,1,474.794,80.686Z" transform="translate(-474.3 -63.4)"/>
    </g>
    <g id="Group_23763" data-name="Group 23763" transform="translate(233.102 87.402)">
      <path id="Path_17958" data-name="Path 17958" d="M518.726,123.837a.393.393,0,0,1-.4-.269.507.507,0,0,1,.18-.673l11-5.972a.493.493,0,0,1,.494.853l-11,5.971A.638.638,0,0,1,518.726,123.837Z" transform="translate(-518.259 -116.859)"/>
    </g>
    <g id="Group_23764" data-name="Group 23764" transform="translate(231.704 118.556)">
      <path id="Path_17959" data-name="Path 17959" d="M537.395,206.564a.408.408,0,0,1-.314-.135L515.3,187.078a.477.477,0,1,1,.629-.718l21.776,19.351a.491.491,0,0,1,.045.673A.464.464,0,0,1,537.395,206.564Z" transform="translate(-515.145 -186.245)"/>
    </g>
    <g id="Group_23765" data-name="Group 23765" transform="translate(279.473 112.364)">
      <path id="Path_17960" data-name="Path 17960" d="M626.1,175.214a.472.472,0,0,1-.4-.224,3.06,3.06,0,0,0-3.547-1.482.469.469,0,1,1-.269-.9,4.044,4.044,0,0,1,4.67,1.931.507.507,0,0,1-.18.673Z" transform="translate(-621.538 -172.454)"/>
    </g>
    <path id="Path_17961" data-name="Path 17961" d="M623.731,182.791c-.4-.045-.629.09-.763,1.482-.135,1.571.269,1.841.629,1.8s.718-.494.673-1.616C624.269,183.375,624.225,182.881,623.731,182.791Z" transform="translate(-342.838 -65.782)"/>
    <g id="Group_23766" data-name="Group 23766" transform="translate(281.341 141.204)">
      <path id="Path_17962" data-name="Path 17962" d="M626.194,241.587a.5.5,0,0,1-.494-.494l.135-3.951a.418.418,0,0,1,.494-.449.436.436,0,0,1,.449.494l-.135,3.951C626.688,241.407,626.463,241.587,626.194,241.587Z" transform="translate(-625.7 -236.687)"/>
    </g>
    <g id="Group_23767" data-name="Group 23767" transform="translate(231.701 148.41)">
      <path id="Path_17963" data-name="Path 17963" d="M609.947,306.15a.5.5,0,0,1-.494-.494c.045-13.2-.494-24.6-.539-25.1-.18-3.727-2.11-8.261-4.131-12.617a23.953,23.953,0,0,0-5.7-8.037,15.706,15.706,0,0,0-8.8-4.176c-7.049-.808-21.327-.763-21.461-.763a22.8,22.8,0,0,0-8.576,1.841c-4.221,1.886-7.9,5.612-10.865,11.09a106.425,106.425,0,0,0-5.478,12.257c-.539,1.3-1.033,2.6-1.571,3.861-1.078,2.6-2.29,5.3-4.49,7.094a7.143,7.143,0,0,1-8.216.853c-2.6-1.482-3.457-4.176-4.31-6.735l-3.547-10.91c-1.122-3.367-2.2-6.914-3.278-10.372-1.078-3.5-2.2-7.094-3.323-10.551a.5.5,0,1,1,.943-.314c1.122,3.457,2.245,7.049,3.323,10.551,1.078,3.412,2.155,6.959,3.233,10.327l3.547,10.91c.808,2.514,1.571,4.894,3.861,6.2a6.2,6.2,0,0,0,7.094-.763c2.02-1.661,3.143-4.131,4.221-6.735.539-1.257,1.033-2.559,1.571-3.861a116.447,116.447,0,0,1,5.523-12.347c3.1-5.657,6.914-9.518,11.314-11.494a24.751,24.751,0,0,1,8.935-1.931c.18,0,14.5-.045,21.6.763a16.67,16.67,0,0,1,9.339,4.4,25.372,25.372,0,0,1,5.927,8.351c2.065,4.445,4.041,9.07,4.22,12.976.045.494.584,11.9.539,25.143C610.4,305.971,610.216,306.15,609.947,306.15Z" transform="translate(-515.138 -252.738)"/>
    </g>
    <g id="Group_23768" data-name="Group 23768" transform="translate(202.403 153.056)">
      <path id="Path_17964" data-name="Path 17964" d="M494.027,332.28c-8.486,0-17.017-2.739-23.662-9.474-7.723-7.9-11.539-18.768-14.233-28.376-2.694-9.474-4.131-18.274-5.7-27.523l-.539-3.278a.476.476,0,0,1,.943-.135l.539,3.278c1.571,9.249,3.008,18,5.657,27.433,2.694,9.474,6.421,20.249,14.008,27.972,11.808,12.033,29.858,10.865,42.519,4.4l1.347-.673c18.543-11.225,23.662-36.188,23.706-36.458a.485.485,0,1,1,.943.224c-.045.269-5.253,25.637-24.155,37.086l-1.392.674A45.241,45.241,0,0,1,494.027,332.28Z" transform="translate(-449.885 -263.085)"/>
    </g>
    <g id="Group_23769" data-name="Group 23769" transform="translate(316.832 156.091)">
      <path id="Path_17965" data-name="Path 17965" d="M729.24,315.666a.437.437,0,0,1-.449-.359c-4.535-14.817-14.143-32.776-23.931-44.674a.477.477,0,0,1,.718-.629c9.878,11.988,19.576,30.082,24.111,44.988a.426.426,0,0,1-.314.584C729.329,315.666,729.285,315.666,729.24,315.666Z" transform="translate(-704.745 -269.845)"/>
    </g>
    <g id="Group_23770" data-name="Group 23770" transform="translate(269.691 107.248)">
      <path id="Path_17966" data-name="Path 17966" d="M611.627,195.739c-6.78,0-8.531-3.457-9.025-5.208-.584-2.245.673-7.767,1.078-9.249-.808-.494-2.918-1.841-3.682-3.5a2.407,2.407,0,0,1,.629-2.918,61.134,61.134,0,0,1,5.3-3.457c.269-1.347,1.751-8.576,2.559-10.1a.493.493,0,0,1,.853.494c-.674,1.257-2.065,7.678-2.514,10.012-.045.135-.09.269-.224.314-.045.045-4.131,2.425-5.388,3.457a1.442,1.442,0,0,0-.359,1.751c.808,1.751,3.547,3.233,3.592,3.233a.486.486,0,0,1,.224.539c0,.09-1.751,6.825-1.167,9.114.629,2.335,3.188,5.972,13.29,3.951a.544.544,0,0,1,.584.359.515.515,0,0,1-.359.584A25.478,25.478,0,0,1,611.627,195.739Z" transform="translate(-599.752 -161.059)"/>
    </g>
    <g id="Group_23773" data-name="Group 23773" transform="translate(291.907 117.43)">
      <g id="Group_23771" data-name="Group 23771">
        <path id="Path_17967" data-name="Path 17967" d="M654.425,196.383a6.228,6.228,0,0,1-4.984-2.469.48.48,0,0,1,.763-.584,5.357,5.357,0,0,0,9.249-1.437,5.337,5.337,0,0,0-9.339-4.984.486.486,0,1,1-.808-.539,6.246,6.246,0,0,1,2.514-2.065,6.379,6.379,0,0,1,8.4,3.1,6.261,6.261,0,0,1,.18,4.849,6.353,6.353,0,0,1-3.278,3.547A6.484,6.484,0,0,1,654.425,196.383Z" transform="translate(-649.231 -183.738)"/>
      </g>
      <g id="Group_23772" data-name="Group 23772" transform="translate(1.917 2.928)">
        <path id="Path_17968" data-name="Path 17968" d="M657.81,197.551a.408.408,0,0,1-.314-.135l-3.816-3.322a.488.488,0,0,1-.18-.4.4.4,0,0,1,.225-.359l5.073-3.008a.493.493,0,0,1,.494.853l-4.49,2.694,3.323,2.874a.491.491,0,0,1,.045.673A.51.51,0,0,1,657.81,197.551Z" transform="translate(-653.5 -190.259)"/>
      </g>
    </g>
    <g id="Group_23774" data-name="Group 23774" transform="translate(202.215 146.591)">
      <path id="Path_17969" data-name="Path 17969" d="M457.832,257.762q-1.751,0-3.233-.135c-3.233-.314-4.939-1.122-5.118-2.335-.224-1.616,2.02-2.739,3.771-3.457a.484.484,0,1,1,.359.9c-2.11.853-3.233,1.706-3.143,2.425.09.494,1.212,1.212,4.22,1.527a47.542,47.542,0,0,0,10.461-.4,46.631,46.631,0,0,0,10.147-2.469c2.829-1.122,3.727-2.11,3.682-2.6-.09-.629-1.482-1.392-5.118-1.571a.436.436,0,0,1-.449-.494.418.418,0,0,1,.494-.449q5.725.337,6.061,2.425c.18,1.212-1.257,2.469-4.265,3.637a46.809,46.809,0,0,1-10.372,2.514A66.141,66.141,0,0,1,457.832,257.762Z" transform="translate(-449.465 -248.687)"/>
    </g>
    <g id="Group_23775" data-name="Group 23775" transform="translate(194.44 119.204)">
      <path id="Path_17970" data-name="Path 17970" d="M464.364,221.368a.437.437,0,0,1-.449-.359,31.179,31.179,0,0,1-.673-9.07c.09-2.425,0-4.894-.09-7.318-.045-.763-.045-1.571-.09-2.335a17.123,17.123,0,0,1,1.931-8.127c.224-.494.494-.988.359-1.392-.224-.808-1.661-1.347-2.559-1.392a5.283,5.283,0,0,0-3.412,1.3c-2.29,1.751-3.278,6.016-3.861,8.576a6.98,6.98,0,0,1-.629,2.065c-1.257,1.931-3.727,1.571-4.894,1.122-1.257-.494-1.392-.763-1.841-2.065a43.612,43.612,0,0,0-2.514-5.657c-3.1-5.972-6.78-8.8-10.372-7.947a3.066,3.066,0,0,0-1.976,1.976,3.744,3.744,0,0,0,.853,3.592c1.212,1.571,3.322,5.253,5.343,8.8,2.155,3.727,4.535,7.992,5.3,8.531a.45.45,0,0,1,.09.673.455.455,0,0,1-.673.09c-.853-.584-2.649-3.727-5.567-8.8-2.02-3.5-4.086-7.139-5.253-8.665a4.685,4.685,0,0,1-1.033-4.49,4.245,4.245,0,0,1,2.694-2.6c2.38-.584,6.959-.269,11.449,8.441a39.062,39.062,0,0,1,2.559,5.792c.4,1.122.4,1.122,1.3,1.482s2.784.629,3.727-.763a17.522,17.522,0,0,0,.494-1.751c.629-2.694,1.661-7.139,4.22-9.114a5.958,5.958,0,0,1,4.041-1.482c1.122.045,3.053.718,3.457,2.11a2.742,2.742,0,0,1-.449,2.065A16.34,16.34,0,0,0,464,202.331c0,.763.045,1.571.09,2.335.09,2.425.18,4.939.09,7.363a30.651,30.651,0,0,0,.629,8.8.449.449,0,0,1-.359.584C464.454,221.323,464.409,221.368,464.364,221.368Z" transform="translate(-432.149 -187.69)"/>
    </g>
    <g id="Group_23776" data-name="Group 23776" transform="translate(190.877 121.723)">
      <path id="Path_17971" data-name="Path 17971" d="M442.8,227.064a.526.526,0,0,1-.494-.4c-.269-1.931-.943-4.445-2.739-5.388-3.143-1.616-6.555-6.331-8.89-12.347a26.687,26.687,0,0,0-3.727-6.2c-1.661-2.245-3.1-4.176-2.649-6.106a4.285,4.285,0,0,1,4-3.322.5.5,0,0,1,.494.494.492.492,0,0,1-.449.494,3.316,3.316,0,0,0-3.1,2.559c-.314,1.482.9,3.143,2.514,5.3a28.649,28.649,0,0,1,3.861,6.42c2.2,5.7,5.523,10.327,8.4,11.853,2.155,1.122,2.963,3.951,3.233,6.106a.464.464,0,0,1-.4.539Z" transform="translate(-424.215 -193.3)"/>
    </g>
    <g id="Group_23777" data-name="Group 23777" transform="translate(300.558 135.777)">
      <path id="Path_17972" data-name="Path 17972" d="M669.533,233.31a.489.489,0,0,1-.494-.449l-.539-7.767a.472.472,0,1,1,.943-.045l.539,7.767c.045.224-.18.449-.449.494Z" transform="translate(-668.5 -224.6)"/>
    </g>
    <g id="Group_23778" data-name="Group 23778" transform="translate(295.014 105.425)">
      <path id="Path_17973" data-name="Path 17973" d="M659.586,188.923a3.417,3.417,0,0,1-.943-.135c-2.469-.763-2.559-4.49-2.469-6.106.09-1.886.359-1.976.629-2.02a.515.515,0,0,1,.584.359.477.477,0,0,1-.045.359c-.135.539-.449,3.547.449,5.3A2.179,2.179,0,0,0,659,187.845c1.931.584,4.445-1.8,8.935-6.061l1.122-1.078c5.478-5.208,8.082-12.437,6.331-17.645a7.186,7.186,0,0,0-6.465-5.074.5.5,0,1,1,.09-.988,8.2,8.2,0,0,1,7.274,5.747c1.886,5.612-.718,13.11-6.555,18.633l-1.122,1.078C664.211,186.633,661.786,188.923,659.586,188.923Z" transform="translate(-656.153 -157)"/>
    </g>
    <g id="Group_23779" data-name="Group 23779" transform="translate(272.87 130.178)">
      <path id="Path_17974" data-name="Path 17974" d="M609.691,214.138a5.058,5.058,0,0,1-2.649-.718.486.486,0,1,1,.539-.808c.09.045,2.155,1.482,5.074-.4a.486.486,0,0,1,.539.808A6.348,6.348,0,0,1,609.691,214.138Z" transform="translate(-606.831 -212.131)"/>
    </g>
    <g id="Group_23780" data-name="Group 23780" transform="translate(275.002 143.544)">
      <path id="Path_17975" data-name="Path 17975" d="M612.083,251.463a.4.4,0,0,1-.224-.045.472.472,0,0,1-.225-.629c.718-1.437,3.1-6.241,4.131-6.825,1.212-.673,22.18-2.065,25.862-2.065,1.616,0,4.58,5.657,5.792,8.127a.459.459,0,0,1-.225.629.429.429,0,0,1-.629-.224c-2.021-4.041-4.265-7.5-4.939-7.588-4.31,0-24.2,1.437-25.368,1.976-.494.269-2.335,3.547-3.682,6.421A.721.721,0,0,1,612.083,251.463Z" transform="translate(-611.58 -241.9)"/>
    </g>
    <g id="Group_23782" data-name="Group 23782" transform="translate(97.463 175.527)">
      <g id="Group_23781" data-name="Group 23781">
        <path id="Path_17976" data-name="Path 17976" d="M241.231,363.584a14.135,14.135,0,0,1-5.837-1.347,24.313,24.313,0,0,1-9.294-7.767,51.593,51.593,0,0,1-7.812-15.58c-.539-1.616-.988-3.233-1.437-4.939l-.673-2.29a.477.477,0,0,1,.045-.359c.045-.135.18-.18.314-.224l6.69-1.841c.718-.18,1.392-.4,2.11-.584a1.065,1.065,0,0,1,1.212.4,65.649,65.649,0,0,0,12.212,12.3,4.731,4.731,0,0,0,4.355.9,15.881,15.881,0,0,0,4.714-2.155,64.117,64.117,0,0,0,10.1-8.351A185.749,185.749,0,0,0,273.827,313.7a1.281,1.281,0,0,1,1.527-.494c2.29.673,4.58,1.3,6.825,1.931l2.425.673a.846.846,0,0,0,.359.09l.18.045a.6.6,0,0,1,.314.269.623.623,0,0,1,0,.4l-.045.135a1.344,1.344,0,0,1-.18.359,221.764,221.764,0,0,1-20.2,29.274,73.148,73.148,0,0,1-12.841,12.661,36.225,36.225,0,0,1-5.029,3.053A12.6,12.6,0,0,1,241.231,363.584Zm-23.931-31.7c.18.629.359,1.257.539,1.841.449,1.706.9,3.278,1.437,4.894a50.534,50.534,0,0,0,7.633,15.266,23.148,23.148,0,0,0,8.935,7.453,11.974,11.974,0,0,0,10.91-.135,37.014,37.014,0,0,0,4.894-3.008,74.265,74.265,0,0,0,12.661-12.482,221.347,221.347,0,0,0,20.07-29.049l-2.38-.673c-2.29-.629-4.58-1.257-6.869-1.931-.269-.09-.314-.045-.494.18a193.886,193.886,0,0,1-15.984,18.139,61.956,61.956,0,0,1-10.237,8.486,15.756,15.756,0,0,1-5.029,2.29,5.682,5.682,0,0,1-5.208-1.078A66.207,66.207,0,0,1,225.785,329.6c-.045-.09-.09-.09-.18-.045-.718.18-1.392.4-2.11.584Z" transform="translate(-216.159 -313.133)"/>
      </g>
    </g>
    <g id="Group_23783" data-name="Group 23783" transform="translate(74.314 142.871)">
      <path id="Path_17977" data-name="Path 17977" d="M222.474,356.149a57.874,57.874,0,1,1,57.47-64.7.476.476,0,0,1-.943.135,56.878,56.878,0,1,0-33,58.5.459.459,0,0,1,.629.225.5.5,0,0,1-.224.629A56.308,56.308,0,0,1,222.474,356.149Z" transform="translate(-164.6 -240.4)"/>
    </g>
    <g id="Group_23784" data-name="Group 23784" transform="translate(288.834 273.277)">
      <path id="Path_17978" data-name="Path 17978" d="M654.111,556.822c-.539,0-1.122,0-1.706-.045a7.135,7.135,0,0,1-5.927-3.367,22.705,22.705,0,0,1-4.041-11.719c-.224-4.535.045-9.114,6.2-10.821a.469.469,0,1,1,.269.9c-4.939,1.392-5.747,4.535-5.478,9.833a21.625,21.625,0,0,0,3.861,11.225,6.122,6.122,0,0,0,5.208,2.963,16.165,16.165,0,0,0,7.633-1.078c3.682-1.616,5.523-3.457,5.343-5.343a3.285,3.285,0,0,0-1.706-2.469.507.507,0,0,1-.4-.584.464.464,0,0,1,.539-.4,4.112,4.112,0,0,1,2.514,3.278c.225,1.661-.673,4.131-5.882,6.421A15.9,15.9,0,0,1,654.111,556.822Z" transform="translate(-642.387 -530.847)"/>
    </g>
    <g id="Group_23785" data-name="Group 23785" transform="translate(298.852 281.287)">
      <path id="Path_17979" data-name="Path 17979" d="M665.194,560.771a.492.492,0,0,1-.494-.449.461.461,0,0,1,.449-.494,18.487,18.487,0,0,0,5.612-1.257l.18-.09a13.792,13.792,0,0,0,4.625-2.425,3.56,3.56,0,0,0,1.257-2.918,4.909,4.909,0,0,0-2.424-3.547.486.486,0,1,1,.539-.808,5.818,5.818,0,0,1,2.874,4.31,4.319,4.319,0,0,1-1.571,3.727,15.37,15.37,0,0,1-4.939,2.6l-.18.09a22.3,22.3,0,0,1-5.927,1.257Z" transform="translate(-664.7 -548.687)"/>
    </g>
    <g id="Group_23786" data-name="Group 23786" transform="translate(295.978 284.093)">
      <path id="Path_17980" data-name="Path 17980" d="M658.794,557.345a.492.492,0,0,1-.494-.449.462.462,0,0,1,.449-.494,18.684,18.684,0,0,0,5.927-1.437.52.52,0,0,1,.629.269.5.5,0,0,1-.269.629,19.3,19.3,0,0,1-6.241,1.482Z" transform="translate(-658.3 -554.937)"/>
    </g>
    <g id="Group_23787" data-name="Group 23787" transform="translate(351.922 266.836)">
      <path id="Path_17981" data-name="Path 17981" d="M783.394,585.06a.5.5,0,0,1-.494-.494V516.994a.494.494,0,0,1,.988,0v67.617A.461.461,0,0,1,783.394,585.06Z" transform="translate(-782.9 -516.5)"/>
    </g>
    <g id="Group_23788" data-name="Group 23788" transform="translate(325.971 200.835)">
      <path id="Path_17982" data-name="Path 17982" d="M751.545,407.709a.5.5,0,0,1-.494-.494V376.639c0-3.412-3.233-6.151-7.229-6.151H725.594a.494.494,0,1,1,0-.988h18.229c4.49,0,8.172,3.188,8.172,7.139v30.576A.437.437,0,0,1,751.545,407.709Z" transform="translate(-725.1 -369.5)"/>
    </g>
    <g id="Group_23789" data-name="Group 23789" transform="translate(282.015 200.835)">
      <path id="Path_17983" data-name="Path 17983" d="M671.694,370.488h-44a.494.494,0,0,1,0-.988h44a.5.5,0,0,1,.494.494C672.143,370.308,671.964,370.488,671.694,370.488Z" transform="translate(-627.2 -369.5)"/>
    </g>
    <g id="Group_23790" data-name="Group 23790" transform="translate(159.981 200.835)">
      <path id="Path_17984" data-name="Path 17984" d="M355.894,498a.5.5,0,0,1-.494-.494V376.639c0-3.906,3.682-7.139,8.172-7.139h47.323a.494.494,0,0,1,0,.988H363.572c-4,0-7.229,2.739-7.229,6.151V497.461A.505.505,0,0,1,355.894,498Z" transform="translate(-355.4 -369.5)"/>
    </g>
    <g id="Group_23791" data-name="Group 23791" transform="translate(307.679 294.16)">
      <path id="Path_17985" data-name="Path 17985" d="M688.418,585.28a3.466,3.466,0,0,1-.674-.09,2.413,2.413,0,0,1-1.482-1.167l-1.841-3.323a.493.493,0,1,1,.853-.494l1.841,3.323a1.456,1.456,0,0,0,.9.718,1.643,1.643,0,0,0,1.122-.135,1.456,1.456,0,0,0,.718-.9,1.642,1.642,0,0,0-.135-1.122l-2.2-4a.493.493,0,0,1,.853-.494l2.2,4a2.434,2.434,0,0,1-.943,3.322A2.107,2.107,0,0,1,688.418,585.28Z" transform="translate(-684.359 -577.359)"/>
    </g>
    <g id="Group_23792" data-name="Group 23792" transform="translate(277.254 239.042)">
      <path id="Path_17986" data-name="Path 17986" d="M636.937,493.884a.432.432,0,0,1-.4-.269l-19.621-35.38a2.442,2.442,0,1,1,4.265-2.38l19.711,35.425a.493.493,0,1,1-.853.494l-19.711-35.425a1.456,1.456,0,0,0-.9-.718,1.642,1.642,0,0,0-1.122.135,1.456,1.456,0,0,0-.718.9,1.642,1.642,0,0,0,.135,1.122l19.621,35.38a.507.507,0,0,1-.18.673A.488.488,0,0,1,636.937,493.884Z" transform="translate(-616.596 -454.596)"/>
    </g>
    <g id="Group_23793" data-name="Group 23793" transform="translate(298.835 271.24)">
      <path id="Path_17987" data-name="Path 17987" d="M672.761,528.6a.405.405,0,0,1-.224-.045c-4.355-2.2-7.139-.853-7.184-.853a.459.459,0,0,1-.629-.225.429.429,0,0,1,.224-.629c.135-.045,3.233-1.616,8.037.853a.467.467,0,0,1-.225.9Z" transform="translate(-664.662 -526.311)"/>
    </g>
    <g id="Group_23794" data-name="Group 23794" transform="translate(204.34 434.981)">
      <path id="Path_17988" data-name="Path 17988" d="M519.482,891.988H454.694a.494.494,0,1,1,0-.988h64.789a.5.5,0,0,1,.494.494A.471.471,0,0,1,519.482,891.988Z" transform="translate(-454.2 -891)"/>
    </g>
    <g id="Group_23795" data-name="Group 23795" transform="translate(318.652 434.981)">
      <path id="Path_17989" data-name="Path 17989" d="M736.188,891.988H709.294a.494.494,0,0,1,0-.988h26.894a.5.5,0,0,1,.494.494A.471.471,0,0,1,736.188,891.988Z" transform="translate(-708.8 -891)"/>
    </g>
    <g id="Group_23796" data-name="Group 23796" transform="translate(72.557 330.809)">
      <path id="Path_17990" data-name="Path 17990" d="M162.847,670.979a.832.832,0,0,1-.314-.09.5.5,0,0,1-.09-.673c1.527-1.886,1.527-2.559,1.437-2.784-.09-.269-.673-.4-1.167-.539a2.2,2.2,0,0,1-1.661-.9c-.718-1.3-.18-5.7-.045-6.6a.488.488,0,0,1,.539-.4.464.464,0,0,1,.4.539c-.269,1.886-.494,5.163-.045,5.971.09.18.629.314,1.033.4.718.18,1.616.359,1.886,1.167s-.225,1.931-1.571,3.682A.43.43,0,0,1,162.847,670.979Z" transform="translate(-160.686 -658.985)"/>
    </g>
    <g id="Group_23797" data-name="Group 23797" transform="translate(294.401 275.521)">
      <path id="Path_17991" data-name="Path 17991" d="M655.287,539.147a.489.489,0,0,1-.494-.449.5.5,0,0,1,.449-.539c.045,0,4.22-.4,5.837-2.155a.477.477,0,1,1,.718.629c-1.841,2.065-6.241,2.514-6.51,2.514Z" transform="translate(-654.787 -535.845)"/>
    </g>
    <g id="Group_23798" data-name="Group 23798" transform="translate(271.508 94.656)">
      <path id="Path_17992" data-name="Path 17992" d="M609.276,153.482a.832.832,0,0,1-.314-.09c-.224-.18-5.073-4.176-5.163-9.608-.045-3.053,1.437-5.927,4.4-8.486a8.3,8.3,0,0,1,6.421-2.245c5.118.449,9.114,5.343,9.294,5.567a.48.48,0,0,1-.763.584c-.045-.045-3.951-4.8-8.621-5.208a7.435,7.435,0,0,0-5.7,2.02c-2.739,2.38-4.086,4.984-4.041,7.767.09,4.984,4.759,8.845,4.8,8.89a.5.5,0,0,1,.09.673A.549.549,0,0,1,609.276,153.482Z" transform="translate(-603.798 -133.015)"/>
    </g>
    <g id="Group_23799" data-name="Group 23799" transform="translate(286.584 94.564)">
      <path id="Path_17993" data-name="Path 17993" d="M658.534,144.658a.494.494,0,0,1-.449-.269c-.045-.09-4.176-8.89-11.584-10.237-7.139-1.3-8.172,1.122-8.172,1.122a.5.5,0,0,1-.629.269.494.494,0,0,1-.314-.584c.09-.314,1.3-3.188,9.249-1.751,7.9,1.437,12.122,10.416,12.3,10.776a.5.5,0,0,1-.224.629C658.668,144.658,658.623,144.658,658.534,144.658Z" transform="translate(-637.375 -132.81)"/>
    </g>
    <g id="Group_23800" data-name="Group 23800" transform="translate(276.979 106.406)">
      <path id="Path_17994" data-name="Path 17994" d="M631.706,173.155a3.66,3.66,0,0,1-2.963-1.8c-1.078-1.886-.135-4.625.18-5.388-2.469-4.535-12.437-5.792-12.527-5.837a.476.476,0,0,1,.135-.943c.449.045,10.865,1.392,13.38,6.555a.624.624,0,0,1,0,.4c0,.045-1.3,3.008-.314,4.759a2.821,2.821,0,0,0,2.155,1.3.464.464,0,0,1,.4.539C632.155,173.02,631.975,173.155,631.706,173.155Z" transform="translate(-615.985 -159.185)"/>
    </g>
    <g id="Group_23801" data-name="Group 23801" transform="translate(430.925 204.752)">
      <path id="Path_17995" data-name="Path 17995" d="M959.326,481.032a.4.4,0,0,1-.225-.045.5.5,0,0,1-.18-.673c.853-1.572,1.706-3.233,2.559-4.939a.472.472,0,0,1,.853.4q-1.28,2.627-2.559,4.984A.494.494,0,0,1,959.326,481.032Zm4.939-10.012a.27.27,0,0,1-.18-.045.459.459,0,0,1-.224-.629c.763-1.706,1.482-3.412,2.2-5.118a.52.52,0,0,1,.629-.269.479.479,0,0,1,.269.629c-.718,1.706-1.437,3.412-2.2,5.118A.57.57,0,0,1,964.265,471.019Zm4.22-10.327a.27.27,0,0,1-.18-.045.464.464,0,0,1-.269-.629c.674-1.751,1.257-3.547,1.841-5.253a.5.5,0,0,1,.943.314c-.584,1.706-1.212,3.5-1.841,5.253A.473.473,0,0,1,968.486,460.693Zm3.547-10.551H971.9a.456.456,0,0,1-.314-.584c.539-1.8,1.033-3.592,1.482-5.343a.485.485,0,0,1,.943.225c-.449,1.751-.943,3.592-1.482,5.388A.552.552,0,0,1,972.033,450.141Zm2.739-10.821a.512.512,0,0,1-.494-.584c.4-1.8.763-3.637,1.033-5.433a.476.476,0,0,1,.943.135c-.314,1.841-.674,3.682-1.078,5.478C975.221,439.186,975,439.321,974.772,439.321Zm1.886-10.955a.536.536,0,0,1-.494-.539c.224-1.841.4-3.727.584-5.523a.453.453,0,0,1,.539-.449.5.5,0,0,1,.449.539c-.135,1.841-.359,3.682-.584,5.567A.488.488,0,0,1,976.657,428.365Zm.9-11.09a.5.5,0,0,1-.494-.494c.045-1.033.045-2.11.045-3.143,0-.808,0-1.616-.045-2.38a.494.494,0,0,1,.988,0c0,.808.045,1.616.045,2.425,0,1.078,0,2.11-.045,3.188A.534.534,0,0,1,977.555,417.276Zm-.269-11.135a.49.49,0,0,1-.494-.449c-.135-1.841-.359-3.682-.584-5.523a.476.476,0,0,1,.943-.135c.269,1.841.449,3.727.629,5.567a.536.536,0,0,1-.494.539ZM975.714,395.1a.526.526,0,0,1-.494-.4c-.359-1.8-.808-3.637-1.3-5.388a.485.485,0,0,1,.943-.224c.494,1.8.943,3.637,1.3,5.433a.515.515,0,0,1-.359.584ZM972.8,384.365a.488.488,0,0,1-.449-.314c-.584-1.751-1.257-3.457-1.976-5.163a.479.479,0,0,1,.269-.629.464.464,0,0,1,.629.269c.718,1.706,1.392,3.457,2.02,5.208a.485.485,0,0,1-.314.629Z" transform="translate(-958.859 -378.225)"/>
    </g>
    <g id="Group_23802" data-name="Group 23802" transform="translate(351.405 156.829)">
      <path id="Path_17996" data-name="Path 17996" d="M862.724,302.429a.548.548,0,0,1-.4-.18l-.674-.853a.48.48,0,1,1,.763-.584l.674.9a.45.45,0,0,1-.09.674C862.948,302.384,862.813,302.429,862.724,302.429Zm-4.221-5.163a.408.408,0,0,1-.359-.18c-1.212-1.392-2.514-2.694-3.816-4a.476.476,0,0,1,.674-.673c1.347,1.3,2.649,2.649,3.861,4.041a.452.452,0,0,1-.045.673A.485.485,0,0,1,858.5,297.266Zm-7.992-7.723a.832.832,0,0,1-.314-.09c-1.437-1.167-2.874-2.335-4.4-3.367a.486.486,0,1,1,.539-.808c1.527,1.078,3.008,2.245,4.445,3.412a.452.452,0,0,1,.045.673A.3.3,0,0,1,850.511,289.543Zm-9.07-6.465a.33.33,0,0,1-.269-.09c-1.571-.943-3.188-1.841-4.849-2.649a.472.472,0,0,1-.225-.629.516.516,0,0,1,.629-.224c1.661.808,3.323,1.751,4.939,2.694a.507.507,0,0,1,.18.673A.43.43,0,0,1,841.442,283.078Zm-9.967-4.939a.27.27,0,0,1-.18-.045c-1.706-.673-3.457-1.3-5.208-1.886a.5.5,0,0,1,.314-.943q2.694.875,5.253,1.886a.479.479,0,0,1,.269.629A.458.458,0,0,1,831.474,278.139Zm-10.6-3.367h-.135c-1.751-.449-3.592-.808-5.433-1.122a.488.488,0,0,1-.4-.539.464.464,0,0,1,.539-.4c1.841.314,3.727.673,5.478,1.122a.478.478,0,0,1,.359.584A.4.4,0,0,1,820.878,274.772Zm-38.658-.18a.437.437,0,0,1-.449-.359.449.449,0,0,1,.359-.584,45.15,45.15,0,0,1,5.523-1.122.476.476,0,1,1,.135.943c-3.367.539-5.388,1.078-5.433,1.078A.165.165,0,0,1,782.22,274.592Zm27.658-1.706c-1.841-.18-3.727-.314-5.567-.359a.436.436,0,0,1-.449-.494.461.461,0,0,1,.494-.449c1.886.09,3.771.18,5.567.359a.533.533,0,0,1,.449.539A.488.488,0,0,1,809.878,272.886Zm-16.657-.09a.489.489,0,0,1-.494-.449.5.5,0,0,1,.449-.539c1.841-.18,3.727-.269,5.612-.314a.471.471,0,0,1,.494.494.5.5,0,0,1-.494.494c-1.841.045-3.727.18-5.567.314Z" transform="translate(-781.748 -271.489)"/>
    </g>
    <g id="Group_23803" data-name="Group 23803" transform="translate(260.239 363.547)">
      <path id="Path_17997" data-name="Path 17997" d="M602.945,780.39a24.245,24.245,0,1,1,24.245-24.245,24.917,24.917,0,0,1-.763,6.061.485.485,0,0,1-.943-.224,23.328,23.328,0,1,0-11.27,14.5.493.493,0,0,1,.494.853A24.56,24.56,0,0,1,602.945,780.39Z" transform="translate(-578.7 -731.9)"/>
    </g>
    <g id="Group_23804" data-name="Group 23804" transform="translate(8.538 258.412)">
      <path id="Path_17998" data-name="Path 17998" d="M40.145,583.747a.336.336,0,0,1-.224-.045,28.574,28.574,0,0,1-2.469-1.571.48.48,0,1,1,.584-.763c.763.539,1.571,1.033,2.38,1.527a.507.507,0,0,1,.18.674A.687.687,0,0,1,40.145,583.747Zm-6.6-5.208a.51.51,0,0,1-.359-.135,31.639,31.639,0,0,1-3.547-4.4.486.486,0,1,1,.808-.539A33.251,33.251,0,0,0,33.9,577.73a.488.488,0,0,1,0,.674A.51.51,0,0,1,33.545,578.539Zm-6.331-9.07a.494.494,0,0,1-.449-.269c-.808-1.571-1.616-3.323-2.335-5.118a.5.5,0,0,1,.269-.629.52.52,0,0,1,.629.269c.718,1.751,1.482,3.457,2.29,5.029a.485.485,0,0,1-.224.673C27.349,569.424,27.3,569.469,27.214,569.469ZM23.084,559.1a.437.437,0,0,1-.449-.359c-.539-1.706-1.033-3.547-1.437-5.433a.485.485,0,0,1,.943-.225c.449,1.841.9,3.637,1.437,5.343a.426.426,0,0,1-.314.584C23.174,559.1,23.129,559.1,23.084,559.1Zm-2.6-10.821a.526.526,0,0,1-.494-.4c-.224-1.257-.4-2.469-.584-3.682-.09-.629-.18-1.212-.269-1.841a.476.476,0,0,1,.943-.135c.09.629.18,1.212.269,1.841.18,1.212.359,2.424.584,3.637a.533.533,0,0,1-.4.584Zm-1.437-11.045a.49.49,0,0,1-.494-.449c-.18-1.886-.269-3.772-.359-5.567a.462.462,0,0,1,.449-.494.438.438,0,0,1,.494.449c.09,1.8.18,3.682.359,5.523a.45.45,0,0,1-.449.539ZM18.594,526.1a.531.531,0,0,1-.494-.494c0-1.886.09-3.772.18-5.567a.49.49,0,0,1,.494-.449.462.462,0,0,1,.449.494c-.09,1.8-.18,3.682-.18,5.523A.418.418,0,0,1,18.594,526.1Zm.629-11.09a.536.536,0,0,1-.494-.539c.224-1.841.494-3.727.808-5.523a.476.476,0,1,1,.943.135c-.314,1.8-.584,3.637-.808,5.478C19.716,514.827,19.492,515.007,19.222,515.007Zm1.931-10.955h-.135a.478.478,0,0,1-.359-.584q.673-2.761,1.482-5.388a.485.485,0,0,1,.629-.314.456.456,0,0,1,.314.584c-.539,1.751-1.033,3.547-1.482,5.343A.443.443,0,0,1,21.153,504.052Z" transform="translate(-18.1 -497.738)"/>
    </g>
    <g id="Group_23805" data-name="Group 23805" transform="translate(21.572 205.795)">
      <path id="Path_17999" data-name="Path 17999" d="M47.611,415.323a.638.638,0,0,1-.269-.09.494.494,0,0,1-.135-.673c.943-1.347,1.931-2.739,2.963-4.041a.48.48,0,0,1,.763.584c-.988,1.3-1.976,2.649-2.918,4A.393.393,0,0,1,47.611,415.323Zm6.51-8.261a.408.408,0,0,1-.314-.135.491.491,0,0,1-.045-.674c1.212-1.392,2.559-2.739,3.861-4.041a.476.476,0,0,1,.673.673c-1.3,1.3-2.6,2.649-3.816,4A.408.408,0,0,1,54.121,407.061Zm7.947-7.767a.408.408,0,0,1-.359-.18.488.488,0,0,1,.045-.673c1.392-1.212,2.874-2.38,4.355-3.5a.455.455,0,0,1,.673.09.45.45,0,0,1-.09.673c-1.482,1.122-2.918,2.29-4.31,3.457A.408.408,0,0,1,62.068,399.294ZM71,392.6a.471.471,0,0,1-.4-.224.494.494,0,0,1,.135-.673c1.571-1.033,3.188-1.975,4.8-2.918a.493.493,0,1,1,.494.853c-1.616.9-3.188,1.886-4.714,2.874A1.142,1.142,0,0,1,71,392.6Zm9.7-5.433a.494.494,0,0,1-.449-.269.459.459,0,0,1,.224-.629c1.661-.808,3.412-1.571,5.118-2.245a.484.484,0,0,1,.359.9c-1.706.673-3.412,1.437-5.074,2.2C80.836,387.127,80.791,387.171,80.7,387.171Zm10.327-4.131a.446.446,0,0,1-.449-.314.485.485,0,0,1,.314-.629c1.751-.584,3.592-1.078,5.388-1.527a.449.449,0,0,1,.584.359.478.478,0,0,1-.359.584c-1.8.449-3.592.943-5.343,1.527Z" transform="translate(-47.131 -380.548)"/>
    </g>
    <g id="Group_23806" data-name="Group 23806" transform="translate(207.887 127.425)">
      <path id="Path_18000" data-name="Path 18000" d="M472.786,206.988H462.594a.494.494,0,0,1,0-.988h10.192a.494.494,0,0,1,0,.988Z" transform="translate(-462.1 -206)" fill="#0e1116"/>
    </g>
    <g id="Group_23807" data-name="Group 23807" transform="translate(210.087 132.095)">
      <path id="Path_18001" data-name="Path 18001" d="M474.049,217.388h-6.555a.494.494,0,0,1,0-.988h6.555a.494.494,0,0,1,0,.988Z" transform="translate(-467 -216.4)"/>
    </g>
    <g id="Group_23808" data-name="Group 23808" transform="translate(229.456 205.863)">
      <path id="Path_18002" data-name="Path 18002" d="M544.109,393.586a.437.437,0,0,1-.449-.359c-1.886-6.78-8.621-11.539-16.433-11.539-7.408,0-13.874,4.265-16.119,10.6a.523.523,0,0,1-.629.314.485.485,0,0,1-.314-.629c2.38-6.735,9.2-11.27,17.017-11.27,8.216,0,15.355,5.029,17.331,12.257a.449.449,0,0,1-.359.584C544.2,393.586,544.154,393.586,544.109,393.586Z" transform="translate(-510.138 -380.7)"/>
    </g>
    <g id="Group_23809" data-name="Group 23809" transform="translate(430.001 187.634)">
      <path id="Path_18003" data-name="Path 18003" d="M964.7,355.9a7.9,7.9,0,1,1,7.9-7.9A7.914,7.914,0,0,1,964.7,355.9Zm0-14.861A6.959,6.959,0,1,0,971.661,348,6.965,6.965,0,0,0,964.7,341.043Z" transform="translate(-956.8 -340.1)"/>
    </g>
    <g id="Group_23810" data-name="Group 23810" transform="translate(7.999 240.749)">
      <path id="Path_18004" data-name="Path 18004" d="M24.8,474.2a7.9,7.9,0,1,1,7.9-7.9A7.914,7.914,0,0,1,24.8,474.2Zm0-14.861a6.959,6.959,0,1,0,6.959,6.959A6.965,6.965,0,0,0,24.8,459.343Z" transform="translate(-16.9 -458.4)"/>
    </g>
  </g>
</svg>
