<svg xmlns="http://www.w3.org/2000/svg" width="56" height="56" viewBox="0 0 56 56">
  <g id="Group_23559" data-name="Group 23559" transform="translate(-195 -1451.533)">
    <g id="Ellipse_942" data-name="Ellipse 942" transform="translate(195 1451.533)" fill="#a7d2cb" stroke="" stroke-width="1">
      <circle cx="28" cy="28" r="28" stroke="none"/>
      <circle cx="28" cy="28" r="27.5" fill="none"/>
    </g>
    <g id="Group_23829" data-name="Group 23829" transform="translate(-2345.523 -50.815)">
      <path id="Path_18069" data-name="Path 18069" d="M2562.773,1523.017h13.954a.831.831,0,0,1,.917.666.938.938,0,0,1-.01.354q-.853,4.2-1.714,8.394a.849.849,0,0,1-.971.782q-5.154,0-10.307,0a.378.378,0,0,0-.406.236c-.19.394-.41.773-.645,1.209h.311q5.261,0,10.523,0a1.544,1.544,0,0,1,.426.04.8.8,0,0,1,.567.867.833.833,0,0,1-.75.722c-.055.005-.112,0-.167,0q-5.6,0-11.195,0a1.4,1.4,0,0,1-1.489-1.48,1.834,1.834,0,0,1,.208-.677c.282-.563.6-1.109.885-1.671a.664.664,0,0,0,.059-.4q-.8-3.988-1.631-7.972c-.123-.592-.29-1.176-.447-1.761a.521.521,0,0,0-.571-.411c-.479,0-.959.021-1.438.02a.82.82,0,0,1-.844-.7.8.8,0,0,1,.494-.867.529.529,0,0,1,.183-.05,14.426,14.426,0,0,1,1.961-.006,2.07,2.07,0,0,1,1.8,1.6C2562.579,1522.277,2562.67,1522.64,2562.773,1523.017Zm4.413,6.417c-.022.05-.038.094-.062.134-.271.467-.272.466.106.844.045.045.083.114.137.13.094.028.245.072.289.027a.646.646,0,0,1,.895-.087c.032.02.088.011.112.035.078.077.2.158.21.249.071.594.132.481.628.492h.072c.369,0,.39-.006.422-.383.021-.247.106-.409.363-.454a.324.324,0,0,0,.13-.06.411.411,0,0,1,.575.05c.292.246.3.234.568-.031l.085-.085c.369-.37.384-.318.059-.753-.061-.081-.131-.212-.106-.29.119-.372.21-.79.76-.733.142.015.208-.1.205-.24,0-.08,0-.16,0-.24,0-.54,0-.547-.531-.609a.375.375,0,0,1-.314-.239.676.676,0,0,1,.1-.934c.117-.107.083-.229-.027-.333-.058-.055-.113-.112-.17-.169-.4-.4-.343-.387-.8-.063-.077.055-.2.118-.274.091-.354-.133-.77-.219-.717-.755.014-.145-.1-.2-.24-.2-.168,0-.336.009-.5,0-.211-.014-.3.072-.321.285-.011.146-.025.353-.119.418a1.7,1.7,0,0,1-.678.275c-.112.018-.26-.129-.379-.219a.243.243,0,0,0-.376.027c-.114.123-.232.243-.355.356a.229.229,0,0,0-.018.373.51.51,0,0,1,.083.74.373.373,0,0,0-.058.156c-.035.213-.169.277-.371.294-.358.031-.373.058-.374.408,0,.12.008.24,0,.359-.017.213.083.306.288.323s.4,0,.471.268A3.749,3.749,0,0,0,2567.186,1529.434Z" transform="translate(0 0)" fill="#0e1116"/>
      <path id="Path_18070" data-name="Path 18070" d="M2658.328,1786.458a1.655,1.655,0,1,1,1.672-1.645A1.65,1.65,0,0,1,2658.328,1786.458Z" transform="translate(-92.347 -246.04)" fill="#0e1116"/>
      <path id="Path_18071" data-name="Path 18071" d="M2751.538,1784.809a1.645,1.645,0,0,1-1.636,1.653,1.655,1.655,0,1,1,1.636-1.653Z" transform="translate(-178.023 -246.043)" fill="#0e1116"/>
      <path id="Path_18072" data-name="Path 18072" d="M2715.917,1622.756a1.283,1.283,0,1,1,1.274,1.289A1.281,1.281,0,0,1,2715.917,1622.756Z" transform="translate(-147.783 -94.718)" fill="#0e1116"/>
    </g>
  </g>
</svg>
