<svg xmlns="http://www.w3.org/2000/svg" width="70" height="70" viewBox="0 0 70 70">
  <g id="Group_23574" data-name="Group 23574" transform="translate(-195 -1451.533)">
    <circle id="Ellipse_942" data-name="Ellipse 942" cx="35" cy="35" r="35" transform="translate(195 1451.533)" fill="#c8a670"/>
    <g id="Group_24098" data-name="Group 24098" transform="translate(-173.264 -184.658)">
      <path id="Path_19345" data-name="Path 19345" d="M465.105,1719.02c-.647,1.728-1.595,2.511-3.011,2.508s-2.361-.785-3-2.508h-4.113a1.459,1.459,0,0,1-1.083-2.489,8.36,8.36,0,0,0,1.84-2.8,5.2,5.2,0,0,0,.358-1.9,25.277,25.277,0,0,1,.06-3.182,5.606,5.606,0,0,1,3.807-4.795c.237-.092.313-.194.3-.438a6.61,6.61,0,0,1,.03-1.08,1.823,1.823,0,0,1,3.612.01,9.167,9.167,0,0,1,.032,1.142.294.294,0,0,0,.224.337,5.807,5.807,0,0,1,3.951,5.634c0,.794.011,1.589,0,2.383a5.976,5.976,0,0,0,1.255,3.552,10.116,10.116,0,0,0,.889,1.07,1.463,1.463,0,0,1,.359,1.674,1.433,1.433,0,0,1-1.463.884C467.806,1719.012,466.463,1719.02,465.105,1719.02Zm-3.011-.99q3.518,0,7.036,0c.242,0,.464-.025.572-.273s-.022-.442-.191-.632a13.455,13.455,0,0,1-.947-1.142,6.981,6.981,0,0,1-1.45-4.436c.034-.761.012-1.526,0-2.289a4.552,4.552,0,0,0-.594-2.247,4.885,4.885,0,0,0-4.666-2.531,4.806,4.806,0,0,0-4.716,4.248,25.3,25.3,0,0,0-.056,3.057,6.327,6.327,0,0,1-.545,2.609,9.261,9.261,0,0,1-1.887,2.771.508.508,0,0,0-.16.583.48.48,0,0,0,.535.279c.072,0,.145,0,.217,0Zm1.913,1.008h-3.819a1.96,1.96,0,0,0,3.819,0Zm-2.732-15.523h1.64a10.313,10.313,0,0,0-.007-1.06.782.782,0,0,0-.8-.707.807.807,0,0,0-.826.686A9.248,9.248,0,0,0,461.276,1703.515Z" transform="translate(-58.977 -39.579)" fill="#0e1116"/>
      <path id="Path_19346" data-name="Path 19346" d="M634.392,1720.714c-.108.51-.2,1.026-.33,1.53a.482.482,0,0,1-.631.385.5.5,0,0,1-.3-.7,3.814,3.814,0,0,0-2.227-4.8c-.331-.148-.461-.406-.344-.686s.387-.354.738-.222A4.948,4.948,0,0,1,634.392,1720.714Z" transform="translate(-221.403 -53.702)" fill="#0e1116"/>
      <path id="Path_19347" data-name="Path 19347" d="M438.789,1720.631a4.971,4.971,0,0,1,3.087-4.5c.217-.083.444-.123.6.069a.592.592,0,0,1,.135.465.775.775,0,0,1-.39.387,3.728,3.728,0,0,0-2.344,3.163,5.757,5.757,0,0,0,.164,1.581c.07.387.009.635-.29.736s-.556-.047-.654-.431C438.971,1721.618,438.889,1721.122,438.789,1720.631Z" transform="translate(-45.525 -53.61)" fill="#0e1116"/>
      <path id="Path_19348" data-name="Path 19348" d="M461.623,1740.458a2.889,2.889,0,0,1,1.39-2.512,1.668,1.668,0,0,1,.533-.229.5.5,0,0,1,.619.325.509.509,0,0,1-.307.6,3.794,3.794,0,0,0-.459.252,1.9,1.9,0,0,0-.736,1.993c.017.07.041.138.058.208a.488.488,0,0,1-.272.614.439.439,0,0,1-.6-.223,8.228,8.228,0,0,1-.3-1.017Z" transform="translate(-66.401 -73.455)" fill="#0e1116"/>
      <path id="Path_19349" data-name="Path 19349" d="M625.18,1740.415a6.029,6.029,0,0,1-.153.788.531.531,0,0,1-.692.4c-.261-.1-.354-.349-.26-.7a1.912,1.912,0,0,0-1.087-2.352c-.33-.155-.465-.39-.369-.645a.537.537,0,0,1,.779-.267,2.868,2.868,0,0,1,1.664,1.952A7.917,7.917,0,0,1,625.18,1740.415Z" transform="translate(-214.132 -73.335)" fill="#0e1116"/>
    </g>
  </g>
</svg>
