<svg xmlns="http://www.w3.org/2000/svg" width="70" height="70" viewBox="0 0 70 70">
  <g id="Group_23574" data-name="Group 23574" transform="translate(-195 -1451.533)">
    <circle id="Ellipse_942" data-name="Ellipse 942" cx="35" cy="35" r="35" transform="translate(195 1451.533)" fill="#fdac8c"/>
    <g id="Group_24095" data-name="Group 24095" transform="translate(783.243 392.811)">
      <path id="Path_19318" data-name="Path 19318" d="M-560.843,1085.26c0-.212,0-.393,0-.574a.981.981,0,0,1,.943-.963.969.969,0,0,1,.994.9c.015.2,0,.4,0,.62h1.244c0-.194-.007-.393,0-.592a.977.977,0,0,1,.889-.928.971.971,0,0,1,1.015.705,1.87,1.87,0,0,1,.04.394c.006.138,0,.277,0,.436h1.237c0-.186,0-.358,0-.53a.985.985,0,0,1,.961-1.01.978.978,0,0,1,.982.986c.006.179,0,.359,0,.544h1.241c0-.188,0-.368,0-.547a.984.984,0,0,1,.946-.983.969.969,0,0,1,.993.906c.017.2,0,.4,0,.619h1.24c0-.169,0-.341,0-.512a.987.987,0,0,1,.958-1.013.98.98,0,0,1,.989.981c.008.179,0,.358,0,.559h1.3a.955.955,0,0,1,1.073,1.067c0,.642.024,1.284.023,1.925q-.008,4.975-.027,9.95a.668.668,0,0,0,.17.467,3.269,3.269,0,0,1,.59,3.485,3.275,3.275,0,0,1-2.793,2.14,3.358,3.358,0,0,1-2.307-.566.824.824,0,0,0-.422-.128q-6.764-.01-13.529-.006a2.927,2.927,0,0,1-.376-.017.921.921,0,0,1-.778-.815c-.009-.1-.008-.209-.008-.314q0-6.914,0-13.828c0-.782,0-1.564,0-2.346a.932.932,0,0,1,1.013-1.018C-561.776,1085.259-561.324,1085.26-560.843,1085.26Zm-1.753,3.324c0,.06-.006.1-.006.143q0,6.924,0,13.848c0,.277.1.381.377.381h13.13a.878.878,0,0,0,.137-.022,3.433,3.433,0,0,1,.122-4.2,3.334,3.334,0,0,1,1.746-1.13,3.419,3.419,0,0,1,2.655.364v-9.384Zm-.006-.669h18.177c0-.577,0-1.135,0-1.693a.282.282,0,0,0-.272-.315c-.479-.015-.959-.005-1.46-.005,0,.159.006.3,0,.435a1.853,1.853,0,0,1-.049.413.981.981,0,0,1-1.047.689.977.977,0,0,1-.861-.93c-.009-.2,0-.4,0-.6h-1.222c0,.151.005.289,0,.427a1.869,1.869,0,0,1-.043.394.987.987,0,0,1-1.054.708.977.977,0,0,1-.861-.931c-.008-.2,0-.4,0-.6h-1.229c0,.19.008.37,0,.55a.983.983,0,0,1-1,.984.979.979,0,0,1-.946-1.018c0-.172,0-.343,0-.517h-1.232c0,.211.016.413,0,.611a.977.977,0,0,1-1.019.923.979.979,0,0,1-.928-1.015c0-.172,0-.344,0-.52h-1.2c-.016.251-.014.5-.05.734a.969.969,0,0,1-1.02.8.976.976,0,0,1-.906-.951c0-.193,0-.386,0-.591-.51,0-.99-.007-1.47,0a.279.279,0,0,0-.285.3C-562.6,1086.771-562.6,1087.337-562.6,1087.915Zm16.38,15.761a2.776,2.776,0,0,0,2.8-2.739,2.783,2.783,0,0,0-2.711-2.807,2.78,2.78,0,0,0-2.843,2.76A2.779,2.779,0,0,0-546.221,1103.677Zm-6.965-18.109h.012c0-.265,0-.529,0-.794s-.117-.4-.323-.4-.336.138-.337.39q0,.815,0,1.63c0,.254.115.381.316.383s.323-.134.327-.4S-553.187,1085.839-553.187,1085.568Zm-3.833.012h.006c0,.272,0,.544,0,.815,0,.255.113.381.315.383s.328-.137.33-.393q.007-.8.008-1.609c0-.255-.118-.4-.322-.4s-.333.137-.337.39C-557.023,1085.036-557.02,1085.308-557.02,1085.58Zm7.016,0h.015c0-.271,0-.543,0-.814,0-.242-.118-.381-.314-.387s-.341.132-.343.382q-.007.814,0,1.629c0,.264.12.4.329.392s.309-.138.313-.387C-550,1086.119-550,1085.848-550,1085.576Zm3.183,0h.015c0-.271,0-.543,0-.814,0-.24-.12-.379-.318-.383s-.338.134-.34.386q-.007.814,0,1.629c0,.261.124.394.333.388s.306-.14.309-.391C-546.818,1086.115-546.821,1085.844-546.821,1085.572Zm-12.726,0h0c0-.292.006-.585,0-.877a.3.3,0,0,0-.3-.317.313.313,0,0,0-.35.283.814.814,0,0,0-.008.146c0,.529.006,1.058.013,1.586,0,.255.109.382.31.384s.329-.139.332-.392C-559.544,1086.113-559.547,1085.842-559.547,1085.57Z" transform="translate(0)" fill="#0e1116"/>
      <path id="Path_19319" data-name="Path 19319" d="M-461.938,1185.642c0,.356,0,.713,0,1.069,0,.268-.114.382-.384.384q-1.079.005-2.157,0c-.276,0-.39-.121-.391-.4q0-1.058,0-2.116c0-.3.109-.41.4-.411q1.068,0,2.136,0c.287,0,.393.107.4.39C-461.936,1184.916-461.938,1185.279-461.938,1185.642Zm-.654.8v-1.62H-464.2v1.62Z" transform="translate(-92.153 -94.091)" fill="#0e1116"/>
      <path id="Path_19320" data-name="Path 19320" d="M-398.443,1184.164c.356,0,.712,0,1.068,0,.273,0,.384.11.385.379q0,1.089,0,2.179c0,.255-.115.372-.373.373q-1.089.006-2.178,0c-.263,0-.379-.124-.38-.393q0-1.079,0-2.158c0-.266.119-.377.389-.38C-399.169,1184.161-398.806,1184.164-398.443,1184.164Zm-.815.648v1.622h1.617v-1.622Z" transform="translate(-152.996 -94.093)" fill="#0e1116"/>
      <path id="Path_19321" data-name="Path 19321" d="M-332.039,1185.623c0,.363,0,.726,0,1.09,0,.259-.112.376-.368.378q-1.1.007-2.2,0a.327.327,0,0,1-.364-.366q-.007-1.1,0-2.2a.321.321,0,0,1,.363-.363q1.11-.006,2.22,0a.311.311,0,0,1,.348.351C-332.036,1184.883-332.039,1185.253-332.039,1185.623Zm-.65-.806h-1.623v1.614h1.623Z" transform="translate(-213.841 -94.088)" fill="#0e1116"/>
      <path id="Path_19322" data-name="Path 19322" d="M-332.035,1252.545c0,.349,0,.7,0,1.048,0,.286-.108.4-.387.4q-1.079.006-2.157,0c-.267,0-.387-.122-.388-.386q-.005-1.079,0-2.158c0-.269.115-.388.382-.389q1.089-.007,2.178,0c.267,0,.37.117.372.393C-332.033,1251.818-332.035,1252.182-332.035,1252.545Zm-2.269-.832v1.622h1.617v-1.622Z" transform="translate(-213.844 -156.76)" fill="#0e1116"/>
      <path id="Path_19323" data-name="Path 19323" d="M-396.987,1252.542c0,.356,0,.713,0,1.069,0,.267-.114.383-.384.385q-1.079.006-2.157,0c-.276,0-.39-.123-.391-.405q0-1.069,0-2.137c0-.271.114-.39.379-.392q1.089-.007,2.178,0c.268,0,.373.117.375.391C-396.985,1251.815-396.987,1252.179-396.987,1252.542Zm-.652.8v-1.622h-1.617v1.622Z" transform="translate(-152.998 -156.759)" fill="#0e1116"/>
      <path id="Path_19324" data-name="Path 19324" d="M-461.941,1252.536c0,.349,0,.7,0,1.048,0,.3-.1.412-.4.414q-1.068.005-2.136,0c-.279,0-.4-.121-.4-.4q0-1.069,0-2.137c0-.282.113-.4.393-.4q1.079-.006,2.157,0c.272,0,.38.114.382.384C-461.938,1251.809-461.941,1252.173-461.941,1252.536Zm-2.274.8h1.619v-1.61h-1.619Z" transform="translate(-92.15 -156.761)" fill="#0e1116"/>
      <path id="Path_19325" data-name="Path 19325" d="M-526.9,1185.64c0,.349,0,.7,0,1.047,0,.285-.11.4-.387.4q-1.078.006-2.157,0c-.267,0-.387-.12-.388-.385q-.006-1.079,0-2.158c0-.27.115-.387.381-.388q1.089,0,2.178,0c.267,0,.371.114.373.39C-526.9,1184.914-526.9,1185.277-526.9,1185.64Zm-.654.8v-1.621h-1.614v1.621Z" transform="translate(-31.297 -94.088)" fill="#0e1116"/>
      <path id="Path_19326" data-name="Path 19326" d="M-526.9,1319.361c0,.356,0,.712,0,1.069,0,.269-.111.382-.383.383q-1.079.006-2.157,0c-.279,0-.391-.118-.392-.4q0-1.069,0-2.137c0-.277.119-.4.4-.4q1.068-.006,2.136,0c.293,0,.4.113.4.414C-526.895,1318.649-526.9,1319.005-526.9,1319.361Zm-2.268-.823v1.618h1.614v-1.618Z" transform="translate(-31.299 -219.354)" fill="#0e1116"/>
      <path id="Path_19327" data-name="Path 19327" d="M-461.941,1319.366c0,.356,0,.711,0,1.067,0,.27-.109.38-.382.381q-1.077.006-2.153,0c-.281,0-.4-.117-.4-.4q0-1.067,0-2.134c0-.289.116-.405.41-.407q1.066-.005,2.133,0c.281,0,.388.116.39.4C-461.939,1318.641-461.941,1319-461.941,1319.366Zm-.656.793v-1.611h-1.617v1.611Z" transform="translate(-92.15 -219.354)" fill="#0e1116"/>
      <path id="Path_19328" data-name="Path 19328" d="M-526.9,1252.538c0,.356,0,.712,0,1.068,0,.27-.112.39-.379.392q-1.089.008-2.178,0a.333.333,0,0,1-.375-.378q-.006-1.089,0-2.179a.328.328,0,0,1,.373-.377q1.1-.007,2.2,0c.247,0,.357.118.36.363C-526.9,1251.8-526.9,1252.167-526.9,1252.538Zm-.65-.813h-1.623v1.614h1.623Z" transform="translate(-31.296 -156.762)" fill="#0e1116"/>
      <path id="Path_19329" data-name="Path 19329" d="M-396.986,1319.367c0,.349,0,.7,0,1.046,0,.288-.1.4-.385.4q-1.077.006-2.154,0c-.279,0-.392-.117-.393-.4q0-1.067,0-2.133c0-.281.114-.4.392-.4q1.077-.007,2.153,0c.279,0,.386.117.388.4C-396.984,1318.641-396.986,1319-396.986,1319.367Zm-2.268-.83v1.618h1.614v-1.618Z" transform="translate(-152.999 -219.352)" fill="#0e1116"/>
      <path id="Path_19330" data-name="Path 19330" d="M-299.026,1334.177c0-.269,0-.45,0-.631a.332.332,0,0,1,.313-.37c.188,0,.316.136.325.356a.212.212,0,0,1,0,.042,2.387,2.387,0,0,0,.573,1.93,1.714,1.714,0,0,1,.165.266.315.315,0,0,1-.1.44.312.312,0,0,1-.439-.1c-.127-.183-.238-.376-.356-.565a2.217,2.217,0,0,0-.122-.194A1.4,1.4,0,0,1-299.026,1334.177Z" transform="translate(-247.492 -233.688)" fill="#0e1116"/>
    </g>
  </g>
</svg>
