<svg xmlns="http://www.w3.org/2000/svg" width="70" height="70" viewBox="0 0 70 70">
  <g id="Group_23574" data-name="Group 23574" transform="translate(-195 -1451.533)">
    <circle id="Ellipse_942" data-name="Ellipse 942" cx="35" cy="35" r="35" transform="translate(195 1451.533)" fill="#a6c7ea"/>
    <g id="Group_24099" data-name="Group 24099" transform="translate(-706.701 -0.268)">
      <path id="Path_19350" data-name="Path 19350" d="M937.139,1479.678c.523-.862,1.029-1.681,1.518-2.509a.668.668,0,0,1,.648-.368c2.444.01,4.888.005,7.333.006.589,0,.762.288.478.8q-1.965,3.541-3.936,7.079a.351.351,0,0,0,.02.447,7.706,7.706,0,1,1-13.831,5.758,7.59,7.59,0,0,1,1.395-5.767.332.332,0,0,0,.019-.423q-1.955-3.5-3.9-7.009a2.658,2.658,0,0,1-.148-.284.419.419,0,0,1,.343-.593,1.794,1.794,0,0,1,.241-.005c2.435,0,4.871,0,7.306-.006a.752.752,0,0,1,.689.358c.536.767,1.091,1.521,1.64,2.28C937.006,1479.51,937.061,1479.577,937.139,1479.678Zm-.163,3.125a6.853,6.853,0,1,0,6.853,6.839A6.857,6.857,0,0,0,936.976,1482.8Zm-.195-.862a7.81,7.81,0,0,1,5.674,2.285l3.637-6.55c-.069-.006-.1-.012-.134-.012-2.141,0-4.282,0-6.423-.006-.175,0-.23.1-.3.209l-2.314,3.819C936.878,1481.76,936.839,1481.837,936.782,1481.941Zm-.126-1.459c-.657-.911-1.3-1.81-1.957-2.7a.446.446,0,0,0-.32-.116q-3.129-.01-6.259-.005h-.266l3.637,6.549a.727.727,0,0,0,.094-.061,7.723,7.723,0,0,1,3.942-2.069.389.389,0,0,0,.231-.148C936.061,1481.461,936.35,1480.981,936.656,1480.482Z" fill="#0e1116"/>
      <path id="Path_19351" data-name="Path 19351" d="M1007.719,1598.652c.09-.525.166-1.129.3-1.717a.832.832,0,0,0-.295-.948c-.423-.354-.8-.766-1.2-1.148a.753.753,0,0,1-.248-.843.775.775,0,0,1,.717-.51c.645-.082,1.287-.188,1.931-.277a.369.369,0,0,0,.317-.233c.282-.6.583-1.182.871-1.775a.753.753,0,0,1,1.408-.007c.284.585.585,1.162.856,1.752a.449.449,0,0,0,.407.274c.618.084,1.234.18,1.852.265a.781.781,0,0,1,.724.542.8.8,0,0,1-.293.858c-.468.439-.93.885-1.381,1.343a.465.465,0,0,0-.114.344c.1.67.212,1.337.326,2a.732.732,0,0,1-.283.758.7.7,0,0,1-.8.056c-.6-.317-1.2-.629-1.793-.953a.386.386,0,0,0-.419,0c-.594.324-1.191.645-1.8.947A.746.746,0,0,1,1007.719,1598.652Zm.893-.115c.662-.351,1.278-.669,1.885-1a.616.616,0,0,1,.653-.006c.5.275,1.005.537,1.509.8l.383.2c-.126-.744-.231-1.429-.361-2.11a.594.594,0,0,1,.188-.6c.458-.436.909-.881,1.362-1.323.051-.05.095-.109.162-.187-.708-.1-1.368-.2-2.03-.286a.692.692,0,0,1-.613-.433c-.2-.455-.435-.9-.656-1.344-.08-.163-.165-.323-.27-.529-.317.641-.625,1.222-.893,1.821a.766.766,0,0,1-.688.492c-.651.075-1.3.184-1.912.273.335.36.664.732,1.012,1.084.821.829.7.508.522,1.633C1008.787,1597.511,1008.7,1598,1008.612,1598.537Z" transform="translate(-73.85 -105.765)" fill="#0e1116"/>
    </g>
  </g>
</svg>
