<svg xmlns="http://www.w3.org/2000/svg" width="70" height="70" viewBox="0 0 70 70">
  <g id="Group_23574" data-name="Group 23574" transform="translate(-195 -1451.533)">
    <circle id="Ellipse_942" data-name="Ellipse 942" cx="35" cy="35" r="35" transform="translate(195 1451.533)" fill="#c2dbe0"/>
    <g id="Group_24093" data-name="Group 24093" transform="translate(177.867 819.608)">
      <path id="Path_19303" data-name="Path 19303" d="M43.322,679.288a3.687,3.687,0,0,1-.557-.253,1.4,1.4,0,0,1-.632-1.236q0-6.281,0-12.561c0-.324.122-.508.364-.564a.446.446,0,0,1,.555.318,1.255,1.255,0,0,1,.031.329q0,6.161,0,12.323c0,.551.141.693.688.693H60.666c.551,0,.693-.141.693-.688q0-10.539,0-21.077c0-.552-.141-.694-.687-.694H51.464a1.737,1.737,0,0,1-.261-.009.47.47,0,0,1,.009-.934,1.482,1.482,0,0,1,.214-.008q4.664,0,9.327,0a1.442,1.442,0,0,1,1.558,1.557q0,10.622,0,21.244c0,.811-.294,1.193-1.189,1.56Z" transform="translate(0)" fill="#0e1116"/>
      <path id="Path_19304" data-name="Path 19304" d="M108.909,696.717a4.789,4.789,0,0,1,2.4-2.043,6.12,6.12,0,0,1-.532-1.138,2.68,2.68,0,0,1,.818-2.866,2.32,2.32,0,0,1,3.613,1.094,2.932,2.932,0,0,1-.22,2.432c-.088.149-.2.281-.329.449a4.867,4.867,0,0,1,2.463,2.068,5.018,5.018,0,0,0,.939-1.6,5.363,5.363,0,0,0-3.97-7.107,10.447,10.447,0,0,0-1.654-.081c-.095,0-.19.015-.285.015a.468.468,0,0,1-.5-.409.456.456,0,0,1,.391-.513,6.163,6.163,0,0,1,.946-.081,6.325,6.325,0,1,1-6.2,7.485.493.493,0,0,1,.337-.639c.3-.068.532.1.6.458a5.334,5.334,0,0,0,1.071,2.354C108.832,696.631,108.864,696.665,108.909,696.717Zm.709.687a5.3,5.3,0,0,0,6.781,0,3.794,3.794,0,0,0-6.781,0Zm4.78-4.652c0-.1,0-.185,0-.271a1.377,1.377,0,0,0-2.753-.01,4.361,4.361,0,0,0,.006.617,1.37,1.37,0,0,0,2.086,1.058A1.409,1.409,0,0,0,114.4,692.752Z" transform="translate(-60.797 -30.103)" fill="#0e1116"/>
      <path id="Path_19305" data-name="Path 19305" d="M46.037,662.742a3.9,3.9,0,1,1,3.913-3.9A3.915,3.915,0,0,1,46.037,662.742Zm.014-6.85A2.949,2.949,0,1,0,49,658.844,2.958,2.958,0,0,0,46.05,655.892Z" transform="translate(-0.013 -0.014)" fill="#0e1116"/>
      <path id="Path_19306" data-name="Path 19306" d="M167.748,928.991h-3.164a1.982,1.982,0,0,1-.214,0,.473.473,0,0,1,.011-.945,1.169,1.169,0,0,1,.119,0h6.519c.04,0,.079,0,.119,0a.47.47,0,0,1,.473.467.462.462,0,0,1-.483.479c-.349.012-.7,0-1.047,0Z" transform="translate(-114.527 -256.841)" fill="#0e1116"/>
      <path id="Path_19307" data-name="Path 19307" d="M167.772,973.7H164.56a1.405,1.405,0,0,1-.237-.011.469.469,0,0,1,.009-.93,1.528,1.528,0,0,1,.237-.009h6.376c.063,0,.127,0,.19,0a.469.469,0,0,1,.473.466.465.465,0,0,1-.483.48c-.229.011-.46,0-.69,0Z" transform="translate(-114.527 -298.888)" fill="#0e1116"/>
      <path id="Path_19308" data-name="Path 19308" d="M130.325,929.048a.472.472,0,1,1,.476-.465A.481.481,0,0,1,130.325,929.048Z" transform="translate(-82.507 -256.901)" fill="#0e1116"/>
      <path id="Path_19309" data-name="Path 19309" d="M130.34,973.757a.473.473,0,0,1-.012-.945.473.473,0,0,1,.012.945Z" transform="translate(-82.507 -298.946)" fill="#0e1116"/>
      <path id="Path_19310" data-name="Path 19310" d="M42.679,788.356a.472.472,0,1,1-.48.464A.49.49,0,0,1,42.679,788.356Z" transform="translate(-0.062 -125.481)" fill="#0e1116"/>
      <path id="Path_19311" data-name="Path 19311" d="M77.693,700.422c.48-.48.938-.939,1.4-1.4a1.778,1.778,0,0,1,.23-.2.46.46,0,0,1,.589.042.468.468,0,0,1,.056.607,1.268,1.268,0,0,1-.154.18q-.831.834-1.665,1.665c-.334.332-.558.332-.892,0-.236-.235-.474-.468-.706-.707a.485.485,0,0,1-.049-.717.477.477,0,0,1,.717.046C77.377,700.089,77.526,700.251,77.693,700.422Z" transform="translate(-32.192 -41.198)" fill="#0e1116"/>
    </g>
  </g>
</svg>
