<svg xmlns="http://www.w3.org/2000/svg" width="70" height="70" viewBox="0 0 70 70">
  <g id="Group_23574" data-name="Group 23574" transform="translate(-195 -1451.533)">
    <circle id="Ellipse_942" data-name="Ellipse 942" cx="35" cy="35" r="35" transform="translate(195 1451.533)" fill="#ccd7c6"/>
    <g id="Group_24101" data-name="Group 24101" transform="translate(-1551.8 224.711)">
      <path id="Path_19359" data-name="Path 19359" d="M1784.648,1264.252v5.273c.256,0,.5,0,.746,0,.328,0,.457.122.452.442a7.508,7.508,0,0,1-.052,1.229,1.821,1.821,0,0,1-1.8,1.468q-4.837.005-9.674,0a1.7,1.7,0,0,1-1.693-1.567c-.01-.119-.013-.239-.013-.359q0-2.829,0-5.657v-.318h-1.288c-.429,0-.527-.1-.527-.526q0-2,0-4a2.163,2.163,0,0,1,2.243-2.254c.486,0,.973-.006,1.459,0a.285.285,0,0,0,.286-.154,5.935,5.935,0,0,1,2.771-2.364.353.353,0,0,0,.239-.284c.054-.286.118-.571.183-.855a.364.364,0,0,1,.6-.257c.63.373,1.257.752,1.9,1.137a6.269,6.269,0,0,1,4.281-3.237,6.047,6.047,0,0,1,4.062.493,6.359,6.359,0,0,1,3.414,6.865,6.212,6.212,0,0,1-2.782,4.048A6.083,6.083,0,0,1,1784.648,1264.252Zm-.742,5.271c.005-.061.011-.1.011-.132,0-1.736,0-3.473,0-5.209,0-.149-.075-.184-.185-.229a6.144,6.144,0,0,1-3.533-3.583c-.182-.47-.279-.973-.419-1.474-.254.226-.52.465-.789.7s-.535.167-.656-.177c-.081-.229-.158-.459-.239-.7a3.032,3.032,0,0,0-1.3.685,3.436,3.436,0,0,0-.735,4.051c.112.225.089.4-.078.518a.34.34,0,0,1-.484-.061,5.091,5.091,0,0,1-1.442-4.032,9.35,9.35,0,0,1,.24-1.165h-.968V1259q0,5.883,0,11.765c0,.09,0,.18.009.269a.994.994,0,0,0,1.032.916,1.01,1.01,0,0,0,.962-.994c.006-.3,0-.6,0-.9,0-.432.1-.532.529-.532h8.037Zm-1.537-13.021a4.919,4.919,0,0,1-.35.4,12.417,12.417,0,0,1-1.077.949.889.889,0,0,0-.4,1.049c.033.122.039.251.065.375a5.647,5.647,0,0,0,6.836,4.247,5.157,5.157,0,0,0,1.84-.874c-.2-.355-.39-.7-.6-1.037a3.138,3.138,0,0,1,1.59-4.637,9.114,9.114,0,0,1,1.163-.252.632.632,0,0,0-.016-.075,5.5,5.5,0,0,0-3.25-3.685.335.335,0,0,0-.4.07,2.507,2.507,0,0,0-.321,3.316,2.373,2.373,0,0,1,.551,1.791,1.993,1.993,0,0,1-1.908,1.883,2.092,2.092,0,0,1-2.109-1.623A2.535,2.535,0,0,0,1782.369,1256.5Zm4.745-3.838a5.516,5.516,0,0,0-5.992,2.947,1.171,1.171,0,0,0,.2.018,2.991,2.991,0,0,1,1.987.557,3.339,3.339,0,0,1,1.408,2.108,1.261,1.261,0,0,0,1.177,1,1.22,1.22,0,0,0,1.292-.766,1.6,1.6,0,0,0-.258-1.685,2.925,2.925,0,0,1-.655-2.239A3.215,3.215,0,0,1,1787.114,1252.664Zm-1.994,17.591h-9.075a6.307,6.307,0,0,1-.008.857,6.493,6.493,0,0,1-.226.835h5.859c.771,0,1.541,0,2.312,0a1.143,1.143,0,0,0,1.135-.982A6.667,6.667,0,0,0,1785.12,1270.256Zm-6.529-15.342c-.051.232-.111.426-.135.625a.606.606,0,0,1-.445.522,5.052,5.052,0,0,0-3.052,3.089,3.828,3.828,0,0,0,0,2.509,7.809,7.809,0,0,1,.158-.831,3.942,3.942,0,0,1,3.035-2.866c.333-.078.456.01.57.34.047.137.1.274.153.439l2.455-2.183Zm13.009,2.6c-.133-.008-.236-.021-.34-.018a2.432,2.432,0,0,0-2.155,3.357,14.777,14.777,0,0,0,.756,1.341A5.574,5.574,0,0,0,1791.6,1257.514Zm-19,1.242a2.231,2.231,0,0,0-.263.094,1.4,1.4,0,0,0-.82,1.311c-.006,1.233,0,2.465,0,3.7,0,.057.009.114.014.173h1.07Z" transform="translate(0 0)" fill="#0e1116"/>
      <path id="Path_19360" data-name="Path 19360" d="M1829.135,1485.585q1.919,0,3.839,0c.3,0,.478.162.44.4a.337.337,0,0,1-.306.309,1.541,1.541,0,0,1-.2,0h-7.587a1.587,1.587,0,0,1-.2,0,.341.341,0,0,1-.308-.354.337.337,0,0,1,.287-.35,1.25,1.25,0,0,1,.246-.01Z" transform="translate(-50.769 -219.744)" fill="#0e1116"/>
      <path id="Path_19361" data-name="Path 19361" d="M1829.091,1522.247h-3.771a1.564,1.564,0,0,1-.2,0,.341.341,0,0,1-.309-.353.338.338,0,0,1,.286-.351,1.224,1.224,0,0,1,.246-.01h7.609c.309,0,.467.125.467.359s-.158.359-.466.359Z" transform="translate(-50.77 -253.532)" fill="#0e1116"/>
      <path id="Path_19362" data-name="Path 19362" d="M1862.88,1414.422c-.576,0-1.152,0-1.728,0-.271,0-.423-.13-.426-.353s.15-.363.417-.364q1.728,0,3.457,0c.271,0,.424.133.426.355s-.153.362-.44.362C1864.017,1414.423,1863.448,1414.422,1862.88,1414.422Z" transform="translate(-84.532 -152.174)" fill="#0e1116"/>
      <path id="Path_19363" data-name="Path 19363" d="M1862.877,1450.366c-.576,0-1.152,0-1.728,0-.27,0-.422-.132-.423-.356s.152-.36.42-.36q1.728,0,3.457,0c.269,0,.423.135.423.358s-.152.358-.421.359C1864.029,1450.367,1863.453,1450.366,1862.877,1450.366Z" transform="translate(-84.533 -185.962)" fill="#0e1116"/>
    </g>
  </g>
</svg>
