<svg xmlns="http://www.w3.org/2000/svg" width="70" height="70" viewBox="0 0 70 70">
  <g id="Group_23574" data-name="Group 23574" transform="translate(-195 -1451.533)">
    <circle id="Ellipse_942" data-name="Ellipse 942" cx="35" cy="35" r="35" transform="translate(195 1451.533)" fill="#eecb8e"/>
    <g id="Group_24096" data-name="Group 24096" transform="translate(844.556 -42.333)">
      <path id="Path_19331" data-name="Path 19331" d="M-529.72,1526.7c0-1.235-.008-2.469,0-3.7a5.1,5.1,0,0,1,3.807-4.955,5.109,5.109,0,0,1,6.366,4.26,6.08,6.08,0,0,1,.047.76q.005,3.649,0,7.3a5.091,5.091,0,0,1-4.051,5.067,5.11,5.11,0,0,1-6.119-4.307,9.137,9.137,0,0,1-.05-1.086C-529.724,1528.92-529.721,1527.809-529.72,1526.7Zm9.3-.466c0-1.055,0-2.086,0-3.117a6.246,6.246,0,0,0-.039-.673,4.186,4.186,0,0,0-3.971-3.641,4.185,4.185,0,0,0-4.359,4.227c0,.995,0,1.99,0,2.985,0,.07.007.14.011.219Zm-8.371.946c0,1.056,0,2.087,0,3.118a6.246,6.246,0,0,0,.039.673,4.194,4.194,0,0,0,4.259,3.639,4.186,4.186,0,0,0,4.072-4.235c0-.995,0-1.99,0-2.985,0-.07-.006-.139-.01-.21Z" transform="translate(-90.253)" fill="#0e1116"/>
      <path id="Path_19332" data-name="Path 19332" d="M-554.66,1733.029a7.029,7.029,0,0,1-6.92-6.133c-.03-.23-.043-.463-.05-.695-.012-.408.152-.632.453-.637s.459.2.473.6a5.8,5.8,0,0,0,1.441,3.767,5.78,5.78,0,0,0,6.155,1.919,5.822,5.822,0,0,0,4.41-4.829,7.608,7.608,0,0,0,.087-.953c.022-.313.21-.515.481-.5a.478.478,0,0,1,.447.538,6.975,6.975,0,0,1-5.746,6.785C-553.836,1732.954-554.249,1732.982-554.66,1733.029Z" transform="translate(-60.204 -195.604)" fill="#0e1116"/>
      <path id="Path_19333" data-name="Path 19333" d="M-592.766,1601.954q0,1.776,0,3.552a1.218,1.218,0,0,1-.03.3.435.435,0,0,1-.436.326.434.434,0,0,1-.438-.323,1.306,1.306,0,0,1-.031-.323q0-3.53,0-7.061a1.385,1.385,0,0,1,.024-.3.454.454,0,0,1,.442-.352.455.455,0,0,1,.444.349,1.241,1.241,0,0,1,.025.281Q-592.764,1600.178-592.766,1601.954Z" transform="translate(-29.998 -75.253)" fill="#0e1116"/>
      <path id="Path_19334" data-name="Path 19334" d="M-494.554,1870.216h-2.613a1.433,1.433,0,0,1-.26-.013.462.462,0,0,1-.362-.457.472.472,0,0,1,.379-.446.786.786,0,0,1,.152-.009q2.722,0,5.444,0c.388,0,.622.293.5.621a.472.472,0,0,1-.5.3Q-493.182,1870.218-494.554,1870.216Z" transform="translate(-120.328 -330.962)" fill="#0e1116"/>
      <path id="Path_19335" data-name="Path 19335" d="M-306.163,1664.074c0-.6,0-1.191,0-1.786a.467.467,0,0,1,.42-.517.464.464,0,0,1,.514.51c.007.377,0,.755,0,1.132,0,.813,0,1.626,0,2.439,0,.314-.144.51-.388.547a.468.468,0,0,1-.546-.518C-306.167,1665.279-306.163,1664.676-306.163,1664.074Z" transform="translate(-300.796 -135.524)" fill="#0e1116"/>
      <path id="Path_19336" data-name="Path 19336" d="M-560.774,1632c0,.625.006,1.249,0,1.873a.453.453,0,0,1-.463.452.469.469,0,0,1-.456-.442c0-.029,0-.058,0-.087q0-1.8,0-3.594a.467.467,0,0,1,.688-.467.475.475,0,0,1,.238.457c0,.6,0,1.205,0,1.808Z" transform="translate(-60.14 -105.292)" fill="#0e1116"/>
      <path id="Path_19337" data-name="Path 19337" d="M-337.979,1632.05c0-.588,0-1.176,0-1.764,0-.346.188-.561.472-.553s.453.219.453.553q0,1.775,0,3.55c0,.33-.186.544-.464.544s-.46-.211-.461-.544C-337.981,1633.241-337.979,1632.645-337.979,1632.05Z" transform="translate(-270.833 -105.352)" fill="#0e1116"/>
      <path id="Path_19338" data-name="Path 19338" d="M-306.167,1599.168c0-.291,0-.581,0-.872a.479.479,0,0,1,.465-.524.476.476,0,0,1,.469.521q.009.872,0,1.743a.466.466,0,0,1-.465.519.47.47,0,0,1-.47-.515c0-.014,0-.029,0-.043Q-306.167,1599.582-306.167,1599.168Z" transform="translate(-300.792 -75.253)" fill="#0e1116"/>
      <path id="Path_19339" data-name="Path 19339" d="M-624.628,1647.077c0,.291,0,.581,0,.872a.462.462,0,0,1-.472.509.451.451,0,0,1-.452-.5q-.006-.883,0-1.765a.469.469,0,0,1,.468-.515.477.477,0,0,1,.456.531C-624.626,1646.5-624.628,1646.786-624.628,1647.077Z" transform="translate(0 -120.366)" fill="#0e1116"/>
      <path id="Path_19340" data-name="Path 19340" d="M-273.232,1647.085c0,.3,0,.6,0,.894a.45.45,0,0,1-.466.49.459.459,0,0,1-.457-.5q-.006-.894,0-1.787a.466.466,0,0,1,.469-.495.463.463,0,0,1,.454.485C-273.227,1646.475-273.232,1646.78-273.232,1647.085Z" transform="translate(-330.937 -120.377)" fill="#0e1116"/>
    </g>
  </g>
</svg>
