<svg xmlns="http://www.w3.org/2000/svg" width="56" height="56" viewBox="0 0 56 56">
  <g id="Group_23559" data-name="Group 23559" transform="translate(-195 -1451.533)">
    <circle id="Ellipse_942" data-name="Ellipse 942" cx="28" cy="28" r="28" transform="translate(195 1451.533)" fill="#ffd9d1"/>
    <g id="Group_24092" data-name="Group 24092" transform="translate(624.348 859.26)">
      <path id="Path_19295" data-name="Path 19295" d="M-409.871,626.5v-.257c0-3.111.016-6.222-.01-9.333a1.348,1.348,0,0,1,1.454-1.45c.385.025.772,0,1.19,0v-.255q0-2.08,0-4.16c0-.528.245-.771.778-.771q4.1,0,8.195,0a.632.632,0,0,1,.486.2q1.345,1.358,2.7,2.7a.573.573,0,0,1,.184.448c-.008.528,0,1.056,0,1.584v.254c.454,0,.888,0,1.322,0a1.283,1.283,0,0,1,.891.324,1.335,1.335,0,0,1,.436,1.057q0,3.885,0,7.771v1.918c.3,0,.579,0,.858,0,.316,0,.412.1.412.42a9.636,9.636,0,0,1-.014,1.013,1.893,1.893,0,0,1-1.731,1.706,3,3,0,0,1-.316.015q-8.121,0-16.242,0a1.9,1.9,0,0,1-1.863-1.1,2.36,2.36,0,0,1-.187-.77,7.957,7.957,0,0,1-.008-.907c0-.266.107-.371.371-.375.345,0,.69,0,1.035-.006C-409.92,626.526-409.908,626.516-409.871,626.5Zm3.281-1.981h11.047V613.812H-397.6c-.606,0-.819-.215-.819-.828q0-.75,0-1.5v-.558h-8.171Zm-4.114,2.647c0,.183,0,.331,0,.479a1.293,1.293,0,0,0,1.408,1.4q8.133,0,16.266,0a1.662,1.662,0,0,0,.5-.06c.8-.256,1.026-.942.884-1.821h-.375q-1.584,0-3.169,0c-.231,0-.339-.085-.36-.269-.026-.226.1-.361.355-.363.634,0,1.267,0,1.9,0h.412V626.3q0-4.709,0-9.419a1.7,1.7,0,0,0,0-.19.607.607,0,0,0-.533-.573c-.482-.026-.966-.007-1.474-.007v.261q0,4,0,8c0,.566-.228.8-.791.8h-10.752c-.562,0-.8-.236-.8-.792q0-4,0-8V616.1h-1.236c-.522,0-.761.238-.761.759q0,4.72,0,9.44v.234h11.944a1.189,1.189,0,0,1,.232.008.29.29,0,0,1,.254.333.281.281,0,0,1-.276.29,2.264,2.264,0,0,1-.232,0H-410.7Zm12.939-15.718v1.718h1.7Z" transform="translate(0 0)" fill="#0e1116"/>
      <path id="Path_19296" data-name="Path 19296" d="M-237.73,719.255h2.132a1.054,1.054,0,0,1,.231.012.292.292,0,0,1,.239.306.277.277,0,0,1-.22.3.805.805,0,0,1-.187.021h-4.39a.979.979,0,0,1-.105,0,.311.311,0,0,1-.312-.329.3.3,0,0,1,.333-.3c.76,0,1.52,0,2.279,0Z" transform="translate(-161.357 -102.833)" fill="#0e1116"/>
      <path id="Path_19297" data-name="Path 19297" d="M-237.752,808.333c.746,0,1.491,0,2.237,0,.179,0,.321.045.375.234a.293.293,0,0,1-.207.379.7.7,0,0,1-.187.02h-4.39a1.012,1.012,0,0,1-.105,0,.31.31,0,0,1-.313-.327.3.3,0,0,1,.332-.3c.429,0,.858,0,1.287,0Z" transform="translate(-161.357 -186.884)" fill="#0e1116"/>
      <path id="Path_19298" data-name="Path 19298" d="M-302.386,782.969c.178-.188.324-.35.479-.5a.306.306,0,0,1,.465-.034.315.315,0,0,1-.027.482c-.15.156-.309.3-.5.49.178.163.342.3.5.458a.314.314,0,0,1,.033.482c-.142.138-.307.125-.481-.043-.147-.142-.291-.286-.436-.428a.489.489,0,0,0-.064-.028c-.135.142-.279.3-.431.452-.179.177-.357.187-.5.037s-.114-.312.053-.481c.147-.15.3-.294.479-.469-.169-.162-.328-.307-.48-.46-.168-.169-.183-.341-.05-.48s.318-.138.5.039C-302.7,782.631-302.559,782.787-302.386,782.969Z" transform="translate(-101.824 -162.359)" fill="#0e1116"/>
      <path id="Path_19299" data-name="Path 19299" d="M-308.616,691.336l1.143-1.148c.05-.05.1-.1.151-.147a.306.306,0,0,1,.436.015.283.283,0,0,1,.009.418q-.752.77-1.521,1.522a.286.286,0,0,1-.434-.014c-.233-.224-.462-.453-.686-.687a.307.307,0,0,1-.007-.451.3.3,0,0,1,.45.013C-308.922,691-308.782,691.161-308.616,691.336Z" transform="translate(-95.989 -75.188)" fill="#0e1116"/>
      <path id="Path_19300" data-name="Path 19300" d="M-238.535,780.1c-.478,0-.956,0-1.434,0-.24,0-.368-.109-.373-.305s.129-.326.377-.327q1.434,0,2.867,0c.253,0,.382.114.381.321s-.124.31-.385.311C-237.579,780.1-238.057,780.1-238.535,780.1Z" transform="translate(-161.358 -159.644)" fill="#0e1116"/>
      <path id="Path_19301" data-name="Path 19301" d="M-238.534,691c-.471,0-.942,0-1.413,0-.26,0-.389-.1-.4-.3s.131-.33.4-.33q1.423,0,2.846,0c.255,0,.383.113.383.32s-.123.313-.383.314C-237.578,691.007-238.056,691-238.534,691Z" transform="translate(-161.357 -75.576)" fill="#0e1116"/>
      <path id="Path_19302" data-name="Path 19302" d="M-274.8,921.053c-.745,0-1.491,0-2.237,0-.254,0-.39-.114-.391-.315a.278.278,0,0,1,.251-.311,1.489,1.489,0,0,1,.231-.012h4.262c.049,0,.1,0,.148,0,.225.013.347.121.351.311s-.124.323-.358.324C-273.3,921.056-274.048,921.053-274.8,921.053Z" transform="translate(-126.364 -292.643)" fill="#0e1116"/>
    </g>
  </g>
</svg>
