<svg xmlns="http://www.w3.org/2000/svg" width="56" height="56" viewBox="0 0 56 56">
  <g id="Group_24224" data-name="Group 24224" transform="translate(-195 -1451.533)">
    <circle id="Ellipse_942" data-name="Ellipse 942" cx="28" cy="28" r="28" transform="translate(195 1451.533)" fill="#afddd0"/>
    <path id="Path_19278" data-name="Path 19278" d="M-441.485,151.173c-.264.2-.523.388-.778.583a.4.4,0,0,1-.457.081.407.407,0,0,1-.207-.416c0-1.031,0-2.063,0-3.094a.453.453,0,0,1,.267-.456c.014-.007.027-.016.04-.024.247-.151.584-.248.714-.468s.037-.55.038-.833q0-1.394,0-2.787v-.282c-.524.138-1.024.264-1.518.41-.049.014-.089.148-.09.227-.005,1.488,0,2.976,0,4.464,0,.327-.085.436-.408.5-1.48.281-2.963.547-4.441.84a10.5,10.5,0,0,1-4.117-.066c-1.324-.261-2.652-.5-3.978-.754-.418-.079-.489-.166-.489-.6,0-1.457,0-2.913,0-4.37a.241.241,0,0,0-.219-.284c-.791-.2-1.577-.419-2.365-.627-.205-.054-.345-.16-.344-.385s.162-.334.371-.389c1-.264,2-.532,3-.8,1.993-.531,3.986-1.065,5.982-1.587a1.177,1.177,0,0,1,.572,0q4.449,1.17,8.893,2.361c.061.016.121.033.181.053a.365.365,0,0,1,.283.362.329.329,0,0,1-.274.362c-.278.039-.29.2-.288.425.008,1.189.006,2.378,0,3.567a.31.31,0,0,0,.186.335c.219.1.421.243.634.362a.463.463,0,0,1,.256.442c0,1.039.006,2.079-.01,3.118a.594.594,0,0,1-.2.388c-.141.12-.31.045-.451-.064C-440.961,151.565-441.219,151.373-441.485,151.173Zm-2.759-7.057c-.08.018-.148.031-.216.049-1.826.485-3.652.974-5.48,1.451a1.042,1.042,0,0,1-.5,0c-1.714-.448-3.426-.908-5.138-1.363-.186-.049-.373-.091-.566-.138v4.243a.461.461,0,0,0,.075.03l3.93.746a9.039,9.039,0,0,0,3.324.092c1.042-.189,2.082-.385,3.123-.579.483-.09.966-.183,1.452-.275Zm-13.659-1.309,0,.045.09.024q3.751,1,7.5,1.993a.609.609,0,0,0,.3-.011q2.547-.672,5.093-1.352l2.486-.664a1.254,1.254,0,0,0-.143-.064q-3.728-.993-7.457-1.981a.654.654,0,0,0-.319,0q-2.832.747-5.661,1.5Zm17.107,7.879c0-.706,0-1.411,0-2.115a.24.24,0,0,0-.1-.163c-.543-.378-.542-.373-1.107-.049a.292.292,0,0,0-.17.3c.01.455,0,.911,0,1.366v.671c.243-.132.459-.342.673-.34S-441.049,150.556-440.8,150.685Z" transform="translate(673.308 1327.517)" fill="#0e1116"/>
    <path id="Path_19279" data-name="Path 19279" d="M-464.321,344.822c.809,0,1.618,0,2.428,0,.378,0,.486.111.5.492a4.238,4.238,0,0,0,3.906,4.1,4.231,4.231,0,0,0,4.47-3.527,4.84,4.84,0,0,0,.055-.587c.016-.36.127-.476.491-.476q1.673,0,3.347,0c.526,0,1.053,0,1.579,0,.354,0,.476.13.478.489,0,.378,0,.756,0,1.134a.429.429,0,0,1-.307.449c-.4.151-.809.3-1.206.469a.443.443,0,0,0-.2.221q-.4.929-.773,1.869a.446.446,0,0,0-.012.3c.159.393.334.78.512,1.165a.457.457,0,0,1-.107.575q-.873.862-1.733,1.737a.455.455,0,0,1-.575.1c-.377-.174-.755-.349-1.141-.5a.475.475,0,0,0-.322.009q-.927.37-1.842.768a.508.508,0,0,0-.248.234c-.162.375-.3.759-.443,1.143a.465.465,0,0,1-.494.346c-.817-.009-1.634-.007-2.451,0a.439.439,0,0,1-.464-.318c-.147-.4-.294-.8-.46-1.187a.475.475,0,0,0-.235-.219q-.916-.4-1.843-.764a.476.476,0,0,0-.322-.013c-.386.155-.764.328-1.141.5a.467.467,0,0,1-.593-.11q-.85-.868-1.716-1.72a.464.464,0,0,1-.1-.594c.171-.362.323-.734.493-1.1a.425.425,0,0,0-.009-.395c-.263-.6-.508-1.2-.745-1.8a.4.4,0,0,0-.256-.269c-.377-.134-.748-.283-1.121-.428-.3-.115-.356-.2-.357-.531,0-.37,0-.74,0-1.11,0-.311.134-.447.446-.449C-466,344.82-465.161,344.823-464.321,344.822Zm2.169.769h-4.384c0,.168.009.324,0,.478a.218.218,0,0,0,.174.256c.37.131.731.284,1.1.418a.523.523,0,0,1,.359.4,7.554,7.554,0,0,0,.9,2.169.5.5,0,0,1,.022.513c-.164.348-.309.706-.473,1.054a.256.256,0,0,0,.058.348c.414.4.818.805,1.217,1.218a.238.238,0,0,0,.325.054c.332-.16.677-.294,1.007-.457a.587.587,0,0,1,.619.027,7.179,7.179,0,0,0,2.079.861.572.572,0,0,1,.442.405c.146.414.313.821.473,1.237.671,0,1.331,0,1.99-.006a.249.249,0,0,0,.173-.138c.151-.363.293-.729.425-1.1a.554.554,0,0,1,.424-.392,7.488,7.488,0,0,0,2.143-.892.5.5,0,0,1,.512-.029c.363.167.734.319,1.1.491a.21.21,0,0,0,.284-.051q.618-.633,1.249-1.253a.214.214,0,0,0,.053-.287c-.167-.355-.315-.72-.482-1.075a.538.538,0,0,1,.031-.555,7.429,7.429,0,0,0,.879-2.127.537.537,0,0,1,.371-.416c.369-.132.735-.274,1.1-.422.066-.027.152-.1.159-.161a5.285,5.285,0,0,0,.008-.578h-4.033c-.353,0-.353,0-.4.351a5,5,0,0,1-4.65,4.244,4.979,4.979,0,0,1-5.1-3.834C-462.071,346.1-462.106,345.847-462.152,345.591Z" transform="translate(680.291 1135.609)" fill="#0e1116"/>
  </g>
</svg>
