<svg xmlns="http://www.w3.org/2000/svg" width="56" height="56" viewBox="0 0 56 56">
  <g id="Group_24223" data-name="Group 24223" transform="translate(-195 -1451.533)">
    <circle id="Ellipse_942" data-name="Ellipse 942" cx="28" cy="28" r="28" transform="translate(195 1451.533)" fill="#d38576"/>
    <g id="Group_24088" data-name="Group 24088" transform="translate(621.196 1411.856)">
      <path id="Path_19275" data-name="Path 19275" d="M-402.545,78.308a4.4,4.4,0,0,1-.455-.152,1.875,1.875,0,0,1-1.188-1.788c-.016-1.2,0-2.408,0-3.612q0-7.034,0-14.067a1.925,1.925,0,0,1,1.67-1.991,2.236,2.236,0,0,1,.358-.02q4.394,0,8.788,0a1.931,1.931,0,0,1,2.027,2.033q0,8.745,0,17.489a1.937,1.937,0,0,1-1.616,2.083c-.012,0-.021.017-.031.026Zm-.8-10.836q0,4.4,0,8.806a1.093,1.093,0,0,0,1.183,1.185h8.786a1.524,1.524,0,0,0,.294-.02,1.093,1.093,0,0,0,.89-1.163q0-8.785,0-17.57c0-.049,0-.1,0-.148a1.086,1.086,0,0,0-1.052-1.037c-.267-.008-.535.006-.8-.006-.128-.006-.169.051-.2.157q-.163.523-.338,1.043a.417.417,0,0,1-.455.327c-.267,0-.535,0-.8,0h-4.6a.445.445,0,0,1-.514-.366c-.047-.14-.091-.281-.138-.421-.08-.239-.094-.575-.26-.691s-.5-.045-.759-.046a1.1,1.1,0,0,0-1.223,1.227Q-403.347,63.111-403.347,67.472Zm2.9-9.943c.06.188.12.346.158.508.032.138.107.168.239.167.69-.006,1.38,0,2.069,0,.831,0,1.661,0,2.492,0,.07,0,.181-.035.2-.084.079-.183.129-.38.194-.585Z" fill="#0e1116"/>
      <path id="Path_19276" data-name="Path 19276" d="M-364.2,175.457c-.376.112-.376.112-.376.451,0,.711,0,1.422,0,2.133a.485.485,0,0,1-.314.5q-1.439.655-2.874,1.321a.536.536,0,0,1-.484,0q-1.444-.67-2.894-1.328a.461.461,0,0,1-.294-.465c.005-.753,0-1.506.005-2.26a.269.269,0,0,0-.174-.292c-.262-.119-.514-.261-.772-.388a.431.431,0,0,1-.275-.391.434.434,0,0,1,.278-.411q2.06-1.044,4.118-2.092a.509.509,0,0,1,.5,0q2.057,1.049,4.118,2.092a.479.479,0,0,1,.281.475c-.005.669,0,1.337,0,2.006,0,.308-.164.5-.419.5s-.423-.192-.425-.5C-364.2,176.359-364.2,175.911-364.2,175.457Zm-7.08-.742c.059.038.086.058.115.073,1.015.516,2.028,1.034,3.047,1.541a.373.373,0,0,0,.286-.022c.981-.488,1.959-.984,2.936-1.479.053-.027.1-.059.155-.091-.02-.025-.026-.04-.037-.045q-1.559-.8-3.12-1.585a.271.271,0,0,0-.212,0C-369.155,173.635-370.2,174.168-371.278,174.715Zm.694,1.32c0,.565.006,1.1,0,1.63a.246.246,0,0,0,.174.266c.756.34,1.508.692,2.266,1.029a.421.421,0,0,0,.306,0c.675-.3,1.336-.631,2.018-.909a.551.551,0,0,0,.414-.648c-.038-.437-.009-.88-.009-1.349-.092.044-.155.072-.216.1-.691.347-1.384.69-2.071,1.045a.59.59,0,0,1-.6,0c-.553-.292-1.113-.571-1.671-.854C-370.168,176.241-370.361,176.146-370.584,176.035Z" transform="translate(-29.768 -108.968)" fill="#0e1116"/>
      <path id="Path_19277" data-name="Path 19277" d="M-311.813,367.259a1.28,1.28,0,0,1-1.295-1.275,1.288,1.288,0,0,1,1.277-1.3,1.288,1.288,0,0,1,1.295,1.279A1.28,1.28,0,0,1-311.813,367.259Zm-.007-.847a.43.43,0,0,0,.436-.444.439.439,0,0,0-.429-.434.439.439,0,0,0-.447.438A.43.43,0,0,0-311.82,366.413Z" transform="translate(-85.948 -290.629)" fill="#0e1116"/>
    </g>
  </g>
</svg>
