<svg xmlns="http://www.w3.org/2000/svg" width="56" height="56" viewBox="0 0 56 56">
  <g id="Group_24222" data-name="Group 24222" transform="translate(-199 -1409)">
    <circle id="Ellipse_942" data-name="Ellipse 942" cx="28" cy="28" r="28" transform="translate(199 1409)" fill="#80bdad"/>
    <g id="Group_24087" data-name="Group 24087" transform="translate(742 1277.952)">
      <path id="Path_19269" data-name="Path 19269" d="M-481.857,159.465c-.518,0-1.035-.007-1.553-.007-1.6,0-3.19,0-4.785,0a.422.422,0,0,0-.33.136c-.991,1-1.987,1.99-2.979,2.987a.861.861,0,0,0-.113.2l-.083-.063v-3.251h-1.787V154.52h-7.019c-.453,0-.608.153-.608.6q0,4.7,0,9.4v.283h-.9v-.228q0-4.755,0-9.509a1.351,1.351,0,0,1,1.443-1.444q3.4,0,6.8,0h.269v-3.567c.081-.006.142-.014.2-.014h11.271c.056,0,.111.007.167.01Zm-10.735-8.517v7.607h1.794v2.036c.656-.657,1.277-1.272,1.89-1.9a.464.464,0,0,1,.367-.149q2.76.007,5.519,0h.255v-7.6Z" transform="translate(-22.647 0)" fill="#0e1116"/>
      <path id="Path_19270" data-name="Path 19270" d="M-526,421.789c.077,0,.153.01.23.01h21.036c.077,0,.153-.007.23-.01v1.6c-.031.084-.061.168-.094.251a1.37,1.37,0,0,1-1.4.851h-18.5c-.07,0-.14,0-.21,0a1.331,1.331,0,0,1-1.215-.907c-.022-.065-.049-.128-.074-.191Zm20.6.927h-19.678c-.065.565-.037.89.739.888q9.086-.022,18.173,0C-505.379,423.606-505.346,423.314-505.4,422.716Z" transform="translate(0 -256.53)" fill="#0e1116"/>
      <path id="Path_19271" data-name="Path 19271" d="M-470.427,361.112h-.9c0-.258,0-.506,0-.755a1.354,1.354,0,0,0-1.473-1.475q-1.437,0-2.874,0a1.363,1.363,0,0,0-1.48,1.474c0,.244,0,.488,0,.749h-.863a2.566,2.566,0,0,1,1.1-2.815,2.191,2.191,0,0,1,1.181-.306c1,0,2,0,3,0a2.229,2.229,0,0,1,2.31,2.171C-470.41,360.468-470.427,360.781-470.427,361.112Z" transform="translate(-45.263 -196.296)" fill="#0e1116"/>
      <path id="Path_19272" data-name="Path 19272" d="M-443.814,281.987a2,2,0,0,1-1.988-2.054,2.024,2.024,0,0,1,2.03-1.979,2.027,2.027,0,0,1,1.995,2.038A2.027,2.027,0,0,1-443.814,281.987Zm.043-3.126a1.117,1.117,0,0,0-1.144,1.093,1.12,1.12,0,0,0,1.1,1.141A1.112,1.112,0,0,0-442.676,280,1.114,1.114,0,0,0-443.771,278.862Z" transform="translate(-75.708 -120.747)" fill="#0e1116"/>
      <path id="Path_19273" data-name="Path 19273" d="M-181.576,334.16h.858v4.456h-.858Z" transform="translate(-325.144 -173.806)" fill="#0e1116"/>
      <path id="Path_19274" data-name="Path 19274" d="M-267.943,200.123l-3.578,2.069v-4.131Zm-2.677.519.883-.512-.883-.508Z" transform="translate(-240.234 -45.326)" fill="#0e1116"/>
    </g>
  </g>
</svg>
