<svg xmlns="http://www.w3.org/2000/svg" width="70" height="70" viewBox="0 0 70 70">
  <g id="Group_23574" data-name="Group 23574" transform="translate(-195 -1451.533)">
    <circle id="Ellipse_942" data-name="Ellipse 942" cx="35" cy="35" r="35" transform="translate(195 1451.533)" fill="#e58150"/>
    <g id="Group_24097" data-name="Group 24097" transform="translate(343.353 -193.139)">
      <path id="Path_19341" data-name="Path 19341" d="M63.528,1675.773c-.079.384-.133.774-.242,1.149a5.638,5.638,0,1,1-6.318-7.173c.153-.024.305-.052.458-.077h.936a.929.929,0,0,0,.134.035,5.635,5.635,0,0,1,4.823,4.1c.093.337.14.687.209,1.03Zm-.869-.331a4.774,4.774,0,1,0-5,4.639A4.782,4.782,0,0,0,62.659,1675.442Z" transform="translate(-166.053 0)" fill="#0e1116"/>
      <path id="Path_19342" data-name="Path 19342" d="M-122.478,1727.964v.85h18.2c0-.068.009-.139.009-.211,0-.353-.006-.705,0-1.057a.423.423,0,0,1,.431-.443.42.42,0,0,1,.435.439q.015.854,0,1.708a.433.433,0,0,1-.451.451c-.061,0-.122,0-.183,0h-6.511c.095.225.177.423.261.62q1.011,2.361,2.022,4.721a.937.937,0,0,1,.08.27.409.409,0,0,1-.293.435.417.417,0,0,1-.494-.181,1.606,1.606,0,0,1-.1-.219q-1.167-2.724-2.331-5.45a.267.267,0,0,0-.3-.2c-.405.015-.812,0-1.245,0v.229q0,1.779,0,3.558a.846.846,0,0,1-.032.259.412.412,0,0,1-.464.279.414.414,0,0,1-.362-.38c-.007-.074-.005-.149-.006-.223q0-1.729,0-3.457v-.264c-.473,0-.925-.006-1.377.008-.054,0-.124.107-.155.178q-.8,1.844-1.587,3.693c-.267.622-.535,1.243-.8,1.866a.467.467,0,0,1-.363.318.424.424,0,0,1-.474-.537,5.422,5.422,0,0,1,.228-.564q1.015-2.37,2.031-4.74c.026-.061.048-.123.087-.223h-6.539c-.466,0-.6-.137-.6-.608,0-.495,0-.99,0-1.484,0-.351.157-.508.509-.51.4,0,.8,0,1.229,0v-.272q0-3.508,0-7.015a2.141,2.141,0,0,1,1.487-2.143,2.381,2.381,0,0,1,.7-.112c1.125-.011,2.251-.006,3.376,0,.308,0,.508.172.509.431s-.192.432-.505.432c-1.085,0-2.169,0-3.254,0a1.32,1.32,0,0,0-1.447,1.454q0,3.487,0,6.974v.255h8.908c.075,0,.149,0,.224,0a.429.429,0,0,1,.413.42.436.436,0,0,1-.4.437,2.2,2.2,0,0,1-.224,0h-10.651Z" transform="translate(0 -45.277)" fill="#0e1116"/>
      <path id="Path_19343" data-name="Path 19343" d="M148.208,1719.537c0-.467,0-.934,0-1.4,0-.33.163-.527.428-.529s.435.2.436.524c0,.866,0,1.733.005,2.6a.444.444,0,0,0,.116.278c.481.5.973.98,1.461,1.469a.433.433,0,0,1,.125.481.366.366,0,0,1-.344.272.578.578,0,0,1-.366-.122q-.877-.846-1.723-1.724a.623.623,0,0,1-.131-.385C148.2,1720.512,148.208,1720.024,148.208,1719.537Z" transform="translate(-256.804 -45.331)" fill="#0e1116"/>
    </g>
  </g>
</svg>
