<svg xmlns="http://www.w3.org/2000/svg" width="70" height="70" viewBox="0 0 70 70">
  <g id="Group_23574" data-name="Group 23574" transform="translate(-195 -1451.533)">
    <circle id="Ellipse_942" data-name="Ellipse 942" cx="35" cy="35" r="35" transform="translate(195 1451.533)" fill="#629697"/>
    <g id="Group_24094" data-name="Group 24094" transform="translate(1490.031 594.791)">
      <path id="Path_19312" data-name="Path 19312" d="M-1257.326,898.573v2.391c.348,0,.686,0,1.024,0a2.432,2.432,0,0,1,.34.011.357.357,0,0,1,.325.38.349.349,0,0,1-.3.373,1,1,0,0,1-.234.021h-7.019a1.25,1.25,0,0,1-.183-.01.381.381,0,0,1-.356-.409.355.355,0,0,1,.374-.36c.34-.013.681-.005,1.021-.006h.292v-2.391h-.313q-3.746,0-7.492,0a1.054,1.054,0,0,1-1.183-1.2q0-5.919,0-11.837c0-.244-.011-.49,0-.733a1.017,1.017,0,0,1,1.1-1.039c.9-.006,1.8,0,2.7,0h5.986a1.967,1.967,0,0,1-.231-1.748,1.832,1.832,0,0,1,.715-.942,1.88,1.88,0,0,1,2.245.087c.75.594.873,1.368.4,2.6h8.538c.861,0,1.242.383,1.242,1.251q0,6.141,0,12.282c0,.92-.364,1.277-1.293,1.277h-7.7Zm-.931-14c-.1-.006-.178-.014-.255-.014h-11.316c-.36,0-.408.051-.408.409q0,6.207,0,12.414c0,.371.037.408.4.408h11.578Zm9.129,6.268c0-.1.01-.171.01-.24q0-2.814,0-5.628c0-.368-.05-.414-.43-.414h-7.885v6.282h1.53c0-.111,0-.206,0-.3a1.155,1.155,0,0,1,.614-1.054,3.608,3.608,0,0,1,2.23-.585,4.638,4.638,0,0,1,.665.083c.3.094.575.247.864.371a1.284,1.284,0,0,1,.867,1.324,1.179,1.179,0,0,0,.017.163Zm.011.826h-8.318v6.116h1.533c0-.114-.006-.217,0-.318a1.112,1.112,0,0,1,.557-1.006,3.532,3.532,0,0,1,2.168-.62,4.841,4.841,0,0,1,.723.058,8.171,8.171,0,0,1,1.054.458,1.209,1.209,0,0,1,.735,1.169c0,.084.01.169.017.271h1.116c.372,0,.414-.043.414-.426q0-2.711,0-5.421Zm-9.026,9.267v-2.34h-3.082v2.34Zm3.053-10.1h3.692c-.071-.23-.072-.514-.2-.593a3.216,3.216,0,0,0-1.383-.564,3.077,3.077,0,0,0-1.727.385C-1255.094,890.256-1255.167,890.37-1255.091,890.832Zm3.685,6.948c-.062-.23-.054-.516-.172-.584a4.3,4.3,0,0,0-1.274-.552,2.683,2.683,0,0,0-1.855.349c-.38.214-.477.352-.373.787Zm-7.17-15.131a1.08,1.08,0,0,0-1.068-1.119,1.1,1.1,0,0,0-1.142,1.078,1.1,1.1,0,0,0,1.086,1.138A1.1,1.1,0,0,0-1258.575,882.649Z" transform="translate(0 0)" fill="#0e1116"/>
      <path id="Path_19313" data-name="Path 19313" d="M-1199.729,1182.77c-.623.279-1.232.539-1.828.825a.914.914,0,0,0-.534.865c-.006.55,0,1.1,0,1.65,0,.3-.148.484-.39.493s-.394-.182-.395-.482c0-.532-.007-1.065,0-1.6a1.751,1.751,0,0,1,1.12-1.7c.6-.26,1.194-.532,1.793-.795a.542.542,0,0,1,.81.21l.492.645a.623.623,0,0,0,.063.056c.2-.25.391-.5.589-.748a.507.507,0,0,1,.709-.189c.64.278,1.281.552,1.911.849a1.73,1.73,0,0,1,1.051,1.67q0,.8,0,1.6c0,.3-.149.483-.392.486s-.39-.187-.392-.488c0-.55,0-1.1,0-1.65a.9.9,0,0,0-.506-.854c-.6-.293-1.218-.556-1.841-.838-.268.343-.523.673-.782,1a.4.4,0,0,1-.709,0C-1199.214,1183.448-1199.46,1183.12-1199.729,1182.77Z" transform="translate(-65.767 -290.649)" fill="#0e1116"/>
      <path id="Path_19314" data-name="Path 19314" d="M-1143.26,1033.362a2.209,2.209,0,0,1,2.162,3.023,2.327,2.327,0,0,1-1.883,1.846,1.768,1.768,0,0,1-1.53-.44,2.762,2.762,0,0,1-.927-2.8A2.079,2.079,0,0,1-1143.26,1033.362Zm0,.792a1.312,1.312,0,0,0-1.414,1,1.994,1.994,0,0,0,.405,1.773,1.237,1.237,0,0,0,2.111-.091,2.625,2.625,0,0,0,.37-.963A1.364,1.364,0,0,0-1143.261,1034.154Z" transform="translate(-121.124 -147.281)" fill="#0e1116"/>
      <path id="Path_19315" data-name="Path 19315" d="M-802.571,1016.948a1.766,1.766,0,0,1-.575,1.234,1.3,1.3,0,0,1-1.723.042,1.844,1.844,0,0,1-.567-1.85,1.414,1.414,0,0,1,1.676-.955A1.414,1.414,0,0,1-802.571,1016.948Zm-2.156-.111c0,.491.313.9.687.9a.809.809,0,0,0,.682-.853.629.629,0,0,0-.692-.7A.606.606,0,0,0-804.727,1016.837Z" transform="translate(-449.247 -129.945)" fill="#0e1116"/>
      <path id="Path_19316" data-name="Path 19316" d="M-804.15,1213.706a1.394,1.394,0,0,1,1.452,1.475,1.6,1.6,0,0,1-1.477,1.66,1.633,1.633,0,0,1-1.455-1.718A1.381,1.381,0,0,1-804.15,1213.706Zm-.015.788a.6.6,0,0,0-.689.638c-.006.482.31.913.675.921s.695-.415.694-.875A.619.619,0,0,0-804.166,1214.493Z" transform="translate(-449.12 -321.316)" fill="#0e1116"/>
      <path id="Path_19317" data-name="Path 19317" d="M-961.044,920.095a.519.519,0,0,1,.509.522.535.535,0,0,1-.522.516.534.534,0,0,1-.522-.515A.52.52,0,0,1-961.044,920.095Z" transform="translate(-298.627 -37.976)" fill="#0e1116"/>
    </g>
  </g>
</svg>
