<svg xmlns="http://www.w3.org/2000/svg" width="70" height="70" viewBox="0 0 70 70">
  <g id="Group_23574" data-name="Group 23574" transform="translate(-195 -1451.533)">
    <circle id="Ellipse_942" data-name="Ellipse 942" cx="35" cy="35" r="35" transform="translate(195 1451.533)" fill="#e0baba"/>
    <g id="Group_24100" data-name="Group 24100" transform="translate(-1150.619 105.622)">
      <path id="Path_19352" data-name="Path 19352" d="M1386.425,1371.721h-13.906v.315c0,4.646-.011,9.293.006,13.94a7.812,7.812,0,0,1-1.526,4.842c-.019.025-.031.054-.068.118h8.781a1.586,1.586,0,0,1,.249,0,.377.377,0,0,1,.354.385.387.387,0,0,1-.358.407,1.388,1.388,0,0,1-.175,0h-9.69a.411.411,0,0,1-.313-.73,6.661,6.661,0,0,0,1.295-1.856,6.948,6.948,0,0,0,.647-3q-.006-7.308,0-14.615c0-.515.1-.62.606-.62h14.31c.479,0,.588.108.588.586q0,3.854,0,7.708a1.547,1.547,0,0,1-.009.225.391.391,0,0,1-.773.018,1.54,1.54,0,0,1-.016-.3q0-3.541,0-7.082Z" transform="translate(0 0)" fill="#0e1116"/>
      <path id="Path_19353" data-name="Path 19353" d="M1518.9,1531.846c.13-.04.249-.118.345-.1a.489.489,0,0,1,.328.216.506.506,0,0,1-.052.43,13.233,13.233,0,0,1-.947.96.379.379,0,0,1-.559-.034q-.448-.435-.883-.885a.4.4,0,0,1-.016-.58.385.385,0,0,1,.577.021,2.746,2.746,0,0,1,.247.327c.159-.468.263-.86.422-1.228a5.165,5.165,0,1,1,1.2,5.871c-.036-.034-.074-.067-.108-.1a.4.4,0,0,1-.027-.58.4.4,0,0,1,.582,0,7.607,7.607,0,0,0,.936.7,4.367,4.367,0,1,0-2.015-5.146C1518.914,1531.759,1518.909,1531.8,1518.9,1531.846Z" transform="translate(-137.543 -146.502)" fill="#0e1116"/>
      <path id="Path_19354" data-name="Path 19354" d="M1447.7,1487.16h4.421a1.272,1.272,0,0,1,.224,0,.4.4,0,0,1,.025.784,1.073,1.073,0,0,1-.249.012H1443.3a1.058,1.058,0,0,1-.249-.012.4.4,0,0,1,.023-.784,1.347,1.347,0,0,1,.224-.005Z" transform="translate(-68.234 -108.489)" fill="#0e1116"/>
      <path id="Path_19355" data-name="Path 19355" d="M1447.717,1446.537h4.345a2.119,2.119,0,0,1,.274.007.369.369,0,0,1,.346.365.361.361,0,0,1-.274.4,1.025,1.025,0,0,1-.3.03q-4.408,0-8.815,0a1.013,1.013,0,0,1-.319-.037.392.392,0,0,1,.068-.751,1.537,1.537,0,0,1,.274-.011Z" transform="translate(-68.231 -70.579)" fill="#0e1116"/>
      <path id="Path_19356" data-name="Path 19356" d="M1445.6,1528.561c-.832,0-1.664,0-2.5,0a.417.417,0,0,1-.442-.254.4.4,0,0,1,.4-.545c.308-.01.616,0,.924,0H1448c.058,0,.117,0,.175,0a.4.4,0,0,1,.431.415.39.39,0,0,1-.433.383c-.583.005-1.165,0-1.748,0Z" transform="translate(-68.144 -146.38)" fill="#0e1116"/>
      <path id="Path_19357" data-name="Path 19357" d="M1602.153,1555.386c0-.483,0-.967,0-1.45,0-.3.146-.48.385-.487s.411.182.412.49c0,.85.007,1.7,0,2.55a.568.568,0,0,0,.192.456c.361.345.71.7,1.061,1.058.225.228.252.458.082.637s-.417.16-.652-.074c-.431-.429-.869-.851-1.282-1.3a.784.784,0,0,1-.187-.46C1602.138,1556.337,1602.153,1555.861,1602.153,1555.386Z" transform="translate(-217.012 -170.357)" fill="#0e1116"/>
      <path id="Path_19358" data-name="Path 19358" d="M1444.71,1569.252c-.516,0-1.031,0-1.547,0-.3,0-.476-.147-.481-.388s.172-.409.487-.41q1.535,0,3.07,0c.311,0,.5.16.5.4s-.184.393-.5.395C1445.725,1569.254,1445.217,1569.252,1444.71,1569.252Z" transform="translate(-68.186 -184.357)" fill="#0e1116"/>
    </g>
  </g>
</svg>
