<svg xmlns="http://www.w3.org/2000/svg" width="56" height="56" viewBox="0 0 56 56">
  <g id="Group_23559" data-name="Group 23559" transform="translate(-195 -1451.533)">
    <circle id="Ellipse_942" data-name="Ellipse 942" cx="28" cy="28" r="28" transform="translate(195 1451.533)" fill="#a4aeba"/>
    <g id="Group_24090" data-name="Group 24090" transform="translate(89.407 1321.838)">
      <path id="Path_19281" data-name="Path 19281" d="M128.66,150.232c0-.107,0-.216,0-.325,0-1.148,0-2.3,0-3.444a1.612,1.612,0,0,1,1.779-1.768h8.752a1.62,1.62,0,0,1,1.761,1.764q0,1.625,0,3.25v.343l.564-.317a1.493,1.493,0,1,1,1.5,2.58c-.362.219-.73.428-1.121.657a1.548,1.548,0,0,1,.639,1.253,1.527,1.527,0,0,1-.63,1.211,1.538,1.538,0,0,1,0,2.488,1.522,1.522,0,0,1,.626,1.262,1.474,1.474,0,0,1-.666,1.217.643.643,0,0,1-.167.1c-.653.206-.819.655-.757,1.307s.016,1.295.013,1.943a1.62,1.62,0,0,1-1.706,1.712c-.954,0-1.908.006-2.862,0a.391.391,0,0,0-.393.223,8.889,8.889,0,0,1-3.632,3.416.666.666,0,0,0-.277.312c-.192.45-.362.91-.532,1.37a.514.514,0,0,1-.547.371c-2.3-.006-4.593,0-6.89,0-.422,0-.565-.188-.52-.617.255-2.411.515-4.821.749-7.233.18-1.851.322-3.706.485-5.559a1.509,1.509,0,0,1,.087-.376q1.107-3.064,2.219-6.126a1.233,1.233,0,0,1,1.408-.983A.744.744,0,0,0,128.66,150.232Zm2.847-4.691c-.385,0-.754,0-1.123,0a.775.775,0,0,0-.87.875c0,1.463,0,2.926,0,4.389a.961.961,0,0,0,.11.416,3.745,3.745,0,0,1,.5,1.968c-.061.875-.2,1.745-.3,2.616-.1.78-.262,1.556-.3,2.338-.051,1.155-.013,2.315-.013,3.472v.286h10.6v-.455c-.963.177-1.553-.034-1.909-.675a1.539,1.539,0,0,1,.418-1.943,1.536,1.536,0,0,1,0-2.487.676.676,0,0,0-.053-.061,1.492,1.492,0,0,1,.267-2.525c.328-.191.652-.389.989-.563a.46.46,0,0,0,.281-.474c-.01-2.065-.006-4.13-.007-6.2a2.694,2.694,0,0,0-.013-.3.656.656,0,0,0-.564-.633c-.474-.039-.953-.01-1.448-.01,0,.119,0,.229,0,.34a1.327,1.327,0,0,1-1.282,1.287q-1.986.023-3.973,0a1.3,1.3,0,0,1-1.255-1.094C131.535,145.934,131.529,145.758,131.508,145.541ZM124.5,170.267a.551.551,0,0,0,.111.032c2.019,0,4.038,0,6.057,0a.321.321,0,0,0,.227-.174c.173-.408.332-.823.481-1.241a.744.744,0,0,1,.413-.452,7.958,7.958,0,0,0,3.157-2.686c.054-.077.1-.161.171-.283h-.393c-1.436,0-2.872-.024-4.307.008a1.65,1.65,0,0,1-1.761-1.761c.035-1.87.009-3.741.011-5.611a3.108,3.108,0,0,1,.025-.443c.174-1.2.337-2.4.534-3.6a3.565,3.565,0,0,0-.567-2.775.346.346,0,0,0-.647.064c-.015.034-.029.068-.041.1q-1.116,3.091-2.23,6.182a1.078,1.078,0,0,0-.063.268c-.147,1.687-.281,3.376-.439,5.062-.187,2-.393,4-.593,5.994C124.6,169.393,124.548,169.831,124.5,170.267Zm5.015-7.485c0,.308,0,.594,0,.879,0,.677.259.935.939.935h8.718a2.537,2.537,0,0,0,.277-.007.681.681,0,0,0,.618-.553c.034-.41.009-.825.009-1.254Zm2.906-17.23c-.08.607.09.81.655.81q1.764,0,3.528,0c.5,0,.73-.318.577-.81Zm8.571,8.024a.84.84,0,0,0-.229.068c-.547.307-1.1.613-1.63.94a.624.624,0,0,0-.223.848.606.606,0,0,0,.808.272c.585-.314,1.159-.649,1.724-1a.584.584,0,0,0,.219-.689A.651.651,0,0,0,140.991,153.575Zm.761,3.148a.7.7,0,0,0-1.012-.6c-.527.286-1.045.589-1.559.9a.627.627,0,0,0-.239.885.638.638,0,0,0,.872.222c.525-.29,1.051-.581,1.553-.908A1.937,1.937,0,0,0,141.752,156.723Zm-.056,2.465a.637.637,0,0,0-.945-.609c-.527.285-1.044.589-1.557.9a.621.621,0,0,0-.236.884.632.632,0,0,0,.87.222c.517-.284,1.025-.584,1.534-.884A.643.643,0,0,0,141.7,159.188Zm-.735-6.671c.608-.351,1.173-.66,1.718-1a.6.6,0,0,0,.176-.835.624.624,0,0,0-.819-.25c-.329.167-.645.358-.96.551a.272.272,0,0,0-.11.194C140.956,151.6,140.961,152.025,140.961,152.517Z" transform="translate(0 0)" fill="#0e1116"/>
      <path id="Path_19289" data-name="Path 19289" d="M215.79,208.323a8.628,8.628,0,0,1-3.1-.583c-.374-.141-.446-.289-.35-.687.089-.368.168-.74.271-1.1.047-.164,0-.234-.149-.289-.338-.126-.67-.267-1.006-.4a.466.466,0,0,1-.361-.44c0-.235.157-.355.364-.436,1.376-.541,2.749-1.092,4.128-1.625a.72.72,0,0,1,.475,0c1.388.536,2.769,1.091,4.154,1.635a.441.441,0,0,1-.009.862c-.329.124-.647.276-.981.383-.219.07-.229.185-.181.371.092.349.173.7.252,1.052.087.385,0,.541-.371.681A8.649,8.649,0,0,1,215.79,208.323Zm-3.1-3.52a1.065,1.065,0,0,0,.1.06c.687.274,1.4.5,2.055.832a2,2,0,0,0,1.953.01c.678-.342,1.409-.579,2.171-.884-.135-.059-.215-.1-.3-.131-.628-.248-1.278-.451-1.878-.753a1.985,1.985,0,0,0-1.929-.008C214.18,204.268,213.447,204.5,212.691,204.8Zm5.731,2.219-.242-.954c-.659.261-1.292.5-1.909.764a1,1,0,0,1-.871.006c-.624-.274-1.264-.511-1.925-.774l-.237.962A7.742,7.742,0,0,0,218.422,207.022Z" transform="translate(-81.01 -53.72)" fill="#0e1116"/>
      <path id="Path_19290" data-name="Path 19290" d="M240.787,291.125c.481,0,.962,0,1.443,0a1.165,1.165,0,0,1,1.27,1.278,1.388,1.388,0,0,1-.254.968,1.157,1.157,0,0,1-.921.437c-1.027,0-2.054.01-3.081,0a1.142,1.142,0,0,1-1.184-1.2,2.321,2.321,0,0,1,.156-.884,1.019,1.019,0,0,1,.988-.6c.527-.007,1.055,0,1.582,0Zm.01.856c-.49,0-.98,0-1.47,0-.341,0-.413.085-.415.466,0,.417.06.5.408.5q1.456.006,2.913,0c.343,0,.42-.1.419-.5,0-.373-.084-.471-.413-.473C241.759,291.978,241.278,291.98,240.8,291.98Z" transform="translate(-105.972 -135.561)" fill="#0e1116"/>
      <path id="Path_19291" data-name="Path 19291" d="M254.621,394.732c-.37,0-.74,0-1.11,0a.436.436,0,0,1-.487-.419.429.429,0,0,1,.48-.423q1.124-.006,2.249,0c.3,0,.481.164.482.416a.424.424,0,0,1-.475.426C255.379,394.736,255,394.732,254.621,394.732Z" transform="translate(-119.824 -230.696)" fill="#0e1116"/>
    </g>
  </g>
</svg>
