<svg xmlns="http://www.w3.org/2000/svg" width="56" height="56" viewBox="0 0 56 56">
  <g id="Group_23559" data-name="Group 23559" transform="translate(-195 -1451.533)">
    <circle id="Ellipse_942" data-name="Ellipse 942" cx="28" cy="28" r="28" transform="translate(195 1451.533)" fill="#e2b36b"/>
    <g id="Group_24091" data-name="Group 24091" transform="translate(628.611 1329.68)">
      <path id="Path_19292" data-name="Path 19292" d="M-296.361,156.391V141.879c-.1,0-.2-.013-.291-.013q-5.453,0-10.907-.006c-.254,0-.341.071-.316.32a3.311,3.311,0,0,1,0,.545.4.4,0,0,1-.411.418.388.388,0,0,1-.395-.4,19.154,19.154,0,0,1,.03-1.99,2.2,2.2,0,0,1,2.231-1.89c1.166-.01,2.333,0,3.5,0q2.5,0,5,0a2.243,2.243,0,0,1,2.391,2.393q0,8.868,0,17.736a2.242,2.242,0,0,1-2.4,2.388q-4.182,0-8.365,0a2.25,2.25,0,0,1-2.4-2.387c0-1.092,0-2.183,0-3.274,0-.4.134-.591.4-.6s.415.2.417.61c0,.216,0,.432,0,.663Zm-.007.859h-11.5c0,.578,0,1.132,0,1.686a1.45,1.45,0,0,0,1.617,1.619q4.154,0,8.307,0a2.763,2.763,0,0,0,.435-.032,1.338,1.338,0,0,0,1.133-1.14C-296.331,158.68-296.368,157.97-296.368,157.251Zm-11.48-16.221h11.475a1.382,1.382,0,0,0-1.344-1.355c-.218-.009-.437,0-.655,0q-4,0-8,0A1.4,1.4,0,0,0-307.848,141.03Z" transform="translate(-99.122)" fill="#0e1116"/>
      <path id="Path_19293" data-name="Path 19293" d="M-413.954,205.871c0,.727-.006,1.371.008,2.016,0,.066.111.146.187.19a1.249,1.249,0,0,1,.337,1.92.309.309,0,0,0-.052.364,5.858,5.858,0,0,1,.291,2.633.487.487,0,0,1-.4.455,2.7,2.7,0,0,1-1.483.012c-.362-.1-.445-.192-.477-.566a5.857,5.857,0,0,1,.291-2.5.364.364,0,0,0-.066-.431,1.216,1.216,0,0,1,.325-1.855.384.384,0,0,0,.225-.4c-.011-.646-.009-1.292,0-1.937,0-.163-.044-.257-.208-.292a2.322,2.322,0,0,1-.257-.091.412.412,0,0,1-.321-.394.415.415,0,0,1,.321-.421q1.306-.479,2.611-.962,2.687-.992,5.373-1.988a.88.88,0,0,1,.657-.005q3.951,1.467,7.908,2.92c.215.079.41.172.411.443s-.2.361-.414.439c-.692.253-1.38.517-2.075.759a.32.32,0,0,0-.261.363c.012,1.073,0,2.147.007,3.22a2.138,2.138,0,0,1-.857,1.774,5.7,5.7,0,0,1-2.568,1.075,12.028,12.028,0,0,1-5.888-.251,6.428,6.428,0,0,1-1.617-.823,2,2,0,0,1-.877-1.783c.013-1.073,0-2.147.009-3.22a.3.3,0,0,0-.247-.344C-413.339,206.1-413.615,205.992-413.954,205.871Zm12.119.72c-.132.045-.226.075-.319.109-1.485.547-2.97,1.092-4.452,1.647a.8.8,0,0,1-.6,0c-.918-.349-1.841-.685-2.762-1.025l-2.02-.743v.276c0,.955.007,1.91,0,2.865a1.283,1.283,0,0,0,.531,1.139,4.989,4.989,0,0,0,1.266.675,11.278,11.278,0,0,0,6.12.148,4.062,4.062,0,0,0,1.695-.784,1.293,1.293,0,0,0,.543-.971C-401.825,208.829-401.835,207.729-401.835,206.591Zm-12.054-1.642,0,.079a2.108,2.108,0,0,0,.342.035c.382-.022.763-.054,1.144-.085q2.519-.2,5.038-.4c.317-.025.51.124.524.38s-.16.411-.482.436q-1.77.14-3.54.282c-.28.023-.56.052-.84.078a.222.222,0,0,0,.123.107c1.51.557,3.019,1.116,4.531,1.664a.529.529,0,0,0,.334-.013q3.316-1.215,6.628-2.444c.059-.022.115-.054.194-.091-.072-.032-.113-.053-.155-.069q-3.339-1.232-6.681-2.456a.653.653,0,0,0-.411.017c-1.5.544-2.986,1.1-4.479,1.65Q-412.752,204.533-413.889,204.948Zm-.09,7.766a4.925,4.925,0,0,0-.354-2.3,4.072,4.072,0,0,0-.374,2.3Zm.05-3.526a.422.422,0,0,0-.4-.43.42.42,0,0,0-.456.4.411.411,0,0,0,.411.443A.421.421,0,0,0-413.929,209.188Z" transform="translate(0 -58.131)" fill="#0e1116"/>
      <path id="Path_19294" data-name="Path 19294" d="M-229.29,400.664a.944.944,0,0,1-.93.947.928.928,0,0,1-.944-.926.916.916,0,0,1,.94-.954A.917.917,0,0,1-229.29,400.664Z" transform="translate(-171.001 -241.86)" fill="#0e1116"/>
    </g>
  </g>
</svg>
