<svg xmlns="http://www.w3.org/2000/svg" width="20.732" height="18.616" viewBox="0 0 20.732 18.616">
  <g id="message-svgrepo-com" transform="translate(-1.25 -2.25)">
    <path id="Path_17341" data-name="Path 17341" d="M17.268,8.561,13,12a2.223,2.223,0,0,1-2.746,0l-4.3-3.434" fill="none" stroke="#dee4ea" stroke-linecap="round" stroke-linejoin="round" stroke-width="1.5"/>
    <path id="Path_17342" data-name="Path 17342" d="M6.888,3h9.428A4.957,4.957,0,0,1,19.9,4.59a5.017,5.017,0,0,1,1.326,3.7v6.528a5.017,5.017,0,0,1-1.326,3.7,4.957,4.957,0,0,1-3.58,1.59H6.888C3.968,20.116,2,17.741,2,14.822V8.294C2,5.375,3.968,3,6.888,3Z" fill="none" stroke="#6c747f" stroke-linecap="round" stroke-linejoin="round" stroke-width="1.5" fill-rule="evenodd"/>
  </g>
</svg>