<svg xmlns="http://www.w3.org/2000/svg" width="25.089" height="24" viewBox="0 0 25.089 24">
  <g id="email" transform="translate(-37.511 -394.909)">
    <rect id="Rectangle_34" data-name="Rectangle 34" width="24" height="24" transform="translate(37.556 394.909)" fill="none"/>
    <path id="mail-01-svgrepo-com" d="M2,7.45l9.39,6.573a5.241,5.241,0,0,0,1.554.9,2.3,2.3,0,0,0,1.113,0,5.241,5.241,0,0,0,1.554-.9L25,7.45M7.52,22.4H19.48c1.932,0,2.9,0,3.636-.376a3.449,3.449,0,0,0,1.508-1.508c.376-.738.376-1.7.376-3.636V9.52c0-1.932,0-2.9-.376-3.636a3.45,3.45,0,0,0-1.508-1.508C22.378,4,21.412,4,19.48,4H7.52c-1.932,0-2.9,0-3.636.376A3.45,3.45,0,0,0,2.376,5.884C2,6.622,2,7.588,2,9.52v7.36c0,1.932,0,2.9.376,3.636a3.45,3.45,0,0,0,1.508,1.508C4.622,22.4,5.588,22.4,7.52,22.4Z" transform="translate(36.556 393.709)" fill="none" stroke="#9b9a9f" stroke-linecap="round" stroke-linejoin="round" stroke-width="1.5"/>
  </g>
</svg>
