<svg xmlns="http://www.w3.org/2000/svg" width="56" height="56" viewBox="0 0 56 56">
  <g id="Group_23559" data-name="Group 23559" transform="translate(-195 -1451.533)">
    <circle id="Ellipse_942" data-name="Ellipse 942" cx="28" cy="28" r="28" transform="translate(195 1451.533)" fill="#e7cee3"/>
    <g id="Group_24011" data-name="Group 24011" transform="translate(981.423 969.016)">
      <path id="Path_18912" data-name="Path 18912" d="M-722.915,544.627a1.244,1.244,0,0,1,.3.222c.127.185-.015.412-.264.429-.19.013-.382,0-.573,0h-4.172c-.278,0-.3.023-.3.3q0,.375,0,.751c0,.265.027.29.291.29h4.57a1.433,1.433,0,0,1,.22.005.283.283,0,0,1,.269.3.275.275,0,0,1-.258.283,1.282,1.282,0,0,1-.2.01q-2.3,0-4.593,0a.781.781,0,0,1-.9-.889c0-.28,0-.559,0-.839a.758.758,0,0,1,.8-.806c.161,0,.323,0,.5,0v-6.07c-.083,0-.161-.01-.239-.01-.471,0-.942,0-1.413,0a.58.58,0,0,1-.645-.419.6.6,0,0,1,.333-.715l7.231-4.5c.244-.151.5-.289.729-.457a.95.95,0,0,1,1.18-.008c2.2,1.381,4.406,2.746,6.61,4.116l1.387.86a.6.6,0,0,1,.323.583.562.562,0,0,1-.615.533c-.471.008-.942,0-1.413,0h-.3v.245q0,1.325,0,2.649c0,.08.013.184-.03.234a.477.477,0,0,1-.281.188c-.085,0-.194-.107-.253-.193a.5.5,0,0,1-.028-.258c0-.941,0-1.883,0-2.845h-.906v.237q0,1.314,0,2.627a.465.465,0,0,1-.034.256.415.415,0,0,1-.266.177.416.416,0,0,1-.26-.185.484.484,0,0,1-.031-.257q0-1.3,0-2.605v-.254h-1.6v.248c0,.905,0,1.811,0,2.716,0,.243-.15.391-.346.346s-.238-.188-.237-.369c0-.9,0-1.8,0-2.694v-.248h-.919v.251q0,1.3,0,2.605c0,.059,0,.118,0,.177a.27.27,0,0,1-.28.281.268.268,0,0,1-.3-.285c-.008-.287,0-.574,0-.861q0-.96,0-1.921v-.249h-1.6v.237q0,1.325,0,2.65c0,.08.012.185-.031.234a.476.476,0,0,1-.285.184c-.085,0-.189-.111-.251-.2a.449.449,0,0,1-.026-.236q0-1.3,0-2.605v-.258h-.893Zm10.564-6.622c-.08-.057-.112-.083-.147-.1q-3.969-2.468-7.938-4.938a.332.332,0,0,0-.4.009q-3.939,2.455-7.882,4.9c-.05.031-.1.071-.177.132Zm-12.755.615v6.05h1.565v-6.05Zm-1.5,0v6.055h.89v-6.055Z" transform="translate(-36.585 -30.858)" fill="#0e1116"/>
      <path id="Path_18913" data-name="Path 18913" d="M-768.423,510.229q0-4.383,0-8.766a1.865,1.865,0,0,1,1.459-1.882,2.172,2.172,0,0,1,.481-.051q3.267-.011,6.535-.014c.448,0,.9,0,1.345.031a1.762,1.762,0,0,1,1.291.718c.15.19.146.374,0,.486s-.31.072-.454-.113a1.283,1.283,0,0,0-1.069-.52c-.228,0-.457.009-.684,0a.211.211,0,0,0-.239.169c-.085.235-.177.468-.278.7a.942.942,0,0,1-.917.6q-1.689,0-3.378,0a.935.935,0,0,1-.9-.593c-.1-.227-.194-.461-.279-.7a.224.224,0,0,0-.254-.18c-.257.013-.515,0-.772.006a1.275,1.275,0,0,0-1.29,1.2c-.008.08-.008.162-.008.243q0,8.677,0,17.354a1.446,1.446,0,0,0,.268.935,1.344,1.344,0,0,0,1.14.512c2.031-.006,4.063,0,6.094,0,.493,0,.986,0,1.479,0a1.272,1.272,0,0,0,1.3-.975c.07-.226.2-.317.381-.271s.242.2.186.426a1.868,1.868,0,0,1-1.593,1.391,3.526,3.526,0,0,1-.352.019q-3.742,0-7.485,0a1.874,1.874,0,0,1-1.935-1.391,2.543,2.543,0,0,1-.07-.632Q-768.427,514.579-768.423,510.229Zm3.479-10.092.235.592a.408.408,0,0,0,.41.275c1.11,0,2.22.007,3.33-.009a.5.5,0,0,0,.357-.2,4.18,4.18,0,0,0,.284-.658Z" transform="translate(0 0)" fill="#0e1116"/>
      <path id="Path_18914" data-name="Path 18914" d="M-596.911,710.77h-4.172c-.643,0-.914-.271-.914-.911q0-2.494,0-4.989c0-.633.28-.909.92-.909h8.3c.653,0,.922.271.923.926q0,2.506,0,5.011a.762.762,0,0,1-.862.871Q-594.813,710.772-596.911,710.77Zm-4.474-3.5a.442.442,0,0,0-.016.077c0,.868,0,1.737,0,2.6,0,.2.1.229.266.228q4.216,0,8.433,0c.206,0,.272-.083.27-.277-.006-.559,0-1.118,0-1.678v-.957Zm0-.623h8.916v-.907h-8.916Zm8.935-1.517c.045-.574.044-.575-.486-.575H-600.9c-.541,0-.542,0-.493.54,0,.012.017.022.027.035Z" transform="translate(-156.609 -192.385)" fill="#0e1116"/>
      <path id="Path_18915" data-name="Path 18915" d="M-718.769,833.478h-2.605c-.073,0-.173.017-.213-.023-.086-.083-.193-.2-.192-.3,0-.085.129-.187.223-.249.058-.038.157-.017.238-.017h5.078c.338,0,.477.085.481.289s-.148.3-.493.3Z" transform="translate(-43.892 -313.702)" fill="#0e1116"/>
      <path id="Path_18916" data-name="Path 18916" d="M-598.737,560.69a1.276,1.276,0,0,1,1.273,1.28,1.284,1.284,0,0,1-1.293,1.266,1.273,1.273,0,0,1-1.257-1.273A1.265,1.265,0,0,1-598.737,560.69Zm.679,1.266a.688.688,0,0,0-.688-.683.7.7,0,0,0-.683.692.688.688,0,0,0,.693.677A.674.674,0,0,0-598.058,561.955Z" transform="translate(-158.477 -57.564)" fill="#0e1116"/>
      <path id="Path_18917" data-name="Path 18917" d="M-583.955,765.956a1.155,1.155,0,0,1,1.153,1.15,1.157,1.157,0,0,1-1.14,1.141,1.145,1.145,0,0,1-1.147-1.151A1.143,1.143,0,0,1-583.955,765.956Zm.557,1.145a.554.554,0,0,0-.558-.558.566.566,0,0,0-.551.569.567.567,0,0,0,.552.546A.552.552,0,0,0-583.4,767.1Z" transform="translate(-172.52 -250.723)" fill="#0e1116"/>
      <path id="Path_18918" data-name="Path 18918" d="M-520.869,769.49c-.589,0-1.177,0-1.766,0-.258,0-.383-.1-.383-.29s.128-.294.383-.294q1.777,0,3.554,0c.237,0,.361.106.361.294s-.121.285-.361.29h-1.788Z" transform="translate(-230.93 -253.498)" fill="#0e1116"/>
      <path id="Path_18919" data-name="Path 18919" d="M-520.624,788.552c-.581,0-1.163,0-1.744,0-.072,0-.171.01-.212-.03-.08-.079-.182-.2-.174-.288s.128-.188.22-.253c.05-.036.143-.015.216-.015h3.4c.052,0,.1,0,.154,0,.18.014.292.105.29.293s-.12.274-.3.29c-.066.006-.132,0-.2,0Z" transform="translate(-231.179 -271.427)" fill="#0e1116"/>
    </g>
  </g>
</svg>
