<svg xmlns="http://www.w3.org/2000/svg" width="56" height="56" viewBox="0 0 56 56">
  <g id="Group_23559" data-name="Group 23559" transform="translate(-195 -1451.533)">
    <circle id="Ellipse_942" data-name="Ellipse 942" cx="28" cy="28" r="28" transform="translate(195 1451.533)" fill="#e2ede9"/>
    <g id="Group_24009" data-name="Group 24009" transform="translate(673.545 1469.862)">
      <path id="Path_18903" data-name="Path 18903" d="M-442.274,10.8v.712c0,.449,0,.9,0,1.347,0,.383-.1.484-.494.486-.348,0-.7,0-1.043,0h-.256c0,.611,0,1.2.007,1.78,0,.049.1.11.159.141a1.231,1.231,0,0,1,.7,1.324,1.221,1.221,0,0,1-1.014,1,1.225,1.225,0,0,1-1.362-.828,1.2,1.2,0,0,1,.617-1.466.307.307,0,0,0,.2-.342c-.008-.615,0-1.231,0-1.847,0-.34.115-.454.457-.455.433,0,.867,0,1.318,0V10.8h-1.8c-.345,0-.452-.106-.462-.45a5.274,5.274,0,0,0-1.165-3.274,5.262,5.262,0,0,0-5.734-1.939A5.293,5.293,0,0,0-456.2,9.588a5.875,5.875,0,0,0-.074.777c-.018.326-.123.434-.457.435h-1.812v1.836c.077,0,.153.013.229.013.384,0,.768,0,1.151,0a.352.352,0,0,1,.4.4c0,.652,0,1.3,0,1.955a.235.235,0,0,0,.159.261,1.205,1.205,0,0,1,.694,1.357,1.237,1.237,0,0,1-1.2.982,1.241,1.241,0,0,1-1.2-.951,1.211,1.211,0,0,1,.681-1.385.25.25,0,0,0,.173-.274c-.01-.528-.006-1.057-.008-1.586a.317.317,0,0,0-.029-.07H-458.6c-.614,0-.652-.038-.652-.654v-1.88c-.089,0-.159-.011-.229-.011h-1.608c-.329,0-.449-.118-.451-.44,0-.413.006-.826,0-1.238a.415.415,0,0,1,.307-.44c.434-.161.863-.333,1.3-.493a.33.33,0,0,0,.232-.25A9.426,9.426,0,0,1-458.87,5.9a.414.414,0,0,0,.015-.314c-.177-.435-.37-.864-.568-1.29a.413.413,0,0,1,.1-.526q.943-.931,1.874-1.874a.413.413,0,0,1,.526-.1c.426.2.855.391,1.29.568a.414.414,0,0,0,.314-.015,10.268,10.268,0,0,1,2.06-.852.387.387,0,0,0,.215-.2c.177-.427.342-.86.5-1.295a.439.439,0,0,1,.471-.328c.869.009,1.738,0,2.607,0,.3,0,.371.054.481.338.167.432.327.866.5,1.293a.36.36,0,0,0,.2.186,10.188,10.188,0,0,1,2.08.861.387.387,0,0,0,.295.012c.428-.176.851-.364,1.27-.561a.438.438,0,0,1,.564.1q.921.938,1.859,1.859a.426.426,0,0,1,.1.545c-.194.412-.369.833-.56,1.246a.348.348,0,0,0,.011.362,9.324,9.324,0,0,1,.852,2.036.388.388,0,0,0,.2.22c.434.18.874.346,1.315.508a.426.426,0,0,1,.314.458c-.01.413,0,.825,0,1.238,0,.3-.125.423-.423.424-.536,0-1.072,0-1.608,0Zm-18.567-.7h3.876A6.153,6.153,0,0,1-455.1,6.024,6.055,6.055,0,0,1-451,4.252a5.926,5.926,0,0,1,3.675,1.039,6.168,6.168,0,0,1,2.762,4.8h3.877c0-.213-.01-.415,0-.616a.226.226,0,0,0-.177-.269c-.415-.147-.823-.317-1.237-.469a.48.48,0,0,1-.331-.364,8.3,8.3,0,0,0-.977-2.355.462.462,0,0,1-.028-.472c.188-.407.359-.821.549-1.227a.218.218,0,0,0-.048-.3q-.715-.7-1.414-1.412a.205.205,0,0,0-.278-.054c-.405.192-.819.364-1.226.551a.481.481,0,0,1-.492-.024,8.24,8.24,0,0,0-2.355-.976.46.46,0,0,1-.353-.314c-.157-.427-.331-.849-.488-1.276a.2.2,0,0,0-.217-.154c-.681.007-1.361.006-2.042,0a.182.182,0,0,0-.2.143c-.16.434-.335.862-.5,1.3a.445.445,0,0,1-.338.3,8.3,8.3,0,0,0-2.355.974.5.5,0,0,1-.512.024c-.4-.186-.806-.358-1.207-.542a.207.207,0,0,0-.281.042q-.7.724-1.428,1.429a.206.206,0,0,0-.044.28c.186.4.356.807.542,1.207a.514.514,0,0,1-.034.531,7.886,7.886,0,0,0-.939,2.253.591.591,0,0,1-.424.464c-.449.157-.89.34-1.333.512Zm16.954,6.289a.531.531,0,0,0-.533-.536.535.535,0,0,0-.521.528.534.534,0,0,0,.535.536A.531.531,0,0,0-443.887,16.386Zm-13.754,0a.531.531,0,0,0,.515.532.535.535,0,0,0,.539-.532.536.536,0,0,0-.539-.533A.531.531,0,0,0-457.641,16.381Z" transform="translate(0 0)" fill="#0e1116"/>
      <path id="Path_18904" data-name="Path 18904" d="M-350.874,128.059a1,1,0,0,1,.266-1.721c-.145-.137-.284-.26-.414-.391a.975.975,0,0,1-.173-1.28.984.984,0,0,1,1.229-.344c.019.007.039.013.074.025a.992.992,0,0,1,1-.711.962.962,0,0,1,.892.673,3.357,3.357,0,0,1,.646-.059.89.89,0,0,1,.782.632.926.926,0,0,1-.206.988c-.145.16-.31.3-.488.47a1.024,1.024,0,0,1,.641.8.99.99,0,0,1-.376.915c.185.214.376.411.54.628.466.617.966,1.216,1.373,1.871a3.832,3.832,0,0,1-1.88,5.748,4.751,4.751,0,0,1-5.117-.732,3.749,3.749,0,0,1-.763-4.932,14.863,14.863,0,0,1,1.705-2.272C-351.056,128.263-350.969,128.166-350.874,128.059Zm1.928.165a5.122,5.122,0,0,1-.629,0,.882.882,0,0,0-.85.368,15.2,15.2,0,0,0-1.915,2.571,3.018,3.018,0,0,0,.6,3.787,4.074,4.074,0,0,0,4.052.877,3.219,3.219,0,0,0,1.974-4.985,17.95,17.95,0,0,0-2.008-2.529.348.348,0,0,0-.228-.081C-348.28,128.219-348.614,128.224-348.946,128.224Zm-.1-1.918c.313,0,.523,0,.733,0a.283.283,0,0,0,.176-.054q.429-.415.844-.845a.259.259,0,0,0,.018-.373.274.274,0,0,0-.352-.071c-.529.225-.816.1-1.048-.423a.367.367,0,0,0-.266-.195.372.372,0,0,0-.26.2.677.677,0,0,1-1.033.42.277.277,0,0,0-.369.072.273.273,0,0,0,.043.39c.116.12.247.226.35.355C-349.882,126.195-349.5,126.46-349.046,126.307Zm.108,1.222c.433,0,.867,0,1.3,0,.214,0,.327-.094.328-.259s-.116-.266-.324-.266q-1.3,0-2.6,0c-.21,0-.327.1-.328.262s.112.262.324.263C-349.805,127.531-349.372,127.529-348.939,127.529Z" transform="translate(-101.828 -116.767)" fill="#0e1116"/>
      <path id="Path_18905" data-name="Path 18905" d="M-299.21,228.04c.005-.03.011-.051.012-.072.018-.278.127-.418.331-.427s.317.127.371.4a.248.248,0,0,0,.14.148,1.341,1.341,0,0,1,.759.675.358.358,0,0,1-.126.524.36.36,0,0,1-.485-.195.726.726,0,0,0-1-.3.411.411,0,0,0-.244.38.349.349,0,0,0,.261.337c.169.062.349.09.522.143a3.941,3.941,0,0,1,.612.213,1.036,1.036,0,0,1,.611,1.059,1.022,1.022,0,0,1-.711.9c-.1.042-.2.07-.322.109a2.089,2.089,0,0,1-.035.22.325.325,0,0,1-.346.27.305.305,0,0,1-.324-.313c0-.157-.07-.2-.2-.247a1.245,1.245,0,0,1-.847-.86.344.344,0,0,1,.212-.456.325.325,0,0,1,.439.239c.146.544.977.6,1.338.29a.335.335,0,0,0-.072-.552,3.255,3.255,0,0,0-.608-.215c-.172-.054-.355-.081-.52-.15a1.017,1.017,0,0,1-.7-.974,1.1,1.1,0,0,1,.682-1.044C-299.383,228.1-299.294,228.073-299.21,228.04Z" transform="translate(-151.924 -214.639)" fill="#0e1116"/>
    </g>
  </g>
</svg>
