<svg xmlns="http://www.w3.org/2000/svg" width="56" height="56" viewBox="0 0 56 56">
  <g id="Group_23559" data-name="Group 23559" transform="translate(-195 -1451.533)">
    <circle id="Ellipse_942" data-name="Ellipse 942" cx="28" cy="28" r="28" transform="translate(195 1451.533)" fill="#c5def2"/>
    <g id="Group_24010" data-name="Group 24010" transform="translate(1199.651 1390.415)">
      <path id="Path_18906" data-name="Path 18906" d="M-975.551,78.118c.394.055.791.1,1.183.167a10.147,10.147,0,0,1,3.306,1.193c.213.122.278.286.184.456s-.272.209-.482.091a9.858,9.858,0,0,0-3.215-1.141.908.908,0,0,0-.235-.012,8.794,8.794,0,0,1,2.86,3.494,12.8,12.8,0,0,1,1.066,4.46,2.889,2.889,0,0,1,2.065-1.1,3.059,3.059,0,0,1,2.219.759c-.122-.408-.225-.823-.368-1.224a9.677,9.677,0,0,0-3.022-4.29,1.3,1.3,0,0,1-.2-.177.294.294,0,0,1,0-.4.288.288,0,0,1,.373-.076.711.711,0,0,1,.135.095,10.327,10.327,0,0,1,3.845,6.987c.043.355.046.715.058,1.073.008.244-.106.388-.294.4s-.318-.139-.331-.391a2.221,2.221,0,0,0-1.911-2.12,2.21,2.21,0,0,0-2.4,1.506,3.06,3.06,0,0,0-.112.627c-.025.238-.136.381-.324.378s-.291-.135-.307-.368a2.207,2.207,0,0,0-1.854-2.128,2.162,2.162,0,0,0-1.875.557.432.432,0,0,0-.156.357q.007,4.79,0,9.58a2.4,2.4,0,0,1-1.688,2.325,2.4,2.4,0,0,1-3.12-2.231c0-.145,0-.29,0-.434a.807.807,0,0,1,.847-.823.838.838,0,0,1,.894.809c.006.11,0,.221,0,.331a.654.654,0,0,0,.624.647.658.658,0,0,0,.693-.6,2.155,2.155,0,0,0,0-.227q0-4.676.005-9.352a.493.493,0,0,0-.2-.421,2.142,2.142,0,0,0-2.32-.373,2.15,2.15,0,0,0-1.361,1.916c0,.048,0,.1-.009.145a.3.3,0,0,1-.3.288.309.309,0,0,1-.32-.289c-.021-.164-.021-.331-.054-.492a2.221,2.221,0,0,0-2.4-1.735,2.228,2.228,0,0,0-1.98,2.1.5.5,0,0,1-.107.317.405.405,0,0,1-.314.069c-.153-.03-.2-.166-.2-.319a8.731,8.731,0,0,1,.238-2.195,10.3,10.3,0,0,1,7.828-7.931,14.519,14.519,0,0,1,1.529-.241c.06-.009.12-.024.18-.036Zm-2.02.743a9.764,9.764,0,0,0-8.224,7.654,2.851,2.851,0,0,1,2.183-.79,2.879,2.879,0,0,1,2.064,1.095c.014-.125.026-.212.034-.3a13.672,13.672,0,0,1,.458-2.58c.04-.142.1-.256.264-.283.25-.042.405.162.344.441-.116.524-.236,1.048-.335,1.575-.059.318-.081.643-.125,1.019a2.918,2.918,0,0,1,4.364.025V78.969c-.083.044-.143.073-.2.108A7.931,7.931,0,0,0-979.9,82.6c-.117.251-.28.334-.462.245s-.219-.264-.1-.516a9,9,0,0,1,1.116-1.807A8.656,8.656,0,0,1-977.571,78.861Zm1.684,7.888a2.859,2.859,0,0,1,2.158-1.029,2.836,2.836,0,0,1,2.177.945,10.511,10.511,0,0,0-1.68-5.3,7.9,7.9,0,0,0-2.655-2.4Zm-.576,9.11c0,.355.009.693,0,1.03a1.276,1.276,0,0,1-1.3,1.23,1.275,1.275,0,0,1-1.266-1.241c0-.117.006-.235-.009-.351a.23.23,0,0,0-.257-.216.216.216,0,0,0-.23.236c0,.138,0,.276,0,.413a1.786,1.786,0,0,0,1.624,1.714,1.754,1.754,0,0,0,1.878-1.371,11.071,11.071,0,0,0,.08-1.446Zm.487-.649V88.835h-.472V95.21Z" transform="translate(0)" fill="#0e1116"/>
      <path id="Path_18907" data-name="Path 18907" d="M-971.781,278.559a3.234,3.234,0,0,1,3.2,3.687.318.318,0,0,1-.339.313.307.307,0,0,1-.279-.383,2.624,2.624,0,0,0-.394-1.8,2.615,2.615,0,0,0-3.024-1.063,2.626,2.626,0,0,0-1.779,2.628,2.611,2.611,0,0,0,2.169,2.423,2.554,2.554,0,0,0,2.362-.8,1.718,1.718,0,0,1,.157-.164.285.285,0,0,1,.4.007.279.279,0,0,1,.061.39,1.662,1.662,0,0,1-.255.3,3.109,3.109,0,0,1-3.476.7,3.081,3.081,0,0,1-2.039-2.942A3.221,3.221,0,0,1-971.781,278.559Z" transform="translate(-10.988 -189.359)" fill="#0e1116"/>
      <path id="Path_18908" data-name="Path 18908" d="M-730.085,288.383c0,.517,0,1.034,0,1.552a1.238,1.238,0,0,1-1.244,1.276q-1.282.02-2.565,0a1.232,1.232,0,0,1-1.245-1.272q-.008-1.572,0-3.145a1.238,1.238,0,0,1,1.282-1.277q1.241-.007,2.482,0a1.246,1.246,0,0,1,1.29,1.294C-730.083,287.335-730.085,287.859-730.085,288.383Zm-4.432-.026q0,.755,0,1.509a.634.634,0,0,0,.706.72q1.2,0,2.4,0a.637.637,0,0,0,.7-.705q0-1.52,0-3.039a.633.633,0,0,0-.688-.7q-1.22,0-2.44,0a.626.626,0,0,0-.68.684C-734.519,287.337-734.517,287.847-734.517,288.357Z" transform="translate(-237.602 -195.93)" fill="#0e1116"/>
      <path id="Path_18909" data-name="Path 18909" d="M-936.537,301.2c0-.246,0-.471,0-.7,0-.042-.049-.086-.084-.121a.353.353,0,0,0-.091-.047.8.8,0,0,1-.516-.756.853.853,0,0,1,.561-.8.179.179,0,0,0,.135-.214.577.577,0,0,1,0-.124.309.309,0,0,1,.309-.3.3.3,0,0,1,.31.3c.007.082,0,.165,0,.242.192.095.381.174.555.278a.325.325,0,0,1,.156.468c-.1.161-.283.182-.487.058-.062-.038-.127-.07-.221-.12,0,.206-.007.376.005.545,0,.045.061.1.106.125.1.067.222.111.323.182a.864.864,0,0,1,0,1.472,3.761,3.761,0,0,1-.432.224c0,.058.005.147,0,.234a.308.308,0,0,1-.305.3.285.285,0,0,1-.306-.294c.028-.247-.1-.32-.293-.4a1.682,1.682,0,0,1-.467-.331.3.3,0,0,1,0-.428.316.316,0,0,1,.431-.015c.076.059.15.12.227.178A.49.49,0,0,0-936.537,301.2Zm.64-.492v.5C-935.63,301.03-935.633,300.864-935.9,300.71Z" transform="translate(-46.546 -207.866)" fill="#0e1116"/>
      <path id="Path_18910" data-name="Path 18910" d="M-709.987,337.519c.275,0,.55,0,.825,0,.23,0,.363.117.367.3s-.135.322-.371.324q-.825.007-1.651,0c-.239,0-.371-.129-.364-.327s.129-.294.368-.3C-710.537,337.516-710.262,337.519-709.987,337.519Z" transform="translate(-260.24 -245.058)" fill="#0e1116"/>
      <path id="Path_18911" data-name="Path 18911" d="M-710.247,314.545c.186,0,.372,0,.559,0a.312.312,0,0,1,.335.294.313.313,0,0,1-.326.326q-.59.011-1.179,0a.3.3,0,0,1-.32-.328.3.3,0,0,1,.332-.292C-710.647,314.542-710.447,314.545-710.247,314.545Z" transform="translate(-260.241 -223.355)" fill="#0e1116"/>
    </g>
  </g>
</svg>
