<svg xmlns="http://www.w3.org/2000/svg" width="56" height="56" viewBox="0 0 56 56">
  <g id="Group_24013" data-name="Group 24013" transform="translate(-199 -1409)">
    <circle id="Ellipse_942" data-name="Ellipse 942" cx="28" cy="28" r="28" transform="translate(199 1409)" fill="#f9adb8"/>
    <g id="Group_24007" data-name="Group 24007" transform="translate(1100.615 1420.356)">
      <path id="Path_18887" data-name="Path 18887" d="M-865.811,180.054a1.75,1.75,0,0,1,1.891.326,1.736,1.736,0,0,1-.27,2.779c-.818.5-1.657.966-2.488,1.446-1.167.674-2.339,1.343-3.5,2.023a4.964,4.964,0,0,1-2.867.62,8.493,8.493,0,0,1-4.462-1.724c-.431-.306-.839-.646-1.268-.979l-2.081,1.2c-.285.164-.346.148-.51-.135l-2.144-3.712c-.161-.279-.142-.353.132-.511q2.631-1.519,5.264-3.038a3.536,3.536,0,0,1,1.3-.453,1.715,1.715,0,0,1,1.466.462,5.442,5.442,0,0,1,.735.825,4.471,4.471,0,0,0,2.126,1.592,8.688,8.688,0,0,0,.858.285.425.425,0,0,0,.294-.037c1.055-.6,2.126-1.178,3.151-1.826A1.526,1.526,0,0,1-865.811,180.054Zm-14.894.319c.6,1.045,1.207,2.052,1.768,3.082a3.627,3.627,0,0,0,1.1,1.256c.443.314.878.643,1.342.924a7.386,7.386,0,0,0,3.557,1.161,4.578,4.578,0,0,0,2.658-.636c.731-.449,1.485-.863,2.228-1.292,1.191-.688,2.384-1.371,3.571-2.065a1.29,1.29,0,0,0,.5-1.776,1.29,1.29,0,0,0-1.765-.482c-1.188.679-2.37,1.368-3.557,2.049a.174.174,0,0,0-.1.22,1.555,1.555,0,0,1-.287,1.238,1.926,1.926,0,0,1-2.187.635l-2.228-.691-.788-.243c-.155-.047-.258-.141-.2-.31a.223.223,0,0,1,.329-.13c.031.012.064.018.1.028.973.3,1.944.611,2.921.9a2.221,2.221,0,0,0,.694.082,1.294,1.294,0,0,0,1.166-.878,1.168,1.168,0,0,0-.456-1.317,2.986,2.986,0,0,0-.734-.407c-.457-.172-.935-.287-1.395-.452a4.947,4.947,0,0,1-2.55-1.874,3.744,3.744,0,0,0-.345-.42,1.513,1.513,0,0,0-1.965-.471,12.837,12.837,0,0,0-1.352.707C-879.358,179.587-880.022,179.978-880.706,180.372Zm1.661,3.8L-881.1,180.6l-1.97,1.138,2.058,3.566Zm9.457-1.936c-.023,0-.015,0-.01,0q1.631-.938,3.258-1.881a.209.209,0,0,0,.063-.176,1,1,0,0,0-1.451-.691c-.28.145-.549.31-.822.468l-2.3,1.33a6.871,6.871,0,0,1,.676.4A7.115,7.115,0,0,1-869.588,182.232Z" transform="translate(0 -161.087)" fill="#0e1116"/>
      <path id="Path_18888" data-name="Path 18888" d="M-743.011,7.644a4.946,4.946,0,0,1,4.934,4.956,4.951,4.951,0,0,1-4.951,4.922,4.939,4.939,0,0,1-4.929-4.958A4.934,4.934,0,0,1-743.011,7.644Zm4.473,4.944A4.492,4.492,0,0,0-743,8.1a4.5,4.5,0,0,0-4.5,4.469,4.5,4.5,0,0,0,4.472,4.5A4.492,4.492,0,0,0-738.538,12.588Z" transform="translate(-128.369 0)" fill="#0e1116"/>
      <path id="Path_18889" data-name="Path 18889" d="M-713.133,39.043a3.439,3.439,0,0,1-3.445,3.422,3.446,3.446,0,0,1-3.42-3.47,3.448,3.448,0,0,1,3.448-3.4A3.44,3.44,0,0,1-713.133,39.043Zm-6.4-.011A2.972,2.972,0,0,0-716.545,42a2.969,2.969,0,0,0,2.955-2.984,2.967,2.967,0,0,0-2.98-2.957A2.97,2.97,0,0,0-719.537,39.032Z" transform="translate(-154.825 -26.448)" fill="#0e1116"/>
      <path id="Path_18890" data-name="Path 18890" d="M-675.9,53.305a1.209,1.209,0,0,1,.772.559c.082.14.149.286-.015.411-.123.094-.252.03-.376-.173a.722.722,0,0,0-.854-.319.715.715,0,0,0-.471.778.677.677,0,0,0,.664.613,1.175,1.175,0,0,1,1.12.976,1.162,1.162,0,0,1-.747,1.3c-.03.013-.06.028-.094.044-.013.177.026.406-.234.413-.232.006-.234-.2-.234-.317a7.051,7.051,0,0,1-.669-.413,1.134,1.134,0,0,1-.249-.359.185.185,0,0,1,.1-.283c.086-.025.2.037.3.073.029.011.039.067.06.1a.713.713,0,0,0,.872.311.722.722,0,0,0,.456-.771.715.715,0,0,0-.667-.618,1.162,1.162,0,0,1-1.1-.892,1.166,1.166,0,0,1,.749-1.387c.092-.034.175-.053.164-.183-.012-.154.059-.274.224-.273s.236.127.232.29C-675.911,53.223-675.907,53.256-675.9,53.305Z" transform="translate(-195.209 -42.824)" fill="#0e1116"/>
    </g>
  </g>
</svg>
