<svg xmlns="http://www.w3.org/2000/svg" width="56" height="56" viewBox="0 0 56 56">
  <g id="Group_23559" data-name="Group 23559" transform="translate(-195 -1451.533)">
    <circle id="Ellipse_942" data-name="Ellipse 942" cx="28" cy="28" r="28" transform="translate(195 1451.533)" fill="#ffc699"/>
    <g id="Group_24008" data-name="Group 24008" transform="translate(1265.104 1476.287)">
      <path id="Path_18891" data-name="Path 18891" d="M-980.758,113.721a1.221,1.221,0,0,1,1.1-.145c.086.012.18.17.215.279.073.226.1.467.168.7.022.076.107.136.171.194.031.028.089.023.124.049a.739.739,0,0,0,1.028-.108,1.777,1.777,0,0,1,.225-.147.353.353,0,0,1,.471.048q.416.408.824.824a.359.359,0,0,1,.043.489c-.133.208-.273.411-.393.626a.369.369,0,0,0-.014.238c.019.085.093.16.106.245.056.358.3.458.615.513.736.127.709.156.7.87,0,.232,0,.463,0,.7a.374.374,0,0,1-.34.424l-.109.028a1.822,1.822,0,0,0-.7.2c-.163.135-.208.418-.291.641a.262.262,0,0,0,.022.2c.125.212.263.416.4.623a.368.368,0,0,1-.053.507c-.263.266-.527.53-.79.8a.374.374,0,0,1-.524.051c-.181-.119-.364-.235-.546-.351a.963.963,0,0,0-.115-.07,1.449,1.449,0,0,0-.86.419c-.051.226-.1.453-.149.678a.382.382,0,0,1-.438.352,2.51,2.51,0,0,1-.4,0,4.84,4.84,0,0,1-.485-.123c0,.369.011.79,0,1.21a1.724,1.724,0,0,1-1.069,1.624,1.859,1.859,0,0,1-.737.155q-3.934.016-7.869,0a1.782,1.782,0,0,1-1.8-1.814c-.005-1.637,0-3.274,0-4.91,0-.283.135-.447.358-.447s.358.164.358.447q0,2.41,0,4.821a1.085,1.085,0,0,0,1.18,1.188h7.689a1.082,1.082,0,0,0,1.174-1.172q0-5.46,0-10.92v-.157c0-1.234.041-1.388.364-1.383s.353.152.353,1.372Zm.01,2.7a2.187,2.187,0,0,1,2.486,1.858,2.194,2.194,0,0,1-1.2,2.212.356.356,0,0,1-.5-.155.354.354,0,0,1,.164-.477c.044-.027.093-.048.137-.075a1.434,1.434,0,0,0,.568-1.818,1.4,1.4,0,0,0-1.654-.789v5.806l.669-.178c.047-.208.108-.461.159-.715a.415.415,0,0,1,.3-.326c.313-.117.623-.247.926-.388a.435.435,0,0,1,.463.022c.181.12.362.238.55.346a.194.194,0,0,0,.17,0c.147-.1.282-.217.411-.319-.174-.271-.292-.47-.426-.658a.485.485,0,0,1-.026-.561,5.732,5.732,0,0,0,.341-.824.484.484,0,0,1,.4-.368c.239-.045.475-.1.709-.156v-.616c-.245-.055-.483-.114-.724-.159a.465.465,0,0,1-.382-.357,3.7,3.7,0,0,0-.3-.745.553.553,0,0,1,.026-.716,1.562,1.562,0,0,0,.11-.169c.252-.393.255-.4-.1-.706a.242.242,0,0,0-.219-.021c-.19.1-.368.227-.55.344a.425.425,0,0,1-.444.017c-.3-.14-.613-.271-.926-.387a.429.429,0,0,1-.308-.344c-.048-.248-.109-.494-.166-.748-.237-.02-.493.056-.66-.242Z" transform="translate(-56.281 -112.673)" fill="#0e1116"/>
      <path id="Path_18892" data-name="Path 18892" d="M-1047.084,62.217a5.022,5.022,0,0,1-5.02-5.031,5.03,5.03,0,0,1,5.024-5.014,5.028,5.028,0,0,1,5.019,5.018A5.024,5.024,0,0,1-1047.084,62.217Zm3.291-2.272a4.273,4.273,0,0,0-.3-5.848,4.285,4.285,0,0,0-6.1.13,4.252,4.252,0,0,0-.179,5.712c.026-.037.053-.073.077-.11a2.475,2.475,0,0,1,2.173-1.2c.717-.006,1.434-.013,2.151,0a2.441,2.441,0,0,1,2.017,1.069C-1043.9,59.78-1043.847,59.862-1043.793,59.945Zm-.564.547a1.709,1.709,0,0,0-1.561-1.139q-1.164-.022-2.328,0a1.712,1.712,0,0,0-1.563,1.138A4.3,4.3,0,0,0-1044.357,60.491Z" transform="translate(0 -56.336)" fill="#0e1116"/>
      <path id="Path_18893" data-name="Path 18893" d="M-856.836,52.154c.694,0,1.388,0,2.083,0a1.436,1.436,0,0,1,1.488,1.434,1.435,1.435,0,0,1-1.486,1.435q-2.1,0-4.21,0a1.435,1.435,0,0,1-1.476-1.445,1.436,1.436,0,0,1,1.475-1.424C-858.254,52.151-857.545,52.154-856.836,52.154Zm-.007,2.153c.695,0,1.389,0,2.084,0a.724.724,0,0,0,.776-.721.725.725,0,0,0-.783-.713q-2.084,0-4.168,0a.725.725,0,0,0-.786.709.727.727,0,0,0,.794.725C-858.233,54.307-857.538,54.306-856.843,54.306Z" transform="translate(-180.187 -56.318)" fill="#0e1116"/>
      <path id="Path_18894" data-name="Path 18894" d="M-986.549-7.752h3.808a1.8,1.8,0,0,1,1.925,1.936c0,.179,0,.359,0,.538a.363.363,0,0,1-.365.394.36.36,0,0,1-.349-.387c-.006-.231,0-.463,0-.695a1.066,1.066,0,0,0-1.072-1.067q-3.943-.007-7.886,0a1.067,1.067,0,0,0-1.084,1.079c0,.224,0,.448,0,.672a.363.363,0,0,1-.361.4.362.362,0,0,1-.353-.406,6.6,6.6,0,0,1,.017-.895,1.778,1.778,0,0,1,1.806-1.567C-989.163-7.756-987.856-7.752-986.549-7.752Z" transform="translate(-56.223)" fill="#0e1116"/>
      <path id="Path_18895" data-name="Path 18895" d="M-952.595,243.832h3.116c.265,0,.418.11.444.314a.359.359,0,0,1-.311.4,1.576,1.576,0,0,1-.224.005h-6.1a1.241,1.241,0,0,1-.224-.006.338.338,0,0,1-.309-.353.339.339,0,0,1,.31-.353,1.115,1.115,0,0,1,.2-.005Z" transform="translate(-90.16 -236.516)" fill="#0e1116"/>
      <path id="Path_18896" data-name="Path 18896" d="M-953.042,291.774c.807,0,1.614,0,2.421,0,.246,0,.4.115.424.311a.364.364,0,0,1-.4.4c-.426,0-.852,0-1.278,0-1.2,0-2.391,0-3.587,0-.1,0-.242,0-.294-.062a.587.587,0,0,1-.156-.38c.018-.19.183-.274.378-.273q.975,0,1.95,0Z" transform="translate(-90.434 -281.588)" fill="#0e1116"/>
      <path id="Path_18897" data-name="Path 18897" d="M-954.455,267.81c.456,0,.912,0,1.367,0,.263,0,.424.141.424.358s-.161.358-.424.358q-1.367,0-2.735,0c-.264,0-.424-.141-.424-.358s.16-.356.424-.358C-955.367,267.809-954.911,267.81-954.455,267.81Z" transform="translate(-90.116 -259.059)" fill="#0e1116"/>
      <path id="Path_18898" data-name="Path 18898" d="M-918.889,16.928c-.336,0-.672,0-1.009,0-.26,0-.421-.148-.416-.366a.363.363,0,0,1,.41-.35q1.02,0,2.04,0c.26,0,.422.147.417.365a.365.365,0,0,1-.41.35C-918.2,16.931-918.545,16.928-918.889,16.928Z" transform="translate(-123.897 -22.528)" fill="#0e1116"/>
      <path id="Path_18899" data-name="Path 18899" d="M-1028.144,243.078a.364.364,0,0,1,.37-.385.362.362,0,0,1,.346.364.384.384,0,0,1-.381.381A.329.329,0,0,1-1028.144,243.078Z" transform="translate(-22.525 -235.447)" fill="#0e1116"/>
      <path id="Path_18900" data-name="Path 18900" d="M-1028.144,267.052a.365.365,0,0,1,.362-.393.362.362,0,0,1,.354.356.385.385,0,0,1-.373.39A.328.328,0,0,1-1028.144,267.052Z" transform="translate(-22.525 -257.977)" fill="#0e1116"/>
      <path id="Path_18901" data-name="Path 18901" d="M-1027.807,291.363a.329.329,0,0,1-.337-.358.365.365,0,0,1,.367-.388.362.362,0,0,1,.348.361A.384.384,0,0,1-1027.807,291.363Z" transform="translate(-22.525 -280.501)" fill="#0e1116"/>
      <path id="Path_18902" data-name="Path 18902" d="M-996.4,88.122a1.8,1.8,0,0,1,1.794,1.8,1.8,1.8,0,0,1-1.8,1.789,1.8,1.8,0,0,1-1.783-1.787A1.8,1.8,0,0,1-996.4,88.122Zm-.007.718a1.08,1.08,0,0,0-1.067,1.073,1.08,1.08,0,0,0,1.084,1.079,1.081,1.081,0,0,0,1.067-1.073A1.079,1.079,0,0,0-996.408,88.84Z" transform="translate(-50.683 -90.133)" fill="#0e1116"/>
    </g>
  </g>
</svg>
