<svg xmlns="http://www.w3.org/2000/svg" width="70" height="70" viewBox="0 0 70 70">
  <g id="Group_23574" data-name="Group 23574" transform="translate(-195 -1451.533)">
    <circle id="Ellipse_942" data-name="Ellipse 942" cx="35" cy="35" r="35" transform="translate(195 1451.533)" fill="#c1ebc0"/>
    <g id="Group_23962" data-name="Group 23962" transform="translate(-3026.975 519.73)">
      <path id="Path_18510" data-name="Path 18510" d="M3252.954,1048.766a6.476,6.476,0,0,1,.8.243,2.144,2.144,0,0,1,1.356,2.013c.032,1.348.015,2.7.007,4.046a.962.962,0,0,1-1.01.98q-2.286.005-4.571,0a.986.986,0,0,1-1-.991c-.1-1.41-.211-2.819-.349-4.226a10.766,10.766,0,0,0-.884-2.9,13.48,13.48,0,0,1-.986-3.053c-.124-.872-.193-1.752-.284-2.629-.024-.232-.052-.464-.053-.7a1.085,1.085,0,0,1,.948-1.1,1.165,1.165,0,0,1,1.3.945c.113.816.216,1.634.3,2.453a3.3,3.3,0,0,0,.447,1.482c.312.5.572,1.032.856,1.55a.58.58,0,0,0,.065.078,1.977,1.977,0,0,1,1.777-1.641,1.923,1.923,0,0,1,1.852,1.076A1.982,1.982,0,0,1,3252.954,1048.766Zm-.12,5.281c0-.419,0-.809,0-1.2,0-.271.118-.414.325-.417s.326.137.328.408c0,.483,0,.966,0,1.449,0,.312-.106.409-.429.41-.608,0-1.216,0-1.824,0-.283,0-.452.14-.447.358s.168.34.438.34q1.411,0,2.823,0c.294,0,.414-.115.414-.406,0-1.308.011-2.615,0-3.923a1.589,1.589,0,0,0-1.291-1.567c-.324-.074-.652-.133-.976-.206a8.98,8.98,0,0,1-1.21-.292,3.016,3.016,0,0,1-1.546-1.462q-.678-1.222-1.335-2.455a1.244,1.244,0,0,1-.133-.421c-.123-.974-.235-1.95-.351-2.925a2.145,2.145,0,0,0-.044-.271.534.534,0,0,0-.581-.369.429.429,0,0,0-.363.465c.019.407.063.813.1,1.219a12.258,12.258,0,0,0,.44,2.88c.285.851.621,1.684.94,2.523a9.839,9.839,0,0,1,.722,2.536c.137,1.424.243,2.851.357,4.277.015.193.065.363.275.385a6.783,6.783,0,0,0,.713.006,1.056,1.056,0,0,1,1.148-1.352C3251.81,1054.08,3252.3,1054.047,3252.833,1054.047Zm-1.036-8.083a1.256,1.256,0,1,0,1.256,1.258A1.27,1.27,0,0,0,3251.8,1045.964Z" transform="translate(0 -78.853)" fill="#0e1116"/>
      <path id="Path_18511" data-name="Path 18511" d="M3433.271,1046.983c.43-.79.875-1.508,1.214-2.272a4.533,4.533,0,0,0,.191-1.251c.084-.669.155-1.339.245-2.008a1.168,1.168,0,0,1,1.334-1.019,1.108,1.108,0,0,1,.924,1.227,16.947,16.947,0,0,1-1.415,6.517,8.283,8.283,0,0,0-.8,2.717c-.128,1.375-.237,2.752-.333,4.129a.994.994,0,0,1-1.013,1.009q-2.287.006-4.573,0a.96.96,0,0,1-1-.991c-.008-1.341-.017-2.682,0-4.023a2.242,2.242,0,0,1,1.822-2.179c.105-.023.212-.044.349-.073a1.9,1.9,0,0,1-.42-2.638,1.757,1.757,0,0,1,1.935-.788A1.914,1.914,0,0,1,3433.271,1046.983Zm-.254,8.4c.161,0,.35,0,.539,0,.3,0,.393-.114.416-.406.106-1.377.209-2.754.335-4.128a9.92,9.92,0,0,1,.852-2.936,13.749,13.749,0,0,0,1.25-4.878c.017-.482.084-.962.119-1.443a.4.4,0,0,0-.258-.465.853.853,0,0,0-.53.1.486.486,0,0,0-.168.337c-.137,1.048-.26,2.1-.389,3.146a.74.74,0,0,1-.07.262c-.5.921-.985,1.851-1.519,2.753a2.751,2.751,0,0,1-1.857,1.4c-.563.113-1.124.234-1.685.353a1.6,1.6,0,0,0-1.356,1.638c-.007,1.274,0,2.548,0,3.823,0,.342.106.445.45.446q1.374,0,2.748,0a.9.9,0,0,0,.175-.006.333.333,0,0,0,.3-.347.329.329,0,0,0-.281-.335,1.031,1.031,0,0,0-.224-.011c-.6,0-1.2,0-1.8,0-.21,0-.378-.072-.384-.3-.013-.558-.009-1.116,0-1.674a.284.284,0,0,1,.284-.292.3.3,0,0,1,.349.25,1.06,1.06,0,0,1,.016.248c0,.364,0,.727,0,1.114.584,0,1.14,0,1.7,0a.963.963,0,0,1,.956.732A3.8,3.8,0,0,1,3433.016,1055.383Zm-.4-8.178a1.255,1.255,0,1,0-2.509,0,1.255,1.255,0,0,0,2.509,0Z" transform="translate(-169.611 -78.838)" fill="#0e1116"/>
      <path id="Path_18512" data-name="Path 18512" d="M3358.893,1013.376a4.559,4.559,0,0,0-.7-2.41,9.476,9.476,0,0,1-.777-1.717,3.143,3.143,0,0,1,2.855-3.814,3.187,3.187,0,0,1,3.418,2.95,2.915,2.915,0,0,1-.318,1.57c-.142.291-.3.577-.458.858a4.794,4.794,0,0,0-.783,2.961.583.583,0,0,1-.2.562.994.994,0,0,0-.378.617,1.064,1.064,0,0,1-1.141.834,1.031,1.031,0,0,1-.954-.981c-.006-.218-.033-.348-.275-.434-.13-.046-.236-.264-.279-.424A2.283,2.283,0,0,1,3358.893,1013.376Zm1.617-.978c.283,0,.566-.007.849,0,.142.005.193-.05.245-.179.219-.546.446-1.089.69-1.624.158-.347.371-.67.524-1.019a2.476,2.476,0,0,0-1.233-3.257,2.531,2.531,0,0,0-3.316,1.119,2.49,2.49,0,0,0,.09,2.478,10.483,10.483,0,0,1,1.086,2.347.253.253,0,0,0,.193.126C3359.928,1012.406,3360.219,1012.4,3360.51,1012.4Zm-.95,1.379h1.9v-.7h-1.9Zm1.345.684h-.791c-.013.236-.062.481.181.6a.545.545,0,0,0,.415.009C3360.96,1014.961,3360.929,1014.716,3360.905,1014.461Z" transform="translate(-103.739 -46.234)" fill="#0e1116"/>
      <path id="Path_18513" data-name="Path 18513" d="M3308.458,1048.041c-.225,0-.449,0-.674,0-.254-.006-.392-.121-.4-.319s.132-.333.379-.338c.457-.008.915-.005,1.372,0a.328.328,0,0,1,.372.32c.014.2-.133.328-.379.336C3308.908,1048.046,3308.683,1048.04,3308.458,1048.041Z" transform="translate(-57.214 -85.314)" fill="#0e1116"/>
      <path id="Path_18514" data-name="Path 18514" d="M3470.47,1048.037c-.224,0-.448,0-.673,0-.254-.006-.389-.121-.394-.32s.132-.333.378-.337c.457-.007.914-.006,1.371,0a.325.325,0,0,1,.369.321c.012.2-.131.327-.377.335C3470.919,1048.042,3470.695,1048.037,3470.47,1048.037Z" transform="translate(-208.153 -85.311)" fill="#0e1116"/>
      <path id="Path_18515" data-name="Path 18515" d="M3399.736,956.883c0,.224,0,.449,0,.673s-.1.36-.325.36-.325-.146-.327-.357q-.007-.7,0-1.4c0-.209.1-.36.324-.361s.322.15.328.358C3399.741,956.4,3399.736,956.642,3399.736,956.883Z" transform="translate(-142.637)" fill="#0e1116"/>
      <path id="Path_18516" data-name="Path 18516" d="M3336.463,984.452c-.054.076-.1.208-.188.245a.39.39,0,0,1-.341-.017c-.385-.354-.759-.721-1.106-1.111a.311.311,0,0,1,.409-.45c.4.359.775.749,1.153,1.134C3336.427,984.291,3336.431,984.36,3336.463,984.452Z" transform="translate(-82.74 -25.423)" fill="#0e1116"/>
      <path id="Path_18517" data-name="Path 18517" d="M3450.453,983.4a1.573,1.573,0,0,1-.175.293c-.317.329-.643.65-.968.972a.325.325,0,0,1-.487.035.317.317,0,0,1,.014-.486c.331-.34.66-.681,1.011-1a.491.491,0,0,1,.38-.073C3450.312,983.161,3450.37,983.3,3450.453,983.4Z" transform="translate(-188.88 -25.463)" fill="#0e1116"/>
    </g>
  </g>
</svg>
