<svg xmlns="http://www.w3.org/2000/svg" width="56" height="56" viewBox="0 0 56 56">
  <g id="Group_23559" data-name="Group 23559" transform="translate(-195 -1451.533)">
    <circle id="Ellipse_942" data-name="Ellipse 942" cx="28" cy="28" r="28" transform="translate(195 1451.533)" fill="#fbf4d8"/>
    <g id="Group_24012" data-name="Group 24012" transform="translate(422.523 703.455)">
      <path id="Path_18920" data-name="Path 18920" d="M-191.021,772.8a1.7,1.7,0,0,1,1.678,1.843c0,.168.01.337,0,.5a1.159,1.159,0,0,0,.333,1.053,1.273,1.273,0,0,1,.341.967q0,3.027,0,6.053a1.672,1.672,0,0,1-1.715,1.694q-3.71.005-7.42,0h-.261c-.018.223-.018.439-.056.649a1.647,1.647,0,0,1-1.61,1.365q-4.067.011-8.134,0a1.664,1.664,0,0,1-1.652-1.692c-.005-1.78,0-3.559,0-5.339q0-5.99,0-11.981a1.692,1.692,0,0,1,1.828-1.836h7.8a1.69,1.69,0,0,1,1.809,1.813c0,.363,0,.726,0,1.116a4.279,4.279,0,0,1,4.762-.374A4.3,4.3,0,0,1-191.021,772.8Zm-17.814-4.018v14.778h6.73c-.006-.136-.017-.26-.017-.385q0-4.318,0-8.636a1.678,1.678,0,0,1,1.722-1.73c.208,0,.417,0,.63,0a.91.91,0,0,0,.009-.1,4.332,4.332,0,0,1,.929-2.937.282.282,0,0,0,.068-.146c.007-.278,0-.556,0-.842Zm7.385,7.053v.222q0,3.541,0,7.082a1.017,1.017,0,0,0,1.114,1.105h4.665q2.637,0,5.274,0a.984.984,0,0,0,1.034-.853,10.988,10.988,0,0,0,.008-1.165h-.238c-1.268,0-2.536.008-3.8,0a2.015,2.015,0,0,1-2-1.972,2.013,2.013,0,0,1,2-2.058c1.275-.011,2.55,0,3.824,0h.23c0-.311,0-.59,0-.87a1.027,1.027,0,0,0-1.156-1.148q-4.749,0-9.5,0A2.227,2.227,0,0,1-201.45,775.83Zm5.37-2.345c.007.036.01.057.015.078a.683.683,0,0,0,.75.583.682.682,0,0,0,.59-.7.682.682,0,0,0-.7-.638,1.348,1.348,0,0,1-1.3-1.134,1.331,1.331,0,0,1,.849-1.458c.111-.044.153-.092.146-.21-.01-.18,0-.361,0-.548h.673c0,.172.012.334,0,.492s.044.228.192.288a1.255,1.255,0,0,1,.8,1.215h-.64c-.084-.4-.295-.626-.614-.66a.68.68,0,0,0-.741.615.668.668,0,0,0,.634.722,1.433,1.433,0,0,1,.792.239,1.291,1.291,0,0,1,.58,1.25,1.309,1.309,0,0,1-.829,1.1c-.062.028-.157.08-.16.127-.017.213-.008.427-.008.648.584,0,1.137,0,1.69,0a.374.374,0,0,0,.2-.085,3.578,3.578,0,0,0,1.459-2.747,3.669,3.669,0,0,0-4.175-3.848,3.491,3.491,0,0,0-3.046,2.594,3.561,3.561,0,0,0,1.089,3.837.816.816,0,0,0,.695.256,4.946,4.946,0,0,1,.567,0h.843a4.341,4.341,0,0,1,0-.467.28.28,0,0,0-.214-.336,1.235,1.235,0,0,1-.773-1.207Zm-12.769,10.754c0,.325,0,.618,0,.912a1.017,1.017,0,0,0,1.114,1.105h7.861a1.048,1.048,0,0,0,1.086-1.345c-.549,0-1.1,0-1.653,0a1.61,1.61,0,0,1-1.213-.533.393.393,0,0,0-.323-.141q-3.321.005-6.642,0Zm19.5-5.363a.3.3,0,0,0-.057-.016c-1.344,0-2.688-.012-4.032.01a1.443,1.443,0,0,0-.7.238,1.3,1.3,0,0,0-.521,1.494,1.339,1.339,0,0,0,1.278.944c1.309.005,2.618,0,3.927,0,.033,0,.066-.006.106-.011Zm-19.487-10.793h10.078c0-.123,0-.234,0-.344a1,1,0,0,0-1-.986q-4.043-.007-8.085,0a1,1,0,0,0-.992.855A3.4,3.4,0,0,0-208.839,768.084Zm9.182,5.395c-.288,0-.56-.009-.832,0a1.007,1.007,0,0,0-.96.981.994.994,0,0,0,.931,1.026c.636.02,1.272,0,1.909,0,.008,0,.015-.019.021-.027-.125-.16-.261-.312-.371-.482a.307.307,0,0,0-.3-.16c-.389.01-.778,0-1.163,0v-.678h.984Zm8.509.01a4.525,4.525,0,0,1-1.1,2.015h2.237c0-.329,0-.664,0-1A1.007,1.007,0,0,0-191.149,773.488Z" fill="#0e1116"/>
      <path id="Path_18921" data-name="Path 18921" d="M89.873,767v-.661h.666V767l.006-.006h-.678Z" transform="translate(-282.576 -0.249)" fill="#0e1116"/>
      <path id="Path_18922" data-name="Path 18922" d="M78.864,778.677H78.2v-.667h.661l-.006-.006v.678Z" transform="translate(-271.567 -11.257)" fill="#0e1116"/>
      <path id="Path_18923" data-name="Path 18923" d="M101.838,778.011h.661v.667h-.661l.006.006v-.678Z" transform="translate(-293.875 -11.257)" fill="#0e1116"/>
      <path id="Path_18924" data-name="Path 18924" d="M90.54,789.976v.661h-.667v-.661l-.006.006h.678Z" transform="translate(-282.576 -22.556)" fill="#0e1116"/>
      <path id="Path_18925" data-name="Path 18925" d="M137.78,826.888v-.661h.666v.661l.006-.006h-.678Z" transform="translate(-327.792 -56.771)" fill="#0e1116"/>
      <path id="Path_18926" data-name="Path 18926" d="M126.772,838.561h-.661v-.667h.661l-.006-.006v.679Z" transform="translate(-316.784 -67.778)" fill="#0e1116"/>
      <path id="Path_18927" data-name="Path 18927" d="M149.745,837.895h.661v.667h-.661l.006.006v-.679Z" transform="translate(-339.091 -67.778)" fill="#0e1116"/>
      <path id="Path_18928" data-name="Path 18928" d="M138.447,849.86v.661h-.667v-.661l-.006.006h.678Z" transform="translate(-327.792 -79.077)" fill="#0e1116"/>
      <path id="Path_18929" data-name="Path 18929" d="M-65.826,838.864V838.2h.666v.661l.006-.006h-.678Z" transform="translate(-135.621 -68.074)" fill="#0e1116"/>
      <path id="Path_18930" data-name="Path 18930" d="M-76.834,850.538H-77.5v-.667h.661l-.006-.006v.678Z" transform="translate(-124.613 -79.082)" fill="#0e1116"/>
      <path id="Path_18931" data-name="Path 18931" d="M-53.861,849.872h.661v.667h-.661l.006.006v-.678Z" transform="translate(-146.92 -79.082)" fill="#0e1116"/>
      <path id="Path_18932" data-name="Path 18932" d="M-65.159,861.837v.661h-.667v-.661l-.006.006h.678Z" transform="translate(-135.621 -90.381)" fill="#0e1116"/>
      <path id="Path_18933" data-name="Path 18933" d="M-10.935,874.141v.646h-.647v-.646Z" transform="translate(-186.824 -101.994)" fill="#0e1116"/>
      <path id="Path_18934" data-name="Path 18934" d="M84.219,874.013h.644v.654h-.644Z" transform="translate(-277.245 -101.873)" fill="#0e1116"/>
      <path id="Path_18935" data-name="Path 18935" d="M-125.52,1102.3v-.644h2v.644Z" transform="translate(-79.285 -316.728)" fill="#0e1116"/>
      <path id="Path_18936" data-name="Path 18936" d="M66.2,1011.673h.643v.654H66.2Z" transform="translate(-260.234 -231.802)" fill="#0e1116"/>
    </g>
  </g>
</svg>
