<svg xmlns="http://www.w3.org/2000/svg" width="56" height="56" viewBox="0 0 56 56">
  <g id="Group_23559" data-name="Group 23559" transform="translate(-195 -1451.533)">
    <g id="Ellipse_942" data-name="Ellipse 942" transform="translate(195 1451.533)" fill="#ffc" stroke="" stroke-width="1">
      <circle cx="28" cy="28" r="28" stroke="none"/>
      <circle cx="28" cy="28" r="27.5" fill="none"/>
    </g>
    <g id="Group_23815" data-name="Group 23815" transform="translate(710.107 1344.788)">
      <path id="Path_18005" data-name="Path 18005" d="M-410.345,225.56a9.167,9.167,0,0,1-9.187,9.157,9.175,9.175,0,0,1-9.162-9.184,9.181,9.181,0,0,1,9.226-9.16A9.176,9.176,0,0,1-410.345,225.56Zm-9.186-6.307a6.3,6.3,0,0,0-6.294,6.291,6.318,6.318,0,0,0,6.316,6.317,6.318,6.318,0,0,0,6.293-6.3A6.292,6.292,0,0,0-419.532,219.253Z" transform="translate(-67.589 -92.628)" fill="#0e1116"/>
      <path id="Path_18009" data-name="Path 18009" d="M-431.5,380.676l-1.683,2.937c-.461-.563-.9-1.074-1.309-1.61a.78.78,0,0,0-.834-.329c-.7.121-1.409.221-2.193.343L-435.2,378A10.6,10.6,0,0,0-431.5,380.676Z" transform="translate(-59.639 -238.273)" fill="#0e1116"/>
      <path id="Path_18010" data-name="Path 18010" d="M-291.483,377.984l2.316,4c-.667-.1-1.267-.155-1.847-.291a1.124,1.124,0,0,0-1.361.5c-.319.48-.722.9-1.124,1.4l-1.69-2.927A10.644,10.644,0,0,0-291.483,377.984Z" transform="translate(-187.89 -238.256)" fill="#0e1116"/>
      <path id="Path_18011" data-name="Path 18011" d="M-383,267.214a5.161,5.161,0,0,1-5.167-5.162A5.176,5.176,0,0,1-383,256.887a5.18,5.18,0,0,1,5.169,5.169A5.163,5.163,0,0,1-383,267.214Zm-1.051-3.738c-.3-.518-.57-.987-.845-1.452-.228-.385-.509-.492-.821-.322s-.377.5-.151.9q.542.948,1.095,1.891c.345.591.676.633,1.166.143q1.653-1.65,3.3-3.3a1.966,1.966,0,0,0,.178-.189.552.552,0,0,0-.041-.77.545.545,0,0,0-.744-.027,2.34,2.34,0,0,0-.267.256Z" transform="translate(-104.105 -129.136)" fill="#0e1116"/>
    </g>
  </g>
</svg>
