<svg xmlns="http://www.w3.org/2000/svg" width="357.116" height="48.852" viewBox="0 0 357.116 48.852">
  <g id="Group_23132" data-name="Group 23132" transform="translate(-605.937 -657)">
    <path id="Path_13" data-name="Path 13" d="M605.937,702.452V666.877h4.733v35.575Z" transform="translate(0 2.771)" fill="#fff"/>
    <path id="Path_14" data-name="Path 14" d="M640.155,666.877h4.709v35.575H640l-20.116-27.7v27.7h-4.734V666.877h4.885l20.116,27.8Z" transform="translate(2.586 2.771)" fill="#fff"/>
    <path id="Path_15" data-name="Path 15" d="M657.616,666.877a18.5,18.5,0,0,1,9.216,2.317,16.816,16.816,0,0,1,6.469,6.382,18.78,18.78,0,0,1,0,18.165,16.792,16.792,0,0,1-6.469,6.4,18.512,18.512,0,0,1-9.216,2.315H643.895V666.877Zm-.05,31.144a12.772,12.772,0,0,0,9.442-3.828,12.993,12.993,0,0,0,3.8-9.541,13.629,13.629,0,0,0-1.725-6.811,12.518,12.518,0,0,0-4.759-4.8,13.362,13.362,0,0,0-6.76-1.736h-8.938v26.714Z" transform="translate(10.649 2.771)" fill="#fff"/>
    <path id="Path_16" data-name="Path 16" d="M698.211,666.877v7.528h-9.9v28.047h-8.007V674.405h-9.894v-7.528Z" transform="translate(18.089 2.771)" fill="#fff"/>
    <path id="Path_17" data-name="Path 17" d="M702.777,694.924h16.39v7.529h-24.4V666.877h24.146v7.528h-16.14V680.8H717.2v7.528H702.777Z" transform="translate(24.922 2.771)" fill="#fff"/>
    <path id="Path_18" data-name="Path 18" d="M734.278,703.219a19.615,19.615,0,0,1-7.453-1.421,18.292,18.292,0,0,1-5.993-3.865,17.663,17.663,0,0,1-3.926-5.855,19.225,19.225,0,0,1,0-14.578,17.7,17.7,0,0,1,3.926-5.853,18.179,18.179,0,0,1,5.993-3.852,19.754,19.754,0,0,1,7.453-1.41,19.467,19.467,0,0,1,9.077,2.128,17.73,17.73,0,0,1,6.657,5.879l-6.923,4.278a10.594,10.594,0,0,0-8.812-4.606,10.267,10.267,0,0,0-7.58,3.059,11.169,11.169,0,0,0,0,15.332,10.269,10.269,0,0,0,7.58,3.06,10.626,10.626,0,0,0,5.048-1.222,10.372,10.372,0,0,0,3.764-3.361l6.923,4.279a17.718,17.718,0,0,1-6.657,5.879A19.467,19.467,0,0,1,734.278,703.219Z" transform="translate(30.73 2.633)" fill="#fff"/>
    <path id="Path_19" data-name="Path 19" d="M767.161,666.877h7.982v35.575h-7.982V688.328H752.887v14.125H744.88V666.877h8.007V680.8h14.274Z" transform="translate(38.981 2.771)" fill="#fff"/>
    <path id="Path_20" data-name="Path 20" d="M832.262,702.452l-2.215-6.244H815.595l-2.215,6.244h-8.56l13.37-35.575h9.442l13.393,35.575Zm-14.073-13.621h9.265l-4.633-13.142Z" transform="translate(55.796 2.771)" fill="#fff"/>
    <path id="Path_21" data-name="Path 21" d="M854.24,702.452l-7.329-12.16h-3.851v12.16h-8.006V666.877h15.433a12.226,12.226,0,0,1,8.837,3.4,11.331,11.331,0,0,1,3.525,8.511,10.973,10.973,0,0,1-1.99,6.508,11.513,11.513,0,0,1-5.337,4.117l8.308,13.041Zm-11.179-28.047v8.913h7.25a4.148,4.148,0,0,0,3.085-1.272,4.336,4.336,0,0,0,1.247-3.16,4.444,4.444,0,0,0-1.234-3.2,4.119,4.119,0,0,0-3.1-1.283Z" transform="translate(64.279 2.771)" fill="#fff"/>
    <path id="Path_22" data-name="Path 22" d="M881.44,702.452l-10.776-12.689-2.971,3.349v9.341h-8.006V666.877h8.006v15.358l13.243-15.358h10.146L875.824,684l16.039,18.456Z" transform="translate(71.19 2.771)" fill="#fff"/>
    <path id="Path_23" data-name="Path 23" d="M824.88,657l-23.05,22.819-11.883,11.756L775.22,676.849l3.56-7.043,11.179,11.359L814.635,657Z" transform="translate(47.492 0)" fill="#e51635"/>
    <rect id="Rectangle_21" data-name="Rectangle 21" width="7.683" height="35.855" transform="translate(818.589 669.806)" fill="#fff"/>
    <path id="Path_24" data-name="Path 24" d="M803.683,668.88v33.448H796V676.486Z" transform="translate(53.322 3.333)" fill="#fff"/>
  </g>
</svg>
