<svg xmlns="http://www.w3.org/2000/svg" width="524.112" height="309.517" viewBox="0 0 524.112 309.517">
  <g id="Group_24219" data-name="Group 24219" transform="translate(-26.097 -57.402)">
    <g id="Shadows" transform="translate(77.122 320.201)">
      <ellipse id="Ellipse_962" data-name="Ellipse 962" cx="76.268" cy="7.496" rx="76.268" ry="7.496" transform="translate(0 30.476)" fill="#263238" stroke="#263238" stroke-linecap="round" stroke-linejoin="round" stroke-width="2.5"/>
      <ellipse id="Ellipse_963" data-name="Ellipse 963" cx="85.786" cy="7.496" rx="85.786" ry="7.496" transform="translate(295.294 26.312)" fill="#263238" stroke="#263238" stroke-linecap="round" stroke-linejoin="round" stroke-width="2.5"/>
      <ellipse id="Ellipse_964" data-name="Ellipse 964" cx="85.786" cy="7.496" rx="85.786" ry="7.496" transform="translate(129.682)" fill="#263238" stroke="#263238" stroke-linecap="round" stroke-linejoin="round" stroke-width="2.5"/>
    </g>
    <g id="Floor" transform="translate(27.347 313.582)">
      <line id="Line_177" data-name="Line 177" x2="521.612" fill="none" stroke="#263238" stroke-linecap="round" stroke-linejoin="round" stroke-width="2.5"/>
    </g>
    <g id="Gears" transform="translate(41.545 58.704)">
      <g id="Group_24148" data-name="Group 24148">
        <path id="Path_19385" data-name="Path 19385" d="M104.084,141.119V129.573H96.949a22.906,22.906,0,0,0-2.36-5.775l5.05-5.134L91.607,110.5l-5.051,5.134a22.127,22.127,0,0,0-5.682-2.4v-7.253H69.516v7.253a22.138,22.138,0,0,0-5.682,2.4L58.783,110.5l-8.032,8.164L55.8,123.8a22.935,22.935,0,0,0-2.361,5.775H46.306v11.546h7.135a22.946,22.946,0,0,0,2.361,5.775l-5.051,5.133,8.032,8.164,5.051-5.134a22.112,22.112,0,0,0,5.682,2.4v7.254H80.875v-7.254a22.125,22.125,0,0,0,5.682-2.4l5.051,5.133,8.032-8.164-5.05-5.133a22.917,22.917,0,0,0,2.36-5.775ZM75.2,145.9a10.554,10.554,0,1,1,10.382-10.553A10.469,10.469,0,0,1,75.2,145.9Z" transform="translate(-46.306 -70.589)" fill="none" stroke="#263238" stroke-linecap="round" stroke-linejoin="round" stroke-width="2.5"/>
        <path id="Path_19386" data-name="Path 19386" d="M682.384,96.206V83.889h-7.854a24.006,24.006,0,0,0-2.6-6.161l5.559-5.477-8.841-8.71-5.558,5.477a24.8,24.8,0,0,0-6.254-2.559V58.722h-12.5V66.46a24.78,24.78,0,0,0-6.254,2.559l-5.559-5.477-8.841,8.71,5.559,5.477a24.017,24.017,0,0,0-2.6,6.161h-7.854V96.206h7.854a24.017,24.017,0,0,0,2.6,6.161l-5.559,5.477,8.841,8.71,5.559-5.476a24.779,24.779,0,0,0,6.254,2.558v7.738h12.5v-7.738a24.8,24.8,0,0,0,6.254-2.558l5.558,5.476,8.841-8.71-5.559-5.477a24.006,24.006,0,0,0,2.6-6.161Zm-31.8,5.1a11.259,11.259,0,1,1,11.427-11.257A11.343,11.343,0,0,1,650.586,101.305Z" transform="translate(-190.061 -58.722)" fill="none" stroke="#263238" stroke-linecap="round" stroke-linejoin="round" stroke-width="2.5"/>
        <path id="Path_19387" data-name="Path 19387" d="M632.993,167.289v-8.3h-5.279a16.214,16.214,0,0,0-1.746-4.15l3.735-3.689-5.942-5.866-3.736,3.688a16.669,16.669,0,0,0-4.2-1.723v-5.212h-8.4v5.212a16.664,16.664,0,0,0-4.2,1.723l-3.736-3.688-5.942,5.866,3.736,3.689a16.2,16.2,0,0,0-1.746,4.15h-5.279v8.3h5.279a16.2,16.2,0,0,0,1.746,4.15l-3.736,3.688,5.942,5.867,3.736-3.688a16.663,16.663,0,0,0,4.2,1.723v5.212h8.4v-5.212a16.669,16.669,0,0,0,4.2-1.723l3.736,3.688,5.942-5.867-3.735-3.688a16.214,16.214,0,0,0,1.746-4.15Zm-21.372,3.434a7.583,7.583,0,1,1,7.68-7.583A7.631,7.631,0,0,1,611.621,170.723Z" transform="translate(-182.895 -79.644)" fill="none" stroke="#263238" stroke-linecap="round" stroke-linejoin="round" stroke-width="2.5"/>
      </g>
    </g>
    <g id="Plant" transform="translate(42.294 209.916)">
      <g id="Group_24150" data-name="Group 24150">
        <path id="Path_19388" data-name="Path 19388" d="M77.406,395.49a5.138,5.138,0,0,0,5.1,4.5h22.959a5.139,5.139,0,0,0,5.11-4.6l1.076-24.048H76.442C76.325,371.473,77.406,395.49,77.406,395.49Z" transform="translate(-54.62 -288.435)" fill="#fff" stroke="#263238" stroke-linecap="round" stroke-linejoin="round" stroke-width="2.5"/>
        <g id="Group_24149" data-name="Group 24149">
          <path id="Path_19389" data-name="Path 19389" d="M99.752,358.392c.5-13.572,10.249-33.652,25.977-36.053" transform="translate(-60.475 -276.13)" fill="none" stroke="#263238" stroke-linecap="round" stroke-linejoin="round" stroke-width="2.5"/>
          <path id="Path_19390" data-name="Path 19390" d="M94.17,356.665c.953.7-3.136-15.29-6.99-23.639-1.284-3.854-7.372-17.572-9.348-17.572" transform="translate(-54.971 -274.401)" fill="none" stroke="#263238" stroke-linecap="round" stroke-linejoin="round" stroke-width="2.5"/>
          <path id="Path_19391" data-name="Path 19391" d="M99.7,352.352c.018,2.3.443-32.428,1.828-54.208" transform="translate(-60.463 -270.054)" fill="none" stroke="#263238" stroke-linecap="round" stroke-linejoin="round" stroke-width="2.5"/>
          <path id="Path_19392" data-name="Path 19392" d="M72.277,299.547s9.773-5.232,14.28.973,3.345,10.695,1.2,10.216-3.627-5.863-7.063-6.864-7.292-1.376-4.883.257,10.418,5.71,10.75,11.7-2.238,10.141-3.523,8.387-1.786-7.9-3.783-11.088-4.493-3.84-5.172-2.392,5.87,6.867,6.61,12.347-.65,10.291-3.648,7.885-1.642-8.578-2.962-11.915-4.83-10.024-5.644-5.235,4.717,9.351,5.644,14.457-2.745,13.9-5.726,9.182.177-13.435-1.081-15.5-4.09-8.212-4.922,0,5.163,15.045-3.776,19.5-6.8-9.02-4.818-12.08,7.976-9.755,4.818-9.458-8.423,11.281-10.287,8.358-1.261-5.948,5.469-11.02,13.44-7.12,9.155-7.7-14.587,10.562-15.537,6.276,8.26-8.122,12.807-8.934,6.993-1.7,3.683-3.023-10.9,4.3-11.6,1.808,3.4-6.375,8.253-5.716,8.5,1.91,7.962,0-2.692-2.725-6.754-2.478-4.645-3.8.625-3.7,9.266,1.493,9.6,3.628Z" transform="translate(-47.306 -268.959)" fill="#263238"/>
          <path id="Path_19393" data-name="Path 19393" d="M125.313,312.258s-9.773-5.232-14.279.973-3.345,10.695-1.2,10.216,3.627-5.863,7.063-6.864,7.292-1.377,4.882.256-10.417,5.711-10.749,11.7,2.238,10.142,3.522,8.388,1.787-7.9,3.784-11.088,4.493-3.84,5.172-2.392-5.87,6.867-6.61,12.347.65,10.291,3.649,7.885,1.641-8.579,2.962-11.915,4.83-10.025,5.644-5.236-4.717,9.351-5.644,14.457,2.745,13.9,5.726,9.183-.177-13.435,1.081-15.5,4.09-8.212,4.922,0-5.164,15.045,3.776,19.5,6.8-9.019,4.817-12.079-7.976-9.755-4.817-9.459,8.422,11.282,10.286,8.358,1.261-5.948-5.469-11.019-13.44-7.121-9.154-7.7,14.586,10.562,15.537,6.275-8.26-8.121-12.808-8.934-6.993-1.7-3.683-3.023,10.9,4.295,11.6,1.808-3.4-6.375-8.253-5.716-8.5,1.91-7.963,0,2.692-2.725,6.754-2.478,4.645-3.8-.625-3.7-9.266,1.492-9.6,3.628Z" transform="translate(-62.531 -272.151)" fill="#263238"/>
          <path id="Path_19394" data-name="Path 19394" d="M94.647,268.188s5.248-9.764,12.435-7.087,8.7,7.059,6.647,7.849-6.264-2.878-9.681-1.812-6.836,2.886-3.926,2.914,11.838-1,15.427,3.8,3.746,9.687,1.705,8.935-5.856-5.589-9.286-7.144-5.868-.714-5.632.868,8.689,2.474,12.336,6.63,5.151,8.932,1.323,8.587-6.112-6.238-9.058-8.287-9.569-5.68-7.6-1.239,9.1,5.181,12.7,8.921,5.4,13.1.309,10.818-7.283-11.291-9.474-12.316-7.949-4.579-4.1,2.723,12.623,9.678,7.639,18.331-10.652-3.753-10.695-7.4,1.248-12.539-1.218-10.544-.776,14.058-3.946,12.653-4.341-4.257-1.539-12.205,7.257-13.366,3.366-11.48-6.309,16.868-9.473,13.822S85.3,284.193,88.635,281s4.885-5.285,1.4-4.555-6.7,9.608-8.665,7.923-.7-7.19,3.714-9.327,8.138-3.111,6.634-4.4-3.75-.781-7,1.671-5.969-.593-1.526-3.429,8.544-3.883,10-2.286Z" transform="translate(-55.633 -260.636)" fill="#e51635"/>
        </g>
      </g>
    </g>
    <g id="App" transform="translate(390.388 93.342)">
      <g id="Group_24153" data-name="Group 24153">
        <g id="Group_24151" data-name="Group 24151" transform="translate(0)">
          <rect id="Rectangle_2087" data-name="Rectangle 2087" width="41.312" height="42.094" rx="10.589" fill="#e51635"/>
        </g>
        <path id="Path_19395" data-name="Path 19395" d="M513.909,143.256V114.169c0-4.421,2.316-7.4,6.655-7.4h26.8a7.689,7.689,0,0,1,4.3,1.308c.043.009.088.016.131.026a7.785,7.785,0,0,0-6.217-3.125h-25.6a7.931,7.931,0,0,0-7.856,8v26.085a8.042,8.042,0,0,0,1.848,5.143A8.129,8.129,0,0,1,513.909,143.256Z" transform="translate(-512.118 -104.974)" fill="#fff"/>
        <g id="Group_24152" data-name="Group 24152" transform="translate(0)">
          <rect id="Rectangle_2088" data-name="Rectangle 2088" width="41.312" height="42.094" rx="10.589" fill="none" stroke="#263238" stroke-linecap="round" stroke-linejoin="round" stroke-width="2.5"/>
        </g>
        <path id="Path_19396" data-name="Path 19396" d="M548.338,131.241v-5.206h-3.21a10.357,10.357,0,0,0-1.061-2.6l2.271-2.315-3.613-3.682-2.271,2.315a9.956,9.956,0,0,0-2.556-1.082V115.4h-5.11v3.27a9.956,9.956,0,0,0-2.556,1.082l-2.271-2.315-3.613,3.682,2.272,2.315a10.335,10.335,0,0,0-1.062,2.6h-3.21v5.206h3.21a10.341,10.341,0,0,0,1.062,2.6l-2.272,2.315,3.613,3.682,2.271-2.315a9.954,9.954,0,0,0,2.556,1.081v3.27h5.11v-3.27a9.954,9.954,0,0,0,2.556-1.081l2.271,2.315,3.613-3.682-2.271-2.315a10.362,10.362,0,0,0,1.061-2.6ZM535.344,133.4a4.759,4.759,0,1,1,4.669-4.758A4.715,4.715,0,0,1,535.344,133.4Z" transform="translate(-514.687 -107.591)" fill="#fff" stroke="#263238" stroke-linecap="round" stroke-linejoin="round" stroke-width="2.5"/>
      </g>
    </g>
    <g id="Connection" transform="translate(402.484 142.511)">
      <g id="Group_24154" data-name="Group 24154">
        <line id="Line_178" data-name="Line 178" y2="83.652" transform="translate(8.944)" fill="none" stroke="#e51635" stroke-linecap="round" stroke-linejoin="round" stroke-width="2.5"/>
        <path id="Path_19397" data-name="Path 19397" d="M531.272,187.258V198.9l6.61,6.286,6.065-6.535V183.4" transform="translate(-529.024 -173.836)" fill="none" stroke="#e51635" stroke-linecap="round" stroke-linejoin="round" stroke-width="2.5"/>
        <path id="Path_19398" data-name="Path 19398" d="M532.395,184.105a2.062,2.062,0,1,1-2.062-2.062A2.062,2.062,0,0,1,532.395,184.105Z" transform="translate(-528.27 -173.496)" fill="none" stroke="#e51635" stroke-linecap="round" stroke-linejoin="round" stroke-width="2.5"/>
        <path id="Path_19399" data-name="Path 19399" d="M549.568,179.84a2.062,2.062,0,1,1-2.062-2.062A2.062,2.062,0,0,1,549.568,179.84Z" transform="translate(-532.582 -172.425)" fill="none" stroke="#e51635" stroke-linecap="round" stroke-linejoin="round" stroke-width="2.5"/>
      </g>
    </g>
    <g id="Device" transform="translate(218.001 58.652)">
      <g id="Group_24157" data-name="Group 24157">
        <g id="Group_24156" data-name="Group 24156">
          <g id="Group_24155" data-name="Group 24155">
            <path id="Path_19400" data-name="Path 19400" d="M431.107,77.96V310.7a18.3,18.3,0,0,1-18.15,18.441H300.087c-.316,0-.623-.009-.931-.026s-.615-.034-.914-.069h-.025A18.343,18.343,0,0,1,281.929,310.7V77.96c0-10.027,7.88-19.022,17.7-19.3.154-.008.308-.008.461-.008H412.957C422.979,58.652,431.107,67.776,431.107,77.96Z" transform="translate(-281.929 -58.652)" fill="#c9c9c9"/>
            <path id="Path_19401" data-name="Path 19401" d="M285.1,313.826V80.281c0-10.027,6.294-18.216,16.112-18.494.154-.008,1.893-.008,2.047-.008H416.126a17.079,17.079,0,0,1,10.537,3.727,17.7,17.7,0,0,0-13.706-6.855H300.087c-.154,0-.308,0-.461.008-9.818.278-17.7,9.273-17.7,19.3V310.7a18.5,18.5,0,0,0,7.225,14.716A18.513,18.513,0,0,1,285.1,313.826Z" transform="translate(-281.929 -58.652)" fill="#fff"/>
            <path id="Path_19402" data-name="Path 19402" d="M431.107,77.96V310.7a18.3,18.3,0,0,1-18.15,18.441H300.087c-.316,0-.623-.009-.931-.026s-.615-.034-.914-.069h-.025A18.343,18.343,0,0,1,281.929,310.7V77.96c0-10.027,7.88-19.022,17.7-19.3.154-.008.308-.008.461-.008H412.957C422.979,58.652,431.107,67.776,431.107,77.96Z" transform="translate(-281.929 -58.652)" fill="none" stroke="#263238" stroke-linecap="round" stroke-linejoin="round" stroke-width="2.5"/>
            <path id="Path_19403" data-name="Path 19403" d="M412.56,69.519H389.733a8.99,8.99,0,0,0-5.074,1.573h0a9.7,9.7,0,0,0-2.435,2.467c-.493.7-1.619.765-2.929.765H340.219a3.26,3.26,0,0,1-2.7-1.373,7.14,7.14,0,0,0-3.088-2.657l-.7-.289a6.41,6.41,0,0,0-2.448-.486H306c-7.372,0-13.348,5.534-13.348,12.362V311.764c0,6.827,5.976,12.362,13.348,12.362H412.56c7.294,0,13.207-5.476,13.207-12.231V81.75C425.768,74.995,419.855,69.519,412.56,69.519Z" transform="translate(-284.622 -61.381)" fill="#fff" stroke="#263238" stroke-linecap="round" stroke-linejoin="round" stroke-width="2.5"/>
          </g>
        </g>
      </g>
      <rect id="Rectangle_2089" data-name="Rectangle 2089" width="116.64" height="66.431" rx="8" transform="translate(16.269 40.686)" fill="#c9c9c9"/>
      <g id="Group_24166" data-name="Group 24166" transform="translate(24.837 118.045)">
        <g id="Group_24159" data-name="Group 24159">
          <g id="Group_24158" data-name="Group 24158">
            <rect id="Rectangle_2090" data-name="Rectangle 2090" width="18.05" height="18.339" rx="4.62" fill="none" stroke="#263238" stroke-linecap="round" stroke-linejoin="round" stroke-width="2.5"/>
          </g>
        </g>
        <g id="Group_24161" data-name="Group 24161" transform="translate(27.151)">
          <g id="Group_24160" data-name="Group 24160">
            <rect id="Rectangle_2091" data-name="Rectangle 2091" width="18.05" height="18.339" rx="4.62" fill="none" stroke="#263238" stroke-linecap="round" stroke-linejoin="round" stroke-width="2.5"/>
          </g>
        </g>
        <g id="Group_24163" data-name="Group 24163" transform="translate(54.303)">
          <g id="Group_24162" data-name="Group 24162">
            <rect id="Rectangle_2092" data-name="Rectangle 2092" width="18.05" height="18.339" rx="4.62" fill="#e51635" stroke="#263238" stroke-linecap="round" stroke-linejoin="round" stroke-width="2.5"/>
          </g>
        </g>
        <g id="Group_24165" data-name="Group 24165" transform="translate(81.454)">
          <g id="Group_24164" data-name="Group 24164">
            <rect id="Rectangle_2093" data-name="Rectangle 2093" width="18.05" height="18.339" rx="4.62" fill="none" stroke="#263238" stroke-linecap="round" stroke-linejoin="round" stroke-width="2.5"/>
          </g>
        </g>
      </g>
      <g id="Group_24175" data-name="Group 24175" transform="translate(24.837 145.976)">
        <g id="Group_24168" data-name="Group 24168">
          <g id="Group_24167" data-name="Group 24167">
            <rect id="Rectangle_2094" data-name="Rectangle 2094" width="18.05" height="18.339" rx="4.62" fill="none" stroke="#263238" stroke-linecap="round" stroke-linejoin="round" stroke-width="2.5"/>
          </g>
        </g>
        <g id="Group_24170" data-name="Group 24170" transform="translate(27.151)">
          <g id="Group_24169" data-name="Group 24169">
            <rect id="Rectangle_2095" data-name="Rectangle 2095" width="18.05" height="18.339" rx="4.62" fill="none" stroke="#263238" stroke-linecap="round" stroke-linejoin="round" stroke-width="2.5"/>
          </g>
        </g>
        <g id="Group_24172" data-name="Group 24172" transform="translate(54.303)">
          <g id="Group_24171" data-name="Group 24171">
            <rect id="Rectangle_2096" data-name="Rectangle 2096" width="18.05" height="18.339" rx="4.62" fill="none" stroke="#263238" stroke-linecap="round" stroke-linejoin="round" stroke-width="2.5"/>
          </g>
        </g>
        <g id="Group_24174" data-name="Group 24174" transform="translate(81.454)">
          <g id="Group_24173" data-name="Group 24173">
            <rect id="Rectangle_2097" data-name="Rectangle 2097" width="18.05" height="18.339" rx="4.62" fill="none" stroke="#263238" stroke-linecap="round" stroke-linejoin="round" stroke-width="2.5"/>
          </g>
        </g>
      </g>
      <rect id="Rectangle_2098" data-name="Rectangle 2098" width="48.194" height="48.194" rx="7" transform="translate(24.645 49.805)" fill="#fff"/>
      <g id="Group_24176" data-name="Group 24176" transform="translate(80.86 55.737)">
        <line id="Line_179" data-name="Line 179" x2="43.977" fill="none" stroke="#263238" stroke-linecap="round" stroke-linejoin="round" stroke-width="2.5"/>
        <line id="Line_180" data-name="Line 180" x2="43.977" transform="translate(0 7.266)" fill="none" stroke="#263238" stroke-linecap="round" stroke-linejoin="round" stroke-width="2.5"/>
        <line id="Line_181" data-name="Line 181" x2="43.977" transform="translate(0 14.532)" fill="none" stroke="#263238" stroke-linecap="round" stroke-linejoin="round" stroke-width="2.5"/>
        <line id="Line_182" data-name="Line 182" x2="43.977" transform="translate(0 21.798)" fill="none" stroke="#263238" stroke-linecap="round" stroke-linejoin="round" stroke-width="2.5"/>
        <line id="Line_183" data-name="Line 183" x2="43.977" transform="translate(0 29.063)" fill="none" stroke="#263238" stroke-linecap="round" stroke-linejoin="round" stroke-width="2.5"/>
        <line id="Line_184" data-name="Line 184" x2="43.977" transform="translate(0 36.329)" fill="none" stroke="#263238" stroke-linecap="round" stroke-linejoin="round" stroke-width="2.5"/>
      </g>
      <rect id="Rectangle_2099" data-name="Rectangle 2099" width="112.047" height="9.213" rx="4.606" transform="translate(18.565 25.594)" fill="#e51635"/>
      <line id="Line_185" data-name="Line 185" x2="112.047" transform="translate(18.565 178.389)" fill="none" stroke="#263238" stroke-linecap="round" stroke-linejoin="round" stroke-width="2.5"/>
      <line id="Line_186" data-name="Line 186" x2="112.047" transform="translate(18.565 185.606)" fill="none" stroke="#263238" stroke-linecap="round" stroke-linejoin="round" stroke-width="2.5"/>
      <line id="Line_187" data-name="Line 187" x2="112.047" transform="translate(18.565 192.823)" fill="none" stroke="#263238" stroke-linecap="round" stroke-linejoin="round" stroke-width="2.5"/>
      <line id="Line_188" data-name="Line 188" x2="92.123" transform="translate(28.527 200.039)" fill="none" stroke="#263238" stroke-linecap="round" stroke-linejoin="round" stroke-width="2.5"/>
      <rect id="Rectangle_2100" data-name="Rectangle 2100" width="103.251" height="36.006" rx="7" transform="translate(22.963 212.49)" fill="#e51635" stroke="#263238" stroke-linecap="round" stroke-linejoin="round" stroke-width="2.5"/>
      <path id="Path_19404" data-name="Path 19404" d="M371.158,355.648v15.031a2.224,2.224,0,0,0,3.267,1.964l14.144-7.516a2.223,2.223,0,0,0,0-3.926l-14.144-7.516A2.224,2.224,0,0,0,371.158,355.648Z" transform="translate(-304.335 -132.671)" fill="#fff" stroke="#263238" stroke-linecap="round" stroke-linejoin="round" stroke-width="2.5"/>
    </g>
    <g id="Line" transform="translate(194.397 126.696)">
      <path id="Path_19405" data-name="Path 19405" d="M250.41,163.615v-14.1h72.347" transform="translate(-250.41 -149.512)" fill="none" stroke="#e51635" stroke-linecap="round" stroke-linejoin="round" stroke-width="2.5" stroke-dasharray="3 6"/>
    </g>
    <g id="Speech_bubble" data-name="Speech bubble" transform="translate(116.327 68.503)">
      <g id="Group_24181" data-name="Group 24181" transform="translate(0 0)">
        <g id="Group_24179" data-name="Group 24179">
          <g id="Group_24178" data-name="Group 24178">
            <g id="Group_24177" data-name="Group 24177">
              <path id="Path_19406" data-name="Path 19406" d="M150.534,71.806h32.292a4.372,4.372,0,0,1,4.372,4.371v27.468a4.372,4.372,0,0,1-4.372,4.372H172.041L176.18,118.1a1.084,1.084,0,0,1-1.669,1.059l-14.269-11.144h-9.709a4.372,4.372,0,0,1-4.371-4.372V76.177A4.371,4.371,0,0,1,150.534,71.806Z" transform="translate(-146.163 -71.806)" fill="#fff" stroke="#263238" stroke-linecap="round" stroke-linejoin="round" stroke-width="2.5"/>
            </g>
          </g>
        </g>
        <g id="Group_24180" data-name="Group 24180" transform="translate(14.236 6.53)">
          <path id="Path_19407" data-name="Path 19407" d="M169.9,93.023a1.887,1.887,0,0,1,1.412-.575,5.533,5.533,0,0,0,3.482-1.018,3.74,3.74,0,0,0,1.314-3.154,3.541,3.541,0,0,0-1.183-2.726,4.206,4.206,0,0,0-2.956-1.084,4.678,4.678,0,0,0-3.186,1.215,2.415,2.415,0,0,1-1.642.723,1.737,1.737,0,0,1-1.117-.394,1.829,1.829,0,0,1-.23-2.923,8.381,8.381,0,0,1,2.775-1.889,8.649,8.649,0,0,1,3.4-.673,8.274,8.274,0,0,1,4.073,1.018,7.749,7.749,0,0,1,2.922,2.808,7.431,7.431,0,0,1,1.084,3.925,6.818,6.818,0,0,1-1.806,4.993,8.269,8.269,0,0,1-4.8,2.3c-.11.044-.165.1-.165.164v1.215a1.974,1.974,0,0,1-.558,1.429,2.024,2.024,0,0,1-2.825,0,1.968,1.968,0,0,1-.559-1.429v-2.5A1.967,1.967,0,0,1,169.9,93.023Zm-.213,11.3a1.976,1.976,0,0,1-.509-1.462V102.3a1.779,1.779,0,0,1,1.971-1.97h.427a1.779,1.779,0,0,1,1.97,1.97v.559a1.779,1.779,0,0,1-1.97,1.971h-.427A1.975,1.975,0,0,1,169.689,104.322Z" transform="translate(-165.173 -80.526)" fill="#e51635"/>
        </g>
      </g>
    </g>
    <g id="Character_2" data-name="Character 2" transform="translate(363.298 175.275)">
      <g id="Group_24202" data-name="Group 24202">
        <path id="Rectangle_2101" data-name="Rectangle 2101" d="M0,0H117.448a0,0,0,0,1,0,0V39.919a9.611,9.611,0,0,1-9.611,9.611H9.611A9.611,9.611,0,0,1,0,39.919V0A0,0,0,0,1,0,0Z" transform="translate(151.359 175.664) rotate(180)" fill="#fff" stroke="#263238" stroke-linecap="round" stroke-linejoin="round" stroke-width="2.5"/>
        <g id="Group_24201" data-name="Group 24201">
          <g id="Group_24182" data-name="Group 24182" transform="translate(18.165 129.241)">
            <path id="Path_19408" data-name="Path 19408" d="M545.781,386.957c2.059,1.761,7.077,6.912,5.718,14.349-1.7,9.292-5.428,11.024-8.257,17.557s-2.075,10.312-2.075,10.312l-20.924.581s1.57-28.939.521-42.8Z" transform="translate(-505.233 -386.957)" fill="#fcd8c3"/>
            <path id="Path_19409" data-name="Path 19409" d="M545.955,386.957c2.059,1.761,7.077,6.912,5.718,14.349-1.7,9.292-5.428,11.024-8.257,17.557s-2.075,10.312-2.075,10.312l-20.4,1.469s1.05-29.827,0-43.688Z" transform="translate(-505.407 -386.957)" fill="none" stroke="#263238" stroke-linecap="round" stroke-linejoin="round" stroke-width="2.5"/>
            <path id="Path_19410" data-name="Path 19410" d="M536.044,441.647l-21.7-.476L500.2,450.063h36.374Z" transform="translate(-500.2 -400.571)" fill="#ec644e" stroke="#263238" stroke-linecap="round" stroke-linejoin="round" stroke-width="2.5"/>
          </g>
          <path id="Path_19411" data-name="Path 19411" d="M516.427,362.186l1.821,48.465,4.037-.926a17.459,17.459,0,0,1,11.3,1.2h0a17.461,17.461,0,0,0,11.47,1.162l5.994-1.438,1.414-8.12a47.255,47.255,0,0,0-2.075-24.057h42.4A26.18,26.18,0,0,0,618.974,352.3l-53.444-1.6-36.622-1.094A12.131,12.131,0,0,0,516.427,362.186Z" transform="translate(-486.108 -248.335)" fill="#0e1116"/>
          <g id="Group_24183" data-name="Group 24183" transform="translate(30.311 101.266)">
            <path id="Path_19412" data-name="Path 19412" d="M520.327,362.186a12.127,12.127,0,0,1,10.881-12.511l-2.3-.068a12.131,12.131,0,0,0-12.481,12.579l1.821,48.466,3.866-.888Z" transform="translate(-516.418 -349.602)" fill="#fff"/>
          </g>
          <path id="Path_19413" data-name="Path 19413" d="M516.427,362.186l1.821,48.465,4.037-.926a17.459,17.459,0,0,1,11.3,1.2h0a17.461,17.461,0,0,0,11.47,1.162l5.994-1.438,1.414-8.12a47.255,47.255,0,0,0-2.075-24.057h42.4A26.18,26.18,0,0,0,618.974,352.3l-53.444-1.6-36.622-1.094A12.131,12.131,0,0,0,516.427,362.186Z" transform="translate(-486.108 -248.335)" fill="none" stroke="#263238" stroke-linecap="round" stroke-linejoin="round" stroke-width="2.5"/>
          <g id="Group_24184" data-name="Group 24184" transform="translate(0 130.493)">
            <path id="Path_19414" data-name="Path 19414" d="M552.894,406.78c.139,2.706-.145,9.891-6.476,14.023-7.911,5.162-11.734,3.649-18.421,6.091s-8.909,5.59-8.909,5.59l-8.748-15.331s16-18.225,25.338-28.526Z" transform="translate(-484.581 -388.628)" fill="#fcd8c3"/>
            <path id="Path_19415" data-name="Path 19415" d="M538.822,391.943c-9.334,10.3-25.338,28.526-25.338,28.526l6.371,11.165a7.223,7.223,0,0,0-.768.851l-8.748-15.331s16-18.226,25.338-28.526Z" transform="translate(-484.581 -388.628)" fill="#fff"/>
            <path id="Path_19416" data-name="Path 19416" d="M552.894,406.78c.139,2.706-.145,9.891-6.476,14.023-7.911,5.162-11.734,3.649-18.421,6.091s-8.909,5.59-8.909,5.59l-8.748-15.331s16-18.225,25.338-28.526Z" transform="translate(-484.581 -388.628)" fill="none" stroke="#263238" stroke-linecap="round" stroke-linejoin="round" stroke-width="2.5"/>
            <path id="Path_19417" data-name="Path 19417" d="M513.8,438.986l-12.1-12.758-25.758-1.466,29.214,22.423Z" transform="translate(-475.944 -397.701)" fill="#ec644e" stroke="#263238" stroke-linecap="round" stroke-linejoin="round" stroke-width="2.5"/>
          </g>
          <path id="Path_19418" data-name="Path 19418" d="M621.589,353.174s-55.65-.36-56.577.485c1.21.5-.86,3.043-1.88,3.947l-12.2,10.809-24.1,21.354.115.081a24.2,24.2,0,0,1,8.826,11.582,23.823,23.823,0,0,0,8.175,10.939l3.7,2.75,8.372-4.827a43.759,43.759,0,0,0,16.079-16.1h0l.24.294.015.018c.551.669,32.429-15.941,33.379-17.275A26.179,26.179,0,0,0,621.589,353.174Z" transform="translate(-488.723 -249.213)" fill="#0e1116"/>
          <path id="Path_19419" data-name="Path 19419" d="M570.292,353.66c.471-.431,15.128-.548,29.4-.56-15.691-.013-34.154.076-34.684.56,1.21.5-.86,3.043-1.88,3.947l-12.2,10.809-24.1,21.354.115.081c.553.385,2.752,2.467,3.266,2.9,1.228-.637,26-24.33,26-24.33l12.2-10.809C569.433,356.7,571.5,354.164,570.292,353.66Z" transform="translate(-488.723 -249.213)" fill="#fff"/>
          <path id="Path_19420" data-name="Path 19420" d="M621.589,352.978s-54.725-1.2-55.65-.36c1.209.5-1.786,3.888-2.807,4.793l-12.2,10.809-24.1,21.354.115.081a24.2,24.2,0,0,1,8.826,11.582,23.824,23.824,0,0,0,8.175,10.939l3.7,2.75,8.372-4.827C562.711,406.243,572.1,394,572.1,394l.255.312c.551.669,32.429-15.941,33.379-17.275A26.179,26.179,0,0,0,621.589,352.978Z" transform="translate(-488.723 -249.017)" fill="none" stroke="#263238" stroke-linecap="round" stroke-linejoin="round" stroke-width="2.5"/>
          <g id="Group_24198" data-name="Group 24198" transform="translate(22.907)">
            <g id="Group_24197" data-name="Group 24197">
              <g id="Group_24187" data-name="Group 24187" transform="translate(0 25.049)">
                <g id="Group_24186" data-name="Group 24186">
                  <path id="Path_19421" data-name="Path 19421" d="M572.515,317.9c-.473,1.441-1.015,2.95-1.629,4.475A26.2,26.2,0,0,0,572.515,317.9Z" transform="translate(-522.692 -265.424)" fill="none"/>
                  <path id="Path_19422" data-name="Path 19422" d="M563.706,336.884l0-.006c-.226.311-.458.614-.694.913A6.2,6.2,0,0,0,563.706,336.884Z" transform="translate(-520.716 -270.189)" fill="none"/>
                  <path id="Path_19423" data-name="Path 19423" d="M549.526,327.256a88.352,88.352,0,0,0,5.2-9.736c.614-1.525,1.156-3.034,1.629-4.475h0l2.693-10.449-6.909-.115c-2.525-.042-8.4-2.648-8.4-2.648a8.96,8.96,0,0,0-5.6-1.266l-3.306,6.525s-1.411,4.222-3.085,8.275c-.983,2.377-4.367,3-5.4,2.623-1.838-.663-6.233.959-7.044,2.227,0,0-4.827.171-7.761,2.649,0,0-2.444-.075-4.135,3.911-1.35,3.183-1.49,10.523,2.164,11.977,2.79,1.111,3.455-2.888,3.455-2.888a7.541,7.541,0,0,0,1.662,2.888c1.76,1.4,4.982,0,4.484-2.423l.7.174c1.868,1.722,4.083,1.421,5.795-.456l.207-.227a15.385,15.385,0,0,0,6.452.836c5.621-.374,11.069-.8,14.6-4.324a20.5,20.5,0,0,1,1.915-2.164C549.068,327.87,549.3,327.567,549.526,327.256Z" transform="translate(-506.532 -260.567)" fill="#fcd8c3"/>
                  <g id="Group_24185" data-name="Group 24185" transform="translate(22.425 37.997)">
                    <path id="Path_19424" data-name="Path 19424" d="M559.6,301.714c-2.525-.043-8.4-2.648-8.4-2.648-.365-.2-.689-.358-1-.5a8.305,8.305,0,0,1,4.505,1.269s2.48,1.1,4.91,1.88Z" transform="translate(-539.922 -298.566)" fill="#fff"/>
                    <path id="Path_19425" data-name="Path 19425" d="M536.477,335.212c5.569-.372,10.956-.825,14.452-4.314a20.419,20.419,0,0,1,1.915-2.164c.236-.3.468-.6.694-.913a88.362,88.362,0,0,0,5.2-9.736c.614-1.525,1.156-3.034,1.629-4.475h0l2.51-9.742,3.69.061-2.693,10.449h0c-.473,1.441-1.014,2.95-1.629,4.475a88.365,88.365,0,0,1-5.2,9.736c-.226.311-.458.614-.694.913a20.488,20.488,0,0,0-1.915,2.164c-3.526,3.52-8.975,3.95-14.6,4.324a17.354,17.354,0,0,1-3.183-.079Q536.577,335.559,536.477,335.212Z" transform="translate(-536.477 -299.897)" fill="#fff"/>
                  </g>
                  <path id="Path_19426" data-name="Path 19426" d="M549.526,327.256a88.352,88.352,0,0,0,5.2-9.736c.614-1.525,1.156-3.034,1.629-4.475h0l2.693-10.449-6.909-.115c-2.525-.042-8.4-2.648-8.4-2.648a8.96,8.96,0,0,0-5.6-1.266l-3.306,6.525s-1.411,4.222-3.085,8.275c-.983,2.377-4.367,3-5.4,2.623-1.838-.663-6.233.959-7.044,2.227,0,0-4.827.171-7.761,2.649,0,0-2.444-.075-4.135,3.911-1.35,3.183-1.49,10.523,2.164,11.977,2.79,1.111,3.455-2.888,3.455-2.888a7.541,7.541,0,0,0,1.662,2.888c1.76,1.4,4.982,0,4.484-2.423l.7.174c1.868,1.722,4.083,1.421,5.795-.456l.207-.227a15.385,15.385,0,0,0,6.452.836c5.621-.374,11.069-.8,14.6-4.324a20.5,20.5,0,0,1,1.915-2.164C549.068,327.87,549.3,327.567,549.526,327.256Z" transform="translate(-506.532 -260.567)" fill="none" stroke="#263238" stroke-linecap="round" stroke-linejoin="round" stroke-width="2.5"/>
                  <path id="Path_19427" data-name="Path 19427" d="M515.077,343.9s-.831-5.873,0-7.912" transform="translate(-508.585 -269.966)" fill="none" stroke="#263238" stroke-linecap="round" stroke-linejoin="round" stroke-width="2.5"/>
                  <path id="Path_19428" data-name="Path 19428" d="M523.947,343.179c-1.594-1.236-1.124-7.457-1.028-10.072" transform="translate(-510.612 -269.242)" fill="none" stroke="#263238" stroke-linecap="round" stroke-linejoin="round" stroke-width="2.5"/>
                  <path id="Path_19429" data-name="Path 19429" d="M532.076,342.381c.9-2.275.318-10.634.318-10.634" transform="translate(-512.946 -268.901)" fill="none" stroke="#263238" stroke-linecap="round" stroke-linejoin="round" stroke-width="2.5"/>
                  <path id="Path_19430" data-name="Path 19430" d="M534.68,323.4c8.507,6.193,8.469,14.607,4.184,13.168-3.823-1.284-5.266-4.638-5.878-4.638" transform="translate(-513.175 -266.806)" fill="none" stroke="#263238" stroke-linecap="round" stroke-linejoin="round" stroke-width="2.5"/>
                  <path id="Path_19431" data-name="Path 19431" d="M550.309,328.353c0-3.392-4.6-7.8-10.76-7.8" transform="translate(-514.823 -266.088)" fill="none" stroke="#263238" stroke-linecap="round" stroke-linejoin="round" stroke-width="2.5"/>
                  <path id="Path_19432" data-name="Path 19432" d="M618.495,299.982H645l-.646-2.793c-.028-.226-.038-.347-.038-.347s2.5-.671,2.316-1.964c-.33-2.327-2.4-11.527-2.751-13.116-.434-2-.924-20.688-16.331-23.344-5.841-1-18.713-8.152-27.706-10.319-4.065-.985-11.4,1.028-11.4,1.028s-17.1,4.335-19.351,4.83a26.608,26.608,0,0,0-7.723,3.185c-4.258,2.557-9.879,8.609-10.347,13.861-.165,1.832-3.449,5.3-5.2,8.471a22.366,22.366,0,0,0-2.464,6.81l1.4-.154c.88-.1,1.76-.22,2.623-.3,2.057-.187,3.157.165,5.6,1.265,0,0,5.88,2.607,8.4,2.651l6.908.115A81.1,81.1,0,0,1,565.6,300.3a26.062,26.062,0,0,1-1.628,4.478,46.116,46.116,0,0,1-5.2,9.736c-.006,0-.006,0-.006.005a6.582,6.582,0,0,1-.693.908,23.518,23.518,0,0,1-1.914,2.162v.005l-2.351,9.288,15.734-.007v-1.468h48.949Z" transform="translate(-515.779 -247.828)" fill="#e51635"/>
                  <path id="Path_19433" data-name="Path 19433" d="M604.662,250.295c.174-.185.356-.361.542-.536a51.531,51.531,0,0,0-5.362-1.66c-4.065-.985-11.4,1.028-11.4,1.028s-17.1,4.335-19.351,4.83a26.619,26.619,0,0,0-7.723,3.185c-4.257,2.557-9.879,8.609-10.346,13.861-.165,1.832-3.449,5.3-5.2,8.471a22.356,22.356,0,0,0-2.465,6.81l1.4-.154c.789-.089,1.576-.192,2.353-.273a23.589,23.589,0,0,1,1.936-4.613c1.755-3.174,5.039-6.639,5.2-8.471.468-5.253,6.089-11.3,10.347-13.861a26.611,26.611,0,0,1,7.723-3.185c2.25-.5,19.351-4.83,19.351-4.83s7.332-2.013,11.4-1.028C603.587,249.994,604.121,250.139,604.662,250.295Z" transform="translate(-515.779 -247.828)" fill="#fff"/>
                  <path id="Path_19434" data-name="Path 19434" d="M646.63,294.878c-.33-2.327-2.4-11.527-2.751-13.116-.434-2-.924-20.688-16.331-23.344-5.841-1-18.713-8.152-27.706-10.319-4.065-.985-11.4,1.028-11.4,1.028s-17.1,4.335-19.351,4.83a26.608,26.608,0,0,0-7.723,3.185c-4.258,2.557-9.879,8.609-10.347,13.861-.165,1.832-3.449,5.3-5.2,8.471a22.366,22.366,0,0,0-2.464,6.81l1.4-.154c.88-.1,1.76-.22,2.623-.3,2.057-.187,3.157.165,5.6,1.265,0,0,5.88,2.607,8.4,2.651l6.908.115A81.1,81.1,0,0,1,565.6,300.3a26.062,26.062,0,0,1-1.628,4.478,46.029,46.029,0,0,1-5.2,9.742,6.582,6.582,0,0,1-.693.908,24.308,24.308,0,0,1-1.914,2.167l-1.784,7.049h34.48v.765h29.255V299.026h26.075a5.484,5.484,0,0,0,.117-2.165C645.125,296.553,646.792,296.038,646.63,294.878Z" transform="translate(-515.779 -247.828)" fill="none" stroke="#263238" stroke-linecap="round" stroke-linejoin="round" stroke-width="2.5"/>
                  <path id="Path_19435" data-name="Path 19435" d="M576.006,301.993c0-2.644-.777-5.838-1.941-5.838" transform="translate(-523.49 -259.963)" fill="none" stroke="#263238" stroke-linecap="round" stroke-linejoin="round" stroke-width="2.5"/>
                </g>
              </g>
              <path id="Path_19436" data-name="Path 19436" d="M634.12,289.541c.6,2.026.591,6.4,1.107,16.979l8.137,1.445" transform="translate(-538.571 -233.254)" fill="none" stroke="#263238" stroke-linecap="round" stroke-linejoin="round" stroke-width="2.5"/>
              <path id="Path_19437" data-name="Path 19437" d="M578.245,294.962c-.576.855-1.373,7.765-1.588,6.731" transform="translate(-524.141 -234.615)" fill="none" stroke="#263238" stroke-linecap="round" stroke-linejoin="round" stroke-width="2.5"/>
              <g id="Group_24190" data-name="Group 24190" transform="translate(51.928 74.063)">
                <path id="Path_19438" data-name="Path 19438" d="M577.55,326.4a13.777,13.777,0,0,0,5.665.671c.594-.038.968-.082.968-.082a1.358,1.358,0,0,0-.011.253,2.444,2.444,0,0,0,1.81,2.349,3.464,3.464,0,0,0,3.245-1.089,7.649,7.649,0,0,0,.771-.825s0,.407.049,1.084c.181,2.541,1.028,8.889,5.016,11.689a8.934,8.934,0,0,0,1.111.666,22.733,22.733,0,0,0,9.268,1.9c0,.011-.005.016-.011.028.193-.382,5.089.04,5.653.058,2.1.073,4.2.1,6.3.115,3.427,0,6.854.052,10.28.075a84.776,84.776,0,0,1,10.289,1.114c4.5.576,10.521.493,13.733-3.308,2.3-2.719,2.011-6.515,2.205-9.843.1-1.766.005-4.56-.17-7.58a93.5,93.5,0,0,0-1.2-10.052,2.022,2.022,0,0,0-.049-.347c-.324.077-.655.154-.979.225-.979.22-1.964.407-2.948.572a56.879,56.879,0,0,1-18.218.1l-5.726-.9c-.044-.011.753,6.114.753,6.114l-21.534,1.293s-2.882-3.246-5.649-2.646a9.309,9.309,0,0,0-1.694.467c-.171-.341-.743-1.018-2.68-1.628-2.469-.786-3.454.187-3.454.187a6.239,6.239,0,0,0-3.762-1.953c-2.305-.165-10.3,4.576-10.693,8.74A2.44,2.44,0,0,0,577.55,326.4Z" transform="translate(-575.872 -313.277)" fill="#fcd8c3"/>
                <g id="Group_24188" data-name="Group 24188" transform="translate(0)">
                  <path id="Path_19439" data-name="Path 19439" d="M627.4,314.144a1.929,1.929,0,0,1-.052-.436l-2.756-.431c-.044-.011.753,6.114.753,6.114l-21.534,1.293s-2.882-3.246-5.649-2.646a9.344,9.344,0,0,0-1.695.467c-.17-.341-.742-1.018-2.678-1.628-2.47-.786-3.455.187-3.455.187a6.239,6.239,0,0,0-3.762-1.953c-2.305-.165-10.3,4.576-10.693,8.74a2.246,2.246,0,0,0,.984,2.151,13.188,13.188,0,0,1,9.754-8.169,1.713,1.713,0,0,1,2.038,1.105,4.767,4.767,0,0,1,6.363,1.236s.985-.974,3.455-.187a3.382,3.382,0,0,1,2.37,2.324c2.317.887,2.05-1.007,3.04-1.221,2.767-.6-.724.625-.724.625l26.208.311S627.5,314.541,627.4,314.144Z" transform="translate(-575.872 -313.277)" fill="#fff"/>
                </g>
                <g id="Group_24189" data-name="Group 24189" transform="translate(4.179 0.001)">
                  <path id="Path_19440" data-name="Path 19440" d="M581.57,331.582l0,.025-.116-.012Z" transform="translate(-581.452 -317.874)" fill="#fff"/>
                  <path id="Path_19441" data-name="Path 19441" d="M642.648,314.174l-1.685-.264c-.025-.4-.038-.635-.031-.633l5.73.9a57.152,57.152,0,0,0,7.021.64A57.054,57.054,0,0,1,642.648,314.174Z" transform="translate(-596.387 -313.278)" fill="#fff"/>
                  <path id="Path_19442" data-name="Path 19442" d="M588.206,333.329a7.53,7.53,0,0,0,.768-.825s0,.405.049,1.082c.018.249.045.544.078.859-.043-.011-.085-.014-.127-.028a2.635,2.635,0,0,1-1.186-.744C587.937,333.559,588.08,333.443,588.206,333.329Z" transform="translate(-583.043 -318.106)" fill="#fff"/>
                </g>
                <path id="Path_19443" data-name="Path 19443" d="M577.55,326.4a13.777,13.777,0,0,0,5.665.671c.594-.038.968-.082.968-.082a1.358,1.358,0,0,0-.011.253,2.444,2.444,0,0,0,1.81,2.349,3.464,3.464,0,0,0,3.245-1.089,7.649,7.649,0,0,0,.771-.825s0,.407.049,1.084c.181,2.541,1.028,8.889,5.016,11.689a8.934,8.934,0,0,0,1.111.666c3.864,1.932,8.122,1.546,12.325,1.639,6.64.145,13.452-.161,20.052.584,6.976.786,14.858,2.925,21.421-.526,3.41-1.794,3.754-4.844,3.96-8.364.1-1.766-.035-7.75-.211-10.77a93.5,93.5,0,0,0-1.2-10.052,2.022,2.022,0,0,0-.049-.347c-.324.077-.655.154-.979.225-.979.22-1.964.407-2.948.572a56.879,56.879,0,0,1-18.218.1l-5.726-.9c-.044-.011.753,6.114.753,6.114l-21.534,1.293s-2.882-3.246-5.649-2.646a9.309,9.309,0,0,0-1.694.467c-.171-.341-.743-1.018-2.68-1.628-2.469-.786-3.454.187-3.454.187a6.239,6.239,0,0,0-3.762-1.953c-2.305-.165-10.3,4.576-10.693,8.74A2.44,2.44,0,0,0,577.55,326.4Z" transform="translate(-575.872 -313.277)" fill="none" stroke="#263238" stroke-linecap="round" stroke-linejoin="round" stroke-width="2.5"/>
                <path id="Path_19444" data-name="Path 19444" d="M586.966,328.258s-.082-4.448,6.158-9.926" transform="translate(-578.657 -314.546)" fill="none" stroke="#263238" stroke-linecap="round" stroke-linejoin="round" stroke-width="2.5"/>
                <path id="Path_19445" data-name="Path 19445" d="M594.729,329.5s1.145-4.629,6.551-8.952" transform="translate(-580.607 -315.103)" fill="none" stroke="#263238" stroke-linecap="round" stroke-linejoin="round" stroke-width="2.5"/>
                <path id="Path_19446" data-name="Path 19446" d="M595.576,329.479l-.853,2.707c-.662,2.1,2.342,5.713,7.729-.592l2.651-2.569" transform="translate(-580.582 -317.232)" fill="none" stroke="#263238" stroke-linecap="round" stroke-linejoin="round" stroke-width="2.5"/>
                <path id="Path_19447" data-name="Path 19447" d="M598.2,334.278c4.263-4.99-.178-7.753,0-7.753" transform="translate(-581.477 -316.604)" fill="none" stroke="#263238" stroke-linecap="round" stroke-linejoin="round" stroke-width="2.5"/>
              </g>
              <line id="Line_189" data-name="Line 189" x2="17.048" transform="translate(90.958 80.804)" fill="none" stroke="#263238" stroke-linecap="round" stroke-linejoin="round" stroke-width="2.5"/>
              <g id="Group_24194" data-name="Group 24194" transform="translate(0.343 63.902)">
                <g id="Group_24191" data-name="Group 24191">
                  <path id="Path_19448" data-name="Path 19448" d="M568.763,335.749l-50.472.385-11.1-31.5a3.45,3.45,0,0,1,3.228-4.6l43.176-.329a3.45,3.45,0,0,1,3.28,2.3Z" transform="translate(-506.991 -299.709)" fill="#fff" stroke="#263238" stroke-linecap="round" stroke-linejoin="round" stroke-width="2.5"/>
                </g>
                <g id="Group_24192" data-name="Group 24192" transform="translate(26.922 17.388)">
                  <path id="Path_19449" data-name="Path 19449" d="M545.1,322.927a2.156,2.156,0,1,0,2.155,2.156A2.159,2.159,0,0,0,545.1,322.927Z" transform="translate(-542.94 -322.927)" fill="#263238"/>
                </g>
                <g id="Group_24193" data-name="Group 24193" transform="translate(11.315 35.98)">
                  <path id="Path_19450" data-name="Path 19450" d="M580.546,351.452l-56.584.431a1.849,1.849,0,0,1-1.863-1.836h0a1.849,1.849,0,0,1,1.835-1.863l56.584-.431a1.849,1.849,0,0,1,1.863,1.836h0A1.848,1.848,0,0,1,580.546,351.452Z" transform="translate(-522.099 -347.753)" fill="#fff" stroke="#263238" stroke-linecap="round" stroke-linejoin="round" stroke-width="2.5"/>
                </g>
              </g>
              <path id="Path_19451" data-name="Path 19451" d="M643.873,263.073a10.473,10.473,0,0,1,8.915-1.266" transform="translate(-541.02 -226.167)" fill="none" stroke="#263238" stroke-linecap="round" stroke-linejoin="round" stroke-width="2.5"/>
              <path id="Path_19452" data-name="Path 19452" d="M630.048,289.983c0,2.164,3.142,6.145,3.142,6.145" transform="translate(-537.548 -233.364)" fill="none" stroke="#263238" stroke-linecap="round" stroke-linejoin="round" stroke-width="2.5"/>
              <line id="Line_190" data-name="Line 190" y2="3.348" transform="translate(54.24 49.214)" fill="none" stroke="#263238" stroke-linecap="round" stroke-linejoin="round" stroke-width="2.5"/>
              <g id="Group_24196" data-name="Group 24196" transform="translate(86.945)">
                <g id="Group_24195" data-name="Group 24195">
                  <path id="Path_19453" data-name="Path 19453" d="M623.625,214.38a1.008,1.008,0,0,0-.6,1.806c1.878,1.34,4.794,3.679,5.646,5.786,1.287,3.185,3.248,2.86,3.437,1.043s-3.215-6.694-6.159-8.059A5.683,5.683,0,0,0,623.625,214.38Z" transform="translate(-622.63 -214.38)" fill="#263238" stroke="#263238" stroke-linecap="round" stroke-linejoin="round" stroke-width="2.5"/>
                  <path id="Path_19454" data-name="Path 19454" d="M632.963,232.979a1.013,1.013,0,0,0,1.47.194,1.145,1.145,0,0,0,.145-1.553,1.013,1.013,0,0,0-1.47-.194A1.145,1.145,0,0,0,632.963,232.979Z" transform="translate(-625.165 -218.602)" fill="#263238" stroke="#263238" stroke-linecap="round" stroke-linejoin="round" stroke-width="2.5"/>
                </g>
              </g>
              <path id="Path_19455" data-name="Path 19455" d="M511.965,347.6c0-2.515-1.682-4.465-4.806-4.465" transform="translate(-506.69 -246.71)" fill="none" stroke="#263238" stroke-linecap="round" stroke-linejoin="round" stroke-width="2.5"/>
            </g>
          </g>
          <path id="Path_19456" data-name="Path 19456" d="M603.4,254.911c.279,2.366,2.644,3.274,5.555,2.343a10.791,10.791,0,0,0,1.082-.423c.11-.053.222-.1.335-.161.256-.129.519-.274.764-.421,3.127-1.877,5.337-5.2,5.037-7.738a2.937,2.937,0,0,0-2.68-2.656,2.045,2.045,0,0,0-.222-.022c-.1-.013-.212-.018-.321-.023a7.831,7.831,0,0,0-3.748.936C605.679,248.517,603.078,252.17,603.4,254.911Z" transform="translate(-507.943 -222.271)" fill="#263238" stroke="#263238" stroke-linecap="round" stroke-linejoin="round" stroke-width="2.5"/>
          <g id="Group_24200" data-name="Group 24200" transform="translate(90.766 3.038)">
            <path id="Path_19457" data-name="Path 19457" d="M617.223,240.671c-.234.409-.5.837-.784,1.232-.126.169-.26.335-.386.5a14.833,14.833,0,0,1-1.358,1.5c-3.994,3.759-9.671,4.521-13.657,1.488-4.626-3.5-5.2-10.747-1.326-16.182a13.038,13.038,0,0,1,5.515-4.483c.121-.047.241-.1.358-.136a2.47,2.47,0,0,1,.27-.1,4.481,4.481,0,0,1,.44-.159,10.486,10.486,0,0,1,3.47-.487c.167,0,.332.011.492.026s.329.035.489.052l.493.079a9,9,0,0,1,3.094,1.182,7.631,7.631,0,0,1,.786.532C619.39,228.956,620.212,235.423,617.223,240.671Z" transform="translate(-597.145 -219.795)" fill="#fcd8c3"/>
            <path id="Path_19458" data-name="Path 19458" d="M604.7,246.837c-4.626-3.5-5.2-10.747-1.326-16.183a13.036,13.036,0,0,1,5.516-4.482c.121-.048.241-.1.358-.136a2.538,2.538,0,0,1,.27-.1,4.314,4.314,0,0,1,.44-.158,10.465,10.465,0,0,1,3.47-.487c.168,0,.333.01.493.025s.328.036.489.052l.252.04c-.109-.072-.212-.154-.322-.218a9,9,0,0,0-3.094-1.182l-.493-.079c-.16-.016-.329-.036-.489-.052s-.325-.025-.492-.026a10.486,10.486,0,0,0-3.47.487,4.563,4.563,0,0,0-.44.159,2.58,2.58,0,0,0-.27.1c-.117.04-.237.088-.358.136a13.038,13.038,0,0,0-5.515,4.483c-3.879,5.435-3.3,12.679,1.326,16.182a9.1,9.1,0,0,0,4.115,1.753C605,247.048,604.844,246.95,604.7,246.837Z" transform="translate(-597.145 -219.795)" fill="#fff"/>
            <path id="Path_19459" data-name="Path 19459" d="M601.04,245.395c3.771,2.875,9.067,2.337,13.011-.915.218-.184.436-.368.642-.566a14.618,14.618,0,0,0,1.358-1.508c.133-.168.263-.329.389-.5a13.144,13.144,0,0,0,.781-1.235,12.352,12.352,0,0,0,.356-12.154c-.1-.173-.2-.338-.312-.506-.172-.247-.351-.5-.544-.736s-.375-.439-.58-.648c-.1-.1-.213-.213-.326-.313s-.225-.2-.338-.3-.24-.189-.356-.282a7.659,7.659,0,0,0-.785-.536,9.017,9.017,0,0,0-3.094-1.179c-.169-.03-.332-.056-.494-.082s-.33-.037-.488-.053a3.113,3.113,0,0,0-.494-.021,10.16,10.16,0,0,0-3.467.482,4.261,4.261,0,0,0-.44.158,1.647,1.647,0,0,0-.27.1c-.122.043-.237.089-.362.139a13.025,13.025,0,0,0-5.512,4.479C595.83,234.653,596.411,241.892,601.04,245.395Z" transform="translate(-597.145 -219.796)" fill="none" stroke="#263238" stroke-linecap="round" stroke-linejoin="round" stroke-width="2.5"/>
            <g id="Group_24199" data-name="Group 24199" transform="translate(3.354)">
              <path id="Path_19460" data-name="Path 19460" d="M620.029,227.156a1.843,1.843,0,0,1-.106-.158c-.071-.118-.135-.231-.205-.348-.172-.247-.351-.5-.544-.736s-.375-.439-.58-.648c-.1-.1-.213-.213-.326-.313s-.225-.2-.338-.3-.24-.189-.356-.282a7.661,7.661,0,0,0-.785-.536,9.205,9.205,0,0,0-3.094-1.179c-.169-.029-.332-.055-.494-.082s-.33-.037-.488-.053c-.043-.005-.085,0-.127-.005a2.949,2.949,0,1,0-4.8.965c-.971,1.45.8,8.092,6.068,11.431,1.486.941,2.391,4.2,2.653,8.211.218-.184.435-.368.642-.566a14.623,14.623,0,0,0,1.358-1.508c.133-.168.263-.33.389-.5a13.133,13.133,0,0,0,.781-1.235A12.352,12.352,0,0,0,620.029,227.156Z" transform="translate(-602.951 -218.437)" fill="#263238" stroke="#263238" stroke-linecap="round" stroke-linejoin="round" stroke-width="2.5"/>
              <path id="Path_19461" data-name="Path 19461" d="M603.6,219.557a1.98,1.98,0,1,0,1.98,1.979A1.98,1.98,0,0,0,603.6,219.557Z" transform="translate(-601.623 -218.718)" fill="#263238" stroke="#263238" stroke-linecap="round" stroke-linejoin="round" stroke-width="2.5"/>
            </g>
          </g>
          <path id="Path_19462" data-name="Path 19462" d="M598.047,263.763c0,3.258,3.99,6.041,7.914,3.869" transform="translate(-506.605 -226.78)" fill="none" stroke="#263238" stroke-linecap="round" stroke-linejoin="round" stroke-width="2.5"/>
        </g>
        <path id="Path_19463" data-name="Path 19463" d="M637.466,353.4c0,5.808,2.431,8.837,6.468,8.837" transform="translate(-516.504 -249.288)" fill="none" stroke="#263238" stroke-linecap="round" stroke-linejoin="round" stroke-width="2.5"/>
        <path id="Path_19464" data-name="Path 19464" d="M613.608,361.547s-18.4,15.095-28.327,19.927-12.312,3.719-13.622,6.5-2.289,7.6-10.7,12.006-9.927,2.859-14.215,5.883l-4.287,3.025" transform="translate(-492.646 -251.335)" fill="none" stroke="#263238" stroke-linecap="round" stroke-linejoin="round" stroke-width="2.5"/>
      </g>
    </g>
    <g id="Character_1" data-name="Character 1" transform="translate(106.564 126.696)">
      <g id="Group_24218" data-name="Group 24218">
        <g id="Group_24203" data-name="Group 24203" transform="translate(63.773 213.491)">
          <path id="Path_19465" data-name="Path 19465" d="M245.5,442.384l.421-7.8H220.658l-.481,7.8Z" transform="translate(-218.759 -434.588)" fill="#fff" stroke="#263238" stroke-linecap="round" stroke-linejoin="round" stroke-width="2.5"/>
          <path id="Path_19466" data-name="Path 19466" d="M219.7,445h25.323l14.76,10.577-41.5.139Z" transform="translate(-218.284 -437.202)" fill="#e51635" stroke="#263238" stroke-linecap="round" stroke-linejoin="round" stroke-width="2.5"/>
        </g>
        <g id="Group_24204" data-name="Group 24204" transform="translate(0 199.347)">
          <path id="Path_19467" data-name="Path 19467" d="M163.747,432.411l3.372-7.041L143.781,415.7l-3.428,7.018Z" transform="translate(-134.941 -415.701)" fill="#fff" stroke="#263238" stroke-linecap="round" stroke-linejoin="round" stroke-width="2.5"/>
          <path id="Path_19468" data-name="Path 19468" d="M138.538,425.073l23.4,9.691,9.588,15.421-38.394-15.754Z" transform="translate(-133.126 -418.054)" fill="#e51635" stroke="#263238" stroke-linecap="round" stroke-linejoin="round" stroke-width="2.5"/>
        </g>
        <g id="Group_24215" data-name="Group 24215" transform="translate(4.956)">
          <g id="Group_24214" data-name="Group 24214">
            <g id="Group_24206" data-name="Group 24206" transform="translate(0 5.163)">
              <g id="Group_24205" data-name="Group 24205">
                <path id="Path_19469" data-name="Path 19469" d="M157.345,156.48a.794.794,0,0,1,.282,1.5c-1.778.731-4.573,2.063-5.57,3.559-1.508,2.261-3.145,1.684-3.075.242s3.6-4.667,6.3-5.239A5.315,5.315,0,0,1,157.345,156.48Z" transform="translate(-142.063 -156.407)" fill="#263238" stroke="#263238" stroke-linecap="round" stroke-linejoin="round" stroke-width="2.5"/>
                <path id="Path_19470" data-name="Path 19470" d="M141.258,172.543a.937.937,0,0,1-1.283-.092.846.846,0,0,1,.073-1.23.938.938,0,0,1,1.283.093A.845.845,0,0,1,141.258,172.543Z" transform="translate(-139.744 -160.074)" fill="#263238" stroke="#263238" stroke-linecap="round" stroke-linejoin="round" stroke-width="2.5"/>
              </g>
            </g>
            <path id="Path_19471" data-name="Path 19471" d="M278.435,189.767h0s25.523,62.649-2.295,60.632c-17.8-1.291-20.439-8.738-21.1-9.671s10.222-47.969,10.222-47.969l5.039-2.608A9.746,9.746,0,0,1,278.435,189.767Z" transform="translate(-168.689 -159.442)" fill="#fcd8c3"/>
            <path id="Path_19472" data-name="Path 19472" d="M282.189,250.4l-.532-.045c23.028-2.554-.614-60.585-.614-60.585a9.446,9.446,0,0,0-1.932-.554,9.74,9.74,0,0,1,5.377.554S310.01,252.42,282.189,250.4Z" transform="translate(-174.74 -159.443)" fill="#fff"/>
            <path id="Path_19473" data-name="Path 19473" d="M273.452,219.977h-5.041l.281,23.766" transform="translate(-172.054 -167.206)" fill="#fff"/>
            <path id="Path_19474" data-name="Path 19474" d="M278.435,189.767h0s25.523,62.649-2.295,60.632c-17.8-1.291-20.439-8.738-21.1-9.671s10.222-47.969,10.222-47.969l5.039-2.608A9.746,9.746,0,0,1,278.435,189.767Z" transform="translate(-168.689 -159.442)" fill="none" stroke="#263238" stroke-linecap="round" stroke-linejoin="round" stroke-width="2.5"/>
            <g id="Group_24207" data-name="Group 24207" transform="translate(11.464 16.828)">
              <path id="Path_19475" data-name="Path 19475" d="M239.585,216.2c-.27.066-.72.188-1.431.417a9.056,9.056,0,0,0-3.141,1.783c-.164.148-1.669,12.235-1.734,13.143-.172,2.585-.311,9.537,1.955,13.634,1.636,2.953,1.039,7.9.957,9-.27,3.452-1.865,3.812-2.92,4.826l-.1.1a.133.133,0,0,1-.058.033.179.179,0,0,1-.065.04.742.742,0,0,0-.09.041,37.739,37.739,0,0,1-3.615,1.21c-1.775.532-8.113,1.162-10.5,1.791-4.8,1.276-10.191,2.551-13.544,3.067-.065,0-.131.016-.188.016-.72.106-1.333.18-1.824.2-8.457,0-19.85-.941-27.866-5.545-.261-.156-.515-.3-.76-.467-.287-.172-.556-.344-.826-.532a8.008,8.008,0,0,1-.687-.491c-.294-.213-.572-.434-.859-.663-.016,0-.016-.016-.032-.024-.09-.074-.172-.147-.262-.221a5.722,5.722,0,0,1-.638-.7c-.049-.065-.1-.13-.139-.2a4.107,4.107,0,0,1,.18-3.345c0-.008,0-.008.008-.016.229-.491.491-1.015.72-1.587a37.923,37.923,0,0,0,1.767-9.578v-.229c.065-3.41.082-5.3-.008-6.813a.157.157,0,0,0-.008-.065,26.249,26.249,0,0,0-.523-3.713l-.155-.523,2.608-7.648c-1.993,1.382-2.428,2.041-6.925,3.17-.8.2-1.793.338-2.489.535h-.008c-.057.016-.115.032-.163.049l-.18.049c-4.482,1.243-4.033,2.879-5.235,2.879a1.57,1.57,0,0,0-.237.221c-.589.622-2.126,2.372-3.312,3.64a4.7,4.7,0,0,1-.336.359c-.057.066-.122.131-.18.2a6.255,6.255,0,0,1-.532.532,1.338,1.338,0,0,1-.417.311.031.031,0,0,1-.025-.008c-.024-.025-.057-.049-.09-.082.016-.123.025-.246.041-.352,0-.024.008-.04.008-.065a.049.049,0,0,0,.008-.033.087.087,0,0,1,.008-.04.622.622,0,0,1,.024-.115,1.157,1.157,0,0,1,.033-.156c.016-.082.041-.155.058-.245v-.008c.008,0,.008-.016.008-.025a.053.053,0,0,1,.007-.033c1.35-4.506.516-14.934-.3-19.58-1.112-6.314-.253-14.542.834-17.3,2.5-6.322,13.4-15.54,20.553-16.088.1-.008.2-.016.311-.033q.454-.062,1.08-.2c.172-.041.352-.09.548-.131,2.609-.662,6.665-2.077,9.814-3.223.319-.123.63-.237.924-.343.156-.058.311-.115.458-.172a.69.69,0,0,1,.123-.04c.188-.066.368-.139.539-.2a.14.14,0,0,0,.041-.016c.106-.041.213-.082.319-.115,1.374-.515,2.257-.859,2.257-.859l.818-.368.687-.311,1.243-.565.2-.09,5.152-2.315s.082.041.229.106a17.445,17.445,0,0,1,1.783,1.063c.18.115.368.237.572.368.115.074.237.148.36.229.049.033.106.066.155.1.2.123.377.237.581.36.171.115.335.213.5.319.229.147.466.286.7.417.2.123.392.228.6.343.45.262.908.508,1.358.712a1.882,1.882,0,0,0,.294.13c.2.106.418.188.622.27.115.04.213.073.311.115a5.463,5.463,0,0,0,1.415.3c16.832.81,26.229,11.639,28.814,22.205C240.828,204.273,239.74,214.881,239.585,216.2Z" transform="translate(-155.052 -171.983)" fill="#fff"/>
              <path id="Path_19476" data-name="Path 19476" d="M267.907,231.141s.008-.049.016-.139C268.749,230.789,267.9,231.174,267.907,231.141Z" transform="translate(-183.391 -186.787)" fill="#9abae3"/>
            </g>
            <g id="Group_24208" data-name="Group 24208" transform="translate(11.464 16.828)">
              <path id="Path_19477" data-name="Path 19477" d="M155.875,233.929a.05.05,0,0,0-.008.033c0,.008,0,.025-.008.025v.008c-.016.09-.041.163-.058.245a1.05,1.05,0,0,0-.033.156.609.609,0,0,0-.024.115.087.087,0,0,0-.008.04.049.049,0,0,1-.008.033c0,.025-.008.041-.008.065-.016.106-.025.229-.041.352.033.033.066.057.09.082a.03.03,0,0,0,.025.008,1.338,1.338,0,0,0,.417-.311,6.48,6.48,0,0,0,.532-.532c.058-.065.123-.13.18-.2a4.7,4.7,0,0,0,.336-.359c1.317-1.546,2.134-3.206,3.345-4.442a6.038,6.038,0,0,1,3.247-1.774c.711-.139,2.314-.556,2.372-.573s.106-.033.163-.049h.008c.695-.2,7.17-.83,10.339-3.792L173.2,230.8l.155.523a26.249,26.249,0,0,1,.523,3.713.157.157,0,0,1,.008.065c.09,1.514.073,3.4.008,6.813v.229a37.923,37.923,0,0,1-1.767,9.578c-.229.572-.491,1.1-.72,1.587-.008.008-.008.008-.008.016-.573,1.194-.941,2.216-.18,3.345.04.066.09.131.139.2a5.6,5.6,0,0,0,.638.7c.09.073.172.147.261.221.016.008.016.024.033.024.287.229.565.45.859.663a8.112,8.112,0,0,0,.687.491c.27.188.54.36.826.532.191.127.391.243.591.362h55.917V239.594h2.386a40.583,40.583,0,0,1-.276-8.054c.065-.908,1.57-13,1.734-13.143a9.056,9.056,0,0,1,3.141-1.783c.711-.229,1.161-.351,1.431-.417.155-1.317,1.243-11.925.188-17.175-2.584-10.568-11.982-21.4-28.814-22.205a5.463,5.463,0,0,1-1.415-.3c-.1-.041-.2-.074-.311-.115-.2-.082-.417-.164-.622-.27a1.882,1.882,0,0,1-.294-.13c-.45-.205-.908-.45-1.358-.712-.2-.115-.4-.221-.6-.343-.237-.131-.474-.27-.7-.417-.164-.106-.327-.2-.5-.319-.2-.123-.385-.237-.581-.36-.049-.032-.106-.065-.155-.1-.123-.082-.246-.155-.36-.229-.2-.13-.392-.253-.572-.368a17.445,17.445,0,0,0-1.783-1.063c-.148-.065-.229-.106-.229-.106l-5.152,2.315-.2.09-1.243.565-.687.311-.818.368s-.884.344-2.257.859c-.106.032-.213.073-.319.115a.14.14,0,0,1-.041.016c-.172.065-.351.139-.539.2a.69.69,0,0,0-.123.04c-.148.058-.3.115-.458.172-.294.106-.605.22-.924.343-3.149,1.145-7.206,2.56-9.814,3.223-.2.041-.377.09-.548.131q-.626.135-1.08.2c-.115.016-.213.025-.311.033-7.156.547-18.051,9.766-20.553,16.088-1.087,2.756-1.946,10.984-.834,17.3C156.39,218.995,157.224,229.423,155.875,233.929Z" transform="translate(-155.052 -171.983)" fill="none" stroke="#263238" stroke-linecap="round" stroke-linejoin="round" stroke-width="2.5"/>
              <path id="Path_19478" data-name="Path 19478" d="M267.907,231.141s.008-.049.016-.139C268.749,230.789,267.9,231.174,267.907,231.141Z" transform="translate(-183.391 -186.787)" fill="none" stroke="#263238" stroke-linecap="round" stroke-linejoin="round" stroke-width="2.5"/>
            </g>
            <path id="Path_19479" data-name="Path 19479" d="M217.67,180.4c-.487,2.047-2.656,2.615-5.116,1.518a9.633,9.633,0,0,1-.906-.476c-.091-.058-.184-.113-.278-.174-.212-.138-.378-.48-.628-.443-13.732,2.058-5.332-4.655-3.628-7.272.734-1.127,1.307-2.019,2.623-2.071a1.968,1.968,0,0,1,.2,0c.091,0,.188,0,.285.011a6.875,6.875,0,0,1,3.193,1.182C216.327,174.574,218.236,178.028,217.67,180.4Z" transform="translate(-155.632 -155.029)" fill="#263238" stroke="#263238" stroke-linecap="round" stroke-linejoin="round" stroke-width="2.5"/>
            <g id="Group_24209" data-name="Group 24209" transform="translate(45.156)">
              <path id="Path_19480" data-name="Path 19480" d="M214.7,173.452a6.857,6.857,0,0,1-.663.212c-.172.049-.352.091-.523.131a1.518,1.518,0,0,1-.2.041c-.066.017-.131.025-.2.04-.131.025-.262.041-.392.058-.008,0-.016.008-.025,0-.131.025-.254.033-.377.049-.1.008-.2.016-.294.016a10.707,10.707,0,0,1-8.277-3.541,13.031,13.031,0,0,1-1.889-2.56c-.163-.286-.311-.58-.449-.891-.016-.041-.033-.082-.049-.115-.131-.27-.246-.548-.36-.826a.132.132,0,0,0-.016-.041,2.066,2.066,0,0,0-.082-.229l-.123-.343c-.008-.008,0-.025-.008-.033-.041-.115-.073-.237-.106-.352s-.074-.237-.106-.359c-.016-.058-.033-.123-.049-.18-.049-.18-.09-.36-.131-.54a13.961,13.961,0,0,1-.335-3.043c0-.2.008-.392.016-.589a13.938,13.938,0,0,1,.188-1.767c.032-.18.073-.368.115-.548s.082-.376.139-.556c.041-.172.09-.343.139-.507a.137.137,0,0,0,.016-.04c.057-.18.123-.36.188-.54s.131-.352.2-.523.148-.335.221-.5l.008-.008c.082-.172.163-.335.254-.5s.18-.319.27-.475c.1-.172.2-.336.311-.491s.2-.286.3-.425.221-.286.335-.425.229-.278.352-.409c.016-.008.016-.016.033-.033a9.529,9.529,0,0,1,.777-.76c.1-.09.2-.172.31-.254a9.469,9.469,0,0,1,1.391-.932c.131-.073.27-.139.409-.2.156-.073.319-.148.482-.213.074-.033.148-.065.213-.09a.117.117,0,0,1,.049-.016.3.3,0,0,1,.073-.033.318.318,0,0,1,.074-.032c.007-.008.024-.008.032-.016.123-.041.237-.082.36-.115l.147-.049c.025-.007.049-.016.082-.024a3.053,3.053,0,0,1,.4-.1,5.156,5.156,0,0,1,.523-.115c.025-.008.057-.008.09-.016l.3-.049a.157.157,0,0,0,.057-.008c.172-.016.352-.04.523-.049h.016q.331-.025.663-.025a10.222,10.222,0,0,1,5.807,1.873,3.785,3.785,0,0,1,.376.286c.18.131.36.279.54.425.2.164.384.327.565.507.155.148.31.311.466.475a1.787,1.787,0,0,1,.164.18,12.182,12.182,0,0,1,.866,1.047c.131.18.27.368.392.565a11.758,11.758,0,0,1,.753,1.292l.221.467a1.271,1.271,0,0,1,.1.221c.073.163.148.335.213.5.1.245.2.5.278.752C222.99,164.561,220.242,171.431,214.7,173.452Z" transform="translate(-200.041 -149.512)" fill="#fcd8c3"/>
              <path id="Path_19481" data-name="Path 19481" d="M217.544,173.45c-.217.082-.442.157-.659.217-.172.045-.352.09-.524.127a1.722,1.722,0,0,1-.21.045c-.06.015-.127.022-.195.037-.127.022-.262.045-.389.06-.007,0-.015.007-.022,0-.135.022-.255.03-.382.045-.1.007-.195.022-.292.022a9.693,9.693,0,0,1-2.082-.12.028.028,0,0,1,.022-.007c.067-.015.127-.022.195-.037a1.351,1.351,0,0,0,.2-.045c.172-.037.352-.082.524-.127.225-.06.442-.135.667-.217,5.542-2.015,8.29-8.889,6.148-15.352-.082-.247-.18-.5-.277-.749-.067-.165-.142-.337-.21-.5a1.89,1.89,0,0,0-.1-.217c-.067-.157-.142-.315-.217-.464a12.96,12.96,0,0,0-.749-1.3c-.127-.195-.262-.382-.4-.562a11.735,11.735,0,0,0-.869-1.048,1.233,1.233,0,0,0-.165-.18c-.15-.165-.307-.329-.464-.472a7.18,7.18,0,0,0-.562-.509c-.18-.15-.359-.3-.539-.427-.127-.1-.255-.2-.374-.285a10.435,10.435,0,0,0-4.239-1.745h.015l.3-.045a.186.186,0,0,0,.06-.007c.172-.022.352-.045.524-.052h.015c.217-.015.442-.022.659-.022a10.218,10.218,0,0,1,5.811,1.872,4.134,4.134,0,0,1,.374.285c.18.127.359.277.539.427a7.179,7.179,0,0,1,.562.509c.157.142.315.307.472.472.052.06.112.112.165.18a13.1,13.1,0,0,1,.861,1.048c.135.18.27.367.4.562a11.654,11.654,0,0,1,.749,1.3c.075.15.15.307.225.464a1.779,1.779,0,0,1,.1.217c.075.165.142.337.21.5.1.247.195.5.277.749C225.835,164.56,223.094,171.435,217.544,173.45Z" transform="translate(-202.889 -149.513)" fill="#fff"/>
              <path id="Path_19482" data-name="Path 19482" d="M214.7,173.452a6.857,6.857,0,0,1-.663.212c-.172.049-.352.091-.523.131a1.518,1.518,0,0,1-.2.041c-.066.017-.131.025-.2.04-.131.025-.262.041-.392.058-.008,0-.016.008-.025,0-.131.025-.254.033-.377.049-.1.008-.2.016-.294.016a10.707,10.707,0,0,1-8.277-3.541,13.244,13.244,0,0,1-1.881-2.56c-.163-.286-.311-.589-.458-.891-.016-.041-.033-.082-.049-.115-.123-.27-.246-.548-.352-.826-.008-.016-.008-.025-.016-.041-.025-.073-.058-.147-.09-.229l-.123-.343c-.008-.008,0-.025-.008-.033-.041-.115-.073-.237-.106-.352s-.074-.237-.106-.359c-.016-.058-.033-.123-.049-.18-.049-.18-.09-.36-.131-.54a13.961,13.961,0,0,1-.335-3.043c0-.2.008-.392.016-.589a13.938,13.938,0,0,1,.188-1.767c.032-.18.073-.368.115-.548s.082-.376.139-.556c.041-.172.09-.343.139-.507a.137.137,0,0,0,.016-.04c.057-.18.123-.36.188-.54s.131-.352.2-.523.148-.335.221-.5l.008-.008c.082-.172.163-.335.254-.5s.18-.319.27-.475c.1-.172.2-.336.311-.491s.2-.286.3-.425.221-.286.335-.425.229-.278.352-.409c.016-.008.016-.016.033-.033a9.529,9.529,0,0,1,.777-.76c.1-.09.2-.172.31-.254a9.469,9.469,0,0,1,1.391-.932c.131-.073.27-.139.409-.2.156-.073.319-.148.482-.213.074-.033.148-.065.213-.09a.392.392,0,0,1,.123-.049.318.318,0,0,1,.074-.032c.016,0,.024-.008.032-.008a3.723,3.723,0,0,1,.36-.123l.147-.049c.025-.007.049-.016.082-.024a3.053,3.053,0,0,1,.4-.1,5.156,5.156,0,0,1,.523-.115c.025-.008.057-.008.09-.016l.3-.049a.157.157,0,0,0,.057-.008c.172-.016.352-.04.523-.049h.016q.331-.025.663-.025a10.222,10.222,0,0,1,5.807,1.873,3.785,3.785,0,0,1,.376.286c.18.131.36.279.54.425.2.164.384.327.565.507.155.148.31.311.466.475a1.124,1.124,0,0,1,.171.172,10.534,10.534,0,0,1,.859,1.055c.131.18.27.368.392.565a11.758,11.758,0,0,1,.753,1.292l.221.467a1.271,1.271,0,0,1,.1.221c.073.163.148.335.213.5.1.245.2.5.278.752C222.99,164.561,220.242,171.431,214.7,173.452Z" transform="translate(-200.041 -149.512)" fill="none" stroke="#263238" stroke-linecap="round" stroke-linejoin="round" stroke-width="2.5"/>
            </g>
            <g id="Group_24210" data-name="Group 24210" transform="translate(36.921 45.884)">
              <path id="Path_19483" data-name="Path 19483" d="M189.045,210.781a52.7,52.7,0,0,1,2.7,12.858" transform="translate(-189.045 -210.781)" fill="none" stroke="#263238" stroke-linecap="round" stroke-linejoin="round" stroke-width="2.5"/>
            </g>
            <path id="Path_19484" data-name="Path 19484" d="M231.635,255.447l-2.062-.155-34.21-4.167-10.05,4.167L167.559,275a22.207,22.207,0,0,0-2.113,14.722c1.636,8.588-4.908,37.217-4.908,37.217s-5.061,3.049-9.148,13.455c-6.009,15.3-3.061,15.418-5.841,20.949s-5.689,10.011-5.689,10.011c0,3.148,6.893,5.285,8.65,6.737,3.511,2.9,5.077,4.869,14.073,5.687s11.606,4.09,11.606,4.09a48.629,48.629,0,0,1,4.64-13.962c4.655-9.393,12.089-21.122,14.426-27.156-2.652,9.93-.229,18.459,2.21,24.351,2.62,6.328.23,18.683.23,18.683s11.944,2.88,21.394.659,13.091,0,13.091,0-.121-41.833.576-60.644,1.777-59.735,1.777-59.735l-.446-7.356Z" transform="translate(-139.774 -175.028)" fill="#e51635"/>
            <path id="Path_19485" data-name="Path 19485" d="M212.875,329.9c-13.819,57.423-17.544,46.07-16.99,50.129-2.554,4.523-5.28,9.339-7.414,13.66a48.448,48.448,0,0,0-4.643,13.959s-1.378-1.73-5.587-2.988a53.907,53.907,0,0,1,4.044-10.971C186.943,384.288,210.538,335.934,212.875,329.9Z" transform="translate(-149.411 -194.809)" fill="#fff"/>
            <path id="Path_19486" data-name="Path 19486" d="M260.7,271.22l-.449-7.354-.449-7.257-2.067-.157-5.707-.694.655.082.933.77.457,7.257.442,7.354s-1.078,40.927-1.775,59.739c-.637,17.112-.592,53.269-.577,59.672,4.374-.127,6.186.974,6.186.974s-.127-41.833.569-60.645S260.7,271.22,260.7,271.22Z" transform="translate(-167.94 -176.191)" fill="#fff"/>
            <path id="Path_19487" data-name="Path 19487" d="M251.33,435.855v.974a7.824,7.824,0,0,0-2.629-.771A25.486,25.486,0,0,1,251.33,435.855Z" transform="translate(-167.104 -221.415)" fill="#ec644e"/>
            <g id="Group_24211" data-name="Group 24211" transform="translate(56.189 19.735)">
              <rect id="Rectangle_2102" data-name="Rectangle 2102" width="57.112" height="60.452" rx="6.936" fill="#fff" stroke="#263238" stroke-linecap="round" stroke-linejoin="round" stroke-width="2.5"/>
              <path id="Rectangle_2103" data-name="Rectangle 2103" d="M1.475,0H50.8a1.475,1.475,0,0,1,1.475,1.475V47.458A1.476,1.476,0,0,1,50.8,48.934H1.476A1.476,1.476,0,0,1,0,47.458V1.475A1.475,1.475,0,0,1,1.475,0Z" transform="translate(53.023 4.089) rotate(90)" fill="none" stroke="#e51635" stroke-linecap="round" stroke-linejoin="round" stroke-width="2.5"/>
              <line id="Line_191" data-name="Line 191" x2="46.901" y2="49.836" transform="translate(5.032 5.194)" fill="none" stroke="#e51635" stroke-linecap="round" stroke-linejoin="round" stroke-width="2.5"/>
              <line id="Line_192" data-name="Line 192" x1="46.901" y2="49.836" transform="translate(5.032 5.194)" fill="none" stroke="#e51635" stroke-linecap="round" stroke-linejoin="round" stroke-width="2.5"/>
            </g>
            <g id="Group_24213" data-name="Group 24213" transform="translate(105.472 24.929)">
              <g id="Group_24212" data-name="Group 24212">
                <path id="Path_19488" data-name="Path 19488" d="M281.243,187.857a4.089,4.089,0,0,1-.261-.427,2.425,2.425,0,0,1-.139-.3c-.037-.1-.076-.2-.109-.316a2.529,2.529,0,0,1-.076-.312,2.486,2.486,0,0,1-.061-.372,2.539,2.539,0,0,1,1.045-2.595,2.383,2.383,0,0,1,.233-.124,9.689,9.689,0,0,1,5.139-.489c.063.007.118.019.181.026.237.031.471.076.7.12.211.044.416.085.619.134l.013,0c.122.028.237.053.35.085.068.016.133.039.2.055a1.638,1.638,0,0,1,.174.046l.039.013c.094.025.186.057.277.088l.052.018c.2.061.4.132.588.2l.065.022a.781.781,0,0,1,.115.048c.085.029.164.056.24.09s.166.072.246.115c.142.056.279.126.409.192.168.088.327.179.472.266a5.1,5.1,0,0,1,.774.576,1.607,1.607,0,0,1,.154.148,2.3,2.3,0,0,1,.252.306,2.275,2.275,0,0,1,.169.315,7.256,7.256,0,0,1,.142,4.367s1.208.44,1.689,3.066c.383,2.064.1,2.9-.09,3.218a10.592,10.592,0,0,1,1.119,1.332,4.619,4.619,0,0,1,.856,2.367.272.272,0,0,1,.006.068c.022.212.03.42.032.626v.065a6.071,6.071,0,0,1-3.079,5.045,5.106,5.106,0,0,1-.987.463l-2.667.979c-.025-.009-.034,0-.039.008l0,.007-1.487.471-.037-1.933.511-3.748s-4.872-2.2-5.767-3.315a.638.638,0,0,1-.079-.109.176.176,0,0,0-.048-.052,5.624,5.624,0,0,1-.553-.792c0-.009-.01-.011-.008-.018l0-.007c-.011-.01-.026-.031-.037-.042a3.325,3.325,0,0,1-.158-.369c-.785-2.043,1.826-2.566,2.191-2.629.016,0,.025-.006.031,0s.018-.008.018-.008a5.805,5.805,0,0,1-1-.316,4.085,4.085,0,0,1-1.945-1.486l-.006-.024a2.616,2.616,0,0,1-.363-.938,2.484,2.484,0,0,1,1.047-2.748,1.6,1.6,0,0,0,.189-.125c-.007,0-.008-.017-.02-.028Z" transform="translate(-280.581 -182.8)" fill="#fcd8c3"/>
                <path id="Path_19489" data-name="Path 19489" d="M291.2,183.348c.122.028.237.053.35.085s.236.06.347.1.233.067.345.1l.052.018c.2.061.4.132.588.2l.065.022a.779.779,0,0,1,.115.048c.085.029.164.056.24.09s.165.072.246.115c.142.056.279.126.409.192.168.088.327.179.472.266a5.1,5.1,0,0,1,.774.576,1.605,1.605,0,0,1,.154.148,2.3,2.3,0,0,1,.252.306,2.273,2.273,0,0,1,.169.315,7.256,7.256,0,0,1,.142,4.367s1.208.44,1.69,3.066c.383,2.064.1,2.9-.09,3.218a10.593,10.593,0,0,1,1.119,1.332,4.62,4.62,0,0,1,.856,2.367.271.271,0,0,1,.006.068c.022.212.03.42.032.626v.065a6.071,6.071,0,0,1-3.079,5.045,5.106,5.106,0,0,1-.987.463l-2.667.979c-.025-.009-.034,0-.039.008l0,.007-1.487.471-.037-1.933,2.632-.891h0a3.376,3.376,0,0,0,1.938-1.346,6.674,6.674,0,0,0,1.135-3.7c0-.022.007-.041.008-.063,0-.206-.011-.413-.032-.626a.239.239,0,0,1-.006-.068,4.728,4.728,0,0,0-.856-2.367,10.538,10.538,0,0,0-1.126-1.334c.189-.315.473-1.153.1-3.216-.482-2.626-1.69-3.066-1.69-3.066a7.257,7.257,0,0,0-.142-4.367A3.942,3.942,0,0,0,291.2,183.348Z" transform="translate(-283.247 -182.938)" fill="#fff"/>
                <path id="Path_19490" data-name="Path 19490" d="M281.642,183.538a2.383,2.383,0,0,1,.233-.124,9.689,9.689,0,0,1,5.139-.489c.063.007.118.019.181.026.237.031.471.076.7.12.211.044.416.085.619.134l.013,0c.122.028.237.053.35.085.068.016.133.039.2.055a1.128,1.128,0,0,1,.146.043.045.045,0,0,1,.028,0l.039.013c.094.025.186.057.277.088l.052.018c.2.061.4.132.588.2l.065.022a.781.781,0,0,1,.115.048c.039.014.076.034.115.047.129.052.25.1.37.157.142.056.279.126.409.192.168.088.327.179.472.266a5.1,5.1,0,0,1,.774.576,1.607,1.607,0,0,1,.154.148,2.3,2.3,0,0,1,.252.306,2.275,2.275,0,0,1,.169.315,7.256,7.256,0,0,1,.142,4.367s1.208.44,1.689,3.066c.383,2.064.1,2.9-.09,3.218a10.592,10.592,0,0,1,1.119,1.332,4.619,4.619,0,0,1,.856,2.367.272.272,0,0,1,.006.068c.022.212.03.42.032.626v.065a6.071,6.071,0,0,1-3.079,5.045,5.106,5.106,0,0,1-.987.463l-2.667.979c-.025-.009-.034,0-.039.008l0,.007-1.487.471-.037-1.933.511-3.748s-4.872-2.2-5.767-3.315a.638.638,0,0,1-.079-.109.176.176,0,0,0-.048-.052,5.624,5.624,0,0,1-.553-.792c0-.009-.01-.011-.008-.018l0-.007c-.011-.01-.026-.031-.037-.042a3.325,3.325,0,0,1-.158-.369c-.785-2.043,1.826-2.566,2.191-2.629.016,0,.025-.006.031,0s.018-.008.018-.008a5.805,5.805,0,0,1-1-.316,4.085,4.085,0,0,1-1.945-1.486l-.006-.024a2.616,2.616,0,0,1-.363-.938,2.484,2.484,0,0,1,1.047-2.748,1.6,1.6,0,0,0,.189-.125l.007,0a.024.024,0,0,0,.015,0s-.017-.013-.041-.029a5.184,5.184,0,0,1-1.332-1.332,4.089,4.089,0,0,1-.261-.427,2.425,2.425,0,0,1-.139-.3c-.037-.1-.076-.2-.109-.316a2.529,2.529,0,0,1-.076-.312,2.486,2.486,0,0,1-.061-.372A2.539,2.539,0,0,1,281.642,183.538Z" transform="translate(-280.581 -182.8)" fill="none" stroke="#263238" stroke-linecap="round" stroke-linejoin="round" stroke-width="2.5"/>
                <path id="Path_19491" data-name="Path 19491" d="M283.294,191.124s3.494-2.173,10.633.947" transform="translate(-281.263 -184.705)" fill="none" stroke="#263238" stroke-linecap="round" stroke-linejoin="round" stroke-width="2.5"/>
                <path id="Path_19492" data-name="Path 19492" d="M286.041,198.816a14.193,14.193,0,0,1,7.463.693" transform="translate(-281.952 -186.761)" fill="none" stroke="#263238" stroke-linecap="round" stroke-linejoin="round" stroke-width="2.5"/>
                <path id="Path_19493" data-name="Path 19493" d="M287.522,198.606c-1.141.224-2.819.173-3.634,1.225-1.208,1.558,1.254,5.268,7.95,6.87" transform="translate(-281.337 -186.769)" fill="none" stroke="#263238" stroke-linecap="round" stroke-linejoin="round" stroke-width="2.5"/>
                <path id="Path_19494" data-name="Path 19494" d="M284.122,202.816c5.868,1.542,6.123-4.094,6.2-3.932" transform="translate(-281.47 -186.838)" fill="none" stroke="#263238" stroke-linecap="round" stroke-linejoin="round" stroke-width="2.5"/>
              </g>
            </g>
            <path id="Path_19495" data-name="Path 19495" d="M218.034,153.25l-.007.008a4.553,4.553,0,0,1-.769.605,8.9,8.9,0,0,1-1.12,1.1,11.086,11.086,0,0,1-5.325,2.429,5.748,5.748,0,0,0-1.562.842,2.685,2.685,0,0,0-.982,2.724,4.52,4.52,0,0,1-3.157,5.4,3.294,3.294,0,0,1-1.546.073,8.486,8.486,0,0,1-1.039-.229,4.185,4.185,0,0,0-1.522-.13H201a.132.132,0,0,0-.016-.041,2.066,2.066,0,0,0-.082-.229l-.123-.343c-.008-.008,0-.025-.008-.033-.041-.115-.073-.237-.106-.352s-.074-.237-.106-.359c-.016-.058-.033-.123-.049-.18-.049-.18-.09-.36-.131-.54a13.961,13.961,0,0,1-.335-3.043c0-.2.008-.392.016-.589a13.938,13.938,0,0,1,.188-1.767c.032-.18.073-.368.115-.548s.082-.376.139-.556c.041-.172.09-.343.139-.507a.137.137,0,0,0,.016-.04c.057-.18.123-.36.188-.54s.131-.352.2-.523.148-.335.221-.5l.008-.008c.082-.172.163-.335.254-.5s.18-.319.27-.475c.1-.172.2-.336.311-.491s.2-.286.3-.425.221-.286.335-.425.229-.278.352-.409c.016-.008.016-.016.033-.033a16.663,16.663,0,0,1,3.369-2.363c.074-.033.148-.065.213-.09a.117.117,0,0,1,.049-.016.3.3,0,0,1,.073-.033.318.318,0,0,1,.074-.032c.016,0,.024-.008.032-.008v-.008c.123-.041.237-.082.36-.115l.147-.049c.025-.007.049-.016.082-.024a3.053,3.053,0,0,1,.4-.1,5.156,5.156,0,0,1,.523-.115c.025-.008.057-.008.09-.016l.3-.049a.157.157,0,0,0,.057-.008c.172-.016.352-.04.523-.049h.016q.331-.025.663-.025a10.222,10.222,0,0,1,5.807,1.873,3.785,3.785,0,0,1,.376.286c.18.131.36.279.54.425.2.164.384.327.565.507.155.148.31.311.466.475A1.124,1.124,0,0,1,218.034,153.25Z" transform="translate(-154.885 -149.512)" fill="#263238" stroke="#263238" stroke-linecap="round" stroke-linejoin="round" stroke-width="2.5"/>
            <path id="Path_19496" data-name="Path 19496" d="M189.378,152.636a64.551,64.551,0,0,1-8.495,6.559c-3.1,2-5.376-3.536-9.356-3.259-5.024.35-3.514,4.206-8.265,6.238-3.621,1.549-4.21-1.871-7.988-.074-4.77,2.269-.276,7.64-6.358,7.64-8.214,0-9.514,11.257-.624,11.257,4.366,0,8.727-3.19,10.136,0,1.949,4.412,7.794,3.093,11.286-.526,3.844-3.983,3.408-3.323,7.288-2.314s5.558-.377,6.9-3.5,3.587-3.049,3.587-3.049Z" transform="translate(-140.354 -150.296)" fill="#263238" stroke="#263238" stroke-linecap="round" stroke-linejoin="round" stroke-width="2.5"/>
          </g>
        </g>
        <path id="Path_19497" data-name="Path 19497" d="M221.55,296.556" transform="translate(-155.33 -186.436)" fill="none" stroke="#263238" stroke-linecap="round" stroke-linejoin="round" stroke-width="2.5"/>
        <path id="Path_19498" data-name="Path 19498" d="M254.417,280.639" transform="translate(-163.584 -182.439)" fill="none" stroke="#263238" stroke-linecap="round" stroke-linejoin="round" stroke-width="2.5"/>
        <path id="Path_19499" data-name="Path 19499" d="M169.344,248.079c-.613.378-9.031,7.407-13.3,5.564,6.326-7.364,10.7-7.776,10.7-7.776Z" transform="translate(-138.88 -173.708)" fill="#263238" stroke="#263238" stroke-linecap="round" stroke-linejoin="round" stroke-width="2.5"/>
        <g id="Group_24216" data-name="Group 24216" transform="translate(62.263 214.753)">
          <path id="Path_19500" data-name="Path 19500" d="M219.289,436.343a9.038,9.038,0,0,0-3.023.589l.133-.65C217.218,436.261,218.178,436.276,219.289,436.343Z" transform="translate(-216.266 -436.273)" fill="#fff"/>
        </g>
        <path id="Path_19501" data-name="Path 19501" d="M206.538,269.113s-1.092,13.377-.055,13.726c16.133,5.415,32.768,2.4,32.783-.231.048-8.5-1.108-19.878-1.7-19.619-5.483,2.4-10.721,3.593-22.07-.166C214.429,265.938,208.908,269.451,206.538,269.113Z" transform="translate(-151.435 -177.965)" fill="none" stroke="#263238" stroke-linecap="round" stroke-linejoin="round" stroke-width="2.5"/>
        <path id="Path_19502" data-name="Path 19502" d="M195.63,278.2c-.229,5.844-6.437,14.068-11.629,11.932" transform="translate(-145.901 -181.827)" fill="none" stroke="#263238" stroke-linecap="round" stroke-linejoin="round" stroke-width="2.5"/>
        <path id="Path_19503" data-name="Path 19503" d="M183.36,291.215c1.329,2.862-5.231,37.606-7.785,43.331s-8.529,6.134-11.88,15.949-6.867,25.29-9.811,29.616" transform="translate(-138.339 -185.095)" fill="#e51635" stroke="#263238" stroke-linecap="round" stroke-linejoin="round" stroke-width="2.5"/>
        <path id="Path_19504" data-name="Path 19504" d="M183.134,258.033l-16.169,18.414a22.2,22.2,0,0,0-2.113,14.722c1.636,8.588-4.908,37.217-4.908,37.217s-7.219,6.941-9.149,13.455c-4.668,15.757-3.06,15.418-5.841,20.949s-5.689,10.011-5.689,10.011c0,3.148,6.893,5.285,8.65,6.737,3.512,2.9,5.077,4.869,14.073,5.687s11.606,4.09,11.606,4.09a48.658,48.658,0,0,1,4.64-13.962c4.656-9.393,12.089-21.122,14.426-27.156-2.652,9.93-.229,18.459,2.21,24.351,2.62,6.328.231,18.683.231,18.683s11.943,2.88,21.394.659,13.091,0,13.091,0-.121-41.833.576-60.644,1.777-59.735,1.777-59.735-.258-11.562-.454-14.613" transform="translate(-134.668 -176.477)" fill="none" stroke="#263238" stroke-linecap="round" stroke-linejoin="round" stroke-width="2.5"/>
        <path id="Path_19505" data-name="Path 19505" d="M220.848,345.322c1.022,6,2.724,17.123,2.724,17.123a37.321,37.321,0,0,0-.983,20.911c2.825,11.4,3.771,19.165,3.707,22.028-.01.461-.018,1.022-.022,1.637" transform="translate(-155.154 -198.682)" fill="#ec644e" stroke="#263238" stroke-linecap="round" stroke-linejoin="round" stroke-width="2.5"/>
        <g id="Group_24217" data-name="Group 24217" transform="translate(27.316 19.735)">
          <path id="Path_19506" data-name="Path 19506" d="M211.182,195.989c-.025.09-.049.18-.065.27-.262,1.176-1.153,11.627-2.086,16.352,0,0-.761,3.646-1.251,5.645-2.134,8.725-5.537,18.042-15.74,19.22a21.241,21.241,0,0,1-7.341-.515,28.243,28.243,0,0,1-3.663-1.148,11.592,11.592,0,0,0-2.634-1.077.044.044,0,0,1-.033-.022,63.881,63.881,0,0,1-8.743-6.027c-.008,0-.016-.007-.024-.022a44.817,44.817,0,0,0,5.43-1.258.164.164,0,0,0,.058-.015.622.622,0,0,0,.106-.037c.049-.022.106-.037.155-.06a14.773,14.773,0,0,0,3.664-2.021c3.852-2.98,7.4-10.025,7.843-10.4l1.873-18.77s-1.177-3.893.867-5.757a9.713,9.713,0,0,1,1.333-1.1c-.2-.292-.458-1.086.073-2.912.7-2.329,2.069-2.606,2.077-2.614.008-.067.091-.367.221-.816.049-.172.115-.359.18-.569.041-.12.082-.247.131-.374a1.517,1.517,0,0,1,.065-.21l.082-.21c.082-.262.188-.539.3-.816.073-.187.147-.374.229-.561.065-.157.13-.315.2-.464a12.991,12.991,0,0,1,1.022-1.857c.09-.142.188-.277.286-.4a3.492,3.492,0,0,1,.262-.321.282.282,0,0,1,.04-.052c.09-.1.18-.195.27-.292a5.917,5.917,0,0,1,.483-.4,1.591,1.591,0,0,1,.188-.127c.049-.03.09-.052.131-.082a2.342,2.342,0,0,1,1.03-.292h.025a1.573,1.573,0,0,1,.768.232,1.314,1.314,0,0,1,.2.157.882.882,0,0,1,.164.187c.04.06.082.12.115.18s.065.135.09.2a1.846,1.846,0,0,1,.065.217,1.96,1.96,0,0,1,.049.232.9.9,0,0,1,.032.209,3.529,3.529,0,0,1,.033.524c-.008.09,0,.18-.008.277,0,.127-.016.262-.025.4-.024.15-.04.307-.065.464a5.783,5.783,0,0,1-.115.629c-.008.037-.016.082-.033.15-.007.037-.016.067-.024.1-.016.1-.041.195-.066.292s-.049.179-.073.269c-.008.015-.008.03-.016.045-.025.082-.041.165-.065.247-.115.4-.229.749-.327,1.019-.049.135-.09.27-.123.389a1.218,1.218,0,0,0-.073.187l-.115.33a1.328,1.328,0,0,0-.049.135.4.4,0,0,0-.032.1.054.054,0,0,0-.008.022c0,.007-.008.015-.008.03-.016.037-.033.067-.041.082a.762.762,0,0,0-.033.112c1.007.186,2.184.741,3.043.6a1.217,1.217,0,0,0,.556-.24c.016-.008.025-.022.04-.03,1.391-1.13,2.978-2.59,4.188-2.516a1.249,1.249,0,0,1,.744.292A14.619,14.619,0,0,1,211.182,195.989Z" transform="translate(-169.601 -175.864)" fill="#fcd8c3"/>
          <path id="Path_19507" data-name="Path 19507" d="M203.9,183.287a.518.518,0,0,1,.037-.112c.007-.015.022-.045.037-.082,0-.015.007-.022.007-.03a.058.058,0,0,1,.007-.022.271.271,0,0,1,.037-.1,1.414,1.414,0,0,1,.045-.135l.112-.33c.03-.067.045-.127.075-.187.037-.12.075-.255.127-.389.1-.27.21-.614.322-1.018.03-.082.045-.165.067-.247.007-.015.007-.03.015-.045.03-.09.045-.18.075-.27s.052-.187.067-.292c.007-.03.015-.06.022-.1.015-.067.022-.112.03-.15a6.2,6.2,0,0,0,.12-.629c.022-.157.037-.315.067-.464.007-.142.022-.277.022-.4.008-.1,0-.187.008-.277a3.878,3.878,0,0,0-.03-.524.945.945,0,0,0-.037-.21,2.127,2.127,0,0,0-.045-.232c-.022-.075-.045-.15-.067-.217a.519.519,0,0,0-.022-.06,2.732,2.732,0,0,1,.225-.2,3.138,3.138,0,0,1,.247-.195,1.645,1.645,0,0,1,.187-.127c.052-.03.09-.052.135-.082a2.307,2.307,0,0,1,1.026-.292h.022a1.564,1.564,0,0,1,.771.232,1.045,1.045,0,0,1,.2.157.759.759,0,0,1,.165.187c.045.06.082.12.12.18l.09.2a1.843,1.843,0,0,1,.06.217,1.164,1.164,0,0,1,.052.232.946.946,0,0,1,.03.21,2.93,2.93,0,0,1,.037.524c-.008.09,0,.18-.008.277,0,.127-.022.262-.03.4s-.037.307-.06.464a6.194,6.194,0,0,1-.12.629c-.007.037-.015.082-.03.15-.007.037-.015.067-.022.1-.022.1-.045.195-.067.292a1.809,1.809,0,0,0-.075.27c-.007.015-.007.03-.015.045l-.067.247c-.112.4-.225.749-.33,1.018-.045.135-.09.27-.12.389a1.394,1.394,0,0,0-.075.187l-.112.33c-.022.045-.03.1-.052.135a.432.432,0,0,0-.03.1.058.058,0,0,0-.007.022c0,.007-.007.015-.007.03a.682.682,0,0,1-.045.082.822.822,0,0,0-.03.112,6.285,6.285,0,0,1,.674.165c-.067.052-.135.112-.2.165-.015.007-.022.022-.037.03a1.219,1.219,0,0,1-.554.24C206.088,184.028,204.912,183.474,203.9,183.287Z" transform="translate(-178.214 -175.864)" fill="#fff"/>
          <path id="Path_19508" data-name="Path 19508" d="M210.743,185.97c2.441.327,4.833,2.812,2.44,3.557s-7.52,1.324-5.481.831S213.222,187.112,210.743,185.97Z" transform="translate(-179.051 -178.402)" fill="#fff"/>
          <path id="Path_19509" data-name="Path 19509" d="M217.462,197.742c-.022.09-.045.18-.06.27-.262,1.176-1.153,11.63-2.089,16.356,0,0-.756,3.647-1.251,5.639-2.134,8.725-5.534,18.048-15.742,19.224a18.512,18.512,0,0,1-3.7.052c.18-.015.352-.03.532-.052,10.207-1.176,13.607-10.5,15.742-19.224.494-1.992,1.251-5.639,1.251-5.639.936-4.726,1.827-15.18,2.089-16.356a1.774,1.774,0,0,1,.067-.27,14.757,14.757,0,0,0-3.655-14.147,3.323,3.323,0,0,1,1.917-.741,1.269,1.269,0,0,1,.749.292A14.6,14.6,0,0,1,217.462,197.742Z" transform="translate(-175.884 -177.618)" fill="#fff"/>
          <path id="Path_19510" data-name="Path 19510" d="M211.369,195.989c-.025.09-.049.18-.065.27-.27,1.168-.434,2.875-.711,5.309a1.124,1.124,0,0,1-.017.157c-.294,2.681-.72,6.229-1.537,10.887l-.025.135c-.294,1.692-.638,3.519-1.047,5.51-1.9,9.211-6.285,18.659-16.916,19.3a25.948,25.948,0,0,1-12.514-2.745,37.082,37.082,0,0,1-4.1-2.552c-.841-.557-1.672-1.131-2.484-1.729-.371-.274-1.94-1.886-2.325-1.848.3-.03.761-.09,1.326-.195a.5.5,0,0,0,.147-.022,23.815,23.815,0,0,0,3.934-1.063.165.165,0,0,0,.058-.015.623.623,0,0,0,.106-.037c.049-.022.106-.037.155-.06a14.773,14.773,0,0,0,3.664-2.021c3.852-2.98,7.4-10.025,7.843-10.4,0,0,.9-4.3.9-4.387l.049-.135.924-14.248s-1.177-3.893.867-5.757a9.713,9.713,0,0,1,1.333-1.1c-.2-.292-.458-1.086.073-2.912.7-2.329,2.069-2.606,2.077-2.614.008-.067.091-.367.221-.816.049-.172.115-.359.18-.569.041-.12.082-.247.131-.374a1.511,1.511,0,0,1,.065-.21l.082-.21c.082-.262.188-.539.3-.816.073-.187.147-.374.229-.561.065-.157.13-.315.2-.464a12.987,12.987,0,0,1,1.022-1.857c.09-.142.188-.277.286-.4a3.5,3.5,0,0,1,.262-.321.283.283,0,0,1,.04-.052c.09-.1.18-.195.27-.292a5.914,5.914,0,0,1,.483-.4,1.588,1.588,0,0,1,.188-.127c.049-.03.09-.052.131-.082a2.342,2.342,0,0,1,1.03-.292h.18a1.593,1.593,0,0,1,.793.232.994.994,0,0,1,.2.157.881.881,0,0,1,.164.187c.04.06.082.12.115.18a.925.925,0,0,1,.065.127c.008.022.017.045.025.075a.359.359,0,0,1,.032.09.586.586,0,0,1,.033.127,4.006,4.006,0,0,1,.082,1.647c-.025.15-.041.307-.066.464-.025.21-.065.419-.115.644-.008.03-.016.067-.032.135a2.218,2.218,0,0,1-.091.389c-.024.074-.04.157-.065.231,0,.015-.008.022-.008.037-.033.1-.057.195-.082.292-.115.4-.229.749-.327,1.019-.049.135-.09.27-.123.389a1.388,1.388,0,0,0-.073.187,1.087,1.087,0,0,0-.065.172.578.578,0,0,0-.049.157.3.3,0,0,0-.049.135.406.406,0,0,0-.033.1.054.054,0,0,0-.008.022.063.063,0,0,1,.032.007.074.074,0,0,1-.04.022c-.016.037-.033.067-.04.082.359.015.727.037,1.087.06a.052.052,0,0,0,.032.007.516.516,0,0,1,.156.022,12.51,12.51,0,0,1,1.775.254c.131.03.254.06.376.1.033.007.066.022.1.03,0-.008.024,0,.04,0,1.333-1.07,2.854-2.486,4.049-2.546a1.285,1.285,0,0,1,.924.292A14.619,14.619,0,0,1,211.369,195.989Z" transform="translate(-169.609 -175.864)" fill="none" stroke="#263238" stroke-linecap="round" stroke-linejoin="round" stroke-width="2.5"/>
          <path id="Path_19511" data-name="Path 19511" d="M200.826,186.166l.006,0a18.674,18.674,0,0,1,3.481-.5c.7-.044,1.407-.06,2.106-.042.365.016.73.032,1.086.059.009,0,.025,0,.034.006a.921.921,0,0,1,.158.019,12.577,12.577,0,0,1,1.776.259,4.444,4.444,0,0,1,.47.123.088.088,0,0,1,.034.006l.006,0c1.718.491,2.72,1.382,2,2.82-.986,1.964-8.286,1.275-11.512,2.309" transform="translate(-177.353 -178.313)" fill="none" stroke="#263238" stroke-linecap="round" stroke-linejoin="round" stroke-width="2.5"/>
          <path id="Path_19512" data-name="Path 19512" d="M209.242,193.072a14.181,14.181,0,0,0-4.558-.68,17.7,17.7,0,0,0-6.609,1" transform="translate(-176.751 -180.013)" fill="none" stroke="#263238" stroke-linecap="round" stroke-linejoin="round" stroke-width="2.5"/>
          <path id="Path_19513" data-name="Path 19513" d="M209.042,192.848l2.076.521c2.165.543,3.6,4.719-4.769,5.755l-3.66.78" transform="translate(-177.91 -180.129)" fill="none" stroke="#263238" stroke-linecap="round" stroke-linejoin="round" stroke-width="2.5"/>
          <path id="Path_19514" data-name="Path 19514" d="M213.254,196.6c-6.62.82-6.805-4.346-6.9-4.207" transform="translate(-178.829 -180.014)" fill="none" stroke="#263238" stroke-linecap="round" stroke-linejoin="round" stroke-width="2.5"/>
          <path id="Path_19515" data-name="Path 19515" d="M213.486,190.962c.175.318,3.091.9,5.627-1.352" transform="translate(-180.621 -179.315)" fill="none" stroke="#263238" stroke-linecap="round" stroke-linejoin="round" stroke-width="2.5"/>
        </g>
        <path id="Path_19516" data-name="Path 19516" d="M210.565,359.68s5.069-14.738,5.781-17.6,9.62-39.456,9.62-39.456" transform="translate(-152.572 -187.96)" fill="#ec644e" stroke="#263238" stroke-linecap="round" stroke-linejoin="round" stroke-width="2.5"/>
      </g>
    </g>
  </g>
</svg>
