<svg xmlns="http://www.w3.org/2000/svg" width="38.414" height="15.072" viewBox="0 0 38.414 15.072">
  <g id="Group_24239" data-name="Group 24239" transform="translate(-52.708 -33.914)">
    <path id="Path_19532" data-name="Path 19532" d="M137.21,78.629H135.8V67.656h3.739a3.372,3.372,0,0,1,2.416.948,3.164,3.164,0,0,1,0,4.642,3.366,3.366,0,0,1-2.416.933H137.21Zm0-9.622v3.827h2.358a1.883,1.883,0,0,0,1.4-.566,1.85,1.85,0,0,0,.565-1.344,1.957,1.957,0,0,0-1.961-1.91H137.21Z" transform="translate(-66.573 -32.941)" fill="#3c4043"/>
    <path id="Path_19533" data-name="Path 19533" d="M164.222,78.328a3.489,3.489,0,0,1,2.468.837,2.971,2.971,0,0,1,.9,2.292v4.627h-1.344V85.042h-.059a2.682,2.682,0,0,1-2.328,1.285,3.024,3.024,0,0,1-2.079-.734,2.346,2.346,0,0,1-.837-1.836,2.217,2.217,0,0,1,.881-1.851,3.7,3.7,0,0,1,2.35-.69,4.108,4.108,0,0,1,2.064.463v-.323a1.6,1.6,0,0,0-.58-1.249,1.991,1.991,0,0,0-1.366-.514,2.142,2.142,0,0,0-1.866,1l-1.241-.779A3.444,3.444,0,0,1,164.222,78.328Zm-1.822,5.45a1.112,1.112,0,0,0,.47.918,1.726,1.726,0,0,0,1.094.367,2.236,2.236,0,0,0,1.586-.661,2.075,2.075,0,0,0,.7-1.55,2.9,2.9,0,0,0-1.836-.521,2.41,2.41,0,0,0-1.432.411A1.255,1.255,0,0,0,162.4,83.778Z" transform="translate(-84.14 -40.397)" fill="#3c4043"/>
    <path id="Path_19534" data-name="Path 19534" d="M191.04,79.133l-4.7,10.812h-1.454l1.748-3.783-3.1-7.029h1.535l2.233,5.391h.03l2.174-5.391Z" transform="translate(-99.918 -40.958)" fill="#3c4043"/>
    <path id="Path_19535" data-name="Path 19535" d="M107.9,83.279a7.434,7.434,0,0,0-.118-1.323H101.87V84.38h3.4a2.917,2.917,0,0,1-1.263,1.952v1.572h2.026A6.159,6.159,0,0,0,107.9,83.279Z" transform="translate(-42.871 -42.931)" fill="#4285f4"/>
    <path id="Path_19536" data-name="Path 19536" d="M90.983,91.855a3.813,3.813,0,0,1-5.673-1.994H83.22v1.622a6.293,6.293,0,0,0,5.623,3.465,6,6,0,0,0,4.167-1.521Z" transform="translate(-29.843 -48.453)" fill="#34a853"/>
    <path id="Path_19537" data-name="Path 19537" d="M83.563,79.322a3.8,3.8,0,0,1,.2-1.2V76.5h-2.09a6.3,6.3,0,0,0,0,5.651l2.09-1.622A3.8,3.8,0,0,1,83.563,79.322Z" transform="translate(-28.292 -39.117)" fill="#fabb05"/>
    <path id="Path_19538" data-name="Path 19538" d="M88.843,67.49a3.419,3.419,0,0,1,2.414.944l1.8-1.794A6.044,6.044,0,0,0,88.843,65a6.294,6.294,0,0,0-5.623,3.465l2.09,1.622A3.764,3.764,0,0,1,88.843,67.49Z" transform="translate(-29.843 -31.086)" fill="#e94235"/>
  </g>
</svg>
