<svg xmlns="http://www.w3.org/2000/svg" width="56" height="56" viewBox="0 0 56 56">
  <g id="Group_23559" data-name="Group 23559" transform="translate(-195 -1452)">
    <g id="Ellipse_942" data-name="Ellipse 942" transform="translate(195 1452)" fill="#fc9" stroke="" stroke-width="1">
      <circle cx="28" cy="28" r="28" stroke="none"/>
      <circle cx="28" cy="28" r="27.5" fill="none"/>
    </g>
    <g id="Group_23821" data-name="Group 23821" transform="translate(-1039.146 163.417)">
      <path id="Path_18038" data-name="Path 18038" d="M1252,1315.95c.052-.378.1-.758.156-1.134a10.138,10.138,0,0,1,14.45-7.344.634.634,0,0,1,.231.175.275.275,0,0,1-.029.364.316.316,0,0,1-.4.068c-.37-.158-.733-.334-1.111-.468a9.5,9.5,0,0,0-12.408,6.809,9.315,9.315,0,0,0,2.377,8.737c.058.063.121.121.184.18.008.007.024.005.05.01a6.6,6.6,0,0,1,2.711-4.831,6.449,6.449,0,0,1,4.175-1.286,6.66,6.66,0,0,1,6.406,6.163c.212-.23.41-.427.588-.64a9.388,9.388,0,0,0,2.261-6.6,9.291,9.291,0,0,0-1.711-5.026c-.034-.049-.07-.1-.1-.146a.315.315,0,0,1,.065-.469.3.3,0,0,1,.447.1c.261.4.534.788.755,1.207a10.134,10.134,0,0,1-4.574,13.914,9.838,9.838,0,0,1-3.591.962,1.954,1.954,0,0,0-.194.034h-1.229c-.248-.03-.5-.057-.743-.092a10.168,10.168,0,0,1-8.611-8.286c-.068-.375-.106-.756-.158-1.134Z" fill="#0e1116"/>
      <path id="Path_18039" data-name="Path 18039" d="M1331.6,1356.644a3.17,3.17,0,1,1,3.162,3.183A3.171,3.171,0,0,1,1331.6,1356.644Z" transform="translate(-72.622 -42.927)" fill="#0e1116"/>
      <path id="Path_18040" data-name="Path 18040" d="M1413.616,1318.259l-1.841-1.84.922-.921.908.939,2.531-2.534.917.919Z" transform="translate(-145.773 -6.812)" fill="#0e1116"/>
    </g>
  </g>
</svg>
