<svg xmlns="http://www.w3.org/2000/svg" width="56" height="56" viewBox="0 0 56 56">
  <g id="Group_23559" data-name="Group 23559" transform="translate(-195 -1451.533)">
    <circle id="Ellipse_942" data-name="Ellipse 942" cx="28" cy="28" r="28" transform="translate(195 1451.533)" fill="#f9dde9"/>
    <g id="Group_23894" data-name="Group 23894" transform="translate(623.208 1389.588)">
      <path id="Path_18315" data-name="Path 18315" d="M-409.075,89.943q0-4.835,0-9.67a2.246,2.246,0,0,1,2.413-2.4h9.5a2.244,2.244,0,0,1,2.394,2.394q0,.978,0,1.956c0,.356-.162.56-.438.566s-.454-.2-.455-.577c0-.68,0-1.36,0-2.04a1.34,1.34,0,0,0-1.406-1.405c-.419,0-.839-.011-1.257.007a.377.377,0,0,0-.268.166c-.223.408-.432.824-.628,1.246a.578.578,0,0,1-.588.373q-2.11-.012-4.219,0a.576.576,0,0,1-.589-.37q-.293-.633-.628-1.246a.377.377,0,0,0-.267-.169c-.446-.017-.894-.015-1.341-.006a1.332,1.332,0,0,0-1.324,1.344c-.008.885,0,1.77,0,2.655q0,8.412,0,16.825a1.365,1.365,0,0,0,1.53,1.533h9.473a1.361,1.361,0,0,0,1.516-1.52q0-1.411,0-2.823c0-.371.171-.581.457-.574s.435.21.436.568c0,.988.005,1.975,0,2.963a2.228,2.228,0,0,1-2.283,2.279q-4.862.007-9.724,0a2.231,2.231,0,0,1-2.3-2.32Q-409.078,94.82-409.075,89.943Zm4.756-11.165c.138.278.253.531.392.769a.3.3,0,0,0,.223.107q1.787.01,3.574,0a.273.273,0,0,0,.207-.088c.14-.248.26-.508.4-.789Z" transform="translate(0 0)" fill="#0e1116"/>
      <path id="Path_18316" data-name="Path 18316" d="M-299.988,156.048a6.306,6.306,0,0,1-5.616,6.218,6.321,6.321,0,0,1-3.519-.645.626.626,0,0,0-.389-.044q-1.4.329-2.789.688a.506.506,0,0,1-.564-.114.5.5,0,0,1-.02-.6c.35-.76.7-1.521,1.031-2.289a.508.508,0,0,0,0-.378,6.263,6.263,0,0,1,4.291-8.963,6.264,6.264,0,0,1,7.442,4.991C-300.062,155.289-300.033,155.67-299.988,156.048Zm-11.753,5.153c.762-.19,1.465-.356,2.162-.544a.9.9,0,0,1,.743.091,4.96,4.96,0,0,0,2.228.656,5.362,5.362,0,0,0,5.655-6.022,5.365,5.365,0,0,0-6.206-4.629,5.364,5.364,0,0,0-3.781,7.93.7.7,0,0,1,.025.707C-311.191,159.969-311.448,160.556-311.741,161.2Z" transform="translate(-88.942 -66.551)" fill="#0e1116"/>
      <path id="Path_18317" data-name="Path 18317" d="M-335.212,365.978c.419,0,.838,0,1.257,0a.451.451,0,0,1,.505.442.449.449,0,0,1-.5.45q-1.285.007-2.57,0a.451.451,0,0,1-.5-.442.448.448,0,0,1,.5-.449C-336.088,365.973-335.65,365.978-335.212,365.978Z" transform="translate(-66.685 -266.642)" fill="#0e1116"/>
      <path id="Path_18318" data-name="Path 18318" d="M-268.834,194.146c0-.58,0-1.119,0-1.658,0-.423.151-.576.566-.578q.768,0,1.536,0c.433,0,.578.151.579.593,0,.538,0,1.075,0,1.642h1.636c.456,0,.6.144.6.6,0,.512,0,1.024,0,1.536,0,.383-.162.542-.545.544-.549,0-1.1,0-1.69,0,0,.173,0,.336,0,.5,0,.419.005.838,0,1.257a.439.439,0,0,1-.468.477q-.865.012-1.731,0a.443.443,0,0,1-.479-.495c-.006-.567,0-1.134,0-1.739h-1.4c-.112,0-.224,0-.335,0a.453.453,0,0,1-.5-.5q-.008-.838,0-1.676a.448.448,0,0,1,.5-.5C-270,194.142-269.433,194.146-268.834,194.146Zm.894-1.329c0,.58,0,1.137,0,1.694,0,.364-.166.523-.531.529-.149,0-.3,0-.446,0h-1.244v.894h1.623c.455,0,.6.144.6.6,0,.537,0,1.073,0,1.616h.894c0-.575,0-1.132,0-1.689,0-.364.165-.522.53-.529.149,0,.3,0,.447,0h1.235v-.894c-.553,0-1.083,0-1.613,0-.455,0-.6-.144-.6-.6,0-.537,0-1.073,0-1.622Z" transform="translate(-127.722 -105.543)" fill="#0e1116"/>
    </g>
  </g>
</svg>
