<svg xmlns="http://www.w3.org/2000/svg" width="70" height="70" viewBox="0 0 70 70">
  <g id="Group_23574" data-name="Group 23574" transform="translate(-195 -1451.533)">
    <circle id="Ellipse_942" data-name="Ellipse 942" cx="35" cy="35" r="35" transform="translate(195 1451.533)" fill="#f6ca94"/>
    <g id="Group_23900" data-name="Group 23900" transform="translate(1047.752 948.471)">
      <path id="Path_18353" data-name="Path 18353" d="M-808.1,540.313v-.239q0-1.9,0-3.808a1.731,1.731,0,0,0-1.12-1.721c-.44-.192-.878-.39-1.317-.586a1.09,1.09,0,0,1-.674-1.031,1.508,1.508,0,0,1,.34-1.13,1.6,1.6,0,0,0,.36-1.162c-.017-.329,0-.66,0-.99a1.377,1.377,0,0,0-1.373-1.369,1.377,1.377,0,0,0-1.383,1.381c0,.38,0,.76,0,1.14a1.435,1.435,0,0,0,.254.85,1.666,1.666,0,0,0,.157.231,1.431,1.431,0,0,1,.261,1.273.978.978,0,0,1-.619.8c-.28.128-.562.25-.863.384.044.053.076.1.113.134a2.407,2.407,0,0,1,.7,1.707c0,.007,0,.014,0,.021.006.611-.164,1.281.6,1.607-.293.479-.55.908-.819,1.33a.307.307,0,0,0-.029.335c.117.245.16.567.346.725a1.978,1.978,0,0,0,.773.221c.23.057.458.119.69.164.121.024.165.071.163.2-.006.617-.008,1.233,0,1.85,0,.141-.052.18-.177.208q-.672.151-1.337.327a.341.341,0,0,0-.193.162,5.21,5.21,0,0,0-.271.654.368.368,0,0,0,.026.27c.256.439.526.87.783,1.289l-1.554,1.542c-.389-.238-.813-.49-1.228-.755a.316.316,0,0,0-.392-.026.119.119,0,0,1-.02.008c-.235.1-.538.151-.687.327a1.87,1.87,0,0,0-.208.733c-.071.291-.14.582-.212.881-.7,0-1.381,0-2.063-.006-.049,0-.125-.082-.14-.138-.118-.45-.217-.905-.338-1.355a.361.361,0,0,0-.176-.207,1.845,1.845,0,0,0-.774-.288c-.242.015-.471.247-.7.387s-.49.3-.725.442l-1.542-1.562c.24-.392.5-.822.766-1.244a.307.307,0,0,0,.027-.335c-.117-.245-.16-.567-.346-.725a1.975,1.975,0,0,0-.773-.221c-.237-.059-.477-.106-.709-.177a.229.229,0,0,1-.135-.164c-.01-.631,0-1.262-.009-1.893,0-.121.048-.156.157-.18.427-.095.85-.2,1.278-.3a.34.34,0,0,0,.3-.253,1.532,1.532,0,0,1,.165-.4.542.542,0,0,0-.054-.662c-.248-.359-.462-.741-.706-1.139.385-.379.77-.753,1.149-1.134a.347.347,0,0,0,.119-.211,2.569,2.569,0,0,1,.833-2.146c-.294-.132-.558-.255-.826-.37a1.1,1.1,0,0,1-.7-1.059,1.5,1.5,0,0,1,.339-1.109,1.607,1.607,0,0,0,.362-1.161c-.017-.329,0-.66,0-.989a1.376,1.376,0,0,0-1.391-1.373,1.377,1.377,0,0,0-1.366,1.377c-.005.38,0,.76,0,1.14a1.448,1.448,0,0,0,.264.869,1.746,1.746,0,0,0,.157.231,1.424,1.424,0,0,1,.247,1.276.973.973,0,0,1-.631.785c-.446.2-.89.4-1.337.593a1.722,1.722,0,0,0-1.113,1.7q0,1.9,0,3.808v.251h-.69v-.228c0-1.276,0-2.553,0-3.829a2.391,2.391,0,0,1,1.5-2.326q.645-.3,1.3-.572a.456.456,0,0,0,.308-.462,1.012,1.012,0,0,0-.212-.695,2.28,2.28,0,0,1-.486-1.587c.024-.443-.015-.893.049-1.33a2.042,2.042,0,0,1,2.165-1.689,2.064,2.064,0,0,1,1.918,1.927c.022.487.014.975,0,1.463a2.409,2.409,0,0,1-.575,1.365.926.926,0,0,0-.075.762c.013.082.129.17.219.213.388.185.782.358,1.179.525a.342.342,0,0,0,.239,0c.4-.166.788-.345,1.182-.518a.415.415,0,0,0,.257-.407,1.029,1.029,0,0,0-.216-.737,2.248,2.248,0,0,1-.48-1.567c.023-.443-.016-.893.047-1.33a2.038,2.038,0,0,1,2.157-1.7,2.062,2.062,0,0,1,1.927,1.917c.025.493.017.99,0,1.484a2.3,2.3,0,0,1-.558,1.326.943.943,0,0,0-.1.78c.013.083.125.175.214.217.394.189.795.366,1.2.535a.343.343,0,0,0,.239-.008c.384-.16.762-.334,1.143-.5a.441.441,0,0,0,.286-.432,1.032,1.032,0,0,0-.223-.735,2.237,2.237,0,0,1-.474-1.547c.021-.443-.018-.894.046-1.33a2.041,2.041,0,0,1,2.191-1.707,2.07,2.07,0,0,1,1.9,1.992c.011.444.006.889,0,1.334a2.3,2.3,0,0,1-.558,1.392.932.932,0,0,0-.1.779c.015.093.145.193.246.241.44.209.891.395,1.334.6a2.384,2.384,0,0,1,1.5,2.308c.007,1.291,0,2.582,0,3.872v.2Zm-14.516-2.341c.222.363.46.738.68,1.123a.381.381,0,0,1,.024.288q-.246.642-.529,1.269a.386.386,0,0,1-.222.189c-.427.117-.859.215-1.29.319v1.085c.435.106.862.2,1.283.318a.413.413,0,0,1,.235.2c.186.411.348.832.528,1.246a.3.3,0,0,1-.029.315c-.238.373-.465.753-.67,1.088l.773.793c.368-.225.744-.462,1.13-.683a.357.357,0,0,1,.27-.023c.428.164.853.339,1.271.527a.411.411,0,0,1,.2.237c.119.425.215.855.319,1.28h1.087c.106-.435.2-.867.32-1.294a.357.357,0,0,1,.173-.209q.648-.289,1.31-.546a.33.33,0,0,1,.251.023c.391.226.773.465,1.138.688l.782-.773c-.228-.372-.468-.754-.695-1.144a.328.328,0,0,1-.02-.251c.169-.434.346-.864.537-1.289a.384.384,0,0,1,.222-.187c.427-.117.859-.214,1.289-.318v-1.09c-.434-.105-.861-.2-1.282-.317a.411.411,0,0,1-.235-.2c-.186-.411-.348-.832-.528-1.246a.3.3,0,0,1,.028-.315c.238-.373.465-.753.672-1.091l-.777-.787c-.364.222-.74.458-1.126.68a.355.355,0,0,1-.27.022c-.428-.165-.853-.339-1.271-.528a.412.412,0,0,1-.2-.236c-.119-.425-.216-.855-.319-1.28h-1.086c-.1.429-.216.85-.306,1.275a.316.316,0,0,1-.221.256c-.413.165-.825.332-1.232.51a.317.317,0,0,1-.335-.031c-.368-.235-.744-.459-1.1-.675Zm8.64-1.424a1.8,1.8,0,0,0-1.193-2.042q-.618-.276-1.238-.55a.984.984,0,0,1-.641-.8,1.433,1.433,0,0,1,.259-1.273.729.729,0,0,0,.165-.25,3.5,3.5,0,0,0,.236-.788,10.362,10.362,0,0,0,.009-1.2,1.376,1.376,0,0,0-1.377-1.364,1.377,1.377,0,0,0-1.379,1.362c-.006.315.015.632-.005.946a1.713,1.713,0,0,0,.391,1.26,1.421,1.421,0,0,1,.311,1.009,1.14,1.14,0,0,1-.745,1.14c-.455.193-.909.39-1.356.6a1.725,1.725,0,0,0-1.019,1.549.559.559,0,0,0,.354.635c.239.11.452.362.687.374a1.852,1.852,0,0,0,.774-.285.388.388,0,0,0,.188-.222c.119-.435.223-.874.321-1.314.028-.125.067-.179.208-.177.617.008,1.235.007,1.852,0,.125,0,.172.04.2.162.1.44.211.877.311,1.316a.3.3,0,0,0,.2.244c.209.075.408.179.618.247a.4.4,0,0,0,.29-.022c.44-.254.87-.525,1.309-.793Z" fill="#0e1116"/>
      <path id="Path_18354" data-name="Path 18354" d="M-793.878,827.163c-.091.185-.17.345-.25.5-.016.031-.037.059-.066.105a10.4,10.4,0,0,1-3.98-3.525l.57-.382A9.812,9.812,0,0,0-793.878,827.163Z" transform="translate(-28.206 -279.252)" fill="#0e1116"/>
      <path id="Path_18355" data-name="Path 18355" d="M-511.3,770.118l-.557-.4a9.7,9.7,0,0,0,1.625-3.651l.669.136A10.162,10.162,0,0,1-511.3,770.118Z" transform="translate(-298.068 -224.772)" fill="#0e1116"/>
      <path id="Path_18356" data-name="Path 18356" d="M-797.82,677.548h.664v4.1h-.664Z" transform="translate(-28.539 -141.344)" fill="#0e1116"/>
      <path id="Path_18357" data-name="Path 18357" d="M-509.148,681.662h-.663v-4.111h.663Z" transform="translate(-299.999 -141.346)" fill="#0e1116"/>
      <path id="Path_18358" data-name="Path 18358" d="M-537.646,843.17l-.431-.5,1.007-1,.5.43Z" transform="translate(-273.357 -296.032)" fill="#0e1116"/>
      <path id="Path_18359" data-name="Path 18359" d="M-571.49,870.311l.386.57-1.17.686-.31-.612Z" transform="translate(-240.833 -323.03)" fill="#0e1116"/>
      <path id="Path_18360" data-name="Path 18360" d="M-813.728,796.01l-.6.333-.517-1.065.637-.264Z" transform="translate(-12.493 -252.061)" fill="#0e1116"/>
      <path id="Path_18361" data-name="Path 18361" d="M-823.692,766.1l.267.993-.651.214-.289-1.067Z" transform="translate(-3.52 -224.807)" fill="#0e1116"/>
      <path id="Path_18362" data-name="Path 18362" d="M-716.234,714.9a3.791,3.791,0,0,1-3.811-3.794,3.793,3.793,0,0,1,3.806-3.778,3.8,3.8,0,0,1,3.779,3.763A3.794,3.794,0,0,1-716.234,714.9Zm-3.121-3.8a3.105,3.105,0,0,0,3.1,3.108,3.109,3.109,0,0,0,3.1-3.067,3.106,3.106,0,0,0-3.061-3.129A3.1,3.1,0,0,0-719.355,711.108Z" transform="translate(-101.845 -169.416)" fill="#0e1116"/>
      <path id="Path_18363" data-name="Path 18363" d="M-694.42,734.99h-1.359v-2.061h1.358v-1.364h2.072v1.356h1.367v2.068h-1.358v1.364h-2.079Zm1.389-.7h1.36V733.6h-1.373v-1.35h-.693v1.371h-1.352v.691h1.373v1.35h.685Z" transform="translate(-124.717 -192.257)" fill="#0e1116"/>
    </g>
  </g>
</svg>
