<svg xmlns="http://www.w3.org/2000/svg" width="56" height="56" viewBox="0 0 56 56">
  <g id="Group_23559" data-name="Group 23559" transform="translate(-195 -1451.533)">
    <circle id="Ellipse_942" data-name="Ellipse 942" cx="28" cy="28" r="28" transform="translate(195 1451.533)" fill="#cdbcb5"/>
    <g id="Group_23895" data-name="Group 23895" transform="translate(1006.011 1247.643)">
      <path id="Path_18320" data-name="Path 18320" d="M-775.281,242.116c-.378-.234-.758-.464-1.132-.7a3.447,3.447,0,0,1-.964-.916.32.32,0,0,0-.231-.1c-.792-.007-1.585,0-2.377,0q-4.524,0-9.049,0a.92.92,0,0,1-.383-.076c-.173-.082-.183-.259-.183-.432q0-1.648,0-3.3,0-1.907,0-3.814c0-.314.132-.476.381-.483a.37.37,0,0,1,.4.314,1.518,1.518,0,0,1,.018.278q0,3.215,0,6.43v.269h10.964a2.153,2.153,0,0,1-.076-.3c-.035-.336-.077-.674-.086-1.011-.014-.539,0-1.078,0-1.618a.42.42,0,0,1,.373-.483c.639-.181,1.278-.365,1.919-.542.1-.029.153-.066.153-.186q-.005-6.45,0-12.9a.462.462,0,0,0-.008-.055H-788.8v.254q0,3.125,0,6.251a1.332,1.332,0,0,1-.024.3.383.383,0,0,1-.4.291.387.387,0,0,1-.364-.337,1.639,1.639,0,0,1-.008-.219q0-3.395,0-6.79c0-.45.114-.561.569-.561h13.7c.455,0,.567.111.567.564q0,6.55,0,13.1a.272.272,0,0,0,.247.319c.611.159,1.217.338,1.823.512.3.087.381.189.381.5,0,.646.017,1.292-.008,1.937a3.423,3.423,0,0,1-1.666,2.882c-.346.223-.7.427-1.056.64Zm2.221-4.221-.05-.006c0-.286-.006-.572,0-.858a.175.175,0,0,0-.157-.205c-.59-.16-1.176-.334-1.765-.494a.536.536,0,0,0-.27,0c-.576.158-1.149.329-1.726.485-.131.035-.181.084-.178.227.01.485,0,.971,0,1.457a2.719,2.719,0,0,0,.6,1.677,4.549,4.549,0,0,0,1.386,1.024.218.218,0,0,0,.176-.026c.231-.132.459-.269.682-.413a2.449,2.449,0,0,0,1.114-1.478A12.02,12.02,0,0,0-773.06,237.895Z" transform="translate(0 0)" fill="#0e1116"/>
      <path id="Path_18321" data-name="Path 18321" d="M-736.377,456.281a1.719,1.719,0,0,1-1.72,1.707,1.733,1.733,0,0,1-1.718-1.695,1.7,1.7,0,0,1,1.726-1.736A1.684,1.684,0,0,1-736.377,456.281Zm-1.7-.932a.922.922,0,0,0-.935.9.914.914,0,0,0,.91.94.9.9,0,0,0,.929-.915A.91.91,0,0,0-738.081,455.349Z" transform="translate(-47.128 -220.467)" fill="#0e1116"/>
      <path id="Path_18322" data-name="Path 18322" d="M-736.377,365.079a1.712,1.712,0,0,1-1.723,1.7,1.725,1.725,0,0,1-1.715-1.694,1.7,1.7,0,0,1,1.729-1.734A1.687,1.687,0,0,1-736.377,365.079Zm-.8-.006a.917.917,0,0,0-.9-.932.928.928,0,0,0-.943.89.909.909,0,0,0,.9.946A.9.9,0,0,0-737.177,365.073Z" transform="translate(-47.127 -134.126)" fill="#0e1116"/>
      <path id="Path_18323" data-name="Path 18323" d="M-736.375,273.96a1.707,1.707,0,0,1-1.677,1.724A1.722,1.722,0,0,1-739.813,274a1.686,1.686,0,0,1,1.7-1.735A1.676,1.676,0,0,1-736.375,273.96Zm-1.713.921a.89.89,0,0,0,.914-.924.919.919,0,0,0-.919-.911.934.934,0,0,0-.92.915A.9.9,0,0,0-738.089,274.881Z" transform="translate(-47.129 -47.898)" fill="#0e1116"/>
      <path id="Path_18324" data-name="Path 18324" d="M-645.6,283.12c-.632,0-1.264,0-1.9,0a.385.385,0,0,1-.427-.416c.009-.236.169-.378.446-.38.486,0,.972,0,1.457,0,.765,0,1.531,0,2.3,0a.407.407,0,0,1,.44.272.4.4,0,0,1-.419.525C-644.339,283.122-644.971,283.12-645.6,283.12Z" transform="translate(-134.113 -57.419)" fill="#0e1116"/>
      <path id="Path_18325" data-name="Path 18325" d="M-645.636,371.421q.928,0,1.857,0c.3,0,.472.141.477.389s-.168.409-.478.409q-1.857,0-3.713,0c-.267,0-.425-.114-.46-.32a.4.4,0,0,1,.441-.477C-646.887,371.419-646.261,371.421-645.636,371.421Z" transform="translate(-134.081 -141.766)" fill="#0e1116"/>
      <path id="Path_18326" data-name="Path 18326" d="M-645.576,460.486c.625,0,1.251,0,1.877,0a.394.394,0,0,1,.422.508c-.049.193-.2.289-.465.29h-3.434c-.106,0-.213,0-.319,0a.389.389,0,0,1-.425-.4.384.384,0,0,1,.428-.4C-646.854,460.484-646.215,460.486-645.576,460.486Z" transform="translate(-134.12 -226.079)" fill="#0e1116"/>
      <path id="Path_18327" data-name="Path 18327" d="M-646.488,405.175c-.332,0-.665,0-1,0a.386.386,0,0,1-.437-.386.387.387,0,0,1,.434-.411q1.017-.007,2.034,0a.386.386,0,0,1,.427.4.383.383,0,0,1-.425.4C-645.8,405.178-646.142,405.175-646.488,405.175Z" transform="translate(-134.118 -172.962)" fill="#0e1116"/>
      <path id="Path_18328" data-name="Path 18328" d="M-646.475,494.243c-.332,0-.665,0-1,0-.284,0-.447-.148-.448-.394a.389.389,0,0,1,.443-.4q1.007-.005,2.014,0a.39.39,0,0,1,.439.407c0,.245-.168.388-.453.39C-645.81,494.245-646.143,494.243-646.475,494.243Z" transform="translate(-134.119 -257.278)" fill="#0e1116"/>
      <path id="Path_18329" data-name="Path 18329" d="M-646.481,316.122c-.332,0-.665,0-1,0-.282,0-.443-.154-.441-.4s.163-.394.449-.4q1-.005,1.994,0c.285,0,.449.15.452.394s-.161.4-.46.4C-645.816,316.124-646.149,316.122-646.481,316.122Z" transform="translate(-134.12 -88.66)" fill="#0e1116"/>
      <path id="Path_18330" data-name="Path 18330" d="M-789.509,388.4a.387.387,0,0,1,.4-.385.4.4,0,0,1,.393.4.407.407,0,0,1-.415.4A.391.391,0,0,1-789.509,388.4Z" transform="translate(-0.084 -157.478)" fill="#0e1116"/>
      <path id="Path_18331" data-name="Path 18331" d="M-538.879,520.5c.286-.287.547-.552.811-.813a.414.414,0,0,1,.615-.06c.181.176.161.411-.057.63q-.507.51-1.017,1.017a.419.419,0,0,1-.689,0c-.156-.154-.314-.308-.466-.466a.4.4,0,0,1-.025-.587.405.405,0,0,1,.588.024C-539.041,520.316-538.973,520.4-538.879,520.5Z" transform="translate(-236.447 -281.96)" fill="#0e1116"/>
    </g>
  </g>
</svg>
