<svg xmlns="http://www.w3.org/2000/svg" width="70" height="70" viewBox="0 0 70 70">
  <g id="Group_23574" data-name="Group 23574" transform="translate(-195 -1451.533)">
    <circle id="Ellipse_942" data-name="Ellipse 942" cx="35" cy="35" r="35" transform="translate(195 1451.533)" fill="#f09ea7"/>
    <g id="Group_23899" data-name="Group 23899" transform="translate(995.351 1343.809)">
      <path id="Path_18350" data-name="Path 18350" d="M-768.744,319.554l-3.3-3.288c-.284-.284-.569-.567-.851-.853-.18-.183-.2-.385-.048-.529s.336-.133.527.057q1.807,1.805,3.611,3.613c.057.057.116.111.158.151l1.515-1.513L-773,311.339l-1.519,1.52.825.8c.059.057.118.113.172.175a.341.341,0,0,1,.011.481.326.326,0,0,1-.478,0c-.159-.145-.307-.3-.459-.455-.252-.252-.507-.5-.756-.758a.339.339,0,0,1,0-.56q.958-.966,1.924-1.925a.347.347,0,0,1,.561,0c.1.1.188.228.306.373.254-.266.455-.483.664-.693.234-.235.388-.233.625.006.188.189.366.386.555.586.217-.291.4-.556.6-.8a4.883,4.883,0,0,1,2.79-1.8,4.177,4.177,0,0,1,2.512.268,4.454,4.454,0,0,0,2.057.342c.193-.012.387.008.58,0a1.35,1.35,0,0,1,1.523.913l1.923-1.108c.785-.453,1.567-.91,2.355-1.359a1.162,1.162,0,0,1,1.268.022,1.151,1.151,0,0,1,.584,1.082,1.4,1.4,0,0,1-.623,1.035q-1.223.952-2.442,1.909c-1.013.792-2.032,1.577-3.037,2.379a2.84,2.84,0,0,1-1.9.649c-.394-.009-.788,0-1.182,0-.262,0-.409-.128-.408-.34s.145-.327.412-.331c.528-.008,1.056,0,1.582-.026a1.639,1.639,0,0,0,.938-.377q2.831-2.209,5.658-4.422a.584.584,0,0,0,.269-.675.558.558,0,0,0-.854-.283q-1.642.945-3.281,1.894c-.264.152-.527.306-.791.457a1.925,1.925,0,0,0-.742.609,1.016,1.016,0,0,1-.887.436q-2.03.009-4.06,0a.339.339,0,0,1-.377-.326.347.347,0,0,1,.385-.343c.625-.006,1.249,0,1.874,0,.692,0,1.383,0,2.075,0,.407,0,.637-.2.635-.529a.587.587,0,0,0-.647-.587c-.632-.006-1.264,0-1.9-.006a1.532,1.532,0,0,1-.43-.085c-.558-.177-1.1-.409-1.672-.533a3.225,3.225,0,0,0-2.51.513,5.584,5.584,0,0,0-1.756,1.905c.036.043.067.084.1.12.709.71,1.417,1.423,2.133,2.126a.49.49,0,0,0,.307.127c.766.011,1.532.005,2.3.006.284,0,.434.118.433.333s-.155.337-.434.338c-.58,0-1.159,0-1.8,0,.149.152.263.27.379.385.5.5.5.51-.008,1.02-.141.141-.285.281-.466.459.224.211.438.4.643.6.249.245.249.4.008.642q-.921.924-1.846,1.845a2.775,2.775,0,0,1-.224.182Zm1.641-4.229-4.358-4.361-.416.415,4.355,4.363Z" transform="translate(0 -164.983)" fill="#0e1116"/>
      <path id="Path_18351" data-name="Path 18351" d="M-651.861,141.422c.641-.646,1.226-1.237,1.814-1.826.919-.921,1.849-1.832,2.76-2.76a2.591,2.591,0,0,0-.748-4.2,2.59,2.59,0,0,0-3.408,1.226,1.725,1.725,0,0,1-.109.219.327.327,0,0,1-.546.009,1.461,1.461,0,0,1-.1-.2,2.492,2.492,0,0,0-2.4-1.483,2.444,2.444,0,0,0-2.314,1.539,2.425,2.425,0,0,0,.432,2.76c.569.636,1.2,1.218,1.8,1.824a1.264,1.264,0,0,1,.165.181.311.311,0,0,1-.04.425.32.32,0,0,1-.41.042.237.237,0,0,1-.054-.039c-.7-.709-1.45-1.375-2.088-2.136a3.221,3.221,0,0,1,.549-4.587,3.265,3.265,0,0,1,4.58.563c.045.058.091.114.113.141a9.294,9.294,0,0,1,.927-.831,3.247,3.247,0,0,1,4.3.572,3.241,3.241,0,0,1-.085,4.352c-.647.687-1.331,1.34-2,2.007l-2.779,2.774c-.3.3-.36.3-.651.008q-.885-.882-1.769-1.764a.361.361,0,0,1-.108-.475c.117-.2.368-.214.567-.018q.73.721,1.452,1.45A1.4,1.4,0,0,1-651.861,141.422Z" transform="translate(-110.524)" fill="#0e1116"/>
      <path id="Path_18352" data-name="Path 18352" d="M-593.392,181.825c0,.335,0,.645,0,.955s-.116.431-.429.433q-.613,0-1.226,0c-.288,0-.4-.117-.405-.407,0-.318,0-.636,0-.98-.325,0-.627,0-.93,0-.356,0-.466-.11-.468-.466,0-.394,0-.788,0-1.182,0-.308.112-.412.421-.415s.623,0,.975,0c0-.153,0-.29,0-.428,0-1.021-.085-.979.983-.971.223,0,.446,0,.669,0,.287.006.407.125.41.409,0,.319,0,.638,0,.988h.922c.368,0,.466.1.467.457,0,.4,0,.8,0,1.2,0,.273-.122.4-.393.4C-592.716,181.829-593.036,181.825-593.392,181.825Zm-1.39-2.774c0,.284,0,.55,0,.817,0,.489-.079.566-.571.567h-.807v.719h.882c.4,0,.5.092.5.5,0,.293,0,.587,0,.878h.719c0-.329,0-.646,0-.964s.111-.411.419-.413.634,0,.953,0v-.72c-.312,0-.608,0-.9,0-.363,0-.467-.105-.468-.462,0-.3,0-.605,0-.921Z" transform="translate(-167.858 -43.856)" fill="#0e1116"/>
    </g>
  </g>
</svg>
