<svg xmlns="http://www.w3.org/2000/svg" width="56" height="56" viewBox="0 0 56 56">
  <g id="Group_23559" data-name="Group 23559" transform="translate(-195 -1451.533)">
    <circle id="Ellipse_942" data-name="Ellipse 942" cx="28" cy="28" r="28" transform="translate(195 1451.533)" fill="#bdded5"/>
    <path id="Path_18319" data-name="Path 18319" d="M-410.836,115.259a1.6,1.6,0,0,1-1.919.357,1.5,1.5,0,0,1-.9-1.476,1.608,1.608,0,0,1,1.268-1.565v-5.433a1.606,1.606,0,0,1-1.267-1.528,1.527,1.527,0,0,1,.848-1.487,1.657,1.657,0,0,1,1.977.33q2.292-1.323,4.59-2.646c.117-.067.1-.141.078-.244a1.62,1.62,0,0,1,1.177-1.9,1.59,1.59,0,0,1,1.93,1.073,2.894,2.894,0,0,1,.041.849c0,.1,0,.164.1.219q2.27,1.305,4.537,2.616a.589.589,0,0,0,.061.026,1.592,1.592,0,0,1,1.91-.351,1.5,1.5,0,0,1,.9,1.475,1.608,1.608,0,0,1-1.268,1.565v5.433a1.6,1.6,0,0,1,1.267,1.549,1.5,1.5,0,0,1-.906,1.492,1.594,1.594,0,0,1-1.907-.357c-.055.03-.115.06-.174.094q-2.186,1.262-4.373,2.521a.227.227,0,0,0-.13.3,1.6,1.6,0,0,1-.685,1.65,1.605,1.605,0,0,1-1.8-.005,1.617,1.617,0,0,1-.679-1.654c.022-.109.047-.187-.081-.26C-407.773,117.029-409.3,116.148-410.836,115.259Zm7.945-3.258c.586,0,1.139.005,1.693,0a1.6,1.6,0,0,0,1.624-1.545,1.6,1.6,0,0,0-1.511-1.634c-.338-.03-.395-.085-.433-.414a1.113,1.113,0,0,0-1.341-1.028.493.493,0,0,1-.561-.245,2.3,2.3,0,0,0-2.936-.743,2.26,2.26,0,0,0-1.3,2c-.019.312-.1.4-.417.432-.049,0-.1.012-.146.019a1.589,1.589,0,0,0-1.371,1.568,1.56,1.56,0,0,0,1.349,1.559,12.819,12.819,0,0,0,1.3.034c.215,0,.43,0,.666,0,0-.1,0-.179,0-.254,0-.365,0-.73,0-1.1a.322.322,0,0,1,.323-.341.332.332,0,0,1,.345.325c.008.076,0,.154,0,.232,0,.37,0,.74,0,1.121h.679v-.241q0-1.011,0-2.022c0-.271.121-.416.336-.416s.336.146.337.416q0,1.021,0,2.043v.221h.679c0-.087,0-.163,0-.238q0-1.579,0-3.159c0-.056,0-.113,0-.168a.35.35,0,0,1,.334-.363.338.338,0,0,1,.337.375q0,1.643,0,3.285Zm-1.353.674c0,1.393,0,2.753,0,4.114a.192.192,0,0,0,.092.133c.261.143.526.277.79.414,0,.041.018.038.035.028q2.277-1.312,4.551-2.63a.27.27,0,0,0,.08-.2c.007-.229-.024-.461,0-.687a.233.233,0,0,0-.138-.279c-.459-.257-.916-.516-1.365-.789a.859.859,0,0,0-.666-.141,4.23,4.23,0,0,1-.817.037C-402.523,112.678-403.371,112.675-404.244,112.675Zm-1.59,4.692a7.677,7.677,0,0,1,.744-.413c.135-.057.176-.109.176-.25-.005-1.277,0-2.554,0-3.831,0-.061-.007-.122-.012-.2h-.241c-.9,0-1.81,0-2.715,0-.2,0-.39-.042-.585-.049a.586.586,0,0,0-.293.048c-.533.3-1.056.609-1.588.907-.122.068-.132.14-.119.268a2.751,2.751,0,0,1,0,.645.229.229,0,0,0,.133.279c1.041.593,2.078,1.194,3.116,1.793Zm1.59-14.489c0,.864,0,1.769.006,2.674a.249.249,0,0,0,.132.171,2.828,2.828,0,0,1,1,.725.5.5,0,0,0,.508.234,1.04,1.04,0,0,1,.393.052,1.819,1.819,0,0,1,1.059.73.218.218,0,0,0,.056-.01c.777-.447,1.556-.893,2.328-1.349.048-.029.071-.133.073-.2.008-.229-.016-.46.006-.687a.222.222,0,0,0-.127-.262q-2.2-1.26-4.39-2.53c-.058-.034-.12-.062-.128-.066Zm-1.591-.525c.031-.012.017-.009.005,0q-2.277,1.313-4.556,2.624c-.1.059-.1.123-.09.221a3.742,3.742,0,0,1,0,.667c-.015.139,0,.212.128.284.659.372,1.313.755,1.969,1.133.072.041.146.079.222.12a3.069,3.069,0,0,1,3.225-1.92v-2.608Zm8.37,4.848c-.282-.181-.53-.346-.785-.5a.233.233,0,0,0-.2,0c-.78.444-1.556.895-2.334,1.343a.866.866,0,0,1-.13.05,2.365,2.365,0,0,1,1.929,1.74,2.244,2.244,0,0,1-.817,2.389c.472.273.92.535,1.372.788a.211.211,0,0,0,.178-.006c.255-.152.5-.316.784-.5Zm-14.231,0v5.333l.9.528,1.436-.831a2.239,2.239,0,0,1-.82-2.4,2.264,2.264,0,0,1,1.876-1.685c-.031-.044-.039-.068-.056-.077q-1.2-.7-2.4-1.388a.2.2,0,0,0-.159.028C-411.172,106.863-411.416,107.022-411.7,107.2Zm.588,6.967a.937.937,0,0,0-.932-.936.944.944,0,0,0-.948.945.952.952,0,0,0,.936.941A.945.945,0,0,0-411.107,114.166Zm13.052.01a.944.944,0,0,0,.934.939.951.951,0,0,0,.947-.951.943.943,0,0,0-.938-.935A.935.935,0,0,0-398.055,114.177Zm-13.052-8.629a.944.944,0,0,0-.935-.943.952.952,0,0,0-.946.936.944.944,0,0,0,.949.949A.937.937,0,0,0-411.107,105.548Zm13.985.942a.943.943,0,0,0,.948-.93.95.95,0,0,0-.947-.955.943.943,0,0,0-.933.944A.936.936,0,0,0-397.122,106.49Zm-6.521,12a.943.943,0,0,0-.939-.954.942.942,0,0,0-.937.936.937.937,0,0,0,.939.952A.937.937,0,0,0-403.643,118.49Zm0-17.246a.937.937,0,0,0-.923-.948.937.937,0,0,0-.954.937.943.943,0,0,0,.943.95A.944.944,0,0,0-403.643,101.244Z" transform="translate(627.656 1369.912)" fill="#0e1116"/>
  </g>
</svg>
