<svg xmlns="http://www.w3.org/2000/svg" width="56" height="56" viewBox="0 0 56 56">
  <g id="Group_23559" data-name="Group 23559" transform="translate(-195 -1451.533)">
    <circle id="Ellipse_942" data-name="Ellipse 942" cx="28" cy="28" r="28" transform="translate(195 1451.533)" fill="#ea949d"/>
    <g id="Group_23897" data-name="Group 23897" transform="translate(942.123 1319.836)">
      <path id="Path_18339" data-name="Path 18339" d="M-725.07,160.3c-.192.04-.4.094-.612.124a2.966,2.966,0,0,1-2.966-1.409.486.486,0,0,1-.031-.4.46.46,0,0,1,.347-.164c.516-.018,1.033-.007,1.576-.007v-2.017c-.508,0-1,0-1.484,0-.178,0-.36.012-.459-.177s0-.349.106-.5a3.025,3.025,0,0,1,3.769-1.063l.259.119-.63-1.047c-.335-.556-.335-.556.126-1.017l1.545-1.544c.221-.221.315-.234.589-.071.553.329,1.1.663,1.656.993.243.145.354.1.422-.169.162-.637.319-1.275.48-1.912.067-.264.157-.333.427-.333q1.26,0,2.52,0c.27,0,.36.07.427.334.161.637.319,1.275.48,1.912.068.269.182.314.424.17q.828-.5,1.655-.994c.266-.16.368-.149.589.071q.869.868,1.737,1.738c.22.221.232.319.071.59-.243.408-.487.816-.764,1.277l.259-.118a3.02,3.02,0,0,1,3.789,1.1.428.428,0,0,1,.078.468c-.091.168-.253.174-.42.173-.5,0-.993,0-1.521,0v2.017h1.119c.161,0,.322,0,.483,0a.342.342,0,0,1,.3.563,2.966,2.966,0,0,1-1.6,1.288,2.988,2.988,0,0,1-1.858.033c-.072.424-.136.837-.212,1.248a18.048,18.048,0,0,1-.4,2.013,5.679,5.679,0,0,1-1.728,2.587.384.384,0,0,0-.141.324c.006.763,0,1.527,0,2.29a1.014,1.014,0,0,1-1.092,1.085q-2.94,0-5.88,0a1.017,1.017,0,0,1-1.093-1.105c0-.805,0-1.611,0-2.416a.348.348,0,0,0-.068-.226,6.7,6.7,0,0,1-1.847-3.535c-.1-.527-.271-1.042-.382-1.569A4.768,4.768,0,0,1-725.07,160.3Zm3.358.5h.245c.707,0,1.414.006,2.121,0a1.681,1.681,0,0,0,1.656-1.514c.039-.369-.079-.5-.453-.5-1.428,0-2.857.02-4.284-.009a2.005,2.005,0,0,0-1.85,1.33,1.422,1.422,0,0,0-.105.694c.2.914.424,1.826.687,2.724a5.246,5.246,0,0,0,1.416,2.154.742.742,0,0,1,.232.576c-.011.833,0,1.667,0,2.5,0,.344.108.452.451.452h5.817c.344,0,.452-.108.452-.451,0-.84-.007-1.681.008-2.521a.647.647,0,0,1,.171-.377c.223-.25.489-.462.708-.715a4.7,4.7,0,0,0,1.116-2.09c.21-1,.338-2.014.521-3.019a.647.647,0,0,0-.206-.624.937.937,0,0,1-.682.667,2.078,2.078,0,0,1-1.627-.183,2.462,2.462,0,0,1-1.873.136,2.373,2.373,0,0,1-.862,1.048,2.541,2.541,0,0,1-1.339.409,3.318,3.318,0,0,1,1.04,3.427l-.637-.151c.022-.257.054-.485.06-.715a2.364,2.364,0,0,0-1.16-2.229c-.137-.085-.267-.182-.41-.254a.786.786,0,0,0-.312-.086c-.3-.011-.6,0-.9,0Zm7.511-9a.248.248,0,0,0-.063.01c-.493.293-1,.567-1.474.886a.921.921,0,0,1-1.452-.605c-.106-.574-.277-1.137-.42-1.7h-2.155a.617.617,0,0,0-.024.064q-.209.834-.417,1.669a.886.886,0,0,1-1.407.585c-.469-.28-.935-.563-1.406-.838-.053-.031-.164-.048-.2-.017-.491.477-.974.964-1.467,1.457.312.521.611,1.034.923,1.539a1.035,1.035,0,0,1,.153.721.489.489,0,0,0,.044.212.455.455,0,0,0,.564.319,2.155,2.155,0,0,1,.461,0,.232.232,0,0,0,.256-.153,4.017,4.017,0,0,1,6.123-1.3.593.593,0,0,0,.176.1c.221.073.445.137.676.208a1.74,1.74,0,0,1,.491-.184c.353-.026.711.009,1.066.009a.268.268,0,0,0,.2-.071c.268-.426.526-.859.779-1.295a.19.19,0,0,0-.009-.176C-713.252,152.741-713.732,152.262-714.2,151.79Zm-13.525,7.32a2.288,2.288,0,0,0,1.513.665,2.325,2.325,0,0,0,2.249-1.357.526.526,0,0,1,.523-.32c.5.015,1.008,0,1.512,0,.067,0,.134-.006.2-.009v-1.335c-.584,0-1.151-.011-1.717,0a.487.487,0,0,1-.514-.332,2.337,2.337,0,0,0-3.55-.866c-.062.047-.117.1-.211.185.442,0,.826,0,1.211,0,.314,0,.428.115.428.432q0,1.25,0,2.5c0,.314-.116.428-.432.429C-726.9,159.111-727.286,159.11-727.726,159.11Zm18.058-3.362a2.329,2.329,0,0,0-3.211-.045.4.4,0,0,0-.1.255c-.007.77-.009,1.54,0,2.309a.563.563,0,0,0,.126.282c.238.334.483.663.73.99a.4.4,0,0,0,.176.148,2.175,2.175,0,0,0,1.14.039,2.264,2.264,0,0,0,1.134-.617c-.436,0-.825,0-1.215,0-.3,0-.416-.12-.417-.422q0-1.26,0-2.519c0-.3.118-.418.419-.419C-710.49,155.747-710.1,155.748-709.668,155.748Zm-6,1.68c0-.539,0-1.079,0-1.618,0-.274-.124-.395-.4-.4-.2,0-.392-.005-.588,0a.329.329,0,0,0-.354.356q-.005,1.66,0,3.319a.329.329,0,0,0,.355.355c.189.006.378,0,.567,0,.3,0,.418-.119.419-.421C-715.666,158.493-715.668,157.961-715.668,157.429Zm2.016.01c0-.546,0-1.092,0-1.639a.343.343,0,0,0-.388-.387c-.2,0-.406-.006-.609,0a.324.324,0,0,0-.343.345q-.006,1.67,0,3.34a.325.325,0,0,0,.345.344c.2.007.392,0,.588,0,.287,0,.407-.122.408-.41C-713.65,158.5-713.651,157.971-713.651,157.439Zm-4.043.675c-.006.011.006,0,.006-.013,0-.784.006-1.567,0-2.351a.325.325,0,0,0-.353-.336c-.189-.006-.378,0-.567,0-.3,0-.421.117-.421.418q0,1.06,0,2.12c0,.046.009.093.016.163Zm-2.007-.021c0-.793,0-1.568,0-2.342a.325.325,0,0,0-.351-.337c-.174-.006-.349,0-.524,0-.36,0-.465.1-.466.457q0,.64,0,1.279v.945Zm.35-3.144a2.233,2.233,0,0,1,2.033.022c.022-.015.063-.041.1-.071s.069-.057.117-.1a3.381,3.381,0,0,0-2.967-.109Z" transform="translate(-0.359 0)" fill="#0e1116"/>
      <path id="Path_18340" data-name="Path 18340" d="M-729.123,458.243V457.6h3.687v-.75c0-.406,0-.812,0-1.218a.342.342,0,0,1,.384-.391c.425,0,.85,0,1.285,0v.666h-1c0,.377,0,.732,0,1.086,0,.3,0,.6,0,.9a.329.329,0,0,1-.343.367c-1.323,0-2.646,0-3.968,0C-729.089,458.264-729.1,458.253-729.123,458.243Z" transform="translate(0 -288.4)" fill="#0e1116"/>
      <path id="Path_18341" data-name="Path 18341" d="M-460.216,457.6v.68h-3.889c-.369,0-.469-.1-.469-.476,0-.616,0-1.231,0-1.87h-1v-.677c.461,0,.914-.008,1.367,0,.194.005.3.157.3.386,0,.567,0,1.134,0,1.7,0,.076,0,.153,0,.252Z" transform="translate(-248.764 -288.414)" fill="#0e1116"/>
      <path id="Path_18342" data-name="Path 18342" d="M-725.334,401.33V402h-1.335v.247q0,1.176,0,2.353c0,.316-.115.431-.43.431-.63,0-1.259,0-1.906,0v-.667h1.664v-.268q0-1.166,0-2.332c0-.317.114-.43.429-.431C-726.393,401.329-725.875,401.33-725.334,401.33Z" transform="translate(-0.112 -237.513)" fill="#0e1116"/>
      <path id="Path_18343" data-name="Path 18343" d="M-434.337,401.992h-1.334v-.668h.305c.434,0,.868,0,1.3,0,.274,0,.4.124.4.4,0,.791,0,1.582,0,2.374v.25h1.67v.66c-.052,0-.105.014-.159.014q-.882,0-1.764,0c-.3,0-.419-.118-.419-.42q0-1.176,0-2.353Z" transform="translate(-276.985 -237.507)" fill="#0e1116"/>
    </g>
  </g>
</svg>
