<svg xmlns="http://www.w3.org/2000/svg" width="56" height="56" viewBox="0 0 56 56">
  <g id="Group_23559" data-name="Group 23559" transform="translate(-195 -1451.533)">
    <circle id="Ellipse_942" data-name="Ellipse 942" cx="28" cy="28" r="28" transform="translate(195 1451.533)" fill="#c2cccd"/>
    <g id="Group_23896" data-name="Group 23896" transform="translate(1158.822 1326.613)">
      <path id="Path_18332" data-name="Path 18332" d="M-883.746,202.88a1.754,1.754,0,0,1-.222.407c-.448.468-.908.923-1.371,1.376a.6.6,0,0,1-.8.078c-.331-.206-.66-.415-.982-.634a.354.354,0,0,0-.328-.027.805.805,0,0,0-.681.825,4.217,4.217,0,0,1-.15.713.6.6,0,0,1-.635.516q-.951.007-1.9,0a.6.6,0,0,1-.642-.533c-.085-.38-.159-.762-.254-1.139a.412.412,0,0,0-.169-.206.825.825,0,0,0-1.118.094,4.067,4.067,0,0,1-.611.4.6.6,0,0,1-.784-.083q-.687-.672-1.36-1.357a.6.6,0,0,1-.08-.816c.2-.324.411-.645.624-.963a.357.357,0,0,0,.037-.327.828.828,0,0,0-.841-.692,4.359,4.359,0,0,1-.714-.148.6.6,0,0,1-.506-.622q-.008-.96,0-1.92a.6.6,0,0,1,.523-.629c.38-.085.763-.158,1.141-.254a.434.434,0,0,0,.22-.179.81.81,0,0,0-.091-1.1,4.015,4.015,0,0,1-.4-.609.6.6,0,0,1,.085-.8q.673-.685,1.36-1.357a.6.6,0,0,1,.8-.078c.331.206.659.416.982.634a.355.355,0,0,0,.328.027.806.806,0,0,0,.681-.826,4.221,4.221,0,0,1,.153-.733.592.592,0,0,1,.611-.5q.972-.01,1.944,0a.594.594,0,0,1,.618.511c.087.386.161.775.257,1.16a.41.41,0,0,0,.168.206.825.825,0,0,0,1.119-.094,4.174,4.174,0,0,1,.593-.388.6.6,0,0,1,.8.073q.7.678,1.374,1.372a.591.591,0,0,1,.076.783c-.205.331-.415.659-.635.98a.288.288,0,0,0-.023.345.292.292,0,0,1,.042.095c.066.4.339.521.7.562a7.133,7.133,0,0,1,.8.166.6.6,0,0,1,.507.622q.008.96,0,1.92a.6.6,0,0,1-.523.629c-.38.086-.763.158-1.141.254a.435.435,0,0,0-.219.18.809.809,0,0,0,.091,1.1,3.435,3.435,0,0,1,.388.593A3.171,3.171,0,0,1-883.746,202.88Zm.745-4.1c0-.278-.012-.557,0-.835.012-.2-.07-.266-.252-.3-.369-.067-.735-.156-1.1-.233a.624.624,0,0,1-.482-.416c-.062-.162-.124-.325-.2-.481a.667.667,0,0,1,.05-.709c.213-.318.414-.643.626-.962a.194.194,0,0,0-.017-.29q-.642-.628-1.271-1.268a.184.184,0,0,0-.273-.026c-.26.174-.538.324-.786.514a.857.857,0,0,1-1.077.092.877.877,0,0,0-.232-.093.686.686,0,0,1-.515-.591c-.066-.348-.151-.692-.215-1.041-.03-.165-.1-.232-.276-.228-.564.011-1.129.013-1.693,0-.19,0-.254.072-.286.241-.066.355-.15.707-.221,1.061a.675.675,0,0,1-.46.544c-.163.059-.323.128-.482.2a.658.658,0,0,1-.673-.058c-.325-.215-.657-.42-.981-.636a.194.194,0,0,0-.289.031q-.622.633-1.256,1.254a.193.193,0,0,0-.027.289c.16.236.293.492.471.714a.933.933,0,0,1,.112,1.186.764.764,0,0,0-.078.193.692.692,0,0,1-.6.506c-.349.064-.694.149-1.042.215a.224.224,0,0,0-.217.263c.01.57.011,1.141,0,1.711,0,.181.069.242.232.273.376.072.748.159,1.123.237a.625.625,0,0,1,.482.416c.062.162.124.325.2.481a.67.67,0,0,1-.05.709c-.212.318-.413.644-.627.961a.2.2,0,0,0,.034.305q.628.613,1.241,1.24a.2.2,0,0,0,.306.028c.247-.169.515-.309.75-.493a.883.883,0,0,1,1.115-.095.843.843,0,0,0,.213.084.693.693,0,0,1,.514.593c.065.348.151.692.215,1.041a.233.233,0,0,0,.276.227c.564-.012,1.129-.013,1.693,0,.191,0,.253-.073.285-.242.072-.375.16-.747.239-1.121a.608.608,0,0,1,.4-.466c.169-.065.337-.131.5-.207a.66.66,0,0,1,.692.049c.325.215.657.42.981.636a.194.194,0,0,0,.289-.031q.622-.633,1.256-1.254a.193.193,0,0,0,.027-.289c-.164-.242-.3-.5-.482-.731a.919.919,0,0,1-.1-1.168.777.777,0,0,0,.078-.193.69.69,0,0,1,.6-.506c.349-.064.694-.149,1.042-.215.154-.029.226-.094.218-.263C-883.011,199.352-883,199.067-883,198.781Z" transform="translate(-45.873 -45.794)" fill="#0e1116"/>
      <path id="Path_18333" data-name="Path 18333" d="M-867.815,234.539c.059.261.113.5.166.733a1.337,1.337,0,0,1,.035.184c.012.147-.061.266-.2.262a.34.34,0,0,1-.266-.164c-.14-.509-.257-1.024-.369-1.54a.227.227,0,0,1,.191-.28c.507-.122,1.015-.243,1.525-.354a.224.224,0,0,1,.279.189.234.234,0,0,1-.191.3c-.289.073-.58.139-.906.216a8.076,8.076,0,0,0,2.049.906,9.4,9.4,0,0,0,9.85-2.677,8.986,8.986,0,0,0,2.459-5.278,9.4,9.4,0,0,0-1.5-6.441c-.019-.029-.038-.058-.056-.088a.244.244,0,0,1,.063-.365.232.232,0,0,1,.355.1c.254.431.53.852.744,1.3a10.031,10.031,0,0,1-5.239,13.6,9.86,9.86,0,0,1-8.8-.515l-.11-.06C-867.748,234.559-867.761,234.557-867.815,234.539Z" transform="translate(-73.051 -72.87)" fill="#0e1116"/>
      <path id="Path_18334" data-name="Path 18334" d="M-930.593,144.323l-.147-.764c-.008-.041-.018-.081-.025-.122-.029-.165.014-.3.193-.335s.268.083.3.245c.073.361.143.722.215,1.084.022.109.044.218.065.327.039.208-.028.32-.237.363-.484.1-.969.193-1.454.286a.231.231,0,0,1-.3-.183.232.232,0,0,1,.206-.3c.272-.057.545-.111.845-.172a.872.872,0,0,0-.113-.095,9.394,9.394,0,0,0-5.381-1.2,9.368,9.368,0,0,0-6.307,3.013,9.242,9.242,0,0,0-2.5,5.324,9.4,9.4,0,0,0,1.5,6.459c.019.029.039.058.055.088a.242.242,0,0,1-.076.362.229.229,0,0,1-.341-.092c-.246-.411-.507-.816-.718-1.245a10.031,10.031,0,0,1,2.057-11.6,9.883,9.883,0,0,1,6-2.788,9.931,9.931,0,0,1,5.955,1.238C-930.743,144.245-930.683,144.276-930.593,144.323Z" fill="#0e1116"/>
      <path id="Path_18335" data-name="Path 18335" d="M-838.062,254.819a4.3,4.3,0,0,1-4.308-4.315,4.3,4.3,0,0,1,4.327-4.3,4.3,4.3,0,0,1,4.3,4.3A4.305,4.305,0,0,1-838.062,254.819Zm3.815-4.3a3.8,3.8,0,0,0-3.808-3.808,3.8,3.8,0,0,0-3.814,3.8,3.8,3.8,0,0,0,3.807,3.808A3.8,3.8,0,0,0-834.247,250.516Z" transform="translate(-97.685 -97.53)" fill="#0e1116"/>
      <path id="Path_18336" data-name="Path 18336" d="M-776.787,284.853c-.029.12-.046.195-.066.268q-.474,1.769-.948,3.538c-.081.3-.184.4-.367.346-.165-.05-.2-.185-.12-.479q.478-1.779.956-3.557c.018-.067.024-.158.07-.191a.447.447,0,0,1,.283-.1C-776.9,284.687-776.84,284.8-776.787,284.853Z" transform="translate(-158.155 -133.85)" fill="#0e1116"/>
      <path id="Path_18337" data-name="Path 18337" d="M-823.1,295.7l1.093,1.086c.049.049.127.095.137.152a.493.493,0,0,1-.018.318.21.21,0,0,1-.331.021c-.137-.118-.26-.252-.388-.38q-.481-.479-.96-.96c-.185-.187-.186-.289,0-.475q.634-.636,1.271-1.269c.155-.154.3-.172.416-.057s.09.258-.068.416C-822.32,294.927-822.7,295.3-823.1,295.7Z" transform="translate(-115.313 -142.713)" fill="#0e1116"/>
      <path id="Path_18338" data-name="Path 18338" d="M-739.149,295.936l-1.192-1.186c-.1-.1-.151-.223-.053-.333a.481.481,0,0,1,.268-.1c.04-.007.1.045.137.083q.668.661,1.331,1.328c.154.156.152.273,0,.431-.436.44-.876.876-1.314,1.315-.12.12-.255.158-.385.032s-.093-.264.027-.384Z" transform="translate(-193.927 -142.952)" fill="#0e1116"/>
    </g>
  </g>
</svg>
