<svg xmlns="http://www.w3.org/2000/svg" width="56" height="56" viewBox="0 0 56 56">
  <g id="Group_23559" data-name="Group 23559" transform="translate(-195 -1451.533)">
    <g id="Ellipse_942" data-name="Ellipse 942" transform="translate(195 1451.533)" fill="#fcc" stroke="" stroke-width="1">
      <circle cx="28" cy="28" r="28" stroke="none"/>
      <circle cx="28" cy="28" r="27.5" fill="none"/>
    </g>
    <g id="Group_23817" data-name="Group 23817" transform="translate(823.59 944.94)">
      <path id="Path_18018" data-name="Path 18018" d="M-593.436,524a.751.751,0,0,1,.517.832c-.019.868,0,1.736-.006,2.6a.638.638,0,0,1-.722.726c-.909,0-1.819,0-2.728,0a.625.625,0,0,1-.654-.832.611.611,0,0,1,.61-.406c.363,0,.725,0,1.142,0-.081-.067-.116-.1-.157-.13a8.921,8.921,0,0,0-5.843-1.512,9.035,9.035,0,0,0-7.864,5.594,9,9,0,0,0,.347,8.179,1.563,1.563,0,0,1,.183.453.587.587,0,0,1-.4.646.589.589,0,0,1-.741-.29c-.309-.644-.621-1.289-.873-1.956a8.812,8.812,0,0,1-.51-2.5,1.1,1.1,0,0,0-.035-.16v-1.323c.068-.469.118-.941.205-1.406a10.584,10.584,0,0,1,8.535-8.355c.393-.065.789-.109,1.183-.163h1.282a1.633,1.633,0,0,0,.181.033,10.382,10.382,0,0,1,5.091,1.761c.168.113.334.231.531.368,0-.472.014-.906,0-1.337a.735.735,0,0,1,.527-.825Z" fill="#0e1116"/>
      <path id="Path_18019" data-name="Path 18019" d="M-512.211,615.762c0-.172,0-.379,0-.585a.619.619,0,0,1,.638-.641q.806-.007,1.612,0a.618.618,0,0,1,.642.637c0,.206,0,.412,0,.628a4.786,4.786,0,0,1,1.49.837.2.2,0,0,0,.178.005c.154-.075.3-.171.45-.252a.611.611,0,0,1,.858.229q.413.691.806,1.394a.614.614,0,0,1-.233.889c-.169.105-.415.167-.492.318s.034.383.032.579c0,.35-.017.7-.054,1.05-.014.134.01.2.126.259a4.611,4.611,0,0,1,.411.238.593.593,0,0,1,.233.823q-.41.752-.856,1.484a.6.6,0,0,1-.8.206c-.159-.081-.307-.186-.468-.261a.243.243,0,0,0-.211.015,4.906,4.906,0,0,1-1.354.78.218.218,0,0,0-.109.158c-.014.171,0,.344-.006.516a.617.617,0,0,1-.629.629q-.816.009-1.633,0a.618.618,0,0,1-.631-.628c-.006-.206.065-.458-.03-.606s-.36-.168-.535-.272c-.3-.178-.6-.37-.881-.572a.194.194,0,0,0-.254-.018c-.139.089-.283.171-.429.247a.61.61,0,0,1-.843-.227q-.423-.709-.826-1.43a.61.61,0,0,1,.241-.856c.175-.108.424-.175.508-.331s-.041-.384-.039-.582c0-.35.02-.7.055-1.05a.2.2,0,0,0-.118-.244c-.147-.075-.29-.159-.429-.247a.6.6,0,0,1-.222-.828q.4-.732.835-1.449a.608.608,0,0,1,.829-.226c.2.1.391.293.579.284s.335-.243.519-.349C-512.92,616.123-512.575,615.953-512.211,615.762Zm1.448,2.7a1.655,1.655,0,0,0-1.654,1.657,1.657,1.657,0,0,0,1.642,1.65,1.657,1.657,0,0,0,1.665-1.647A1.655,1.655,0,0,0-510.763,618.464Z" transform="translate(-89.826 -85.532)" fill="#0e1116"/>
      <path id="Path_18020" data-name="Path 18020" d="M-557.075,628.248c0,.44,0,.837,0,1.234,0,.11,0,.221,0,.331a.627.627,0,0,1-.624.6.613.613,0,0,1-.609-.628c-.008-.724,0-1.447,0-2.171,0-.22,0-.441,0-.662a.627.627,0,0,1,.7-.69c.724,0,1.447,0,2.171,0,.207,0,.414-.005.62,0a.633.633,0,0,1,.659.626.623.623,0,0,1-.667.612,9.591,9.591,0,0,0-1.088.047c.08.055.159.112.241.164a9.212,9.212,0,0,0,5.478,1.461,9.353,9.353,0,0,0,8.716-7.509,9.229,9.229,0,0,0-.99-6.356,1.206,1.206,0,0,1-.15-.379.6.6,0,0,1,.412-.661.623.623,0,0,1,.742.3,10.3,10.3,0,0,1,1,2.351,10.548,10.548,0,0,1-7.45,13.141,10.315,10.315,0,0,1-8.933-1.656Z" transform="translate(-49.939 -85.248)" fill="#0e1116"/>
    </g>
  </g>
</svg>
