<svg xmlns="http://www.w3.org/2000/svg" xmlns:xlink="http://www.w3.org/1999/xlink" width="373.954" height="373.091" viewBox="0 0 373.954 373.091">
  <defs>
    <clipPath id="clip-path">
      <path id="Path_13" data-name="Path 13" d="M617.606,685.443c-78.612,45.674-174.5,12.3-226.978-40.153-68.755-68.728-74.443-181.661-25.891-248.611,20.187-27.836,62.335-66.4,107.335-61.2,38.14,4.406,43.228,36.114,106.73,85.8,72,56.337,103.121,45.031,119.924,80.571C723.767,554.8,685.83,645.808,617.606,685.443Z" transform="translate(-332.892 -335)" fill="none"/>
    </clipPath>
  </defs>
  <g id="Illustration" transform="translate(-332.892 -335)">
    <g id="Interactive_learning_experience" data-name="Interactive learning experience" transform="translate(332.892 335)">
      <g id="Group_9" data-name="Group 9" transform="translate(0 0)">
        <g id="Group_8" data-name="Group 8" clip-path="url(#clip-path)">
          <g id="Group_7" data-name="Group 7" transform="translate(241.513 188.454)">
            <g id="Group_1" data-name="Group 1" transform="translate(0 0)">
              <path id="Path_1" data-name="Path 1" d="M1655.376,1261.57l-131.888,84.016a8.27,8.27,0,0,0-2.532,11.419l42.95,67.423a8.27,8.27,0,0,0,11.418,2.532l80.05-50.994Z" transform="translate(-1519.216 -1261.119)" fill="#fff"/>
              <path id="Path_2" data-name="Path 2" d="M1569.161,1426.951a8.719,8.719,0,0,1-7.367-4.031l-42.95-67.423a8.729,8.729,0,0,1,2.666-12.037l131.888-84.015a.444.444,0,0,1,.688.378v114.395a.444.444,0,0,1-.207.378l-80.05,50.994a8.668,8.668,0,0,1-4.666,1.363Zm84.026-166.31-131.2,83.577a7.831,7.831,0,0,0-2.395,10.8l42.95,67.423a7.831,7.831,0,0,0,10.8,2.395l79.843-50.862Z" transform="translate(-1517.48 -1259.371)"/>
            </g>
            <g id="Group_2" data-name="Group 2" transform="translate(9.236 44.113)">
              <path id="Path_3" data-name="Path 3" d="M1565.433,1562.494a.444.444,0,0,1-.242-.825q9.983-6.372,19.993-12.8c15.885-10.179,32.31-20.7,48.549-30.867a.448.448,0,0,1,.475.759c-16.235,10.16-32.658,20.685-48.541,30.863q-10.007,6.413-19.993,12.8a.444.444,0,0,1-.241.071Z" transform="translate(-1564.535 -1509.333)"/>
              <path id="Path_4" data-name="Path 4" d="M1566.69,1679.107a2.12,2.12,0,1,1-2.928-.649A2.12,2.12,0,0,1,1566.69,1679.107Z" transform="translate(-1562.781 -1636.857)"/>
              <path id="Path_5" data-name="Path 5" d="M1601.78,1656.747a2.122,2.122,0,1,1-1.332-.933,2.12,2.12,0,0,1,1.332.933Z" transform="translate(-1590.716 -1619.061)"/>
              <path id="Path_6" data-name="Path 6" d="M1636.87,1634.4a2.12,2.12,0,1,1-2.928-.65A2.12,2.12,0,0,1,1636.87,1634.4Z" transform="translate(-1618.652 -1601.265)"/>
              <path id="Path_7" data-name="Path 7" d="M1768.812,1493.908a.444.444,0,0,1-.226-.835c5.1-2.971,9.995-6.205,14.725-9.33,4.032-2.666,8.2-5.42,12.44-7.971a.448.448,0,1,1,.462.768c-4.22,2.537-8.381,5.289-12.406,7.95-4.741,3.135-9.641,6.376-14.769,9.36A.446.446,0,0,1,1768.812,1493.908Z" transform="translate(-1726.451 -1475.708)"/>
              <path id="Path_8" data-name="Path 8" d="M1671.433,1601.418a.444.444,0,0,1-.241-.825l8.886-5.659a.448.448,0,0,1,.481.755l-8.886,5.659A.443.443,0,0,1,1671.433,1601.418Z" transform="translate(-1648.927 -1570.576)"/>
            </g>
            <g id="Group_6" data-name="Group 6" transform="translate(21.457 31.473)">
              <path id="Path_9" data-name="Path 9" d="M1652.4,1701.177a.455.455,0,0,1-.1-.01.449.449,0,0,1-.281-.2l-29.208-45.852a.444.444,0,0,1,.138-.622l45.852-29.209a.444.444,0,0,1,.622.137l29.208,45.852a.444.444,0,0,1-.138.622l-45.852,29.209A.445.445,0,0,1,1652.4,1701.177Zm-28.591-46.163,28.727,45.1,45.1-28.727-28.727-45.1Z" transform="translate(-1622.743 -1582.104)"/>
              <g id="Group_3" data-name="Group 3" transform="translate(54.734 0)">
                <rect id="Rectangle_2" data-name="Rectangle 2" width="11.873" height="11.873" transform="matrix(0.843, -0.537, 0.537, 0.843, 0, 38.196)" fill="#e51635"/>
                <path id="Path_10" data-name="Path 10" d="M2017.027,1413.71l-43.1,27.458,6.379,10.014,36.722-23.393Z" transform="translate(-1957.058 -1413.71)" fill="#e51635"/>
              </g>
              <g id="Group_4" data-name="Group 4" transform="translate(66.149 25.192)" opacity="0.5">
                <rect id="Rectangle_3" data-name="Rectangle 3" width="11.873" height="11.873" transform="translate(0 30.924) rotate(-32.498)" fill="#0e1116"/>
                <path id="Path_11" data-name="Path 11" d="M2061.6,1537.27l-31.686,20.184,6.378,10.014,25.307-16.121Z" transform="translate(-2013.046 -1537.27)" fill="#0e1116"/>
              </g>
              <g id="Group_5" data-name="Group 5" transform="translate(77.564 50.376)">
                <rect id="Rectangle_4" data-name="Rectangle 4" width="11.873" height="11.873" transform="matrix(0.843, -0.537, 0.537, 0.843, 0, 23.66)" fill="#e51635"/>
                <path id="Path_12" data-name="Path 12" d="M2106.169,1660.82l-20.271,12.913,6.378,10.014,13.892-8.85Z" transform="translate(-2069.036 -1660.82)" fill="#fff"/>
              </g>
            </g>
          </g>
        </g>
      </g>
      <g id="Group_12" data-name="Group 12" transform="translate(60.746 269.644)">
        <g id="Group_10" data-name="Group 10" transform="translate(0 51.022)">
          <path id="Path_14" data-name="Path 14" d="M671.024,1924.483l-1.035-3.783-4.279.195a16.267,16.267,0,0,0-1.375-2.361l2.266-3.629-2.788-2.755-3.609,2.31a16.436,16.436,0,0,0-2.371-1.352l.147-4.281-3.793-.994-1.968,3.8a16.275,16.275,0,0,0-2.732.02l-2.013-3.781-3.783,1.036.195,4.279a16.26,16.26,0,0,0-2.361,1.375l-3.629-2.265-2.755,2.788,2.31,3.609a16.456,16.456,0,0,0-1.352,2.371l-4.282-.147-.994,3.793,3.8,1.969a16.229,16.229,0,0,0,.019,2.732l-3.781,2.013,1.036,3.783,4.279-.195a16.242,16.242,0,0,0,1.375,2.361L635.283,1941l2.788,2.755,3.609-2.31a16.433,16.433,0,0,0,2.371,1.352l-.148,4.282,3.793.994,1.969-3.8a16.236,16.236,0,0,0,2.732-.02l2.013,3.781,3.783-1.036-.195-4.28a16.2,16.2,0,0,0,2.361-1.375l3.629,2.266,2.755-2.788-2.31-3.609a16.414,16.414,0,0,0,1.352-2.371l4.282.147.994-3.793-3.8-1.968a16.26,16.26,0,0,0-.019-2.732Zm-17.417,13.2a10.1,10.1,0,1,1,7.072-12.4,10.1,10.1,0,0,1-7.072,12.4Z" transform="translate(-630.822 -1907.833)" fill="#e51635"/>
        </g>
        <g id="Group_11" data-name="Group 11" transform="translate(34.113 0)" opacity="0.5">
          <path id="Path_15" data-name="Path 15" d="M866.962,1686.057l-1.772-6.473-7.322.333a27.8,27.8,0,0,0-2.353-4.04l3.877-6.21-4.771-4.719-6.177,3.95a28.162,28.162,0,0,0-4.057-2.31l.253-7.328-6.492-1.7-3.369,6.5a27.843,27.843,0,0,0-4.676.034l-3.444-6.47-6.473,1.773.332,7.322a27.837,27.837,0,0,0-4.04,2.353l-6.21-3.877-4.719,4.771,3.95,6.177a28.187,28.187,0,0,0-2.31,4.056l-7.326-.252-1.7,6.491,6.5,3.369a27.811,27.811,0,0,0,.034,4.676l-6.47,3.443,1.773,6.473,7.322-.332a27.8,27.8,0,0,0,2.353,4.04l-3.877,6.21,4.771,4.719,6.177-3.95a28.184,28.184,0,0,0,4.056,2.31l-.252,7.326,6.492,1.7,3.369-6.5a27.807,27.807,0,0,0,4.675-.034l3.444,6.47,6.473-1.773-.333-7.322a27.792,27.792,0,0,0,4.04-2.353l6.209,3.877,4.719-4.771-3.95-6.176a28.169,28.169,0,0,0,2.31-4.057l7.327.253,1.7-6.492-6.5-3.369a27.819,27.819,0,0,0-.034-4.676Zm-29.808,22.594a24.66,24.66,0,1,0,0-.006Z" transform="translate(-798.161 -1657.558)" fill="#0e1116"/>
        </g>
      </g>
      <g id="Group_17" data-name="Group 17" transform="translate(0.469 0.981)">
        <g id="Group_13" data-name="Group 13" transform="translate(1.206 90.084)">
          <path id="Path_16" data-name="Path 16" d="M344.779,852.076,421.6,1001c-7.493-14.525,12.045-40.771,47.722-68.457a11.249,11.249,0,0,0,3.079-14.04L406.1,789.965a11.255,11.255,0,0,0-17-3.668C355.59,812.988,337.528,838.019,344.779,852.076Z" transform="translate(-342.765 -783.408)" fill="#fff"/>
          <path id="Path_17" data-name="Path 17" d="M419.942,999.7a.444.444,0,0,1-.4-.243L342.718,850.533c-3.578-6.931-1.19-16.828,6.9-28.613,7.766-11.307,20.745-24.348,37.533-37.725a11.7,11.7,0,0,1,17.679,3.813l66.308,128.537a11.694,11.694,0,0,1-3.2,14.6c-17.8,13.812-31.616,27.322-39.96,39.07-8.524,12-11.169,21.965-7.647,28.814l.008.015a.444.444,0,0,1-.4.653ZM343.514,850.118l74.545,144.5c-1.926-14.847,15.906-38.25,49.331-64.185a10.8,10.8,0,0,0,2.955-13.484L404.037,788.42a10.807,10.807,0,0,0-16.325-3.523C353.165,812.419,336.642,836.8,343.514,850.118Z" transform="translate(-341.102 -781.66)"/>
        </g>
        <g id="Group_14" data-name="Group 14" transform="translate(0 98.403)">
          <path id="Path_18" data-name="Path 18" d="M338.872,892.876,415.7,1041.8c-7.493-14.525,12.045-40.771,47.722-68.457a11.249,11.249,0,0,0,3.079-14.04L400.191,830.765a11.255,11.255,0,0,0-17-3.668C349.683,853.788,331.621,878.819,338.872,892.876Z" transform="translate(-336.857 -824.209)" fill="#fff"/>
          <path id="Path_19" data-name="Path 19" d="M414.034,1040.5a.444.444,0,0,1-.4-.243L336.809,891.333c-3.577-6.931-1.19-16.827,6.9-28.613,7.766-11.307,20.745-24.348,37.533-37.724a11.7,11.7,0,0,1,17.679,3.813l66.308,128.537a11.694,11.694,0,0,1-3.2,14.6c-17.8,13.812-31.616,27.322-39.959,39.07-8.531,12.011-11.172,21.979-7.642,28.829a.444.444,0,0,1-.4.653ZM337.606,890.926l74.546,144.5c-1.926-14.846,15.906-38.25,49.331-64.184a10.8,10.8,0,0,0,2.955-13.484L398.129,829.221A10.808,10.808,0,0,0,381.8,825.7c-34.546,27.521-51.069,51.9-44.2,65.224Z" transform="translate(-335.193 -822.461)"/>
        </g>
        <g id="Group_15" data-name="Group 15" transform="translate(176.724 0)">
          <path id="Path_20" data-name="Path 20" d="M1205.413,374.79l66.423,128.758a11.262,11.262,0,0,0,13.932,5.393c54.757-20.367,98.529-24.38,107.35-7.279l-76.826-148.929c-8.679-16.825-51.191-13.211-104.712,6.309a11.271,11.271,0,0,0-6.167,15.749Z" transform="translate(-1203.719 -341.558)" fill="#fff"/>
          <path id="Path_21" data-name="Path 21" d="M1280.124,508.345A11.722,11.722,0,0,1,1269.709,502l-66.418-128.75a11.718,11.718,0,0,1,6.407-16.379c26.711-9.742,50.673-15.55,69.3-16.809,19.242-1.3,31.683,2.409,35.969,10.716l76.826,148.929a.45.45,0,0,1-.8.411c-4.176-8.1-16.638-11.618-36.017-10.169-19.068,1.422-43.541,7.533-70.779,17.663a11.661,11.661,0,0,1-4.067.731Zm-76.038-135.5L1270.5,501.593a10.823,10.823,0,0,0,13.379,5.179c51.84-19.283,91.627-23.287,104.831-11.067l-74.553-144.514c-8.3-16.084-49.186-13.526-104.161,6.523a10.823,10.823,0,0,0-5.918,15.128Z" transform="translate(-1201.989 -339.812)"/>
        </g>
        <g id="Group_16" data-name="Group 16" transform="translate(175.515 8.318)">
          <path id="Path_22" data-name="Path 22" d="M1199.5,415.59l66.423,128.758a11.262,11.262,0,0,0,13.933,5.393c54.757-20.367,98.529-24.38,107.35-7.279l-76.826-148.929c-8.679-16.825-51.192-13.211-104.713,6.309a11.271,11.271,0,0,0-6.167,15.749Z" transform="translate(-1197.806 -382.358)" fill="#fff"/>
          <path id="Path_23" data-name="Path 23" d="M1274.214,549.145A11.722,11.722,0,0,1,1263.8,542.8l-66.422-128.75a11.719,11.719,0,0,1,6.407-16.379c26.711-9.742,50.673-15.55,69.3-16.809,19.25-1.3,31.684,2.409,35.969,10.716l76.826,148.929a.45.45,0,0,1-.8.411c-4.176-8.1-16.634-11.617-36.018-10.169-19.068,1.422-43.541,7.533-70.779,17.663A11.663,11.663,0,0,1,1274.214,549.145Zm-76.038-135.5,66.418,128.751a10.821,10.821,0,0,0,13.379,5.179c51.84-19.283,91.627-23.287,104.832-11.067l-74.553-144.514c-8.3-16.084-49.185-13.526-104.161,6.523a10.824,10.824,0,0,0-5.918,15.128Z" transform="translate(-1196.075 -380.612)"/>
        </g>
      </g>
      <g id="Group_35" data-name="Group 35" transform="translate(81.867 51.806)">
        <g id="Group_21" data-name="Group 21" transform="translate(0 2.719)">
          <g id="Group_18" data-name="Group 18" transform="translate(0 36.419)">
            <path id="Path_24" data-name="Path 24" d="M910.39,783.271c-1.564.521-3.177.992-4.844,1.4-10.637,2.577-12.8.006-40.62-.963-33.976-1.185-45.471,2.138-53.479,5.643-4.567,2-8.182,4.14-14.522,7.892-21.567,12.766-27.088,20.811-32.7,18.994a7.135,7.135,0,0,1-3.741-3.159c-8.63,6.5-18.462,5.065-23.844,3.49q0,1.826.164,3.718c.322,3.649.884,10.041,4.811,15.426,8.453,11.6,29.3,14.171,51.569,6.584-1.409,3.054-12.771,28.756.622,52.663,13.834,24.7,44.1,29.655,63.991,26.265,32.445-5.53,58.381-36.866,53.949-55.515-.762-3.209-4.122-7.845-10.81-16.988-7.909-10.812-15.063-19.235-20.113-24.9a66.547,66.547,0,0,0,40.548-17.206c1.484-1.368,2.855-2.763,4.129-4.171C916.19,799.321,912.114,789.725,910.39,783.271Z" transform="translate(-736.191 -782.822)" fill="#fff"/>
            <path id="Path_25" data-name="Path 25" d="M844.454,920.874a73.533,73.533,0,0,1-22.816-3.575c-13.336-4.418-23.7-12.672-29.973-23.871-12.408-22.152-3.866-45.646-1.054-52.133-22.224,7.3-42.676,4.5-51.107-7.069-4-5.488-4.56-11.849-4.9-15.65-.107-1.217-.163-2.481-.166-3.756a.444.444,0,0,1,.573-.431c5.089,1.488,14.9,3.021,23.448-3.418a.444.444,0,0,1,.646.115,6.79,6.79,0,0,0,3.5,2.976c3.1,1,6.341-1.333,12.8-5.993,4.519-3.263,10.708-7.731,19.543-12.961,6.434-3.809,9.978-5.906,14.573-7.917,7.731-3.385,18.887-6.894,53.671-5.681,11.147.388,18.164,1.033,23.287,1.5,7.712.711,10.9,1,17.212-.527,1.583-.384,3.2-.849,4.807-1.385a.444.444,0,0,1,.574.309c1.86,6.962,5.94,15.885,14.818,18.856a.444.444,0,0,1,.19.725c-1.333,1.473-2.732,2.886-4.158,4.2a66.5,66.5,0,0,1-39.911,17.261c6.818,7.694,13.388,15.85,19.535,24.254,6.993,9.56,10.118,13.923,10.884,17.15,1.649,6.941-.726,15.728-6.688,24.742-10.507,15.885-29.2,28.178-47.621,31.319a69.7,69.7,0,0,1-11.673.959ZM791.435,840.1a.444.444,0,0,1,.406.635c-2.162,4.686-12.295,29.228.6,52.257,12.953,23.125,42.01,29.709,63.524,26.042,18.19-3.1,36.648-15.241,47.025-30.929,5.824-8.806,8.156-17.344,6.564-24.041-.757-3.186-4.3-8.031-10.735-16.828-6.309-8.63-13.07-17-20.082-24.869a.444.444,0,0,1,.307-.745,65.637,65.637,0,0,0,40.272-17.089c1.244-1.147,2.469-2.372,3.643-3.643-8.619-3.229-12.707-11.857-14.63-18.789-1.482.482-2.971.9-4.431,1.258-6.45,1.563-9.913,1.244-17.505.549-5.113-.47-12.115-1.112-23.237-1.5-34.6-1.207-45.644,2.261-53.284,5.606-4.543,1.99-8.07,4.077-14.474,7.868-8.8,5.208-14.969,9.664-19.475,12.917-6.7,4.836-10.058,7.263-13.6,6.119a7.4,7.4,0,0,1-3.713-2.947c-8.452,6.122-17.97,4.9-23.281,3.446.017,1.047.069,2.082.157,3.085.327,3.708.873,9.914,4.726,15.2,8.321,11.415,28.842,14,51.062,6.425A.445.445,0,0,1,791.435,840.1Z" transform="translate(-734.443 -781.075)"/>
          </g>
          <g id="Group_19" data-name="Group 19" transform="translate(173.748 0)">
            <path id="Path_26" data-name="Path 26" d="M1630.36,617.995l-2.906,1.856,4.443-8a1.379,1.379,0,0,0-2.275-1.542l-5.9,7.239,4.064-10.219a1.866,1.866,0,0,0-3.447-1.411l-3.885,9.218,1.344-8.036a1.594,1.594,0,0,0-1.522-1.884c-.6.005-1.187.356-1.416,1.536-.55,2.836-3.425,14.178-3.425,14.178a7.338,7.338,0,0,1-2.859-2.631c-1.615-2.187-2.269-.977-2.269-.977-.984,3.33,1.4,6.968,3.143,9.064a69.269,69.269,0,0,1-24.568,14.788c1.725,6.454,5.8,16.051,15.106,19.165a66.568,66.568,0,0,0,15.344-29.5c4.106-1.688,11.056-9.28,12.6-11.005a1.224,1.224,0,0,0-1.571-1.845Z" transform="translate(-1588.422 -604.309)" fill="#fff"/>
            <path id="Path_27" data-name="Path 27" d="M1602.23,659.028a.447.447,0,0,1-.142-.023c-9.255-3.1-13.482-12.3-15.4-19.474a.444.444,0,0,1,.291-.54,68.412,68.412,0,0,0,24.094-14.41c-1.948-2.429-3.92-5.883-2.956-9.14a.433.433,0,0,1,.036-.089,1.137,1.137,0,0,1,.9-.563c.661-.045,1.351.444,2.123,1.488a9.053,9.053,0,0,0,2.206,2.226c.586-2.321,2.806-11.163,3.278-13.6.319-1.64,1.3-1.894,1.852-1.9h.016a1.943,1.943,0,0,1,1.476.69,2.1,2.1,0,0,1,.476,1.714l-.711,4.265,2.4-5.7a2.31,2.31,0,1,1,4.276,1.751l-2.99,7.514,4.064-4.984a1.827,1.827,0,0,1,3.013,2.044l-3.583,6.45,1.414-.9a1.671,1.671,0,0,1,2.146,2.521c-1.919,2.143-8.417,9.18-12.549,11.029a66.646,66.646,0,0,1-15.4,29.475A.445.445,0,0,1,1602.23,659.028ZM1587.664,639.7c1.889,6.826,5.914,15.353,14.431,18.357a65.768,65.768,0,0,0,15.046-29.076.445.445,0,0,1,.267-.314c4.043-1.663,11.069-9.363,12.44-10.891a.776.776,0,0,0-1-1.168l-2.906,1.856a.444.444,0,0,1-.633-.594l4.443-8a.932.932,0,0,0-1.536-1.041l-5.9,7.238a.444.444,0,0,1-.763-.444l4.064-10.219a1.415,1.415,0,0,0-2.618-1.073l-3.885,9.218a.445.445,0,1,1-.854-.248l1.344-8.036a1.224,1.224,0,0,0-.274-.986,1.058,1.058,0,0,0-.8-.377c-.206,0-.754.006-.977,1.173-.547,2.815-3.313,13.739-3.43,14.2a.444.444,0,0,1-.586.311,7.729,7.729,0,0,1-3.068-2.787c-.8-1.078-1.235-1.133-1.341-1.127a.243.243,0,0,0-.158.078c-.889,3.173,1.541,6.732,3.077,8.579a.444.444,0,0,1-.043.618,69.646,69.646,0,0,1-24.339,14.745Zm40.939-23.471Z" transform="translate(-1586.673 -602.548)"/>
          </g>
          <g id="Group_20" data-name="Group 20" transform="translate(0.001 12.037)">
            <path id="Path_28" data-name="Path 28" d="M755.99,692.158c1.912-3.12,1.363-10.616-.773-14.257-2.162-3.686-9.6-14.227-9.6-14.227-3.676,2.871,1.8,11.345,1.8,11.345-6.352,4.068-2.791,8.385-2.791,8.385-2.563,5.332.7,7.145,2.657,7.739-4.241,5.693-10.687,16.48-10.653,30.212,5.381,1.575,15.214,3.013,23.844-3.49C758.058,714.108,756.177,706.593,755.99,692.158Z" transform="translate(-736.19 -663.227)" fill="#fff"/>
            <path id="Path_29" data-name="Path 29" d="M743.889,721.378a32.9,32.9,0,0,1-9.124-1.345.444.444,0,0,1-.322-.428c-.033-12.905,5.54-23.353,10.378-29.986a5.118,5.118,0,0,1-2.955-2.6c-.627-1.428-.458-3.215.5-5.313a5.376,5.376,0,0,1-.865-3.767c.276-1.762,1.474-3.377,3.563-4.8-1.049-1.735-5-8.805-1.467-11.564a.444.444,0,0,1,.642.1c.074.106,7.464,10.6,9.615,14.258,2.068,3.523,2.822,11.168.837,14.6.172,12.541,1.658,21.066,4.418,25.339a.444.444,0,0,1-.107.6A24.643,24.643,0,0,1,743.889,721.378Zm-8.551-2.112c5.1,1.437,14.506,2.762,22.8-3.267-2.72-4.532-4.177-13.137-4.341-25.583a.445.445,0,0,1,.066-.24c1.747-2.851,1.333-10.2-.777-13.8-1.884-3.211-7.878-11.78-9.28-13.773-2.577,2.877,2.2,10.347,2.249,10.425a.444.444,0,0,1-.134.622c-2.092,1.339-3.279,2.829-3.53,4.429a4.5,4.5,0,0,0,.842,3.294.444.444,0,0,1,.058.479c-.941,1.955-1.144,3.575-.6,4.808a4.573,4.573,0,0,0,2.986,2.31.444.444,0,0,1,.228.7c-4.793,6.429-10.5,16.77-10.561,29.6Z" transform="translate(-734.443 -661.48)"/>
          </g>
          <path id="Path_30" data-name="Path 30" d="M798.51,734.747a.444.444,0,0,1-.292-.109c-.128-.11-3.11-2.739-1.734-5.687,1.1-2.352.93-2.625,0-4.143l-.122-.2a3.554,3.554,0,0,1,.012-3.755.444.444,0,0,1,.674-.076l4.287,3.963a.448.448,0,0,1-.608.658l-3.844-3.554a2.625,2.625,0,0,0,.244,2.3l.121.2c1.045,1.709,1.291,2.32.046,4.989-1.089,2.333,1.482,4.609,1.511,4.632a.444.444,0,0,1-.294.785Z" transform="translate(-783.313 -696.556)"/>
          <path id="Path_31" data-name="Path 31" d="M776.694,761.174a1.908,1.908,0,0,1-1.374-.578L773.784,759a.447.447,0,0,1,.643-.622l1.536,1.589a1.019,1.019,0,0,0,1.37.079.448.448,0,1,1,.567.693A1.9,1.9,0,0,1,776.694,761.174Z" transform="translate(-765.662 -726.482)"/>
        </g>
        <g id="Group_29" data-name="Group 29" transform="translate(75.095 109.443)">
          <g id="Group_28" data-name="Group 28" transform="translate(0 0)">
            <g id="Group_24" data-name="Group 24" transform="translate(73.07 158.448)">
              <g id="Group_22" data-name="Group 22" transform="translate(0 0)">
                <path id="Path_32" data-name="Path 32" d="M1472.81,1905.3c.089.516,15.865,23.292,15.865,23.292l-12.731,3.329L1463.4,1912.3Z" transform="translate(-1462.943 -1904.851)" fill="#fff"/>
                <path id="Path_33" data-name="Path 33" d="M1474.191,1930.62a.444.444,0,0,1-.378-.207l-12.547-19.619a.444.444,0,0,1,.11-.6l9.413-7a.444.444,0,0,1,.691.217c.429.879,9.672,14.319,15.808,23.18a.444.444,0,0,1-.255.688l-12.73,3.329a.44.44,0,0,1-.113.015Zm-11.945-19.956,12.146,18.993,11.8-3.085c-6.355-9.179-13.659-19.791-15.255-22.371Z" transform="translate(-1461.194 -1903.101)"/>
              </g>
              <g id="Group_23" data-name="Group 23" transform="translate(0.669 15.117)">
                <path id="Path_34" data-name="Path 34" d="M1478.469,1984.671s1.481-6.658,8.747-4.752c0,0,15.493,15.614,22.688,29.5a5.159,5.159,0,0,1-5.857,7.348c-10.035-2.543-26.16-8.759-37.391-23.6,0,0,1.389-7.174,4.971-11.009Z" transform="translate(-1466.21 -1979.1)" fill="#fff"/>
                <path id="Path_35" data-name="Path 35" d="M1503.594,2015.621a5.7,5.7,0,0,1-1.4-.178c-11.094-2.812-26.63-9.217-37.638-23.767a.444.444,0,0,1-.083-.355c.058-.3,1.455-7.346,5.083-11.229a.444.444,0,0,1,.482-.115l6.392,2.349a7.536,7.536,0,0,1,3.065-4.021,7.641,7.641,0,0,1,6.092-.579.446.446,0,0,1,.2.118c.156.156,15.623,15.822,22.768,29.613a5.615,5.615,0,0,1-4.963,8.163Zm-38.2-24.322c10.841,14.228,26.107,20.512,37.022,23.281a4.71,4.71,0,0,0,5.349-6.707c-6.807-13.137-21.27-28.028-22.522-29.306a6.728,6.728,0,0,0-5.273.5,6.872,6.872,0,0,0-2.806,3.945.444.444,0,0,1-.591.322l-6.559-2.41c-2.992,3.387-4.369,9.243-4.618,10.372Z" transform="translate(-1464.464 -1977.345)"/>
              </g>
              <path id="Path_36" data-name="Path 36" d="M1514.642,2063.562c-5.472,0-17.285-2.427-34.389-18.92a.448.448,0,1,1,.622-.644c23.27,22.439,36.788,18.343,36.926,18.3a.448.448,0,1,1,.283.85,11.558,11.558,0,0,1-3.442.416Z" transform="translate(-1476.256 -2015.168)"/>
              <path id="Path_37" data-name="Path 37" d="M1595.993,2058.1a.444.444,0,0,1-.29-.789l5.557-4.718a.448.448,0,0,1,.579.683l-5.557,4.719a.443.443,0,0,1-.29.107Z" transform="translate(-1568.15 -2022.027)"/>
              <path id="Path_38" data-name="Path 38" d="M1576.733,2037.635a.444.444,0,0,1-.278-.8l6.073-4.81a.448.448,0,0,1,.556.7l-6.073,4.81A.445.445,0,0,1,1576.733,2037.635Z" transform="translate(-1552.818 -2005.665)"/>
            </g>
            <g id="Group_27" data-name="Group 27" transform="translate(21.213 106.598)">
              <g id="Group_25" data-name="Group 25" transform="translate(11.748 0)">
                <path id="Path_39" data-name="Path 39" d="M1277.216,1650.94l-10.565,8.111,9.277,12.6,9.89-9.431Z" transform="translate(-1266.202 -1650.499)" fill="#fff"/>
                <path id="Path_40" data-name="Path 40" d="M1274.181,1670.361h-.039a.449.449,0,0,1-.322-.178l-9.277-12.6a.444.444,0,0,1,.089-.622l10.565-8.111a.445.445,0,0,1,.629.083l8.6,11.285a.444.444,0,0,1-.047.6l-9.89,9.43A.444.444,0,0,1,1274.181,1670.361Zm-8.657-12.964,8.715,11.842,9.233-8.8-8.086-10.609Z" transform="translate(-1264.454 -1648.752)"/>
              </g>
              <g id="Group_26" data-name="Group 26" transform="translate(0 4.614)">
                <path id="Path_41" data-name="Path 41" d="M1236.316,1688.217l-9.819-7.953-1.85-6.665c-5.154-.127-10.944,3.715-14.119,6.186a3.922,3.922,0,0,0-1.128,4.827c5.238,10.64,17.05,27.239,22.766,35.058a2.837,2.837,0,0,0,5.065-1.056C1239.755,1706.647,1236.316,1688.217,1236.316,1688.217Z" transform="translate(-1208.555 -1673.146)" fill="#fff"/>
                <path id="Path_42" data-name="Path 42" d="M1232.714,1719.535a3.254,3.254,0,0,1-2.643-1.352c-6.3-8.619-17.649-24.645-22.806-35.124a4.388,4.388,0,0,1,1.254-5.378c3.036-2.364,8.87-6.283,14.147-6.283h.259a.445.445,0,0,1,.42.328l1.811,6.526,9.708,7.863a.449.449,0,0,1,.158.266c.035.185,3.426,18.661.913,30.568a3.214,3.214,0,0,1-2.5,2.5,3.415,3.415,0,0,1-.716.083Zm-10.142-47.241c-4.984.045-10.574,3.816-13.507,6.094a3.491,3.491,0,0,0-1,4.276c5.127,10.417,16.439,26.391,22.726,34.99a2.378,2.378,0,0,0,2.449.929,2.328,2.328,0,0,0,1.815-1.812c2.354-11.154-.561-28.222-.889-30.061l-9.686-7.848a.448.448,0,0,1-.149-.228Z" transform="translate(-1206.825 -1671.398)"/>
              </g>
              <path id="Path_43" data-name="Path 43" d="M1254.478,1736.009a.444.444,0,0,1-.368-.193l-15.639-22.543a8.108,8.108,0,0,1-1.344-5.466,18.614,18.614,0,0,0-1.143-7.642.448.448,0,0,1,.832-.332,19.238,19.238,0,0,1,1.2,8.068,7.214,7.214,0,0,0,1.188,4.863l15.639,22.544a.444.444,0,0,1-.367.7Z" transform="translate(-1230.015 -1689.197)"/>
            </g>
            <path id="Path_44" data-name="Path 44" d="M1246.74,1125.92s30.166,23.814,46.126,46.113a20.821,20.821,0,0,1,1.706,21.305c-7.347,14.928-23.238,41.69-47.833,55.041l-20.655-26.391s18.062-19.97,31.339-29.066l-33.856-37.949-8.418-19.059Z" transform="translate(-1192.238 -1125.92)" fill="#0e1116"/>
            <path id="Path_45" data-name="Path 45" d="M1171.8,1308.136c1.071,1.886,25.4-15.9,25.4-15.9s-18.614-21.786-48.2-132.521c-.344-1.287-5.8-28.37-5.8-28.37l-40.422,21.187S1109.88,1199.132,1171.8,1308.136Z" transform="translate(-1102.78 -1130.236)" fill="#0e1116"/>
            <path id="Path_46" data-name="Path 46" d="M1335.529,1260.75a.444.444,0,0,1-.432-.33l-3.8-13.893a9.09,9.09,0,0,1,1.267-7.542l2.327-3.4a.448.448,0,0,1,.739.506l-2.321,3.4a8.194,8.194,0,0,0-1.142,6.8l3.8,13.893a.46.46,0,0,1-.439.57Z" transform="translate(-1284.45 -1213.066)" fill="#fff"/>
            <path id="Path_47" data-name="Path 47" d="M1423.236,1585.739a.444.444,0,0,1-.411-.272c-.089-.216-9.273-21.754-12.682-32.575a.447.447,0,0,1,.854-.267c3.4,10.779,12.56,32.277,12.651,32.493a.444.444,0,0,1-.411.622Z" transform="translate(-1347.458 -1465.375)" fill="#fff"/>
          </g>
        </g>
        <g id="Group_30" data-name="Group 30" transform="translate(65.121 40.01)">
          <path id="Path_48" data-name="Path 48" d="M1056.058,807.126c.77,16.134,3.051,56.392,7.266,72.562a3.475,3.475,0,0,0,4.8,2.277c9.632-4.348,36.99-15.953,57.807-17.522a4.585,4.585,0,0,0,4.007-6c-3.989-12.187-12.9-40.794-15.411-60.346a11.692,11.692,0,0,0-10.619-10.269c-10.13-.789-26.5-.21-41.913,8.442a11.787,11.787,0,0,0-5.935,10.859Z" transform="translate(-1055.598 -787.117)" fill="#fff"/>
          <path id="Path_49" data-name="Path 49" d="M1064.94,880.955a3.921,3.921,0,0,1-3.793-2.921c-4.214-16.16-6.5-56.192-7.281-72.654a12.309,12.309,0,0,1,6.16-11.267c15.233-8.554,31.34-9.345,42.168-8.5a12.2,12.2,0,0,1,11.028,10.658c2.523,19.651,11.6,48.7,15.392,60.264a5.032,5.032,0,0,1-4.4,6.588c-20.5,1.546-47.151,12.743-57.657,17.484a3.932,3.932,0,0,1-1.618.349Zm-10.18-75.62c.784,16.434,3.059,56.392,7.253,72.47a3,3,0,0,0,1.615,1.955,3.035,3.035,0,0,0,2.561.028c10.55-4.761,37.314-16,57.958-17.56a4.137,4.137,0,0,0,3.615-5.42c-3.8-11.6-12.9-40.7-15.429-60.425a11.3,11.3,0,0,0-10.209-9.879c-10.708-.833-26.622-.054-41.66,8.389a11.406,11.406,0,0,0-5.707,10.445Z" transform="translate(-1053.851 -785.351)"/>
        </g>
        <g id="Group_34" data-name="Group 34" transform="translate(77.389 0)">
          <path id="Path_50" data-name="Path 50" d="M1125.7,609.077s-3.143-6.39-4.251-7.515-1.964-2.31,1.3-4.493,11.777-8,16.995-7.966,8.874,3.333,7.269,5.71-2.342,3.377-1.1,3.531,1.921,1.535-1.587,3.567S1128.581,612.764,1125.7,609.077Z" transform="translate(-1119.148 -589.103)"/>
          <g id="Group_31" data-name="Group 31" transform="translate(0 12.007)">
            <path id="Path_51" data-name="Path 51" d="M1140.235,679.911l-1.823-9.686c5.485-2.755,3.277-6.576,2.456-9.624-.883-3.282-3.6-10.407-3.6-10.407-4.5,2.644-13.329,1.856-13.329,1.856s1.265,2.016.538,3.011-.274,4.811-.274,4.811a2.707,2.707,0,0,0-3.261-.349c-.948.637.135,3.359.913,4.887a3.7,3.7,0,0,0,2.448,1.827s.276-.164.839,1.181l-2.995,15.779-5.879,2.44,13.082,1.766a15.66,15.66,0,0,0,11.616-3.085l4.687-3.588Z" transform="translate(-1115.81 -649.745)" fill="#fff"/>
            <path id="Path_52" data-name="Path 52" d="M1129.664,686.239a15.878,15.878,0,0,1-2.125-.143l-13.08-1.765a.444.444,0,0,1-.112-.858l5.656-2.348,2.923-15.407a3.01,3.01,0,0,0-.444-.789h-.011a4.14,4.14,0,0,1-2.768-2.064c-.681-1.338-2.119-4.55-.762-5.461a2.91,2.91,0,0,1,2.977-.169c-.1-1.283-.144-3.377.444-4.185.444-.609-.267-2.052-.556-2.509a.444.444,0,0,1,.419-.683c.089.008,8.738.745,13.062-1.8a.444.444,0,0,1,.645.227c.111.291,2.738,7.183,3.617,10.45.108.4.239.812.379,1.244.884,2.767,1.978,6.2-2.765,8.738l1.7,9.047,5.1.769a.444.444,0,0,1,.205.8l-4.687,3.588a16.232,16.232,0,0,1-9.821,3.316Zm-13.442-2.577,11.44,1.544a15.314,15.314,0,0,0,11.285-3l3.849-2.947-4.373-.659a.444.444,0,0,1-.373-.355l-1.823-9.686a.444.444,0,0,1,.239-.483c4.406-2.212,3.495-5.065,2.615-7.82-.142-.444-.277-.867-.39-1.288-.735-2.732-2.784-8.231-3.406-9.884-3.867,1.975-10.1,1.84-12.32,1.719.351.773.717,1.967.128,2.773-.429.587-.37,2.981-.19,4.494a.444.444,0,0,1-.751.379,2.246,2.246,0,0,0-2.7-.3c-.406.273-.116,2,1.062,4.311a3.262,3.262,0,0,0,2.071,1.576.607.607,0,0,1,.2.03c.235.077.564.31,1.034,1.432a.444.444,0,0,1,.027.256l-2.995,15.779a.444.444,0,0,1-.267.33Zm6.561-18.794a.478.478,0,0,1-.055.028.415.415,0,0,0,.058-.025Z" transform="translate(-1114.06 -647.998)"/>
          </g>
          <path id="Path_53" data-name="Path 53" d="M1173.041,738.492a7.617,7.617,0,0,1-6.893-3.916.448.448,0,1,1,.812-.377c.112.238,2.8,5.707,10.958,2.286a.448.448,0,1,1,.347.826,13.558,13.558,0,0,1-5.224,1.181Z" transform="translate(-1155.485 -704.412)"/>
          <g id="Group_33" data-name="Group 33" transform="translate(4.017 10.222)">
            <g id="Group_32" data-name="Group 32" transform="translate(0 0)">
              <path id="Path_54" data-name="Path 54" d="M1135.93,647.633l1.677,4.9s10.663,6.376,23.363,3.793a3.169,3.169,0,0,0,2.454-3.809l-.977-8.614a3.168,3.168,0,0,0-3.821-2.381Z" transform="translate(-1135.479 -640.989)" fill="#fff"/>
              <path id="Path_55" data-name="Path 55" d="M1153.075,655.634a37.65,37.65,0,0,1-17.449-4.466.443.443,0,0,1-.194-.239l-1.677-4.9a.444.444,0,0,1,.307-.578l22.7-6.112a3.615,3.615,0,0,1,4.369,2.714c0,.016.006.032.008.049l.978,8.59a3.617,3.617,0,0,1-2.808,4.321,31.246,31.246,0,0,1-6.234.618Zm-16.85-5.154c1.288.721,11.3,6.018,22.9,3.66a2.722,2.722,0,0,0,2.107-3.27.492.492,0,0,0-.008-.049l-.977-8.588a2.72,2.72,0,0,0-3.272-2.022l-22.224,5.984Z" transform="translate(-1133.73 -639.242)"/>
            </g>
            <path id="Path_56" data-name="Path 56" d="M1193.363,681.087a.444.444,0,0,1-.316-.764l4.066-4.067a.447.447,0,0,1,.633.633l-4.067,4.067A.444.444,0,0,1,1193.363,681.087Z" transform="translate(-1180.85 -668.605)"/>
            <path id="Path_57" data-name="Path 57" d="M1223.143,669.311a.444.444,0,0,1-.316-.764l6.091-6.09a.448.448,0,1,1,.633.634l-6.09,6.09A.445.445,0,0,1,1223.143,669.311Z" transform="translate(-1204.556 -657.62)"/>
          </g>
        </g>
      </g>
      <g id="Group_36" data-name="Group 36" transform="translate(3.241 11.701)">
        <path id="Path_58" data-name="Path 58" d="M452.125,1244.623h-.012c-14-.372-22.9-4.053-26.453-10.94l-76.826-148.929a.449.449,0,0,1,.8-.411c4.2,8.135,16.73,11.646,36.246,10.152,19.2-1.47,43.827-7.656,71.214-17.893a11.714,11.714,0,0,1,14.5,5.6l66.42,128.758a11.72,11.72,0,0,1-6.39,16.373c-7.935,2.909-15.747,5.509-23.219,7.731a.448.448,0,0,1-.255-.858c7.454-2.215,15.248-4.81,23.165-7.713a10.824,10.824,0,0,0,5.9-15.121L470.8,1082.612a10.818,10.818,0,0,0-13.394-5.174c-32.4,12.108-60.116,18.28-79.651,18.281-11.934,0-20.811-2.3-25.842-6.961l74.546,144.507c3.344,6.482,12.224,10.1,25.681,10.455a.448.448,0,1,1-.012.9Z" transform="translate(-348.785 -936.52)"/>
        <path id="Path_59" data-name="Path 59" d="M1036.668,1858.3a.447.447,0,1,1-.1-.889c6-1.363,12.346-3.036,18.862-4.976a.448.448,0,0,1,.255.858c-6.535,1.943-12.9,3.62-18.919,4.987A.439.439,0,0,1,1036.668,1858.3Z" transform="translate(-896.069 -1554.763)" fill="#fff"/>
        <path id="Path_60" data-name="Path 60" d="M920.907,1881.738a.447.447,0,1,1-.044-.893,194.461,194.461,0,0,0,23.548-3.976.447.447,0,0,1,.2.873,195.362,195.362,0,0,1-23.657,4Z" transform="translate(-803.909 -1574.209)"/>
        <path id="Path_61" data-name="Path 61" d="M856.214,1897.9q-1.178,0-2.31-.03a.448.448,0,1,1,.024-.895,109.581,109.581,0,0,0,13.6-.57.447.447,0,0,1,.089.889C863.57,1897.7,859.745,1897.9,856.214,1897.9Z" transform="translate(-750.574 -1589.772)" fill="#fff"/>
        <path id="Path_62" data-name="Path 62" d="M1160.7,662.792a11.768,11.768,0,0,1-10.46-6.327.449.449,0,1,1,.8-.411,10.878,10.878,0,0,0,14.421,4.732c2.911-1.439,5.856-2.925,8.751-4.419,38.171-19.69,71.845-42.475,94.819-64.165,22.846-21.565,32.357-39.392,26.783-50.2l-74.533-144.486c1.476,11.268-8.394,27.464-28.461,46.407-23.033,21.742-56.781,44.581-95.023,64.31-2.8,1.444-5.643,2.881-8.451,4.271a10.808,10.808,0,0,0-4.8,14.644l21.948,42.542a.449.449,0,1,1-.8.411l-21.948-42.543a11.7,11.7,0,0,1,5.2-15.858c2.8-1.387,5.642-2.822,8.442-4.265,38.171-19.691,71.845-42.475,94.819-64.165,22.829-21.549,32.345-39.365,26.8-50.175l-.012-.024a.45.45,0,0,1,.8-.41l76.825,148.929c5.776,11.2-3.8,29.4-26.964,51.261-23.033,21.742-56.781,44.581-95.023,64.31-2.9,1.5-5.849,2.985-8.764,4.426A11.607,11.607,0,0,1,1160.7,662.792Z" transform="translate(-932.856 -392.418)"/>
        <path id="Path_63" data-name="Path 63" d="M1356.53,1571.445a.444.444,0,0,1-.4-.243L1341.1,1542.07a.449.449,0,0,1,.8-.411l15.029,29.133a.448.448,0,0,1-.4.653Z" transform="translate(-1138.756 -1307.16)" fill="#fff"/>
        <path id="Path_64" data-name="Path 64" d="M1316.542,1493.913a.444.444,0,0,1-.4-.243l-6.4-12.4a.449.449,0,0,1,.8-.411l6.4,12.394a.451.451,0,0,1-.4.654Z" transform="translate(-1113.789 -1258.76)"/>
        <path id="Path_65" data-name="Path 65" d="M1219.834,1306.457a.444.444,0,0,1-.4-.242l-23.128-44.832a.449.449,0,1,1,.8-.411l23.128,44.832a.444.444,0,0,1-.4.653Z" transform="translate(-1023.477 -1083.697)" fill="#fff"/>
        <path id="Path_66" data-name="Path 66" d="M1198.062,670.32a.444.444,0,0,1-.205-.846c60.537-31.23,108.991-70.177,120.571-96.916a.448.448,0,1,1,.822.355c-11.656,26.914-60.276,66.038-120.983,97.356A.445.445,0,0,1,1198.062,670.32Z" transform="translate(-1024.556 -535.611)"/>
        <path id="Path_67" data-name="Path 67" d="M1233.872,746.134a.444.444,0,0,1-.205-.846c60.538-31.229,108.992-70.177,120.572-96.916a.448.448,0,0,1,.822.355c-11.656,26.914-60.275,66.039-120.984,97.356A.443.443,0,0,1,1233.872,746.134Z" transform="translate(-1053.068 -595.969)"/>
        <path id="Path_68" data-name="Path 68" d="M1364.743,1045.312a.444.444,0,0,1-.221-.837,485.84,485.84,0,0,0,42.2-26.747.448.448,0,0,1,.519.729,486.582,486.582,0,0,1-42.275,26.8A.445.445,0,0,1,1364.743,1045.312Z" transform="translate(-1157.253 -890.167)"/>
        <path id="Path_69" data-name="Path 69" d="M1623.074,777a.444.444,0,0,1-.272-.8c25.131-19.213,42.386-37.685,48.592-52.01a.448.448,0,1,1,.822.355c-6.263,14.463-23.62,33.056-48.873,52.365A.444.444,0,0,1,1623.074,777Z" transform="translate(-1362.921 -656.328)"/>
        <path id="Path_70" data-name="Path 70" d="M1494.263,1058.087a.444.444,0,0,1-.237-.827,414.05,414.05,0,0,0,40.571-28.613.448.448,0,0,1,.563.7,414.945,414.945,0,0,1-40.659,28.672A.444.444,0,0,1,1494.263,1058.087Z" transform="translate(-1260.369 -898.854)"/>
        <path id="Path_71" data-name="Path 71" d="M1733.593,840.437a.444.444,0,0,1-.293-.785c17-14.757,28.54-28.468,33.383-39.649a.448.448,0,1,1,.822.355c-4.9,11.3-16.52,25.125-33.617,39.969a.444.444,0,0,1-.294.11Z" transform="translate(-1450.91 -716.685)"/>
        <path id="Path_72" data-name="Path 72" d="M1377.142,1411.64a.444.444,0,0,1-.205-.846c2.762-1.422,5.551-2.893,8.292-4.364a.448.448,0,1,1,.423.789c-2.744,1.473-5.539,2.944-8.3,4.371A.445.445,0,0,1,1377.142,1411.64Z" transform="translate(-1167.127 -1199.651)"/>
        <path id="Path_73" data-name="Path 73" d="M1417.843,1349.761a.444.444,0,0,1-.212-.842c8.8-4.725,17.449-9.676,25.711-14.716a.448.448,0,1,1,.467.764c-8.275,5.048-16.94,10.008-25.753,14.74A.444.444,0,0,1,1417.843,1349.761Z" transform="translate(-1199.53 -1142.14)" fill="#fff"/>
        <path id="Path_74" data-name="Path 74" d="M1544.053,1030.294a.444.444,0,0,1-.234-.83c22.024-13.436,41.657-27.739,56.781-41.361,15.017-13.527,25.316-26.14,29.79-36.473a.448.448,0,0,1,.822.355c-9.293,21.457-41.787,50.707-86.925,78.244A.444.444,0,0,1,1544.053,1030.294Z" transform="translate(-1300.012 -837.4)"/>
        <path id="Path_75" data-name="Path 75" d="M1412.962,1444.16a.444.444,0,0,1-.205-.846c9.546-4.924,18.95-10.121,27.949-15.444a.448.448,0,1,1,.456.77c-9.014,5.332-18.432,10.536-27.991,15.47A.445.445,0,0,1,1412.962,1444.16Z" transform="translate(-1195.643 -1216.708)" fill="#fff"/>
        <path id="Path_76" data-name="Path 76" d="M1550.163,1109.748a.444.444,0,0,1-.228-.833c47.549-28.127,83.039-59.345,92.622-81.472a.448.448,0,1,1,.822.355c-9.654,22.291-45.286,53.671-92.988,81.886A.444.444,0,0,1,1550.163,1109.748Z" transform="translate(-1304.871 -897.757)"/>
        <path id="Path_77" data-name="Path 77" d="M1448.772,1545.562a.444.444,0,0,1-.205-.846c5.583-2.88,11.156-5.874,16.563-8.9a.448.448,0,1,1,.437.782c-5.416,3.027-11,6.026-16.589,8.911A.445.445,0,0,1,1448.772,1545.562Z" transform="translate(-1224.156 -1302.655)"/>
        <path id="Path_78" data-name="Path 78" d="M1530.083,1192.116a.444.444,0,0,1-.219-.839c52.813-29.526,93.64-64.075,104.009-88.019a.448.448,0,1,1,.822.355c-5.116,11.811-17.505,26.287-35.818,41.86-18.531,15.756-42.244,31.864-68.575,46.585A.444.444,0,0,1,1530.083,1192.116Z" transform="translate(-1288.885 -958.116)"/>
      </g>
      <g id="Group_37" data-name="Group 37" transform="translate(3.241 205.491)">
        <path id="Path_79" data-name="Path 79" d="M1705.593,1642.239a.444.444,0,0,1-.233-.83q2.31-1.4,4.573-2.805a.448.448,0,1,1,.471.761q-2.268,1.407-4.58,2.809a.441.441,0,0,1-.231.065Zm9.127-5.657a.444.444,0,0,1-.24-.827q2.282-1.445,4.518-2.892a.447.447,0,0,1,.486.751q-2.239,1.449-4.525,2.9a.446.446,0,0,1-.24.076Zm9.013-5.835a.444.444,0,0,1-.247-.821q2.254-1.493,4.456-2.985a.448.448,0,0,1,.5.741q-2.207,1.495-4.464,2.99a.444.444,0,0,1-.251.078Zm8.886-6.026a.444.444,0,0,1-.256-.816c1.468-1.019,2.946-2.058,4.39-3.087a.448.448,0,0,1,.519.73c-1.448,1.031-2.932,2.071-4.4,3.093a.446.446,0,0,1-.249.084Zm8.753-6.233a.444.444,0,0,1-.267-.809c1.457-1.066,2.907-2.141,4.312-3.2a.448.448,0,1,1,.538.716c-1.407,1.057-2.86,2.133-4.321,3.2a.445.445,0,0,1-.257.1Z" transform="translate(-1428.615 -1559.048)"/>
        <path id="Path_80" data-name="Path 80" d="M1902.283,1589.293a.444.444,0,0,1-.267-.806l.107-.081a.446.446,0,1,1,.533.716l-.108.081A.443.443,0,0,1,1902.283,1589.293Zm4.379-3.338a.444.444,0,0,1-.275-.8c1.422-1.1,2.839-2.214,4.219-3.315a.448.448,0,1,1,.559.7c-1.384,1.1-2.807,2.221-4.23,3.323a.442.442,0,0,1-.272.1Z" transform="translate(-1585.203 -1533.052)" fill="#fff"/>
        <path id="Path_81" data-name="Path 81" d="M1961.523,1555.416a.444.444,0,0,1-.285-.793c1.407-1.155,2.793-2.31,4.119-3.437a.448.448,0,1,1,.579.682c-1.333,1.129-2.72,2.289-4.13,3.447A.444.444,0,0,1,1961.523,1555.416Z" transform="translate(-1632.368 -1508.638)"/>
        <path id="Path_82" data-name="Path 82" d="M1999.493,1522.658a.444.444,0,0,1-.3-.784c1.36-1.194,2.7-2.4,3.994-3.578a.448.448,0,0,1,.6.66c-1.295,1.184-2.644,2.393-4.008,3.591A.444.444,0,0,1,1999.493,1522.658Z" transform="translate(-1662.594 -1482.45)" fill="#fff"/>
        <path id="Path_83" data-name="Path 83" d="M2019.113,1379.548a.444.444,0,0,1-.3-.778q1.313-1.2,2.577-2.393a.448.448,0,1,1,.614.652q-1.271,1.2-2.588,2.4A.445.445,0,0,1,2019.113,1379.548Zm6.451-6.131a.444.444,0,0,1-.315-.766c1.288-1.272,2.554-2.557,3.762-3.821a.448.448,0,1,1,.646.622c-1.214,1.267-2.488,2.558-3.779,3.836a.444.444,0,0,1-.315.129Zm7.427-7.763a.444.444,0,0,1-.333-.747c1.219-1.355,2.4-2.716,3.511-4.044a.448.448,0,1,1,.688.574c-1.118,1.333-2.31,2.706-3.533,4.069a.445.445,0,0,1-.331.145Zm6.881-8.249a.444.444,0,0,1-.355-.72c1.117-1.459,2.174-2.916,3.142-4.328a.448.448,0,0,1,.74.506c-.978,1.422-2.044,2.894-3.171,4.366a.445.445,0,0,1-.357.174Zm6.054-8.87a.444.444,0,0,1-.384-.676c.946-1.592,1.8-3.171,2.537-4.691a.447.447,0,1,1,.8.391c-.748,1.543-1.614,3.143-2.572,4.757a.445.445,0,0,1-.381.22Z" transform="translate(-1678.218 -1342.915)"/>
        <path id="Path_84" data-name="Path 84" d="M391.563,1824.884c-1.477,0-2.939-.024-4.345-.071a.448.448,0,0,1,.03-.895c1.724.058,3.522.08,5.354.067a.448.448,0,1,1,.006.9Q392.083,1824.883,391.563,1824.884Zm6.412-.139a.447.447,0,1,1-.019-.895c1.736-.073,3.536-.178,5.35-.307a.448.448,0,1,1,.064.893c-1.823.131-3.633.235-5.377.309Zm-16.106-.239h-.037c-1.853-.154-3.658-.355-5.364-.6a.449.449,0,1,1,.128-.888c1.688.244,3.475.444,5.311.6a.447.447,0,0,1-.036.894Zm26.821-.528a.447.447,0,0,1-.044-.893c1.734-.171,3.527-.369,5.332-.59a.448.448,0,0,1,.108.889c-1.81.221-3.61.42-5.35.592Zm-37.443-1.037a.447.447,0,0,1-.1-.01,53.116,53.116,0,0,1-5.22-1.443.448.448,0,0,1,.284-.849,52.127,52.127,0,0,0,5.131,1.422.447.447,0,0,1-.1.889Zm48.11-.267a.445.445,0,0,1-.063-.889c1.737-.25,3.521-.523,5.3-.815a.447.447,0,0,1,.144.883c-1.787.292-3.577.567-5.319.818a.47.47,0,0,1-.064.008Zm10.605-1.728a.446.446,0,1,1-.079-.888c1.732-.314,3.506-.651,5.271-1a.448.448,0,0,1,.178.879c-1.77.351-3.548.689-5.285,1a.427.427,0,0,1-.084.008Zm-68.854-1.479a.444.444,0,0,1-.2-.047,27.824,27.824,0,0,1-4.621-2.881.449.449,0,1,1,.549-.711,26.981,26.981,0,0,0,4.476,2.787.444.444,0,0,1-.2.848Zm79.4-.606a.447.447,0,0,1-.089-.889c1.721-.368,3.484-.757,5.243-1.155a.448.448,0,0,1,.2.873c-1.759.4-3.527.792-5.253,1.161a.455.455,0,0,1-.1.017Zm10.476-2.392a.445.445,0,0,1-.1-.883c1.715-.416,3.466-.852,5.208-1.3a.447.447,0,1,1,.221.867c-1.744.444-3.5.883-5.219,1.3a.436.436,0,0,1-.106.022Zm10.411-2.661a.444.444,0,0,1-.116-.881c1.707-.458,3.449-.937,5.177-1.422a.448.448,0,0,1,.242.862c-1.731.486-3.476.965-5.186,1.422a.462.462,0,0,1-.116.023Zm-108.605-.969a.444.444,0,0,1-.355-.178,18.012,18.012,0,0,1-1.936-3.225c-.243-.523-.463-1.066-.654-1.609a.448.448,0,0,1,.845-.3,15.677,15.677,0,0,0,.622,1.528,17.144,17.144,0,0,0,1.84,3.065.444.444,0,0,1-.355.717Zm118.952-1.933a.444.444,0,0,1-.125-.878q2.557-.747,5.145-1.533a.448.448,0,0,1,.26.857q-2.592.787-5.154,1.535a.446.446,0,0,1-.127.029Zm10.282-3.122a.444.444,0,0,1-.134-.875q2.543-.8,5.113-1.636a.448.448,0,1,1,.276.851q-2.577.837-5.121,1.638a.44.44,0,0,1-.135.025Zm10.219-3.323a.444.444,0,0,1-.142-.873q2.529-.848,5.082-1.732a.448.448,0,0,1,.292.846q-2.557.884-5.089,1.735a.455.455,0,0,1-.143.028Zm-142.989-1.592a.444.444,0,0,1-.444-.426q-.027-.545-.028-1.1a25.564,25.564,0,0,1,.389-4.343.448.448,0,0,1,.882.153,24.692,24.692,0,0,0-.376,4.19q0,.533.027,1.057a.444.444,0,0,1-.425.47Zm1.711-10.534a.444.444,0,0,1-.424-.593,47.556,47.556,0,0,1,2.064-5.011.448.448,0,1,1,.808.385,46.66,46.66,0,0,0-2.025,4.916.444.444,0,0,1-.423.3Zm4.571-9.7a.444.444,0,0,1-.386-.675c.871-1.484,1.844-3.021,2.892-4.561a.447.447,0,1,1,.74.5c-1.037,1.526-2,3.043-2.86,4.51a.444.444,0,0,1-.387.23Zm6.018-8.894a.444.444,0,0,1-.355-.719c1.05-1.381,2.18-2.8,3.359-4.217a.448.448,0,1,1,.689.572c-1.17,1.407-2.293,2.816-3.335,4.187a.444.444,0,0,1-.357.184Zm6.859-8.264a.444.444,0,0,1-.333-.746c1.164-1.3,2.4-2.63,3.658-3.954a.449.449,0,0,1,.648.622c-1.257,1.317-2.481,2.641-3.643,3.934a.444.444,0,0,1-.33.143Zm7.412-7.779a.444.444,0,0,1-.315-.766c1.244-1.234,2.546-2.494,3.869-3.744a.448.448,0,0,1,.615.652c-1.318,1.244-2.614,2.5-3.854,3.732a.444.444,0,0,1-.315.128Zm7.808-7.382a.445.445,0,0,1-.3-.781c1.306-1.181,2.666-2.381,4.028-3.568a.448.448,0,1,1,.587.676c-1.362,1.184-2.713,2.381-4.016,3.555a.444.444,0,0,1-.3.117Zm8.109-7.049a.444.444,0,0,1-.288-.791q1.244-1.043,2.523-2.091a.448.448,0,0,1,.568.692q-1.274,1.045-2.516,2.084a.444.444,0,0,1-.287.107Z" transform="translate(-348.778 -1659.268)"/>
      </g>
      <g id="Group_41" data-name="Group 41" transform="translate(38.49 2.467)">
        <g id="Group_39" data-name="Group 39" transform="translate(24.294 22.584)">
          <path id="Path_85" data-name="Path 85" d="M665.12,464.463a12.865,12.865,0,0,0-18.1-4.724A13.46,13.46,0,0,0,642.868,478a13.151,13.151,0,0,0,7.674,6.028,9.61,9.61,0,0,1,5.681,4.48l.746,1.305a2.172,2.172,0,0,0,3,.828l7.6-4.538a2.276,2.276,0,0,0,.769-3.079l-.742-1.3a9.756,9.756,0,0,1-1.051-7.161,13.668,13.668,0,0,0-1.423-10.1Z" transform="translate(-640.913 -457.783)" fill="#e51635"/>
          <g id="Group_38" data-name="Group 38" transform="translate(17.652 27.2)">
            <path id="Path_86" data-name="Path 86" d="M738.9,604.327a5.41,5.41,0,0,1-7.475-2.063l-1.8-3.16,9.39-5.607,1.8,3.16A5.669,5.669,0,0,1,738.9,604.327Z" transform="translate(-729.174 -593.047)" fill="#fff"/>
            <path id="Path_87" data-name="Path 87" d="M734.448,603.778a5.808,5.808,0,0,1-1.476-.192,5.967,5.967,0,0,1-3.681-2.849l-1.8-3.16a.444.444,0,0,1,.159-.606l9.39-5.607a.444.444,0,0,1,.622.163l1.8,3.16a6.125,6.125,0,0,1-2.074,8.276,5.71,5.71,0,0,1-2.94.815Zm-5.966-6.263,1.586,2.779a5.079,5.079,0,0,0,3.131,2.427,4.823,4.823,0,0,0,3.725-.526,5.226,5.226,0,0,0,1.756-7.063l-1.578-2.764Z" transform="translate(-727.426 -591.298)"/>
          </g>
        </g>
        <g id="Group_40" data-name="Group 40" transform="translate(0 0)">
          <path id="Path_88" data-name="Path 88" d="M622.319,378.848a.445.445,0,0,1-.389-.225l-6.583-11.484a.447.447,0,0,1,.777-.444l6.583,11.484a.444.444,0,0,1-.388.67Z" transform="translate(-596.201 -362.52)"/>
          <path id="Path_89" data-name="Path 89" d="M541.411,599.214a.444.444,0,0,1-.223-.836l14.965-8.569a.447.447,0,1,1,.444.777l-14.965,8.569a.444.444,0,0,1-.221.06Z" transform="translate(-537.031 -540.276)"/>
          <path id="Path_90" data-name="Path 90" d="M803.908,450.66a.444.444,0,0,1-.219-.839l15.477-8.632a.448.448,0,0,1,.436.782L804.126,450.6a.444.444,0,0,1-.218.057Z" transform="translate(-746.012 -421.962)"/>
          <path id="Path_91" data-name="Path 91" d="M536.689,488.166a.444.444,0,0,1-.122-.017l-14.558-4.106a.448.448,0,1,1,.244-.862l14.558,4.106a.444.444,0,0,1-.122.879Z" transform="translate(-521.683 -455.424)"/>
          <path id="Path_92" data-name="Path 92" d="M742.83,363.38a.444.444,0,0,1-.432-.567l4.247-15.384a.448.448,0,0,1,.863.238l-4.247,15.384A.444.444,0,0,1,742.83,363.38Z" transform="translate(-697.387 -347.1)"/>
        </g>
      </g>
      <g id="Group_42" data-name="Group 42" transform="translate(1.883 4.051)">
        <path id="Path_93" data-name="Path 93" d="M1689.406,421.286a.444.444,0,0,1-.33-.749q.847-.929,1.667-1.85a.448.448,0,1,1,.669.6q-.824.926-1.675,1.859A.444.444,0,0,1,1689.406,421.286Zm5.181-5.922a.444.444,0,0,1-.343-.735c1.17-1.4,2.3-2.8,3.365-4.168a.449.449,0,0,1,.711.55c-1.066,1.375-2.207,2.785-3.385,4.192a.444.444,0,0,1-.348.16Zm6.586-8.487a.444.444,0,0,1-.364-.711c1.066-1.495,2.073-2.985,3-4.431a.448.448,0,0,1,.755.482c-.932,1.458-1.949,2.962-3.021,4.468a.444.444,0,0,1-.368.2Zm5.764-9.064a.444.444,0,0,1-.391-.665c.9-1.619,1.706-3.221,2.4-4.762a.448.448,0,0,1,.816.37c-.711,1.562-1.528,3.186-2.437,4.826a.444.444,0,0,1-.392.236Zm4.388-9.79a.446.446,0,0,1-.425-.588,36.332,36.332,0,0,0,1.311-5.136.448.448,0,1,1,.882.154,37.293,37.293,0,0,1-1.343,5.263.445.445,0,0,1-.423.311Zm1.731-10.546a.444.444,0,0,1-.444-.433,19.252,19.252,0,0,0-.855-5.163.447.447,0,0,1,.854-.267,20.146,20.146,0,0,1,.9,5.4.444.444,0,0,1-.433.462Zm-111.348-8.086a.444.444,0,0,1-.131-.875c1.714-.533,3.446-1.054,5.147-1.559a.448.448,0,1,1,.254.858c-1.7.5-3.426,1.026-5.137,1.555a.445.445,0,0,1-.13.028Zm108.1-1.995a.444.444,0,0,1-.366-.19,18.809,18.809,0,0,0-3.594-3.8.448.448,0,0,1,.562-.7,19.683,19.683,0,0,1,3.764,3.978.444.444,0,0,1-.365.706Zm-97.8-1.054a.444.444,0,0,1-.122-.879c1.734-.49,3.479-.969,5.187-1.427a.448.448,0,0,1,.232.865c-1.7.457-3.444.936-5.174,1.422a.449.449,0,0,1-.124.027Zm10.38-2.78a.445.445,0,1,1-.109-.882c1.751-.444,3.51-.873,5.225-1.278a.448.448,0,0,1,.206.872c-1.711.4-3.466.833-5.213,1.275a.445.445,0,0,1-.111.021Zm10.457-2.47a.447.447,0,1,1-.095-.889c1.769-.387,3.541-.76,5.267-1.105a.448.448,0,0,1,.178.878c-1.72.345-3.486.715-5.251,1.1a.447.447,0,0,1-.1.021Zm68.76-.458a.445.445,0,0,1-.2-.048,35.018,35.018,0,0,0-4.91-1.99.448.448,0,0,1,.276-.852,35.97,35.97,0,0,1,5.036,2.044.444.444,0,0,1-.2.848Zm-58.224-1.65a.446.446,0,1,1-.079-.889c1.789-.323,3.574-.622,5.307-.9a.45.45,0,1,1,.14.889c-1.727.273-3.506.574-5.288.895a.451.451,0,0,1-.076.011ZM1654,357.314a.445.445,0,1,1-.059-.889c1.808-.241,3.606-.457,5.346-.641a.447.447,0,0,1,.094.889c-1.732.183-3.522.4-5.322.638a.445.445,0,0,1-.06.01Zm37.444-.049a.463.463,0,0,1-.089-.009c-1.657-.341-3.429-.622-5.267-.849a.448.448,0,0,1,.108-.889c1.861.225,3.656.515,5.339.86a.447.447,0,1,1-.089.889Zm-26.759-1.075a.447.447,0,0,1-.033-.894c1.831-.137,3.643-.24,5.38-.307a.454.454,0,0,1,.464.43.444.444,0,0,1-.43.465c-1.728.067-3.528.169-5.348.3Zm16.106-.244h-.026c-1.712-.1-3.511-.148-5.347-.155a.448.448,0,1,1,0-.9h0c1.851.008,3.666.06,5.393.157a.448.448,0,1,1-.024.895Z" transform="translate(-1344.549 -354.894)"/>
        <path id="Path_94" data-name="Path 94" d="M378.618,1056.558h-.009c-1.854-.034-3.668-.116-5.391-.243a.446.446,0,0,1,.066-.889c1.707.125,3.5.206,5.342.24a.448.448,0,1,1-.008.9Zm5.372-.026a.448.448,0,1,1-.012-.9c1.729-.046,3.529-.129,5.349-.246a.448.448,0,0,1,.058.894c-1.832.118-3.643.2-5.383.248Zm10.721-.682a.447.447,0,1,1-.043-.893c1.731-.168,3.523-.368,5.327-.594a.448.448,0,1,1,.111.888c-1.812.228-3.613.428-5.352.6Zm-26.8-.107a.448.448,0,0,1-.064,0c-1.861-.266-3.649-.6-5.317-1a.448.448,0,0,1,.206-.872c1.642.388,3.405.719,5.243.977a.445.445,0,0,1-.063.889Zm37.461-1.226a.445.445,0,1,1-.067-.888c1.728-.26,3.509-.55,5.293-.86a.448.448,0,0,1,.154.882c-1.791.311-3.578.6-5.313.864a.489.489,0,0,1-.069.008Zm-47.885-1.3a.448.448,0,0,1-.155-.028,32.555,32.555,0,0,1-4.938-2.281.447.447,0,0,1,.444-.777,31.667,31.667,0,0,0,4.8,2.222.444.444,0,0,1-.155.868Zm58.47-.54a.447.447,0,0,1-.089-.889c1.717-.334,3.485-.695,5.256-1.073a.447.447,0,1,1,.187.875c-1.777.379-3.55.742-5.272,1.077a.477.477,0,0,1-.08.011Zm10.509-2.243a.445.445,0,1,1-.1-.884c1.712-.4,3.466-.818,5.218-1.251a.448.448,0,1,1,.215.869c-1.754.435-3.514.857-5.231,1.254a.46.46,0,0,1-.1.018Zm10.43-2.584a.444.444,0,0,1-.114-.881c1.71-.45,3.452-.922,5.18-1.4a.448.448,0,0,1,.24.863c-1.731.482-3.478.954-5.192,1.407a.441.441,0,0,1-.112.018Zm-88.6-.048a.445.445,0,0,1-.307-.122,18.708,18.708,0,0,1-3.414-4.286.447.447,0,1,1,.776-.444,17.819,17.819,0,0,0,3.251,4.08.444.444,0,0,1-.307.774Zm98.954-2.83a.444.444,0,0,1-.125-.878c1.7-.5,3.426-1.013,5.142-1.536a.448.448,0,0,1,.261.857c-1.719.525-3.453,1.043-5.154,1.54a.446.446,0,0,1-.123.021Zm10.283-3.134a.444.444,0,0,1-.136-.874q2.536-.807,5.106-1.656a.448.448,0,1,1,.281.85q-2.577.851-5.116,1.659A.453.453,0,0,1,457.531,1041.843Zm-114.492-3.207a.444.444,0,0,1-.436-.351,21.2,21.2,0,0,1-.486-4.591q0-.426.015-.859a.448.448,0,1,1,.895.032q-.015.417-.015.827a20.314,20.314,0,0,0,.464,4.4.444.444,0,0,1-.437.545Zm124.7-.163a.444.444,0,0,1-.145-.872q2.52-.862,5.07-1.764a.448.448,0,0,1,.3.844q-2.554.9-5.078,1.767a.445.445,0,0,1-.148.026Zm-124.442-10.485a.454.454,0,0,1-.1-.011.445.445,0,0,1-.339-.533,41,41,0,0,1,1.558-5.2.448.448,0,1,1,.84.311,40.113,40.113,0,0,0-1.524,5.083.444.444,0,0,1-.439.349Zm3.657-10.074a.447.447,0,0,1-.4-.643c.751-1.548,1.608-3.152,2.546-4.767a.448.448,0,1,1,.774.45c-.927,1.6-1.777,3.18-2.514,4.71a.444.444,0,0,1-.406.251Zm5.367-9.3a.444.444,0,0,1-.373-.695c.956-1.445,1.995-2.932,3.086-4.422a.449.449,0,1,1,.722.533c-1.083,1.479-2.114,2.955-3.062,4.388a.444.444,0,0,1-.377.19Zm6.337-8.674a.444.444,0,0,1-.35-.726c1.084-1.363,2.237-2.762,3.427-4.158a.448.448,0,1,1,.682.581c-1.184,1.388-2.33,2.779-3.408,4.134a.444.444,0,0,1-.355.164Zm6.964-8.182a.444.444,0,0,1-.332-.748c1.175-1.3,2.408-2.628,3.664-3.946a.448.448,0,1,1,.649.618c-1.25,1.313-2.478,2.635-3.648,3.928a.444.444,0,0,1-.336.146Zm7.406-7.784a.444.444,0,0,1-.317-.764c1.24-1.244,2.532-2.512,3.841-3.771a.448.448,0,0,1,.622.645c-1.3,1.255-2.592,2.519-3.827,3.758a.444.444,0,0,1-.321.129Zm7.741-7.453a.444.444,0,0,1-.3-.776c1.292-1.2,2.63-2.415,3.979-3.622a.448.448,0,1,1,.6.667c-1.344,1.2-2.679,2.419-3.968,3.612a.444.444,0,0,1-.307.115Zm8.006-7.167a.444.444,0,0,1-.293-.786c1.333-1.155,2.709-2.33,4.092-3.492a.447.447,0,1,1,.576.685c-1.379,1.155-2.755,2.332-4.082,3.483a.445.445,0,0,1-.3.106Z" transform="translate(-342.116 -840.584)"/>
      </g>
      <g id="Group_43" data-name="Group 43" transform="translate(255.724 293.613)">
        <path id="Path_95" data-name="Path 95" d="M1613.018,1778.439a.444.444,0,0,1-.444-.438l-.052-2.38a.448.448,0,1,1,.9-.02l.051,2.381a.444.444,0,0,1-.438.458Z" transform="translate(-1607.36 -1775.163)"/>
        <path id="Path_96" data-name="Path 96" d="M1613.9,1819.319a.444.444,0,0,1-.444-.438l-.052-2.38a.448.448,0,0,1,.9-.02l.051,2.381a.445.445,0,0,1-.438.457Z" transform="translate(-1608.06 -1807.704)"/>
        <path id="Path_97" data-name="Path 97" d="M1587.644,1802.465a.448.448,0,0,1,0-.9l2.346-.019a.453.453,0,0,1,.451.444.444.444,0,0,1-.444.452l-2.346.019Z" transform="translate(-1587.196 -1796.171)"/>
        <path id="Path_98" data-name="Path 98" d="M1627.924,1802.155a.448.448,0,0,1,0-.9l2.346-.019h0a.448.448,0,0,1,0,.9Z" transform="translate(-1619.264 -1795.919)"/>
      </g>
      <path id="Path_99" data-name="Path 99" d="M1104.487,515.687a4.024,4.024,0,0,1-1.461-.276,4.1,4.1,0,0,1-2.287-2.217,4.2,4.2,0,0,1,2.1-5.487,4,4,0,0,1,3.11-.081,4.1,4.1,0,0,1,2.287,2.217,4.2,4.2,0,0,1-2.1,5.487A4.021,4.021,0,0,1,1104.487,515.687Zm-1.287-7.163a3.3,3.3,0,0,0-1.639,4.316,3.206,3.206,0,0,0,1.79,1.737,3.11,3.11,0,0,0,2.42-.063,3.3,3.3,0,0,0,1.64-4.315,3.206,3.206,0,0,0-1.79-1.737,3.11,3.11,0,0,0-2.422.062Z" transform="translate(-943.914 -472.212)"/>
    </g>
  </g>
</svg>
