<svg xmlns="http://www.w3.org/2000/svg" width="24" height="24" viewBox="0 0 24 24">
  <g id="email" transform="translate(-37.556 -394.909)">
    <rect id="Rectangle_34" data-name="Rectangle 34" width="24" height="24" transform="translate(37.556 394.909)" fill="none"/>
    <g id="menu-4-svgrepo-com" transform="translate(40.556 397.909)">
      <path id="Path_8184" data-name="Path 8184" d="M1.741,0A1.741,1.741,0,1,0,3.482,1.741,1.741,1.741,0,0,0,1.741,0Z" fill="#9b9a9f"/>
      <path id="Path_8185" data-name="Path 8185" d="M207.694,0a1.741,1.741,0,1,0,1.741,1.741A1.741,1.741,0,0,0,207.694,0Z" transform="translate(-198.788 0)" fill="#9b9a9f"/>
      <path id="Path_8186" data-name="Path 8186" d="M413.648,3.482a1.741,1.741,0,1,0-1.741-1.741A1.741,1.741,0,0,0,413.648,3.482Z" transform="translate(-397.577 0)" fill="#9b9a9f"/>
      <path id="Path_8187" data-name="Path 8187" d="M1.741,205.953a1.741,1.741,0,1,0,1.741,1.741A1.741,1.741,0,0,0,1.741,205.953Z" transform="translate(0 -198.788)" fill="#9b9a9f"/>
      <path id="Path_8188" data-name="Path 8188" d="M207.694,205.953a1.741,1.741,0,1,0,1.741,1.741A1.741,1.741,0,0,0,207.694,205.953Z" transform="translate(-198.788 -198.788)" fill="#9b9a9f"/>
      <path id="Path_8189" data-name="Path 8189" d="M413.648,205.953a1.741,1.741,0,1,0,1.741,1.741A1.741,1.741,0,0,0,413.648,205.953Z" transform="translate(-397.577 -198.788)" fill="#9b9a9f"/>
      <path id="Path_8190" data-name="Path 8190" d="M1.741,411.907a1.741,1.741,0,1,0,1.741,1.741A1.741,1.741,0,0,0,1.741,411.907Z" transform="translate(0 -397.577)" fill="#9b9a9f"/>
      <path id="Path_8191" data-name="Path 8191" d="M207.694,411.907a1.741,1.741,0,1,0,1.741,1.741A1.741,1.741,0,0,0,207.694,411.907Z" transform="translate(-198.788 -397.577)" fill="#9b9a9f"/>
      <path id="Path_8192" data-name="Path 8192" d="M413.648,411.907a1.741,1.741,0,1,0,1.741,1.741A1.741,1.741,0,0,0,413.648,411.907Z" transform="translate(-397.577 -397.577)" fill="#9b9a9f"/>
    </g>
  </g>
</svg>
