<svg xmlns="http://www.w3.org/2000/svg" width="56" height="56" viewBox="0 0 56 56">
  <g id="Group_23559" data-name="Group 23559" transform="translate(-195 -1451.533)">
    <g id="Ellipse_942" data-name="Ellipse 942" transform="translate(195 1451.533)" fill="#a7d2cb" stroke="" stroke-width="1">
      <circle cx="28" cy="28" r="28" stroke="none"/>
      <circle cx="28" cy="28" r="27.5" fill="none"/>
    </g>
    <g id="Group_23826" data-name="Group 23826" transform="translate(-1383.811 273.627)">
      <path id="Path_18041" data-name="Path 18041" d="M1617.741,1199.406a3.525,3.525,0,1,1-3.511-3.53A3.526,3.526,0,0,1,1617.741,1199.406Zm-2.711.936c-.014.038-.037.107-.064.174a.178.178,0,0,1-.036.048.99.99,0,0,1-1.519-.261c-.089-.227-.246-.322-.425-.259s-.259.246-.177.485a1.259,1.259,0,0,0,.849.82c.168.054.26.108.251.307a.277.277,0,0,0,.3.291.274.274,0,0,0,.318-.268c0-.229.112-.3.3-.327a.652.652,0,0,0,.169-.064,1.028,1.028,0,0,0,.672-.923,1.044,1.044,0,0,0-.565-1.016,3.825,3.825,0,0,0-.675-.249c-.2-.063-.4-.1-.6-.165a.412.412,0,0,1-.3-.389.482.482,0,0,1,.28-.453.833.833,0,0,1,1.152.35.311.311,0,0,0,.449.166.325.325,0,0,0,.119-.454,1.308,1.308,0,0,0-.815-.728c-.12-.039-.173-.082-.174-.218a.326.326,0,0,0-.32-.363.32.32,0,0,0-.316.363.2.2,0,0,1-.169.223,1.275,1.275,0,0,0-.358.178,1.073,1.073,0,0,0,.14,1.887,4.656,4.656,0,0,0,.669.208,5.884,5.884,0,0,1,.571.186A.476.476,0,0,1,1615.029,1200.342Z" transform="translate(-12.094)" fill="#0e1116"/>
      <path id="Path_18042" data-name="Path 18042" d="M1868.479,1308.438q0-2.759,0-5.517c0-.448.129-.578.572-.578.463,0,.926,0,1.39,0,.367,0,.518.149.518.51q0,5.577,0,11.155c0,.359-.142.5-.5.5q-.735,0-1.47,0c-.372,0-.508-.137-.508-.514Q1868.478,1311.216,1868.479,1308.438Z" transform="translate(-256.014 -100.739)" fill="#0e1116"/>
      <path id="Path_18043" data-name="Path 18043" d="M1785.545,1350.686q0,2.174,0,4.349c0,.43-.123.554-.549.554-.483,0-.967,0-1.45,0-.333,0-.481-.147-.481-.48q0-4.43,0-8.859c0-.335.158-.488.5-.489q.735,0,1.47,0c.363,0,.512.152.512.517Q1785.546,1348.481,1785.545,1350.686Z" transform="translate(-175.193 -141.819)" fill="#0e1116"/>
      <path id="Path_18044" data-name="Path 18044" d="M1697.649,1397.773q0-1.54,0-3.081c0-.4.131-.53.532-.531q.725,0,1.45,0c.349,0,.5.142.5.484q0,3.131,0,6.262c0,.333-.148.478-.481.48q-.755,0-1.51,0c-.345,0-.487-.145-.488-.494Q1697.648,1399.334,1697.649,1397.773Z" transform="translate(-94.374 -187.618)" fill="#0e1116"/>
      <path id="Path_18045" data-name="Path 18045" d="M1606.793,1552.324h-8.378a.454.454,0,0,1-.479-.625.386.386,0,0,1,.358-.3,1.354,1.354,0,0,1,.141,0q8.378,0,16.756-.005a.463.463,0,0,1,.508.59.4.4,0,0,1-.388.344c-.067,0-.134,0-.2,0Z" transform="translate(0 -336.387)" fill="#0e1116"/>
      <path id="Path_18046" data-name="Path 18046" d="M1617.491,1209.971c-.341.017-.655.035-.969.047-.251.009-.388-.1-.4-.294s.12-.333.378-.347q.9-.049,1.79-.091c.361-.017.477.114.426.468q-.127.886-.254,1.772c-.036.249-.174.373-.381.345s-.289-.177-.258-.425c.039-.311.088-.62.138-.972-.077.055-.121.08-.159.113a46.258,46.258,0,0,1-14.386,8.571q-.677.256-1.36.5c-.282.1-.539-.084-.461-.34a.487.487,0,0,1,.265-.264c.779-.306,1.572-.579,2.348-.892a45.347,45.347,0,0,0,13.109-8c.045-.04.09-.08.134-.122A.425.425,0,0,0,1617.491,1209.971Z" transform="translate(-3.474 -12.687)" fill="#0e1116"/>
      <path id="Path_18047" data-name="Path 18047" d="M1614.721,1442.646c0,.617,0,1.235,0,1.853,0,.376-.137.512-.51.513-.5,0-.994,0-1.49,0-.332,0-.479-.148-.479-.481q0-1.893,0-3.786a.416.416,0,0,1,.468-.475q.765-.009,1.531,0c.331,0,.478.154.48.485C1614.723,1441.384,1614.721,1442.015,1614.721,1442.646Z" transform="translate(-13.559 -231.241)" fill="#0e1116"/>
    </g>
  </g>
</svg>
