<svg xmlns="http://www.w3.org/2000/svg" width="41.692" height="33.183" viewBox="0 0 41.692 33.183">
  <path id="mail-01-svgrepo-com" d="M2,9.94,18.168,21.258a9.025,9.025,0,0,0,2.676,1.552,3.958,3.958,0,0,0,1.916,0,9.025,9.025,0,0,0,2.676-1.552L41.6,9.94M11.5,35.683H32.1c3.327,0,4.99,0,6.261-.648a5.939,5.939,0,0,0,2.6-2.6c.648-1.271.648-2.934.648-6.261V13.5c0-3.327,0-4.99-.648-6.261a5.94,5.94,0,0,0-2.6-2.6C37.089,4,35.426,4,32.1,4H11.5c-3.327,0-4.99,0-6.261.647a5.94,5.94,0,0,0-2.6,2.6C2,8.514,2,10.178,2,13.5V26.178c0,3.327,0,4.99.647,6.261a5.94,5.94,0,0,0,2.6,2.6C6.514,35.683,8.178,35.683,11.5,35.683Z" transform="translate(-0.955 -3.25)" fill="none" stroke="#fff" stroke-linecap="round" stroke-linejoin="round" stroke-width="1.5"/>
</svg>
