<svg xmlns="http://www.w3.org/2000/svg" width="81.316" height="14.532" viewBox="0 0 81.316 14.532">
  <g id="Group_24237" data-name="Group 24237" transform="translate(-49.397 -33.67)">
    <path id="Path_19521" data-name="Path 19521" d="M171.166,80.65V77.62a1.778,1.778,0,0,0-1.918-1.918,2.036,2.036,0,0,0-1.724.854,1.773,1.773,0,0,0-1.612-.854,1.625,1.625,0,0,0-1.418.709V75.8h-1.048V80.65h1.064V77.975c0-.854.451-1.257,1.16-1.257s1.064.451,1.064,1.257V80.65H167.8V77.975a1.112,1.112,0,0,1,1.16-1.257c.709,0,1.064.451,1.064,1.257V80.65ZM186.88,75.8h-1.724V74.332h-1.064V75.8h-.967v.967h.967V78.99c0,1.112.451,1.773,1.66,1.773a2.673,2.673,0,0,0,1.305-.355l-.306-.9a1.619,1.619,0,0,1-.9.258c-.5,0-.709-.306-.709-.806V76.782h1.724V75.8Zm8.977-.1a1.4,1.4,0,0,0-1.257.709V75.8h-1.064V80.65H194.6V77.926c0-.806.355-1.257,1.015-1.257a3.115,3.115,0,0,1,.661.1l.306-1.015A3.661,3.661,0,0,0,195.857,75.7Zm-13.586.5a3.435,3.435,0,0,0-1.966-.5c-1.209,0-2.015.612-2.015,1.563,0,.806.612,1.257,1.66,1.418l.5.048c.548.1.854.258.854.5,0,.355-.4.612-1.112.612a2.85,2.85,0,0,1-1.612-.5l-.5.806a3.543,3.543,0,0,0,2.063.612c1.418,0,2.224-.661,2.224-1.563,0-.854-.661-1.305-1.66-1.467l-.5-.048c-.451-.048-.806-.145-.806-.451,0-.355.355-.548.9-.548a3.727,3.727,0,0,1,1.515.4Zm28.188-.5a1.4,1.4,0,0,0-1.257.709V75.8h-1.064V80.65H209.2V77.926c0-.806.355-1.257,1.015-1.257a3.115,3.115,0,0,1,.661.1l.306-1.015A3.826,3.826,0,0,0,210.459,75.7Zm-13.538,2.514a2.432,2.432,0,0,0,2.579,2.53,2.547,2.547,0,0,0,1.724-.548l-.5-.854a2.008,2.008,0,0,1-1.257.451A1.44,1.44,0,0,1,198,78.233a1.5,1.5,0,0,1,1.467-1.563,2.008,2.008,0,0,1,1.257.451l.5-.854a2.521,2.521,0,0,0-1.724-.548A2.407,2.407,0,0,0,196.921,78.217Zm9.8-2.418h-1.064v.612a1.83,1.83,0,0,0-1.515-.709,2.533,2.533,0,0,0,0,5.061,1.709,1.709,0,0,0,1.515-.709v.612h1.064Zm-3.884,2.418a1.47,1.47,0,1,1,2.933,0A1.5,1.5,0,0,1,204.3,79.78,1.474,1.474,0,0,1,202.836,78.217ZM190.152,75.7a2.358,2.358,0,0,0-2.417,2.53,2.382,2.382,0,0,0,2.482,2.53,3.084,3.084,0,0,0,1.966-.661l-.5-.757a2.37,2.37,0,0,1-1.418.5,1.371,1.371,0,0,1-1.467-1.16h3.578v-.4A2.226,2.226,0,0,0,190.152,75.7Zm0,.9a1.173,1.173,0,0,1,1.209,1.16h-2.53A1.3,1.3,0,0,1,190.152,76.6Zm26.319-2.724h-1.064v2.53a1.83,1.83,0,0,0-1.515-.709,2.533,2.533,0,0,0,0,5.061,1.709,1.709,0,0,0,1.515-.709v.612h1.064Zm-3.9,4.335a1.47,1.47,0,1,1,2.933,0,1.47,1.47,0,1,1-2.933,0ZM177.129,75.8h-1.064v.612a1.831,1.831,0,0,0-1.515-.709,2.533,2.533,0,0,0,0,5.061,1.71,1.71,0,0,0,1.515-.709v.612h1.064ZM173.2,78.217a1.47,1.47,0,1,1,2.933,0,1.5,1.5,0,0,1-1.467,1.563A1.474,1.474,0,0,1,173.2,78.217Z" transform="translate(-85.757 -37.22)" fill="#000008"/>
    <path id="Path_19522" data-name="Path 19522" d="M104.72,69.128H98.362V80.549h6.358Z" transform="translate(-40.377 -33.905)" fill="#ff5f00"/>
    <path id="Path_19523" data-name="Path 19523" d="M78.986,71.266a7.294,7.294,0,0,1,2.764-5.714,7.266,7.266,0,1,0,0,11.427A7.264,7.264,0,0,1,78.986,71.266Z" transform="translate(-20.603 -30.33)" fill="#eb001b"/>
    <path id="Path_19524" data-name="Path 19524" d="M120.622,71.266a7.262,7.262,0,0,1-11.75,5.714,7.288,7.288,0,0,0,0-11.427,7.262,7.262,0,0,1,11.75,5.714Z" transform="translate(-47.706 -30.33)" fill="#f79e1b"/>
  </g>
</svg>
