<svg xmlns="http://www.w3.org/2000/svg" width="24" height="24" viewBox="0 0 24 24">
  <g id="email" transform="translate(-37.556 -394.909)">
    <rect id="Rectangle_34" data-name="Rectangle 34" width="24" height="24" transform="translate(37.556 394.909)" fill="none"/>
    <g id="comment-svgrepo-com" transform="translate(35.393 392.785)">
      <path id="Path_8182" data-name="Path 8182" d="M5.051,7.716,5.616,8Zm.56,14.728.449.449h0Zm16-3.25-.288-.566Zm1.665-1.665-.566-.288Zm0-9.812L22.709,8h0ZM21.609,6.051l.288-.566h0Zm-14.893,0L7,6.616Zm1.358,13.93.449.449Zm-2.8-8.248c0-1.078,0-1.848.05-2.451A3.342,3.342,0,0,1,5.616,8L4.485,7.428a4.573,4.573,0,0,0-.431,1.75C4,9.845,4,10.676,4,11.733Zm0,1.524V11.733H4v1.524Zm-1.27,0v6.352H5.27V13.257Zm0,6.352v2.431H5.27V19.609Zm0,2.431a1.207,1.207,0,0,0,2.06.853l-.9-.9a.075.075,0,0,1,.036-.016A.053.053,0,0,1,5.256,22a.075.075,0,0,1,.014.037Zm2.06.853L8.523,20.43l-.9-.9L5.162,21.995Zm11.532-3.919H8.972v1.27h8.62Zm3.728-.346a3.344,3.344,0,0,1-1.277.3c-.6.049-1.374.05-2.451.05v1.27c1.057,0,1.887,0,2.555-.054a4.573,4.573,0,0,0,1.75-.431Zm1.388-1.388a3.176,3.176,0,0,1-1.388,1.388l.577,1.132a4.446,4.446,0,0,0,1.943-1.943Zm.346-3.728c0,1.078,0,1.848-.05,2.451a3.344,3.344,0,0,1-.3,1.277l1.132.577a4.573,4.573,0,0,0,.431-1.75c.054-.667.054-1.5.054-2.555Zm0-1.778v1.778h1.27V11.733ZM22.709,8A3.343,3.343,0,0,1,23,9.281c.049.6.05,1.374.05,2.451h1.27c0-1.057,0-1.887-.054-2.555a4.573,4.573,0,0,0-.431-1.75ZM21.321,6.616A3.176,3.176,0,0,1,22.709,8l1.132-.577A4.446,4.446,0,0,0,21.9,5.485ZM17.592,6.27c1.078,0,1.848,0,2.451.05a3.343,3.343,0,0,1,1.277.3L21.9,5.485a4.573,4.573,0,0,0-1.75-.431C19.48,5,18.649,5,17.592,5Zm-6.86,0h6.86V5h-6.86ZM7,6.616a3.342,3.342,0,0,1,1.277-.3c.6-.049,1.374-.05,2.451-.05V5c-1.057,0-1.887,0-2.555.054a4.573,4.573,0,0,0-1.75.431ZM5.616,8A3.176,3.176,0,0,1,7,6.616L6.428,5.485A4.446,4.446,0,0,0,4.485,7.428ZM8.523,20.43a.635.635,0,0,1,.449-.186v-1.27a1.905,1.905,0,0,0-1.347.558Z" fill="#9b9a9f"/>
      <path id="Path_8183" data-name="Path 8183" d="M8.5,9.5h8.892M8.5,13.311h6.352" transform="translate(1.216 1.216)" fill="none" stroke="#9b9a9f" stroke-linecap="round" stroke-linejoin="round" stroke-width="1"/>
    </g>
  </g>
</svg>
