<svg xmlns="http://www.w3.org/2000/svg" width="56" height="56" viewBox="0 0 56 56">
  <g id="Group_23559" data-name="Group 23559" transform="translate(-195 -1452)">
    <g id="Ellipse_942" data-name="Ellipse 942" transform="translate(195 1452)" fill="#f6c4bb" stroke="" stroke-width="1">
      <circle cx="28" cy="28" r="28" stroke="none"/>
      <circle cx="28" cy="28" r="27.5" fill="none"/>
    </g>
    <g id="smartphone-chat-svgrepo-com" transform="translate(161.064 1467.23)">
      <g id="Group_23567" data-name="Group 23567" transform="translate(55.466)">
        <g id="Group_23566" data-name="Group 23566">
          <path id="Path_17814" data-name="Path 17814" d="M176.606,426.668h-.782a.886.886,0,0,0-.886.886v.782a.886.886,0,0,0,.886.886h.782a.886.886,0,0,0,.886-.886v-.782A.886.886,0,0,0,176.606,426.668Zm.035,1.668a.035.035,0,0,1-.035.035h-.782a.035.035,0,0,1-.035-.035v-.782a.035.035,0,0,1,.035-.035h.782a.035.035,0,0,1,.035.035Z" transform="translate(-168.978 -405.384)"/>
          <path id="Path_17816" data-name="Path 17816" d="M75.473,8.735a7.034,7.034,0,0,0-5.534-6.871V1.687A1.686,1.686,0,0,0,68.253,0h-11.1a1.686,1.686,0,0,0-1.687,1.687V23.854a1.686,1.686,0,0,0,1.687,1.686h11.1a1.686,1.686,0,0,0,1.686-1.686V20.436s0,0,0,0,0,0,0,0V15.606A7.034,7.034,0,0,0,75.473,8.735ZM69.088,20.007h-2.98a.426.426,0,1,0,0,.851h2.98v3a.835.835,0,0,1-.835.835h-11.1a.835.835,0,0,1-.835-.835V3.405H59.3a.426.426,0,1,0,0-.851h-2.98V1.687a.835.835,0,0,1,.835-.835h11.1a.835.835,0,0,1,.835.835,5.08,5.08,0,0,1-.647.016,7.032,7.032,0,0,0-6.146,10.448l-1.1,3.287h0l-.249.746,4.368-1.149a7,7,0,0,0,3.123.731l.163,0q.244-.006.484-.028Z" transform="translate(-55.466)"/>
          <path id="Path_17815" data-name="Path 17815" d="M311.948,62.928a.426.426,0,0,0-.1.846,5.15,5.15,0,0,1,3.865,2.6.426.426,0,1,0,.746-.409A6,6,0,0,0,311.948,62.928Z" transform="translate(-298.703 -59.786)" fill="#fff"/>
        </g>
      </g>
    </g>
  </g>
</svg>
