<svg xmlns="http://www.w3.org/2000/svg" width="56" height="56" viewBox="0 0 56 56">
  <g id="Group_23559" data-name="Group 23559" transform="translate(-195 -1451.533)">
    <g id="Ellipse_942" data-name="Ellipse 942" transform="translate(195 1451.533)" fill="#fcf" stroke="" stroke-width="1">
      <circle cx="28" cy="28" r="28" stroke="none"/>
      <circle cx="28" cy="28" r="27.5" fill="none"/>
    </g>
    <g id="Group_23819" data-name="Group 23819" transform="translate(-61.596 609.54)">
      <path id="Path_18028" data-name="Path 18028" d="M290.665,882.8l1.511-1.509a9.5,9.5,0,1,1-3.022-3.024c-.032.038-.06.079-.094.113-.434.436-.872.87-1.3,1.31a.183.183,0,0,1-.256.043,7.454,7.454,0,1,0,3.694,8.97,7.268,7.268,0,0,0-.437-5.713Z" transform="translate(0 -15.903)" fill="#0e1116"/>
      <path id="Path_18029" data-name="Path 18029" d="M349.54,944.526c-.545.543-1.069,1.071-1.6,1.587a.439.439,0,0,1-.294.058,3.52,3.52,0,0,0-3.346,1.69,3.6,3.6,0,1,0,6.577,2.6,6.508,6.508,0,0,0,.043-1.131.391.391,0,0,1,.114-.321c.5-.5,1-1,1.5-1.505a5.624,5.624,0,0,1-1.334,6.465,5.7,5.7,0,0,1-8.436-7.575A5.625,5.625,0,0,1,349.54,944.526Z" transform="translate(-63.221 -79.291)" fill="#0e1116"/>
      <path id="Path_18030" data-name="Path 18030" d="M418.368,860c.073.538.151,1.076.217,1.616.014.116.057.151.17.165.538.065,1.075.141,1.642.218-.057.066-.094.115-.137.158-.7.7-1.408,1.407-2.106,2.116a.338.338,0,0,1-.339.106c-.683-.116-.684-.112-1.179.385q-2.4,2.409-4.812,4.816a.3.3,0,0,0-.1.351,1.889,1.889,0,1,1-1.273-1.277.3.3,0,0,0,.35-.094q2.564-2.584,5.14-5.156a.312.312,0,0,0,.111-.341,1.069,1.069,0,0,1,.434-1.253c.586-.524,1.119-1.107,1.673-1.667a1.514,1.514,0,0,0,.138-.189Z" transform="translate(-125.791 0)" fill="#0e1116"/>
    </g>
  </g>
</svg>
