<svg xmlns="http://www.w3.org/2000/svg" width="70" height="70" viewBox="0 0 70 70">
  <g id="Group_23574" data-name="Group 23574" transform="translate(-195 -1451.533)">
    <circle id="Ellipse_942" data-name="Ellipse 942" cx="35" cy="35" r="35" transform="translate(195 1451.533)" fill="#c1ebc0"/>
    <g id="Group_23860" data-name="Group 23860" transform="translate(809.032 1149.533)">
      <path id="Path_18191" data-name="Path 18191" d="M-396.33,324a.719.719,0,0,1,.362.722c-.015.756,0,1.512-.007,2.268,0,.426-.329.68-.683.545a.5.5,0,0,1-.334-.494c-.005-.832,0-1.665,0-2.5a.642.642,0,0,1,.357-.543Z" transform="translate(-182.225)"/>
      <path id="Path_18192" data-name="Path 18192" d="M-396.736,769.686a.719.719,0,0,1-.362-.722c.015-.756,0-1.512.007-2.268,0-.426.33-.681.683-.545a.5.5,0,0,1,.334.494c.005.832,0,1.665,0,2.5a.643.643,0,0,1-.357.543Z" transform="translate(-182.125 -419.523)"/>
      <path id="Path_18193" data-name="Path 18193" d="M-588,445.955c.8-.676,1.569-1.31,2.321-1.963a1.211,1.211,0,0,1,.853-.315q7.243.013,14.486.006c.657,0,.97-.34.914-1.022h-.27c-1,0-2.01,0-3.015,0-.356,0-.571-.177-.593-.467-.025-.332.2-.551.582-.553,1,0,1.993,0,2.989,0h.322v-.275q0-5.02,0-10.041c0-.67-.289-.957-.969-.957h-11.395a2.175,2.175,0,0,1-.356-.02.5.5,0,0,1-.409-.486.5.5,0,0,1,.382-.483,1.516,1.516,0,0,1,.329-.031q5.723,0,11.446,0a1.835,1.835,0,0,1,1.995,2.007q0,5.672,0,11.344a1.835,1.835,0,0,1-2.015,2.01q-7.128,0-14.256,0a.685.685,0,0,0-.481.174c-.979.833-1.966,1.658-2.947,2.488a.569.569,0,0,1-.651.151.569.569,0,0,1-.3-.6q0-7.818,0-15.636a1.81,1.81,0,0,1,1.86-1.932c.315-.012.63-.008.945,0,.383.008.611.2.614.506s-.228.5-.606.513c-.323.007-.648-.007-.971,0a.778.778,0,0,0-.82.845q0,7.281,0,14.563C-588.008,445.82-588,445.86-588,445.955Z" transform="translate(0 -99.959)"/>
      <path id="Path_18194" data-name="Path 18194" d="M-374.248,528.868c0-.7,0-1.4,0-2.094,0-.466.185-.659.65-.649a7.54,7.54,0,0,1,1.522.087,2.362,2.362,0,0,1,1.869,2.343,3.294,3.294,0,0,1-.276,1.766,2.394,2.394,0,0,1-2.126,1.315c-.357.015-.715.009-1.073,0a.512.512,0,0,1-.565-.575C-374.253,530.332-374.248,529.6-374.248,528.868Zm1.041-1.736v3.484c.222,0,.425.007.628,0a1.354,1.354,0,0,0,1.317-1.167,4.506,4.506,0,0,0,0-1.143,1.316,1.316,0,0,0-1.13-1.125C-372.652,527.139-372.918,527.147-373.207,527.132Z" transform="translate(-203.807 -191.796)"/>
      <path id="Path_18195" data-name="Path 18195" d="M-474.672,531.2a.518.518,0,0,1-.4.536.489.489,0,0,1-.564-.293,8.025,8.025,0,0,1-.273-.8.231.231,0,0,0-.271-.192c-.34.011-.681.012-1.021,0a.229.229,0,0,0-.269.2c-.064.229-.144.453-.226.677a.522.522,0,0,1-.668.388.519.519,0,0,1-.3-.711c.487-1.459.981-2.915,1.471-4.373a.51.51,0,0,1,.5-.4.514.514,0,0,1,.5.4q.735,2.187,1.469,4.374A1.4,1.4,0,0,1-474.672,531.2Zm-2.374-1.775h.721l-.361-1.076Z" transform="translate(-104.696 -191.9)"/>
      <path id="Path_18196" data-name="Path 18196" d="M-506.879,341.738a2.6,2.6,0,0,1,.437.27c.567.552,1.125,1.113,1.681,1.676a.52.52,0,0,1,.055.77.508.508,0,0,1-.77-.046c-.57-.561-1.134-1.128-1.7-1.7a.47.47,0,0,1-.127-.6A2,2,0,0,1-506.879,341.738Z" transform="translate(-77.496 -16.832)"/>
      <path id="Path_18197" data-name="Path 18197" d="M-319.241,343.072a.522.522,0,0,1,.512.761,1.029,1.029,0,0,1-.16.2q-.8.805-1.607,1.606a1.032,1.032,0,0,1-.218.174.472.472,0,0,1-.587-.083.5.5,0,0,1-.081-.608.936.936,0,0,1,.142-.179c.546-.549,1.09-1.1,1.645-1.64A1.784,1.784,0,0,1-319.241,343.072Z" transform="translate(-253.908 -18.097)"/>
      <path id="Path_18198" data-name="Path 18198" d="M-506.539,764.924a.518.518,0,0,1-.514-.75.866.866,0,0,1,.14-.181q.828-.833,1.66-1.661a.526.526,0,0,1,.6-.173.429.429,0,0,1,.316.419.727.727,0,0,1-.162.432c-.565.59-1.145,1.165-1.73,1.735A1.2,1.2,0,0,1-506.539,764.924Z" transform="translate(-77.73 -415.736)"/>
      <path id="Path_18199" data-name="Path 18199" d="M-321.167,760.743a2.353,2.353,0,0,1,.441.258c.573.558,1.138,1.124,1.7,1.694a.518.518,0,0,1,.039.77.5.5,0,0,1-.751-.044c-.577-.566-1.145-1.141-1.716-1.713a.47.47,0,0,1-.127-.579A1.92,1.92,0,0,1-321.167,760.743Z" transform="translate(-253.732 -414.425)"/>
      <path id="Path_18200" data-name="Path 18200" d="M-501.427,430.641a.506.506,0,0,1-.5-.5.511.511,0,0,1,.512-.5.511.511,0,0,1,.5.506A.506.506,0,0,1-501.427,430.641Z" transform="translate(-82.651 -100.242)"/>
      <path id="Path_18201" data-name="Path 18201" d="M-320.383,670.082a.524.524,0,0,1,.5.51.523.523,0,0,1-.509.5.528.528,0,0,1-.5-.51A.528.528,0,0,1-320.383,670.082Z" transform="translate(-254.436 -328.397)"/>
    </g>
  </g>
</svg>
