<svg xmlns="http://www.w3.org/2000/svg" width="72.473" height="21.223" viewBox="0 0 72.473 21.223">
  <g id="Group_24250" data-name="Group 24250" transform="translate(-61.663 -31.806)">
    <path id="Path_19526" data-name="Path 19526" d="M106.139,80.867l.306-1.941-.681-.016h-3.251l2.259-14.324a.187.187,0,0,1,.063-.112.184.184,0,0,1,.12-.044h5.482c1.82,0,3.075.379,3.731,1.126a2.571,2.571,0,0,1,.6,1.12,4.042,4.042,0,0,1,0,1.545l-.007.045v.395l.308.174a2.159,2.159,0,0,1,.622.474,2.209,2.209,0,0,1,.505,1.132,4.8,4.8,0,0,1-.072,1.643,5.791,5.791,0,0,1-.673,1.86,3.828,3.828,0,0,1-1.067,1.169,4.328,4.328,0,0,1-1.436.648,7.172,7.172,0,0,1-1.8.207h-.427a1.283,1.283,0,0,0-1.269,1.083l-.032.175-.54,3.421-.024.126a.11.11,0,0,1-.034.073.092.092,0,0,1-.056.02Z" transform="translate(-40.142 -28.437)" fill="#253b80"/>
    <path id="Path_19527" data-name="Path 19527" d="M120.859,75.438q-.025.157-.056.321c-.723,3.711-3.2,4.993-6.355,4.993h-1.608a.781.781,0,0,0-.772.661l-1.057,6.7a.412.412,0,0,0,.406.476h2.852a.686.686,0,0,0,.678-.578l.028-.145.537-3.408.035-.187a.686.686,0,0,1,.678-.58h.427c2.764,0,4.927-1.122,5.559-4.369a3.719,3.719,0,0,0-.572-3.285A2.721,2.721,0,0,0,120.859,75.438Z" transform="translate(-45.64 -35.563)" fill="#179bd7"/>
    <g id="Group_24238" data-name="Group 24238" transform="translate(-0.087 -3.589)">
      <path id="Path_19528" data-name="Path 19528" d="M122.047,74.1q-.166-.048-.341-.088t-.362-.068a8.932,8.932,0,0,0-1.418-.1h-4.3a.685.685,0,0,0-.677.58l-.914,5.788-.026.169a.781.781,0,0,1,.772-.661h1.608c3.159,0,5.632-1.283,6.355-4.993.022-.11.04-.217.056-.321a3.839,3.839,0,0,0-.594-.251C122.156,74.138,122.1,74.121,122.047,74.1Z" transform="translate(-47.586 -34.531)" fill="#222d65"/>
      <path id="Path_19529" data-name="Path 19529" d="M106.372,67.233a.686.686,0,0,1,.677-.579h4.3a8.93,8.93,0,0,1,1.418.1c.124.02.244.043.362.068s.231.056.341.088l.162.05a3.9,3.9,0,0,1,.594.251,3.5,3.5,0,0,0-.743-3.151c-.818-.931-2.293-1.329-4.181-1.329h-5.482a.784.784,0,0,0-.774.662L100.76,77.867a.471.471,0,0,0,.464.545h3.385Z" transform="translate(-39.004 -27.339)" fill="#253b80"/>
      <path id="Path_19530" data-name="Path 19530" d="M166.116,73.459H162.1a.558.558,0,0,0-.551.471l-1.623,10.292a.334.334,0,0,0,.331.386h1.916a.558.558,0,0,0,.551-.471l.438-2.776a.556.556,0,0,1,.55-.471h1.271c2.644,0,4.17-1.279,4.569-3.814a3.092,3.092,0,0,0-.512-2.591A3.726,3.726,0,0,0,166.116,73.459Zm.463,3.759c-.219,1.44-1.32,1.44-2.384,1.44h-.606l.425-2.69a.334.334,0,0,1,.33-.282h.278c.725,0,1.409,0,1.762.413A1.338,1.338,0,0,1,166.579,77.218Zm11.535-.046h-1.922a.335.335,0,0,0-.33.282l-.085.537-.134-.195a2.736,2.736,0,0,0-2.27-.806,4.42,4.42,0,0,0-4.291,3.865,3.626,3.626,0,0,0,.716,2.952,3.008,3.008,0,0,0,2.421.978,3.678,3.678,0,0,0,2.66-1.1l-.086.534a.334.334,0,0,0,.33.387h1.732a.558.558,0,0,0,.551-.471l1.039-6.578A.333.333,0,0,0,178.114,77.172Zm-2.679,3.741a2.142,2.142,0,0,1-2.168,1.835,1.489,1.489,0,0,1-1.592-1.868,2.151,2.151,0,0,1,2.154-1.85,1.621,1.621,0,0,1,1.282.523A1.663,1.663,0,0,1,175.435,80.913Zm10.985-3.741h1.932a.334.334,0,0,1,.274.525L182.2,86.969a.557.557,0,0,1-.458.239h-1.929a.335.335,0,0,1-.273-.528l2-2.823-2.128-6.243a.335.335,0,0,1,.318-.442h1.9a.56.56,0,0,1,.535.4l1.129,3.77,2.664-3.924A.56.56,0,0,1,186.42,77.172Z" transform="translate(-77.305 -34.281)" fill="#253b80" fill-rule="evenodd"/>
      <path id="Path_19531" data-name="Path 19531" d="M259.912,84.218l1.647-10.48a.336.336,0,0,1,.33-.283h1.854a.334.334,0,0,1,.33.387l-1.624,10.291a.557.557,0,0,1-.551.471h-1.656A.334.334,0,0,1,259.912,84.218ZM247.3,73.456h-4.015a.558.558,0,0,0-.551.471l-1.623,10.291a.334.334,0,0,0,.33.386h2.06a.39.39,0,0,0,.385-.33l.461-2.917a.557.557,0,0,1,.551-.471h1.27c2.645,0,4.17-1.279,4.569-3.815a3.09,3.09,0,0,0-.512-2.591A3.721,3.721,0,0,0,247.3,73.456Zm.463,3.759c-.219,1.44-1.319,1.44-2.384,1.44h-.605l.426-2.69a.333.333,0,0,1,.33-.282h.278c.724,0,1.409,0,1.762.413A1.337,1.337,0,0,1,247.76,77.215Zm11.534-.046h-1.921a.333.333,0,0,0-.33.282l-.085.537-.135-.195a2.734,2.734,0,0,0-2.27-.806,4.419,4.419,0,0,0-4.291,3.865,3.629,3.629,0,0,0,.716,2.952,3.01,3.01,0,0,0,2.421.978,3.678,3.678,0,0,0,2.66-1.1l-.086.534a.335.335,0,0,0,.331.387h1.731a.557.557,0,0,0,.551-.471l1.039-6.578A.335.335,0,0,0,259.294,77.168Zm-2.679,3.741a2.142,2.142,0,0,1-2.169,1.835,1.489,1.489,0,0,1-1.592-1.868,2.152,2.152,0,0,1,2.154-1.85,1.622,1.622,0,0,1,1.282.523A1.656,1.656,0,0,1,256.615,80.909Z" transform="translate(-129.854 -34.279)" fill="#179bd7" fill-rule="evenodd"/>
    </g>
  </g>
</svg>
