<svg xmlns="http://www.w3.org/2000/svg" xmlns:xlink="http://www.w3.org/1999/xlink" width="116" height="116" viewBox="0 0 116 116">
  <defs>
    <filter id="Ellipse_915" x="8.5" y="15.5" width="99" height="99" filterUnits="userSpaceOnUse">
      <feOffset dy="7" input="SourceAlpha"/>
      <feGaussianBlur stdDeviation="2.5" result="blur"/>
      <feFlood flood-opacity="0.161"/>
      <feComposite operator="in" in2="blur"/>
      <feComposite in="SourceGraphic"/>
    </filter>
  </defs>
  <g id="Group_23240" data-name="Group 23240" transform="translate(-1106 -1064)">
    <circle id="Ellipse_918" data-name="Ellipse 918" cx="58" cy="58" r="58" transform="translate(1106 1064)" fill="#e51635"/>
    <g transform="matrix(1, 0, 0, 1, 1106, 1064)" filter="url(#Ellipse_915)">
      <circle id="Ellipse_915-2" data-name="Ellipse 915" cx="42" cy="42" r="42" transform="translate(16 16)" fill="#f8f9fa"/>
    </g>
    <g id="Group_23239" data-name="Group 23239" transform="translate(1637.344 1069.99)">
      <path id="Path_17349" data-name="Path 17349" d="M-494.344,158.562c.028-.075.06-.149.082-.226a2.626,2.626,0,0,1,2.225-2,2.556,2.556,0,0,1,2.592,1.091,4.056,4.056,0,0,1,.53,1c.727,1.912,1.434,3.831,2.148,5.748.046.124.1.245.162.394a3,3,0,0,1,3.257.355c1.94,1.293,3.92,2.527,5.881,3.79a10.115,10.115,0,0,1,3.814,4.341c.037.081.084.157.154.285.075-.143.126-.232.169-.325a10.111,10.111,0,0,1,3.768-4.278c2.051-1.323,4.115-2.626,6.157-3.961a2.845,2.845,0,0,1,3.007-.21c.056-.132.118-.259.167-.392.73-1.954,1.456-3.91,2.19-5.862a2.89,2.89,0,0,1,2.035-1.937,2.711,2.711,0,0,1,3.238,1.844c.035.115.076.229.115.343v.9a2.108,2.108,0,0,0-.1.256c-.756,3.036-1.564,6.06-2.25,9.111a14.27,14.27,0,0,1-5.1,8.274,37.524,37.524,0,0,1-3.371,2.415,1.751,1.751,0,0,0-.929,1.8c.082,1.353-.583,1.966-1.931,1.966h-14.326c-.135,0-.272,0-.406-.008a1.626,1.626,0,0,1-1.543-1.635c-.009-.38.024-.762-.014-1.138a.753.753,0,0,0-.25-.487c-1.213-.89-2.463-1.732-3.662-2.64A13.543,13.543,0,0,1-491.667,170c-.667-2.471-1.243-4.966-1.867-7.448-.26-1.034-.539-2.063-.809-3.094Zm20.024,23.065c0-.17,0-.316,0-.461,0-1.207.015-2.415,0-3.622a8.481,8.481,0,0,0-3.964-7.412c-2.071-1.365-4.172-2.685-6.261-4.022a1.077,1.077,0,0,0-1.579.2,1.068,1.068,0,0,0,.361,1.514c1.2.949,2.41,1.893,3.606,2.852a1.314,1.314,0,0,1,.419.525.728.728,0,0,1-.3.895.79.79,0,0,1-1.014-.061c-1.3-1.026-2.592-2.056-3.893-3.078a2.624,2.624,0,0,1-.963-2.569,1.664,1.664,0,0,0-.061-.737c-.732-2.01-1.483-4.014-2.233-6.017a8.046,8.046,0,0,0-.452-1.085,1.06,1.06,0,0,0-1.411-.525,1.055,1.055,0,0,0-.585,1.35c.783,3.154,1.6,6.3,2.346,9.464a12.509,12.509,0,0,0,5.125,7.514c1.215.865,2.42,1.744,3.642,2.6a1.15,1.15,0,0,1,.555,1.092c-.029.522-.007,1.047-.007,1.588Zm8.308,0c0-.576.019-1.106-.006-1.633a1.091,1.091,0,0,1,.528-1.022c1.354-.951,2.712-1.9,4.035-2.891a11.705,11.705,0,0,0,4.49-6.32c.952-3.489,1.777-7.013,2.65-10.524a1.021,1.021,0,0,0-.528-1.169.989.989,0,0,0-1.265.175,2.3,2.3,0,0,0-.438.721q-1.28,3.383-2.526,6.779a1.242,1.242,0,0,0-.036.584,2.609,2.609,0,0,1-.966,2.643c-.439.341-.872.691-1.309,1.036-.862.682-1.72,1.368-2.589,2.042a.789.789,0,0,1-1.015.034.746.746,0,0,1-.27-.906,1.273,1.273,0,0,1,.4-.491c1.25-1,2.513-1.984,3.766-2.981a1.014,1.014,0,0,0,.281-1.28,1.034,1.034,0,0,0-1.2-.53,1.644,1.644,0,0,0-.435.213c-2.113,1.352-4.238,2.686-6.332,4.068a8.108,8.108,0,0,0-3.81,6.2c-.163,1.708-.064,3.441-.082,5.163,0,.023.021.047.043.1Z" transform="translate(0 -110.79)" fill="#e51635" stroke="#e51635" stroke-width="0.5"/>
      <path id="Path_17350" data-name="Path 17350" d="M-413.7,49.566h-.483c-1.4,0-2.8,0-4.193,0a1.667,1.667,0,0,1-1.749-1.736q-.012-2.1,0-4.193a4,4,0,0,1,2.76-3.865c.05-.018.1-.045.191-.089a4.6,4.6,0,0,1-1.135-3.689,4.414,4.414,0,0,1,1.2-2.527,4.584,4.584,0,0,1,5.231-1.046c1.912.871,2.834,2.638,2.633,5.124a4.859,4.859,0,0,1,3.812.023,4.766,4.766,0,0,1,.62-3.395,4.546,4.546,0,0,1,2.717-2,4.568,4.568,0,0,1,4.942,1.825,4.633,4.633,0,0,1-.342,5.686c.15.064.294.123.435.186a3.9,3.9,0,0,1,2.487,3.644c.048,1.45.02,2.9.008,4.355a1.659,1.659,0,0,1-1.7,1.7c-1.411.009-2.822,0-4.234,0h-.485c0,.779,0,1.521,0,2.263,0,.434.009.869,0,1.3A1.6,1.6,0,0,1-402.54,54.7c-.352.013-.706.012-1.058,0a.785.785,0,0,1-.828-.769.8.8,0,0,1,.8-.848c.321-.022.645,0,.989,0,.011-.142.026-.247.026-.351,0-1.316.006-2.632,0-3.949a2.36,2.36,0,0,0-2.4-2.445c-1.56-.022-3.121-.025-4.681,0a2.35,2.35,0,0,0-2.374,2.425c-.008,1.33,0,2.66,0,3.989,0,.093,0,.185,0,.325.329,0,.623-.007.917,0a.824.824,0,0,1,.914.823c0,.487-.353.795-.923.8-.312,0-.624.007-.936,0a1.592,1.592,0,0,1-1.6-1.61C-413.707,51.942-413.7,50.789-413.7,49.566Zm17.493-1.649c.01-.09.018-.13.018-.17,0-1.343,0-2.687,0-4.03a2.4,2.4,0,0,0-2.528-2.529c-1.221,0-2.443,0-3.664,0h-.3a12.8,12.8,0,0,1-.316,1.953,12.325,12.325,0,0,1-.854,1.726,4.088,4.088,0,0,1,2.8,3.052Zm-15.718-6.73c-1.4,0-2.763-.008-4.13,0a2.384,2.384,0,0,0-2.441,2.451c-.008,1.33,0,2.66,0,3.99,0,.091.013.182.022.289h4.838a4.133,4.133,0,0,1,2.872-3.084A4.9,4.9,0,0,1-411.923,41.187Zm-4.791-4.619a2.944,2.944,0,0,0,2.909,2.987,2.948,2.948,0,0,0,3-2.941,2.96,2.96,0,0,0-2.934-2.972A2.952,2.952,0,0,0-416.714,36.567Zm18.747.041a2.952,2.952,0,0,0-2.934-2.967,2.961,2.961,0,0,0-2.975,2.971,2.949,2.949,0,0,0,2.958,2.942A2.944,2.944,0,0,0-397.967,36.608Zm-6.422,5.14a2.933,2.933,0,0,0-2.939-2.953,2.933,2.933,0,0,0-2.964,2.928,2.934,2.934,0,0,0,2.959,2.974A2.933,2.933,0,0,0-404.389,41.748Z" transform="translate(-66.158)" fill="#e51635" stroke="#e51635" stroke-width="0.5"/>
      <path id="Path_17351" data-name="Path 17351" d="M-309.007,227.747a.8.8,0,0,1-.811-.824.83.83,0,0,1,.812-.794.827.827,0,0,1,.811.835A.8.8,0,0,1-309.007,227.747Z" transform="translate(-164.492 -173.043)" fill="#e51635" stroke="#e51635" stroke-width="0.5"/>
    </g>
  </g>
</svg>
