<svg xmlns="http://www.w3.org/2000/svg" width="65" height="65" viewBox="0 0 65 65">
  <g id="Group_24251" data-name="Group 24251" transform="translate(-195 -1662)">
    <circle id="Ellipse_2" data-name="Ellipse 2" cx="32.5" cy="32.5" r="32.5" transform="translate(195 1662)" fill="#e51635" opacity="0.2"/>
    <g id="support-music-listen-headphone-earphone-headset-svgrepo-com" transform="translate(212.856 1678.679)">
      <rect id="Headset" width="26.465" height="26.465" transform="translate(1.411 1.589)" fill="none"/>
      <g id="Group_18" data-name="Group 18" transform="translate(4.425 4.742)">
        <path id="Path_3" data-name="Path 3" d="M222.052,547.729a2.39,2.39,0,0,0-2.39-2.39h0a2.39,2.39,0,0,0-2.39,2.39v3.533a2.39,2.39,0,0,0,2.39,2.39h0a2.39,2.39,0,0,0,2.39-2.39Zm-11.544,0a2.39,2.39,0,0,0-2.39-2.39h0a2.39,2.39,0,0,0-2.39,2.39v3.533a2.39,2.39,0,0,0,2.39,2.39h0a2.39,2.39,0,0,0,2.39-2.39Zm9.993,0v3.533a.839.839,0,0,1-.839.839h0a.839.839,0,0,1-.839-.839v-3.533a.84.84,0,0,1,.839-.839h0a.84.84,0,0,1,.839.839Zm-11.544,0v3.533a.839.839,0,0,1-.839.839h0a.839.839,0,0,1-.839-.839v-3.533a.84.84,0,0,1,.839-.839h0a.84.84,0,0,1,.839.839Z" transform="translate(-203.67 -535.001)" fill="rgba(0,0,0,0.5)" fill-rule="evenodd"/>
        <path id="Path_4" data-name="Path 4" d="M143.324,143.214v-5.495a9.046,9.046,0,0,0-9.046-9.046h-2.346a9.046,9.046,0,0,0-9.046,9.046v5.495a.775.775,0,1,0,1.551,0v-5.495a7.5,7.5,0,0,1,7.495-7.5h2.346a7.5,7.5,0,0,1,7.5,7.495v5.495a.775.775,0,0,0,1.551,0ZM130.8,132.532h4.156a.775.775,0,1,0,0-1.551H130.8a.775.775,0,0,0,0,1.551Z" transform="translate(-122.887 -128.673)" fill-rule="evenodd"/>
      </g>
    </g>
  </g>
</svg>
