<svg xmlns="http://www.w3.org/2000/svg" width="65" height="65" viewBox="0 0 65 65">
  <g id="Group_24252" data-name="Group 24252" transform="translate(-195 -1662)">
    <path id="Path_8" data-name="Path 8" d="M32.5,0A32.5,32.5,0,1,1,0,32.5,32.5,32.5,0,0,1,32.5,0Z" transform="translate(195 1662)" fill="#b4cfff"/>
    <g id="analytics-business-chart-finance-graph-money-svgrepo-com" transform="translate(216 1683)">
      <path id="Path_5" data-name="Path 5" d="M1,19.657A1.657,1.657,0,0,1,2.657,18H5.142A1.657,1.657,0,0,1,6.8,19.657V23.8a1.657,1.657,0,0,1-1.657,1.657H2.657A1.657,1.657,0,0,1,1,23.8Zm4.142.331a.331.331,0,0,0-.331-.331H2.988a.331.331,0,0,0-.331.331v3.48a.331.331,0,0,0,.331.331H4.811a.331.331,0,0,0,.331-.331Z" transform="translate(0 -2.916)" fill-rule="evenodd"/>
      <path id="Path_6" data-name="Path 6" d="M10,2.657A1.657,1.657,0,0,1,11.657,1h2.485A1.657,1.657,0,0,1,15.8,2.657V20.883a1.657,1.657,0,0,1-1.657,1.657H11.657A1.657,1.657,0,0,1,10,20.883Zm4.142.331a.331.331,0,0,0-.331-.331H11.988a.331.331,0,0,0-.331.331V20.552a.331.331,0,0,0,.331.331h1.823a.331.331,0,0,0,.331-.331Z" transform="translate(-1.544)" fill-rule="evenodd"/>
      <path id="Path_7" data-name="Path 7" d="M19,10.657A1.657,1.657,0,0,1,20.657,9h2.485A1.657,1.657,0,0,1,24.8,10.657v11.6a1.657,1.657,0,0,1-1.657,1.657H20.657A1.657,1.657,0,0,1,19,22.255Zm4.142.331a.331.331,0,0,0-.331-.331H20.988a.331.331,0,0,0-.331.331V21.924a.331.331,0,0,0,.331.331h1.823a.331.331,0,0,0,.331-.331Z" transform="translate(-3.088 -1.372)" fill-rule="evenodd"/>
    </g>
  </g>
</svg>
