<svg xmlns="http://www.w3.org/2000/svg" width="65" height="65" viewBox="0 0 65 65">
  <g id="Group_24250" data-name="Group 24250" transform="translate(-195 -1662)">
    <circle id="Ellipse_2" data-name="Ellipse 2" cx="32.5" cy="32.5" r="32.5" transform="translate(195 1662)" fill="#e1ffe1"/>
    <g id="refresh-svgrepo-com" transform="translate(215.5 1682.5)">
      <path id="Path_1" data-name="Path 1" d="M12.079,3V3Zm-8.4,8.333h0ZM3.68,13l-.528.532a.75.75,0,0,0,1.056,0Zm2.208-1.134A.75.75,0,0,0,4.831,10.8ZM2.528,10.8a.75.75,0,0,0-1.056,1.065ZM18.616,7.393a.75.75,0,1,0,1.278-.786ZM12.079,2.25A9.116,9.116,0,0,0,2.93,11.333h1.5A7.616,7.616,0,0,1,12.079,3.75ZM2.93,11.333V13h1.5V11.333Zm1.278,2.2,1.68-1.667L4.831,10.8l-1.68,1.667Zm0-1.065L2.528,10.8,1.472,11.866l1.68,1.667Zm15.685-5.86A9.158,9.158,0,0,0,12.079,2.25v1.5a7.658,7.658,0,0,1,6.537,3.643Z" fill="#1c274c"/>
      <path id="Path_2" data-name="Path 2" d="M11.882,21v0Zm8.431-8.333h0Zm0-1.667.527-.533a.75.75,0,0,0-1.055,0ZM18.1,12.133A.75.75,0,1,0,19.155,13.2ZM21.473,13.2a.75.75,0,1,0,1.054-1.067ZM5.318,16.606a.75.75,0,0,0-1.276.788Zm6.565,5.144a9.133,9.133,0,0,0,9.181-9.083h-1.5a7.633,7.633,0,0,1-7.681,7.583Zm9.181-9.083V11h-1.5v1.667Zm-1.277-2.2L18.1,12.133,19.155,13.2l1.686-1.667Zm0,1.067L21.473,13.2l1.054-1.067-1.686-1.667ZM4.041,17.394a9.2,9.2,0,0,0,7.841,4.356v-1.5a7.7,7.7,0,0,1-6.565-3.644Z" fill="#1c274c" opacity="0.5"/>
    </g>
  </g>
</svg>
