<svg xmlns="http://www.w3.org/2000/svg" width="133" height="32" viewBox="0 0 133 32">
  <g id="Group_27032" data-name="Group 27032" transform="translate(-0.8 0.5)">
    <rect id="Rectangle_2224" data-name="Rectangle 2224" width="133" height="32" rx="2" transform="translate(0.8 -0.5)" fill="#f8f9fa"/>
    <g id="Group_27030" data-name="Group 27030" transform="translate(9.8 7.5)">
      <path id="Path_13" data-name="Path 13" d="M605.937,678.376v-11.5h1.53v11.5Z" transform="translate(-605.937 -662.789)" fill="#0e1116"/>
      <path id="Path_14" data-name="Path 14" d="M623.235,666.877h1.522v11.5h-1.571l-6.5-8.952v8.952h-1.53v-11.5h1.579l6.5,8.984Z" transform="translate(-611.339 -662.789)" fill="#0e1116"/>
      <path id="Path_15" data-name="Path 15" d="M648.33,666.877a5.977,5.977,0,0,1,2.979.749,5.434,5.434,0,0,1,2.091,2.063,6.071,6.071,0,0,1,0,5.871,5.427,5.427,0,0,1-2.091,2.068,5.983,5.983,0,0,1-2.979.748H643.9v-11.5Zm-.016,10.067a4.128,4.128,0,0,0,3.052-1.237,4.2,4.2,0,0,0,1.229-3.084,4.407,4.407,0,0,0-.557-2.2,4.047,4.047,0,0,0-1.538-1.55,4.318,4.318,0,0,0-2.185-.561h-2.889v8.635Z" transform="translate(-628.184 -662.789)" fill="#0e1116"/>
      <path id="Path_16" data-name="Path 16" d="M679.4,666.877v2.433h-3.2v9.066h-2.588V669.31h-3.2v-2.433Z" transform="translate(-643.727 -662.789)" fill="#0e1116"/>
      <path id="Path_17" data-name="Path 17" d="M697.359,675.942h5.3v2.433h-7.885v-11.5h7.8v2.433h-5.217v2.067h4.663v2.433h-4.663Z" transform="translate(-658.002 -662.789)" fill="#0e1116"/>
      <path id="Path_18" data-name="Path 18" d="M721.55,678.291a6.343,6.343,0,0,1-2.409-.459,5.91,5.91,0,0,1-1.937-1.249,5.709,5.709,0,0,1-1.269-1.892,6.214,6.214,0,0,1,0-4.712,5.72,5.72,0,0,1,1.269-1.892,5.874,5.874,0,0,1,1.937-1.245,6.383,6.383,0,0,1,2.409-.456,6.294,6.294,0,0,1,2.934.688,5.732,5.732,0,0,1,2.152,1.9l-2.238,1.383a3.424,3.424,0,0,0-2.848-1.489,3.319,3.319,0,0,0-2.45.989,3.61,3.61,0,0,0,0,4.956,3.319,3.319,0,0,0,2.45.989,3.434,3.434,0,0,0,1.632-.395,3.354,3.354,0,0,0,1.216-1.086l2.238,1.383a5.73,5.73,0,0,1-2.152,1.9A6.293,6.293,0,0,1,721.55,678.291Z" transform="translate(-670.134 -662.501)" fill="#0e1116"/>
      <path id="Path_19" data-name="Path 19" d="M752.082,666.877h2.58v11.5h-2.58V673.81h-4.614v4.565H744.88v-11.5h2.588v4.5h4.614Z" transform="translate(-687.37 -662.789)" fill="#0e1116"/>
      <path id="Path_20" data-name="Path 20" d="M813.69,678.376l-.716-2.018H808.3l-.716,2.018h-2.767l4.322-11.5h3.052l4.329,11.5Zm-4.549-4.4h2.995l-1.5-4.248Z" transform="translate(-722.5 -662.789)" fill="#0e1116"/>
      <path id="Path_21" data-name="Path 21" d="M841.256,678.376l-2.369-3.931h-1.245v3.931h-2.588v-11.5h4.989a3.951,3.951,0,0,1,2.856,1.1,3.661,3.661,0,0,1,1.14,2.751,3.546,3.546,0,0,1-.643,2.1,3.722,3.722,0,0,1-1.725,1.331l2.685,4.215Zm-3.614-9.066v2.881h2.344a1.34,1.34,0,0,0,1-.411,1.4,1.4,0,0,0,.4-1.021,1.436,1.436,0,0,0-.4-1.034,1.331,1.331,0,0,0-1-.415Z" transform="translate(-740.22 -662.789)" fill="#0e1116"/>
      <path id="Path_22" data-name="Path 22" d="M866.718,678.376l-3.483-4.1-.96,1.082v3.019h-2.588v-11.5h2.588v4.964l4.281-4.964h3.279l-4.932,5.534,5.184,5.965Z" transform="translate(-754.657 -662.789)" fill="#0e1116"/>
      <path id="Path_23" data-name="Path 23" d="M791.271,657l-7.45,7.376-3.841,3.8-4.76-4.76,1.151-2.277,3.613,3.671L787.96,657Z" transform="translate(-705.152 -657)" fill="#e51635"/>
      <rect id="Rectangle_21" data-name="Rectangle 21" width="2.483" height="11.59" transform="translate(68.735 4.139)" fill="#0e1116"/>
      <path id="Path_24" data-name="Path 24" d="M798.483,668.88v10.811H796v-8.353Z" transform="translate(-717.331 -663.963)" fill="#0e1116"/>
    </g>
  </g>
</svg>
