<svg xmlns="http://www.w3.org/2000/svg" width="70" height="70" viewBox="0 0 70 70">
  <g id="Group_23574" data-name="Group 23574" transform="translate(-195 -1451.533)">
    <g id="Ellipse_942" data-name="Ellipse 942" transform="translate(195 1451.533)" fill="#c7caff" stroke="" stroke-width="1">
      <circle cx="35" cy="35" r="35" stroke="none"/>
      <circle cx="35" cy="35" r="34.5" fill="none"/>
    </g>
    <g id="Group_23814" data-name="Group 23814" transform="translate(-273 -1709.364)">
      <path id="Path_7475" data-name="Path 7475" d="M9.172,72.242H5.334a.434.434,0,0,1-.434-.434V65.8a.434.434,0,0,1,.434-.434H9.172a.434.434,0,0,1,.434.434v6.01a.434.434,0,0,1-.434.434m-3.4-.867H8.739V66.233H5.768Z" transform="translate(485.358 3135.342)" fill="#0e1116"/>
      <path id="Path_7476" data-name="Path 7476" d="M35.924,62.3H32.087a.434.434,0,0,1-.434-.434V52.424a.434.434,0,0,1,.434-.434h3.837a.434.434,0,0,1,.434.434v9.444a.434.434,0,0,1-.434.434m-3.405-.867h2.972V52.857H32.519Z" transform="translate(465.473 3145.284)" fill="#0e1116"/>
      <path id="Path_7477" data-name="Path 7477" d="M62.677,72.242H58.839a.434.434,0,0,1-.434-.434V65.8a.434.434,0,0,1,.434-.434h3.838a.434.434,0,0,1,.434.434v6.01a.434.434,0,0,1-.434.434m-3.405-.867h2.972V66.233H59.271Z" transform="translate(445.589 3135.342)" fill="#0e1116"/>
      <path id="Path_7478" data-name="Path 7478" d="M89.358,52.287H85.521a.434.434,0,0,1-.434-.434V38.977a.434.434,0,0,1,.434-.434h3.837a.434.434,0,0,1,.434.434V51.855a.434.434,0,0,1-.434.434m-3.4-.866h2.972V39.41H85.954Z" transform="translate(425.757 3155.279)" fill="#0e1116"/>
      <path id="Path_7479" data-name="Path 7479" d="M69.412,12.311a.434.434,0,0,1-.37-.656L76,.136a.434.434,0,1,1,.741.448L69.783,12.1a.434.434,0,0,1-.371.209" transform="translate(437.728 3184)" fill="#0e1116"/>
      <path id="Path_7480" data-name="Path 7480" d="M48.7,38.963a.431.431,0,0,1-.242-.074l-4.586-3.1a.434.434,0,1,1,.483-.719l4.586,3.1a.434.434,0,0,1-.241.793" transform="translate(456.548 3157.922)" fill="#0e1116"/>
      <path id="Path_7481" data-name="Path 7481" d="M17.7,39.138a.434.434,0,0,1-.274-.768L21.92,34.7a.434.434,0,1,1,.547.67L17.973,39.04a.43.43,0,0,1-.273.1" transform="translate(476.164 3158.219)" fill="#0e1116"/>
      <path id="Path_7482" data-name="Path 7482" d="M89.212,3.63a.434.434,0,0,1-.417-.32L88.163.964,85.817,1.6A.434.434,0,1,1,85.592.76L88.355.016a.434.434,0,0,1,.53.3l.744,2.763a.432.432,0,0,1-.418.545" transform="translate(425.64 3183.926)" fill="#0e1116"/>
      <path id="Path_7483" data-name="Path 7483" d="M27.475,89.92H.516a.434.434,0,0,1,0-.865h26.96a.434.434,0,1,1,0,.865" transform="translate(488.917 3117.735)" fill="#0e1116"/>
      <path id="Path_7484" data-name="Path 7484" d="M8.955,50.333a1.766,1.766,0,1,1,1.767-1.766,1.766,1.766,0,0,1-1.767,1.766m0-2.667a.9.9,0,1,0,.9.9.9.9,0,0,0-.9-.9" transform="translate(483.656 3149.141)" fill="#0e1116"/>
      <path id="Path_7485" data-name="Path 7485" d="M35.7,30.193a1.766,1.766,0,1,1,1.766-1.766A1.766,1.766,0,0,1,35.7,30.193m0-2.667a.9.9,0,1,0,.9.9.9.9,0,0,0-.9-.9" transform="translate(463.775 3164.11)" fill="#0e1116"/>
      <path id="Path_7486" data-name="Path 7486" d="M62.457,48.4a1.766,1.766,0,1,1,1.765-1.766A1.766,1.766,0,0,1,62.457,48.4m0-2.667a.9.9,0,1,0,.9.9.9.9,0,0,0-.9-.9" transform="translate(443.891 3150.577)" fill="#0e1116"/>
      <rect id="Rectangle_508" data-name="Rectangle 508" width="27.825" height="23.729" transform="translate(489 3183.927)" fill="none"/>
    </g>
  </g>
</svg>
