<svg xmlns="http://www.w3.org/2000/svg" width="56" height="56" viewBox="0 0 56 56">
  <g id="Group_23559" data-name="Group 23559" transform="translate(-195 -1451.533)">
    <g id="Ellipse_942" data-name="Ellipse 942" transform="translate(195 1451.533)" fill="#c98475" stroke="" stroke-width="1">
      <circle cx="28" cy="28" r="28" stroke="none"/>
      <circle cx="28" cy="28" r="27.5" fill="none"/>
    </g>
    <g id="Group_23828" data-name="Group 23828" transform="translate(-2274.076 294.852)">
      <path id="Path_18059" data-name="Path 18059" d="M2516.408,1233.21c.733,0,1.428-.035,2.118.01a1.379,1.379,0,0,1,1.191,1.292c0,.082,0,.164,0,.246q0,4.837,0,9.675v.255h-.272c-1.9,0-3.792.005-5.688,0a1.532,1.532,0,0,0-1.417.731.712.712,0,0,1-.641.343h-2.083a.713.713,0,0,1-.638-.349,1.514,1.514,0,0,0-1.4-.725c-1.739.007-3.479,0-5.218,0h-.3v-.247q0-4.86,0-9.72a1.423,1.423,0,0,1,1.519-1.53c.911,0,1.821,0,2.732,0h.217a.528.528,0,0,1-.28.525,1.591,1.591,0,0,0-.437.467.3.3,0,0,1-.285.152c-.627-.007-1.254,0-1.881,0-.332,0-.447.111-.448.442q0,4.165,0,8.331c0,.327.12.446.448.446q7.245,0,14.49,0c.324,0,.443-.121.443-.451q0-4.154,0-8.309c0-.349-.111-.458-.454-.459s-.672,0-1.008,0a.229.229,0,0,1-.257-.153C2516.726,1233.861,2516.569,1233.549,2516.408,1233.21Z" transform="translate(-14.932 -55.739)" fill="#0e1116"/>
      <path id="Path_18060" data-name="Path 18060" d="M2495.947,1387.976H2487.8a1.865,1.865,0,0,1-1.961-1.992c0-.172.058-.24.233-.24q3.358,0,6.716,0a.759.759,0,0,1,.673.374,1.444,1.444,0,0,0,1.317.7q.962-.011,1.925,0a1.427,1.427,0,0,0,1.3-.689.791.791,0,0,1,.713-.384q3.559,0,7.119,0c.179,0,.25.055.252.244a1.863,1.863,0,0,1-1.944,1.988Q2500.044,1387.977,2495.947,1387.976Z" transform="translate(0 -196.121)" fill="#0e1116"/>
      <path id="Path_18061" data-name="Path 18061" d="M2600.2,1178.607c-2.059-.454-4.067-.814-6.037.232l-.816-1.708a5.506,5.506,0,0,0,2.229-1.665,12.486,12.486,0,0,0,1.629-2.637c.029-.06.059-.12.09-.179.006-.011.023-.017.046-.032Z" transform="translate(-98.935)" fill="#0e1116"/>
      <path id="Path_18062" data-name="Path 18062" d="M2632.409,1261.956c.4,0,.805,0,1.208,0a1.026,1.026,0,0,1,1.075,1.023c.02.581.02,1.164,0,1.744a1,1,0,0,1-1.015,1.012q-1.274.028-2.55,0a1.028,1.028,0,0,1-1.015-1.063q-.01-.827,0-1.655a1.045,1.045,0,0,1,1.066-1.06C2631.589,1261.952,2632,1261.956,2632.409,1261.956Z" transform="translate(-132.759 -82.209)" fill="#0e1116"/>
      <path id="Path_18063" data-name="Path 18063" d="M2542.543,1325.388h5.508c.089,0,.207-.023.26.024.1.084.214.215.21.322s-.135.224-.235.305c-.052.042-.158.021-.239.021h-11.062c-.044,0-.089,0-.134,0a.351.351,0,0,1-.369-.341.339.339,0,0,1,.374-.33c1.045,0,2.09,0,3.135,0Z" transform="translate(-46.604 -140.577)" fill="#0e1116"/>
      <path id="Path_18064" data-name="Path 18064" d="M2567.415,1228.23c.052.049.135.1.169.166.345.709.684,1.423,1.022,2.135a.2.2,0,0,1-.107.3c-.342.165-.684.33-1.029.489a.21.21,0,0,1-.308-.125q-.5-1.06-1.008-2.118a.2.2,0,0,1,.094-.3c.348-.17.7-.334,1.048-.5C2567.323,1228.262,2567.352,1228.254,2567.415,1228.23Z" transform="translate(-73.88 -51.175)" fill="#0e1116"/>
      <path id="Path_18065" data-name="Path 18065" d="M2660.808,1188.789a1.522,1.522,0,0,1,1.667.769,1.57,1.57,0,0,1-.362,1.96Z" transform="translate(-161.011 -14.84)" fill="#0e1116"/>
      <path id="Path_18066" data-name="Path 18066" d="M2538.03,1306.151c-.38,0-.761,0-1.141,0-.247,0-.4-.127-.405-.322s.151-.349.4-.351q1.141-.007,2.282,0c.245,0,.392.139.393.338s-.146.332-.391.335C2538.791,1306.154,2538.41,1306.151,2538.03,1306.151Z" transform="translate(-46.606 -122.255)" fill="#0e1116"/>
      <path id="Path_18067" data-name="Path 18067" d="M2588.509,1269.7l.73-.348c.3.625.591,1.232.867,1.847a.375.375,0,0,1-.239.488.38.38,0,0,1-.5-.2c-.174-.345-.335-.7-.5-1.046Z" transform="translate(-94.48 -89.018)" fill="#0e1116"/>
      <path id="Path_18068" data-name="Path 18068" d="M2555.76,1247.51a.869.869,0,0,1-.749-1.568Q2555.386,1246.727,2555.76,1247.51Z" transform="translate(-63.214 -67.474)" fill="#0e1116"/>
    </g>
  </g>
</svg>
