<svg xmlns="http://www.w3.org/2000/svg" width="216.499" height="216.499" viewBox="0 0 216.499 216.499">
  <path id="Path_18900" data-name="Path 18900" d="M3,75.166H75.166V3H3ZM15.028,15.028H63.139V63.139H15.028ZM27.055,27.055H51.111V51.111H27.055ZM147.333,75.166H219.5V3H147.333Zm12.028-60.139h48.111V63.139H159.361Zm12.028,12.028h24.055V51.111H171.388ZM3,219.5H75.166V147.333H3Zm12.028-60.139H63.139v48.111H15.028Zm12.028,12.028H51.111v24.055H27.055Zm180.416,24.055H219.5V219.5H195.444V183.416h12.028Zm0-36.083H219.5v12.028H207.472Zm0-12.028v12.028H195.444V147.333ZM87.194,171.388H99.222V219.5H87.194ZM39.083,87.194V111.25H15.028V99.222H3V87.194ZM87.194,51.111H99.222V63.139H87.194Zm36.083-36.083V39.083H111.25V3h24.055V15.028Zm-36.083,0H99.222V27.055H87.194ZM207.472,111.25H219.5v24.055H195.444V123.277h12.028ZM195.444,87.194V99.222H171.388v24.055H147.333V111.25h12.028V87.194ZM111.25,135.305H99.222V123.277H87.194V111.25H111.25Zm72.166,24.055h12.028v12.028H183.416Zm24.055-60.139V111.25H195.444V99.222ZM99.222,135.305v12.028H87.194V135.305Zm72.166,60.139h12.028V219.5H159.361V195.444Zm-36.083,0h12.028v12.028H135.305V219.5H111.25V207.472h12.028V195.444Zm0-12.028V171.388h24.055v12.028Zm0-60.139h12.028v36.083H135.305v12.028H123.277v12.028H111.25V159.361H99.222V147.333h36.083V135.305H123.277V123.277Zm-108.25,0v12.028H15.028V123.277Zm144.333,48.111H159.361V159.361h12.028Zm12.028-24.055H159.361V135.305h24.055ZM63.139,87.194H75.166V99.222H63.139V111.25H75.166v24.055H63.139V123.277H51.111v12.028H39.083V111.25H51.111V87.194Zm36.083,0V63.139h36.083V99.222H111.25V87.194h12.028V75.166H111.25V87.194Zm0-48.111H111.25V51.111H99.222ZM87.194,87.194H99.222V99.222H87.194Zm36.083-36.083V39.083h12.028V51.111Z" transform="translate(-3 -3)" fill="#0e1116"/>
</svg>
