<svg xmlns="http://www.w3.org/2000/svg" width="56" height="56" viewBox="0 0 56 56">
  <g id="Group_23559" data-name="Group 23559" transform="translate(-195 -1451.533)">
    <g id="Ellipse_942" data-name="Ellipse 942" transform="translate(195 1451.533)" fill="#c4c9dd" stroke="" stroke-width="1">
      <circle cx="28" cy="28" r="28" stroke="none"/>
      <circle cx="28" cy="28" r="27.5" fill="none"/>
    </g>
    <g id="react-svgrepo-com" transform="translate(212.499 1469.269)">
      <path id="Path_17808" data-name="Path 17808" d="M20.621,8.9c0,2.381-4.5,4.312-10.061,4.312S.5,11.277.5,8.9,5,4.584,10.561,4.584,20.621,6.514,20.621,8.9Z" transform="translate(0 1.452)" fill="none" stroke="#000" stroke-width="1"/>
      <path id="Path_17809" data-name="Path 17809" d="M4.567,19.193C6.661,20.328,10.5,17.286,13.15,12.4s3.094-9.766,1-10.9S8.214,3.408,5.568,8.294,2.473,18.059,4.567,19.193Z" transform="translate(1.202)" fill="none" stroke="#000" stroke-width="1"/>
      <path id="Path_17810" data-name="Path 17810" d="M14.151,19.193c-2.094,1.134-5.937-1.907-8.583-6.792s-3.094-9.766-1-10.9S10.5,3.408,13.15,8.294,16.244,18.059,14.151,19.193Z" transform="translate(1.202)" fill="none" stroke="#000" stroke-width="1"/>
      <path id="Path_17811" data-name="Path 17811" d="M6.5,8.021A1.437,1.437,0,1,0,7.937,6.584,1.437,1.437,0,0,0,6.5,8.021Z" transform="translate(2.623 2.326)" fill="none" stroke="#000" stroke-width="1"/>
    </g>
  </g>
</svg>
