<svg xmlns="http://www.w3.org/2000/svg" xmlns:xlink="http://www.w3.org/1999/xlink" width="70" height="70" viewBox="0 0 70 70">
  <defs>
    <clipPath id="clip-path">
      <rect id="Rectangle_507" data-name="Rectangle 507" width="39.177" height="18.989" fill="none"/>
    </clipPath>
  </defs>
  <g id="Group_23574" data-name="Group 23574" transform="translate(-195 -1451.533)">
    <g id="Ellipse_942" data-name="Ellipse 942" transform="translate(195 1451.533)" fill="#cdabeb" stroke="" stroke-width="1">
      <circle cx="35" cy="35" r="35" stroke="none"/>
      <circle cx="35" cy="35" r="34.5" fill="none"/>
    </g>
    <g id="Group_1088" data-name="Group 1088" transform="translate(210 1477.533)" clip-path="url(#clip-path)">
      <path id="Path_7462" data-name="Path 7462" d="M71.329,38.629a.8.8,0,0,1-.8-.773c0-.149-.012-.3-.019-.452a8.718,8.718,0,0,1,.062-2.013c.312-1.637,1.96-1.637,2.663-1.637H76.2a2.125,2.125,0,0,1,2.42,2.013c.02.551.013,1.109.007,1.649l0,.416a.805.805,0,0,1-.8.8h-.817a.8.8,0,0,1-.377-.095.739.739,0,0,1-.363.1H72.891a.739.739,0,0,1-.362-.093.793.793,0,0,1-.375.093h-.823Zm1.906-4.068c-1.228,0-1.736.266-1.872.982a8.121,8.121,0,0,0-.048,1.824c.007.155.014.31.019.462l.814-.006V36.564a.4.4,0,1,1,.805,0v1.259H76.2l0-1.261a.4.4,0,0,1,.4-.4h0a.4.4,0,0,1,.4.4v1.263l.813,0v-.414c.007-.53.013-1.078-.006-1.61-.037-1.022-.9-1.236-1.615-1.236Z" transform="translate(-53.635 -25.688)" fill="#0e1116"/>
      <path id="Path_7463" data-name="Path 7463" d="M82.013,20.879a1.765,1.765,0,1,1,1.765-1.765,1.765,1.765,0,0,1-1.765,1.765m0-2.725a.96.96,0,1,0,.96.96.96.96,0,0,0-.96-.96" transform="translate(-61.069 -13.203)" fill="#0e1116"/>
      <path id="Path_7464" data-name="Path 7464" d="M65.086,21.946a7.054,7.054,0,1,1,7.055-7.054,7.054,7.054,0,0,1-7.055,7.054m0-13.3a6.249,6.249,0,1,0,6.249,6.249,6.249,6.249,0,0,0-6.249-6.249" transform="translate(-44.162 -5.965)" fill="#0e1116"/>
      <path id="Path_7465" data-name="Path 7465" d="M132.54,8.607A2.862,2.862,0,1,1,135.4,5.744a2.862,2.862,0,0,1-2.862,2.862m0-4.919A2.057,2.057,0,1,0,134.6,5.744a2.057,2.057,0,0,0-2.057-2.057" transform="translate(-98.685 -2.193)" fill="#0e1116"/>
      <path id="Path_7466" data-name="Path 7466" d="M142.831,47.992a2.862,2.862,0,1,1,2.862-2.862,2.862,2.862,0,0,1-2.862,2.862m0-4.919a2.057,2.057,0,1,0,2.057,2.057,2.057,2.057,0,0,0-2.057-2.057" transform="translate(-106.517 -32.166)" fill="#0e1116"/>
      <path id="Path_7467" data-name="Path 7467" d="M37.529,61.226a2.862,2.862,0,1,1,2.862-2.862,2.862,2.862,0,0,1-2.862,2.862m0-4.919a2.057,2.057,0,1,0,2.057,2.057,2.057,2.057,0,0,0-2.057-2.057" transform="translate(-26.382 -42.237)" fill="#0e1116"/>
      <path id="Path_7468" data-name="Path 7468" d="M30.616,5.724a2.862,2.862,0,1,1,2.861-2.862,2.862,2.862,0,0,1-2.861,2.862m0-4.919a2.057,2.057,0,1,0,2.057,2.057A2.057,2.057,0,0,0,30.616.8" transform="translate(-21.119 0.001)" fill="#0e1116"/>
      <path id="Path_7469" data-name="Path 7469" d="M2.861,34.443A2.862,2.862,0,1,1,5.724,31.58a2.862,2.862,0,0,1-2.862,2.862m0-4.919A2.057,2.057,0,1,0,4.918,31.58a2.057,2.057,0,0,0-2.057-2.057" transform="translate(0.001 -21.855)" fill="#0e1116"/>
      <rect id="Rectangle_502" data-name="Rectangle 502" width="0.805" height="3.829" transform="translate(11.453 4.431) rotate(-63.127)" fill="#0e1116"/>
      <rect id="Rectangle_503" data-name="Rectangle 503" width="8.974" height="0.805" transform="translate(5.295 9.325) rotate(-3.743)" fill="#0e1116"/>
      <rect id="Rectangle_504" data-name="Rectangle 504" width="3.032" height="0.805" transform="translate(12.878 14.347) rotate(-37.81)" fill="#0e1116"/>
      <rect id="Rectangle_505" data-name="Rectangle 505" width="4.901" height="0.805" transform="translate(26.939 6.044) rotate(-21.183)" fill="#0e1116"/>
      <rect id="Rectangle_506" data-name="Rectangle 506" width="0.805" height="6.808" transform="matrix(0.226, -0.974, 0.974, 0.226, 27.259, 11.04)" fill="#0e1116"/>
    </g>
  </g>
</svg>
