<svg xmlns="http://www.w3.org/2000/svg" width="70" height="70" viewBox="0 0 70 70">
  <g id="Group_23574" data-name="Group 23574" transform="translate(-195 -1451.533)">
    <circle id="Ellipse_942" data-name="Ellipse 942" cx="35" cy="35" r="35" transform="translate(195 1451.533)" fill="#f09ea7"/>
    <g id="Group_23858" data-name="Group 23858" transform="translate(704.723 1392.256)">
      <path id="Path_18175" data-name="Path 18175" d="M-466.488,104.555a2.613,2.613,0,0,1-1.462-.908c-1.081-1.1-2.178-2.189-3.268-3.281-.3-.3-.318-.482-.092-.8l-.9-.9c-.231.143-.491.315-.762.469a8.074,8.074,0,0,1-11.893-5.61c-.054-.308-.088-.619-.131-.929v-1c.012-.052.024-.1.035-.155a13.886,13.886,0,0,1,.38-1.856,7.881,7.881,0,0,1,5.941-5.379c.4-.1.812-.133,1.218-.2h1c.348.052.7.094,1.044.157a8.069,8.069,0,0,1,6.374,6.4,8.056,8.056,0,0,1-1.3,6.147c-.029.043-.056.088-.074.116l.9.9a.37.37,0,0,0,.052-.03.478.478,0,0,1,.7.054q.987.983,1.969,1.971c.594.6,1.2,1.178,1.779,1.793a1.8,1.8,0,0,1-.913,2.991l-.231.056ZM-484.036,92.08a7.122,7.122,0,0,0,7.1,7.131,7.128,7.128,0,0,0,7.117-7.118,7.121,7.121,0,0,0-7.1-7.127A7.114,7.114,0,0,0-484.036,92.08Zm14.884,8.962c.771.781,1.55,1.578,2.341,2.362a.724.724,0,0,0,.693.169.807.807,0,0,0,.632-.579.817.817,0,0,0-.226-.864c-.621-.626-1.246-1.248-1.867-1.873-.135-.136-.262-.282-.381-.411Zm-.728-.73,1.162-1.161-.377-.405-1.19,1.186Zm-.346-1.841-.8-.8-.383.335.829.831Z" transform="translate(0)" fill="#0e1116"/>
      <path id="Path_18176" data-name="Path 18176" d="M-397.146,163.171l-1.311,1.606c-.148.181-.292.365-.444.543a.476.476,0,0,1-.705.09.479.479,0,0,1-.038-.7q.984-1.215,1.976-2.422a.471.471,0,0,1,.644-.13c.475.227.947.461,1.42.691l.223.107,1.62-1.919c.06-.071.118-.145.185-.21a.466.466,0,0,1,.636-.037.463.463,0,0,1,.091.646c-.145.2-.312.383-.471.572l-1.5,1.776a.506.506,0,0,1-.735.162C-396.084,163.691-396.61,163.433-397.146,163.171Z" transform="translate(-80.662 -72.578)" fill="#0e1116"/>
      <path id="Path_18177" data-name="Path 18177" d="M-286.655,203.985c0-.8,0-1.59,0-2.386a.478.478,0,0,1,.7-.463.509.509,0,0,1,.263.5c0,1.1,0,2.192,0,3.288,0,.468,0,.936,0,1.4a.491.491,0,0,1-.479.549.49.49,0,0,1-.481-.548C-286.656,205.549-286.655,204.767-286.655,203.985Z" transform="translate(-187.727 -110.811)" fill="#0e1116"/>
      <path id="Path_18178" data-name="Path 18178" d="M-361.2,229.572c0,.549,0,1.1,0,1.646a.488.488,0,0,1-.48.548.494.494,0,0,1-.48-.552q0-1.646,0-3.292a.5.5,0,0,1,.485-.549.492.492,0,0,1,.475.553C-361.194,228.475-361.2,229.024-361.2,229.572Z" transform="translate(-116.266 -135.698)" fill="#0e1116"/>
      <path id="Path_18179" data-name="Path 18179" d="M-324.335,247.606c0-.381,0-.762,0-1.143,0-.341.185-.546.477-.546a.484.484,0,0,1,.483.545q.006,1.163,0,2.325a.481.481,0,0,1-.362.512.45.45,0,0,1-.517-.207.747.747,0,0,1-.076-.324C-324.34,248.381-324.335,247.993-324.335,247.606Z" transform="translate(-152.063 -153.25)" fill="#0e1116"/>
      <path id="Path_18180" data-name="Path 18180" d="M-399.772,267.5c0-.22,0-.44,0-.66a.478.478,0,0,1,.461-.483.471.471,0,0,1,.491.453c.015.466.015.934,0,1.4a.468.468,0,0,1-.49.452.475.475,0,0,1-.461-.482C-399.777,267.958-399.772,267.731-399.772,267.5Z" transform="translate(-80.664 -172.599)" fill="#0e1116"/>
    </g>
  </g>
</svg>
