<svg xmlns="http://www.w3.org/2000/svg" width="56" height="56" viewBox="0 0 56 56">
  <g id="Group_23559" data-name="Group 23559" transform="translate(-195 -1451.533)">
    <circle id="Ellipse_942" data-name="Ellipse 942" cx="28" cy="28" r="28" transform="translate(195 1451.533)" fill="#ea949d"/>
    <g id="Group_23870" data-name="Group 23870" transform="translate(1062.704 1115.599)">
      <path id="Path_18220" data-name="Path 18220" d="M-667.569,525.575c-.323.329-.641.662-.97.986-.151.149-.315.131-.485-.038q-.828-.825-1.653-1.652l-1.37-1.374c-.252.123-.487.254-.735.356a4.4,4.4,0,0,1-6.03-3.5,1.648,1.648,0,0,1-.015-.217.294.294,0,0,1,.28-.32.314.314,0,0,1,.323.282,7.416,7.416,0,0,0,.242,1.036,3.77,3.77,0,0,0,3.949,2.421,3.8,3.8,0,0,0,3.325-3.139,3.792,3.792,0,0,0-2.845-4.307,3.786,3.786,0,0,0-4.514,2.561c-.012.038-.023.076-.037.113a.306.306,0,0,1-.388.214.308.308,0,0,1-.189-.4,4.118,4.118,0,0,1,.928-1.705,4.236,4.236,0,0,1,4.4-1.352,4.192,4.192,0,0,1,3.186,3.243,4.23,4.23,0,0,1-.468,3.21c-.032.057-.065.113-.1.177.053.056.1.109.151.159q1.407,1.408,2.814,2.816c.074.074.138.158.206.238Zm-1.2.3.408-.4-2.739-2.738-.434.374Z" transform="translate(-161.834 -152.9)" fill="#0e1116"/>
      <path id="Path_18221" data-name="Path 18221" d="M-833.221,357.142l-2.3,1.456c.109.465.246.973.343,1.489s.16,1.029.225,1.546c.031.248-.072.391-.261.412s-.313-.112-.339-.351a15.728,15.728,0,0,0-.508-2.7c-.018-.062-.04-.124-.056-.175-.543.145-1.071.312-1.611.421s-1.082.157-1.654.237c0,.045,0,.115,0,.186q.007,1.545.015,3.09c0,.059,0,.119,0,.178-.008.232-.117.359-.307.359s-.3-.13-.306-.359c0-.5,0-1,0-1.505,0-.652,0-1.3,0-1.98a10.228,10.228,0,0,1-3.342-.681,17.471,17.471,0,0,0-.723,4.845h3.085a.978.978,0,0,1,.235.02.277.277,0,0,1,.224.288.278.278,0,0,1-.224.289.978.978,0,0,1-.235.021h-3.084a17.263,17.263,0,0,0,.7,4.75c.559-.152,1.1-.3,1.639-.444a2.56,2.56,0,0,1,.37-.065.3.3,0,0,1,.37.24c.029.181-.079.31-.283.361q-.776.193-1.549.4a3.7,3.7,0,0,0-.347.13,7.167,7.167,0,0,0,1.966,3.117,2.423,2.423,0,0,0,1.171.551c0-.077.013-.146.013-.216q.012-1.119.022-2.238a.813.813,0,0,1,.018-.216.281.281,0,0,1,.31-.221.275.275,0,0,1,.272.242,1.255,1.255,0,0,1,.011.236q-.01,1.109-.022,2.218c0,.059,0,.117,0,.237.284-.119.546-.2.784-.333a3.549,3.549,0,0,0,1.059-.941c.033-.041.063-.085.1-.123a.3.3,0,0,1,.41-.041.294.294,0,0,1,.057.423c-.173.216-.362.419-.548.624-.039.043-.1.07-.128.124a6.975,6.975,0,0,0,2.02-.68c.489-.258.955-.558,1.427-.847.2-.125.4-.1.492.078.08.152.034.3-.141.422a9.845,9.845,0,0,1-2.756,1.4,9.98,9.98,0,0,1-12.333-5.731,9.8,9.8,0,0,1,.281-8.172c.033-.07.07-.17.128-.191a.47.47,0,0,1,.339-.028c.082.048.124.2.144.309.012.065-.051.145-.086.216a9.174,9.174,0,0,0-.919,3.557c0,.065,0,.131,0,.212h4.39c.016-.3.032-.608.049-.915a16.933,16.933,0,0,1,.679-3.968c.043-.142.024-.2-.115-.269A9.522,9.522,0,0,1-846,357.2c-.04-.033-.083-.063-.153-.115-.32.366-.637.728-.952,1.09-.06.07-.11.149-.17.218a.3.3,0,0,1-.423.066.293.293,0,0,1-.056-.437c.267-.336.528-.678.826-.986a9.829,9.829,0,0,1,6.442-3.071,9.958,9.958,0,0,1,10.617,8.178,9.819,9.819,0,0,1-1.364,7.081,1.1,1.1,0,0,1-.065.1.3.3,0,0,1-.418.093.3.3,0,0,1-.094-.417c.138-.248.291-.487.424-.737a9.227,9.227,0,0,0,1.055-4.026c-.067,0-.136-.01-.205-.01-.482,0-.964.009-1.446-.007a.5.5,0,0,1-.339-.148c-.16-.2.011-.458.295-.462.488-.007.977,0,1.466,0h.24A9.386,9.386,0,0,0-833.221,357.142Zm-10.7,12.056a18.371,18.371,0,0,1-.737-4.954h-4.411a9.366,9.366,0,0,0,2.862,6.422Zm3.917-14.621c-.054.007-.086.008-.116.015a2.737,2.737,0,0,0-1.377.814,7.481,7.481,0,0,0-1.576,2.651,1.274,1.274,0,0,0-.035.135,9.178,9.178,0,0,0,3.1.631Zm.634,0V358.8a7.91,7.91,0,0,0,3.051-.624c-.043-.114-.084-.232-.131-.347A7.1,7.1,0,0,0-838,355.346,2.668,2.668,0,0,0-839.374,354.575Zm5.638,2.116a9.1,9.1,0,0,0-3.948-1.91,8.353,8.353,0,0,1,1.94,3.181A9.255,9.255,0,0,0-833.736,356.691Zm-9.977,13.154a9.164,9.164,0,0,0-1.987,1.273,9.4,9.4,0,0,0,3.987,1.96A8.221,8.221,0,0,1-843.713,369.844Zm-1.934-13.153a7.664,7.664,0,0,0,1.963,1.23,8.139,8.139,0,0,1,1.948-3.141A9.185,9.185,0,0,0-845.647,356.692Z" fill="#0e1116"/>
      <path id="Path_18222" data-name="Path 18222" d="M-650.936,546.752a3.058,3.058,0,0,1-3.072-3.065,3.067,3.067,0,0,1,3.073-3.069,3.074,3.074,0,0,1,3.065,3.08A3.066,3.066,0,0,1-650.936,546.752Zm2.451-3.064a2.446,2.446,0,0,0-2.45-2.454A2.452,2.452,0,0,0-653.4,543.7a2.464,2.464,0,0,0,2.463,2.45A2.459,2.459,0,0,0-648.484,543.688Z" transform="translate(-185.34 -176.803)" fill="#0e1116"/>
    </g>
  </g>
</svg>
