<svg xmlns="http://www.w3.org/2000/svg" width="56" height="56" viewBox="0 0 56 56">
  <g id="Group_23559" data-name="Group 23559" transform="translate(-195 -1451.533)">
    <circle id="Ellipse_942" data-name="Ellipse 942" cx="28" cy="28" r="28" transform="translate(195 1451.533)" fill="#bdded5"/>
    <g id="Group_23867" data-name="Group 23867" transform="translate(483.403 1106.789)">
      <path id="Path_18205" data-name="Path 18205" d="M-269.672,366.666h.245c1.529,0,3.059,0,4.588,0a1.1,1.1,0,0,0,.8-.306,1.545,1.545,0,0,1,1.1-.427h10.7c.293,0,.451.134.447.368s-.161.361-.456.361q-5.261,0-10.522,0a1.2,1.2,0,0,0-.889.327,1.569,1.569,0,0,1-1.13.408q-2.305,0-4.61,0h-.283v.25q0,4.929,0,9.858a.746.746,0,0,0,.838.846h2.442c.306,0,.471.136.465.375s-.165.354-.462.355c-.837,0-1.674,0-2.511,0a1.454,1.454,0,0,1-1.5-1.5q0-6.173,0-12.346a1.449,1.449,0,0,1,1.483-1.491q8.742,0,17.483,0a1.447,1.447,0,0,1,1.482,1.469q.006,6.2,0,12.391a1.451,1.451,0,0,1-1.479,1.473c-.829.005-1.659,0-2.488,0-.279,0-.454-.151-.446-.376s.175-.353.445-.353c.806,0,1.613,0,2.419,0a.738.738,0,0,0,.82-.819q0-6.116,0-12.232a.742.742,0,0,0-.836-.825h-17.324a.745.745,0,0,0-.831.83C-269.673,365.746-269.672,366.188-269.672,366.666Z" fill="#0e1116"/>
      <path id="Path_18206" data-name="Path 18206" d="M-225.041,420.631c.255.254.514.51.772.768.6.6,1.209,1.2,1.805,1.809a1.084,1.084,0,0,1,.207,1.226,1.1,1.1,0,0,1-1.052.627,1.177,1.177,0,0,1-.779-.381c-.761-.767-1.53-1.525-2.285-2.3a.343.343,0,0,0-.492-.084,4.747,4.747,0,0,1-6.965-3.722,4.788,4.788,0,0,1,3.809-5.105,4.729,4.729,0,0,1,2.874.328.505.505,0,0,1,.271.247.494.494,0,0,1-.076.372c-.1.148-.27.124-.436.071a8.625,8.625,0,0,0-1.133-.329,4.009,4.009,0,0,0-4.212,2.273,3.992,3.992,0,0,0,2.863,5.619,3.824,3.824,0,0,0,3.021-.6c.274-.186.4-.173.635.067.877.877,1.751,1.756,2.633,2.627a.625.625,0,0,0,.35.176.342.342,0,0,0,.308-.5.934.934,0,0,0-.183-.229q-1.273-1.277-2.549-2.55c-.294-.294-.292-.376-.078-.726a3.935,3.935,0,0,0,.058-4.292c-.029-.051-.069-.1-.117-.161-.252.25-.494.489-.735.729q-.985.984-1.969,1.968a.406.406,0,0,1-.68,0c-.312-.312-.622-.624-.949-.953-.4.4-.774.791-1.171,1.165a.539.539,0,0,1-.374.15.348.348,0,0,1-.2-.594c.486-.5.983-1,1.483-1.485a.359.359,0,0,1,.562.037c.324.321.643.647,1.009,1.017l4.461-4.516c-.23,0-.416,0-.6,0-.262,0-.427-.156-.42-.377a.373.373,0,0,1,.422-.351c.464,0,.928,0,1.392,0,.335,0,.457.121.459.45q0,.7,0,1.392c0,.278-.133.431-.358.433s-.363-.157-.37-.428c0-.174,0-.349,0-.478l-1.368,1.369A4.793,4.793,0,0,1-225.041,420.631Z" transform="translate(-32.18 -43.063)" fill="#0e1116"/>
      <path id="Path_18207" data-name="Path 18207" d="M-255.9,376.375a.358.358,0,0,1-.361.362.358.358,0,0,1-.365-.358.356.356,0,0,1,.361-.362A.357.357,0,0,1-255.9,376.375Z" transform="translate(-12.135 -10.808)" fill="#0e1116"/>
      <path id="Path_18208" data-name="Path 18208" d="M-244.037,376.737a.357.357,0,0,1-.355-.368.356.356,0,0,1,.371-.352.357.357,0,0,1,.356.368A.358.358,0,0,1-244.037,376.737Z" transform="translate(-22.904 -10.807)" fill="#0e1116"/>
      <path id="Path_18209" data-name="Path 18209" d="M-231.8,376.738a.357.357,0,0,1-.358-.365.356.356,0,0,1,.368-.355.357.357,0,0,1,.358.365A.358.358,0,0,1-231.8,376.738Z" transform="translate(-33.674 -10.808)" fill="#0e1116"/>
    </g>
  </g>
</svg>
