<svg xmlns="http://www.w3.org/2000/svg" width="56" height="56" viewBox="0 0 56 56">
  <g id="Group_23559" data-name="Group 23559" transform="translate(-195 -1451.533)">
    <circle id="Ellipse_942" data-name="Ellipse 942" cx="28" cy="28" r="28" transform="translate(195 1451.533)" fill="#cdbcb5"/>
    <g id="Group_23868" data-name="Group 23868" transform="translate(813.053 1304.885)">
      <path id="Path_18210" data-name="Path 18210" d="M-546.972,173.183a1.608,1.608,0,0,1-.335.25c-.575.23-1.155.446-1.737.658a.247.247,0,0,0-.182.241c-.04.326-.092.652-.152.975a.248.248,0,0,0,.1.285c.495.384.982.779,1.47,1.171.23.185.259.274.13.543-.2.415-.411.825-.629,1.231-.122.228-.223.261-.473.193-.61-.166-1.221-.33-1.829-.5a.256.256,0,0,0-.3.091,9.147,9.147,0,0,1-.685.685.267.267,0,0,0-.09.322c.171.6.33,1.194.493,1.791.074.273.042.374-.2.5q-.609.326-1.232.628c-.245.118-.346.086-.514-.123-.4-.493-.8-.985-1.185-1.485a.239.239,0,0,0-.28-.1c-.342.066-.69.1-1.033.168a.268.268,0,0,0-.169.143c-.23.589-.45,1.182-.673,1.773-.105.278-.175.336-.474.3-.464-.059-.925-.139-1.386-.215a.357.357,0,0,1-.321-.364c-.079-.767-.176-1.533-.249-2.3a.475.475,0,0,1,.115-.335q.875-.9,1.778-1.777a.525.525,0,0,1,.374-.11,4.134,4.134,0,0,0,2.3-.42,4.123,4.123,0,0,0,2.217-4.347,4.118,4.118,0,0,0-3.491-3.407,4.1,4.1,0,0,0-4.68,4.246,1.085,1.085,0,0,1-.383.958c-.49.451-.951.934-1.417,1.41a.543.543,0,0,1-.508.179c-.732-.1-1.467-.171-2.2-.244a.358.358,0,0,1-.37-.315q-.12-.731-.226-1.464a.334.334,0,0,1,.262-.385c.6-.222,1.195-.453,1.795-.673a.239.239,0,0,0,.183-.236c.036-.34.094-.678.159-1.014a.2.2,0,0,0-.081-.232c-.5-.4-1-.8-1.5-1.2-.222-.178-.251-.268-.126-.528q.3-.622.629-1.231c.126-.235.233-.27.49-.2.617.167,1.234.332,1.848.509a.214.214,0,0,0,.252-.078c.231-.244.467-.485.713-.713a.247.247,0,0,0,.088-.288c-.175-.614-.341-1.232-.508-1.848-.064-.237-.029-.342.188-.458.424-.226.854-.441,1.283-.657a.345.345,0,0,1,.47.114c.4.5.8,1,1.2,1.5a.256.256,0,0,0,.3.1c.316-.064.636-.109.956-.149a.261.261,0,0,0,.254-.193q.306-.856.64-1.7a2.1,2.1,0,0,1,.228-.354h.356c.388.068.777.128,1.164.2s.429.127.449.523c.03.606.06,1.212.082,1.819a.216.216,0,0,0,.149.219c.3.142.607.288.9.456a.254.254,0,0,0,.317-.012c.525-.353,1.055-.7,1.585-1.045.206-.135.318-.134.495.036q.506.486.994.991c.192.2.194.313.042.543-.34.518-.676,1.039-1.026,1.55a.278.278,0,0,0,0,.351,8.272,8.272,0,0,1,.422.826.274.274,0,0,0,.284.2c.62.016,1.239.05,1.858.081.279.014.352.08.415.355.012.051.026.1.035.154q.1.572.2,1.144Zm-1.328,4c-.538-.43-1.053-.852-1.58-1.26a.462.462,0,0,1-.174-.533,12.911,12.911,0,0,0,.217-1.364.446.446,0,0,1,.323-.436c.57-.206,1.133-.432,1.7-.634a.2.2,0,0,0,.161-.274c-.04-.214-.08-.428-.106-.644-.015-.123-.063-.163-.188-.167-.613-.021-1.226-.058-1.839-.077a.463.463,0,0,1-.46-.321c-.189-.426-.406-.842-.637-1.247a.441.441,0,0,1,0-.527c.347-.514.684-1.034,1.025-1.552.047-.071.106-.131.017-.221-.209-.21-.41-.428-.616-.645-.093.058-.154.1-.214.134-.5.33-1.006.655-1.5.992a.438.438,0,0,1-.526.005c-.405-.231-.824-.441-1.246-.641-.258-.122-.308-.17-.32-.456-.026-.62-.052-1.24-.088-1.859a.208.208,0,0,0-.121-.153c-.238-.053-.481-.08-.72-.124-.127-.023-.184.02-.228.144-.214.588-.442,1.171-.659,1.758a.4.4,0,0,1-.379.285c-.476.058-.952.131-1.423.223a.443.443,0,0,1-.5-.163c-.385-.495-.784-.979-1.17-1.472-.071-.09-.128-.112-.229-.057-.2.11-.407.217-.617.313-.128.059-.148.131-.11.263.172.6.328,1.194.5,1.789a.428.428,0,0,1-.154.485c-.344.316-.68.644-.993.99a.461.461,0,0,1-.534.168c-.638-.185-1.281-.353-1.944-.534l-.455.9c.064.054.109.093.155.13.484.388.967.777,1.454,1.161a.4.4,0,0,1,.152.449c-.093.464-.173.933-.224,1.4a.473.473,0,0,1-.349.46c-.62.22-1.233.462-1.872.7.052.31.1.615.158.918a.187.187,0,0,0,.137.1q.914.105,1.83.193a.267.267,0,0,0,.189-.068q.727-.715,1.442-1.442a.346.346,0,0,0,.075-.206c.027-.394.01-.794.071-1.181a4.756,4.756,0,0,1,5.465-3.85,4.751,4.751,0,0,1,3.874,5.589,4.775,4.775,0,0,1-4.973,3.845.393.393,0,0,0-.27.1c-.39.375-.756.776-1.157,1.139a.786.786,0,0,0-.3.8c.094.53.123,1.072.181,1.625l1.007.16c.243-.641.486-1.26.709-1.886a.465.465,0,0,1,.451-.334c.47-.054.938-.131,1.4-.222a.4.4,0,0,1,.451.15c.185.24.377.476.567.712l.724.9.9-.459c-.183-.667-.356-1.315-.54-1.961a.442.442,0,0,1,.157-.5,13.492,13.492,0,0,0,.979-.976.472.472,0,0,1,.55-.175c.581.172,1.167.328,1.753.482.066.017.189,0,.214-.039C-548.573,177.728-548.441,177.456-548.3,177.182Z" transform="translate(-32.943)" fill="#0e1116"/>
      <path id="Path_18211" data-name="Path 18211" d="M-589.139,286.229a1.076,1.076,0,0,1-.3,0,.487.487,0,0,0-.529.187q-3.591,3.605-7.193,7.2a1.741,1.741,0,0,1-2.3.267,1.731,1.731,0,0,1-.261-2.606c.535-.574,1.1-1.117,1.659-1.672q2.862-2.863,5.728-5.724a.349.349,0,0,0,.115-.343,3.112,3.112,0,0,1,2.706-3.482,3.2,3.2,0,0,1,1.176.085c.336.089.407.353.16.6-.474.478-.949.955-1.43,1.426a.257.257,0,0,0-.078.295c.081.271.141.549.228.818a.307.307,0,0,0,.171.175c.269.086.548.143.819.226a.255.255,0,0,0,.3-.076c.458-.466.923-.925,1.383-1.389.116-.117.232-.224.412-.173s.212.2.25.348A3.093,3.093,0,0,1-589.139,286.229Zm.139-5.556c-.076-.009-.1-.014-.126-.014a2.475,2.475,0,0,0-2.445,2.888.681.681,0,0,1-.207.675q-3.667,3.653-7.323,7.317c-.061.061-.123.12-.179.185a1.1,1.1,0,0,0,.607,1.812,1.121,1.121,0,0,0,1.07-.371q3.685-3.69,7.371-7.38a.7.7,0,0,1,.689-.217,2.454,2.454,0,0,0,2.805-1.844,6.6,6.6,0,0,0,.09-.672l-.052-.017c-.046.043-.094.083-.139.128-.355.354-.714.7-1.062,1.065a.439.439,0,0,1-.482.127c-.425-.12-.851-.235-1.279-.341a.446.446,0,0,1-.359-.369c-.1-.4-.2-.807-.323-1.2a.517.517,0,0,1,.161-.6C-589.788,281.475-589.413,281.086-589,280.673Z" transform="translate(0 -109.409)" fill="#0e1116"/>
    </g>
  </g>
</svg>
