<svg xmlns="http://www.w3.org/2000/svg" width="56" height="56" viewBox="0 0 56 56">
  <g id="Group_23559" data-name="Group 23559" transform="translate(-195 -1451.533)">
    <circle id="Ellipse_942" data-name="Ellipse 942" cx="28" cy="28" r="28" transform="translate(195 1451.533)" fill="#c2cccd"/>
    <g id="Group_23869" data-name="Group 23869" transform="translate(1043.824 867.062)">
      <path id="Path_18212" data-name="Path 18212" d="M-815.438,602.471c.435.1.883.173,1.3.318a5.08,5.08,0,0,1,3.294,5.533,5.171,5.171,0,0,1-1.494,2.9q-1.57,1.572-3.141,3.141a5.311,5.311,0,0,1-1.974,1.268.4.4,0,0,0-.216.214A5.421,5.421,0,0,1-819,617.892c-1.106,1.1-2.179,2.233-3.321,3.292a5.076,5.076,0,0,1-8.292-2.313c-.1-.33-.142-.674-.211-1.011V617a1.263,1.263,0,0,0,.037-.151,4.879,4.879,0,0,1,1.344-2.889c1.072-1.1,2.17-2.182,3.254-3.274a5.253,5.253,0,0,1,2.03-1.318.336.336,0,0,0,.232-.232,5.063,5.063,0,0,1,1.249-1.96q1.574-1.58,3.152-3.155a5.129,5.129,0,0,1,2.539-1.422c.227-.051.459-.086.688-.128Zm-1.99,12.309a4.365,4.365,0,0,0,1.365-.935q1.6-1.6,3.2-3.2a4.323,4.323,0,0,0,1.177-2.062,4.305,4.305,0,0,0-1.923-4.688,4.28,4.28,0,0,0-5.321.641c-1.084,1.066-2.153,2.147-3.226,3.224a4.135,4.135,0,0,0-1.259,2.646,4.2,4.2,0,0,0,1.91,4.013,9.208,9.208,0,0,0,.883.479c.043-.247.09-.43.105-.616a2.1,2.1,0,0,0-.659-1.632,2.688,2.688,0,0,1-.16-3.439,10.331,10.331,0,0,1,.842-.9c.236-.244.475-.484.72-.72a.389.389,0,0,1,.576-.036.4.4,0,0,1-.025.591c-.031.034-.064.065-.1.1q-.533.533-1.066,1.066c-.04.04-.074.085-.123.141a5.158,5.158,0,0,1,2.751,2.751c.046-.039.072-.058.094-.08q1.585-1.585,3.169-3.17a2.019,2.019,0,0,0,.514-.907,1.963,1.963,0,0,0-1.824-2.444,2.079,2.079,0,0,0-1.131.319c-.282.171-.5.137-.629-.079s-.049-.419.214-.585a2.633,2.633,0,0,1,2.022-.379,2.617,2.617,0,0,1,2.069,1.87,2.61,2.61,0,0,1-.673,2.742q-1.607,1.645-3.257,3.248a.727.727,0,0,0-.251.713A10.8,10.8,0,0,1-817.428,614.78Zm-3.554-4.663c-.039.216-.087.4-.1.584a2.121,2.121,0,0,0,.669,1.648,2.68,2.68,0,0,1-.008,3.62q-1.706,1.78-3.487,3.489a2.694,2.694,0,0,1-3.637.022,2.71,2.71,0,0,1-.39-3.661,9.7,9.7,0,0,1,.91-.968c.942-.941,1.891-1.873,2.831-2.816a.374.374,0,0,0,.059-.257c-.021-.357-.059-.714-.083-1.071-.01-.152,0-.306,0-.473a4.307,4.307,0,0,0-1.328.923l-3.184,3.184a4.331,4.331,0,0,0-1.18,2.061A4.3,4.3,0,0,0-828,621.09a4.286,4.286,0,0,0,5.351-.661q1.6-1.585,3.183-3.184a4.285,4.285,0,0,0,.646-5.369A4.19,4.19,0,0,0-820.982,610.117Zm-2.853,2.681a.261.261,0,0,0-.059.025c-1.1,1.1-2.215,2.193-3.3,3.313a1.933,1.933,0,0,0-.128,2.436,1.961,1.961,0,0,0,3.008.2q1.555-1.543,3.1-3.1c.039-.039.073-.084.12-.139A5.144,5.144,0,0,1-823.835,612.8Z" fill="#0e1116"/>
      <path id="Path_18213" data-name="Path 18213" d="M-455.554,977.3c-.008.367-.32.548-.576.4a.725.725,0,0,1-.152-.12c-.512-.51-1.028-1.017-1.531-1.536a.608.608,0,0,1-.173-.353.376.376,0,0,1,.575-.315.866.866,0,0,1,.165.135c.5.5,1.007,1,1.5,1.508A1.561,1.561,0,0,1-455.554,977.3Z" transform="translate(-358.213 -358.226)" fill="#0e1116"/>
      <path id="Path_18214" data-name="Path 18214" d="M-422.951,924.9c.359,0,.717,0,1.076,0,.285,0,.467.157.468.39s-.183.391-.466.392q-1.1,0-2.192,0c-.285,0-.467-.157-.467-.391s.181-.389.466-.391C-423.7,924.9-423.323,924.9-422.951,924.9Z" transform="translate(-390.354 -309.783)" fill="#0e1116"/>
      <path id="Path_18215" data-name="Path 18215" d="M-507.677,1010.4c0,.365,0,.731,0,1.1,0,.284-.157.468-.389.469s-.391-.181-.392-.466q0-1.1,0-2.192c0-.286.155-.467.389-.469s.391.18.393.465C-507.675,1009.671-507.677,1010.037-507.677,1010.4Z" transform="translate(-309.718 -390.43)" fill="#0e1116"/>
      <path id="Path_18216" data-name="Path 18216" d="M-754.294,677.357a2.011,2.011,0,0,1,.349.214q.79.774,1.566,1.562a.4.4,0,0,1,.044.605.4.4,0,0,1-.591-.046c-.529-.523-1.053-1.051-1.578-1.578a.371.371,0,0,1-.111-.458A1.507,1.507,0,0,1-754.294,677.357Z" transform="translate(-73.18 -71.949)" fill="#0e1116"/>
      <path id="Path_18217" data-name="Path 18217" d="M-662.383,629.1c0,.365,0,.731,0,1.1,0,.285-.158.467-.392.465s-.389-.183-.39-.468q0-1.1,0-2.192c0-.283.16-.467.393-.466s.387.183.389.469C-662.381,628.365-662.383,628.73-662.383,629.1Z" transform="translate(-161.081 -24.077)" fill="#0e1116"/>
      <path id="Path_18218" data-name="Path 18218" d="M-801.214,770.945c-.365,0-.73,0-1.1,0-.284,0-.467-.16-.465-.393s.185-.388.469-.389q1.1,0,2.191,0c.284,0,.466.159.464.394s-.182.386-.469.388C-800.483,770.946-800.849,770.945-801.214,770.945Z" transform="translate(-26.949 -161.112)" fill="#0e1116"/>
      <path id="Path_18219" data-name="Path 18219" d="M-522.2,701.656a.39.39,0,0,1-.392.38.4.4,0,0,1-.379-.4.391.391,0,0,1,.4-.377A.381.381,0,0,1-522.2,701.656Z" transform="translate(-295.779 -94.915)" fill="#0e1116"/>
    </g>
  </g>
</svg>
