<svg xmlns="http://www.w3.org/2000/svg" width="56" height="56" viewBox="0 0 56 56">
  <g id="Group_23559" data-name="Group 23559" transform="translate(-195 -1451.533)">
    <circle id="Ellipse_942" data-name="Ellipse 942" cx="28" cy="28" r="28" transform="translate(195 1451.533)" fill="#d6e48f"/>
    <g id="Group_23871" data-name="Group 23871" transform="translate(1051.146 1256.841)">
      <path id="Path_18223" data-name="Path 18223" d="M-618.629,309.633a3.177,3.177,0,0,1-.161.318.938.938,0,0,1-.768.457c-.215.011-.432.007-.647.007q-3.339,0-6.678,0a1,1,0,0,1-1.074-.762,1.314,1.314,0,0,1-.028-.3c0-.364.019-.73-.006-1.092a1.057,1.057,0,0,1,.994-1.2v-.643a1.009,1.009,0,0,1-.958-.775,1.738,1.738,0,0,1-.03-.421c0-.364,0-.729,0-1.093a.993.993,0,0,1,.922-1.059.473.473,0,0,0,.067-.022V302.4a1.016,1.016,0,0,1-.959-.774,1.265,1.265,0,0,1-.029-.32q0-.6,0-1.194a.991.991,0,0,1,1.063-1.061c1.194,0,2.388,0,3.582,0,1.14,0,2.28.021,3.42-.008a1.166,1.166,0,0,1,1.293.791v1.741a1.073,1.073,0,0,1-.469.655,4.7,4.7,0,0,1-.522.2v.625a1.057,1.057,0,0,1,.991.825v1.7a1.067,1.067,0,0,1-.432.636,4.7,4.7,0,0,1-.56.233v.616a1.06,1.06,0,0,1,.993.823Zm-4.691-9.916q-1.791,0-3.583,0c-.3,0-.419.119-.422.417q0,.587,0,1.174c0,.3.123.419.421.419q3.593,0,7.186,0c.3,0,.416-.118.419-.418,0-.378,0-.756,0-1.134,0-.354-.106-.458-.459-.459Zm-.006,10.034q1.8,0,3.6,0c.3,0,.42-.115.423-.413q.006-.6,0-1.194c0-.286-.123-.4-.413-.4q-3.593,0-7.186,0c-.308,0-.425.121-.427.433,0,.371,0,.742,0,1.113,0,.353.11.463.457.463Zm0-4.01h3.583c.327,0,.441-.113.444-.435q0-.577,0-1.154c0-.3-.118-.424-.413-.424q-3.593,0-7.186,0c-.307,0-.425.122-.426.434,0,.358,0,.715,0,1.073,0,.407.1.506.5.506Zm3.017-3.335H-626.3v.644h5.994Zm0,4.011H-626.3v.644h5.994Z" transform="translate(-198.785 -81.681)" fill="#0e1116"/>
      <path id="Path_18224" data-name="Path 18224" d="M-779.611,525.754l-2.619-1.644c-.384-.241-.383-.485,0-.726q1.226-.767,2.452-1.534a.389.389,0,0,1,.433-.062.4.4,0,0,1,.176.4c0,.175,0,.35,0,.551h10.352v.67h-10.461c-.5,0-.556-.055-.565-.555,0-.04,0-.08-.01-.165l-1.7,1.056,1.691,1.056c.007-.09.014-.152.015-.214,0-.425.083-.5.514-.5h11.178v.653h-11.018c0,.2-.01.374,0,.547a.443.443,0,0,1-.243.468Z" transform="translate(-52.621 -292.337)" fill="#0e1116"/>
      <path id="Path_18225" data-name="Path 18225" d="M-837.146,303.209v-.644c-.094-.019-.179-.032-.262-.055a.985.985,0,0,1-.731-.936c-.008-.465-.01-.931,0-1.4a.988.988,0,0,1,.935-.963c.054,0,.108,0,.162,0q3.582,0,7.164,0a1,1,0,0,1,1.061.752,1.257,1.257,0,0,1,.031.3c0,.384,0,.769,0,1.154a1.027,1.027,0,0,1-.986,1.147v.645l.155.026a.993.993,0,0,1,.828.96c.008.4,0,.809,0,1.214a1.031,1.031,0,0,1-.986,1.167v.62a2.918,2.918,0,0,1,.493.179.922.922,0,0,1,.489.811q.014.708,0,1.416a.981.981,0,0,1-.931.966c-.034,0-.067,0-.1,0q-3.643,0-7.285,0a.991.991,0,0,1-1.037-1.049c0-.391,0-.783,0-1.174a1.025,1.025,0,0,1,.989-1.125v-.646c-.038-.008-.081-.019-.126-.025a1,1,0,0,1-.861-.973c-.008-.445-.005-.89,0-1.336a1,1,0,0,1,.9-1.016C-837.211,303.224-837.185,303.217-837.146,303.209Zm3.674-1.324q1.792,0,3.583,0c.324,0,.442-.117.443-.438,0-.385,0-.769,0-1.154,0-.3-.123-.418-.421-.418h-7.186c-.3,0-.416.115-.419.416,0,.371,0,.742,0,1.113s.1.481.478.481Zm.016,8.023h3.562c.334,0,.446-.115.448-.453q0-.546,0-1.093c0-.353-.11-.464-.458-.464h-7.125c-.33,0-.441.109-.444.433q0,.567,0,1.134c0,.338.11.443.453.443Zm-.022-4.01h3.583c.334,0,.448-.117.45-.453q0-.557,0-1.113c0-.326-.117-.447-.435-.447q-3.583,0-7.166,0c-.309,0-.423.117-.425.432,0,.371,0,.742,0,1.113s.105.468.472.468Zm3.018-3.338h-6v.651h6Zm0,4.01h-6v.652h6Z" transform="translate(0 -81.839)" fill="#0e1116"/>
      <path id="Path_18226" data-name="Path 18226" d="M-776,214.356V213.7h11.017c0-.212,0-.4,0-.6,0-.366.26-.516.567-.325q1.289.8,2.571,1.608a.339.339,0,0,1,0,.626q-1.283.808-2.572,1.607c-.3.184-.555.036-.562-.314,0-.194,0-.389,0-.6h-10.348v-.67h10.482c.466,0,.532.066.54.539,0,.047.006.093.012.182l1.694-1.058-1.706-1.067c0,.115,0,.191,0,.267,0,.359-.1.46-.455.461H-776Z" transform="translate(-58.784)" fill="#0e1116"/>
      <path id="Path_18227" data-name="Path 18227" d="M-812.468,256.9h-.641v-.636h.641Z" transform="translate(-23.683 -41.22)" fill="#0e1116"/>
      <path id="Path_18228" data-name="Path 18228" d="M-787.77,256.228v.632h-.651v-.632Z" transform="translate(-47.036 -41.181)" fill="#0e1116"/>
      <path id="Path_18229" data-name="Path 18229" d="M-515.723,540.512v.641h-.645v-.641Z" transform="translate(-304.374 -310.09)" fill="#0e1116"/>
      <path id="Path_18230" data-name="Path 18230" d="M-491.782,541.245v-.631h.65v.631Z" transform="translate(-327.631 -310.186)" fill="#0e1116"/>
    </g>
  </g>
</svg>
