<svg xmlns="http://www.w3.org/2000/svg" width="56" height="56" viewBox="0 0 56 56">
  <g id="Group_23559" data-name="Group 23559" transform="translate(-195 -1451.533)">
    <circle id="Ellipse_942" data-name="Ellipse 942" cx="28" cy="28" r="28" transform="translate(195 1451.533)" fill="#f9dde9"/>
    <g id="Group_23866" data-name="Group 23866" transform="translate(113.772 1343.36)">
      <path id="Path_18202" data-name="Path 18202" d="M100.525,124.777a.438.438,0,0,1,.2.434q0,9.417,0,18.835c0,.3,0,.3.288.3H102.5v-.216q0-1.358,0-2.716c0-.052,0-.105,0-.157a.294.294,0,0,1,.588-.009c.006.058,0,.118,0,.177,0,.964,0,1.928,0,2.906h3.2c0-.067.01-.131.01-.194q0-2.431,0-4.861c0-.263,0-.266-.261-.266s-.528-.075-.717.027-.274.38-.4.583a1.626,1.626,0,0,1-2.189.572,1.6,1.6,0,0,1-.627-2.18c.776-1.376,1.575-2.74,2.369-4.106a.849.849,0,0,1,.767-.436.276.276,0,0,0,.192-.112c.129-.2.337-.409.33-.609s-.249-.363-.385-.546a4.554,4.554,0,0,1-.752-4.223,1.121,1.121,0,0,1,.039-.111.3.3,0,0,1,.375-.2.3.3,0,0,1,.185.382,8.821,8.821,0,0,0-.212,1.135,4.014,4.014,0,1,0,4.506-3.778,3.948,3.948,0,0,0-3.622,1.451c-.156.183-.331.223-.473.1s-.136-.292.01-.469a4.543,4.543,0,0,1,3.023-1.675,1.464,1.464,0,0,0,.151-.035h.828c.294.063.593.109.881.193a4.593,4.593,0,0,1-.582,8.948,4.535,4.535,0,0,1-1.932-.106c-.117-.032-.183-.019-.233.095a1.421,1.421,0,0,1-.138.238.572.572,0,0,0-.08.686.748.748,0,0,1-.1.748q-.757,1.3-1.508,2.6c-.035.061-.068.124-.127.232.177,0,.322,0,.468,0a.706.706,0,0,1,.8.8q0,2.44,0,4.881v.239h1.725v-.247q0-3.887,0-7.774c0-.6.252-.85.85-.85h2.721c.571,0,.831.261.831.83q0,3.9,0,7.794v.244h1.725v-.275q0-6.239,0-12.477a.847.847,0,0,1,.15-.576.7.7,0,0,1,.571-.261c.986,0,1.972-.006,2.958,0a.688.688,0,0,1,.718.779q0,6.268,0,12.537v.284c.261,0,.515.009.768,0a.416.416,0,0,1,.415.2v.2a.44.44,0,0,1-.435.2q-9.422,0-18.844,0a.866.866,0,0,1-.915-.518q0-9.822,0-19.643ZM118.55,144.33v-.149q0-6.316,0-12.633c0-.179-.067-.223-.232-.222-.894.005-1.788,0-2.681,0-.3,0-.3,0-.3.3q0,6.228,0,12.456v.243Zm-9.34,0h3.213c0-.055.007-.1.007-.144q0-3.956,0-7.912c0-.177-.067-.225-.233-.224-.9.005-1.8,0-2.7,0-.288,0-.289,0-.289.28q0,3.887,0,7.774Zm-6.748-5.562a1.118,1.118,0,0,0,.8,1,1.025,1.025,0,0,0,1.178-.5q1.158-1.988,2.306-3.982c.127-.22.094-.346-.123-.473q-.6-.347-1.194-.686c-.221-.126-.346-.093-.472.124-.769,1.327-1.539,2.654-2.3,3.985A3.19,3.19,0,0,0,102.462,138.768Zm4.623-5.2-.808-.48-.368.636.815.467Z" transform="translate(0 0)"/>
      <path id="Path_18203" data-name="Path 18203" d="M216.164,156.313a3.11,3.11,0,1,1-3.11-3.1A3.113,3.113,0,0,1,216.164,156.313Zm-5.628-.015a2.518,2.518,0,1,0,2.581-2.493A2.533,2.533,0,0,0,210.536,156.3Z" transform="translate(-104.038 -26.942)"/>
      <path id="Path_18204" data-name="Path 18204" d="M237.24,183.784a1.944,1.944,0,0,0-.182.242.34.34,0,0,0-.05.217.887.887,0,1,1-1.73.364.88.88,0,0,1,1.111-.955.254.254,0,0,0,.288-.084c.34-.347.685-.689,1.03-1.031a.5.5,0,0,1,.805-.006c.075.073.152.145.221.224a.3.3,0,0,1,0,.424.3.3,0,0,1-.409-.008,2.264,2.264,0,0,1-.187-.221l-.391.417a4.61,4.61,0,0,1,.231.468c.017.044-.043.136-.091.183C237.742,184.159,237.622,184.118,237.24,183.784Zm-1.076,1a.285.285,0,0,0,.286-.284.29.29,0,0,0-.3-.3.3.3,0,0,0-.29.287A.3.3,0,0,0,236.164,184.788Z" transform="translate(-128.032 -54.529)"/>
    </g>
  </g>
</svg>
