<svg xmlns="http://www.w3.org/2000/svg" width="70" height="70" viewBox="0 0 70 70">
  <g id="Group_23574" data-name="Group 23574" transform="translate(-195 -1451.533)">
    <circle id="Ellipse_942" data-name="Ellipse 942" cx="35" cy="35" r="35" transform="translate(195 1451.533)" fill="#f09ea7"/>
    <g id="Group_23956" data-name="Group 23956" transform="translate(-1313.745 1015.374)">
      <path id="Path_18480" data-name="Path 18480" d="M1549.8,473.267c.333,0,.628,0,.923,0a1.793,1.793,0,0,1,1.86,1.862c.01,1.848,0,3.7,0,5.544,0,.365,0,.364.359.366a5.52,5.52,0,0,1,.556.013.51.51,0,0,1,.473.552.519.519,0,0,1-.485.516,2.711,2.711,0,0,1-.278.008c-2.489,0-4.979-.028-7.468.012a1.891,1.891,0,0,1-2.027-2.052c.018-.276,0-.555,0-.875H1533.41a1.49,1.49,0,0,1-1.665-1.668q0-7.4,0-14.793a1.458,1.458,0,0,1,1.093-1.548,1.932,1.932,0,0,1,.469-.044q7.468,0,14.936,0a1.428,1.428,0,0,1,1.56,1.558q0,5.084,0,10.169Zm-1.1,0c.006-.119.015-.209.015-.3q0-5.083,0-10.167c0-.462-.091-.551-.558-.551h-14.766c-.461,0-.55.092-.55.558q0,7.381,0,14.763c0,.443.1.544.534.544h10.348v-.339c0-.882-.005-1.764,0-2.646a1.813,1.813,0,0,1,1.87-1.862c.929,0,1.857,0,2.786,0Zm-.285,7.772c.938,0,1.876,0,2.814,0,.2,0,.279-.041.278-.26-.008-1.857,0-3.714-.006-5.572,0-.586-.271-.843-.859-.843h-4.96c-.6,0-.858.262-.859.868q0,2.451,0,4.9c0,.645.245.9.889.9C1546.614,481.042,1547.515,481.039,1548.416,481.039Z"/>
      <path id="Path_18481" data-name="Path 18481" d="M1837.495,729.343c-.176,0-.354.012-.529,0a.534.534,0,0,1-.49-.516.514.514,0,0,1,.456-.542,8.6,8.6,0,0,1,1.112,0,.517.517,0,0,1,.464.536.534.534,0,0,1-.484.523C1837.849,729.355,1837.671,729.342,1837.495,729.343Z" transform="translate(-282.047 -247.221)"/>
      <path id="Path_18482" data-name="Path 18482" d="M1604.326,532.9c0-.854,0-1.709,0-2.563a1.287,1.287,0,0,1,2.038-1.176q2.246,1.287,4.484,2.588a1.275,1.275,0,0,1,.012,2.308q-2.271,1.328-4.556,2.631a1.278,1.278,0,0,1-1.978-1.142C1604.32,534.669,1604.326,533.786,1604.326,532.9Zm1.1-.009q0,1.267,0,2.533c0,.4.095.451.439.252l4.361-2.516c.345-.2.346-.309,0-.508q-2.192-1.266-4.385-2.528c-.318-.183-.416-.128-.417.233C1605.423,531.206,1605.425,532.051,1605.425,532.9Z" transform="translate(-67.176 -62.73)"/>
      <path id="Path_18483" data-name="Path 18483" d="M1728.026,655.247c0,.573,0,1.146,0,1.719a1.865,1.865,0,0,1-.018.333.544.544,0,0,1-.573.461.535.535,0,0,1-.5-.537c-.009-.594,0-1.189,0-1.783,0-.064-.006-.127-.012-.261l-.441.424a.57.57,0,0,1-.839.065.559.559,0,0,1,.061-.835q.656-.664,1.32-1.32a.561.561,0,0,1,.9-.013q.675.665,1.34,1.34a.548.548,0,0,1,.047.836.561.561,0,0,1-.816-.061c-.131-.13-.244-.277-.365-.417Z" transform="translate(-179.311 -177.822)"/>
    </g>
  </g>
</svg>
