<svg xmlns="http://www.w3.org/2000/svg" width="56" height="56" viewBox="0 0 56 56">
  <g id="Group_23559" data-name="Group 23559" transform="translate(-195 -1451.533)">
    <circle id="Ellipse_942" data-name="Ellipse 942" cx="28" cy="28" r="28" transform="translate(195 1451.533)" fill="#e2ede9"/>
    <g id="Group_23947" data-name="Group 23947" transform="translate(768.425 1240.533)">
      <path id="Path_18392" data-name="Path 18392" d="M-540.24,228a5.525,5.525,0,0,1,.954.414,1.855,1.855,0,0,1,.851,1.581c.015,1.752.009,3.5.009,5.256,0,.243-.13.382-.331.379s-.314-.138-.324-.368c-.006-.146,0-.293,0-.44,0-1.554,0-3.108,0-4.662a1.418,1.418,0,0,0-1.5-1.5q-4.927,0-9.855,0a1.427,1.427,0,0,0-1.5,1.462c-.01.431,0,.862,0,1.3h.658c0-.32,0-.632,0-.945a1.018,1.018,0,0,1,1.155-1.162c.344,0,.688,0,1.032,0a.682.682,0,0,1,.692.608c.04.283.1.337.378.338.754,0,1.507,0,2.261,0h2.744c.323,0,.371-.044.42-.367a.679.679,0,0,1,.65-.578c.424-.009.849-.011,1.273,0a.97.97,0,0,1,.939.925c.006.095,0,.19,0,.286q0,4.255,0,8.511v.3h.648c0-.073.01-.151.01-.228,0-.711,0-1.422,0-2.133a.527.527,0,0,1,.081-.328.394.394,0,0,1,.321-.109.453.453,0,0,1,.236.244.757.757,0,0,1,.017.3c0,.733.005,1.466,0,2.2a.228.228,0,0,0,.191.26,3.863,3.863,0,0,1,2.648,3.664,3.886,3.886,0,0,1-2.633,3.656.255.255,0,0,0-.206.3c.01.447.014.895,0,1.341a2.061,2.061,0,0,1-1.706,1.98.675.675,0,0,0-.1.037h-10.581c-.124-.038-.248-.074-.371-.116a2.1,2.1,0,0,1-1.414-2.086q0-4.135,0-8.27c0-.286-.007-.572,0-.858a.206.206,0,0,0-.168-.233,3.834,3.834,0,0,1-2.6-2.955,3.351,3.351,0,0,1-.053-.37.344.344,0,0,1,.289-.418c.194-.022.336.115.364.35a3.14,3.14,0,0,0,2.007,2.69,3.272,3.272,0,0,0,1.126.243c.943.034,1.887.012,2.831.012.028,0,.055-.005.149-.015-.138-.129-.246-.223-.346-.324a.569.569,0,0,1-.053-.888,3.2,3.2,0,0,0-.238-4.235,3.2,3.2,0,0,0-5.207.942c-.021.047-.037.1-.059.142a.326.326,0,0,1-.443.2.328.328,0,0,1-.163-.46,3.8,3.8,0,0,1,1.815-2.008,2.332,2.332,0,0,1,.524-.22c.2-.047.227-.155.222-.329-.01-.366,0-.733,0-1.1a2.09,2.09,0,0,1,1.731-2.19.2.2,0,0,0,.054-.034Zm-2.234,17.649-.123-.177a3.862,3.862,0,0,1,1.915-5.912.351.351,0,0,0,.287-.41c-.009-2.873-.006-5.747-.006-8.62,0-.081,0-.162,0-.242a.3.3,0,0,0-.292-.3c-.415-.013-.831,0-1.243,0a.971.971,0,0,1-1.114.946h-4.916a2.433,2.433,0,0,1-.285-.014.9.9,0,0,1-.777-.676c-.022-.082-.036-.166-.055-.258-.383,0-.756,0-1.128,0-.3,0-.41.115-.413.414,0,.322.007.645,0,.967a.21.21,0,0,0,.181.243,3.863,3.863,0,0,1,2.013,5.962c-.032.045-.062.092-.1.147.188.186.363.363.542.535a.508.508,0,0,1,.158.613.525.525,0,0,1-.549.316c-.666-.006-1.331,0-2,0h-.246v.251q0,4.31,0,8.62c0,.412.089.5.505.5h9.218c.073,0,.165.025.216-.009.106-.072.262-.169.27-.266.031-.383.013-.77.013-1.176h-.233c-.651,0-1.3,0-1.953,0a.551.551,0,0,1-.6-.31.547.547,0,0,1,.206-.66C-542.812,245.968-542.643,245.806-542.474,245.649Zm.1.782c1.03,0,1.988.011,2.945,0a3.229,3.229,0,0,0,3.09-3.954,3.221,3.221,0,0,0-3.415-2.454,3.224,3.224,0,0,0-2.907,3.132,3.212,3.212,0,0,0,.691,2.06.568.568,0,0,1-.05.872C-542.117,246.188-542.222,246.287-542.37,246.431Zm-9.578-7.252v2.108q0,3.518,0,7.036a1.436,1.436,0,0,0,1.535,1.541h2.655q3.588,0,7.176,0a1.421,1.421,0,0,0,1.5-1.485c0-.374,0-.748,0-1.121a1.307,1.307,0,0,0-.017-.155h-.64c0,.362,0,.705,0,1.048a.985.985,0,0,1-1.06,1.053q-4.707,0-9.414,0a1.334,1.334,0,0,1-.283-.023,1,1,0,0,1-.789-1.089q0-4.309,0-8.619v-.293Z" fill="#0e1116"/>
      <path id="Path_18393" data-name="Path 18393" d="M-517.43,346.982a.315.315,0,0,1,.313.343.314.314,0,0,1-.331.3.323.323,0,0,1-.317-.322A.323.323,0,0,1-517.43,346.982Z" transform="translate(-35.451 -112.003)" fill="#0e1116"/>
      <path id="Path_18394" data-name="Path 18394" d="M-494.989,347.629a.323.323,0,0,1-.32-.319.323.323,0,0,1,.332-.328.315.315,0,0,1,.316.341A.314.314,0,0,1-494.989,347.629Z" transform="translate(-56.59 -112.003)" fill="#0e1116"/>
      <path id="Path_18395" data-name="Path 18395" d="M-472.2,347.3a.314.314,0,0,1-.307.328.323.323,0,0,1-.341-.319.322.322,0,0,1,.333-.328A.313.313,0,0,1-472.2,347.3Z" transform="translate(-77.728 -112.003)" fill="#0e1116"/>
      <path id="Path_18396" data-name="Path 18396" d="M-391.694,247.427a.313.313,0,0,1,.319.316.328.328,0,0,1-.326.337.337.337,0,0,1-.323-.322A.323.323,0,0,1-391.694,247.427Z" transform="translate(-153.817 -18.287)" fill="#0e1116"/>
      <path id="Path_18397" data-name="Path 18397" d="M-413.925,384.745h2.326c.272,0,.43.125.428.332s-.159.327-.433.327h-4.7c-.252,0-.394-.106-.412-.3-.021-.215.133-.359.4-.359C-415.52,384.744-414.722,384.745-413.925,384.745Z" transform="translate(-130.574 -147.55)" fill="#0e1116"/>
      <path id="Path_18398" data-name="Path 18398" d="M-414.016,407.9c-.783,0-1.566.005-2.348-.006a.535.535,0,0,1-.346-.134.314.314,0,0,1,.189-.511,1.076,1.076,0,0,1,.219-.009h4.587c.037,0,.073,0,.11,0a.341.341,0,0,1,.367.327.335.335,0,0,1-.362.331c-.336.005-.673,0-1.01,0Z" transform="translate(-130.505 -168.721)" fill="#0e1116"/>
      <path id="Path_18399" data-name="Path 18399" d="M-447.61,520.389h-2.261a1.139,1.139,0,0,1-.2-.005.311.311,0,0,1-.285-.334.308.308,0,0,1,.281-.315,1.139,1.139,0,0,1,.2-.006h4.587c.044,0,.088,0,.132,0a.338.338,0,0,1,.345.327.332.332,0,0,1-.341.33c-.241.008-.483,0-.724,0Z" transform="translate(-98.909 -274.617)" fill="#0e1116"/>
      <path id="Path_18400" data-name="Path 18400" d="M-447.7,542.893c-.783,0-1.566.006-2.348-.006a.531.531,0,0,1-.346-.134.315.315,0,0,1,.21-.515,1.24,1.24,0,0,1,.2-.005h4.587c.037,0,.073,0,.11,0a.341.341,0,0,1,.367.327.335.335,0,0,1-.362.331c-.336.005-.673,0-1.01,0Z" transform="translate(-98.792 -295.801)" fill="#0e1116"/>
      <path id="Path_18401" data-name="Path 18401" d="M-403.025,362.9c-.688,0-1.375,0-2.063,0-.277,0-.437-.179-.375-.41.053-.2.2-.25.387-.249q1.4,0,2.809,0h1.207c.311,0,.473.117.468.336s-.162.324-.458.324Z" transform="translate(-141.153 -126.361)" fill="#0e1116"/>
      <path id="Path_18402" data-name="Path 18402" d="M-447.965,497.244h2.019c.272,0,.43.124.428.331s-.159.328-.433.328h-4.038c-.26,0-.409-.118-.415-.321s.144-.337.4-.338C-449.325,497.243-448.645,497.244-447.965,497.244Z" transform="translate(-98.862 -253.451)" fill="#0e1116"/>
      <path id="Path_18403" data-name="Path 18403" d="M-310.845,482.629a.323.323,0,0,1-.327-.333.323.323,0,0,1,.325-.314.314.314,0,0,1,.324.333A.313.313,0,0,1-310.845,482.629Z" transform="translate(-229.925 -239.084)" fill="#0e1116"/>
      <path id="Path_18404" data-name="Path 18404" d="M-288.066,482.306a.313.313,0,0,1-.315.321.323.323,0,0,1-.334-.327.323.323,0,0,1,.34-.32A.314.314,0,0,1-288.066,482.306Z" transform="translate(-251.066 -239.082)" fill="#0e1116"/>
      <path id="Path_18405" data-name="Path 18405" d="M-265.913,481.974a.315.315,0,0,1,.3.357.313.313,0,0,1-.343.289.323.323,0,0,1-.3-.334A.325.325,0,0,1-265.913,481.974Z" transform="translate(-272.202 -239.077)" fill="#0e1116"/>
    </g>
  </g>
</svg>
