<svg xmlns="http://www.w3.org/2000/svg" width="70" height="70" viewBox="0 0 70 70">
  <g id="Group_23574" data-name="Group 23574" transform="translate(-195 -1451.533)">
    <circle id="Ellipse_942" data-name="Ellipse 942" cx="35" cy="35" r="35" transform="translate(195 1451.533)" fill="#f5e6d3"/>
    <g id="Group_23951" data-name="Group 23951" transform="translate(1068.37 337.51)">
      <path id="Path_18425" data-name="Path 18425" d="M-827.405,1143.132v13.307a.211.211,0,0,0-.029.053,2.369,2.369,0,0,1-2.48,2.032q-7.972,0-15.944,0a2.955,2.955,0,0,1-.649-.06,2.365,2.365,0,0,1-1.862-2.395q0-7.46,0-14.92a.986.986,0,0,1,1.131-1.124h16.332c.068,0,.137,0,.2,0a.947.947,0,0,1,.921.959c.007.4,0,.805,0,1.208v.2c.482,0,.933,0,1.383,0a.947.947,0,0,1,.855.469C-827.489,1142.951-827.45,1143.043-827.405,1143.132Zm-2.373.221v.187q0,5.885,0,11.77c0,.284.028.315.334.388a.453.453,0,0,1,.367.491.443.443,0,0,1-.422.422,1.051,1.051,0,0,1-.342-.032,1.188,1.188,0,0,1-.882-1.266q0-7.031,0-14.063v-.268h-16.69c0,.077-.01.144-.01.21q0,7.421,0,14.841a1.441,1.441,0,0,0,1.532,1.544q8,0,16.008,0a1.441,1.441,0,0,0,1.531-1.545q0-6.233,0-12.466c0-.072-.006-.143-.01-.213Z" fill="#0e1116"/>
      <path id="Path_18426" data-name="Path 18426" d="M-797.6,1227.905q1.126,0,2.252,0c.457,0,.625.171.625.632q0,2.231,0,4.462c0,.473-.17.646-.636.646h-4.483c-.447,0-.623-.172-.623-.615q0-2.252,0-4.5c0-.463.163-.622.633-.622Zm1.91,4.777v-3.809h-3.813v3.809Z" transform="translate(-45.056 -82.662)" fill="#0e1116"/>
      <path id="Path_18427" data-name="Path 18427" d="M-793.839,1188.025h5.77a1.759,1.759,0,0,1,.306.017.455.455,0,0,1,.366.434.454.454,0,0,1-.329.461,1.133,1.133,0,0,1-.282.034q-5.832,0-11.664,0c-.375,0-.584-.152-.606-.436a.452.452,0,0,1,.4-.5,2.046,2.046,0,0,1,.265-.011Z" transform="translate(-45.233 -45.15)" fill="#0e1116"/>
      <path id="Path_18428" data-name="Path 18428" d="M-676.843,1268.76c-.764,0-1.528,0-2.292,0-.392,0-.609-.23-.553-.561a.427.427,0,0,1,.34-.364,1.088,1.088,0,0,1,.264-.025q2.241,0,4.482,0h.082c.343.014.549.2.545.48s-.211.469-.555.471C-675.3,1268.763-676.072,1268.76-676.843,1268.76Z" transform="translate(-158.653 -120.194)" fill="#0e1116"/>
      <path id="Path_18429" data-name="Path 18429" d="M-676.882,1308.646h-2.272a.547.547,0,0,1-.517-.224.463.463,0,0,1,.274-.7,1.14,1.14,0,0,1,.263-.029q2.251,0,4.5,0c.368,0,.568.141.6.416a.446.446,0,0,1-.38.516,1.581,1.581,0,0,1-.264.02Q-675.777,1308.648-676.882,1308.646Z" transform="translate(-158.61 -157.711)" fill="#0e1116"/>
      <path id="Path_18430" data-name="Path 18430" d="M-676.9,1227.9c.764,0,1.528,0,2.292,0,.346,0,.541.156.566.433a.448.448,0,0,1-.345.486,1.144,1.144,0,0,1-.263.031c-1.5,0-3,0-4.5,0a.9.9,0,0,1-.423-.11.4.4,0,0,1-.169-.484.423.423,0,0,1,.349-.332,1.519,1.519,0,0,1,.285-.02Q-678,1227.9-676.9,1227.9Z" transform="translate(-158.595 -82.658)" fill="#0e1116"/>
      <path id="Path_18431" data-name="Path 18431" d="M-676.861,1348.558c-.764,0-1.528,0-2.292,0-.345,0-.542-.157-.566-.433a.448.448,0,0,1,.345-.486,1.131,1.131,0,0,1,.263-.031q2.251,0,4.5,0a.567.567,0,0,1,.524.211.456.456,0,0,1-.3.721,3.839,3.839,0,0,1-.531.019C-675.565,1348.559-676.213,1348.558-676.861,1348.558Z" transform="translate(-158.632 -195.253)" fill="#0e1116"/>
      <path id="Path_18432" data-name="Path 18432" d="M-797.438,1388.5c-.771,0-1.542,0-2.312,0-.327,0-.521-.167-.538-.438a.444.444,0,0,1,.354-.479.979.979,0,0,1,.222-.028q2.282,0,4.563,0c.387,0,.613.21.576.525a.456.456,0,0,1-.491.42c-.457.008-.914,0-1.371,0Z" transform="translate(-45.224 -232.822)" fill="#0e1116"/>
      <path id="Path_18433" data-name="Path 18433" d="M-676.866,1388.5c-.771,0-1.542,0-2.312,0-.329,0-.522-.16-.545-.431a.443.443,0,0,1,.346-.484,1.35,1.35,0,0,1,.3-.03q2.21,0,4.42,0a1.34,1.34,0,0,1,.323.035.452.452,0,0,1,.327.462.455.455,0,0,1-.368.433,1.5,1.5,0,0,1-.265.017Q-675.751,1388.5-676.866,1388.5Z" transform="translate(-158.627 -232.824)" fill="#0e1116"/>
      <path id="Path_18434" data-name="Path 18434" d="M-797.411,1348.557c-.764,0-1.528,0-2.292,0-.328,0-.52-.143-.557-.4a.446.446,0,0,1,.362-.528,1.148,1.148,0,0,1,.242-.026q2.251,0,4.5,0c.358,0,.551.132.6.4a.438.438,0,0,1-.379.531c-.25.025-.5.018-.756.02C-796.265,1348.559-796.838,1348.557-797.411,1348.557Z" transform="translate(-45.246 -195.252)" fill="#0e1116"/>
    </g>
  </g>
</svg>
