<svg xmlns="http://www.w3.org/2000/svg" width="56" height="56" viewBox="0 0 56 56">
  <g id="Group_23559" data-name="Group 23559" transform="translate(-195 -1451.533)">
    <circle id="Ellipse_942" data-name="Ellipse 942" cx="28" cy="28" r="28" transform="translate(195 1451.533)" fill="#fbf4d8"/>
    <g id="Group_23950" data-name="Group 23950" transform="translate(513.312 282.533)">
      <path id="Path_18421" data-name="Path 18421" d="M-211.587,1186c.12.035.242.064.359.106a1.791,1.791,0,0,1,1.189,1.749q0,3.343,0,6.685v1.2c.083,0,.157.011.23.011.769,0,1.537-.005,2.306,0a1.774,1.774,0,0,1,1.8,1.418,2.422,2.422,0,0,1,.04.5q0,2.263,0,4.527a1.791,1.791,0,0,1-1.913,1.913h-4.276a1.8,1.8,0,0,1-1.905-1.9c0-1.257,0-2.515-.006-3.772a.621.621,0,0,0-.113-.34c-.416-.57-.843-1.131-1.269-1.693a.4.4,0,0,1-.086-.461.4.4,0,0,1,.411-.19c.824,0,1.649,0,2.473,0,.264,0,.4.105.429.305.03.241-.129.406-.412.409-.531.005-1.062,0-1.593,0h-.274a9.161,9.161,0,0,0,.595.779,2.144,2.144,0,0,1,.575,1.691c-.05,1.073-.014,2.151-.013,3.227a1.1,1.1,0,0,0,1.223,1.231h4.255a1.079,1.079,0,0,0,1.182-1.184q0-2.274,0-4.547a1.075,1.075,0,0,0-1.188-1.2c-.894,0-1.789,0-2.683,0-.4,0-.505-.105-.505-.512q0-4,0-8.005a1.1,1.1,0,0,0-1.243-1.233h-6.662a5.3,5.3,0,0,0,.484.749.684.684,0,0,0,.459.137c1.1.011,2.194.006,3.291.006.063,0,.126,0,.189,0a.351.351,0,0,1,.354.364.349.349,0,0,1-.367.348c-.056,0-.112,0-.168,0-1.083,0-2.166-.011-3.249,0a1.358,1.358,0,0,1-1.349-.8,7.043,7.043,0,0,0-.38-.675.334.334,0,0,0-.223-.129,5.627,5.627,0,0,0-.607-.005,1.079,1.079,0,0,0-1.083,1.012c-.026.289-.16.43-.389.413s-.343-.194-.324-.474a1.8,1.8,0,0,1,1.386-1.621c.054-.013.106-.03.159-.045Z" transform="translate(-73.907)" fill="#0e1116"/>
      <path id="Path_18422" data-name="Path 18422" d="M-291.777,1263.944c-.349-.464-.66-.884-.98-1.3a.827.827,0,0,1-.179-.54c.007-1.271-.018-2.543.011-3.813a1.166,1.166,0,0,0-1.271-1.283c-1.41.032-2.822.009-4.233.01a1.07,1.07,0,0,0-1.164,1.157q0,2.3,0,4.61a1.065,1.065,0,0,0,1.162,1.158c.321,0,.643,0,.964,0,.264,0,.428.143.43.357s-.161.355-.426.356c-.384,0-.769.008-1.152-.006a1.765,1.765,0,0,1-1.686-1.64c-.006-.084-.009-.167-.009-.251,0-1.523,0-3.045,0-4.568a1.783,1.783,0,0,1,1.892-1.889q2.159,0,4.317,0a1.787,1.787,0,0,1,1.884,1.879c.005,1.264,0,2.528.006,3.792a.622.622,0,0,0,.113.34c.416.569.843,1.131,1.269,1.693a.4.4,0,0,1,.086.461.4.4,0,0,1-.41.19q-1.9,0-3.793,0h-.271v.246q0,3.51,0,7.019a1.088,1.088,0,0,0,1.182,1.189h8.215a1.079,1.079,0,0,0,1.16-1.064.35.35,0,0,1,.374-.362.36.36,0,0,1,.338.4,1.79,1.79,0,0,1-1.729,1.737c-.489.012-.978,0-1.467,0h-6.874a1.8,1.8,0,0,1-1.914-1.914q0-3.73,0-7.459c0-.4.109-.511.509-.511h3.645Z" transform="translate(0 -66.368)" fill="#0e1116"/>
      <path id="Path_18423" data-name="Path 18423" d="M-267.678,1295.649a1.406,1.406,0,0,1,1.17-.392,1.408,1.408,0,0,1,1.227,1.707,2.92,2.92,0,0,1-1.687,2.3,1.533,1.533,0,0,1-1.412,0,2.922,2.922,0,0,1-1.712-2.5,1.313,1.313,0,0,1,.781-1.362,1.349,1.349,0,0,1,1.561.188Zm1.7,1.183a.741.741,0,0,0-.515-.844.693.693,0,0,0-.821.379c-.08.164-.175.291-.369.29s-.28-.122-.356-.278a.691.691,0,0,0-.813-.394.679.679,0,0,0-.529.75,2.244,2.244,0,0,0,1.331,1.892.811.811,0,0,0,.728,0A2.228,2.228,0,0,0-265.977,1296.832Z" transform="translate(-28.521 -103.12)" fill="#0e1116"/>
      <path id="Path_18424" data-name="Path 18424" d="M-42.429,1399.492a1.4,1.4,0,0,1,1.326-.36,1.367,1.367,0,0,1,1.087,1.443,2.924,2.924,0,0,1-1.647,2.5,1.585,1.585,0,0,1-1.584-.028,2.936,2.936,0,0,1-1.6-2.4,1.322,1.322,0,0,1,.75-1.382,1.352,1.352,0,0,1,1.583.165Zm1.7,1.053a.7.7,0,0,0-.524-.718.7.7,0,0,0-.819.387c-.079.164-.176.286-.372.282s-.277-.123-.352-.28a.7.7,0,0,0-.818-.39.69.69,0,0,0-.522.758,2.218,2.218,0,0,0,1.355,1.892.844.844,0,0,0,.691.007A2.311,2.311,0,0,0-40.726,1400.545Z" transform="translate(-241.157 -201.15)" fill="#0e1116"/>
    </g>
  </g>
</svg>
