<svg xmlns="http://www.w3.org/2000/svg" width="70" height="70" viewBox="0 0 70 70">
  <g id="Group_23574" data-name="Group 23574" transform="translate(-195 -1451.533)">
    <circle id="Ellipse_942" data-name="Ellipse 942" cx="35" cy="35" r="35" transform="translate(195 1451.533)" fill="#ccd7c6"/>
    <g id="Group_23959" data-name="Group 23959" transform="translate(-2080.688 1176.248)">
      <path id="Path_18491" data-name="Path 18491" d="M2296.74,385.521a.893.893,0,0,1,.983-.555c.224.02.45,0,.7,0,.005-.118.013-.215.013-.311,0-.99-.01-1.979,0-2.969a2.575,2.575,0,0,1,2.651-2.59,2.425,2.425,0,0,1,1.667.7.647.647,0,0,0,.5.194q7.177-.006,14.354,0c.118,0,.237,0,.354.009a.938.938,0,0,1,.888.958c.008.753,0,1.507,0,2.261v.3c.162-.091.288-.159.411-.23l4.005-2.314a2.648,2.648,0,0,1,.264-.14.738.738,0,0,1,1.081.582,1.622,1.622,0,0,1,.014.271q0,4.957,0,9.915c0,.045,0,.091,0,.136a.755.755,0,0,1-1.181.683c-.7-.384-1.385-.794-2.076-1.193l-2.262-1.306c-.069-.04-.141-.075-.24-.128-.006.1-.014.177-.015.254q0,1.062,0,2.125a.989.989,0,0,1-1.128,1.137h-12.857c-.026.084-.047.152-.069.22a.932.932,0,0,1-.873.661c-.345.009-.69.006-1.035,0-.286,0-.451-.151-.457-.393s.17-.414.464-.421.581-.008.872,0c.18.005.268-.051.264-.247-.02-.943.134-.784-.759-.788-1.652-.008-3.3,0-4.957-.007-.263,0-.344.08-.34.342.013.7,0,.7.709.7h2.07a1.024,1.024,0,0,1,.244.014.383.383,0,0,1,.325.434.358.358,0,0,1-.371.362c-.99.006-1.979.016-2.969-.008a.9.9,0,0,1-.816-.877c-.011-.245-.005-.49,0-.735a.961.961,0,0,1,1.056-1.042c.681,0,1.362,0,2.043,0h.315v-1.863c-.134-.027-.281-.05-.427-.086a4.236,4.236,0,0,1-3.369-3.441.7.7,0,0,0-.051-.12Zm8.141,6.967h12.785c.377,0,.377,0,.377-.378V381.192c0-.385,0-.386-.4-.386h-14.171c.23,1.4.037,2.775.135,4.166.319,0,.617-.007.914,0a.753.753,0,0,1,.752.869,4.286,4.286,0,0,1-3.392,3.725c-.149.032-.3.058-.44.085v1.869h2.225C2304.417,391.522,2304.7,391.745,2304.881,392.488Zm16.181-2.4c0-.428,0-.8,0-1.164.005-.308.151-.479.4-.485s.412.167.416.491c.005.454.011.908,0,1.362a.387.387,0,0,0,.228.408c.463.249.914.521,1.369.784l.335.191V381.626c-.083.041-.146.07-.207.1-.5.284-.987.577-1.488.851a.4.4,0,0,0-.238.4c.01,1.244.005,2.487,0,3.731a1.711,1.711,0,0,1-.015.3.4.4,0,0,1-.777.023,1.464,1.464,0,0,1-.024-.324q0-1.593,0-3.186c0-.094-.009-.188-.016-.322-.722.417-1.406.807-2.081,1.21a.33.33,0,0,0-.1.247c-.006,1.325-.008,2.651,0,3.976a.406.406,0,0,0,.174.285c.431.267.876.514,1.316.767Zm-18.311-6.14c.007-.073.017-.126.017-.178,0-.744.026-1.491-.02-2.232a1.741,1.741,0,0,0-3.47-.054c-.06.811-.012,1.63-.012,2.464Zm.814,1.845a2.614,2.614,0,0,1-2.548,2.149,2.652,2.652,0,0,1-2.565-2.147h-.861a3.443,3.443,0,0,0,3.628,3.04c1.641-.077,3.251-1.6,3.2-3.042Zm-.814-.991h-3.478a1.945,1.945,0,0,0,.75,2.009,1.66,1.66,0,0,0,1.92.038A1.936,1.936,0,0,0,2302.75,384.807Z" transform="translate(0 -73.076)"/>
      <path id="Path_18492" data-name="Path 18492" d="M2426.142,300.286a6.488,6.488,0,0,1,4.7,2.01.455.455,0,0,1,.16.51c-.113.3-.437.334-.711.1a10.291,10.291,0,0,0-1.252-1,5.641,5.641,0,0,0-6.911.868c-.045.045-.087.093-.134.136a.409.409,0,1,1-.583-.568,6.321,6.321,0,0,1,1.845-1.376A6.4,6.4,0,0,1,2426.142,300.286Z" transform="translate(-115.459)"/>
      <path id="Path_18493" data-name="Path 18493" d="M2456.561,344.689a3.239,3.239,0,0,1,2.219.96c.242.24.266.477.074.663s-.405.149-.643-.075a2.421,2.421,0,0,0-3.469,0c-.236.221-.465.246-.644.069s-.161-.419.08-.663A3.353,3.353,0,0,1,2456.561,344.689Z" transform="translate(-145.79 -41.171)"/>
      <path id="Path_18494" data-name="Path 18494" d="M2441.273,323.367a4.054,4.054,0,0,0-2.878,1.16c-.053.05-.1.106-.154.154a.4.4,0,0,1-.584,0,.378.378,0,0,1,0-.562,6.925,6.925,0,0,1,.889-.755,4.753,4.753,0,0,1,3.209-.789.41.41,0,0,1,.421.436.4.4,0,0,1-.47.378C2441.563,323.389,2441.418,323.376,2441.273,323.367Z" transform="translate(-130.545 -20.645)"/>
      <path id="Path_18495" data-name="Path 18495" d="M2471.664,366.984a1.623,1.623,0,0,1,1.136.459.416.416,0,0,1,.066.622.412.412,0,0,1-.6-.009.806.806,0,0,0-1.192,0,.409.409,0,1,1-.551-.6A1.609,1.609,0,0,1,2471.664,366.984Z" transform="translate(-160.98 -61.844)"/>
      <path id="Path_18496" data-name="Path 18496" d="M2516.389,333.188a1.639,1.639,0,0,1-.305-.144c-.312-.247-.616-.5-.921-.757a.4.4,0,0,1-.092-.556.359.359,0,0,1,.524-.116,9.694,9.694,0,0,1,1.041.862.519.519,0,0,1,.054.441C2516.655,333.028,2516.494,333.1,2516.389,333.188Z" transform="translate(-202.37 -28.983)"/>
      <path id="Path_18497" data-name="Path 18497" d="M2438.1,437.087c0-.916,0-1.832,0-2.749,0-.73.517-1.031,1.151-.67q2.422,1.377,4.838,2.764c.654.376.651.965-.005,1.342q-2.416,1.389-4.838,2.765c-.636.361-1.143.058-1.147-.678C2438.1,438.937,2438.1,438.012,2438.1,437.087Zm5.518.016-4.687-2.678v5.356Z" transform="translate(-131.071 -123.533)"/>
      <path id="Path_18498" data-name="Path 18498" d="M2343.714,426.155c-.162,0-.325.008-.487,0a.411.411,0,0,1-.424-.43.4.4,0,0,1,.437-.382c.325-.005.65-.006.975,0a.389.389,0,0,1,.422.395.4.4,0,0,1-.407.416C2344.058,426.165,2343.886,426.155,2343.714,426.155Z" transform="translate(-42.71 -115.949)"/>
      <path id="Path_18499" data-name="Path 18499" d="M2343.709,405.287c-.172,0-.344.01-.514,0a.38.38,0,0,1-.38-.382.385.385,0,0,1,.369-.422c.36-.017.722-.016,1.083,0a.4.4,0,0,1-.015.807c-.18.01-.361,0-.542,0Z" transform="translate(-42.719 -96.599)"/>
    </g>
  </g>
</svg>
