<svg xmlns="http://www.w3.org/2000/svg" width="70" height="70" viewBox="0 0 70 70">
  <g id="Group_23574" data-name="Group 23574" transform="translate(-195 -1451.533)">
    <circle id="Ellipse_942" data-name="Ellipse 942" cx="35" cy="35" r="35" transform="translate(195 1451.533)" fill="#f09ea7"/>
    <g id="Group_23960" data-name="Group 23960" transform="translate(-1224.521 1604.419)">
      <path id="Path_18500" data-name="Path 18500" d="M1457.364-5.118A5.931,5.931,0,0,1,1461.4-9.8a3.2,3.2,0,0,1-.4-4.877,3.151,3.151,0,0,1,4.37.008,3.022,3.022,0,0,1,.946,2.531,3.143,3.143,0,0,1-1.363,2.328,5.961,5.961,0,0,1,4.064,4.718c.279-.272.556-.511.8-.781a8.974,8.974,0,0,0,2.294-7.571c-.042-.3.078-.5.321-.536s.4.113.448.409a9.634,9.634,0,0,1-2.006,7.67,9.562,9.562,0,0,1-5.932,3.538c-.357.067-.6-.1-.574-.4.024-.248.2-.335.417-.374a9.222,9.222,0,0,0,3.251-1.25.4.4,0,0,0,.21-.456,5.09,5.09,0,0,0-4.045-4.33,5.075,5.075,0,0,0-6.042,4.185c-.077.431-.079.434.291.661a9.1,9.1,0,0,0,3.119,1.19.743.743,0,0,1,.313.123.346.346,0,0,1,.1.443.374.374,0,0,1-.469.218,14.029,14.029,0,0,1-1.724-.463,9.613,9.613,0,0,1-6.251-7.409,9.187,9.187,0,0,1-.053-3.271c.006-.04.016-.08.025-.12a.394.394,0,0,1,.44-.361.409.409,0,0,1,.332.489,14.043,14.043,0,0,0-.117,1.416,8.9,8.9,0,0,0,3.069,6.853C1457.265-5.194,1457.3-5.166,1457.364-5.118Zm3.468-7.292a2.364,2.364,0,0,0,2.363,2.348,2.362,2.362,0,0,0,2.348-2.363,2.362,2.362,0,0,0-2.363-2.348A2.363,2.363,0,0,0,1460.832-12.41Z" transform="translate(-8.666 -104.925)" fill="#0e1116"/>
      <path id="Path_18501" data-name="Path 18501" d="M1521.805-122.126c.105-.614.193-1.28.34-1.933a.832.832,0,0,0-.289-.934c-.478-.408-.909-.872-1.362-1.309a.441.441,0,0,1-.178-.474c.068-.208.235-.265.437-.293.737-.1,1.471-.219,2.208-.318a.313.313,0,0,0,.27-.2c.321-.661.652-1.318.971-1.98a.449.449,0,0,1,.419-.318c.22,0,.326.144.414.326.316.655.644,1.3.96,1.958a.329.329,0,0,0,.286.215c.737.1,1.472.216,2.208.319a.45.45,0,0,1,.422.279c.076.212-.038.357-.18.495-.529.512-1.061,1.021-1.578,1.544a.45.45,0,0,0-.113.336c.109.711.241,1.417.362,2.126.031.185.074.377-.1.527a.418.418,0,0,1-.522.023c-.65-.344-1.305-.678-1.95-1.032a.409.409,0,0,0-.448.007c-.653.355-1.312.7-1.973,1.04A.4.4,0,0,1,1521.805-122.126Zm-.169-4.274c.4.43.808.869,1.222,1.3a.551.551,0,0,1,.166.53c-.11.584-.2,1.171-.311,1.806.409-.214.774-.41,1.143-.6.91-.462.6-.473,1.527,0,.366.187.729.381,1.135.593-.1-.605-.178-1.163-.295-1.713a.625.625,0,0,1,.229-.692,2.308,2.308,0,0,0,.23-.22c.314-.329.626-.66.941-.993-.041-.009-.1-.025-.165-.034-.533-.08-1.066-.164-1.6-.234a.509.509,0,0,1-.426-.318c-.229-.479-.469-.953-.705-1.428-.03-.061-.069-.117-.12-.2-.27.547-.531,1.055-.773,1.572a.572.572,0,0,1-.513.387c-.187.012-.372.051-.558.079Z" transform="translate(-70.096)" fill="#0e1116"/>
      <path id="Path_18502" data-name="Path 18502" d="M1445.124-85.428c.094-.545.187-1.125.3-1.7a.394.394,0,0,0-.126-.41c-.4-.374-.785-.764-1.179-1.144a.444.444,0,0,1-.181-.473c.066-.211.241-.269.438-.3.55-.077,1.1-.164,1.65-.233a.33.33,0,0,0,.291-.21c.239-.5.493-.995.732-1.5a.436.436,0,0,1,.4-.3.432.432,0,0,1,.407.3c.242.508.49,1.014.751,1.514a.391.391,0,0,0,.245.181c.539.093,1.081.169,1.623.246.209.029.412.063.491.3s-.075.381-.225.526c-.37.358-.732.725-1.109,1.076a.425.425,0,0,0-.146.449c.1.52.184,1.045.275,1.568a.455.455,0,0,1-.138.51.456.456,0,0,1-.527-.027c-.49-.261-.985-.514-1.472-.779a.309.309,0,0,0-.335,0q-.775.42-1.562.819A.394.394,0,0,1,1445.124-85.428Zm2.327-5.01c-.172.348-.34.631-.453.934a.825.825,0,0,1-.825.591,8.728,8.728,0,0,0-.957.139c.3.313.573.615.864.9a.549.549,0,0,1,.169.551c-.081.4-.139.8-.213,1.249.378-.2.719-.357,1.04-.55a.656.656,0,0,1,.752,0c.324.195.669.354,1.04.547-.07-.418-.109-.792-.2-1.154a.678.678,0,0,1,.247-.733c.273-.251.516-.534.777-.81-.4-.061-.806-.133-1.211-.178a.555.555,0,0,1-.478-.36C1447.835-89.673,1447.653-90.027,1447.451-90.438Z" transform="translate(0 -35.047)" fill="#0e1116"/>
      <path id="Path_18503" data-name="Path 18503" d="M1616.984-85.415c.094-.549.187-1.129.3-1.707a.411.411,0,0,0-.136-.43c-.395-.367-.774-.752-1.162-1.127-.143-.137-.256-.281-.18-.494s.255-.256.448-.283c.55-.078,1.1-.165,1.65-.234a.308.308,0,0,0,.27-.2c.245-.507.5-1.009.743-1.518a.425.425,0,0,1,.387-.288.425.425,0,0,1,.412.289c.242.508.5,1.01.743,1.518a.306.306,0,0,0,.271.2c.543.067,1.083.156,1.625.233.2.029.393.066.472.288s-.052.37-.2.511c-.388.375-.768.759-1.162,1.127a.375.375,0,0,0-.123.388c.1.554.206,1.108.278,1.667a.623.623,0,0,1-.138.431c-.125.146-.309.1-.474.01-.5-.268-1.015-.527-1.516-.8a.326.326,0,0,0-.357,0q-.764.415-1.54.808A.4.4,0,0,1,1616.984-85.415Zm4.574-3.357c-.4-.061-.8-.134-1.2-.177a.571.571,0,0,1-.5-.374c-.166-.359-.348-.711-.545-1.111-.208.419-.4.787-.574,1.16a.505.505,0,0,1-.427.316c-.416.053-.83.123-1.232.184.3.312.576.619.869.912a.537.537,0,0,1,.163.53c-.08.4-.141.814-.217,1.261.391-.206.75-.381,1.1-.58a.589.589,0,0,1,.643,0c.346.2.7.374,1.095.579-.074-.443-.13-.846-.213-1.242a.561.561,0,0,1,.183-.569C1620.99-88.166,1621.265-88.466,1621.559-88.772Z" transform="translate(-157.722 -35.048)" fill="#0e1116"/>
      <path id="Path_18504" data-name="Path 18504" d="M1568.837,137.537a.391.391,0,1,1-.4-.381A.4.4,0,0,1,1568.837,137.537Z" transform="translate(-113.925 -245.07)" fill="#0e1116"/>
    </g>
  </g>
</svg>
