<svg xmlns="http://www.w3.org/2000/svg" width="70" height="70" viewBox="0 0 70 70">
  <g id="Group_23574" data-name="Group 23574" transform="translate(-195 -1451.533)">
    <circle id="Ellipse_942" data-name="Ellipse 942" cx="35" cy="35" r="35" transform="translate(195 1451.533)" fill="#f6ca94"/>
    <g id="Group_23961" data-name="Group 23961" transform="translate(-2336.422 739.263)">
      <path id="Path_18505" data-name="Path 18505" d="M2555.422,756.174a.494.494,0,0,1,.487-.227q5.009.007,10.018,0a8.641,8.641,0,0,0,6.24-2.5,8.547,8.547,0,0,0,2.617-5.491,8.793,8.793,0,0,0-6.419-9.229,7,7,0,0,0-1.165-.212c.047.042.093.087.143.126.257.2.518.4.771.6a.348.348,0,0,1,.076.506.343.343,0,0,1-.5.026q-.91-.7-1.813-1.417a.343.343,0,0,1,0-.59q.887-.7,1.781-1.389c.207-.16.394-.153.527.009s.089.369-.115.532c-.344.273-.691.541-1.069.837.343.059.65.093.947.165a9.159,9.159,0,0,1,7.309,7.221,9.365,9.365,0,0,1-6.389,11.051,9.5,9.5,0,0,1-2.917.431q-5.02,0-10.039,0a.486.486,0,0,1-.5-.248Z" fill="#0e1116"/>
      <path id="Path_18506" data-name="Path 18506" d="M2846.749,1059.8c-.3-.271-.291-.443.033-.7a11.441,11.441,0,0,0,.906-.763h-.221q-1.651,0-3.3,0a.819.819,0,0,1-.272-.034.332.332,0,0,1,.061-.638,1.417,1.417,0,0,1,.234-.009h3.491l.069-.077a.755.755,0,0,1-.167-.072q-.432-.329-.857-.666c-.2-.16-.242-.346-.115-.513a.342.342,0,0,1,.524-.03q.892.69,1.779,1.389a.347.347,0,0,1,0,.616c-.632.5-1.269,1-1.9,1.5Z" transform="translate(-271.845 -301.705)" fill="#0e1116"/>
      <path id="Path_18507" data-name="Path 18507" d="M2628.98,823.779a5.332,5.332,0,0,1,.257-.581.678.678,0,0,0-.013-.756,7.884,7.884,0,0,1-.461-1.162.322.322,0,0,0-.213-.233c-.221-.075-.437-.169-.657-.249a.362.362,0,0,1-.261-.371c0-.391,0-.781,0-1.172a.352.352,0,0,1,.25-.356c.233-.086.467-.171.692-.273a.38.38,0,0,0,.171-.184q.307-.711.592-1.43a.378.378,0,0,0,.008-.25c-.085-.225-.19-.443-.29-.663a.373.373,0,0,1,.085-.464q.4-.4.8-.8a.371.371,0,0,1,.463-.089c.219.1.437.206.663.288a.413.413,0,0,0,.269-.013q.71-.281,1.41-.585a.379.379,0,0,0,.187-.166c.1-.219.181-.447.263-.673a.382.382,0,0,1,.406-.274q.554.008,1.108,0a.385.385,0,0,1,.4.28,2.041,2.041,0,0,0,.309.737c.171.17.485.192.729.3a7.806,7.806,0,0,1,.785.377.335.335,0,0,0,.353.013c.2-.1.415-.185.621-.28a.361.361,0,0,1,.446.083c.27.272.541.544.814.814a.376.376,0,0,1,.079.466,2.079,2.079,0,0,0-.311.758c0,.249.225.49.328.744s.186.551.292.82a.4.4,0,0,0,.181.2c.225.1.46.186.692.273a.339.339,0,0,1,.24.341c0,.4,0,.8,0,1.193a.35.35,0,0,1-.248.357c-.226.084-.455.162-.672.265a.448.448,0,0,0-.2.214c-.2.454-.371.918-.575,1.368a.341.341,0,0,0-.008.333c.1.2.185.415.279.621a.374.374,0,0,1-.087.464q-.4.4-.8.8a.371.371,0,0,1-.463.089c-.219-.1-.437-.206-.663-.288a.415.415,0,0,0-.27.014q-.71.281-1.41.585a.38.38,0,0,0-.186.168c-.1.212-.178.433-.256.653a.39.39,0,0,1-.416.291c-.362-.007-.725-.008-1.087,0a.4.4,0,0,1-.43-.3,6.005,6.005,0,0,0-.249-.633.415.415,0,0,0-.2-.18q-.691-.3-1.391-.577a.448.448,0,0,0-.289-.015c-.226.081-.443.188-.663.288a.363.363,0,0,1-.446-.086c-.27-.273-.546-.539-.811-.817A1.365,1.365,0,0,1,2628.98,823.779Zm1.33.458c.052-.021.092-.036.131-.053.181-.081.366-.154.542-.245a.481.481,0,0,1,.537.037,3.952,3.952,0,0,0,1.438.617.714.714,0,0,1,.6.533c.2.576.213.567.817.562.116,0,.181-.03.218-.145.056-.175.14-.342.192-.518a.6.6,0,0,1,.46-.411,8.184,8.184,0,0,0,1.393-.561.8.8,0,0,1,.845-.047c.522.262.528.241.942-.169a.213.213,0,0,0,.059-.293c-.093-.175-.16-.363-.247-.542a.463.463,0,0,1,.031-.5,4.657,4.657,0,0,0,.678-1.642.428.428,0,0,1,.3-.347c.208-.072.407-.166.616-.234a.174.174,0,0,0,.119-.235c-.044-.207.121-.452-.109-.624a.485.485,0,0,0-.118-.047c-.165-.064-.328-.134-.5-.19a.455.455,0,0,1-.323-.381,4.037,4.037,0,0,0-.59-1.472.715.715,0,0,1-.044-.806c.266-.546.249-.549-.188-.977a.192.192,0,0,0-.259-.039c-.185.09-.379.161-.562.254a.452.452,0,0,1-.5-.04,4,4,0,0,0-1.458-.625.714.714,0,0,1-.6-.536c-.2-.587-.218-.586-.841-.551a.253.253,0,0,0-.177.125,3.79,3.79,0,0,0-.216.554.505.505,0,0,1-.434.379,3.833,3.833,0,0,0-1.432.576.713.713,0,0,1-.8.049c-.562-.273-.571-.261-.985.2a.255.255,0,0,0-.041.215,3.559,3.559,0,0,0,.23.525.6.6,0,0,1-.035.616,8.189,8.189,0,0,0-.589,1.381.81.81,0,0,1-.563.631c-.565.19-.559.209-.543.811,0,.007,0,.016,0,.021.042.062.073.151.131.179a5.57,5.57,0,0,0,.593.234.458.458,0,0,1,.326.378,4.024,4.024,0,0,0,.589,1.473.716.716,0,0,1,.049.805c-.273.559-.259.566.2.989C2630.237,824.185,2630.277,824.212,2630.31,824.237Z" transform="translate(-68.098 -72.665)" fill="#0e1116"/>
      <path id="Path_18508" data-name="Path 18508" d="M2583.344,767.262a.332.332,0,0,1,.341.281.311.311,0,0,1-.211.373c-.212.079-.436.129-.648.209A8.784,8.784,0,0,0,2580,783.078c.032.028.065.054.1.084a.349.349,0,0,1,.051.478.329.329,0,0,1-.492.032,14.26,14.26,0,0,1-1.137-1.12,9.44,9.44,0,0,1,3.508-14.853c.371-.158.761-.27,1.143-.4A1.391,1.391,0,0,1,2583.344,767.262Z" transform="translate(-19.631 -29.227)" fill="#0e1116"/>
      <path id="Path_18509" data-name="Path 18509" d="M2689.83,872.135a3.364,3.364,0,1,1-3.366-3.358A3.367,3.367,0,0,1,2689.83,872.135Zm-.682.016a2.682,2.682,0,1,0-2.689,2.676A2.687,2.687,0,0,0,2689.148,872.152Z" transform="translate(-120.41 -124.962)" fill="#0e1116"/>
    </g>
  </g>
</svg>
