<svg xmlns="http://www.w3.org/2000/svg" width="70" height="70" viewBox="0 0 70 70">
  <g id="Group_23574" data-name="Group 23574" transform="translate(-195 -1451.533)">
    <circle id="Ellipse_942" data-name="Ellipse 942" cx="35" cy="35" r="35" transform="translate(195 1451.533)" fill="#fbf5ab"/>
    <g id="Group_23958" data-name="Group 23958" transform="translate(-1637.318 1496.699)">
      <path id="Path_18488" data-name="Path 18488" d="M1873.009,68.919v-9.1c0-.076,0-.152,0-.227a.361.361,0,0,1,.721.007c0,.053,0,.106,0,.159q0,5.364,0,10.728a1.817,1.817,0,0,1-1.917,1.923h-13.584a1.817,1.817,0,0,1-1.915-1.925q0-6.782,0-13.563a1.818,1.818,0,0,1,1.932-1.93h10.7a1.04,1.04,0,0,1,.226.008.36.36,0,0,1,.01.707,1.038,1.038,0,0,1-.248.011h-10.658a1.108,1.108,0,0,0-1.24,1.246q0,5.908,0,11.817v.287c.1-.1.164-.159.228-.225l5.18-5.275c.324-.331.5-.315.773.069q2.775,3.923,5.547,7.849a.411.411,0,0,0,.384.2c.892-.011,1.784,0,2.676-.005a1.108,1.108,0,0,0,1.183-1.173,1.061,1.061,0,0,0-.264-.754c-1.2-1.472-2.379-2.955-3.567-4.435-.051-.063-.105-.124-.162-.192-.253.248-.5.482-.735.721-.385.385-.765.774-1.149,1.16-.209.21-.407.232-.574.071s-.148-.369.055-.575q1.034-1.051,2.071-2.1c.286-.289.469-.279.724.039l3.377,4.209C1872.848,68.725,1872.906,68.794,1873.009,68.919Zm-4.981,2.763-5.271-7.454a1.62,1.62,0,0,1-.138.2q-2.656,2.711-5.32,5.416a.79.79,0,0,0-.261.628,1.114,1.114,0,0,0,1.211,1.212h9.78Z" transform="translate(0 -71.795)" fill="#0e1116"/>
      <path id="Path_18489" data-name="Path 18489" d="M2031.99-9.414c-.585.035-.69-.065-.657-.54.048-.686.1-1.371.148-2.057a.729.729,0,0,1,.232-.495q4.124-4.115,8.241-8.238a1.1,1.1,0,0,1,1.74,0c.342.342.686.681,1.025,1.027a1.083,1.083,0,0,1,0,1.628q-4.164,4.171-8.339,8.332a.765.765,0,0,1-.438.188C2033.26-9.5,2032.573-9.457,2031.99-9.414Zm1.512-2.753,6.084-6.087-.489-.518-6.1,6.095Zm6.653-5.522-6.066,6.067.537.555,6.088-6.089Zm1.124.02c.325-.325.649-.641.963-.967a.338.338,0,0,0,.016-.508c-.393-.407-.8-.806-1.2-1.2a.294.294,0,0,0-.415-.034c-.354.344-.685.711-1.015,1.059Zm-9.207,7.522c.552-.043,1.076-.093,1.6-.119a.453.453,0,0,0,.411-.222l-1.671-1.672a.463.463,0,0,0-.223.436C2032.165-11.206,2032.115-10.689,2032.072-10.147Z" transform="translate(-164.996 0)" fill="#0e1116"/>
      <path id="Path_18490" data-name="Path 18490" d="M1936.159,101.2a1.926,1.926,0,1,1,1.919-1.916A1.931,1.931,0,0,1,1936.159,101.2Zm1.193-1.919a1.2,1.2,0,0,0-1.186-1.207,1.2,1.2,0,1,0-.009,2.4A1.187,1.187,0,0,0,1937.352,99.277Z" transform="translate(-73.451 -111.729)" fill="#0e1116"/>
    </g>
  </g>
</svg>
