<svg xmlns="http://www.w3.org/2000/svg" width="70" height="70" viewBox="0 0 70 70">
  <g id="Group_23574" data-name="Group 23574" transform="translate(-195 -1451.533)">
    <circle id="Ellipse_942" data-name="Ellipse 942" cx="35" cy="35" r="35" transform="translate(195 1451.533)" fill="#f6ca94"/>
    <g id="Group_23859" data-name="Group 23859" transform="translate(786.958 976.333)">
      <path id="Path_18181" data-name="Path 18181" d="M-506.679,500.2a4.223,4.223,0,0,1,.736.316,1.529,1.529,0,0,1,.683,1.333c.006,1.549.009,3.1,0,4.647a1.621,1.621,0,0,1-1.7,1.659c-1.326,0-2.652,0-3.978,0h-.254c0,.08,0,.151,0,.222-.006.378.013.759-.026,1.135a.935.935,0,0,1-.9.832c-.081.005-.162,0-.243,0q-3.836,0-7.671,0a.426.426,0,0,0-.335.14c-.43.44-.87.871-1.3,1.309a.464.464,0,0,1-.541.163c-.214-.091-.246-.285-.245-.492,0-.364,0-.728,0-1.117h-.273a1,1,0,0,1-1.117-1.11q0-2.922,0-5.845c0-.122,0-.244,0-.365a.979.979,0,0,1,1.044-1.041q2.3,0,4.607,0h2.084a5.748,5.748,0,0,1,.241-.877,1.519,1.519,0,0,1,1.165-.879.4.4,0,0,0,.073-.03Zm-3.973.812h-3.673a.826.826,0,0,0-.919.914q0,2.253,0,4.505a.826.826,0,0,0,.919.913H-507a.829.829,0,0,0,.929-.924q0-2.242,0-4.485a.829.829,0,0,0-.929-.924Zm-5.4,1.8a.826.826,0,0,0-.087-.012q-3.328,0-6.656,0c-.192,0-.242.094-.241.266,0,.724,0,1.448,0,2.171q0,2.009,0,4.018c0,.25.033.283.279.284h.568c.411,0,.542.133.543.55,0,.158,0,.316,0,.473l.064.031a1.788,1.788,0,0,1,.151-.188,3.5,3.5,0,0,1,.9-.8,3.319,3.319,0,0,1,1.2-.063q3.48,0,6.961,0c.061,0,.133.02.18-.006.072-.04.179-.109.181-.17.016-.4.008-.793.008-1.2h-.244c-.69,0-1.38,0-2.07,0a1.638,1.638,0,0,1-1.737-1.744q0-1.664,0-3.328Z" transform="translate(-40.916)" fill="#0e1116"/>
      <path id="Path_18182" data-name="Path 18182" d="M-566.958,710.382c.036-.128.067-.258.107-.385a2.323,2.323,0,0,1,2.186-1.64c.7-.013,1.407,0,2.111-.007a.99.99,0,0,0,.352-.068q3.319-1.33,6.636-2.667c.044-.018.087-.037.131-.054a.413.413,0,0,1,.614.418c0,.805,0,1.61,0,2.415v.495a1.8,1.8,0,0,1,1.407,1.907,1.785,1.785,0,0,1-1.407,1.681v.214c0,.859-.02,1.719.008,2.577.015.462-.243.707-.736.5-2.024-.831-4.057-1.64-6.087-2.457-.074-.03-.15-.056-.25-.093v.315c0,.609,0,1.218,0,1.827,0,.343-.156.5-.5.5q-.741,0-1.482,0c-.341,0-.491-.155-.492-.5,0-.77,0-1.541,0-2.317a7.374,7.374,0,0,1-.749-.077,2.322,2.322,0,0,1-1.813-1.884.46.46,0,0,0-.037-.09Zm9.508-3.121c-.05.014-.076.019-.1.029-1.4.565-2.8,1.132-4.209,1.69-.129.051-.128.131-.128.236,0,.98,0,1.961,0,2.941a.226.226,0,0,0,.166.253q2.962,1.183,5.92,2.376c.051.021.106.033.164.051V706.52c-.269.108-.521.222-.781.309a.28.28,0,0,0-.222.319c.009,1.312,0,2.624,0,3.935a1.669,1.669,0,0,1-.012.263.4.4,0,0,1-.382.331.4.4,0,0,1-.388-.3,1.123,1.123,0,0,1-.028-.26c0-.575,0-1.15,0-1.724Zm-5.258,1.9h-1.785c-.068,0-.135,0-.2.006a1.529,1.529,0,0,0-1.448,1.555,1.528,1.528,0,0,0,1.568,1.48c.581.007,1.163,0,1.744,0,.039,0,.077-.006.124-.011Zm-.005,5.875V713.03h-.824v2.011Zm7.892-5.265V711.6a.974.974,0,0,0,.61-.922A.968.968,0,0,0-554.821,709.776Z" transform="translate(0 -194.878)" fill="#0e1116"/>
      <path id="Path_18183" data-name="Path 18183" d="M-275.581,799.487c.358,0,.716,0,1.074,0,.279,0,.447.147.456.382a.4.4,0,0,1-.436.425q-1.1.012-2.208,0a.411.411,0,0,1-.45-.417c.006-.24.181-.389.47-.392C-276.31,799.484-275.946,799.487-275.581,799.487Z" transform="translate(-275.078 -284.07)" fill="#0e1116"/>
      <path id="Path_18184" data-name="Path 18184" d="M-288.925,845.178a2.108,2.108,0,0,1-.346-.209c-.256-.24-.5-.489-.745-.741a.415.415,0,0,1-.034-.611.406.406,0,0,1,.6.03c.262.252.517.512.772.772a.368.368,0,0,1,.092.46A1.552,1.552,0,0,1-288.925,845.178Z" transform="translate(-262.717 -325.847)" fill="#0e1116"/>
      <path id="Path_18185" data-name="Path 18185" d="M-288.615,738.953a1.929,1.929,0,0,1-.2.345c-.235.251-.48.493-.728.731a.4.4,0,0,1-.6.033.406.406,0,0,1,.019-.6c.247-.258.5-.51.759-.758a.361.361,0,0,1,.462-.078A1.566,1.566,0,0,1-288.615,738.953Z" transform="translate(-262.63 -226.257)" fill="#0e1116"/>
      <path id="Path_18186" data-name="Path 18186" d="M-298.825,541.04c0-.5,0-1,0-1.5,0-.447.3-.625.684-.4q1.308.751,2.612,1.508c.4.23.391.575-.009.807q-1.287.747-2.576,1.489c-.411.237-.71.068-.711-.4C-298.827,542.039-298.825,541.54-298.825,541.04Zm.825-.885v1.781l1.542-.892Z" transform="translate(-254.5 -36.867)" fill="#0e1116"/>
      <path id="Path_18187" data-name="Path 18187" d="M-480.585,584.844c-.636,0-1.272.005-1.907,0a.538.538,0,0,1-.353-.107.483.483,0,0,1-.122-.373c.024-.113.156-.214.26-.3a.385.385,0,0,1,.216-.03q1.928,0,3.855,0c.311,0,.487.14.5.386s-.164.422-.459.424C-479.259,584.846-479.922,584.844-480.585,584.844Z" transform="translate(-79.716 -79.57)" fill="#0e1116"/>
      <path id="Path_18188" data-name="Path 18188" d="M-481.689,629.545c-.392,0-.784,0-1.177,0-.3,0-.479-.156-.478-.406s.178-.4.48-.4q1.187,0,2.373,0c.294,0,.484.165.483.406s-.191.4-.485.4C-480.891,629.547-481.29,629.545-481.689,629.545Z" transform="translate(-79.363 -121.997)" fill="#0e1116"/>
      <path id="Path_18189" data-name="Path 18189" d="M-403.108,629.611a.4.4,0,0,1-.392-.408.4.4,0,0,1,.4-.4.4.4,0,0,1,.392.408A.4.4,0,0,1-403.108,629.611Z" transform="translate(-155.147 -122.067)" fill="#0e1116"/>
      <path id="Path_18190" data-name="Path 18190" d="M-379.416,844.315a.414.414,0,0,1-.393-.412.41.41,0,0,1,.411-.392.4.4,0,0,1,.389.41A.406.406,0,0,1-379.416,844.315Z" transform="translate(-177.634 -325.857)" fill="#0e1116"/>
    </g>
  </g>
</svg>
