<svg xmlns="http://www.w3.org/2000/svg" width="70" height="70" viewBox="0 0 70 70">
  <g id="Group_23574" data-name="Group 23574" transform="translate(-195 -1451.533)">
    <circle id="Ellipse_942" data-name="Ellipse 942" cx="35" cy="35" r="35" transform="translate(195 1451.533)" fill="#d8e9f0"/>
    <g id="Group_23953" data-name="Group 23953" transform="translate(-607.67 546.177)">
      <path id="Path_18443" data-name="Path 18443" d="M933.981,1043.51c0-.839-.055-1.683.011-2.517a4.658,4.658,0,1,1,5.1,5.1c-1,.075-2.011.035-3.016.044-.583,0-1.165,0-1.748,0-.29,0-.378-.089-.378-.381q0-1.124,0-2.247Zm.5,2.093h.209c1.248,0,2.5,0,3.745,0a6.265,6.265,0,0,0,.769-.045,4.136,4.136,0,1,0-4.72-4.158q0,1.963,0,3.927Z" transform="translate(-100.772 -100.934)" fill="#0e1116"/>
      <path id="Path_18444" data-name="Path 18444" d="M906.237,953.011l.307.543c.085.151.092.3-.068.4a.247.247,0,0,1-.388-.138c-.151-.423-.39-.507-.854-.448a1.857,1.857,0,0,1-2.075-1.7,1.92,1.92,0,1,1,3.246,1.192C906.357,952.9,906.306,952.948,906.237,953.011Zm-2.552-1.55a1.388,1.388,0,1,0,1.392-1.373A1.391,1.391,0,0,0,903.686,951.461Z" transform="translate(-71.838 -18.975)" fill="#0e1116"/>
      <path id="Path_18445" data-name="Path 18445" d="M850.307,1009.043a1.965,1.965,0,0,1-1.319.739,1.916,1.916,0,1,1,1.637-1.418c-.045.173-.025.261.141.331a2.687,2.687,0,0,1,.394.223.247.247,0,0,1,.1.354.242.242,0,0,1-.351.1C850.709,1009.274,850.521,1009.162,850.307,1009.043Zm-1.526-2.552a1.388,1.388,0,0,0-.023,2.777,1.388,1.388,0,1,0,.023-2.777Z" transform="translate(-18.959 -71.958)" fill="#0e1116"/>
      <path id="Path_18446" data-name="Path 18446" d="M981.368,933.194c0,.2,0,.415,0,.626,0,.183-.074.317-.277.312s-.255-.137-.257-.309c0-.211,0-.422,0-.627-1.262-.471-1.81-1.235-1.626-2.25a1.922,1.922,0,0,1,3.789.02C983.166,931.984,982.614,932.745,981.368,933.194Zm-.281-.545a1.377,1.377,0,0,0,1.407-1.378,1.393,1.393,0,0,0-2.786,0A1.377,1.377,0,0,0,981.087,932.649Z" transform="translate(-143.253 0)" fill="#0e1116"/>
      <path id="Path_18447" data-name="Path 18447" d="M980.817,1220.1c0-.2,0-.416,0-.627,0-.172.069-.3.258-.307s.273.131.275.313c0,.211,0,.421,0,.625,1.242.44,1.8,1.21,1.629,2.23a1.921,1.921,0,0,1-3.784.038C979,1221.35,979.538,1220.586,980.817,1220.1Zm.269.548a1.377,1.377,0,0,0-1.395,1.367,1.393,1.393,0,1,0,2.786,0A1.375,1.375,0,0,0,981.086,1220.644Z" transform="translate(-143.236 -272.226)" fill="#0e1116"/>
      <path id="Path_18448" data-name="Path 18448" d="M1056.15,953.05a1.944,1.944,0,0,1-.591-2.306,1.918,1.918,0,0,1,3.592,1.327,1.9,1.9,0,0,1-2.284,1.3c-.213-.055-.318-.012-.4.181a2.915,2.915,0,0,1-.165.3c-.089.164-.222.241-.392.142s-.158-.243-.073-.395Zm2.553-1.536a1.388,1.388,0,1,0-2.776,0,1.388,1.388,0,1,0,2.776,0Z" transform="translate(-214.854 -19.011)" fill="#0e1116"/>
      <path id="Path_18449" data-name="Path 18449" d="M1102.8,1158.766a1.923,1.923,0,1,1,1.024,3.012,1.89,1.89,0,0,1-1.341-2.293c.055-.213.014-.319-.18-.4a1.981,1.981,0,0,1-.277-.153c-.19-.112-.257-.267-.164-.405.112-.166.26-.152.417-.06S1102.623,1158.664,1102.8,1158.766Zm1.519,2.554a1.388,1.388,0,0,0,.05-2.776,1.388,1.388,0,1,0-.05,2.776Z" transform="translate(-258.463 -214.786)" fill="#0e1116"/>
      <path id="Path_18450" data-name="Path 18450" d="M1117.43,1084.174c-.22,0-.431,0-.642,0-.173,0-.3-.073-.3-.263s.123-.265.3-.269c.211,0,.422,0,.653,0a1.962,1.962,0,0,1,1.075-1.458,1.882,1.882,0,0,1,1.326-.131,1.92,1.92,0,0,1-.238,3.759A1.958,1.958,0,0,1,1117.43,1084.174Zm.539-.282a1.377,1.377,0,0,0,1.376,1.408,1.393,1.393,0,1,0,.008-2.785A1.376,1.376,0,0,0,1117.969,1083.892Z" transform="translate(-272.235 -143.373)" fill="#0e1116"/>
      <path id="Path_18451" data-name="Path 18451" d="M830.5,1083.719c.227,0,.438,0,.649,0,.173,0,.3.074.3.264s-.124.264-.3.268c-.2,0-.455-.067-.6.026s-.153.353-.237.533a1.914,1.914,0,1,1,.132-1.293Zm-.533.275a1.375,1.375,0,0,0-1.382-1.4,1.393,1.393,0,1,0,.005,2.785A1.375,1.375,0,0,0,829.963,1083.994Z" transform="translate(0 -143.452)" fill="#0e1116"/>
      <path id="Path_18452" data-name="Path 18452" d="M1056.167,1205.458l-.309-.546c-.086-.151-.089-.3.071-.4a.25.25,0,0,1,.388.142c.152.4.363.513.833.449a1.85,1.85,0,0,1,2.091,1.678,1.919,1.919,0,1,1-3.242-1.175C1056.049,1205.563,1056.1,1205.518,1056.167,1205.458Zm2.55,1.539a1.388,1.388,0,1,0-1.382,1.383A1.39,1.39,0,0,0,1058.718,1207Z" transform="translate(-214.869 -258.426)" fill="#0e1116"/>
      <path id="Path_18453" data-name="Path 18453" d="M850.343,1158.84l.535-.3c.159-.09.314-.1.41.077a.245.245,0,0,1-.139.372c-.405.156-.52.374-.457.85a1.85,1.85,0,0,1-1.691,2.08,1.92,1.92,0,1,1,1.181-3.25C850.234,1158.721,850.284,1158.776,850.343,1158.84Zm-1.533,2.553a1.388,1.388,0,1,0-1.39-1.374A1.391,1.391,0,0,0,848.81,1161.393Z" transform="translate(-18.992 -214.858)" fill="#0e1116"/>
      <path id="Path_18454" data-name="Path 18454" d="M906.359,1205.392a1.924,1.924,0,0,1-2.008,3.259,1.919,1.919,0,0,1-.962-2.377,1.887,1.887,0,0,1,2.237-1.205c.223.058.33.014.414-.185a1.949,1.949,0,0,1,.2-.354.225.225,0,0,1,.351-.07.378.378,0,0,1,.089.328A4.436,4.436,0,0,1,906.359,1205.392Zm-2.554,1.52a1.388,1.388,0,1,0,2.776.028,1.388,1.388,0,1,0-2.776-.028Z" transform="translate(-71.957 -258.361)" fill="#0e1116"/>
      <path id="Path_18455" data-name="Path 18455" d="M1102.794,1008.909c-.2.112-.376.213-.554.312-.154.085-.3.08-.391-.082a.244.244,0,0,1,.135-.373c.424-.158.518-.4.457-.872a1.85,1.85,0,0,1,1.689-2.061,1.919,1.919,0,1,1-1.191,3.236C1102.893,1009.02,1102.849,1008.969,1102.794,1008.909Zm1.545-2.551a1.388,1.388,0,1,0,1.377,1.393A1.391,1.391,0,0,0,1104.339,1006.357Z" transform="translate(-258.448 -71.824)" fill="#0e1116"/>
      <path id="Path_18456" data-name="Path 18456" d="M961.395,1099.192a.931.931,0,0,1,.914-.934.932.932,0,1,1,.005,1.864A.932.932,0,0,1,961.395,1099.192Zm.928.4a.405.405,0,0,0,0-.811.405.405,0,1,0,0,.811Z" transform="translate(-126.553 -158.656)" fill="#0e1116"/>
      <path id="Path_18457" data-name="Path 18457" d="M1031.653,1099.193a.931.931,0,0,1-.92.929.932.932,0,1,1,.007-1.864A.93.93,0,0,1,1031.653,1099.193Zm-.938.4a.405.405,0,1,0,.021-.811.405.405,0,0,0-.021.811Z" transform="translate(-190.799 -158.656)" fill="#0e1116"/>
      <path id="Path_18458" data-name="Path 18458" d="M996.511,1100.12a.932.932,0,1,1,.937-.917A.942.942,0,0,1,996.511,1100.12Zm.41-.935a.405.405,0,1,0-.4.407A.414.414,0,0,0,996.921,1099.186Z" transform="translate(-158.667 -158.654)" fill="#0e1116"/>
    </g>
  </g>
</svg>
