<svg xmlns="http://www.w3.org/2000/svg" width="70" height="70" viewBox="0 0 70 70">
  <g id="Group_23574" data-name="Group 23574" transform="translate(-195 -1451.533)">
    <circle id="Ellipse_942" data-name="Ellipse 942" cx="35" cy="35" r="35" transform="translate(195 1451.533)" fill="#c3e6df"/>
    <g id="Group_23955" data-name="Group 23955" transform="translate(-714.617 1215.052)">
      <path id="Path_18465" data-name="Path 18465" d="M1030.569,476.121a.526.526,0,0,1-.3-.574,2.1,2.1,0,0,1,1.909-1.9l.184-.015V472.62c0-.3-.007-.592,0-.887a.189.189,0,0,0-.171-.225,5.7,5.7,0,0,1-4.313-5.434c-.006-.293.143-.476.388-.487s.426.158.435.464a4.867,4.867,0,0,0,9.5,1.435,8.844,8.844,0,0,0,.244-1.436c.036-.26.134-.42.338-.456a.409.409,0,0,1,.491.459,5.422,5.422,0,0,1-.54,2.351,5.635,5.635,0,0,1-3.752,3.1c-.1.026-.194.035-.191.187.009.612,0,1.224,0,1.836a.738.738,0,0,0,.016.107,2.147,2.147,0,0,1,1.408.558,2.073,2.073,0,0,1,.666,1.354.511.511,0,0,1-.294.574Zm5.411-.832a1.173,1.173,0,0,0-1.081-.814q-1.319-.017-2.638,0a1.131,1.131,0,0,0-.887.456,3.145,3.145,0,0,0-.214.358Zm-2.029-1.656v-1.948h-.743v1.948Z" transform="translate(-89.397 -194.502)" fill="#0e1116"/>
      <path id="Path_18466" data-name="Path 18466" d="M933.617,304.083c.036-.048.069-.1.109-.145a.4.4,0,0,1,.683.135.764.764,0,0,1,.032.243q0,3.329,0,6.658c0,.277-.111.446-.314.493s-.345-.027-.511-.284Z" transform="translate(0 -41.08)" fill="#0e1116"/>
      <path id="Path_18467" data-name="Path 18467" d="M1070.717,267.923c0,1.169,0,2.339,0,3.508a3.878,3.878,0,0,1-7.717.6,4.683,4.683,0,0,1-.042-.575c0-2.352-.007-4.7,0-7.057a3.877,3.877,0,0,1,7.715-.582,5.842,5.842,0,0,1,.043.7C1070.719,265.653,1070.717,266.788,1070.717,267.923Zm-6.933-.159h6.107c0-.1,0-.181,0-.263q0-1.692-.01-3.384a1.649,1.649,0,0,0-.028-.2,3.048,3.048,0,0,0-5.944-.4,3.023,3.023,0,0,0-.12.75C1063.777,265.423,1063.784,266.585,1063.784,267.764Zm0,.851c0,.594-.005,1.164,0,1.734a15.177,15.177,0,0,0,.046,1.605,3.048,3.048,0,0,0,6.061-.5c.006-.894,0-1.787,0-2.681,0-.053-.009-.105-.014-.162Z" transform="translate(-122.65 0)" fill="#0e1116"/>
      <path id="Path_18468" data-name="Path 18468" d="M1326.533,307.591q0-1.629,0-3.258a1.425,1.425,0,0,1,.007-.206.407.407,0,0,1,.811,0,1.374,1.374,0,0,1,.008.206q0,3.268,0,6.536a1.425,1.425,0,0,1-.007.206.408.408,0,0,1-.81,0,1.374,1.374,0,0,1-.008-.206Q1326.533,309.23,1326.533,307.591Z" transform="translate(-372.604 -41.04)" fill="#0e1116"/>
      <path id="Path_18469" data-name="Path 18469" d="M998.31,330.333q0,1.361,0,2.722c0,.292-.135.463-.369.485a.392.392,0,0,1-.439-.318.93.93,0,0,1-.016-.2q0-2.671,0-5.342a.463.463,0,0,1,.262-.492.412.412,0,0,1,.563.426c.007.529,0,1.059,0,1.588Q998.31,329.766,998.31,330.333Z" transform="translate(-60.564 -63.224)" fill="#0e1116"/>
      <path id="Path_18470" data-name="Path 18470" d="M965.51,337.57c0-.632-.01-1.264.008-1.9a.66.66,0,0,1,.167-.415.382.382,0,0,1,.616.18.914.914,0,0,1,.033.284q0,1.865,0,3.731c0,.041,0,.083,0,.124a.424.424,0,0,1-.405.436.417.417,0,0,1-.417-.444c-.007-.543,0-1.085,0-1.628Z" transform="translate(-30.242 -70.821)" fill="#0e1116"/>
      <path id="Path_18471" data-name="Path 18471" d="M1295.4,337.743c0,.646,0,1.292,0,1.937a.412.412,0,0,1-.575.427.446.446,0,0,1-.249-.458c0-.556,0-1.113,0-1.669,0-.735,0-1.47,0-2.205a.416.416,0,0,1,.407-.472c.253,0,.416.18.417.483C1295.406,336.438,1295.4,337.09,1295.4,337.743Z" transform="translate(-342.301 -70.954)" fill="#0e1116"/>
      <path id="Path_18472" data-name="Path 18472" d="M1263.439,329.557c0,.619,0,1.238,0,1.857a.426.426,0,0,1-.348.467.414.414,0,0,1-.475-.441c-.007-.412,0-.825,0-1.238,0-.825,0-1.65,0-2.475,0-.343.229-.541.521-.463a.421.421,0,0,1,.3.458C1263.441,328.333,1263.439,328.945,1263.439,329.557Z" transform="translate(-311.987 -63.313)" fill="#0e1116"/>
      <path id="Path_18473" data-name="Path 18473" d="M1030.249,356.652c0,.3,0,.6,0,.906s-.172.489-.418.485a.427.427,0,0,1-.406-.476q-.005-.917,0-1.833c0-.29.161-.468.407-.471s.413.179.417.483S1030.249,356.35,1030.249,356.652Z" transform="translate(-90.852 -89.883)" fill="#0e1116"/>
      <path id="Path_18474" data-name="Path 18474" d="M1231.509,356.651c0,.3,0,.59,0,.886,0,.314-.165.51-.417.507s-.406-.195-.407-.5q0-.9,0-1.792c0-.308.154-.489.407-.492s.416.183.418.5C1231.511,356.06,1231.509,356.356,1231.509,356.651Z" transform="translate(-281.708 -89.883)" fill="#0e1116"/>
      <path id="Path_18475" data-name="Path 18475" d="M1263.521,435.619a.41.41,0,1,1-.407-.407A.411.411,0,0,1,1263.521,435.619Z" transform="translate(-312.071 -165.698)" fill="#0e1116"/>
      <path id="Path_18476" data-name="Path 18476" d="M1112.195,320.469c-.3,0-.6,0-.907,0s-.484-.16-.481-.416.18-.405.471-.407q.938-.006,1.875,0c.291,0,.469.162.471.407s-.176.413-.482.416S1112.511,320.469,1112.195,320.469Z" transform="translate(-168.029 -56.103)" fill="#0e1116"/>
      <path id="Path_18477" data-name="Path 18477" d="M1112.192,350.156c-.309,0-.618,0-.927,0-.294,0-.469-.159-.471-.4a.415.415,0,0,1,.463-.417q.948-.011,1.9,0a.414.414,0,0,1,.46.419c0,.245-.179.4-.474.4C1112.824,350.16,1112.508,350.156,1112.192,350.156Z" transform="translate(-168.017 -84.254)" fill="#0e1116"/>
      <path id="Path_18478" data-name="Path 18478" d="M1130.716,468.131c-.286.014-.453-.087-.51-.31a.4.4,0,0,1,.223-.459,1.053,1.053,0,0,1,.28-.06,1.3,1.3,0,0,0,1.2-1.181.145.145,0,0,0,0-.02.433.433,0,0,1,.479-.5c.256.036.385.255.347.6A2.163,2.163,0,0,1,1130.716,468.131Z" transform="translate(-186.415 -194.508)" fill="#0e1116"/>
      <path id="Path_18479" data-name="Path 18479" d="M1164.485,438.316a.409.409,0,1,1-.4-.417A.425.425,0,0,1,1164.485,438.316Z" transform="translate(-218.157 -168.247)" fill="#0e1116"/>
    </g>
  </g>
</svg>
