<svg xmlns="http://www.w3.org/2000/svg" width="70" height="70" viewBox="0 0 70 70">
  <g id="Group_23574" data-name="Group 23574" transform="translate(-195 -1451.533)">
    <circle id="Ellipse_942" data-name="Ellipse 942" cx="35" cy="35" r="35" transform="translate(195 1451.533)" fill="#a6c7ea"/>
    <g id="Group_23957" data-name="Group 23957" transform="translate(-1768.782 867.945)">
      <path id="Path_18484" data-name="Path 18484" d="M2001.69,608.588c.115.033.23.062.343.1a2.053,2.053,0,0,1,1.43,1.9c.006.241.006.483,0,.725a.346.346,0,0,1-.338.373.352.352,0,0,1-.345-.37c-.007-.241,0-.483,0-.725a1.379,1.379,0,0,0-1.346-1.315.215.215,0,0,0-.228.145c-.207.428-.426.851-.635,1.278a1.054,1.054,0,0,1-1.026.64q-2.254-.006-4.509,0A1.059,1.059,0,0,1,1994,610.7c-.214-.432-.435-.862-.644-1.3a.2.2,0,0,0-.214-.131,1.387,1.387,0,0,0-1.357,1.308c0,.074,0,.148,0,.221q0,8.092,0,16.184a1.394,1.394,0,0,0,1.536,1.532h7.931a1.377,1.377,0,0,0,1.528-1.377.354.354,0,0,1,.352-.343.348.348,0,0,1,.331.379,2.05,2.05,0,0,1-1.994,2.022c-.906.017-1.812,0-2.717.005h-5.435A2.071,2.071,0,0,1,1991.1,627q0-8.112,0-16.225a2.055,2.055,0,0,1,1.723-2.152.173.173,0,0,0,.049-.031Zm-1.184.7h-6.442c.212.418.4.821.622,1.21a.379.379,0,0,0,.284.145q2.312.014,4.625,0a.38.38,0,0,0,.285-.144C2000.1,610.108,2000.292,609.705,2000.506,609.284Z" transform="translate(0)" fill="#0e1116"/>
      <path id="Path_18485" data-name="Path 18485" d="M2060.076,690.845a4.162,4.162,0,0,1-.171.53,1.957,1.957,0,0,1-1.844,1.239q-4.852.022-9.7,0a2.019,2.019,0,0,1-2.016-1.993c-.018-.691-.01-1.382,0-2.073a.27.27,0,0,0-.17-.278c-1.167-.617-2.33-1.242-3.5-1.858a.705.705,0,0,1,0-1.323c1.162-.613,2.318-1.236,3.48-1.849a.294.294,0,0,0,.189-.307c-.011-.637-.007-1.275,0-1.912a2.049,2.049,0,0,1,2.14-2.14q4.721,0,9.442,0a2.046,2.046,0,0,1,2.128,1.725.182.182,0,0,0,.031.049Zm-17.172-5.094c.08.044.138.077.2.108,1.212.647,2.423,1.3,3.638,1.938a.481.481,0,0,1,.288.479c-.008.745-.006,1.49,0,2.234a1.36,1.36,0,0,0,1.434,1.424q4.741,0,9.481,0a1.371,1.371,0,0,0,1.451-1.453q0-4.731,0-9.461a1.372,1.372,0,0,0-1.452-1.451h-9.461a1.365,1.365,0,0,0-1.453,1.447c0,.731-.007,1.463,0,2.194a.506.506,0,0,1-.308.509c-.891.465-1.776.942-2.663,1.415Z" transform="translate(-48.36 -66.513)" fill="#0e1116"/>
      <path id="Path_18486" data-name="Path 18486" d="M2051.785,953.543c.885,0,1.771,0,2.656,0a.368.368,0,0,1,.393.217.34.34,0,0,1-.258.462.9.9,0,0,1-.18.009h-5.251c-.034,0-.067,0-.1,0a.345.345,0,0,1-.363-.348.33.33,0,0,1,.369-.336c.456,0,.912,0,1.368,0Z" transform="translate(-54.482 -326.397)" fill="#0e1116"/>
      <path id="Path_18487" data-name="Path 18487" d="M2169.919,724.984c-.22,1.124-.806,1.707-1.71,1.72-.927.014-1.495-.532-1.774-1.72h-.21c-.577,0-1.154,0-1.731,0a.691.691,0,0,1-.717-.99c.249-.743.521-1.479.742-2.229a4.929,4.929,0,0,0,.213-1.24,3.458,3.458,0,0,1,2.813-3.38,3.389,3.389,0,0,1,4.029,3.037,12.814,12.814,0,0,0,.8,3.2c.072.23.156.456.227.686a.674.674,0,0,1-.657.914c-.6.008-1.208,0-1.811,0Zm2.035-.685c-.081-.244-.158-.463-.228-.684a12.56,12.56,0,0,1-.834-3.377,2.678,2.678,0,0,0-2.641-2.466,2.748,2.748,0,0,0-2.788,2.341,12.239,12.239,0,0,1-.2,1.549c-.217.813-.519,1.6-.784,2.4-.024.073-.045.148-.071.233Zm-4.8.694a1.024,1.024,0,0,0,1.594.848.991.991,0,0,0,.457-.848Z" transform="translate(-163.334 -102.655)" fill="#0e1116"/>
    </g>
  </g>
</svg>
