<svg xmlns="http://www.w3.org/2000/svg" width="70" height="70" viewBox="0 0 70 70">
  <g id="Group_23574" data-name="Group 23574" transform="translate(-195 -1451.533)">
    <circle id="Ellipse_942" data-name="Ellipse 942" cx="35" cy="35" r="35" transform="translate(195 1451.533)" fill="#eddfde"/>
    <g id="Group_23952" data-name="Group 23952" transform="translate(-58.192 479.533)">
      <path id="Path_18435" data-name="Path 18435" d="M345.375,994c.1.238.2.472.283.714a.458.458,0,0,0,.294.314,4.111,4.111,0,0,1,.5.224c.158.083.155.194,0,.284a.245.245,0,0,1-.062.027,1.161,1.161,0,0,0-.9,1c-.015.077-.093.141-.143.212l-.169-.212a.047.047,0,0,1-.009-.021,1.134,1.134,0,0,0-.889-.987c-.067-.018-.117-.1-.174-.153.057-.06.105-.157.174-.176a1.148,1.148,0,0,0,.892-.987.962.962,0,0,1,.119-.241Z" transform="translate(-62.448)" fill="#0e1116"/>
      <path id="Path_18436" data-name="Path 18436" d="M308.58,1076.646a9.435,9.435,0,1,1-9.434-9.423A9.453,9.453,0,0,1,308.58,1076.646Zm-.919,0a8.516,8.516,0,1,0-8.484,8.528A8.521,8.521,0,0,0,307.661,1076.641Z" transform="translate(-11.368 -68.768)" fill="#0e1116"/>
      <path id="Path_18437" data-name="Path 18437" d="M573.534,1045.908a1.453,1.453,0,0,1-.239.2c-.251.125-.515.224-.761.356a.546.546,0,0,0-.23.25c-.123.293-.214.6-.33.9-.027.068-.1.117-.157.174-.061-.058-.15-.105-.179-.176-.12-.3-.215-.615-.337-.917a.465.465,0,0,0-.2-.22c-.255-.132-.525-.236-.782-.365-.07-.036-.164-.127-.159-.185a.318.318,0,0,1,.16-.209c.242-.125.5-.214.741-.346a.633.633,0,0,0,.258-.283c.123-.285.208-.585.322-.874.026-.067.116-.166.156-.157a.3.3,0,0,1,.18.163c.116.288.2.588.325.872a.631.631,0,0,0,.259.28c.238.131.5.224.742.343A1.425,1.425,0,0,1,573.534,1045.908Z" transform="translate(-274.756 -47.01)" fill="#0e1116"/>
      <path id="Path_18438" data-name="Path 18438" d="M279.253,1060.983a.823.823,0,0,1-.811.836.826.826,0,1,1-.019-1.652A.82.82,0,0,1,279.253,1060.983Z" transform="translate(0 -62.142)" fill="#0e1116"/>
      <path id="Path_18439" data-name="Path 18439" d="M538.244,1014.017a.552.552,0,1,1-1.1,0,.552.552,0,1,1,1.1,0Z" transform="translate(-243.745 -18.28)" fill="#0e1116"/>
      <path id="Path_18440" data-name="Path 18440" d="M343.782,1217.469h5.9c.511,0,.645.14.631.653a6.55,6.55,0,0,1-13.022.783,7.833,7.833,0,0,1-.065-.884c-.013-.379.15-.548.527-.551.539,0,1.078,0,1.616,0Zm5.6.94H338.149a5.621,5.621,0,0,0,1.451,3.305,5.479,5.479,0,0,1,8.333,0A5.649,5.649,0,0,0,349.382,1218.409Zm-2.137,3.92a4.157,4.157,0,0,0-3.752-1.609,3.942,3.942,0,0,0-3.2,1.615A5.557,5.557,0,0,0,347.245,1222.329Z" transform="translate(-55.989 -209.873)" fill="#0e1116"/>
      <path id="Path_18441" data-name="Path 18441" d="M345.561,1146.022a2.186,2.186,0,0,1,4.328-.323,2.128,2.128,0,0,1,.04.451.439.439,0,0,1-.445.426.449.449,0,0,1-.46-.413,2.591,2.591,0,0,0-.069-.425,1.272,1.272,0,0,0-2.48.3c-.026.39-.252.6-.574.521C345.669,1146.512,345.553,1146.325,345.561,1146.022Z" transform="translate(-63.82 -140.813)" fill="#0e1116"/>
      <path id="Path_18442" data-name="Path 18442" d="M474.389,1143.925a2.191,2.191,0,0,1,2.154,2.125.452.452,0,0,1-.422.517.457.457,0,0,1-.49-.48,1.274,1.274,0,0,0-2.547-.008c-.025.318-.2.5-.479.489a.461.461,0,0,1-.434-.532A2.206,2.206,0,0,1,474.389,1143.925Z" transform="translate(-182.728 -140.804)" fill="#0e1116"/>
    </g>
  </g>
</svg>
