<svg xmlns="http://www.w3.org/2000/svg" width="70" height="70" viewBox="0 0 70 70">
  <g id="Group_23574" data-name="Group 23574" transform="translate(-195 -1451.533)">
    <circle id="Ellipse_942" data-name="Ellipse 942" cx="35" cy="35" r="35" transform="translate(195 1451.533)" fill="#aec2cd"/>
    <g id="Group_23954" data-name="Group 23954" transform="translate(-1102.505 353.208)">
      <path id="Path_18459" data-name="Path 18459" d="M1368.978,1201.858a6.032,6.032,0,0,1-1.016-.459,1.939,1.939,0,0,1-.845-1.638c-.016-1.072-.007-2.145,0-3.218,0-.266.147-.431.366-.433s.366.165.37.428c0,.3,0,.6,0,.921h13.737v-7.019c-.58.008-1.167.055-1.747.01a8.909,8.909,0,0,1-1.212-.282.974.974,0,0,0-.424-.025c-.667.163-1.328.35-1.993.521a.624.624,0,0,1-.806-.818c.167-.641.346-1.278.5-1.921a.721.721,0,0,0-.025-.42,4.92,4.92,0,1,1,6.67,2.494.329.329,0,0,0-.213.353q.008,4.568,0,9.137a2.162,2.162,0,0,1-1.823,2.344.191.191,0,0,0-.043.023Zm7.168-11.937c.619-.165,1.2-.308,1.78-.478a1.577,1.577,0,0,1,1.025.05,4,4,0,0,0,4.123-.7,4.164,4.164,0,1,0-5.788-5.951,4.007,4.007,0,0,0-.716,4.375,1.383,1.383,0,0,1,.056.929C1376.459,1188.721,1376.311,1189.3,1376.145,1189.921Zm-8.3,8.3c0,.477,0,.941,0,1.405a1.416,1.416,0,0,0,1.5,1.489c.974,0,1.948,0,2.922,0q3.916,0,7.833,0a1.418,1.418,0,0,0,1.5-1.51q0-.6,0-1.2c0-.062-.012-.124-.018-.182Z" transform="translate(-42.61 -56.375)" fill="#0e1116"/>
      <path id="Path_18460" data-name="Path 18460" d="M1325.25,1129.058a4.935,4.935,0,0,1,5.717,6.694.763.763,0,0,0-.026.443c.156.643.337,1.28.5,1.921a.625.625,0,0,1-.8.809c-.657-.17-1.31-.357-1.968-.519a.8.8,0,0,0-.447.015,4.916,4.916,0,0,1-3.956-8.994.359.359,0,0,0,.233-.388q-.009-3.206,0-6.411a2.157,2.157,0,0,1,2.305-2.3h10.638a2.157,2.157,0,0,1,2.289,2.294c0,.188,0,.377,0,.565,0,.267-.145.431-.365.433s-.366-.162-.37-.426c0-.245,0-.491,0-.737a1.41,1.41,0,0,0-1.4-1.391c-.491-.008-.983-.009-1.474.005a.356.356,0,0,0-.255.156c-.187.335-.35.684-.522,1.028a1.309,1.309,0,0,1-1.264.771h-3.931a1.311,1.311,0,0,1-1.262-.774c-.168-.337-.341-.671-.5-1.01a.261.261,0,0,0-.276-.181c-.491.011-.983,0-1.474.006a1.4,1.4,0,0,0-1.394,1.394c-.008,2.153,0,4.307,0,6.46C1325.239,1128.959,1325.245,1129,1325.25,1129.058Zm5.449,9.118c-.159-.6-.29-1.154-.458-1.7a1.6,1.6,0,0,1,.064-1.093,4,4,0,0,0-.644-4.173,4.164,4.164,0,1,0-6.046,5.694,4,4,0,0,0,4.312.829,1.5,1.5,0,0,1,.979-.041C1329.486,1137.863,1330.072,1138.008,1330.7,1138.176Zm-1.573-17.1c.153.306.3.589.436.872a.57.57,0,0,0,.551.34c1.334,0,2.668.005,4-.007a.593.593,0,0,0,.432-.173,11.489,11.489,0,0,0,.571-1.031Z" transform="translate(0)" fill="#0e1116"/>
      <path id="Path_18461" data-name="Path 18461" d="M1546.842,1215.833a1.783,1.783,0,0,1-1.246,1.726c-.149.05-.213.113-.2.273a.453.453,0,0,1-.042.306.666.666,0,0,1-.367.217.283.283,0,0,1-.311-.283,5.437,5.437,0,0,1,0-.858c.022-.222.206-.282.415-.3a1.077,1.077,0,1,0-1-1.622c-.025.042-.043.088-.065.132-.127.247-.309.331-.513.238s-.263-.31-.151-.565a1.815,1.815,0,0,1,3.471.735Z" transform="translate(-207.252 -87.553)" fill="#0e1116"/>
      <path id="Path_18462" data-name="Path 18462" d="M1564.607,1288.554a.377.377,0,0,1,.353-.418.384.384,0,0,1,.381.4.39.39,0,0,1-.359.419A.374.374,0,0,1,1564.607,1288.554Z" transform="translate(-227.147 -156.798)" fill="#0e1116"/>
      <path id="Path_18463" data-name="Path 18463" d="M1466.21,1464.626c-.254,0-.508,0-.761,0-.271,0-.429-.14-.433-.363s.152-.37.42-.372q.773-.005,1.547,0c.268,0,.424.145.421.371s-.163.36-.433.364C1466.718,1464.629,1466.464,1464.626,1466.21,1464.626Z" transform="translate(-134.092 -321.014)" fill="#0e1116"/>
      <path id="Path_18464" data-name="Path 18464" d="M1354.822,1295.062a1.74,1.74,0,0,1,1.5-.365,1.672,1.672,0,0,1,1.312,1.223,1.589,1.589,0,0,1-.479,1.746c-.647.545-1.374,1-2.073,1.477a.478.478,0,0,1-.558-.013c-.646-.444-1.322-.855-1.921-1.356a1.745,1.745,0,0,1,2.011-2.848C1354.683,1294.967,1354.749,1295.014,1354.822,1295.062Zm-1.3.332a1.019,1.019,0,0,0-.405,1.854c.512.405,1.063.762,1.6,1.134a.192.192,0,0,0,.171.016c.59-.411,1.2-.795,1.754-1.255a.985.985,0,0,0,.02-1.466,1.014,1.014,0,0,0-1.452.043c-.288.284-.5.282-.8-.011A1.125,1.125,0,0,0,1353.522,1295.394Z" transform="translate(-28.416 -162.885)" fill="#0e1116"/>
    </g>
  </g>
</svg>
