<svg xmlns="http://www.w3.org/2000/svg" width="56" height="56" viewBox="0 0 56 56">
  <g id="Group_23559" data-name="Group 23559" transform="translate(-195 -1451.533)">
    <circle id="Ellipse_942" data-name="Ellipse 942" cx="28" cy="28" r="28" transform="translate(195 1451.533)" fill="#e7cee3"/>
    <g id="Group_23949" data-name="Group 23949" transform="translate(559.128 733.674)">
      <path id="Path_18410" data-name="Path 18410" d="M-344.128,745.883q0-4.107,0-8.213a1.737,1.737,0,0,1,1.365-1.753,2.054,2.054,0,0,1,.449-.045q3.036-.01,6.073-.013c.425,0,.852,0,1.275.031a1.711,1.711,0,0,1,1.5,1.284.437.437,0,0,1-.013.295.345.345,0,0,1-.25.135c-.149.006-.221-.112-.257-.251a1.12,1.12,0,0,0-.916-.9,5.465,5.465,0,0,0-1.005-.028c-.044,0-.1.077-.127.131-.094.214-.172.434-.264.648a.892.892,0,0,1-.884.585q-1.554,0-3.109,0a.884.884,0,0,1-.87-.574c-.09-.208-.177-.417-.251-.631a.22.22,0,0,0-.258-.169c-.24.012-.48,0-.72.006a1.2,1.2,0,0,0-1.189,1.179c0,.034,0,.069,0,.1q0,8.172,0,16.344a1.207,1.207,0,0,0,.941,1.259,1.762,1.762,0,0,0,.388.031q3.489,0,6.979,0A1.213,1.213,0,0,0-333.955,754c0-.571,0-1.142,0-1.713,0-.234.1-.357.276-.354s.266.119.266.342c0,.619.007,1.238,0,1.857a1.731,1.731,0,0,1-1.65,1.75c-.068.005-.137.008-.206.008q-3.5,0-7,0a1.743,1.743,0,0,1-1.786-1.269,2.31,2.31,0,0,1-.071-.611Q-344.132,749.948-344.128,745.883Zm7.543-9.444h-4.3c.077.195.15.371.218.549a.376.376,0,0,0,.379.261q1.553,0,3.105,0a.362.362,0,0,0,.362-.223C-336.742,736.839-336.669,736.648-336.585,736.439Z"/>
      <path id="Path_18411" data-name="Path 18411" d="M-264.6,905.821c.8,0,1.605.008,2.408,0a1.471,1.471,0,0,1,1.228.587,12.663,12.663,0,0,1,2.616,5.06,3.8,3.8,0,0,1,.162,1.445,1.612,1.612,0,0,1-1,1.338,1.538,1.538,0,0,1-1.631-.2,6.888,6.888,0,0,1-1.611-1.778.733.733,0,0,0-.692-.381q-1.471.021-2.943,0a.73.73,0,0,0-.7.371,7.25,7.25,0,0,1-1.509,1.706,1.578,1.578,0,0,1-1.728.283,1.6,1.6,0,0,1-1.014-1.432,5.356,5.356,0,0,1,.352-2.017,12.8,12.8,0,0,1,2.535-4.512,1.306,1.306,0,0,1,1.054-.469C-266.243,905.823-265.42,905.821-264.6,905.821Zm0,.547c-.824,0-1.647,0-2.471,0a.788.788,0,0,0-.637.281,12.153,12.153,0,0,0-2.451,4.394,5.161,5.161,0,0,0-.309,1.674,1.092,1.092,0,0,0,.672,1.026,1.049,1.049,0,0,0,1.17-.188,6.475,6.475,0,0,0,1.379-1.548,1.31,1.31,0,0,1,1.25-.668q1.41.031,2.82,0a1.3,1.3,0,0,1,1.232.66,6.4,6.4,0,0,0,1.41,1.575,1.037,1.037,0,0,0,1.137.171,1.006,1.006,0,0,0,.663-.959,5.44,5.44,0,0,0-.146-1.179,11.963,11.963,0,0,0-2.58-4.94.819.819,0,0,0-.669-.3C-262.952,906.37-263.776,906.368-264.6,906.368Z" transform="translate(-69.09 -160.61)"/>
      <path id="Path_18412" data-name="Path 18412" d="M-180.123,777.721c-.047-.011-.141-.029-.233-.055-.459-.134-.918-.271-1.377-.407a.539.539,0,0,1-.416-.737q.211-.741.436-1.479a.526.526,0,0,1,.727-.4q.73.209,1.456.428a.542.542,0,0,1,.411.757q-.214.741-.437,1.479A.532.532,0,0,1-180.123,777.721Zm-1.055-2.561-.455,1.554,1.548.456.457-1.552Z" transform="translate(-153.039 -36.621)"/>
      <path id="Path_18413" data-name="Path 18413" d="M-263.274,801.624a1.491,1.491,0,0,1,1.5-1.5,1.5,1.5,0,0,1,1.5,1.491,1.516,1.516,0,0,1-1.5,1.515A1.5,1.5,0,0,1-263.274,801.624Zm1.506.951a.942.942,0,0,0,.941-.963.952.952,0,0,0-.947-.941.961.961,0,0,0-.956.957A.951.951,0,0,0-261.768,802.575Z" transform="translate(-76.407 -60.732)"/>
      <path id="Path_18414" data-name="Path 18414" d="M-95.576,805.911a1.472,1.472,0,0,1-.359-.242.455.455,0,0,0-.483-.17.6.6,0,0,1-.352-.06.457.457,0,0,1-.146-.677.441.441,0,0,0,.019-.526.452.452,0,0,1,.037-.54.466.466,0,0,1,.535-.165.394.394,0,0,0,.469-.128.454.454,0,0,1,.538-.149.477.477,0,0,1,.326.478.362.362,0,0,0,.247.376.481.481,0,0,1,.327.479.462.462,0,0,1-.355.455c-.225.062-.259.225-.294.414A.542.542,0,0,1-95.576,805.911Zm-.012-.687a.694.694,0,0,1,.553-.665.667.667,0,0,1-.485-.755.656.656,0,0,1-.882.246.694.694,0,0,1-.024.928A.668.668,0,0,1-95.587,805.224Z" transform="translate(-233.53 -63.655)"/>
      <path id="Path_18415" data-name="Path 18415" d="M-294.748,1070.538q-1.2,0-2.408,0c-.075,0-.173.014-.218-.026-.078-.069-.173-.178-.168-.266s.114-.181.2-.24c.053-.037.146-.017.221-.017h4.754c.034,0,.069,0,.1,0,.218.009.335.109.33.282s-.124.268-.345.268Q-293.513,1070.54-294.748,1070.538Z" transform="translate(-44.023 -315.744)"/>
      <path id="Path_18416" data-name="Path 18416" d="M-159.04,840.55c0-.405,0-.811,0-1.216,0-.221.126-.345.308-.323a.259.259,0,0,1,.241.284q.006,1.257,0,2.515a.262.262,0,0,1-.275.294.266.266,0,0,1-.273-.3C-159.043,841.388-159.04,840.969-159.04,840.55Z" transform="translate(-174.906 -97.475)"/>
      <path id="Path_18417" data-name="Path 18417" d="M-129.611,850.275a1.467,1.467,0,0,1-.181.24,2.687,2.687,0,0,0-.993,1.742.27.27,0,0,1-.305.262.288.288,0,0,1-.234-.352,3.133,3.133,0,0,1,1.221-2.091.4.4,0,0,1,.318-.029C-129.716,850.068-129.676,850.184-129.611,850.275Z" transform="translate(-201.094 -107.889)"/>
      <path id="Path_18418" data-name="Path 18418" d="M-209.376,851.717a.278.278,0,0,1-.245.322.282.282,0,0,1-.3-.277,2.6,2.6,0,0,0-.923-1.671,1.124,1.124,0,0,1-.123-.109.261.261,0,0,1-.006-.372.257.257,0,0,1,.354-.041A3.205,3.205,0,0,1-209.376,851.717Z" transform="translate(-125.763 -107.407)"/>
      <path id="Path_18419" data-name="Path 18419" d="M-141.491,935.773a.8.8,0,0,1-.307.946.721.721,0,0,1-.833.015.8.8,0,0,1-.337-.95.841.841,0,0,1-.83-.185.763.763,0,0,1-.239-.573c.006-.516.406-.8,1.063-.745a.825.825,0,0,1,.218-.847.744.744,0,0,1,.584-.208c.506.04.781.456.7,1.063a.794.794,0,0,1,.982.422.724.724,0,0,1-.1.813A.791.791,0,0,1-141.491,935.773Zm-1.012-.472h.538v-.532h-.542a2.31,2.31,0,0,1,.026.25C-142.48,935.113-142.5,935.206-142.5,935.3Zm.354-1.526c-.212.01-.3.08-.3.228s.091.251.225.226a.32.32,0,0,0,.217-.209C-142,933.935-142.109,933.839-142.149,933.775Zm-1.339,1.337c.063.041.149.139.244.149a.19.19,0,0,0,.209-.236.342.342,0,0,0-.223-.2C-143.4,934.792-143.476,934.9-143.488,935.112Zm2.367-.306c-.212.011-.321.088-.294.228a.343.343,0,0,0,.2.226.19.19,0,0,0,.237-.208C-140.984,934.957-141.081,934.869-141.121,934.806Zm-1.339,1.333c.062.042.146.143.241.155a.19.19,0,0,0,.214-.232.341.341,0,0,0-.219-.21C-142.361,935.821-142.444,935.926-142.46,936.139Z" transform="translate(-189.084 -186.507)"/>
      <path id="Path_18420" data-name="Path 18420" d="M-224.388,938.454c-.2,0-.361,0-.525,0-.223-.008-.31-.1-.313-.319q-.006-.444,0-.887c0-.221.091-.307.316-.313.163,0,.327,0,.521,0,0-.18,0-.342,0-.5,0-.25.1-.345.354-.348q.412,0,.823,0c.252,0,.34.095.343.353,0,.144,0,.289,0,.433a.3.3,0,0,0,.027.065c.15,0,.313,0,.476,0,.246,0,.34.093.344.333,0,.289.006.578,0,.867,0,.217-.1.312-.318.32-.169.006-.339,0-.532,0,0,.189,0,.352,0,.515,0,.233-.094.327-.322.33-.295,0-.59,0-.885,0a.278.278,0,0,1-.312-.3C-224.394,938.825-224.388,938.654-224.388,938.454Zm-.285-.554h.439c.314,0,.4.087.4.407,0,.142,0,.285,0,.437h.4c.011-.024.021-.036.021-.048,0-.151,0-.3.006-.453,0-.24.1-.336.336-.343.162,0,.325,0,.491,0v-.42h-.422c-.323,0-.4-.08-.4-.4,0-.143,0-.286,0-.442h-.426c0,.172,0,.335,0,.5-.007.242-.1.335-.34.34-.163,0-.325,0-.5,0Z" transform="translate(-112.358 -189.207)"/>
    </g>
  </g>
</svg>
