<svg xmlns="http://www.w3.org/2000/svg" width="56" height="56" viewBox="0 0 56 56">
  <g id="Group_23559" data-name="Group 23559" transform="translate(-195 -1451.533)">
    <circle id="Ellipse_942" data-name="Ellipse 942" cx="28" cy="28" r="28" transform="translate(195 1451.533)" fill="#ffc699"/>
    <g id="Group_23946" data-name="Group 23946" transform="translate(729.26 1310.718)">
      <path id="Path_18387" data-name="Path 18387" d="M-511.073,178.934a5.492,5.492,0,0,1-.934-.334,2.505,2.505,0,0,1-.006-4.376l.114-.067c-.181-.541-.362-1.079-.542-1.617-.325-.974-.652-1.947-.972-2.922-.042-.129-.084-.184-.24-.177a2.542,2.542,0,0,1-2.608-2.581,2.522,2.522,0,0,1,2.674-2.444,2.537,2.537,0,0,1,1.96,1.134l3.453-2.582a2.545,2.545,0,0,1,.287-3.56,2.551,2.551,0,0,1,3.237-.027,2.546,2.546,0,0,1,.306,3.606l3.739,2.8a2.586,2.586,0,0,1,1.417-.852,2.521,2.521,0,0,1,3.009,2.019c.009.05.026.1.039.149v.59a.989.989,0,0,0-.036.111,2.52,2.52,0,0,1-1.768,2,2.515,2.515,0,0,1-1.269.059l-1.4,4.18a.3.3,0,0,0,.031.027l.14.07a2.44,2.44,0,0,1,1.416,2.154,2.439,2.439,0,0,1-1.237,2.281,2.97,2.97,0,0,1-1.11.362h-.314a1.452,1.452,0,0,0-.152-.034,2.5,2.5,0,0,1-2.153-1.951c-.034-.161-.083-.211-.249-.21-1.283.007-2.566,0-3.85,0-.063,0-.126.006-.189.009-.017.073-.03.131-.044.188a2.486,2.486,0,0,1-1.753,1.89c-.135.044-.276.07-.415.1Zm8.289-10.483,1.655-.539a2.675,2.675,0,0,1,.141-1.48c.017-.043-.036-.145-.085-.181q-1.828-1.377-3.666-2.74a.277.277,0,0,0-.219-.019c-.29.1-.576.2-.861.315-.05.02-.123.073-.124.112-.008.582-.005,1.164-.005,1.741.248.054.478.1.7.158a.472.472,0,0,1,.216.124.285.285,0,0,1,.025.379.314.314,0,0,1-.378.131,3.064,3.064,0,0,0-1.32-.105,2.882,2.882,0,0,0-2.432,3.294,2.9,2.9,0,0,0,3.458,2.354,2.868,2.868,0,0,0,2.067-3.936c-.1-.242-.042-.415.154-.494s.348.008.441.239C-502.931,168.009-502.865,168.221-502.784,168.451Zm-6.49,5.939a2.583,2.583,0,0,1,1,1.7h4.239a2.589,2.589,0,0,1,.923-1.651l-1.483-2.15a3.71,3.71,0,0,1-1.669.423,3.825,3.825,0,0,1-1.661-.4Zm-3.567-5.11,1.558,4.665a2.621,2.621,0,0,1,1.44.127l1.373-2.117a3.589,3.589,0,0,1-1.343-3.03.172.172,0,0,0-.079-.132c-.525-.248-1.053-.489-1.592-.738A2.614,2.614,0,0,1-512.841,169.28Zm11.931-.755c-.586.191-1.153.372-1.715.564a.221.221,0,0,0-.1.173,3.287,3.287,0,0,1-.8,2.105c-.161.2-.34.377-.517.572l1.476,2.142a6.163,6.163,0,0,1,.636-.165c.218-.033.442-.027.689-.039l1.418-4.246A2.646,2.646,0,0,1-500.91,168.526Zm-6.816-5.08-.683.511q-1.4,1.047-2.8,2.1a.257.257,0,0,0-.107.176c.028.4.072.8.115,1.243l1.519.7a3.614,3.614,0,0,1,3.084-2.5c0-.588,0-1.163,0-1.739a.182.182,0,0,0-.106-.123C-507.028,163.685-507.354,163.575-507.726,163.446Zm2.387-1.674.654.579a1.836,1.836,0,0,0-.332-2.431,1.873,1.873,0,0,0-2.616.144,1.8,1.8,0,0,0-.118,2.34c.092-.11.177-.227.278-.328s.227-.191.339-.285a1.171,1.171,0,0,1,.19-1.61,1.139,1.139,0,0,1,1.476.049A1.125,1.125,0,0,1-505.339,161.772Zm8.247,6.647a1.831,1.831,0,0,0-.263-2.367,1.871,1.871,0,0,0-2.593-.013,1.823,1.823,0,0,0-.274,2.374l.63-.654a1.117,1.117,0,0,1,.242-1.513,1.136,1.136,0,0,1,1.432.013,1.1,1.1,0,0,1,.393.661,1.121,1.121,0,0,1-.221.92Zm-12.116,9.013a1.83,1.83,0,0,0-.341-2.432,1.868,1.868,0,0,0-2.629.177,1.8,1.8,0,0,0-.145,2.255l.592-.663a1.109,1.109,0,0,1,.229-1.484,1.135,1.135,0,0,1,1.448-.009,1.125,1.125,0,0,1,.213,1.536Zm-3.628-10.1.655.627a1.827,1.827,0,0,0-.337-2.444,1.871,1.871,0,0,0-2.628.179,1.807,1.807,0,0,0-.164,2.241l.606-.625a1.124,1.124,0,0,1,.194-1.5,1.149,1.149,0,0,1,1.478-.014A1.125,1.125,0,0,1-512.835,167.328Zm12.787,10.19a1.843,1.843,0,0,0-.164-2.447,1.872,1.872,0,0,0-2.607-.026,1.825,1.825,0,0,0-.276,2.372l.629-.655a1.116,1.116,0,0,1,.212-1.483,1.133,1.133,0,0,1,1.447-.028c.491.389.547.95.165,1.648.109.095.224.182.323.285S-500.138,177.406-500.049,177.518ZM-509.8,178a1.035,1.035,0,0,0-.955-.677,1.044,1.044,0,0,0-1.023.649A1.774,1.774,0,0,0-509.8,178Zm12.1-9.021a1.058,1.058,0,0,0-1.034-.682,1.006,1.006,0,0,0-.909.68A1.767,1.767,0,0,0-497.7,168.976Zm-4.822,9a1.744,1.744,0,0,0,1.943.008,1.033,1.033,0,0,0-.979-.68A1.029,1.029,0,0,0-502.52,177.973Zm-2.775-15.061a1.031,1.031,0,0,0-1.033-.685,1,1,0,0,0-.905.68A1.781,1.781,0,0,0-505.3,162.912Zm-9.437,5.587a1.79,1.79,0,0,0,1.948.015,1.029,1.029,0,0,0-.972-.687A1.04,1.04,0,0,0-514.732,168.5Zm3.965,8.162a.511.511,0,0,0,.51-.511.524.524,0,0,0-.522-.505.514.514,0,0,0-.507.517A.5.5,0,0,0-510.768,176.66Zm9.758-.527a.507.507,0,0,0-.5-.5.516.516,0,0,0-.511.514.519.519,0,0,0,.506.5A.51.51,0,0,0-501.01,176.134Zm2.871-9.006a.5.5,0,0,0-.5-.5.511.511,0,0,0-.509.514.518.518,0,0,0,.505.5A.508.508,0,0,0-498.138,167.128Zm-8.1-5.558a.507.507,0,0,0,.51-.51.5.5,0,0,0-.505-.493.506.506,0,0,0-.51.509A.505.505,0,0,0-506.238,161.57Zm-7.528,4.585a.5.5,0,0,0-.5.5.5.5,0,0,0,.508.512.509.509,0,0,0,.5-.5A.5.5,0,0,0-513.766,166.155Z" fill="#0e1116"/>
      <path id="Path_18388" data-name="Path 18388" d="M-301.925,326.649c0,.412,0,.823,0,1.235,0,.249-.13.4-.329.4s-.318-.149-.319-.392q0-1.255,0-2.509c0-.242.126-.388.32-.391s.327.152.328.4C-301.924,325.813-301.925,326.231-301.925,326.649Z" transform="translate(-202.465 -157.453)" fill="#0e1116"/>
      <path id="Path_18389" data-name="Path 18389" d="M-332.186,336.874c0-.327,0-.655,0-.982,0-.237.13-.387.324-.386s.319.147.32.39q0,.982,0,1.964c0,.242-.128.386-.324.385s-.319-.149-.32-.389C-332.188,337.528-332.186,337.2-332.186,336.874Z" transform="translate(-174.409 -167.414)" fill="#0e1116"/>
      <path id="Path_18390" data-name="Path 18390" d="M-361.316,348.227c0,.235,0,.47,0,.705a.339.339,0,0,1-.325.368.336.336,0,0,1-.329-.364q-.007-.705,0-1.41a.319.319,0,0,1,.334-.353.32.32,0,0,1,.319.348C-361.312,347.757-361.317,347.992-361.316,348.227Z" transform="translate(-146.185 -178.469)" fill="#0e1116"/>
      <path id="Path_18391" data-name="Path 18391" d="M-294.088,301.348a.874.874,0,0,1,.207.078,4.021,4.021,0,0,1,.411.359.306.306,0,0,1-.012.426.308.308,0,0,1-.424.037,1.809,1.809,0,0,1-.374-.34.417.417,0,0,1-.049-.337C-294.294,301.476-294.165,301.415-294.088,301.348Z" transform="translate(-210.264 -135.049)" fill="#0e1116"/>
    </g>
  </g>
</svg>
