<svg xmlns="http://www.w3.org/2000/svg" width="56" height="56" viewBox="0 0 56 56">
  <g id="Group_24225" data-name="Group 24225" transform="translate(-199 -1409)">
    <circle id="Ellipse_942" data-name="Ellipse 942" cx="28" cy="28" r="28" transform="translate(199 1409)" fill="#81d9ff"/>
    <g id="cricket_1_" data-name="cricket (1)" transform="translate(217 1427)">
      <path id="Path_22" data-name="Path 22" d="M194.043,372.758c-.155-.155-.307-.32-.451-.49a.339.339,0,1,0-.516.439c.156.184.321.363.489.53.206.206.423.4.645.585a.339.339,0,1,0,.43-.523C194.434,373.13,194.234,372.948,194.043,372.758Zm0,0" transform="translate(-185.226 -357.13)" fill="#0e1116"/>
      <path id="Path_23" data-name="Path 23" d="M155.989,307.023a.339.339,0,0,0-.638.226,8.777,8.777,0,0,0,.666,1.446.339.339,0,1,0,.588-.339A8.076,8.076,0,0,1,155.989,307.023Zm0,0" transform="translate(-149.084 -294.421)" fill="#0e1116"/>
      <path id="Path_24" data-name="Path 24" d="M143.993,233.949a8.214,8.214,0,0,1-.1-1.3v-.165a.339.339,0,0,0-.332-.346.351.351,0,0,0-.346.332v.179a8.874,8.874,0,0,0,.113,1.409.339.339,0,0,0,.334.285.333.333,0,0,0,.055,0A.339.339,0,0,0,143.993,233.949Zm0,0" transform="translate(-137.452 -222.769)" fill="#0e1116"/>
      <path id="Path_25" data-name="Path 25" d="M214.485,252.648a6.051,6.051,0,0,1-.343-1.128.339.339,0,0,0-.664.133,6.672,6.672,0,0,0,.381,1.253.339.339,0,1,0,.626-.259Zm0,0" transform="translate(-204.877 -241.11)" fill="#0e1116"/>
      <path id="Path_26" data-name="Path 26" d="M210.7,191.659a.352.352,0,0,0,.334-.359,6.2,6.2,0,0,1,.106-1.142.339.339,0,0,0-.666-.125,6.861,6.861,0,0,0-.117,1.267v.04a.326.326,0,0,0,.339.319Zm0,0" transform="translate(-201.89 -182.099)" fill="#0e1116"/>
      <path id="Path_27" data-name="Path 27" d="M237.55,308.029a.339.339,0,1,0-.563.376,6.865,6.865,0,0,0,.829,1.014.339.339,0,0,0,.482-.476A6.2,6.2,0,0,1,237.55,308.029Zm0,0" transform="translate(-227.387 -295.453)" fill="#0e1116"/>
      <path id="Path_28" data-name="Path 28" d="M280.709,351.664a.339.339,0,0,0-.382.56,6.739,6.739,0,0,0,1.15.63.339.339,0,0,0,.266-.623A6,6,0,0,1,280.709,351.664Zm0,0" transform="translate(-268.893 -337.416)" fill="#0e1116"/>
      <path id="Path_29" data-name="Path 29" d="M20.507.678A1.345,1.345,0,0,0,19.59.2L17.568.006A1.352,1.352,0,0,0,16.09,1.225l-.651,6.908a6,6,0,0,0-2.433-1.852l.039-4.852A1.357,1.357,0,0,0,11.7.064L9.669.048A1.353,1.353,0,0,0,8.3,1.391L8.293,2.737a.254.254,0,0,0-.006.029.252.252,0,0,0,.006.026L8.264,6.3A5.982,5.982,0,0,0,5.876,8.134L5.224,1.227A1.34,1.34,0,0,0,4.741.313,1.355,1.355,0,0,0,3.748.006L1.726.2A1.353,1.353,0,0,0,.5,1.669l1.68,17.789a1.012,1.012,0,0,0,1.012.92h2.72a1.016,1.016,0,0,0,1.012-1.112l-.261-2.758a6.063,6.063,0,0,0,1.623,1.02v1.833A1.016,1.016,0,0,0,9.3,20.378h2.71a1.016,1.016,0,0,0,1.016-1.016V17.529a6.036,6.036,0,0,0,.874-.461l.015-.009a6.147,6.147,0,0,0,.734-.549l-.261,2.756A1.016,1.016,0,0,0,15.4,20.378h2.721a1.011,1.011,0,0,0,1.011-.921L20.686,3.019l.127-1.35a1.348,1.348,0,0,0-.307-.99Zm-3.5.157a.665.665,0,0,1,.5-.152l2.023.19a.677.677,0,0,1,.61.735l-.1,1.012L16.669,2.3l.1-1.013a.664.664,0,0,1,.242-.456Zm-2.076,14.4c-.153-.02-.308-.04-.456-.07a.339.339,0,1,0-.139.663l.049.008a5.454,5.454,0,0,1-.734.591,7.1,7.1,0,0,1-4.817-9.62,5.381,5.381,0,0,1,.635-.185c-.007.016-.015.032-.021.048a.339.339,0,1,0,.629.253c.057-.141.126-.279.194-.417.128-.01.257-.02.387-.02a5.411,5.411,0,0,1,1.813.316.331.331,0,0,0,.192.069h0a5.415,5.415,0,0,1,2.265,8.361ZM10.658,5.814a6.127,6.127,0,0,0-1.714.246L8.967,3.1h3.387l-.024,2.947a6.133,6.133,0,0,0-1.673-.237ZM9.183.919A.672.672,0,0,1,9.657.725h.006L11.7.741a.678.678,0,0,1,.672.683l-.007,1H8.973L8.981,1.4a.673.673,0,0,1,.2-.478Zm-7.853.192A.669.669,0,0,1,1.788.87L3.811.68a.678.678,0,0,1,.5.153.665.665,0,0,1,.24.457l.1,1.012-3.373.316-.1-1.012a.673.673,0,0,1,.154-.5ZM6.164,19.59a.334.334,0,0,1-.25.111H3.193a.339.339,0,0,1-.339-.307L1.335,3.293l3.373-.316L5.281,9.04a6.11,6.11,0,0,0,.629,6.694l.339,3.6a.335.335,0,0,1-.085.26ZM6.523,8.412a.326.326,0,0,0,.174.1.351.351,0,0,0,.068.007A.339.339,0,0,0,7.1,8.25c.036-.179.083-.359.133-.538a5.372,5.372,0,0,1,.741-.506,7.771,7.771,0,0,0,4.841,9.677,5.356,5.356,0,0,1-1.189.358c-.167-.077-.333-.157-.492-.245a.339.339,0,0,0-.46.133.327.327,0,0,0-.034.2A5.415,5.415,0,0,1,6.523,8.414Zm5.829,10.95a.339.339,0,0,1-.339.339H9.3a.339.339,0,0,1-.339-.339v-1.6a5.9,5.9,0,0,0,2.606.166h0a.331.331,0,0,0,.1-.015,6.08,6.08,0,0,0,.681-.151Zm6.108.032a.339.339,0,0,1-.339.307H15.4a.339.339,0,0,1-.339-.371l.342-3.6a6.111,6.111,0,0,0,.629-6.7l.572-6.061,3.373.316Zm0,0" transform="translate(-0.495 0)" fill="#0e1116"/>
    </g>
  </g>
</svg>
