<svg xmlns="http://www.w3.org/2000/svg" width="56" height="56" viewBox="0 0 56 56">
  <g id="Group_23559" data-name="Group 23559" transform="translate(-195 -1451.533)">
    <circle id="Ellipse_942" data-name="Ellipse 942" cx="28" cy="28" r="28" transform="translate(195 1451.533)" fill="#b5a8f0"/>
    <g id="Group_24145" data-name="Group 24145" transform="translate(579.613 1371.97)">
      <path id="Path_19364" data-name="Path 19364" d="M-356.237,112.321a8.384,8.384,0,0,1-8.376-8.418,8.389,8.389,0,0,1,8.4-8.34,8.4,8.4,0,0,1,8.378,8.421A8.386,8.386,0,0,1-356.237,112.321Zm7.369-9.477a7.392,7.392,0,0,0-5.811-6.191,7.448,7.448,0,0,0-7.954,3.485,7.435,7.435,0,0,0,.781,8.687,7.337,7.337,0,0,0,7.316,2.348c-.271-.258-.333-.474-.2-.693a.436.436,0,0,1,.556-.185.6.6,0,0,1,.271.3,1.175,1.175,0,0,1-.016.42,7.258,7.258,0,0,0,4.789-4.934c-.256.042-.49-.021-.56-.279a.623.623,0,0,1,.089-.484c.193-.245.454-.17.75.025l.1-2.093c-.376.365-.609.41-.834.206a.459.459,0,0,1-.036-.649C-349.441,102.6-349.192,102.6-348.868,102.844Z" transform="translate(0 0)" fill="#0e1116"/>
      <path id="Path_19365" data-name="Path 19365" d="M-309.525,342.317a3.123,3.123,0,0,0-.426-2.136c-.152-.23-.27-.481-.41-.719a.5.5,0,0,1-.031-.576.529.529,0,0,1,.543-.2c.559.041,1.12.1,1.679.1.6,0,1.209-.057,1.814-.09.08,0,.16-.016.24-.013a.452.452,0,0,1,.41.661,6.863,6.863,0,0,1-.454.816,3.122,3.122,0,0,0-.439,2.159h.275c.811,0,1.622,0,2.433,0a.453.453,0,0,1,.489.455.452.452,0,0,1-.474.469c-.089.006-.178,0-.267,0h-7.887c-.08,0-.161,0-.241,0a.47.47,0,0,1-.484-.466.467.467,0,0,1,.492-.458c.811-.006,1.622,0,2.433,0Zm.355-2.6a3.938,3.938,0,0,1,.6,2.588h1.019a3.928,3.928,0,0,1,.582-2.588Z" transform="translate(-48.161 -225.782)" fill="#0e1116"/>
      <path id="Path_19366" data-name="Path 19366" d="M-328.792,151.391a8.324,8.324,0,0,1,1.249-4.072.484.484,0,0,1,.694-.227c.241.153.28.422.093.726a7.492,7.492,0,0,0-1.111,3.8c-.01.386-.171.582-.474.576s-.453-.207-.451-.6C-328.792,151.54-328.792,151.487-328.792,151.391Z" transform="translate(-33.267 -47.786)" fill="#0e1116"/>
      <path id="Path_19367" data-name="Path 19367" d="M-321.871,244.063a.569.569,0,0,1,.5.609.471.471,0,0,1-.476.443.569.569,0,0,1-.5-.613A.455.455,0,0,1-321.871,244.063Z" transform="translate(-39.255 -137.911)" fill="#0e1116"/>
      <path id="Path_19368" data-name="Path 19368" d="M-243.9,249.1a.462.462,0,0,1-.461.454.451.451,0,0,1-.458-.479.44.44,0,0,1,.47-.436A.447.447,0,0,1-243.9,249.1Z" transform="translate(-111.255 -142.161)" fill="#0e1116"/>
      <path id="Path_19369" data-name="Path 19369" d="M-173.046,248.595a.451.451,0,0,1,.451.461.461.461,0,0,1-.486.456.45.45,0,0,1-.433-.477A.445.445,0,0,1-173.046,248.595Z" transform="translate(-177.472 -142.12)" fill="#0e1116"/>
      <path id="Path_19370" data-name="Path 19370" d="M-208.841,212.712a.467.467,0,0,1,.47.45.46.46,0,0,1-.446.47.465.465,0,0,1-.486-.459A.476.476,0,0,1-208.841,212.712Z" transform="translate(-144.236 -108.795)" fill="#0e1116"/>
      <path id="Path_19371" data-name="Path 19371" d="M-172.6,177.465a.472.472,0,0,1-.465.456.466.466,0,0,1-.454-.465.461.461,0,0,1,.477-.467A.465.465,0,0,1-172.6,177.465Z" transform="translate(-177.471 -75.619)" fill="#0e1116"/>
      <path id="Path_19372" data-name="Path 19372" d="M-208.837,283.919a.466.466,0,0,1,.463.456.462.462,0,0,1-.454.463.469.469,0,0,1-.478-.467A.473.473,0,0,1-208.837,283.919Z" transform="translate(-144.233 -174.926)" fill="#0e1116"/>
      <path id="Path_19373" data-name="Path 19373" d="M-262.107,302.643a.48.48,0,0,1-.479-.444.465.465,0,0,1,.44-.478.457.457,0,0,1,.49.452A.468.468,0,0,1-262.107,302.643Z" transform="translate(-94.751 -191.458)" fill="#0e1116"/>
      <path id="Path_19374" data-name="Path 19374" d="M-172.908,213.631a.462.462,0,0,1-.457-.46.473.473,0,0,1,.46-.461.459.459,0,0,1,.466.477A.45.45,0,0,1-172.908,213.631Z" transform="translate(-177.611 -108.794)" fill="#0e1116"/>
      <path id="Path_19375" data-name="Path 19375" d="M-190.565,230.693a.47.47,0,0,1-.454.466.467.467,0,0,1-.465-.481.463.463,0,0,1,.467-.45A.464.464,0,0,1-190.565,230.693Z" transform="translate(-160.784 -125.062)" fill="#0e1116"/>
      <path id="Path_19376" data-name="Path 19376" d="M-190.566,266.415a.45.45,0,0,1-.454.457.447.447,0,0,1-.465-.446.458.458,0,0,1,.467-.474A.458.458,0,0,1-190.566,266.415Z" transform="translate(-160.783 -158.24)" fill="#0e1116"/>
      <path id="Path_19377" data-name="Path 19377" d="M-279.672,284.383a.459.459,0,0,1-.451.464.468.468,0,0,1-.479-.439.47.47,0,0,1,.467-.479A.46.46,0,0,1-279.672,284.383Z" transform="translate(-78.02 -174.934)" fill="#0e1116"/>
      <path id="Path_19378" data-name="Path 19378" d="M-226.547,266.909a.449.449,0,0,1-.427-.481.456.456,0,0,1,.478-.435.469.469,0,0,1,.446.472A.463.463,0,0,1-226.547,266.909Z" transform="translate(-127.824 -158.277)" fill="#0e1116"/>
      <path id="Path_19379" data-name="Path 19379" d="M-208.472,248.642a.451.451,0,0,1,.474.438.462.462,0,0,1-.465.476.454.454,0,0,1-.458-.454A.443.443,0,0,1-208.472,248.642Z" transform="translate(-144.59 -142.163)" fill="#0e1116"/>
      <path id="Path_19380" data-name="Path 19380" d="M-243.732,284.395a.45.45,0,0,1-.465.446.46.46,0,0,1-.459-.456.467.467,0,0,1,.482-.462A.456.456,0,0,1-243.732,284.395Z" transform="translate(-111.404 -174.929)" fill="#0e1116"/>
    </g>
  </g>
</svg>
