<svg xmlns="http://www.w3.org/2000/svg" width="56" height="56" viewBox="0 0 56 56">
  <g id="Group_23559" data-name="Group 23559" transform="translate(-195 -1451.533)">
    <circle id="Ellipse_942" data-name="Ellipse 942" cx="28" cy="28" r="28" transform="translate(195 1451.533)" fill="#ffc1b2"/>
    <g id="soccer" transform="translate(213 1469.533)">
      <g id="Group_12" data-name="Group 12">
        <g id="Group_11" data-name="Group 11">
          <path id="Path_30" data-name="Path 30" d="M10.389,0A10.389,10.389,0,1,0,20.777,10.389,10.4,10.4,0,0,0,10.389,0Zm0,20.085a9.7,9.7,0,1,1,9.7-9.7A9.707,9.707,0,0,1,10.389,20.085Z" fill="#0e1116"/>
        </g>
      </g>
      <g id="Group_14" data-name="Group 14" transform="translate(6.58 6.233)">
        <g id="Group_13" data-name="Group 13">
          <path id="Path_31" data-name="Path 31" d="M169.621,156.446l-3.463-2.77a.347.347,0,0,0-.433,0l-3.463,2.77a.347.347,0,0,0-.112.38l1.385,4.155a.347.347,0,0,0,.329.237h4.155a.347.347,0,0,0,.329-.237l1.385-4.155A.346.346,0,0,0,169.621,156.446Zm-1.851,4.08h-3.656l-1.23-3.69,3.058-2.446L169,156.836Z" transform="translate(-162.133 -153.6)" fill="#0e1116"/>
        </g>
      </g>
      <g id="Group_16" data-name="Group 16" transform="translate(10.042 0.491)">
        <g id="Group_15" data-name="Group 15">
          <path id="Path_32" data-name="Path 32" d="M256.023,15.642a10.356,10.356,0,0,0-5-3.519.347.347,0,0,0-.331.065l-3.1,2.626a.346.346,0,0,0-.123.264v3.117a.346.346,0,0,0,.13.27l3.463,2.77a.346.346,0,0,0,.216.076.354.354,0,0,0,.11-.018l3.117-1.039a.347.347,0,0,0,.219-.219l1.357-4.072A.346.346,0,0,0,256.023,15.642Zm-1.9,4.01-2.774.925-3.186-2.549v-2.79l2.831-2.4a9.658,9.658,0,0,1,4.371,3.08Z" transform="translate(-247.467 -12.105)" fill="#0e1116"/>
        </g>
      </g>
      <g id="Group_18" data-name="Group 18" transform="translate(2.106 0.491)">
        <g id="Group_17" data-name="Group 17">
          <path id="Path_33" data-name="Path 33" d="M60.4,14.808l-3.1-2.626a.346.346,0,0,0-.331-.065,10.356,10.356,0,0,0-5,3.519.346.346,0,0,0-.055.322l1.357,4.072a.347.347,0,0,0,.219.219L56.6,21.288a.35.35,0,0,0,.109.018.345.345,0,0,0,.216-.076l3.463-2.77a.347.347,0,0,0,.13-.27V15.072A.346.346,0,0,0,60.4,14.808Zm-.57,3.214-3.186,2.549-2.774-.925-1.243-3.73A9.664,9.664,0,0,1,57,12.837l2.832,2.4v2.79Z" transform="translate(-51.891 -12.1)" fill="#0e1116"/>
        </g>
      </g>
      <g id="Group_20" data-name="Group 20" transform="translate(0.008 7.964)">
        <g id="Group_19" data-name="Group 19">
          <path id="Path_34" data-name="Path 34" d="M8.824,201.687l-1.385-4.155a.347.347,0,0,0-.219-.219L4.1,196.274a.346.346,0,0,0-.306.043L.342,198.692a.347.347,0,0,0-.15.3,10.353,10.353,0,0,0,1.717,5.424.346.346,0,0,0,.288.155H6.764a.345.345,0,0,0,.282-.146L8.777,202A.346.346,0,0,0,8.824,201.687Zm-2.238,2.188h-4.2a9.658,9.658,0,0,1-1.495-4.719l3.156-2.17,2.789.93,1.275,3.824Z" transform="translate(-0.192 -196.256)" fill="#0e1116"/>
        </g>
      </g>
      <g id="Group_22" data-name="Group 22" transform="translate(12.127 7.965)">
        <g id="Group_21" data-name="Group 21">
          <path id="Path_35" data-name="Path 35" d="M307.343,198.715l-3.455-2.376a.349.349,0,0,0-.306-.043l-3.117,1.039a.347.347,0,0,0-.219.219l-1.385,4.155a.346.346,0,0,0,.047.311l1.731,2.424a.346.346,0,0,0,.282.145h4.566a.346.346,0,0,0,.288-.154,10.354,10.354,0,0,0,1.718-5.424A.346.346,0,0,0,307.343,198.715ZM305.3,203.9h-4.2l-1.525-2.136,1.275-3.824,2.789-.93,3.156,2.17A9.655,9.655,0,0,1,305.3,203.9Z" transform="translate(-298.844 -196.279)" fill="#0e1116"/>
        </g>
      </g>
      <g id="Group_24" data-name="Group 24" transform="translate(6.233 13.159)">
        <g id="Group_23" data-name="Group 23">
          <path id="Path_36" data-name="Path 36" d="M161.843,326.836l-1.731-2.424a.347.347,0,0,0-.282-.145h-4.156a.346.346,0,0,0-.282.145l-1.731,2.424a.346.346,0,0,0-.047.311l1.4,4.21a.346.346,0,0,0,.246.227,10.394,10.394,0,0,0,4.977,0,.346.346,0,0,0,.246-.227l1.4-4.21A.346.346,0,0,0,161.843,326.836Zm-1.952,4.118a9.742,9.742,0,0,1-4.277,0l-1.286-3.859,1.525-2.136h3.8l1.525,2.136Z" transform="translate(-153.597 -324.267)" fill="#0e1116"/>
        </g>
      </g>
      <g id="Group_26" data-name="Group 26" transform="translate(1.667 15.583)">
        <g id="Group_25" data-name="Group 25">
          <path id="Path_37" data-name="Path 37" d="M47.726,388.437l-1.4-4.21a.346.346,0,0,0-.329-.237H41.428a.347.347,0,0,0-.289.538,10.366,10.366,0,0,0,6.175,4.355.335.335,0,0,0,.083.01.347.347,0,0,0,.329-.456ZM42.1,384.684h3.644l1.118,3.354A9.667,9.667,0,0,1,42.1,384.684Z" transform="translate(-41.082 -383.991)" fill="#0e1116"/>
        </g>
      </g>
      <g id="Group_28" data-name="Group 28" transform="translate(12.466 15.583)">
        <g id="Group_27" data-name="Group 27">
          <path id="Path_38" data-name="Path 38" d="M313.819,384.175a.347.347,0,0,0-.305-.182h-4.566a.346.346,0,0,0-.329.237l-1.4,4.21a.346.346,0,0,0,.329.456.341.341,0,0,0,.083-.01,10.365,10.365,0,0,0,6.175-4.355A.347.347,0,0,0,313.819,384.175Zm-5.739,3.864,1.118-3.353h3.645A9.665,9.665,0,0,1,308.08,388.038Z" transform="translate(-307.198 -383.992)" fill="#0e1116"/>
        </g>
      </g>
      <g id="Group_30" data-name="Group 30" transform="translate(6.992 0.002)">
        <g id="Group_29" data-name="Group 29">
          <path id="Path_39" data-name="Path 39" d="M179.09.8a.345.345,0,0,0-.234-.26,10.46,10.46,0,0,0-6.31,0,.346.346,0,0,0-.122.592l3.05,2.644a.346.346,0,0,0,.453,0l3.05-2.644A.346.346,0,0,0,179.09.8ZM175.7,3.053l-2.339-2.027a9.757,9.757,0,0,1,4.677,0Z" transform="translate(-172.304 -0.05)" fill="#0e1116"/>
        </g>
      </g>
      <g id="Group_32" data-name="Group 32" transform="translate(0 3.893)">
        <g id="Group_31" data-name="Group 31">
          <path id="Path_40" data-name="Path 40" d="M4.138,100.243,2.781,96.172a.346.346,0,0,0-.6-.1A10.286,10.286,0,0,0,0,102.431c0,.069,0,.137,0,.206l0,.082A.346.346,0,0,0,.549,103L4,100.639A.346.346,0,0,0,4.138,100.243ZM.7,102.054a9.577,9.577,0,0,1,1.637-5.023L3.4,100.215Z" transform="translate(0 -95.935)" fill="#0e1116"/>
        </g>
      </g>
      <g id="Group_34" data-name="Group 34" transform="translate(16.622 3.893)">
        <g id="Group_33" data-name="Group 33">
          <path id="Path_41" data-name="Path 41" d="M411.584,96.067a.346.346,0,0,0-.6.1l-1.357,4.072a.347.347,0,0,0,.133.4l3.456,2.356a.346.346,0,0,0,.541-.276l0-.083c0-.068,0-.136,0-.2A10.289,10.289,0,0,0,411.584,96.067Zm-1.22,4.145,1.061-3.184a9.572,9.572,0,0,1,1.637,5.023Z" transform="translate(-409.607 -95.933)" fill="#0e1116"/>
        </g>
      </g>
    </g>
  </g>
</svg>
