<svg xmlns="http://www.w3.org/2000/svg" width="56" height="56" viewBox="0 0 56 56">
  <g id="Group_23559" data-name="Group 23559" transform="translate(-195 -1451.533)">
    <circle id="Ellipse_942" data-name="Ellipse 942" cx="28" cy="28" r="28" transform="translate(195 1451.533)" fill="#8dbea8"/>
    <g id="baseball" transform="translate(213 1469.533)">
      <path id="Path_45" data-name="Path 45" d="M17.824,3.068A10.434,10.434,0,1,0,3.068,17.824,10.434,10.434,0,1,0,17.824,3.068ZM10.446,1.224c.275,0,.548.013.817.037a17.1,17.1,0,0,1-.687,2.351l-.295-.164a.612.612,0,0,0-.595,1.07l.412.229A12.691,12.691,0,0,1,8.362,7.5l-.484-.484a.612.612,0,0,0-.866.866l.514.514a10.961,10.961,0,0,1-2.679,1.889l-.33-.593a.612.612,0,1,0-1.07.594l.273.491a13.68,13.68,0,0,1-2.444.661,9.222,9.222,0,0,1,9.169-10.21ZM1.488,12.64a14.807,14.807,0,0,0,2.833-.786l.281.506a.612.612,0,0,0,1.07-.594l-.23-.413a12.17,12.17,0,0,0,2.95-2.093l.467.467a.612.612,0,0,0,.866-.866l-.494-.494a13.838,13.838,0,0,0,1.94-3.023l.594.33a.612.612,0,0,0,.595-1.07l-.7-.39a18.262,18.262,0,0,0,.818-2.763,9.252,9.252,0,0,1,6.968,6.968,18.257,18.257,0,0,0-2.763.818l-.39-.7a.612.612,0,1,0-1.07.594l.33.594a13.838,13.838,0,0,0-3.023,1.94l-.494-.494a.612.612,0,1,0-.866.866l.467.467a12.171,12.171,0,0,0-2.093,2.95l-.413-.23a.612.612,0,0,0-.595,1.07l.506.281A14.807,14.807,0,0,0,8.253,19.4,9.254,9.254,0,0,1,1.488,12.64Zm8.958,7.028a9.285,9.285,0,0,1-.988-.053,13.678,13.678,0,0,1,.661-2.444l.491.273a.612.612,0,0,0,.595-1.07l-.593-.33A10.962,10.962,0,0,1,12.5,13.366l.514.514a.612.612,0,1,0,.866-.866l-.484-.484a12.692,12.692,0,0,1,2.75-1.737l.229.412a.612.612,0,0,0,1.07-.594l-.164-.295a17.094,17.094,0,0,1,2.351-.687c.024.269.037.542.037.817a9.232,9.232,0,0,1-9.222,9.222Z" fill="#0e1116"/>
    </g>
  </g>
</svg>
