<svg xmlns="http://www.w3.org/2000/svg" width="56" height="56" viewBox="0 0 56 56">
  <g id="Group_23559" data-name="Group 23559" transform="translate(-195 -1451.533)">
    <circle id="Ellipse_942" data-name="Ellipse 942" cx="28" cy="28" r="28" transform="translate(195 1451.533)" fill="#81b7ff"/>
    <g id="Group_24147" data-name="Group 24147" transform="translate(175.431 742.573)">
      <path id="Path_19382" data-name="Path 19382" d="M37.569,743.325c.026-.411.039-.824.078-1.234a16.647,16.647,0,0,1,4.505-10.316,14.915,14.915,0,0,1,4.711-3.242,17.855,17.855,0,0,1,5.093-1.432,11.384,11.384,0,0,1,4,.07,4.428,4.428,0,0,1,.952.344,1.731,1.731,0,0,1,.819,1.156,7.474,7.474,0,0,1,.3,2.289,17.408,17.408,0,0,1-2.241,8.479,14.615,14.615,0,0,1-5.522,5.615,17.835,17.835,0,0,1-6.647,2.257c-.343.047-.69.063-1.034.1-.072.007-.142.024-.213.036h-1.32c-.072-.011-.143-.026-.216-.031a6.586,6.586,0,0,1-1.741-.329,1.706,1.706,0,0,1-1.167-1.159,7.89,7.89,0,0,1-.316-1.865c-.006-.125-.026-.25-.04-.375Zm14.179-15.212c-.071.009-.1.012-.137.017a17.043,17.043,0,0,0-5.444,1.827,13.532,13.532,0,0,0-4.666,4.114,16.509,16.509,0,0,0-2.78,7.135.273.273,0,0,0,.069.2q2.4,2.4,4.806,4.781a.273.273,0,0,0,.2.068,17.6,17.6,0,0,0,4.938-1.537A13.883,13.883,0,0,0,53.6,740.9a15.959,15.959,0,0,0,3.252-7.564.294.294,0,0,0-.066-.223q-2.448-2.459-4.905-4.908A.686.686,0,0,0,51.748,728.113Zm5.264,3.724a8.316,8.316,0,0,0-.2-2.869.98.98,0,0,0-.766-.776,7.345,7.345,0,0,0-1.076-.2c-.62-.032-1.242-.009-1.882-.009Zm-18.4,10.787-.052.021a9.579,9.579,0,0,0,.152,2.617,1.166,1.166,0,0,0,.968.977,9.418,9.418,0,0,0,2.6.19.08.08,0,0,0,.047-.015Z" fill="#0e1116"/>
      <path id="Path_19383" data-name="Path 19383" d="M112.719,797.172c.3-.284.589-.545.866-.814a.5.5,0,1,1,.7.7c-.272.273-.549.543-.835.825l1.231,1.227c.052.052.105.1.155.156a.52.52,0,0,1,.036.706.526.526,0,0,1-.737-.008c-.418-.412-.831-.828-1.245-1.244a1.2,1.2,0,0,1-.088-.107l-1.486,1.5c.017.018.064.07.114.121.4.4.793.79,1.188,1.188a.5.5,0,1,1-.7.7c-.444-.442-.885-.886-1.313-1.315l-1.486,1.485,1.074,1.093c.107.109.219.215.318.332a.509.509,0,0,1,0,.659.52.52,0,0,1-.707.018c-.435-.423-.861-.855-1.291-1.283-.037-.037-.077-.071-.13-.119-.268.271-.525.54-.794.8a.856.856,0,0,1-.314.2.457.457,0,0,1-.54-.2.524.524,0,0,1,.071-.612c.289-.295.589-.579.9-.884l-1.092-1.086c-.1-.1-.21-.2-.31-.312a.512.512,0,0,1-.018-.705.5.5,0,0,1,.718.009c.429.419.85.847,1.275,1.27.033.033.068.062.092.085l1.471-1.487c-.421-.422-.865-.87-1.315-1.314a.544.544,0,0,1-.185-.443.435.435,0,0,1,.3-.413.506.506,0,0,1,.555.116q.5.494.99.99c.127.128.248.26.358.376l1.5-1.5c-.132-.128-.285-.273-.435-.422-.307-.305-.615-.61-.918-.92a.5.5,0,1,1,.7-.694C111.84,796.288,112.29,796.742,112.719,797.172Z" transform="translate(-62.787 -62.904)" fill="#0e1116"/>
      <path id="Path_19384" data-name="Path 19384" d="M77.133,768.319a.462.462,0,0,1-.464-.7,13.556,13.556,0,0,1,.922-1.72,12.846,12.846,0,0,1,6.378-4.818.541.541,0,0,1,.63.089.419.419,0,0,1,.1.5.686.686,0,0,1-.328.314,13.028,13.028,0,0,0-4.218,2.5,9.647,9.647,0,0,0-2.53,3.425C77.52,768.143,77.38,768.322,77.133,768.319Z" transform="translate(-35.74 -31.187)" fill="#0e1116"/>
    </g>
  </g>
</svg>
