<svg xmlns="http://www.w3.org/2000/svg" width="56" height="56" viewBox="0 0 56 56">
  <g id="Group_23559" data-name="Group 23559" transform="translate(-195 -1451.533)">
    <circle id="Ellipse_942" data-name="Ellipse 942" cx="28" cy="28" r="28" transform="translate(195 1451.533)" fill="#f6f4ce"/>
    <g id="Group_24146" data-name="Group 24146" transform="translate(648.144 941.134)">
      <path id="Path_19381" data-name="Path 19381" d="M-424.7,528.4a10.451,10.451,0,0,1,10.4,10.488A10.451,10.451,0,0,1-424.73,549.3a10.452,10.452,0,0,1-10.414-10.478A10.451,10.451,0,0,1-424.7,528.4Zm2.538,5.6c-.086.058-.143.1-.2.136a6.688,6.688,0,0,1-3.6,1.258c-1.2.058-2.4.1-3.59.218a18.249,18.249,0,0,0-4.039.885.418.418,0,0,0-.317.356,9.369,9.369,0,0,0,.454,5.467c.226.57.529,1.109.809,1.688l11.75-8.544Zm-9.894,10.845c.494.466.942.943,1.444,1.352a9.339,9.339,0,0,0,4.984,2.059.345.345,0,0,0,.367-.157,21.876,21.876,0,0,0,3.191-6.517,6.547,6.547,0,0,1,1.412-2.538c.374-.405.8-.76,1.236-1.163l-.924-1.619Zm7.963,3.434c.315-.034.616-.054.912-.1a9.352,9.352,0,0,0,5.049-2.547,1.2,1.2,0,0,0,.39-.962,15.7,15.7,0,0,0-1.124-5.61c-.019-.048-.045-.094-.068-.141a.486.486,0,0,0-.075.033c-.046.033-.09.067-.134.1a5.385,5.385,0,0,0-1.786,2.554A28.177,28.177,0,0,1-423,546.437C-423.336,547.049-423.712,547.642-424.091,548.275Zm-9.381-12.934c.064-.015.09-.02.115-.028a25.882,25.882,0,0,1,6.94-.958,8.483,8.483,0,0,0,1.663-.207,4.506,4.506,0,0,0,1.768-.859c-.031-.033-.049-.055-.069-.072a15.4,15.4,0,0,0-5.23-2.985.421.421,0,0,0-.274.025,9.153,9.153,0,0,0-3.449,2.634A9.588,9.588,0,0,0-433.472,535.341Zm15.377,3.035a16.265,16.265,0,0,1,1.285,5.493,9.322,9.322,0,0,0,1.451-5.971A5.341,5.341,0,0,0-418.095,538.376Zm-8.695-8.7a16.521,16.521,0,0,1,4.6,2.93,5.531,5.531,0,0,0,1.25-2.387A9.387,9.387,0,0,0-426.79,529.673Zm7.274,5.991,1.035,1.828a6.4,6.4,0,0,1,2.959-.587,8.967,8.967,0,0,0-1.309-3.179Zm-.486-4.957a6.745,6.745,0,0,1-1.452,2.6l1.348,1.553,2.68-1.976A9.107,9.107,0,0,0-420,530.707Z" transform="translate(0)" fill="#0e1116"/>
    </g>
  </g>
</svg>
