<svg xmlns="http://www.w3.org/2000/svg" xmlns:xlink="http://www.w3.org/1999/xlink" width="70" height="70" viewBox="0 0 70 70">
  <defs>
    <clipPath id="clip-path">
      <rect id="Rectangle_510" data-name="Rectangle 510" width="22.117" height="26.732" fill="none"/>
    </clipPath>
  </defs>
  <g id="Group_23574" data-name="Group 23574" transform="translate(-195 -1451.533)">
    <g id="Ellipse_942" data-name="Ellipse 942" transform="translate(195 1451.533)" fill="#f6ca94" stroke="" stroke-width="1">
      <circle cx="35" cy="35" r="35" stroke="none"/>
      <circle cx="35" cy="35" r="34.5" fill="none"/>
    </g>
    <g id="ROI_Icon" data-name="ROI Icon" transform="translate(219 1473.533)">
      <g id="Group_1093" data-name="Group 1093">
        <g id="Group_1092" data-name="Group 1092" clip-path="url(#clip-path)">
          <path id="Path_7491" data-name="Path 7491" d="M44.086,54.111a1.928,1.928,0,0,1-1.577-.8.372.372,0,0,1,.591-.453,1.286,1.286,0,0,0,1.626.361l.034-.016a.538.538,0,0,0,.289-.571.7.7,0,0,0-.486-.592l-1.11-.33a1.232,1.232,0,0,1-.993-1.266,1.191,1.191,0,0,1,.4-.91,1.9,1.9,0,0,1,1.3-.382,1.676,1.676,0,0,1,1.63,1.135.374.374,0,0,1-.715.209.92.92,0,0,0-.924-.6,1.228,1.228,0,0,0-.8.2.456.456,0,0,0-.15.359c0,.245.074.431.46.544l1.112.331a1.435,1.435,0,0,1,1.014,1.236,1.293,1.293,0,0,1-.733,1.32,2.2,2.2,0,0,1-.972.225" transform="translate(-33.06 -38.294)" fill="#0e1116"/>
          <path id="Path_7492" data-name="Path 7492" d="M48.924,46.787a.374.374,0,0,1-.372-.372v-.878a.372.372,0,1,1,.744,0v.878a.374.374,0,0,1-.372.372" transform="translate(-37.828 -35.183)" fill="#0e1116"/>
          <path id="Path_7493" data-name="Path 7493" d="M48.924,70.145a.374.374,0,0,1-.372-.372v-.878a.372.372,0,0,1,.744,0v.878a.374.374,0,0,1-.372.372" transform="translate(-37.829 -53.394)" fill="#0e1116"/>
          <path id="Path_7494" data-name="Path 7494" d="M19.458,47.217H2.618a.372.372,0,0,1-.372-.375v-.029A1.929,1.929,0,0,0,.36,44.9.374.374,0,0,1,0,44.524V39.308a.372.372,0,0,1,.361-.371,1.943,1.943,0,0,0,1.881-1.883.374.374,0,0,1,.374-.361H19.461a.372.372,0,0,1,.372.361,1.937,1.937,0,0,0,1.915,1.883.374.374,0,0,1,.368.374v5.211a.374.374,0,0,1-.368.372,1.95,1.95,0,0,0-1.919,1.942.376.376,0,0,1-.372.381M2.966,46.472H19.112a2.7,2.7,0,0,1,2.26-2.293V39.653a2.678,2.678,0,0,1-2.248-2.215H2.952A2.691,2.691,0,0,1,.744,39.645v4.542a2.669,2.669,0,0,1,2.222,2.286m18.777-1.95Z" transform="translate(0 -28.589)" fill="#0e1116"/>
          <path id="Path_7495" data-name="Path 7495" d="M.372,39.682A.372.372,0,0,1,0,39.309V37.067A.372.372,0,0,1,.372,36.7H2.616a.372.372,0,0,1,.372.383,2.688,2.688,0,0,1-2.6,2.6H.372M.744,37.44v1.449A1.946,1.946,0,0,0,2.193,37.44Z" transform="translate(0 -28.59)" fill="#0e1116"/>
          <path id="Path_7496" data-name="Path 7496" d="M2.618,73.53H.372A.374.374,0,0,1,0,73.157V70.837a.372.372,0,0,1,.383-.372,2.673,2.673,0,0,1,2.606,2.683c0,.009,0,.023,0,.032a.376.376,0,0,1-.371.349M.744,72.784H2.216A1.93,1.93,0,0,0,.744,71.256Z" transform="translate(0 -54.901)" fill="#0e1116"/>
          <path id="Path_7497" data-name="Path 7497" d="M89.084,39.681h-.005a2.68,2.68,0,0,1-2.65-2.606.374.374,0,0,1,.374-.383h2.283a.372.372,0,0,1,.372.372V39.31a.372.372,0,0,1-.372.372m-1.862-2.245A1.937,1.937,0,0,0,88.712,38.9V37.436Z" transform="translate(-67.34 -28.588)" fill="#0e1116"/>
          <path id="Path_7498" data-name="Path 7498" d="M89.073,73.521H86.787a.374.374,0,0,1-.372-.369,2.7,2.7,0,0,1,2.653-2.7.379.379,0,0,1,.267.107.371.371,0,0,1,.111.265v2.323a.374.374,0,0,1-.372.374m-1.88-.744H88.7V71.24a1.957,1.957,0,0,0-1.507,1.536" transform="translate(-67.329 -54.893)" fill="#0e1116"/>
          <path id="Path_7499" data-name="Path 7499" d="M31.5,47.218a5.262,5.262,0,1,1,5.262-5.262A5.262,5.262,0,0,1,31.5,47.218m0-9.78a4.517,4.517,0,1,0,4.517,4.518A4.517,4.517,0,0,0,31.5,37.438" transform="translate(-20.447 -28.59)" fill="#0e1116"/>
          <path id="Path_7503" data-name="Path 7503" d="M38.1,11.595a.372.372,0,0,1-.372-.374v-.632a3.84,3.84,0,1,0-7.68,0v.632a.374.374,0,1,1-.744,0v-.632a4.585,4.585,0,1,1,9.169,0v.632a.372.372,0,0,1-.372.374" transform="translate(-22.833 -4.678)" fill="#0e1116"/>
          <path id="Path_7504" data-name="Path 7504" d="M63,23.872a.371.371,0,0,1-.263-.109l-1.36-1.36a.372.372,0,1,1,.525-.527l1.1,1.1,1.1-1.1a.373.373,0,1,1,.527.527l-1.36,1.36a.371.371,0,0,1-.263.109" transform="translate(-47.734 -16.955)" fill="#0e1116"/>
          <path id="Path_7505" data-name="Path 7505" d="M33.361,89.718a.372.372,0,0,0-.372.372v.632A3.838,3.838,0,0,1,25.323,91l.712.713a.374.374,0,0,0,.526-.527L25.2,89.828a.372.372,0,0,0-.527,0l-1.36,1.36a.374.374,0,0,0,.526.527l.738-.738a4.582,4.582,0,0,0,9.156-.252v-.632a.372.372,0,0,0-.372-.372" transform="translate(-18.091 -69.902)" fill="#0e1116"/>
        </g>
      </g>
    </g>
  </g>
</svg>
