<svg xmlns="http://www.w3.org/2000/svg" width="56" height="56" viewBox="0 0 56 56">
  <g id="Group_23559" data-name="Group 23559" transform="translate(-195 -1451.533)">
    <g id="Ellipse_942" data-name="Ellipse 942" transform="translate(195 1451.533)" fill="#f9c" stroke="" stroke-width="1">
      <circle cx="28" cy="28" r="28" stroke="none"/>
      <circle cx="28" cy="28" r="27.5" fill="none"/>
    </g>
    <g id="Group_23818" data-name="Group 23818" transform="translate(386.078 676.333)">
      <path id="Path_18021" data-name="Path 18021" d="M-164.355,1031.357q-.113-1-.226-2c-.03-.27-.053-.541-.093-.81a.225.225,0,0,0-.123-.149c-.339-.125-.689-.22-1.022-.358s-.636-.309-.968-.473l-1.134.917-1.106.9-2.068-2.079c.031-.039.088-.115.147-.19.516-.64,1.03-1.283,1.553-1.918a.25.25,0,0,0,.028-.314q-.382-.866-.726-1.75c-.051-.13-.1-.192-.242-.206-.862-.083-1.724-.176-2.585-.274-.057-.007-.151-.084-.152-.131-.012-.437-.007-.874-.007-1.33h6.738a3.44,3.44,0,0,0,1.291,2.659,3.325,3.325,0,0,0,2.13.756,3.33,3.33,0,0,0,1.706-.45,3.422,3.422,0,0,0,1.268-1.262,3.6,3.6,0,0,0,.468-1.711h6.738c0,.461,0,.911-.007,1.361,0,.039-.1.1-.152.109-.853.1-1.707.191-2.562.271-.167.016-.215.084-.272.23-.225.582-.466,1.158-.719,1.728a.249.249,0,0,0,.028.314c.518.629,1.027,1.266,1.538,1.9.061.076.121.152.171.216l-2.081,2.067-2.181-1.765c-.715.273-1.382.524-2.044.788a.271.271,0,0,0-.127.193c-.1.847-.184,1.7-.275,2.544-.008.075-.026.148-.04.222Z" transform="translate(0 -216.944)" fill="#0e1116"/>
      <path id="Path_18022" data-name="Path 18022" d="M-36.886,791.2c.138.034.276.065.412.1a2.647,2.647,0,0,1,1.883,2.806,2.636,2.636,0,0,1-2.589,2.349,2.62,2.62,0,0,1-2.61-2.216,2.617,2.617,0,0,1,2.167-3.005.586.586,0,0,0,.1-.039Z" transform="translate(-125.704 0)" fill="#0e1116"/>
      <path id="Path_18023" data-name="Path 18023" d="M-73.894,902.339H-84.12a1.2,1.2,0,0,1-.013-.12c0-1.095-.016-2.19.008-3.284a2.293,2.293,0,0,1,2.223-2.246q2.893-.043,5.787,0a2.293,2.293,0,0,1,2.224,2.246c.025,1.094.008,2.19.008,3.284A1.206,1.206,0,0,1-73.894,902.339Z" transform="translate(-83.9 -99.49)" fill="#0e1116"/>
      <path id="Path_18024" data-name="Path 18024" d="M-172.923,912.729c-.014-.025-.027-.038-.027-.051.01-1.095-.018-2.192.044-3.283a1.967,1.967,0,0,1,1.753-1.693c.757-.042,1.519-.009,2.281-.009a4.743,4.743,0,0,0-.247.7,6.753,6.753,0,0,0-.146,1.162c-.02.974-.007,1.949-.007,2.924v.253Z" transform="translate(-0.121 -109.879)" fill="#0e1116"/>
      <path id="Path_18025" data-name="Path 18025" d="M117.419,912.348h-3.656c0-.1,0-.192,0-.281,0-1.05,0-2.1-.008-3.15a3.427,3.427,0,0,0-.348-1.463c-.022-.046-.039-.095-.068-.166.085,0,.148-.01.212-.009.693.011,1.388-.007,2.078.041a1.983,1.983,0,0,1,1.78,1.816C117.449,910.2,117.419,911.262,117.419,912.348Z" transform="translate(-270.186 -109.501)" fill="#0e1116"/>
      <path id="Path_18026" data-name="Path 18026" d="M-131.044,812.727a2.358,2.358,0,0,1,2.186,3.313.412.412,0,0,1-.235.2,3.875,3.875,0,0,0-1.828,1.074.4.4,0,0,1-.29.1,2.358,2.358,0,0,1-2.131-2.279,2.375,2.375,0,0,1,2.058-2.4C-131.188,812.727-131.089,812.729-131.044,812.727Z" transform="translate(-37.483 -20.307)" fill="#0e1116"/>
      <path id="Path_18027" data-name="Path 18027" d="M65.491,812.728a2.367,2.367,0,0,1,2.268,1.773,2.307,2.307,0,0,1-1.135,2.618,4.21,4.21,0,0,1-.936.3.34.34,0,0,1-.27-.1,3.866,3.866,0,0,0-1.847-1.085.387.387,0,0,1-.22-.186A2.352,2.352,0,0,1,65.491,812.728Z" transform="translate(-222.819 -20.308)" fill="#0e1116"/>
    </g>
  </g>
</svg>
