<svg xmlns="http://www.w3.org/2000/svg" width="24" height="24" viewBox="0 0 24 24">
  <g id="email" transform="translate(-38.056 -395.159)">
    <rect id="Rectangle_34" data-name="Rectangle 34" width="24" height="24" transform="translate(38.056 395.159)" fill="none"/>
    <g id="history-3-svgrepo-com" transform="translate(38.806 396.909)">
      <path id="Path_17357" data-name="Path 17357" d="M11.906,2.561a8.087,8.087,0,0,1,8.087,8.087.656.656,0,0,0,1.311,0,9.4,9.4,0,0,0-9.4-9.4.656.656,0,1,0,0,1.311Z" transform="translate(-1.257)" fill="#9b9a9f" fill-rule="evenodd"/>
      <path id="Path_17358" data-name="Path 17358" d="M11.906,8.25a.656.656,0,0,1,.656.656v2.841H15.4a.656.656,0,1,1,0,1.311h-3.5a.656.656,0,0,1-.656-.656v-3.5A.656.656,0,0,1,11.906,8.25Z" transform="translate(-1.257 -0.88)" fill="#9b9a9f" fill-rule="evenodd"/>
      <path id="Path_17359" data-name="Path 17359" d="M8.112,2.338a.656.656,0,0,1-.376.848q-.185.072-.366.152a.656.656,0,0,1-.532-1.2q.21-.093.426-.177A.656.656,0,0,1,8.112,2.338ZM5.095,3.949a.656.656,0,0,1-.023.927q-.144.137-.281.281a.656.656,0,0,1-.95-.9q.159-.167.326-.326A.656.656,0,0,1,5.095,3.949ZM2.92,6.59a.656.656,0,0,1,.333.865q-.08.181-.152.366a.656.656,0,0,1-1.223-.472q.083-.216.177-.426A.656.656,0,0,1,2.92,6.59Zm-1,3.272a.656.656,0,0,1,.64.671q0,.1,0,.2t0,.2a.656.656,0,1,1-1.311.032q0-.115,0-.231t0-.231A.656.656,0,0,1,1.924,9.862Zm17.119,3.406a.656.656,0,0,1,.375.848q-.083.216-.177.426a.656.656,0,0,1-1.2-.532q.08-.181.152-.366A.656.656,0,0,1,19.043,13.268Zm-16.79,0a.656.656,0,0,1,.848.376q.072.185.152.366a.656.656,0,0,1-1.2.532q-.093-.21-.177-.426A.656.656,0,0,1,2.253,13.268Zm15.179,3.018a.656.656,0,0,1,.023.927q-.159.167-.326.326a.656.656,0,1,1-.9-.95q.144-.137.281-.281A.656.656,0,0,1,17.432,16.286Zm-13.568,0a.656.656,0,0,1,.927.023q.137.144.281.281a.656.656,0,1,1-.9.95Q4,17.38,3.842,17.213A.656.656,0,0,1,3.864,16.286Zm2.641,2.175a.656.656,0,0,1,.865-.333q.181.08.366.152A.656.656,0,0,1,7.265,19.5q-.216-.083-.426-.177A.656.656,0,0,1,6.505,18.461Zm8.286,0a.656.656,0,0,1-.333.865q-.21.093-.426.177a.656.656,0,0,1-.472-1.223q.185-.072.366-.152A.656.656,0,0,1,14.791,18.461Zm-5.014,1a.656.656,0,0,1,.671-.64l.2,0,.2,0a.656.656,0,1,1,.032,1.311l-.231,0-.231,0A.656.656,0,0,1,9.777,19.457Z" transform="translate(0 -0.084)" fill="#9b9a9f" fill-rule="evenodd" opacity="0.5"/>
    </g>
  </g>
</svg>
