<svg xmlns="http://www.w3.org/2000/svg" width="56" height="56" viewBox="0 0 56 56">
  <g id="track_Business" transform="translate(-195 -1451.533)">
    <circle id="Ellipse_942" data-name="Ellipse 942" cx="28" cy="28" r="28" transform="translate(195 1451.533)" fill="#fab28c"/>
    <g id="Group_24263" data-name="Group 24263" transform="translate(601.599 857.533)">
      <path id="Path_19710" data-name="Path 19710" d="M-390.6,676.354c.062-.264.11-.532.188-.791a4.177,4.177,0,0,1,3.927-2.967c.979-.016,1.958,0,2.937,0,.275,0,.423.125.429.345s-.153.372-.433.373c-.939,0-1.878,0-2.817,0a3.477,3.477,0,0,0-3.507,3.583,3.475,3.475,0,0,0,3.4,3.372c.913.035,1.829.007,2.744.013.132,0,.174-.054.209-.172a2.026,2.026,0,0,1,1.964-1.512,2.048,2.048,0,0,1,1.99,1.518.263.263,0,0,0,.183.156c1.765.006,3.531,0,5.3,0a.163.163,0,0,0,.035-.012c.049-.167.094-.344.154-.516.1-.289.278-.409.487-.341.23.075.3.277.194.576a1.891,1.891,0,0,0,1.354,2.5,1.9,1.9,0,0,0,2.256-1.357,1.9,1.9,0,0,0-1.28-2.3,1.726,1.726,0,0,0-.192-.03,6.188,6.188,0,0,0,.009.682c.007.066.119.131.195.177a1.141,1.141,0,0,1,.539,1.257,1.153,1.153,0,0,1-1.066.86A1.144,1.144,0,0,1-372.51,681a1.106,1.106,0,0,1,.53-1.353.288.288,0,0,0,.18-.316c-.011-.173,0-.348,0-.555l-.352.1a.365.365,0,0,1-.5-.2.354.354,0,0,1,.246-.472,1.229,1.229,0,0,1,.365-.114c.221-.015.245-.132.243-.318-.008-.817,0-1.634,0-2.451a.621.621,0,0,1,.649-.673q1.059-.014,2.118,0a.612.612,0,0,1,.643.658c.008.392.005.785,0,1.177a.648.648,0,0,1-.713.719c-.562.006-1.124,0-1.685,0h-.29c0,.259-.011.5.009.735,0,.05.112.117.182.133a2.638,2.638,0,0,1,2.045,2.2,2.625,2.625,0,0,1-2.122,2.928,2.631,2.631,0,0,1-3.016-1.935c-.021-.084-.039-.169-.063-.271h-.272c-1.645,0-3.29,0-4.935,0-.189,0-.29.027-.353.243a2.017,2.017,0,0,1-1.947,1.439,2.028,2.028,0,0,1-1.945-1.445c-.058-.2-.143-.239-.331-.238-.971,0-1.944.029-2.912-.028a4.177,4.177,0,0,1-3.81-3.5c-.013-.085-.035-.169-.053-.253Zm9.081,2.966a1.312,1.312,0,0,0-1.348,1.3,1.323,1.323,0,0,0,1.293,1.337,1.324,1.324,0,0,0,1.348-1.306A1.313,1.313,0,0,0-381.519,679.32Zm12.393-2.843v-1.091h-1.929v1.091Zm-2.32,4.572a.412.412,0,0,0,.415-.405.4.4,0,0,0-.4-.414.412.412,0,0,0-.42.4A.424.424,0,0,0-371.446,681.048Z" transform="translate(0 -50.729)" fill="#0e1116"/>
      <path id="Path_19711" data-name="Path 19711" d="M-356.4,619.183c-.039.179-.073.359-.119.536a3.8,3.8,0,0,1-3.664,2.859c-1.051.022-2.1.007-3.154,0-.287,0-.445-.135-.448-.359s.153-.36.462-.36c1,0,2.006,0,3.009,0a3.1,3.1,0,0,0,3.118-2.421,3.082,3.082,0,0,0-3.107-3.732.9.9,0,0,0-.1.021c0,.168,0,.342,0,.515a.725.725,0,0,1-.389.67q-1,.574-2,1.153a.72.72,0,0,1-.775,0c-.124-.073-.251-.142-.374-.218a.374.374,0,0,1-.2-.483c.076-.176.252-.239.489-.176.022.006.045.009.109.022v-.645c0-.369.005-.737,0-1.105a.292.292,0,0,0-.1-.215c-.494-.3-1-.581-1.5-.868-.018-.011-.046-.005-.094-.009,0,.6,0,1.2.006,1.8,0,.06.073.131.129.177a.369.369,0,0,1,.134.5.37.37,0,0,1-.526.11.761.761,0,0,1-.469-.768c.007-.151,0-.3,0-.488h-.276q-3.744,0-7.487,0c-.189,0-.27.036-.318.244a2.611,2.611,0,0,1-3.311,1.895,2.618,2.618,0,0,1-1.68-3.426,1.338,1.338,0,0,1,.089-.2.346.346,0,0,1,.453-.161.339.339,0,0,1,.192.456,2.189,2.189,0,0,0-.169,1.031,1.9,1.9,0,0,0,1.945,1.69,1.885,1.885,0,0,0,1.829-1.91,1.865,1.865,0,0,0-1.8-1.86,3.466,3.466,0,0,0-.756.107c-.237.049-.428-.025-.488-.221a.363.363,0,0,1,.267-.465,2.612,2.612,0,0,1,3.43,1.88c.041.186.115.223.286.223q3.768-.007,7.536,0c.2,0,.269-.053.257-.255-.016-.271,0-.544,0-.817a.7.7,0,0,1,.382-.648q1.012-.578,2.021-1.162a.691.691,0,0,1,.731-.007q1.033.591,2.062,1.187a.708.708,0,0,1,.358.663c0,.335,0,.67,0,1,.348.039.679.048,1,.116a3.788,3.788,0,0,1,2.964,3.161.914.914,0,0,0,.043.135Zm-5.092-5.483c-.467-.27-.9-.494-1.306-.764a.6.6,0,0,0-.768,0c-.407.273-.845.5-1.306.766.564.325,1.087.628,1.614.926a.181.181,0,0,0,.151,0C-362.58,614.329-362.057,614.025-361.491,613.7Zm.366.671c-.043,0-.062-.006-.073,0a12.449,12.449,0,0,1-1.107.62.774.774,0,0,0-.521.9c.044.431.01.87.01,1.355.568-.328,1.093-.628,1.612-.937a.239.239,0,0,0,.077-.179C-361.123,615.549-361.125,614.966-361.125,614.371Z" transform="translate(-9.544)" fill="#0e1116"/>
      <path id="Path_19712" data-name="Path 19712" d="M-338.836,655.186c-.037-.346-.2-.433-.49-.421a.641.641,0,0,1-.708-.72c0-.2,0-.4,0-.6,0-.512.236-.752.752-.748.2,0,.373-.007.405-.247a.357.357,0,0,0-.043-.223,2.187,2.187,0,0,0-.214-.227.619.619,0,0,1-.006-.852,7.225,7.225,0,0,1,.612-.611.654.654,0,0,1,.946.073c.093.084.133.269.337.2a.33.33,0,0,0,.27-.374c-.015-.568.231-.8.8-.8.177,0,.353,0,.53,0a.676.676,0,0,1,.758.756c0,.127-.074.281.129.366a.309.309,0,0,0,.411-.076c.411-.43.74-.421,1.166,0l.307.306a.683.683,0,0,1,0,1.148c-.118.116-.183.2-.1.384a.264.264,0,0,0,.293.172c.645,0,.843.2.844.851q0,.18,0,.36c0,.653-.207.867-.858.865a.278.278,0,0,0-.287.181c-.1.182,0,.259.1.362a.686.686,0,0,1,0,1.149c-.147.147-.291.3-.445.44a.637.637,0,0,1-.909,0,1.138,1.138,0,0,1-.17-.17c-.091-.127-.186-.1-.31-.049s-.2.1-.188.256a1.359,1.359,0,0,1-.02.358.608.608,0,0,1-.58.516c-.24.013-.481.008-.722.006-.522,0-.77-.242-.759-.768,0-.212-.034-.363-.264-.394a.311.311,0,0,0-.2.048,2.982,2.982,0,0,0-.227.214.63.63,0,0,1-.873-.006c-.2-.184-.394-.378-.579-.578a.624.624,0,0,1-.006-.888A3.457,3.457,0,0,1-338.836,655.186Zm2.557-4.823a.877.877,0,0,1-.617,1.1.879.879,0,0,1-1.167-.311l-.488.42c.292.27.57.522.429.959-.184.57-.441,1.037-1.177.865v.667a.888.888,0,0,1,1.09.62.892.892,0,0,1-.313,1.177l.451.461A.891.891,0,0,1-336.89,656a.894.894,0,0,1,.625,1.086h.661a.894.894,0,0,1,.626-1.087.886.886,0,0,1,1.168.3l.463-.441c-.265-.252-.548-.505-.4-.955.191-.561.443-1.018,1.172-.833v-.666a.911.911,0,0,1-1.09-.629.887.887,0,0,1,.327-1.186l-.462-.46a.9.9,0,0,1-1.2.321.912.912,0,0,1-.613-1.09Z" transform="translate(-42.337 -31.511)" fill="#0e1116"/>
      <path id="Path_19713" data-name="Path 19713" d="M-372.978,687.775a2.063,2.063,0,0,1-2.054,2.071,2.063,2.063,0,0,1-2.08-2.069,2.072,2.072,0,0,1,2.066-2.063A2.071,2.071,0,0,1-372.978,687.775Zm-2.07,1.35a1.341,1.341,0,0,0,1.348-1.34,1.35,1.35,0,0,0-1.342-1.35,1.35,1.35,0,0,0-1.348,1.344A1.341,1.341,0,0,0-375.048,689.125Z" transform="translate(-11.293 -61.719)" fill="#0e1116"/>
      <path id="Path_19714" data-name="Path 19714" d="M-366,626.808c-.2-.189-.367-.329-.517-.483a.353.353,0,0,1-.022-.53.359.359,0,0,1,.532.027c.242.233.48.47.713.712a.35.35,0,0,1,0,.549c-.232.243-.47.479-.713.711a.362.362,0,0,1-.534.02.358.358,0,0,1,.031-.531C-366.364,627.13-366.2,626.99-366,626.808Z" transform="translate(-20.052 -11.462)" fill="#0e1116"/>
      <path id="Path_19715" data-name="Path 19715" d="M-322.731,668.465a1.543,1.543,0,0,1-1.523-1.537,1.543,1.543,0,0,1,1.541-1.519,1.541,1.541,0,0,1,1.523,1.537A1.543,1.543,0,0,1-322.731,668.465Zm.007-.721a.82.82,0,0,0,.811-.811.818.818,0,0,0-.8-.8.817.817,0,0,0-.823.8A.819.819,0,0,0-322.724,667.743Z" transform="translate(-55.55 -44.718)" fill="#0e1116"/>
    </g>
  </g>
</svg>
