<svg xmlns="http://www.w3.org/2000/svg" xmlns:xlink="http://www.w3.org/1999/xlink" width="116" height="116" viewBox="0 0 116 116">
  <defs>
    <filter id="Ellipse_915" x="8.5" y="15.5" width="99" height="99" filterUnits="userSpaceOnUse">
      <feOffset dy="7" input="SourceAlpha"/>
      <feGaussianBlur stdDeviation="2.5" result="blur"/>
      <feFlood flood-opacity="0.161"/>
      <feComposite operator="in" in2="blur"/>
      <feComposite in="SourceGraphic"/>
    </filter>
  </defs>
  <g id="Group_23241" data-name="Group 23241" transform="translate(-799 -1064)">
    <circle id="Ellipse_917" data-name="Ellipse 917" cx="58" cy="58" r="58" transform="translate(799 1064)" fill="#e51635"/>
    <g transform="matrix(1, 0, 0, 1, 799, 1064)" filter="url(#Ellipse_915)">
      <circle id="Ellipse_915-2" data-name="Ellipse 915" cx="42" cy="42" r="42" transform="translate(16 16)" fill="#f8f9fa"/>
    </g>
    <path id="trust" d="M37.146,93.589,29.89,97.243l1.755,3.488a.9.9,0,0,0-.216.135,4.5,4.5,0,0,1-1.6.795c-1.206.15-1.953-.463-2.994-.123a8.515,8.515,0,0,0-2.457,1.4,12.236,12.236,0,0,0-3.3-1.414c-.745-.09-2.033.145-2.374.113a3.8,3.8,0,0,1-1.517-.65l1.889-3.746L11.828,93.59,0,117.069l7.256,3.643,9-17.866a5.279,5.279,0,0,0,2.449.856,13,13,0,0,1,2.093-.133,8.4,8.4,0,0,1,1.806.753q-2.1,1.743-4.087,3.613a3.511,3.511,0,0,0-.361,4.818c1.307,1.626,2.864,1.225,4.222.663l3.847-1.986c.558-.295.946-.5.951-.491l8.143,7.039a1.418,1.418,0,0,1,.485.95,1.35,1.35,0,0,1-.331,1.021c-.877,1.033-1.517.485-1.517.485l-1.569-1.207-1.269,1.63s1.185.895,1.559,1.218a.538.538,0,0,1,.228.516,1.9,1.9,0,0,1-.516,1c-.474.557-.825.712-1.084.712a.707.707,0,0,1-.474-.206q-.927-.684-1.858-1.362l-1.239,1.652,1.816,1.352a.6.6,0,0,1,.228.526,2.18,2.18,0,0,1-.537,1.021,2.236,2.236,0,0,1-.96.712.562.562,0,0,1-.577-.135l-2.209-1.8-1.3,1.6,2.116,1.723a.589.589,0,0,1,.279.577,2.086,2.086,0,0,1-.547,1.022,1.4,1.4,0,0,1-.94.485,1.477,1.477,0,0,1-1.073-.371l-9.871-8.317a1.032,1.032,0,1,0-1.239,1.651l9.829,8.277a3.424,3.424,0,0,0,2.229.825,3.65,3.65,0,0,0,2.643-1.208,3.977,3.977,0,0,0,1.033-2.3,7.625,7.625,0,0,0,2.157-1.414,3.842,3.842,0,0,0,1.033-2.312,4.4,4.4,0,0,0,3.127-3.654,4.583,4.583,0,0,0,2.084-1.362,3.358,3.358,0,0,0,.7-1.372c.041-.02,2.663-1.785,2.663-1.785l1.3,2.58,7.256-3.643ZM6.337,117.947l-3.561-1.8,9.96-19.8,3.571,1.8Zm31.212-.371a3.477,3.477,0,0,0-.888-1.166l-8.649-7.483a1.042,1.042,0,0,0-1.136-.145c-.155.072-3.855,2.012-5.153,2.764a1.427,1.427,0,0,1-2.03-.264,1.327,1.327,0,0,1,.2-1.8c2.849-2.683,6.5-5.716,7.431-5.935.982-.272,1.542.287,2.879.135a5.27,5.27,0,0,0,2.384-1.1l6.894,13.686-1.929,1.31ZM32.667,98.151l3.561-1.8,9.97,19.8-3.571,1.8-9.96-19.8Z" transform="translate(832.491 1008.811)" fill="#e51635"/>
  </g>
</svg>
