<svg xmlns="http://www.w3.org/2000/svg" width="56" height="56" viewBox="0 0 56 56">
  <g id="Group_23559" data-name="Group 23559" transform="translate(-195 -1451.533)">
    <g id="Ellipse_942" data-name="Ellipse 942" transform="translate(195 1451.533)" fill="#ffffe3" stroke="" stroke-width="1">
      <circle cx="28" cy="28" r="28" stroke="none"/>
      <circle cx="28" cy="28" r="27.5" fill="none"/>
    </g>
    <g id="Group_23856" data-name="Group 23856" transform="translate(790.012 1324.412)">
      <path id="Path_18173" data-name="Path 18173" d="M-558.941,144.244a.743.743,0,0,1,.231.984c-.344.9-.668,1.815-1,2.723-.027.075-.05.152-.083.257h.859a2.336,2.336,0,0,1,2.448,2.447q0,5.284,0,10.567a2.322,2.322,0,0,1-2.426,2.439q-8.107,0-16.213,0a2.323,2.323,0,0,1-2.415-2.429q0-5.295,0-10.59a2.332,2.332,0,0,1,2.438-2.435q5.734,0,11.468,0a.338.338,0,0,0,.369-.231c.591-1.3,1.2-2.6,1.792-3.9.153-.336.354-.57.763-.535.044,0,.116-.075.141-.131.122-.274.229-.554.348-.829a.414.414,0,0,1,.6-.249q.418.163.83.343a.412.412,0,0,1,.241.6C-558.675,143.6-558.808,143.918-558.941,144.244Zm-5.666,6.609h-6.341c-.635,0-.9.262-.9.905q0,4.18,0,8.361c0,.646.27.916.917.916h10.886c.656,0,.927-.272.928-.931q0-4.169,0-8.338a2.1,2.1,0,0,0-.01-.247.726.726,0,0,0-.725-.664c-.255-.006-.51,0-.765,0a.186.186,0,0,0-.21.148c-.464,1.283-.93,2.565-1.409,3.843a.974.974,0,0,1-.289.4c-.687.545-1.4,1.059-2.078,1.616a1.042,1.042,0,0,1-1.017.245,4.225,4.225,0,0,0-1.894-.08.822.822,0,0,0-.689.643,2.781,2.781,0,0,1-.475.905,3.553,3.553,0,0,1-1.654,1.121c-.237.087-.425.026-.5-.154-.079-.2.022-.353.264-.466a7.177,7.177,0,0,0,.873-.457,1.853,1.853,0,0,0,.868-1.135,1.293,1.293,0,0,1,1.123-1.077,9.391,9.391,0,0,1,1.429-.068,5.967,5.967,0,0,1,.734.084c-.1-.79-.183-1.551-.292-2.308a1.443,1.443,0,0,1,.126-.888c.347-.706.666-1.427,1-2.141C-564.673,151.02-564.648,150.952-564.607,150.853Zm3.8-6.659-4.295,9.321,2.321.926,3.513-9.612Zm-12.771,11.739a1.111,1.111,0,0,0-1.111-1.114,1.119,1.119,0,0,0-1.127,1.126,1.134,1.134,0,0,0,1.116,1.121A1.123,1.123,0,0,0-573.577,155.934Zm10.322-.944-1.888-.777.251,2.035Zm-11.366-3.736c.225,0,.449.005.673,0a.336.336,0,0,0,.365-.341.334.334,0,0,0-.363-.32q-.673-.008-1.347,0a.327.327,0,0,0-.362.34.329.329,0,0,0,.36.32C-575.069,151.259-574.844,151.254-574.62,151.254Zm-.084,1.766c.224,0,.448,0,.673,0s.371-.133.37-.331a.321.321,0,0,0-.35-.329q-.684-.012-1.367,0a.333.333,0,0,0-.352.332.341.341,0,0,0,.377.328C-575.138,153.023-574.921,153.02-574.7,153.02Zm.085,6.5c.232,0,.464,0,.7,0a.326.326,0,0,0,.342-.312.321.321,0,0,0-.342-.334q-.695-.01-1.39,0a.309.309,0,0,0-.339.333.315.315,0,0,0,.338.313C-575.083,159.52-574.851,159.516-574.619,159.516Zm.021,1.117c-.232,0-.463,0-.7,0s-.354.122-.36.314a.309.309,0,0,0,.34.333q.695.01,1.39,0a.322.322,0,0,0,.341-.335.326.326,0,0,0-.343-.311C-574.149,160.628-574.373,160.632-574.6,160.632Z" fill="#0e1116"/>
      <path id="Path_18174" data-name="Path 18174" d="M-346.218,270.209c-.038.124-.052.19-.077.251q-.467,1.145-.937,2.289a.34.34,0,0,1-.327.259c-.257,0-.391-.229-.281-.5.225-.564.458-1.124.688-1.686.094-.229.18-.461.285-.685a.279.279,0,0,1,.368-.174A1.15,1.15,0,0,1-346.218,270.209Z" transform="translate(-215.86 -119.981)" fill="#0e1116"/>
    </g>
  </g>
</svg>
