<svg xmlns="http://www.w3.org/2000/svg" width="56" height="56" viewBox="0 0 56 56">
  <g id="Group_23559" data-name="Group 23559" transform="translate(-195 -1451.533)">
    <g id="Ellipse_942" data-name="Ellipse 942" transform="translate(195 1451.533)" fill="#ddfffc" stroke="" stroke-width="1">
      <circle cx="28" cy="28" r="28" stroke="none"/>
      <circle cx="28" cy="28" r="27.5" fill="none"/>
    </g>
    <g id="Group_23839" data-name="Group 23839" transform="translate(1618.636 1568.239)">
      <path id="Path_18116" data-name="Path 18116" d="M-1384.721-2.893V11.1a.173.173,0,0,0-.032.049,1.957,1.957,0,0,1-2.043,1.623h-16.742a1.965,1.965,0,0,1-2.067-2.077q0-6.678,0-13.357v-.229Zm-14.447,3.4a.873.873,0,0,1-.073.082,6.7,6.7,0,0,0-2.177,2.895.451.451,0,0,1-.154.176.933.933,0,0,0-.278,1.231.937.937,0,0,0,1.2.385.941.941,0,0,0,.5-1.161.461.461,0,0,1,.011-.284,4.97,4.97,0,0,1,.88-1.434A5.325,5.325,0,0,1-1396,.586a.62.62,0,0,1,.356.078.98.98,0,0,0,.972,0,.6.6,0,0,1,.356-.074,5.311,5.311,0,0,1,4.134,3.251.44.44,0,0,1,.008.284.943.943,0,0,0,.5,1.159.94.94,0,0,0,1.19-.375.939.939,0,0,0-.258-1.237.63.63,0,0,1-.189-.246,6.385,6.385,0,0,0-1.13-1.852c-.331-.365-.7-.7-1.059-1.061h.212c.346,0,.694.008,1.039-.011a.63.63,0,0,0,.577-.566.647.647,0,0,0-.434-.685,1.35,1.35,0,0,0-.382-.042c-1.393,0-2.786,0-4.179-.006a.644.644,0,0,1-.331-.107.981.981,0,0,0-1.093,0,.6.6,0,0,1-.312.1c-1.386.007-2.772,0-4.159.005a2.119,2.119,0,0,0-.3.016.61.61,0,0,0-.508.418.643.643,0,0,0,.606.868C-1400,.519-1399.605.509-1399.168.509Zm3.989,10.44v0c.211,0,.421,0,.632,0a1.3,1.3,0,0,0,1.341-1.358c0-.51-.005-1.019,0-1.529a.732.732,0,0,1,.094-.34c.246-.422.5-.841.765-1.251a.736.736,0,0,0-.025-.921c-.74-1.024-1.469-2.056-2.2-3.084a.677.677,0,0,0-1.179-.008c-.743,1.039-1.481,2.08-2.226,3.117a.7.7,0,0,0-.034.851c.253.4.493.813.749,1.213a.837.837,0,0,1,.143.494c-.01.5-.008,1.006,0,1.509a1.291,1.291,0,0,0,1.248,1.3C-1395.641,10.959-1395.41,10.949-1395.179,10.949Z" transform="translate(-0.029 -90.592)" fill="#0e1116"/>
      <path id="Path_18117" data-name="Path 18117" d="M-1384.75-97.034v2.243h-20.884c0-.68-.006-1.332,0-1.984a1.952,1.952,0,0,1,1.326-1.824c.114-.039.229-.072.344-.108h17.539a.963.963,0,0,0,.11.04,1.957,1.957,0,0,1,1.463,1.307C-1384.811-97.252-1384.783-97.142-1384.75-97.034Zm-18.277.937a.659.659,0,0,0,.655-.643.659.659,0,0,0-.658-.661.66.66,0,0,0-.645.653A.66.66,0,0,0-1403.027-96.1Zm2.613-.653a.659.659,0,0,0-.648-.651.66.66,0,0,0-.656.643.659.659,0,0,0,.659.661A.659.659,0,0,0-1400.414-96.75Zm1.316.653a.659.659,0,0,0,.642-.657.659.659,0,0,0-.672-.647.66.66,0,0,0-.632.667A.66.66,0,0,0-1399.1-96.1Z" fill="#0e1116"/>
      <path id="Path_18118" data-name="Path 18118" d="M-1240.773,121.517l1.544,2.165c-.183.3-.354.591-.54.874a.271.271,0,0,1-.192.106q-.814.013-1.628,0a.248.248,0,0,1-.178-.093c-.188-.289-.365-.585-.55-.887Z" transform="translate(-154.418 -208.223)" fill="#0e1116"/>
      <path id="Path_18119" data-name="Path 18119" d="M-1224.365,203.537v1.279h-1.279v-1.279Z" transform="translate(-170.184 -285.773)" fill="#0e1116"/>
    </g>
  </g>
</svg>
