<svg xmlns="http://www.w3.org/2000/svg" width="56" height="56" viewBox="0 0 56 56">
  <g id="Group_23850" data-name="Group 23850" transform="translate(-195 -1451.533)">
    <g id="Ellipse_942" data-name="Ellipse 942" transform="translate(195 1451.533)" fill="#b4e2f9" stroke="" stroke-width="1">
      <circle cx="28" cy="28" r="28" stroke="none"/>
      <circle cx="28" cy="28" r="27.5" fill="none"/>
    </g>
    <g id="Layer" transform="translate(203.709 1458.676)">
      <g id="Group_23855" data-name="Group 23855" transform="translate(9.291 10.858)">
        <path id="Path_18169" data-name="Path 18169" d="M1387.554,1386.035h0a1.03,1.03,0,1,0-1.457,0A1.031,1.031,0,0,0,1387.554,1386.034Zm-1.136-.321a.577.577,0,1,1,.816,0A.573.573,0,0,1,1386.418,1385.714Z" transform="translate(-1370.267 -1368.782)" fill="#0e1116"/>
        <path id="Path_18170" data-name="Path 18170" d="M28.375,24.172h0v0l.062-.062,0,0a2.529,2.529,0,0,0-3.575-3.575l0,0-.062.062h0L9.935,35.456l.006.006a.35.35,0,0,0-.158.247l-.489,3.57a.351.351,0,0,0,.348.4.355.355,0,0,0,.048,0l3.57-.489a.35.35,0,0,0,.247-.158l.006.006Zm-1.788-3.617A1.828,1.828,0,0,1,28.1,23.4l-2.537-2.537A1.815,1.815,0,0,1,26.587,20.554Zm-1.725.968,2.585,2.585L13.512,38.041l-.972-.972L23.725,25.884l-.67-.669L11.871,36.4l-.943-.943ZM10.052,38.916l.4-2.94,2.537,2.537Z" transform="translate(-9.291 -19.751)" fill="#0e1116"/>
        <path id="Path_18171" data-name="Path 18171" d="M17.917,19.811l.641-.641L13.43,14.043l2.092-2.092.992.992-.72.72.568.568.72-.72.578.578-.72.72.568.568.72-.72.578.578L17.743,16.3l.568.568L19.375,15.8l.705.705-.72.72.568.568.72-.72h0l.641-.641L15.843,10.99a.453.453,0,0,0-.641,0l-2.733,2.733a.453.453,0,0,0,0,.641Z" transform="translate(-12.302 -10.858)" fill="#0e1116"/>
        <path id="Path_18172" data-name="Path 18172" d="M981.5,976.656l-.025-.024-5.7-5.7-1.705,1.705.567.567,1.065-1.065,4.837,4.837-2.092,2.092-5.4-5.4-.641.641,5.725,5.724a.453.453,0,0,0,.641,0L981.5,977.3h0A.453.453,0,0,0,981.5,976.656Z" transform="translate(-961.538 -960.101)" fill="#0e1116"/>
      </g>
    </g>
  </g>
</svg>
