<svg xmlns="http://www.w3.org/2000/svg" width="56" height="56" viewBox="0 0 56 56">
  <g id="user_experence" transform="translate(-195 -1451.533)">
    <circle id="Ellipse_942" data-name="Ellipse 942" cx="28" cy="28" r="28" transform="translate(195 1451.533)" fill="#d4eaa9"/>
    <g id="Group_24262" data-name="Group 24262" transform="translate(157.506 469.173)">
      <path id="Path_19702" data-name="Path 19702" d="M59.412,999.359h.965c.158.021.316.043.475.062A12.787,12.787,0,0,1,65,1000.695a.49.49,0,0,0,.484,0,12.968,12.968,0,0,1,3.316-1.141c.41-.078.824-.133,1.237-.2h1.133c.186.028.372.053.558.083a4.731,4.731,0,0,1,3.754,2.726,6.831,6.831,0,0,1,.405,3.847,12.233,12.233,0,0,1-1.258,3.913.393.393,0,0,0,.005.37c.259.6.529,1.2.75,1.82a9.115,9.115,0,0,1,.48,4.663,4.552,4.552,0,0,1-2.468,3.45,6.552,6.552,0,0,1-4.091.516,13.166,13.166,0,0,1-3.871-1.257.384.384,0,0,0-.37,0c-.45.208-.9.418-1.364.591a9.8,9.8,0,0,1-4.909.688,4.842,4.842,0,0,1-2.91-1.447,5.29,5.29,0,0,1-1.371-3.664,10.44,10.44,0,0,1,.691-3.794.25.25,0,0,0-.071-.319,1.968,1.968,0,0,1-.272-2.562c.123-.175.336-.334.36-.52s-.128-.418-.193-.632a8.907,8.907,0,0,1-.386-4.445,4.62,4.62,0,0,1,3.626-3.827C58.636,999.463,59.027,999.424,59.412,999.359Zm-1.773,12.393a21.7,21.7,0,0,0,3.247,3.8,20.045,20.045,0,0,0,4.179,3.038c.073.039.188.084.245.054.422-.226.835-.47,1.251-.71a2.056,2.056,0,0,1,.076-1.915l.526.315a1.406,1.406,0,0,0,.466,1.861,1.364,1.364,0,0,0,1.871-1.9,1.317,1.317,0,0,0-.715-.555,1.406,1.406,0,0,0-1.276.208l-.374-.492a1.943,1.943,0,0,1,1.042-.408,2.006,2.006,0,0,1,1.456.452.638.638,0,0,0,.063-.045,20.9,20.9,0,0,0,4.047-5.19.284.284,0,0,0,0-.326c-.331-.534-.634-1.087-.987-1.607-.4-.583-.832-1.138-1.244-1.7-1.116.471-1.879.412-2.518-.229a1.993,1.993,0,0,1-.31-2.551.523.523,0,0,0-.046-.051,20.322,20.322,0,0,0-3.251-2.22.3.3,0,0,0-.327.017,21.1,21.1,0,0,0-6.106,5.085c-.468.561-.894,1.158-1.317,1.71l.672.791-.586.291a1.4,1.4,0,0,0-1.788-.629,1.366,1.366,0,0,0,.59,2.613,1.34,1.34,0,0,0,.861-.336,1.4,1.4,0,0,0,.472-1.148l.619-.054A2.03,2.03,0,0,1,57.639,1011.752Zm8.3-10.605c.581.375,1.129.707,1.655,1.073s1.041.774,1.565,1.166a2.013,2.013,0,0,1,2.238-.129l-.314.529a1.4,1.4,0,0,0-1.875.487,1.365,1.365,0,0,0,2.017,1.772,1.4,1.4,0,0,0,.248-1.917l.474-.369a.875.875,0,0,1,.065.07,1.34,1.34,0,0,1,.081.122,1.942,1.942,0,0,1-.032,2.087.247.247,0,0,0,.023.338q.778,1.041,1.529,2.1c.2.289.373.6.576.935.142-.342.283-.652.4-.971a9.9,9.9,0,0,0,.736-4.426,4.247,4.247,0,0,0-4.011-3.992,9.277,9.277,0,0,0-3.714.5C67.044,1000.7,66.505,1000.931,65.936,1001.147Zm-1.364.016c-.473-.189-.888-.371-1.313-.521a9.135,9.135,0,0,0-4.4-.573,4.216,4.216,0,0,0-3.688,3.869,8.822,8.822,0,0,0,.326,3.275c.095.339.209.673.294.945a10.02,10.02,0,0,1,1.069-.007.3.3,0,0,0,.334-.15,22.315,22.315,0,0,1,4.1-4.551A20.662,20.662,0,0,1,64.572,1001.162Zm-8.752,10.826c-.059.168-.115.317-.163.469a8.549,8.549,0,0,0-.439,4.108,4.074,4.074,0,0,0,2.064,3.049,5.109,5.109,0,0,0,2.418.6,10.049,10.049,0,0,0,3.766-.72c.357-.134.707-.29,1.089-.447-.078-.048-.118-.074-.159-.1a21.882,21.882,0,0,1-5.1-4.1,22.275,22.275,0,0,1-2.131-2.671c-.042-.062-.143-.14-.2-.128A2.228,2.228,0,0,1,55.82,1011.988Zm14.246,4a2.063,2.063,0,0,1,.191,1.657,2,2,0,0,1-3.207.909c-.051-.042-.159-.081-.2-.056-.3.164-.585.346-.881.526.026.022.039.041.057.049.256.11.511.226.771.327a9.666,9.666,0,0,0,4.563.774,4.186,4.186,0,0,0,3.272-1.9,4.964,4.964,0,0,0,.728-2.613,9.413,9.413,0,0,0-.57-3.35c-.175-.505-.383-1-.595-1.547A22.045,22.045,0,0,1,70.066,1015.991Z" fill="#0e1116"/>
      <path id="Path_19703" data-name="Path 19703" d="M74.738,1024.641c0-.491,0-.951,0-1.412a1.6,1.6,0,0,1,1.312-1.742c.6-.169,1.195-.341,1.794-.5a.209.209,0,0,0,.179-.229,1.046,1.046,0,0,0-.371-1,1.638,1.638,0,0,1-.574-1.244,7.957,7.957,0,0,1,.058-1.689,2.149,2.149,0,0,1,2.272-1.68,2.174,2.174,0,0,1,2.043,2.05,9.146,9.146,0,0,1-.042,1.526,1.9,1.9,0,0,1-.762,1.261.323.323,0,0,0-.147.318.973.973,0,0,1,0,.126c0,.512,0,.512.5.651l.787.221-.17.6c-.391-.108-.767-.205-1.139-.32a.275.275,0,0,0-.3.065,1.4,1.4,0,0,1-1.842,0,.276.276,0,0,0-.3-.062c-.65.19-1.3.368-1.954.555a.892.892,0,0,0-.706.84c-.032.543-.008,1.088-.008,1.649H76.5v-.834h.632v.846h.773v.623h-3.8v-.614Zm2.966-7.186c0,.36-.028.7.006,1.027a1.544,1.544,0,0,0,1.326,1.342,1.56,1.56,0,0,0,1.695-1.007.328.328,0,0,0-.036-.259c-.238-.335-.486-.665-.745-.985a.379.379,0,0,0-.256-.125c-.607-.011-1.215-.006-1.822-.005C77.818,1017.443,77.764,1017.451,77.7,1017.455Zm.1-.643c.682,0,1.345.013,2.007-.006a.567.567,0,0,1,.585.288,5.9,5.9,0,0,0,.423.56,1.61,1.61,0,0,0-1.224-1.855A1.539,1.539,0,0,0,77.8,1016.812Zm.866,3.628c-.079.484-.045.664.178.794a.764.764,0,0,0,.849-.013c.33-.211.111-.529.173-.782Z" transform="translate(-14.017 -11.272)" fill="#0e1116"/>
      <path id="Path_19704" data-name="Path 19704" d="M94.944,1040.553h.63v.624H89.72v-.613h2.822v-.862h.635v.854c.361,0,.7,0,1.029-.006.037,0,.1-.088.1-.135.007-.489.015-.979,0-1.468a.935.935,0,0,0-.718-.9c-.059-.018-.118-.038-.2-.064l.161-.581A1.581,1.581,0,0,1,94.942,1039c.008.433,0,.867,0,1.3Z" transform="translate(-25.176 -27.191)" fill="#0e1116"/>
      <path id="Path_19705" data-name="Path 19705" d="M95.081,1039.764l.882.248-.165.606-.887-.251Z" transform="translate(-28.886 -28.878)" fill="#0e1116"/>
      <path id="Path_19706" data-name="Path 19706" d="M60.447,1035.959h.608v.605h-.608Z" transform="translate(-4.255 -26.158)" fill="#0e1116"/>
      <path id="Path_19707" data-name="Path 19707" d="M100.753,1042.016l-.6-.174.171-.6.6.169Z" transform="translate(-32.63 -29.933)" fill="#0e1116"/>
      <path id="Path_19708" data-name="Path 19708" d="M102.634,1060.914h-.6v-.6h.6Z" transform="translate(-33.975 -43.563)" fill="#0e1116"/>
      <path id="Path_19709" data-name="Path 19709" d="M109.715,1018.577h-.6v-.609h.6Z" transform="translate(-39.037 -13.3)" fill="#0e1116"/>
    </g>
  </g>
</svg>
