<svg xmlns="http://www.w3.org/2000/svg" width="56" height="56" viewBox="0 0 56 56">
  <g id="Group_23559" data-name="Group 23559" transform="translate(-195 -1451.533)">
    <g id="Ellipse_942" data-name="Ellipse 942" transform="translate(195 1451.533)" fill="#e2eeff" stroke="" stroke-width="1">
      <circle cx="28" cy="28" r="28" stroke="none"/>
      <circle cx="28" cy="28" r="27.5" fill="none"/>
    </g>
    <g id="Group_23840" data-name="Group 23840" transform="translate(1386.667 854.448)">
      <path id="Path_18120" data-name="Path 18120" d="M-1162.958,663c0,.181,0,.4,0,.611a.676.676,0,0,1-.67.705.677.677,0,0,1-.667-.708c0-.215,0-.43,0-.609-4.636-.745-7.3-3.407-8.053-8.051-.171,0-.385,0-.6,0a.677.677,0,0,1-.718-.679.677.677,0,0,1,.717-.659c.214,0,.429,0,.64,0a8.747,8.747,0,0,1,6.155-7.633l.691,1.15a7.512,7.512,0,0,0-5.522,6.483c.238,0,.432,0,.625,0a.676.676,0,0,1,.708.668.676.676,0,0,1-.706.67c-.193,0-.387,0-.582,0a7.323,7.323,0,0,0,6.643,6.642c0-.195,0-.388,0-.581a.676.676,0,0,1,.67-.706.676.676,0,0,1,.668.708c0,.187,0,.375,0,.594a7.21,7.21,0,0,0,4.219-1.835,7.306,7.306,0,0,0,2.443-4.822c-.216,0-.409,0-.6,0a.676.676,0,0,1-.7-.672.677.677,0,0,1,.71-.666c.187,0,.375,0,.562,0a7.327,7.327,0,0,0-5.47-6.465l.692-1.157a8.7,8.7,0,0,1,6.166,7.622c.212,0,.427,0,.641,0a.676.676,0,0,1,.713.662.677.677,0,0,1-.721.676c-.208,0-.417,0-.6,0C-1155.646,659.576-1158.307,662.243-1162.958,663Z" transform="translate(0 -29.164)" fill="#0e1116"/>
      <path id="Path_18121" data-name="Path 18121" d="M-1036.532,701.423a2.684,2.684,0,0,1-2.668,2.682,2.684,2.684,0,0,1-2.687-2.683,2.684,2.684,0,0,1,2.678-2.671A2.684,2.684,0,0,1-1036.532,701.423Z" transform="translate(-124.418 -78.992)" fill="#0e1116"/>
      <path id="Path_18122" data-name="Path 18122" d="M-1050.507,810.466h-2.591a.68.68,0,0,1-.755-.765,3.359,3.359,0,0,1,3.05-3.239,3.357,3.357,0,0,1,3.556,2.591,4.717,4.717,0,0,1,.087.64.661.661,0,0,1-.715.773C-1048.752,810.468-1049.63,810.466-1050.507,810.466Z" transform="translate(-113.12 -180.668)" fill="#0e1116"/>
      <path id="Path_18123" data-name="Path 18123" d="M-1029.789,615.085h4l-2,3.335Z" transform="translate(-135.84 0)" fill="#0e1116"/>
    </g>
  </g>
</svg>
