<svg xmlns="http://www.w3.org/2000/svg" width="37.589" height="12.14" viewBox="0 0 37.589 12.14">
  <path id="Path_19525" data-name="Path 19525" d="M150.45,62.856,147.939,74.6H144.9l2.512-11.741Zm12.779,7.581,1.6-4.409.92,4.409Zm3.389,4.16h2.809l-2.452-11.741h-2.593a1.383,1.383,0,0,0-1.293.861L158.533,74.6h3.19l.633-1.753h3.9Zm-7.927-3.834c.013-3.1-4.286-3.27-4.256-4.654.009-.422.411-.869,1.288-.984a5.733,5.733,0,0,1,3,.526l.533-2.49a8.164,8.164,0,0,0-2.841-.521c-3,0-5.115,1.6-5.133,3.882-.019,1.69,1.508,2.633,2.659,3.2,1.183.576,1.581.944,1.576,1.459-.008.788-.944,1.135-1.817,1.149a6.351,6.351,0,0,1-3.12-.741l-.55,2.573a9.208,9.208,0,0,0,3.379.623C156.593,74.781,158.68,73.2,158.691,70.764ZM146.11,62.856,141.189,74.6h-3.211l-2.421-9.37a1.288,1.288,0,0,0-.722-1.032,12.71,12.71,0,0,0-3-1l.072-.341h5.168a1.415,1.415,0,0,1,1.4,1.2l1.279,6.795,3.161-7.992Z" transform="translate(-131.838 -62.641)" fill="#1434cb"/>
</svg>
