<svg xmlns="http://www.w3.org/2000/svg" width="56" height="56" viewBox="0 0 56 56">
  <g id="Group_23850" data-name="Group 23850" transform="translate(-195 -1451.533)">
    <g id="Path_18154" data-name="Path 18154" transform="translate(195 1451.533)" fill="#f6cfe1">
      <path d="M 28 55.5 C 24.28730010986328 55.5 20.6859302520752 54.77296829223633 17.2959098815918 53.33911895751953 C 14.02128982543945 51.95407104492188 11.08028030395508 49.97114944458008 8.554559707641602 47.44543838500977 C 6.028850078582764 44.91971969604492 4.045929908752441 41.97871017456055 2.660880088806152 38.7040901184082 C 1.227030038833618 35.31407165527344 0.5 31.71269989013672 0.5 28 C 0.5 24.28730010986328 1.227030038833618 20.6859302520752 2.660880088806152 17.2959098815918 C 4.045929908752441 14.02128982543945 6.028850078582764 11.08028030395508 8.554559707641602 8.554559707641602 C 11.08028030395508 6.028850078582764 14.02128982543945 4.045929908752441 17.2959098815918 2.660880088806152 C 20.6859302520752 1.227030038833618 24.28730010986328 0.5 28 0.5 C 31.71269989013672 0.5 35.31407165527344 1.227030038833618 38.7040901184082 2.660880088806152 C 41.97871017456055 4.045929908752441 44.91971969604492 6.028850078582764 47.44543838500977 8.554559707641602 C 49.97114944458008 11.08028030395508 51.95407104492188 14.02128982543945 53.33911895751953 17.2959098815918 C 54.77296829223633 20.6859302520752 55.5 24.28730010986328 55.5 28 C 55.5 31.71269989013672 54.77296829223633 35.31407165527344 53.33911895751953 38.7040901184082 C 51.95407104492188 41.97871017456055 49.97114944458008 44.91971969604492 47.44543838500977 47.44543838500977 C 44.91971969604492 49.97114944458008 41.97871017456055 51.95407104492188 38.7040901184082 53.33911895751953 C 35.31407165527344 54.77296829223633 31.71269989013672 55.5 28 55.5 Z" stroke="none"/>
      <path d="M 28 1 C 24.35457992553711 1 20.81874084472656 1.713741302490234 17.49068832397461 3.121379852294922 C 14.27566909790039 4.481220245361328 11.38806915283203 6.42816162109375 8.908119201660156 8.908119201660156 C 6.42816162109375 11.38806915283203 4.481220245361328 14.27566909790039 3.121379852294922 17.49068832397461 C 1.713741302490234 20.81874084472656 1 24.35457992553711 1 28 C 1 31.64542007446289 1.713741302490234 35.18125915527344 3.121379852294922 38.50930786132812 C 4.481220245361328 41.72433090209961 6.42816162109375 44.61193084716797 8.908119201660156 47.09188079833984 C 11.38806915283203 49.57183837890625 14.27566909790039 51.51877975463867 17.49068832397461 52.87862014770508 C 20.81874084472656 54.28625869750977 24.35457992553711 55 28 55 C 31.64542007446289 55 35.18125915527344 54.28625869750977 38.50930786132812 52.87862014770508 C 41.72433090209961 51.51877975463867 44.61193084716797 49.57183837890625 47.09188079833984 47.09188079833984 C 49.57183837890625 44.61193084716797 51.51877975463867 41.72433090209961 52.87862014770508 38.50930786132812 C 54.28625869750977 35.18125915527344 55 31.64542007446289 55 28 C 55 24.35457992553711 54.28625869750977 20.81874084472656 52.87862014770508 17.49068832397461 C 51.51877975463867 14.27566909790039 49.57183837890625 11.38806915283203 47.09188079833984 8.908119201660156 C 44.61193084716797 6.42816162109375 41.72433090209961 4.481220245361328 38.50930786132812 3.121379852294922 C 35.18125915527344 1.713741302490234 31.64542007446289 1 28 1 M 28 0 C 43.46397018432617 0 56 12.53602981567383 56 28 C 56 43.46397018432617 43.46397018432617 56 28 56 C 12.53602981567383 56 0 43.46397018432617 0 28 C 0 12.53602981567383 12.53602981567383 0 28 0 Z" stroke="none" fill=""/>
    </g>
    <g id="strategy-svgrepo-com" transform="translate(158.712 1466.533)">
      <g id="Group_23854" data-name="Group 23854" transform="translate(54.288)">
        <path id="Path_18159" data-name="Path 18159" d="M330.36,4.966a2.483,2.483,0,1,0-2.472-2.483A2.48,2.48,0,0,0,330.36,4.966Zm0-3.682a1.2,1.2,0,1,1-1.194,1.2A1.2,1.2,0,0,1,330.36,1.284Z" transform="translate(-313.309)" fill="#0e1116"/>
        <path id="Path_18160" data-name="Path 18160" d="M56.76,393.7a2.483,2.483,0,1,0,2.472,2.483A2.48,2.48,0,0,0,56.76,393.7Zm0,3.687a1.2,1.2,0,1,1,1.194-1.2A1.2,1.2,0,0,1,56.76,397.387Z" transform="translate(-54.288 -372.721)" fill="#0e1116"/>
        <path id="Path_18161" data-name="Path 18161" d="M148.621,123.639a.642.642,0,0,0,.453.187.651.651,0,0,0,.453-.187.64.64,0,0,0,0-.906l-1.332-1.332,1.332-1.332a.641.641,0,0,0-.906-.906l-1.332,1.332-1.332-1.332a.641.641,0,1,0-.906.906l1.332,1.332-1.332,1.332a.639.639,0,0,0,.453,1.092.651.651,0,0,0,.453-.187l1.332-1.332Z" transform="translate(-140.037 -112.635)" fill="#0e1116"/>
        <path id="Path_18162" data-name="Path 18162" d="M333.427,311.663a.64.64,0,0,0-.906,0l-1.332,1.332-1.332-1.332a.641.641,0,1,0-.906.906l1.332,1.332-1.332,1.332a.639.639,0,0,0,.453,1.092.651.651,0,0,0,.453-.187l1.332-1.332,1.332,1.332a.642.642,0,0,0,.453.187.651.651,0,0,0,.453-.187.64.64,0,0,0,0-.906l-1.332-1.332,1.332-1.332A.64.64,0,0,0,333.427,311.663Z" transform="translate(-314.137 -294.878)" fill="#0e1116"/>
        <path id="Path_18163" data-name="Path 18163" d="M191.227,373.563a.64.64,0,0,0-.906,0l-1.332,1.332-1.332-1.332a.641.641,0,1,0-.906.906l1.332,1.332-1.332,1.332a.639.639,0,0,0,.453,1.092.651.651,0,0,0,.453-.186l1.332-1.332,1.332,1.332a.641.641,0,0,0,.453.186.651.651,0,0,0,.453-.186.64.64,0,0,0,0-.906l-1.332-1.332,1.332-1.332A.65.65,0,0,0,191.227,373.563Z" transform="translate(-179.515 -353.479)" fill="#0e1116"/>
        <path id="Path_18164" data-name="Path 18164" d="M185.027,263.979a.639.639,0,1,0-.639-.639A.641.641,0,0,0,185.027,263.979Z" transform="translate(-177.455 -248.702)" fill="#0e1116"/>
        <path id="Path_18165" data-name="Path 18165" d="M102.35,301.313a.648.648,0,0,0,.352.107.64.64,0,1,0-.352-.107Z" transform="translate(-99.515 -284.149)" fill="#0e1116"/>
        <path id="Path_18166" data-name="Path 18166" d="M138.223,269.81a.637.637,0,0,0,.261,1.22.654.654,0,0,0,.261-.053.636.636,0,0,0,.325-.842A.644.644,0,0,0,138.223,269.81Z" transform="translate(-133.39 -255.38)" fill="#0e1116"/>
        <circle id="Ellipse_946" data-name="Ellipse 946" cx="0.639" cy="0.639" r="0.639" transform="translate(9.464 13.998)" fill="#0e1116"/>
        <path id="Path_18167" data-name="Path 18167" d="M89.327,346.279a.637.637,0,1,0-.453-.187A.646.646,0,0,0,89.327,346.279Z" transform="translate(-86.855 -326.616)" fill="#0e1116"/>
        <path id="Path_18168" data-name="Path 18168" d="M287.27,122.935l-2.472-2.472a.64.64,0,0,0-.906,0l-2.472,2.472a.641.641,0,1,0,.906.906l1.38-1.38v1.652a3.765,3.765,0,0,1-3.778,3.746.639.639,0,0,0,0,1.279,5.048,5.048,0,0,0,5.057-5.025v-1.657l1.38,1.38a.641.641,0,0,0,.453.187.651.651,0,0,0,.453-.187A.634.634,0,0,0,287.27,122.935Z" transform="translate(-267.299 -113.866)" fill="#0e1116"/>
      </g>
    </g>
  </g>
</svg>
