<svg xmlns="http://www.w3.org/2000/svg" width="41" height="41" viewBox="0 0 41 41">
  <g id="email" transform="translate(-37.857 -395.244)">
    <rect id="Rectangle_34" data-name="Rectangle 34" width="41" height="41" transform="translate(37.857 395.244)" fill="none"/>
    <g id="whatsapp-logo-duotone-svgrepo-com" transform="translate(39.857 395.702)">
      <g id="Group_23129" data-name="Group 23129" transform="translate(1.437 1.437)" opacity="0.2">
        <path id="Path_8193" data-name="Path 8193" d="M49.241,32A17.244,17.244,0,0,0,34.413,58.039h0l-1.7,5.954a1.437,1.437,0,0,0,1.776,1.776l5.954-1.7h0A17.241,17.241,0,1,0,49.241,32Zm4.33,27.3A14.366,14.366,0,0,1,39.185,44.909,5.024,5.024,0,0,1,44.213,39.9h0a1.238,1.238,0,0,1,1.075.624l2.1,3.674a1.437,1.437,0,0,1-.015,1.452l-1.686,2.81h0A8.653,8.653,0,0,0,50.02,52.8h0l2.81-1.686a1.437,1.437,0,0,1,1.452-.015l3.674,2.1a1.238,1.238,0,0,1,.624,1.075A5.043,5.043,0,0,1,53.572,59.3Z" transform="translate(-32.002 -32)" fill="#e51635"/>
      </g>
      <path id="Path_8194" data-name="Path 8194" d="M42.676,24A18.681,18.681,0,0,0,26.3,51.663l-1.535,5.372a2.873,2.873,0,0,0,3.552,3.552l5.372-1.535A18.678,18.678,0,1,0,42.676,24Zm0,34.479a15.779,15.779,0,0,1-8.065-2.21,1.437,1.437,0,0,0-1.129-.147l-5.954,1.7,1.7-5.954a1.436,1.436,0,0,0-.147-1.129,15.805,15.805,0,1,1,13.593,7.738Zm9.427-13.1-3.674-2.1a2.877,2.877,0,0,0-2.9.031L43.4,44.591a7.19,7.19,0,0,1-2.636-2.636l1.277-2.128a2.876,2.876,0,0,0,.031-2.9l-2.1-3.674A2.68,2.68,0,0,0,37.648,31.9a6.467,6.467,0,0,0-6.465,6.443,15.8,15.8,0,0,0,15.8,15.825c.008,0,.017,0,.023,0A6.467,6.467,0,0,0,53.451,47.7,2.68,2.68,0,0,0,52.1,45.382ZM47,51.3h-.019a12.93,12.93,0,0,1-12.93-12.948,3.59,3.59,0,0,1,3.477-3.571l2.041,3.572-1.686,2.81a1.437,1.437,0,0,0-.078,1.328,10.062,10.062,0,0,0,5.055,5.055,1.436,1.436,0,0,0,1.328-.078L47,45.778l3.572,2.041A3.59,3.59,0,0,1,47,51.3Z" transform="translate(-24 -24)" fill="#fff"/>
    </g>
  </g>
</svg>
