<svg xmlns="http://www.w3.org/2000/svg" width="56" height="56" viewBox="0 0 56 56">
  <g id="Group_23559" data-name="Group 23559" transform="translate(-195 -1451.533)">
    <g id="Ellipse_942" data-name="Ellipse 942" transform="translate(195 1451.533)" fill="#fbcbb4" stroke="" stroke-width="1">
      <circle cx="28" cy="28" r="28" stroke="none"/>
      <circle cx="28" cy="28" r="27.5" fill="none"/>
    </g>
    <g id="Group_23830" data-name="Group 23830" transform="translate(-2780.917 -51.629)">
      <path id="Path_18073" data-name="Path 18073" d="M3014.089,1633.306v12.754a.465.465,0,0,0-.03.073,1.782,1.782,0,0,1-1.864,1.477h-16.566a1.79,1.79,0,0,1-1.882-1.884q0-6.1,0-12.2v-.223Zm-7.789,2.437a.623.623,0,0,0-.48-.638.611.611,0,0,0-.687.411q-1.762,4.108-3.521,8.218a.6.6,0,1,0,1.091.474q1.762-4.108,3.521-8.218A1.942,1.942,0,0,0,3006.3,1635.743Zm-7.979,4.12c.077-.063.135-.114.2-.162.723-.578,1.448-1.154,2.168-1.736a.6.6,0,0,0,.118-.861.587.587,0,0,0-.85-.076q-1.485,1.178-2.959,2.368a.58.58,0,0,0,0,.93c.988.8,1.977,1.595,2.979,2.374a.762.762,0,0,0,.5.115.515.515,0,0,0,.452-.441.581.581,0,0,0-.231-.614q-.9-.721-1.8-1.438C2998.707,1640.175,2998.524,1640.026,2998.322,1639.863Zm11.193,0c-.081.067-.135.114-.192.159q-1.077.862-2.153,1.724a.6.6,0,1,0,.739.933q1.451-1.156,2.9-2.318a.6.6,0,0,0,0-1q-1.447-1.163-2.9-2.318a.6.6,0,1,0-.747.927c.256.209.516.414.774.621Z" transform="translate(0 -106.316)" fill="#0e1116"/>
      <path id="Path_18074" data-name="Path 18074" d="M3014.191,1522.58v3.218h-20.337c0-1.065,0-2.1,0-3.143a1.187,1.187,0,0,1,.054-.292,1.767,1.767,0,0,1,1.7-1.33q8.412-.006,16.824,0h.02a1.744,1.744,0,0,1,1.54.99A4.12,4.12,0,0,1,3014.191,1522.58Zm-4.788.834c-.582,0-1.164,0-1.745,0a.6.6,0,1,0-.011,1.191q1.735,0,3.471,0a.6.6,0,1,0-.009-1.191C3010.541,1523.414,3009.972,1523.415,3009.4,1523.415Zm-12.545,0a.6.6,0,1,0,.6.581A.6.6,0,0,0,2996.858,1523.415Zm2.989.587a.6.6,0,1,0-.583.6A.6.6,0,0,0,2999.847,1524Zm2.384.008a.6.6,0,1,0-.591.6A.6.6,0,0,0,3002.231,1524.011Z" transform="translate(-0.102)" fill="#0e1116"/>
    </g>
  </g>
</svg>
