<svg xmlns="http://www.w3.org/2000/svg" width="56" height="56" viewBox="0 0 56 56">
  <g id="Group_23559" data-name="Group 23559" transform="translate(-195 -1451.533)">
    <g id="Ellipse_942" data-name="Ellipse 942" transform="translate(195 1451.533)" fill="#e99cef" stroke="" stroke-width="1">
      <circle cx="28" cy="28" r="28" stroke="none"/>
      <circle cx="28" cy="28" r="27.5" fill="none"/>
    </g>
    <g id="Group_23835" data-name="Group 23835" transform="translate(694.678 875.767)">
      <path id="Path_18105" data-name="Path 18105" d="M-482.118,923.857c.054,0,.108-.01.162-.01q3.078,0,6.155,0a.222.222,0,0,1,.254.166c.107.3.241.59.354.888a.62.62,0,0,0,.636.441q2.874,0,5.748,0a.619.619,0,0,0,.626-.426c.123-.309.242-.619.377-.923a.257.257,0,0,1,.179-.137q3.149-.01,6.3,0a.672.672,0,0,1,.086.015v.234c0,.645-.009,1.291,0,1.936a.559.559,0,0,1-.29.555h-20.59Z" transform="translate(0 -314.749)" fill="#0e1116"/>
      <path id="Path_18106" data-name="Path 18106" d="M-435.212,729.345h-5.16a.651.651,0,0,0-.757.506c-.115.283-.233.564-.341.849a.185.185,0,0,1-.2.145q-2.375-.007-4.749,0a.2.2,0,0,1-.22-.155c-.107-.286-.225-.567-.34-.85a.648.648,0,0,0-.743-.5h-5.168v-.226q0-4.6,0-9.193c0-.385.13-.52.51-.52h16.673c.365,0,.508.135.508.481q0,4.637,0,9.274C-435.2,729.214-435.208,729.267-435.212,729.345Zm-6.736-6.8c0,.344.005.66,0,.976a.22.22,0,0,0,.148.231c.621.3,1.238.615,1.856.924.049.025.1.056.165.1-.694.346-1.356.674-2.015,1.007-.059.03-.142.092-.143.142-.013.343-.007.687-.007,1.063.1-.05.177-.082.248-.118.959-.492,1.908-1.005,2.881-1.465.384-.182.57-.391.5-.821a.309.309,0,0,0-.176-.278c-1.082-.548-2.16-1.1-3.24-1.658C-441.793,722.618-441.854,722.592-441.948,722.549Zm-4.2,0c-.095.044-.162.072-.227.105-.97.5-1.93,1.021-2.916,1.488-.381.181-.554.39-.486.81a.294.294,0,0,0,.167.264c1.093.557,2.183,1.121,3.274,1.682.052.027.107.048.188.083,0-.367.006-.705-.006-1.043,0-.053-.075-.122-.132-.152-.409-.212-.823-.415-1.235-.622-.251-.126-.5-.254-.779-.4.094-.051.157-.088.222-.121.594-.3,1.188-.594,1.78-.9.059-.03.14-.094.142-.144C-446.144,723.267-446.15,722.922-446.15,722.551Zm3.781-.806c-.309,0-.593.01-.876,0a.265.265,0,0,0-.307.205c-.53,1.4-1.07,2.8-1.607,4.195l-.353.918c.313,0,.6-.01.879,0a.255.255,0,0,0,.3-.2c.5-1.3,1-2.605,1.5-3.908C-442.681,722.561-442.53,722.164-442.369,721.745Z" transform="translate(-27.632 -121.446)" fill="#0e1116"/>
      <path id="Path_18107" data-name="Path 18107" d="M-380.979,595.914v.831h-2.85a2.7,2.7,0,0,0-1.043-2.465,2.574,2.574,0,0,0-1.745-.563,2.63,2.63,0,0,0-1.958.946,2.682,2.682,0,0,0-.636,2.082.727.727,0,0,1-.1.015h-2.747V595.9c.285-.069.573-.143.864-.207a.694.694,0,0,0,.541-.494,7.619,7.619,0,0,1,.34-.8.664.664,0,0,0-.027-.694c-.159-.252-.313-.507-.456-.739l.735-.763c.259.154.524.3.781.467a.677.677,0,0,0,.712.026,6.31,6.31,0,0,1,.809-.329.683.683,0,0,0,.5-.537c.065-.284.139-.566.211-.859.327,0,.646-.006.964.006.047,0,.115.078.131.133.074.254.137.511.2.768a.642.642,0,0,0,.447.482c.292.106.581.225.863.356a.651.651,0,0,0,.658-.02c.232-.141.463-.284.7-.414a.208.208,0,0,1,.188,0c.225.215.437.443.664.679-.15.244-.3.5-.462.751a.671.671,0,0,0-.028.711,8.094,8.094,0,0,1,.346.823.651.651,0,0,0,.5.456C-381.584,595.763-381.289,595.838-380.979,595.914Z" transform="translate(-85.157 0)" fill="#0e1116"/>
      <path id="Path_18108" data-name="Path 18108" d="M-316.732,665.032c-.434,0-.868-.006-1.3,0-.144,0-.19-.054-.2-.185a1.475,1.475,0,0,1,.706-1.437,1.423,1.423,0,0,1,1.6,0,1.476,1.476,0,0,1,.712,1.434c-.008.143-.061.2-.212.192C-315.864,665.026-316.3,665.032-316.732,665.032Z" transform="translate(-154.955 -68.271)" fill="#0e1116"/>
    </g>
  </g>
</svg>
