<svg xmlns="http://www.w3.org/2000/svg" width="56" height="56" viewBox="0 0 56 56">
  <g id="Group_23559" data-name="Group 23559" transform="translate(-195 -1451.533)">
    <g id="Ellipse_942" data-name="Ellipse 942" transform="translate(195 1451.533)" fill="#cba1af" stroke="" stroke-width="1">
      <circle cx="28" cy="28" r="28" stroke="none"/>
      <circle cx="28" cy="28" r="27.5" fill="none"/>
    </g>
    <g id="Group_23834" data-name="Group 23834" transform="translate(760.468 1408.94)">
      <path id="Path_18086" data-name="Path 18086" d="M-529.906,125.552a.486.486,0,0,1-.463.219q-4.338-.007-8.675,0a2.7,2.7,0,0,1-2.744-2.125q-1.221-4.7-2.435-9.4a2.058,2.058,0,0,0-2.159-1.683q-2.264,0-4.527,0c-.056,0-.112,0-.168,0-.239-.009-.384-.129-.391-.323a.344.344,0,0,1,.388-.348c1.642,0,3.285-.024,4.927.015a2.647,2.647,0,0,1,2.558,2.085c.123.466.123.466.61.466h.348a5.553,5.553,0,0,0,2.325,3.859,5.454,5.454,0,0,0,3.489,1.011,5.609,5.609,0,0,0,5.259-4.882,3.915,3.915,0,0,1,.55.183,1.537,1.537,0,0,1,.8,1.792q-.716,2.8-1.451,5.6a1.512,1.512,0,0,1-1.557,1.188q-3.853,0-7.707,0h-.25a2.06,2.06,0,0,0,1.9,1.89c.119.006.239.005.358.005q4.254,0,8.507,0a.585.585,0,0,1,.515.209Z" transform="translate(0 -48.556)" fill="#0e1116"/>
      <path id="Path_18087" data-name="Path 18087" d="M-332.309,375.69a1.3,1.3,0,0,1,1.3,1.3,1.3,1.3,0,0,1-1.3,1.3,1.3,1.3,0,0,1-1.307-1.309A1.3,1.3,0,0,1-332.309,375.69Z" transform="translate(-205.595 -297.525)" fill="#0e1116"/>
      <path id="Path_18088" data-name="Path 18088" d="M-250.677,375.691a1.3,1.3,0,0,1,1.309,1.283,1.3,1.3,0,0,1-1.3,1.312,1.305,1.305,0,0,1-1.3-1.3A1.3,1.3,0,0,1-250.677,375.691Z" transform="translate(-282.645 -297.525)" fill="#0e1116"/>
      <path id="Path_18089" data-name="Path 18089" d="M-254.64,152.939l.125-1.334h2.412a4.731,4.731,0,0,1-.619,2.062Z" transform="translate(-280.128 -86.048)" fill="#0e1116"/>
      <path id="Path_18090" data-name="Path 18090" d="M-382.248,153.69a4.773,4.773,0,0,1-.622-2.059h2.413l.126,1.334Z" transform="translate(-159.112 -86.072)" fill="#0e1116"/>
      <path id="Path_18091" data-name="Path 18091" d="M-252.117,104.722h-2.415l-.125-1.328,1.918-.726A4.768,4.768,0,0,1-252.117,104.722Z" transform="translate(-280.112 -39.864)" fill="#0e1116"/>
      <path id="Path_18092" data-name="Path 18092" d="M-382.6,104.748a4.361,4.361,0,0,1,.617-2.049l1.907.725-.124,1.325Z" transform="translate(-159.366 -39.894)" fill="#0e1116"/>
      <path id="Path_18093" data-name="Path 18093" d="M-276.2,189.837c.218-.372.465-.731.646-1.12s.3-.812.463-1.277l1.648.612A4.909,4.909,0,0,1-276.2,189.837Z" transform="translate(-259.776 -119.867)" fill="#0e1116"/>
      <path id="Path_18094" data-name="Path 18094" d="M-362.883,62.818a5.3,5.3,0,0,1-1.652-.63,4.957,4.957,0,0,1,2.815-1.761A5.2,5.2,0,0,0-362.883,62.818Z" transform="translate(-176.416)" fill="#0e1116"/>
      <path id="Path_18095" data-name="Path 18095" d="M-273.526,62.592l-1.649.616c-.163-.459-.28-.886-.465-1.28s-.435-.755-.651-1.122A4.941,4.941,0,0,1-273.526,62.592Z" transform="translate(-259.696 -0.358)" fill="#0e1116"/>
      <path id="Path_18096" data-name="Path 18096" d="M-364.212,188.634a5.285,5.285,0,0,1,1.631-.615,5.2,5.2,0,0,0,1.12,2.334A4.5,4.5,0,0,1-364.212,188.634Z" transform="translate(-176.721 -120.413)" fill="#0e1116"/>
      <path id="Path_18097" data-name="Path 18097" d="M-288.742,68.316l-1.183.1V66.11a3.746,3.746,0,0,1,.342.311,3.877,3.877,0,0,1,.689,1.356C-288.841,67.942-288.8,68.11-288.742,68.316Z" transform="translate(-246.828 -5.363)" fill="#0e1116"/>
      <path id="Path_18098" data-name="Path 18098" d="M-289.975,183.811l1.186.1a3.957,3.957,0,0,1-1.186,2.219Z" transform="translate(-246.781 -116.442)" fill="#0e1116"/>
      <path id="Path_18099" data-name="Path 18099" d="M-322.271,68.357l-1.175-.1a3.927,3.927,0,0,1,1.175-2.21Z" transform="translate(-215.193 -5.3)" fill="#0e1116"/>
      <path id="Path_18100" data-name="Path 18100" d="M-322.4,186.09a4.02,4.02,0,0,1-1.192-2.215l1.192-.1Z" transform="translate(-215.06 -116.404)" fill="#0e1116"/>
      <path id="Path_18101" data-name="Path 18101" d="M-290.118,152.834v-1.126h1.439l-.108,1.238Z" transform="translate(-246.646 -86.145)" fill="#0e1116"/>
      <path id="Path_18102" data-name="Path 18102" d="M-326.5,151.683v1.126l-1.323.114-.119-1.24Z" transform="translate(-210.952 -86.121)" fill="#0e1116"/>
      <path id="Path_18103" data-name="Path 18103" d="M-288.641,117.119l.115,1.237h-1.434v-1.118Z" transform="translate(-246.795 -53.502)" fill="#0e1116"/>
      <path id="Path_18104" data-name="Path 18104" d="M-326.449,118.359h-1.433l.113-1.245,1.32.118Z" transform="translate(-211.007 -53.498)" fill="#0e1116"/>
    </g>
  </g>
</svg>
