<svg xmlns="http://www.w3.org/2000/svg" width="56" height="56" viewBox="0 0 56 56">
  <g id="Group_23559" data-name="Group 23559" transform="translate(-195 -1451.533)">
    <g id="Ellipse_942" data-name="Ellipse 942" transform="translate(195 1451.533)" fill="#9ed2c6" stroke="" stroke-width="1">
      <circle cx="28" cy="28" r="28" stroke="none"/>
      <circle cx="28" cy="28" r="27.5" fill="none"/>
    </g>
    <g id="Group_23833" data-name="Group 23833" transform="translate(677.006 1438.704)">
      <path id="Path_18084" data-name="Path 18084" d="M-444.013,149.985v9.448c-.022.081-.046.162-.066.244a2.446,2.446,0,0,1-2.468,1.892q-6.506,0-13.012,0c-1.317,0-2.634.012-3.951,0a2.387,2.387,0,0,1-2.29-1.483,5.039,5.039,0,0,1-.2-.65v-9.448c.078,0,.157.007.235.008h21.516C-444.17,149.992-444.091,149.988-444.013,149.985Zm-7.332,5.229c.066-.07.114-.122.164-.172l1.183-1.184c.323-.323.364-.663.112-.919s-.6-.22-.919.1q-.517.515-1.031,1.032c-.1.1-.2.216-.314.337-.5-.5-.965-.974-1.437-1.441a.577.577,0,0,0-.842-.028.578.578,0,0,0,.03.842c.36.368.727.73,1.092,1.093.109.109.223.213.345.329-.482.48-.942.931-1.392,1.39a.908.908,0,0,0-.217.335.552.552,0,0,0,.264.643.572.572,0,0,0,.692-.1c.435-.425.862-.858,1.292-1.287.053-.053.108-.1.179-.171.12.129.22.241.325.347.373.375.743.754,1.126,1.12a.569.569,0,0,0,.81-.012.573.573,0,0,0,0-.8c-.061-.07-.129-.133-.2-.2Zm-8.948-.733h0c0,.351-.006.7,0,1.052a2.186,2.186,0,0,0,2.094,2.121,2.126,2.126,0,0,0,2.235-1.833,23.807,23.807,0,0,0,.041-2.528.543.543,0,0,0-.554-.52.571.571,0,0,0-.586.513,1.778,1.778,0,0,0-.006.214c0,.651,0,1.3,0,1.953a1.03,1.03,0,0,1-.656.969,1.027,1.027,0,0,1-1.41-.92c-.017-.708,0-1.416-.009-2.125a.569.569,0,0,0-.582-.608.567.567,0,0,0-.568.618C-460.295,153.751-460.292,154.116-460.292,154.481Z" transform="translate(0 -111.563)" fill="#0e1116"/>
      <path id="Path_18085" data-name="Path 18085" d="M-444.013,33.784v3.479c-.085,0-.171.014-.256.014h-21.476c-.085,0-.171-.009-.256-.014V33.784a.213.213,0,0,0,.03-.055,2.441,2.441,0,0,1,2.565-2.082h12.421c1.495,0,2.989,0,4.484,0a2.437,2.437,0,0,1,2.37,1.707C-444.085,33.5-444.052,33.641-444.013,33.784Zm-6.324.684c-.922,0-1.844,0-2.766,0a.567.567,0,0,0-.618.61.593.593,0,0,0,.67.543q1.716,0,3.431,0c.672,0,1.344,0,2.016,0a.6.6,0,0,0,.617-.374.573.573,0,0,0-.562-.778C-448.477,34.465-449.407,34.468-450.336,34.468Zm-12.157,0a.58.58,0,0,0-.578.567.585.585,0,0,0,.587.582.58.58,0,0,0,.564-.581A.57.57,0,0,0-462.493,34.469Zm2.5,0a.58.58,0,0,0-.587.58.586.586,0,0,0,.579.57.577.577,0,0,0,.571-.573A.567.567,0,0,0-459.99,34.469Zm2.487,0a.575.575,0,0,0-.576.566.581.581,0,0,0,.584.583.574.574,0,0,0,.562-.581A.564.564,0,0,0-457.5,34.47Z" transform="translate(0 0)" fill="#0e1116"/>
    </g>
  </g>
</svg>
