<svg xmlns="http://www.w3.org/2000/svg" width="56" height="56" viewBox="0 0 56 56">
  <g id="Group_23559" data-name="Group 23559" transform="translate(-195 -1451.533)">
    <g id="Ellipse_942" data-name="Ellipse 942" transform="translate(195 1451.533)" fill="#f175a9" stroke="" stroke-width="1">
      <circle cx="28" cy="28" r="28" stroke="none"/>
      <circle cx="28" cy="28" r="27.5" fill="none"/>
    </g>
    <g id="Group_23831" data-name="Group 23831" transform="translate(-3266.2 -12.338)">
      <path id="Path_18075" data-name="Path 18075" d="M3499.886,1485.063a.768.768,0,0,1-.815.449c-.72-.019-1.441,0-2.161-.006a.621.621,0,0,1-.7-.692c0-.166,0-.333,0-.508h-2.454c.2.146.38.268.551.4a7.7,7.7,0,0,1,2.987,5.123,1.038,1.038,0,0,0,.558.915,1.687,1.687,0,0,1,.734,1.861,1.821,1.821,0,0,1-1.472,1.375,1.8,1.8,0,0,1-1.076-3.408c.087-.044.131-.083.12-.2a6.675,6.675,0,0,0-1.43-3.556,6.546,6.546,0,0,0-3.444-2.269c-.107-.03-.153,0-.209.09a1.788,1.788,0,0,1-3.061,0,.17.17,0,0,0-.228-.084,6.656,6.656,0,0,0-4.821,5.5c-.037.275-.04.462.271.635a1.711,1.711,0,0,1,.814,1.867,1.815,1.815,0,0,1-1.393,1.409,1.8,1.8,0,0,1-1.167-3.385.374.374,0,0,0,.252-.352,7.759,7.759,0,0,1,2.449-5.029c.339-.322.725-.6,1.089-.893h-2.4c0,.169,0,.347,0,.526a.614.614,0,0,1-.68.672c-.728,0-1.455-.013-2.182.006a.768.768,0,0,1-.815-.449v-2.742a.768.768,0,0,1,.814-.449c.719.019,1.44,0,2.16.006a.623.623,0,0,1,.7.709c0,.165,0,.329,0,.491.052.005.072.009.092.009,1.574,0,3.149,0,4.723.005.146,0,.177-.079.223-.177a1.8,1.8,0,0,1,2.315-.9,1.843,1.843,0,0,1,1.017,1.057h4.962c0-.17,0-.33,0-.489a.623.623,0,0,1,.7-.709c.72,0,1.44.013,2.16-.006a.768.768,0,0,1,.814.449Z" fill="#0e1116"/>
      <path id="Path_18076" data-name="Path 18076" d="M3602.457,1844.423l-.141-.073a.571.571,0,0,1-.283-.733,2.446,2.446,0,0,1,2.284-1.65q1.816-.022,3.632,0a2.446,2.446,0,0,1,2.284,1.65c.126.346,0,.588-.424.806Z" transform="translate(-116.59 -341.901)" fill="#0e1116"/>
      <path id="Path_18077" data-name="Path 18077" d="M3580.887,1587.269v.225c0,1.767,0,3.534,0,5.3a.262.262,0,0,1-.183.282,1.785,1.785,0,0,0-1.029,1.688,1.81,1.81,0,1,0,2.555-1.714c-.042-.02-.084-.041-.129-.063v-5.7c.054.071.091.114.122.16q2.274,3.4,4.546,6.8a.627.627,0,0,1-.054.923,7.658,7.658,0,0,0-2.01,3.858c-.009.045-.025.089-.044.154a2.528,2.528,0,0,0-.345-.1,8,8,0,0,0-1.095-.146c-1.131-.019-2.262,0-3.393-.008a3.966,3.966,0,0,0-1.386.223.728.728,0,0,1-.1.024c-.15-.486-.278-.973-.45-1.443a7.1,7.1,0,0,0-1.457-2.371c-.059-.064-.12-.127-.178-.192a.628.628,0,0,1-.062-.891q.977-1.468,1.958-2.934l2.575-3.854C3580.77,1587.429,3580.813,1587.373,3580.887,1587.269Z" transform="translate(-91.95 -100.075)" fill="#0e1116"/>
      <path id="Path_18078" data-name="Path 18078" d="M3673.239,1722.962a.6.6,0,1,1-.6-.605A.61.61,0,0,1,3673.239,1722.962Z" transform="translate(-183.092 -228.341)" fill="#0e1116"/>
    </g>
  </g>
</svg>
