<svg xmlns="http://www.w3.org/2000/svg" width="56" height="56" viewBox="0 0 56 56">
  <g id="Group_23559" data-name="Group 23559" transform="translate(-195 -1452)">
    <g id="Ellipse_942" data-name="Ellipse 942" transform="translate(195 1452)" fill="#f8ecde" stroke="" stroke-width="1">
      <circle cx="28" cy="28" r="28" stroke="none"/>
      <circle cx="28" cy="28" r="27.5" fill="none"/>
    </g>
    <g id="Group_23832" data-name="Group 23832" transform="translate(-3734.731 -210.203)">
      <path id="Path_18079" data-name="Path 18079" d="M3961.862,1691.893c.278-.071.54-.133.8-.206a1.075,1.075,0,0,0,.831-1.091c0-.278,0-.556,0-.834a1.073,1.073,0,0,0-.82-1.054c-.265-.073-.533-.138-.837-.217.138-.231.263-.44.387-.65a1.1,1.1,0,0,0-.178-1.489c-.185-.187-.367-.377-.559-.556a1.064,1.064,0,0,0-1.307-.155c-.241.136-.475.282-.744.443-.061-.237-.118-.451-.172-.666a1.115,1.115,0,0,0-1.256-1c-.232,0-.465,0-.7,0a1.073,1.073,0,0,0-1.065.833c-.07.26-.134.522-.212.828-.2-.119-.377-.236-.565-.335a2.187,2.187,0,0,0-.529-.236,1.015,1.015,0,0,0-.97.291c-.208.206-.418.41-.62.622a1.072,1.072,0,0,0-.157,1.328c.136.239.28.473.437.738-.288.074-.547.139-.8.208a1.074,1.074,0,0,0-.853,1.1c0,.278,0,.556,0,.834a1.073,1.073,0,0,0,.819,1.054c.266.072.533.137.8.206-.12.414-.192.475-.579.47a9.1,9.1,0,0,1-2.1-.13,4.333,4.333,0,0,1,.209-8.445,4.464,4.464,0,0,1,1.728,0,5.068,5.068,0,0,1,9.75-.016c.274-.024.548-.065.823-.069a4.32,4.32,0,0,1,1.058,8.526,11.284,11.284,0,0,1-1.99.127C3962.044,1692.375,3962.036,1692.356,3961.862,1691.893Z" transform="translate(0 0)" fill="#0e1116"/>
      <path id="Path_18080" data-name="Path 18080" d="M4040.516,1765.943a3.025,3.025,0,0,1-.127.278c-.19.324-.385.644-.577.967a.515.515,0,0,0,.275.678c.37.094.741.184,1.111.278.273.069.355.176.357.462,0,.24,0,.481,0,.721a.382.382,0,0,1-.335.435c-.369.1-.74.186-1.111.278a.5.5,0,0,0-.284.7c.192.322.387.643.577.966a.391.391,0,0,1-.068.564c-.162.167-.327.331-.492.495a.4.4,0,0,1-.6.075c-.328-.2-.655-.395-.984-.589a.526.526,0,0,0-.66.279c-.1.378-.185.758-.281,1.136a.381.381,0,0,1-.431.34q-.371,0-.742,0a.385.385,0,0,1-.442-.354c-.094-.371-.183-.743-.277-1.114a.508.508,0,0,0-.674-.281c-.322.192-.642.387-.964.579-.267.159-.39.141-.614-.082-.16-.159-.32-.317-.477-.478a.4.4,0,0,1-.066-.581c.2-.329.394-.656.589-.985a.527.527,0,0,0-.271-.666c-.37-.094-.741-.183-1.111-.276-.288-.073-.366-.174-.367-.476,0-.24,0-.481,0-.721a.386.386,0,0,1,.326-.421l1.111-.276a.5.5,0,0,0,.289-.714c-.188-.316-.378-.63-.565-.947a.4.4,0,0,1,.068-.581q.253-.257.51-.509a.38.38,0,0,1,.543-.072c.336.2.668.4,1,.6a.511.511,0,0,0,.673-.283c.093-.371.183-.743.276-1.114a.385.385,0,0,1,.443-.352c.248,0,.495,0,.742,0a.381.381,0,0,1,.429.341c.1.378.186.757.281,1.136a.527.527,0,0,0,.661.278c.323-.191.643-.385.964-.578.276-.166.4-.151.632.081.17.169.346.334.506.512A1.373,1.373,0,0,1,4040.516,1765.943Zm-4.007.847a2.165,2.165,0,1,0,2.165,2.159A2.166,2.166,0,0,0,4036.509,1766.79Z" transform="translate(-78.784 -78.758)" fill="#0e1116"/>
      <path id="Path_18081" data-name="Path 18081" d="M3954.932,1926.664l1.276.639c-.024.057-.04.1-.059.136-.446.892-.895,1.783-1.335,2.677a.78.78,0,0,1-.769.477c-.66-.006-1.319,0-1.979-.006a.29.29,0,0,0-.317.2,2.13,2.13,0,0,1-2.421,1.194,2.167,2.167,0,0,1-.014-4.219,2.129,2.129,0,0,1,2.428,1.178.3.3,0,0,0,.331.213c.472-.014.945-.012,1.417,0a.269.269,0,0,0,.288-.183c.338-.695.686-1.384,1.031-2.075C3954.845,1926.823,3954.885,1926.752,3954.932,1926.664Z" transform="translate(0 -231.735)" fill="#0e1116"/>
      <path id="Path_18082" data-name="Path 18082" d="M4144.95,1930.566c-.724,0-1.444-.008-2.163,0a.817.817,0,0,1-.82-.506c-.45-.923-.914-1.839-1.384-2.78l1.286-.646.233.465c.308.617.62,1.233.921,1.853a.257.257,0,0,0,.271.172c.48-.01.96-.013,1.439,0a.288.288,0,0,0,.314-.2,2.136,2.136,0,0,1,2.157-1.236,2.165,2.165,0,0,1,.51,4.19,2.143,2.143,0,0,1-2.659-1.084C4145.021,1930.721,4144.988,1930.647,4144.95,1930.566Z" transform="translate(-181.335 -231.709)" fill="#0e1116"/>
      <path id="Path_18083" data-name="Path 18083" d="M4092.813,1826.832a1.443,1.443,0,1,1,1.45-1.428A1.425,1.425,0,0,1,4092.813,1826.832Z" transform="translate(-135.092 -135.192)" fill="#0e1116"/>
    </g>
  </g>
</svg>
