<svg xmlns="http://www.w3.org/2000/svg" width="70" height="70" viewBox="0 0 70 70">
  <g id="Group_23574" data-name="Group 23574" transform="translate(-195 -1451.533)">
    <circle id="Ellipse_942" data-name="Ellipse 942" cx="35" cy="35" r="35" transform="translate(195 1451.533)" fill="#f6ca94"/>
    <g id="Group_23845" data-name="Group 23845" transform="translate(1438.837 -210.935)">
      <path id="Path_18149" data-name="Path 18149" d="M-1176.192,1737.771c0-.613,0-1.2,0-1.786,0-.282,0-.565,0-.847a1.37,1.37,0,0,0-1.138-1.354c-.029-.006-.056-.017-.094-.028,0-.057-.01-.109-.012-.161a1.026,1.026,0,0,0-1.086-1.075c-.893-.007-1.786,0-2.68,0h-.274c-.008-.088-.019-.16-.019-.232,0-.756,0-1.512,0-2.268a1.2,1.2,0,0,1,1.3-1.3q6.631,0,13.261,0a1.2,1.2,0,0,1,1.3,1.3q0,5.063,0,10.125a1.208,1.208,0,0,1-1.305,1.3h-4.906c0-.295,0-.567,0-.839a1.387,1.387,0,0,0-1-1.374c-.022-.006-.045-.022-.065-.019a.981.981,0,0,1-.915-.428,1.1,1.1,0,0,0-.932-.291.247.247,0,0,1-.194-.059A1.405,1.405,0,0,0-1176.192,1737.771Zm.354-5.723c0,.45.006.9,0,1.35,0,.172.059.224.226.223q1.327-.008,2.654,0c.168,0,.229-.055.228-.224q-.008-1.327,0-2.654c0-.169-.061-.223-.228-.222q-1.327.01-2.654,0c-.167,0-.229.051-.225.222C-1175.832,1731.178-1175.838,1731.613-1175.838,1732.048Zm4.953.019a1.577,1.577,0,0,0,1.567,1.579,1.582,1.582,0,0,0,1.578-1.57,1.584,1.584,0,0,0-1.57-1.58A1.578,1.578,0,0,0-1170.885,1732.066Zm-.265,6.51a1.279,1.279,0,0,0,.178.032q1.647,0,3.294,0c.205,0,.228-.058.112-.26q-.792-1.377-1.587-2.752c-.132-.229-.187-.229-.319,0q-.79,1.365-1.577,2.731A2.128,2.128,0,0,0-1171.151,1738.576Z" transform="translate(-34.998 -38.666)" fill="#0e1116"/>
      <path id="Path_18150" data-name="Path 18150" d="M-1177.242,1824.525c0-.432,0-.813,0-1.194q0-1.649,0-3.3a1.807,1.807,0,0,1,.016-.3.742.742,0,0,1,.749-.665.767.767,0,0,1,.688.735c.007.091,0,.183,0,.275,0,1.039,0,2.077,0,3.115a1.008,1.008,0,0,0,.047.212.859.859,0,0,0,.178-.108.655.655,0,0,1,.694-.179.7.7,0,0,1,.5.571c.026.133.032.27.052.452a1.011,1.011,0,0,0,.177-.116.649.649,0,0,1,.767-.19.73.73,0,0,1,.473.671.408.408,0,0,0,0,.068c.02.076.042.151.064.226a1.268,1.268,0,0,0,.179-.118.648.648,0,0,1,.738-.149.747.747,0,0,1,.472.746c-.007.733,0,1.468-.057,2.2a8.733,8.733,0,0,1-.267,1.621,2.641,2.641,0,0,1-2.579,2.114,6.738,6.738,0,0,1-1.482-.024,2.244,2.244,0,0,1-2.106-2.022c-.144-.717-.209-1.449-.323-2.172a2.338,2.338,0,0,0-1.222-1.755,3.238,3.238,0,0,1-.741-.6.659.659,0,0,1-.126-.786.68.68,0,0,1,.7-.386,2.7,2.7,0,0,1,.849.221c.448.208.871.472,1.305.711C-1177.418,1824.442-1177.35,1824.472-1177.242,1824.525Z" transform="translate(-36.015 -123.354)" fill="#0e1116"/>
      <path id="Path_18151" data-name="Path 18151" d="M-1207.873,1805.13c-.259-.142-.462-.26-.671-.368a2.006,2.006,0,0,0-1.544-.217,1.276,1.276,0,0,0-.809,1.825,2.024,2.024,0,0,0,.958.952,1.943,1.943,0,0,1,1.115,1.757c.03.409.1.816.149,1.25-.09.005-.163.013-.236.014q-1.5,0-3,0c-.414,0-.536-.121-.536-.528q0-4.9,0-9.8c0-.419.124-.542.549-.542h4.259c.448,0,.622.2.548.652a.264.264,0,0,1-.113.151,1.424,1.424,0,0,0-.666,1.256q0,1.649,0,3.3C-1207.873,1804.908-1207.873,1804.99-1207.873,1805.13Z" transform="translate(-5.99 -104.982)" fill="#0e1116"/>
      <path id="Path_18152" data-name="Path 18152" d="M-1002.285,1742.828v-.335q0-6.987,0-13.975c0-.084,0-.168,0-.252a.292.292,0,0,1,.293-.294.292.292,0,0,1,.325.259,1.185,1.185,0,0,1,.014.228q0,7.251,0,14.5c0,.424-.08.5-.513.5h-6.643a1.437,1.437,0,0,1-.228-.011.283.283,0,0,1-.26-.3.285.285,0,0,1,.266-.315,1.916,1.916,0,0,1,.274-.011h6.468Z" transform="translate(-196.411 -37.966)" fill="#0e1116"/>
      <path id="Path_18153" data-name="Path 18153" d="M-1218.2,1688.109v.3q0,1.924,0,3.848c0,.076.025.172-.011.225a.643.643,0,0,1-.271.257.257.257,0,0,1-.328-.208.913.913,0,0,1-.025-.249q0-2.165,0-4.329c0-.393.091-.482.488-.482h14.519c.053,0,.107,0,.16,0a.308.308,0,0,1,.323.315.307.307,0,0,1-.316.321c-.076.006-.152,0-.229,0H-1218.2Z" transform="translate(0 0)" fill="#0e1116"/>
    </g>
  </g>
</svg>
