<svg xmlns="http://www.w3.org/2000/svg" width="56" height="56" viewBox="0 0 56 56">
  <g id="Group_23559" data-name="Group 23559" transform="translate(-195 -1451.533)">
    <g id="Ellipse_942" data-name="Ellipse 942" transform="translate(195 1451.533)" fill="#c98475" stroke="" stroke-width="1">
      <circle cx="28" cy="28" r="28" stroke="none"/>
      <circle cx="28" cy="28" r="27.5" fill="none"/>
    </g>
    <g id="web-development-svgrepo-com" transform="translate(212 1453.541)">
      <g id="Group_23602" data-name="Group 23602" transform="translate(0 15.992)">
        <g id="Group_23601" data-name="Group 23601" transform="translate(0 0)">
          <path id="Path_17833" data-name="Path 17833" d="M14.405,33.121a.949.949,0,0,1-.284-.267.966.966,0,0,1-.09-.159H1.44V20.284H18.53v8.1a.953.953,0,0,1,.8.6.949.949,0,0,1,.641-.1v-11.7a1.2,1.2,0,0,0-1.2-1.2H1.2a1.2,1.2,0,0,0-1.2,1.2V32.934a1.2,1.2,0,0,0,1.2,1.2H14.3a.95.95,0,0,1,.109-1.014Zm2.807-15.113a.443.443,0,0,1,.443-.443H18.1a.443.443,0,0,1,.443.443v.5a.443.443,0,0,1-.443.443h-.443a.443.443,0,0,1-.443-.443Zm-2.061,0a.443.443,0,0,1,.443-.443h.443a.443.443,0,0,1,.443.443v.5a.443.443,0,0,1-.443.443H15.6a.443.443,0,0,1-.443-.443Zm-2.061,0a.443.443,0,0,1,.443-.443h.443a.443.443,0,0,1,.443.443v.5a.443.443,0,0,1-.443.443h-.443a.443.443,0,0,1-.443-.443Z" transform="translate(0 -15.992)"/>
          <path id="Path_17834" data-name="Path 17834" d="M295.128,277.455,295,276.7a.187.187,0,0,0-.217-.152l-.672.118a2.517,2.517,0,0,0-.306-.529l.439-.523a.187.187,0,0,0-.023-.263l-.587-.493a.187.187,0,0,0-.264.023l-.438.522a2.512,2.512,0,0,0-.574-.209v-.682a.187.187,0,0,0-.187-.187H291.4a.187.187,0,0,0-.187.187v.682a2.51,2.51,0,0,0-.574.209l-.438-.522a.187.187,0,0,0-.264-.023l-.587.493a.187.187,0,0,0-.023.264l.439.523a2.529,2.529,0,0,0-.306.529l-.672-.118a.187.187,0,0,0-.217.152l-.133.755a.187.187,0,0,0,.152.217l.672.118a2.52,2.52,0,0,0,.106.6l-.591.341a.187.187,0,0,0-.068.255l.383.664a.187.187,0,0,0,.255.068l.591-.341a2.52,2.52,0,0,0,.467.393l-.233.641a.187.187,0,0,0,.112.24l.72.262a.187.187,0,0,0,.24-.112l.233-.641a2.545,2.545,0,0,0,.61,0l.233.641a.187.187,0,0,0,.176.123.184.184,0,0,0,.064-.011l.721-.262a.187.187,0,0,0,.112-.24l-.233-.641a2.535,2.535,0,0,0,.467-.393l.591.341a.187.187,0,0,0,.093.025.192.192,0,0,0,.048-.006.187.187,0,0,0,.113-.087l.383-.664a.187.187,0,0,0-.068-.255l-.591-.341a2.519,2.519,0,0,0,.105-.6l.672-.118a.187.187,0,0,0,.121-.077A.183.183,0,0,0,295.128,277.455Zm-3.345,1.2a1.029,1.029,0,1,1,1.029-1.029A1.029,1.029,0,0,1,291.783,278.655Z" transform="translate(-273.748 -261.171)"/>
          <g id="Group_23600" data-name="Group 23600" transform="translate(3.926 5.754)">
            <path id="Path_17835" data-name="Path 17835" d="M81.555,167.54a.626.626,0,0,0-.361-.566l-2.009-.933,2.009-.934a.627.627,0,0,0,.361-.566v-.016a.623.623,0,0,0-.625-.624.628.628,0,0,0-.263.058l-3.212,1.494a.626.626,0,0,0-.361.566v.045a.627.627,0,0,0,.361.566l3.212,1.494a.624.624,0,0,0,.887-.566v-.016Z" transform="translate(-77.094 -162.123)"/>
            <path id="Path_17836" data-name="Path 17836" d="M166.163,129.238a.626.626,0,0,0-.5-.256h-.016a.622.622,0,0,0-.595.434l-2.116,6.557a.624.624,0,0,0,.595.814h.016a.622.622,0,0,0,.594-.434l2.116-6.557A.626.626,0,0,0,166.163,129.238Z" transform="translate(-158.534 -128.982)"/>
            <path id="Path_17837" data-name="Path 17837" d="M231.594,165.453l-3.212-1.494a.624.624,0,0,0-.887.566v.016a.627.627,0,0,0,.361.566l2.009.933-2.009.933a.626.626,0,0,0-.361.566v.016a.625.625,0,0,0,.888.566l3.212-1.494a.627.627,0,0,0,.361-.566v-.045A.627.627,0,0,0,231.594,165.453Z" transform="translate(-219.835 -162.124)"/>
          </g>
        </g>
      </g>
    </g>
  </g>
</svg>
