<svg xmlns="http://www.w3.org/2000/svg" width="24" height="24" viewBox="0 0 24 24">
  <g id="email" transform="translate(-37.556 -394.909)">
    <rect id="Rectangle_34" data-name="Rectangle 34" width="24" height="24" transform="translate(37.556 394.909)" fill="none"/>
    <path id="network-backup-svgrepo-com" d="M70.129,77.554A7.834,7.834,0,0,0,72.39,79.6v-2.54a7.755,7.755,0,0,0-2.261.495Zm-1.025.481a7.813,7.813,0,0,0-1.2.827h-.025a7.76,7.76,0,0,0,4.089,1.781A8.951,8.951,0,0,1,69.1,78.035Zm-.491-4.573a7.733,7.733,0,0,0,.908,3.135,8.861,8.861,0,0,1,2.869-.654V73.462H68.611Zm-1.116,0H65.132a7.761,7.761,0,0,0,1.959,4.633,8.954,8.954,0,0,1,1.428-1.009A8.853,8.853,0,0,1,67.5,73.462Zm8.863,3.157a7.754,7.754,0,0,0,.921-3.155h-3.8v2.482a8.81,8.81,0,0,1,2.877.674Zm1,.5a8.9,8.9,0,0,1,1.37.972,7.761,7.761,0,0,0,1.952-4.624H78.4A8.853,8.853,0,0,1,77.358,77.115Zm-3.875,2.494a7.834,7.834,0,0,0,2.265-2.036,7.751,7.751,0,0,0-2.265-.511V79.61Zm.459,1.022a7.761,7.761,0,0,0,3.99-1.769h-.01a7.812,7.812,0,0,0-1.151-.8A8.951,8.951,0,0,1,73.942,80.631Zm-4.42-11.419a7.746,7.746,0,0,0-.91,3.138H72.39V69.864a8.861,8.861,0,0,1-2.868-.651Zm-1-.489a8.931,8.931,0,0,1-1.428-1.005,7.761,7.761,0,0,0-1.959,4.631H67.5A8.853,8.853,0,0,1,68.521,68.723Zm3.868-2.509a7.834,7.834,0,0,0-2.256,2.041,7.755,7.755,0,0,0,2.257.492V66.214Zm-.417-1.045a7.759,7.759,0,0,0-4.082,1.772h.01a7.816,7.816,0,0,0,1.2.833A8.951,8.951,0,0,1,71.971,65.169Zm3.772,3.062A7.834,7.834,0,0,0,73.483,66.2v2.541A7.752,7.752,0,0,0,75.744,68.232Zm1.022-.489a7.813,7.813,0,0,0,1.15-.8h.008a7.76,7.76,0,0,0-3.98-1.758,8.951,8.951,0,0,1,2.822,2.561Zm.515,4.606a7.746,7.746,0,0,0-.925-3.164,8.858,8.858,0,0,1-2.873.674v2.49Zm1.116,0H80.68a7.761,7.761,0,0,0-1.959-4.631,8.932,8.932,0,0,1-1.366.972A8.857,8.857,0,0,1,78.4,72.35Zm-5.49,9.464a8.906,8.906,0,1,1,8.906-8.906A8.906,8.906,0,0,1,72.906,81.813Z" transform="translate(-23.444 333.909)" fill="#9b9a9f"/>
  </g>
</svg>
