<svg xmlns="http://www.w3.org/2000/svg" width="56" height="56" viewBox="0 0 56 56">
  <g id="Group_23559" data-name="Group 23559" transform="translate(-195 -1451.533)">
    <g id="Ellipse_942" data-name="Ellipse 942" transform="translate(195 1451.533)" fill="#f3d388" stroke="" stroke-width="1">
      <circle cx="28" cy="28" r="28" stroke="none"/>
      <circle cx="28" cy="28" r="27.5" fill="none"/>
    </g>
    <g id="Group_23827" data-name="Group 23827" transform="translate(-1741.012 258.859)">
      <path id="Path_18048" data-name="Path 18048" d="M1953.879,1421.086a1.183,1.183,0,0,1,.213-.223.4.4,0,0,1,.593.345c.038.42.048.843.106,1.26a7.872,7.872,0,0,0,6.158,6.52c.406.079.823.1,1.236.143.1.011.2.006.3.017a.394.394,0,0,1,.383.419.389.389,0,0,1-.42.382,13.614,13.614,0,0,1-1.474-.137,8.653,8.653,0,0,1-6.917-6.845c-.068-.335-.094-.678-.141-1.017-.007-.051-.023-.1-.035-.151Z" transform="translate(0 -199.149)" fill="#0e1116"/>
      <path id="Path_18049" data-name="Path 18049" d="M1953.879,1218.572c.05-.338.088-.677.152-1.012a8.384,8.384,0,0,1,3.05-5.069,8.581,8.581,0,0,1,4.822-1.921.77.77,0,0,0,.131-.033h.713l.093.068a.4.4,0,0,1-.194.737c-.413.034-.83.044-1.24.1a7.843,7.843,0,0,0-6.551,6.135,14.526,14.526,0,0,0-.165,1.529c-.032.32-.3.509-.562.375a1.189,1.189,0,0,1-.247-.24Z" transform="translate(0 0)" fill="#0e1116"/>
      <path id="Path_18050" data-name="Path 18050" d="M2168.055,1210.537c.4.061.8.092,1.187.186a8.551,8.551,0,0,1,6.526,6.2,8.055,8.055,0,0,1,.323,2.322.405.405,0,0,1-.238.4.335.335,0,0,1-.419-.061.749.749,0,0,1-.151-.367c-.084-.606-.1-1.224-.233-1.819a7.8,7.8,0,0,0-6.663-5.99c-.255-.029-.513-.037-.769-.051-.3-.016-.444-.1-.5-.3s.022-.347.266-.516Z" transform="translate(-201.945 0)" fill="#0e1116"/>
      <path id="Path_18051" data-name="Path 18051" d="M2103.7,1210.537a.526.526,0,0,1,.288.533c-.011.751,0,1.5,0,2.255v.242c.081-.068.135-.109.184-.154q.517-.475,1.033-.952a.427.427,0,0,1,.413-.131.4.4,0,0,1,.173.688c-.638.6-1.286,1.192-1.935,1.782a.392.392,0,0,1-.555-.012q-.957-.873-1.907-1.754a.4.4,0,1,1,.556-.585c.347.314.689.633,1.034.95l.2.18v-.254c0-.752.007-1.5,0-2.255a.527.527,0,0,1,.288-.533Z" transform="translate(-139.573 0)" fill="#0e1116"/>
      <path id="Path_18052" data-name="Path 18052" d="M1953.879,1360.1a.526.526,0,0,1,.533-.288c.751.011,1.5,0,2.254,0h.228a1.558,1.558,0,0,0-.1-.14q-.467-.51-.937-1.019c-.031-.034-.065-.066-.093-.1a.4.4,0,0,1,.029-.569.393.393,0,0,1,.568.028q.9.961,1.781,1.935a.387.387,0,0,1,0,.54q-.884.973-1.781,1.935a.4.4,0,1,1-.584-.553c.321-.358.65-.709.975-1.064.043-.047.084-.1.16-.184h-.248c-.751,0-1.5-.007-2.255,0a.528.528,0,0,1-.533-.288Z" transform="translate(0 -139.552)" fill="#0e1116"/>
      <path id="Path_18053" data-name="Path 18053" d="M2071.861,1331.273a3.409,3.409,0,0,0-1.5,1.418,4.02,4.02,0,1,1,5.878,0,3.415,3.415,0,0,0-1.5-1.42,2.343,2.343,0,0,0,.886-2.107,2.253,2.253,0,0,0-.847-1.557,2.334,2.334,0,0,0-3.213.243A2.36,2.36,0,0,0,2071.861,1331.273Z" transform="translate(-109.29 -109.29)" fill="#0e1116"/>
      <path id="Path_18054" data-name="Path 18054" d="M2164.865,1432.807c-.073,0-.145,0-.218,0a.408.408,0,0,1-.42-.387.394.394,0,0,1,.386-.417c.414-.038.83-.049,1.241-.1a7.84,7.84,0,0,0,6.57-6.288c.072-.4.088-.811.129-1.217a1.979,1.979,0,0,1,.031-.294.4.4,0,0,1,.448-.274.389.389,0,0,1,.334.424,13.912,13.912,0,0,1-.209,1.822,8.667,8.667,0,0,1-7.267,6.646c-.339.047-.682.067-1.023.1Z" transform="translate(-199.225 -202.005)" fill="#0e1116"/>
      <path id="Path_18055" data-name="Path 18055" d="M2118.076,1363.072a1.528,1.528,0,1,1-1.535,1.531A1.528,1.528,0,0,1,2118.076,1363.072Z" transform="translate(-154.06 -144.469)" fill="#0e1116"/>
      <path id="Path_18056" data-name="Path 18056" d="M2106.747,1437.681a3.946,3.946,0,0,1-4.589,0,2.507,2.507,0,0,1,4.589,0Z" transform="translate(-140.438 -213.715)" fill="#0e1116"/>
      <path id="Path_18057" data-name="Path 18057" d="M2255.753,1359.822h2.384c.085,0,.171,0,.257,0a.4.4,0,0,1,.392.392.393.393,0,0,1-.4.407c-.448.009-.9,0-1.344,0h-1.284c.062.077.1.126.139.171q.461.5.923,1a1.242,1.242,0,0,1,.091.1.4.4,0,0,1-.045.553.387.387,0,0,1-.553-.018q-.911-.975-1.806-1.965a.381.381,0,0,1,.013-.524q.885-.972,1.781-1.935a.4.4,0,1,1,.582.555c-.32.359-.65.71-.975,1.064C2255.869,1359.686,2255.829,1359.735,2255.753,1359.822Z" transform="translate(-284.643 -139.555)" fill="#0e1116"/>
      <path id="Path_18058" data-name="Path 18058" d="M2104.025,1512.441v2.095c0,.171,0,.343,0,.514a.4.4,0,0,1-.41.434.4.4,0,0,1-.392-.432c0-.791,0-1.582,0-2.373v-.222c-.081.067-.135.108-.184.154l-1,.924c-.232.213-.47.226-.642.037a.418.418,0,0,1,.083-.623q.916-.845,1.834-1.687a.412.412,0,0,1,.63,0q.927.847,1.849,1.7a.41.41,0,1,1-.558.587C2104.841,1513.193,2104.454,1512.836,2104.025,1512.441Z" transform="translate(-139.611 -284.683)" fill="#0e1116"/>
    </g>
  </g>
</svg>
