<svg xmlns="http://www.w3.org/2000/svg" width="70" height="70" viewBox="0 0 70 70">
  <g id="Group_23574" data-name="Group 23574" transform="translate(-195 -1451.533)">
    <circle id="Ellipse_942" data-name="Ellipse 942" cx="35" cy="35" r="35" transform="translate(195 1451.533)" fill="#f09ea7"/>
    <g id="Group_23844" data-name="Group 23844" transform="translate(823.14 -28.467)">
      <path id="Path_18143" data-name="Path 18143" d="M-473.947,1646.7a4.3,4.3,0,0,1-.668-.318,1.38,1.38,0,0,1-.6-1.121c-.007-.162,0-.325,0-.487q0-5.163,0-10.326a1.5,1.5,0,0,1,1.2-1.566,2.214,2.214,0,0,1,.464-.033q5.263,0,10.526,0a1.51,1.51,0,0,1,1.638,1.238c0,.012.016.021.025.031V1645.4a5.087,5.087,0,0,1-.324.7,1.518,1.518,0,0,1-.974.594Zm5.641-12.554h-5.234c-.348,0-.377.028-.377.364q0,5.265,0,10.531c0,.32.041.36.364.36h10.528c.313,0,.359-.048.359-.367q0-5.255,0-10.51c0-.346-.032-.377-.387-.377Z" transform="translate(-120.99 -120.917)" fill="#0e1116"/>
      <path id="Path_18144" data-name="Path 18144" d="M-582.266,1508.9c-.025.083-.049.166-.076.248a1.515,1.515,0,0,1-1.4,1.05h-17.691a1.519,1.519,0,0,1-1.594-1.291,1.584,1.584,0,0,1-.018-.263c0-.7,0-1.393,0-2.09a1.509,1.509,0,0,1,1.552-1.551q8.835,0,17.671,0a1.509,1.509,0,0,1,1.514,1.167c.012.044.027.088.041.132Zm-10.411,0h8.766c.291,0,.346-.054.346-.34q0-.974,0-1.948c0-.245-.066-.31-.314-.31h-17.552c-.255,0-.315.063-.315.329q0,.954,0,1.908c0,.315.046.361.365.361Z" transform="translate(-0.089)" fill="#0e1116"/>
      <path id="Path_18145" data-name="Path 18145" d="M-600.862,1797.72c-.116-.029-.233-.057-.349-.088a2.618,2.618,0,0,1-1.912-2.78,2.611,2.611,0,0,1,2.545-2.328,2.6,2.6,0,0,1,2.6,2.208,2.6,2.6,0,0,1-2.128,2.95.754.754,0,0,0-.112.038Zm.316-3.9a1.3,1.3,0,0,0-1.289,1.312,1.3,1.3,0,0,0,1.3,1.285,1.3,1.3,0,0,0,1.3-1.3A1.3,1.3,0,0,0-600.546,1793.823Z" transform="translate(0 -271.935)" fill="#0e1116"/>
      <path id="Path_18146" data-name="Path 18146" d="M-600.472,1641.975c-.649,0-1.3,0-1.947,0a.63.63,0,0,1-.589-.42.6.6,0,0,1,.179-.7.869.869,0,0,1,.461-.17c1.278-.013,2.556-.011,3.834-.005a.649.649,0,0,1,.68.655.649.649,0,0,1-.69.64c-.642,0-1.285,0-1.927,0Z" transform="translate(-0.085 -128.319)" fill="#0e1116"/>
      <path id="Path_18147" data-name="Path 18147" d="M-600.437,1689.914c-.622,0-1.244,0-1.866,0a.654.654,0,0,1-.715-.637.656.656,0,0,1,.716-.661q1.886,0,3.773,0a.654.654,0,0,1,.677.472.608.608,0,0,1-.259.707.892.892,0,0,1-.42.113C-599.166,1689.921-599.8,1689.914-600.437,1689.914Z" transform="translate(-0.116 -173.658)" fill="#0e1116"/>
      <path id="Path_18148" data-name="Path 18148" d="M-600.472,1737.812c-.649,0-1.3,0-1.947,0a.63.63,0,0,1-.589-.42.6.6,0,0,1,.179-.7.869.869,0,0,1,.461-.17c1.278-.013,2.556-.011,3.834-.006a.649.649,0,0,1,.68.655.649.649,0,0,1-.69.64c-.642,0-1.285,0-1.927,0Z" transform="translate(-0.085 -218.96)" fill="#0e1116"/>
    </g>
  </g>
</svg>
