<svg xmlns="http://www.w3.org/2000/svg" width="56" height="56" viewBox="0 0 56 56">
  <g id="Group_23559" data-name="Group 23559" transform="translate(-195 -1451.533)">
    <g id="Ellipse_942" data-name="Ellipse 942" transform="translate(195 1451.533)" fill="#e2eeff" stroke="" stroke-width="1">
      <circle cx="28" cy="28" r="28" stroke="none"/>
      <circle cx="28" cy="28" r="27.5" fill="none"/>
    </g>
    <g id="Group_23841" data-name="Group 23841" transform="translate(1959.486 786.458)">
      <path id="Path_18124" data-name="Path 18124" d="M-1736.465,683.644h8.25a1.694,1.694,0,0,1,1.831,1.838q0,7.6,0,15.2a1.693,1.693,0,0,1-1.822,1.826h-16.563a1.693,1.693,0,0,1-1.82-1.827q0-7.609,0-15.219a1.69,1.69,0,0,1,1.811-1.815Zm-9.45,3.031v.24q0,6.894,0,13.788a1.025,1.025,0,0,0,1.137,1.129h16.584a1.024,1.024,0,0,0,1.137-1.129q0-6.052,0-12.1v-.239h-.274q-3.336,0-6.672,0a.535.535,0,0,1-.466-.224c-.339-.438-.7-.863-1.034-1.3a.392.392,0,0,0-.353-.165q-4.9.006-9.807,0Zm12.97-.17a.508.508,0,0,0,.5-.514.507.507,0,0,0-.5-.493.508.508,0,0,0-.509.5A.508.508,0,0,0-1732.946,686.506Zm2.519-.495a.507.507,0,0,0-.5-.513.509.509,0,0,0-.508.484.509.509,0,0,0,.489.524A.509.509,0,0,0-1730.427,686.011Zm1.013-.026a.509.509,0,0,0,.492.521.508.508,0,0,0,.515-.5.507.507,0,0,0-.481-.509A.509.509,0,0,0-1729.413,685.985Z" fill="#0e1116"/>
      <path id="Path_18125" data-name="Path 18125" d="M-1693.729,910.937h6.587a.7.7,0,0,1,.8.795c0,.393,0,.786,0,1.179a.674.674,0,0,1-.726.72q-6.682,0-13.364,0a.674.674,0,0,1-.725-.721q0-.621,0-1.242a.673.673,0,0,1,.737-.731Z" transform="translate(-42.737 -213.82)" fill="#0e1116"/>
      <path id="Path_18126" data-name="Path 18126" d="M-1697.281,791.986h-2.735a1.023,1.023,0,0,1-1.127-1.117q0-1.915,0-3.829a1.018,1.018,0,0,1,1.106-1.116h5.532a1.018,1.018,0,0,1,1.106,1.116q0,1.915,0,3.829a1.023,1.023,0,0,1-1.127,1.117Zm.013-3.448,2.616-1.931h-5.233Zm-.571.416-2.616-1.928v3.858Zm3.183,2.349-2.618-1.931-2.616,1.931Zm.572-4.279-2.617,1.93,2.617,1.929Z" transform="translate(-42.752 -96.216)" fill="#0e1116"/>
      <path id="Path_18127" data-name="Path 18127" d="M-1550.105,786.451c-.856,0-1.711,0-2.567,0a.441.441,0,0,1-.293-.071.438.438,0,0,1-.124-.341.452.452,0,0,1,.292-.246,2.582,2.582,0,0,1,.566-.013h4.65c.056,0,.112,0,.168,0a.34.34,0,0,1,.357.335.334.334,0,0,1-.356.335c-.428.006-.856,0-1.283,0Z" transform="translate(-182.024 -96.07)" fill="#0e1116"/>
      <path id="Path_18128" data-name="Path 18128" d="M-1550.084,831.91c-.863,0-1.725,0-2.588,0a.442.442,0,0,1-.293-.071.438.438,0,0,1-.124-.341.451.451,0,0,1,.292-.246,2.58,2.58,0,0,1,.566-.013h4.65c.056,0,.112,0,.168,0a.34.34,0,0,1,.357.335.334.334,0,0,1-.356.335c-.421.006-.842,0-1.263,0Z" transform="translate(-182.024 -138.834)" fill="#0e1116"/>
      <path id="Path_18129" data-name="Path 18129" d="M-1549.965,876.841q1.3,0,2.609,0c.239,0,.385.121.4.315a.339.339,0,0,1-.357.356c-.266.006-.533,0-.8,0-1.487,0-2.974,0-4.461,0a.452.452,0,0,1-.308-.085.494.494,0,0,1-.1-.351.3.3,0,0,1,.33-.234h2.693Z" transform="translate(-182.122 -181.745)" fill="#0e1116"/>
    </g>
  </g>
</svg>
