<svg xmlns="http://www.w3.org/2000/svg" width="56" height="56" viewBox="0 0 56 56">
  <g id="Group_23559" data-name="Group 23559" transform="translate(-195 -1451.533)">
    <g id="Ellipse_942" data-name="Ellipse 942" transform="translate(195 1451.533)" fill="#c3d4ca" stroke="" stroke-width="1">
      <circle cx="28" cy="28" r="28" stroke="none"/>
      <circle cx="28" cy="28" r="27.5" fill="none"/>
    </g>
    <path id="xamarin-svgrepo-com" d="M6.548,1.323A1.8,1.8,0,0,0,5.027,2.2L.228,10.54a1.814,1.814,0,0,0,0,1.761l4.8,8.337a1.8,1.8,0,0,0,1.522.879h9.6a1.8,1.8,0,0,0,1.522-.879l4.8-8.337a1.814,1.814,0,0,0,0-1.761L17.668,2.2a1.8,1.8,0,0,0-1.522-.879ZM6.635,6.2a.208.208,0,0,1,.041,0H8.331a.217.217,0,0,1,.182.108l2.809,5a.216.216,0,0,1,.026.081.216.216,0,0,1,.026-.081l2.8-5a.218.218,0,0,1,.187-.108h1.656a.227.227,0,0,1,.188.316l-2.742,4.9,2.742,4.9a.226.226,0,0,1-.188.322H14.364a.219.219,0,0,1-.189-.113l-2.8-5a.216.216,0,0,1-.026-.082.216.216,0,0,1-.026.081l-2.809,5a.218.218,0,0,1-.182.113H6.676a.226.226,0,0,1-.188-.322l2.742-4.9-2.742-4.9A.225.225,0,0,1,6.635,6.2Z" transform="translate(212 1468.21)"/>
  </g>
</svg>
