<svg xmlns="http://www.w3.org/2000/svg" width="384.642" height="52.617" viewBox="0 0 384.642 52.617">
  <g id="logo" transform="translate(-605.937 -657)">
    <path id="Path_13" data-name="Path 13" d="M605.937,705.194V666.877h5.1v38.317Z" transform="translate(0 3.746)" fill="#fff"/>
    <path id="Path_14" data-name="Path 14" d="M642.082,666.877h5.072v38.317H641.92l-21.667-29.83v29.83h-5.1V666.877h5.262l21.666,29.938Z" transform="translate(3.496 3.746)" fill="#fff"/>
    <path id="Path_15" data-name="Path 15" d="M658.673,666.877a19.925,19.925,0,0,1,9.927,2.5,18.113,18.113,0,0,1,6.968,6.874,20.228,20.228,0,0,1,0,19.565A18.088,18.088,0,0,1,668.6,702.7a19.939,19.939,0,0,1-9.927,2.494H643.9V666.877Zm-.054,33.545a13.756,13.756,0,0,0,10.169-4.123,14,14,0,0,0,4.095-10.277,14.679,14.679,0,0,0-1.858-7.336,13.483,13.483,0,0,0-5.125-5.167,14.393,14.393,0,0,0-7.281-1.87h-9.627v28.773Z" transform="translate(14.396 3.746)" fill="#fff"/>
    <path id="Path_16" data-name="Path 16" d="M700.353,666.877v8.109H689.7v30.209h-8.624V674.986H670.415v-8.109Z" transform="translate(24.453 3.746)" fill="#fff"/>
    <path id="Path_17" data-name="Path 17" d="M703.394,697.085h17.653v8.109H694.771V666.877h26.007v8.109H703.394v6.887h15.539v8.109H703.394Z" transform="translate(33.69 3.746)" fill="#fff"/>
    <path id="Path_18" data-name="Path 18" d="M735.728,706.058a21.127,21.127,0,0,1-8.027-1.531,19.7,19.7,0,0,1-6.455-4.163,19.027,19.027,0,0,1-4.229-6.306,20.705,20.705,0,0,1,0-15.7,19.065,19.065,0,0,1,4.229-6.3A19.581,19.581,0,0,1,727.7,667.9a21.279,21.279,0,0,1,8.027-1.519,20.969,20.969,0,0,1,9.776,2.292,19.1,19.1,0,0,1,7.171,6.332l-7.456,4.608a11.412,11.412,0,0,0-9.491-4.961,11.059,11.059,0,0,0-8.164,3.295,12.03,12.03,0,0,0,0,16.514,11.061,11.061,0,0,0,8.164,3.3,11.446,11.446,0,0,0,5.437-1.316,11.171,11.171,0,0,0,4.054-3.62l7.456,4.609a19.082,19.082,0,0,1-7.171,6.332A20.966,20.966,0,0,1,735.728,706.058Z" transform="translate(41.541 3.559)" fill="#fff"/>
    <path id="Path_19" data-name="Path 19" d="M768.879,666.877h8.6v38.317h-8.6V689.981H753.5v15.213H744.88V666.877H753.5v15h15.374Z" transform="translate(52.694 3.746)" fill="#fff"/>
    <path id="Path_20" data-name="Path 20" d="M834.378,705.194l-2.386-6.725H816.425l-2.386,6.725h-9.22l14.4-38.317h10.169l14.426,38.317ZM819.22,690.523H829.2l-4.99-14.155Z" transform="translate(75.426 3.746)" fill="#fff"/>
    <path id="Path_21" data-name="Path 21" d="M855.719,705.194l-7.893-13.1h-4.147v13.1h-8.623V666.877h16.623a13.168,13.168,0,0,1,9.518,3.661,12.2,12.2,0,0,1,3.8,9.167,11.818,11.818,0,0,1-2.143,7.009,12.4,12.4,0,0,1-5.749,4.434l8.948,14.046Zm-12.041-30.209v9.6h7.809a4.467,4.467,0,0,0,3.323-1.37,4.67,4.67,0,0,0,1.343-3.4,4.787,4.787,0,0,0-1.329-3.444,4.436,4.436,0,0,0-3.337-1.382Z" transform="translate(86.893 3.746)" fill="#fff"/>
    <path id="Path_22" data-name="Path 22" d="M883.116,705.194,871.51,691.527l-3.2,3.607v10.06h-8.623V666.877h8.623v16.542l14.264-16.542H893.5l-16.434,18.439,17.275,19.878Z" transform="translate(96.235 3.746)" fill="#fff"/>
    <path id="Path_23" data-name="Path 23" d="M828.707,657l-24.827,24.578-12.8,12.662L775.22,678.378l3.834-7.586L791.1,683.026,817.673,657Z" transform="translate(64.201)" fill="#e51635"/>
    <rect id="Rectangle_21" data-name="Rectangle 21" width="8.276" height="38.619" transform="translate(834.98 670.793)" fill="#fff"/>
    <path id="Path_24" data-name="Path 24" d="M804.276,668.88v36.026H796V677.073Z" transform="translate(72.082 4.506)" fill="#fff"/>
  </g>
</svg>
